ISO-10303-21;
HEADER;
FILE_DESCRIPTION(('STEP AP203'),
    '1');
FILE_NAME('для_котиных_носочков',
    '',
    ('UNSPECIFIED'),
    ('UNSPECIFIED'),
    'C3D Converter',
    'C3D Toolkit',
    '');
FILE_SCHEMA(('CONFIG_CONTROL_DESIGN'));
ENDSEC;

DATA;
#1=PRODUCT_DEFINITION('','UNSPECIFIED',#28,#31);
#2=SHAPE_DEFINITION_REPRESENTATION(#26,#3);
#3=SHAPE_REPRESENTATION('NONE',(#4),#8);
#4=AXIS2_PLACEMENT_3D('',#5,#6,#7);
#5=CARTESIAN_POINT('',(0.,0.,0.));
#6=DIRECTION('',(0.,0.,1.));
#7=DIRECTION('',(1.,0.,0.));
#8=(GEOMETRIC_REPRESENTATION_CONTEXT(3)GLOBAL_UNCERTAINTY_ASSIGNED_CONTEXT((#10))
GLOBAL_UNIT_ASSIGNED_CONTEXT((#9,#11,#12))REPRESENTATION_CONTEXT('NONE','NONE'));
#9=(LENGTH_UNIT()NAMED_UNIT(*)SI_UNIT(.MILLI.,.METRE.));
#10=UNCERTAINTY_MEASURE_WITH_UNIT(LENGTH_MEASURE(1.E-5),#9,'NONE','NONE');
#11=(NAMED_UNIT(*)PLANE_ANGLE_UNIT()SI_UNIT($,.RADIAN.));
#12=(NAMED_UNIT(*)SI_UNIT($,.STERADIAN.)SOLID_ANGLE_UNIT());
#13=MANIFOLD_SOLID_BREP('',#14);
#14=CLOSED_SHELL('',(#53,#54,#55,#56,#57,#58));
#15=COLOUR_RGB('',0.564705882352941,0.564705882352941,0.564705882352941);
#16=FILL_AREA_STYLE_COLOUR('',#15);
#17=FILL_AREA_STYLE($,(#16));
#18=SURFACE_STYLE_FILL_AREA(#17);
#19=SURFACE_SIDE_STYLE('',(#18));
#20=SURFACE_STYLE_USAGE(.BOTH.,#19);
#21=PRESENTATION_STYLE_ASSIGNMENT((#20));
#22=MECHANICAL_DESIGN_GEOMETRIC_PRESENTATION_REPRESENTATION('NONE',(#23),#8);
#23=STYLED_ITEM('',(#21),#13);
#24=ADVANCED_BREP_SHAPE_REPRESENTATION('NONE',(#13),#8);
#25=SHAPE_REPRESENTATION_RELATIONSHIP('','',#3,#24);
#26=PRODUCT_DEFINITION_SHAPE('NONE','NONE',#1);
#27=MECHANICAL_CONTEXT('NONE',#32,'mechanical');
#28=PRODUCT_DEFINITION_FORMATION_WITH_SPECIFIED_SOURCE('ANY','UNSPECIFIED',#29,.NOT_KNOWN.);
#29=PRODUCT('','\X2\0414043504420430043B044C\X0\','NONE',(#27));
#30=PRODUCT_RELATED_PRODUCT_CATEGORY('detail','',(#29));
#31=DESIGN_CONTEXT('detailed design',#32,'design');
#32=APPLICATION_CONTEXT('configuration controlled 3d designs of mechanical parts and assemblies');
#33=APPLICATION_PROTOCOL_DEFINITION('international standard','config_control_design',
1994,#32);
#34=CC_DESIGN_DATE_AND_TIME_ASSIGNMENT(#35,#39,(#1));
#35=DATE_AND_TIME(#36,#37);
#36=CALENDAR_DATE(0,1,1);
#37=LOCAL_TIME(0,0,0.,#38);
#38=COORDINATED_UNIVERSAL_TIME_OFFSET(0,0,.AHEAD.);
#39=DATE_TIME_ROLE('creation_date');
#40=CC_DESIGN_APPROVAL(#41,(#1));
#41=APPROVAL(#42,'UNSPECIFIED');
#42=APPROVAL_STATUS('not_yet_approved');
#43=APPROVAL_DATE_TIME(#44,#41);
#44=DATE_AND_TIME(#45,#46);
#45=CALENDAR_DATE(0,1,1);
#46=LOCAL_TIME(0,0,0.,#47);
#47=COORDINATED_UNIVERSAL_TIME_OFFSET(0,0,.AHEAD.);
#48=PERSON('UNSPECIFIED','savvig','UNSPECIFIED',('UNSPECIFIED'),('UNSPECIFIED'),
('UNSPECIFIED'));
#49=ORGANIZATION('UNSPECIFIED','UNSPECIFIED','UNSPECIFIED');
#50=PERSON_AND_ORGANIZATION(#48,#49);
#51=PERSON_AND_ORGANIZATION_ROLE('creator');
#52=CC_DESIGN_PERSON_AND_ORGANIZATION_ASSIGNMENT(#50,#51,(#28,#1));
#53=ADVANCED_FACE('',(#59),#61,.T.);
#54=ADVANCED_FACE('',(#66),#68,.F.);
#55=ADVANCED_FACE('',(#73),#75,.T.);
#56=ADVANCED_FACE('',(#80),#82,.F.);
#57=ADVANCED_FACE('',(#87),#89,.T.);
#58=ADVANCED_FACE('',(#94),#96,.F.);
#59=FACE_BOUND('',#60,.T.);
#60=EDGE_LOOP('',(#101,#102,#103,#104));
#61=CYLINDRICAL_SURFACE('',#62,42.5);
#62=AXIS2_PLACEMENT_3D('',#63,#64,#65);
#63=CARTESIAN_POINT('',(-65.8501033828218,-5.50310180797771E-22,-8.0643118331295E-15));
#64=DIRECTION('',(1.22464679914735E-16,0.,-1.));
#65=DIRECTION('',(0.262197423052327,-0.965014254477476,3.21099234885717E-17));
#66=FACE_BOUND('',#67,.T.);
#67=EDGE_LOOP('',(#105,#106,#107,#108));
#68=CYLINDRICAL_SURFACE('',#69,237.254114695543);
#69=AXIS2_PLACEMENT_3D('',#70,#71,#72);
#70=CARTESIAN_POINT('',(7.50070457863504,269.966708429926,9.1857138535753E-16));
#71=DIRECTION('',(-1.22464679914735E-16,0.,1.));
#72=DIRECTION('',(-0.262197423052328,-0.965014254477476,-3.21099234885718E-17));
#73=FACE_BOUND('',#74,.T.);
#74=EDGE_LOOP('',(#109,#110,#111,#112));
#75=CYLINDRICAL_SURFACE('',#76,40.);
#76=AXIS2_PLACEMENT_3D('',#77,#78,#79);
#77=CARTESIAN_POINT('',(70.6498966171782,-5.85056986417608E-22,8.65211697523187E-15));
#78=DIRECTION('',(1.22464679914735E-16,0.,-1.));
#79=DIRECTION('',(-0.227766473755992,0.973715786784194,-2.78933483038355E-17));
#80=FACE_BOUND('',#81,.T.);
#81=EDGE_LOOP('',(#113,#114,#115,#116));
#82=CYLINDRICAL_SURFACE('',#83,237.254114695544);
#83=AXIS2_PLACEMENT_3D('',#84,#85,#86);
#84=CARTESIAN_POINT('',(7.50070457863504,-269.966708429927,9.1857138535753E-16));
#85=DIRECTION('',(-1.22464679914735E-16,0.,1.));
#86=DIRECTION('',(0.227766473755991,0.973715786784194,2.78933483038353E-17));
#87=FACE_BOUND('',#88,.T.);
#88=EDGE_LOOP('',(#117,#118,#119,#120));
#89=PLANE('',#90);
#90=AXIS2_PLACEMENT_3D('',#91,#92,#93);
#91=CARTESIAN_POINT('',(1.22464679914735E-16,0.,-1.));
#92=DIRECTION('',(1.22464679914735E-16,0.,-1.));
#93=DIRECTION('',(-6.12323399573677E-17,-1.,-7.49879891330929E-33));
#94=FACE_BOUND('',#95,.T.);
#95=EDGE_LOOP('',(#121,#122,#123,#124));
#96=PLANE('',#97);
#97=AXIS2_PLACEMENT_3D('',#98,#99,#100);
#98=CARTESIAN_POINT('',(0.,0.,0.));
#99=DIRECTION('',(1.22464679914735E-16,0.,-1.));
#100=DIRECTION('',(-6.12323399573677E-17,-1.,-7.49879891330929E-33));
#101=ORIENTED_EDGE('',*,*,#125,.T.);
#102=ORIENTED_EDGE('',*,*,#126,.T.);
#103=ORIENTED_EDGE('',*,*,#127,.F.);
#104=ORIENTED_EDGE('',*,*,#128,.F.);
#105=ORIENTED_EDGE('',*,*,#129,.T.);
#106=ORIENTED_EDGE('',*,*,#130,.T.);
#107=ORIENTED_EDGE('',*,*,#131,.F.);
#108=ORIENTED_EDGE('',*,*,#126,.F.);
#109=ORIENTED_EDGE('',*,*,#132,.T.);
#110=ORIENTED_EDGE('',*,*,#133,.T.);
#111=ORIENTED_EDGE('',*,*,#134,.F.);
#112=ORIENTED_EDGE('',*,*,#130,.F.);
#113=ORIENTED_EDGE('',*,*,#135,.T.);
#114=ORIENTED_EDGE('',*,*,#128,.T.);
#115=ORIENTED_EDGE('',*,*,#136,.F.);
#116=ORIENTED_EDGE('',*,*,#133,.F.);
#117=ORIENTED_EDGE('',*,*,#127,.T.);
#118=ORIENTED_EDGE('',*,*,#131,.T.);
#119=ORIENTED_EDGE('',*,*,#134,.T.);
#120=ORIENTED_EDGE('',*,*,#136,.T.);
#121=ORIENTED_EDGE('',*,*,#135,.F.);
#122=ORIENTED_EDGE('',*,*,#132,.F.);
#123=ORIENTED_EDGE('',*,*,#129,.F.);
#124=ORIENTED_EDGE('',*,*,#125,.F.);
#125=EDGE_CURVE('',#137,#138,#139,.T.);
#126=EDGE_CURVE('',#138,#140,#141,.T.);
#127=EDGE_CURVE('',#142,#140,#143,.T.);
#128=EDGE_CURVE('',#137,#142,#144,.T.);
#129=EDGE_CURVE('',#138,#145,#146,.T.);
#130=EDGE_CURVE('',#145,#147,#148,.T.);
#131=EDGE_CURVE('',#140,#147,#149,.T.);
#132=EDGE_CURVE('',#145,#150,#151,.T.);
#133=EDGE_CURVE('',#150,#152,#153,.T.);
#134=EDGE_CURVE('',#147,#152,#154,.T.);
#135=EDGE_CURVE('',#150,#137,#155,.T.);
#136=EDGE_CURVE('',#152,#142,#156,.T.);
#137=VERTEX_POINT('',#157);
#138=VERTEX_POINT('',#158);
#139=CIRCLE('',#159,42.5);
#140=VERTEX_POINT('',#163);
#141=LINE('',#164,#165);
#142=VERTEX_POINT('',#167);
#143=CIRCLE('',#168,42.5);
#144=LINE('',#172,#173);
#145=VERTEX_POINT('',#175);
#146=CIRCLE('',#176,237.254114695543);
#147=VERTEX_POINT('',#180);
#148=LINE('',#181,#182);
#149=CIRCLE('',#184,237.254114695543);
#150=VERTEX_POINT('',#188);
#151=CIRCLE('',#189,40.);
#152=VERTEX_POINT('',#193);
#153=LINE('',#194,#195);
#154=CIRCLE('',#197,40.);
#155=CIRCLE('',#201,237.254114695544);
#156=CIRCLE('',#205,237.254114695544);
#157=CARTESIAN_POINT('',(-54.7067129030979,-41.0131058152927,-6.6996400848652E-15));
#158=CARTESIAN_POINT('',(-54.7067129030979,41.0131058152927,-6.6996400848652E-15));
#159=AXIS2_PLACEMENT_3D('',#160,#161,#162);
#160=CARTESIAN_POINT('',(-65.8501033828218,-5.50310180797771E-22,-8.0643118331295E-15));
#161=DIRECTION('',(1.22464679914735E-16,0.,-1.));
#162=DIRECTION('',(0.262197423052327,-0.965014254477476,3.21099234885717E-17));
#163=CARTESIAN_POINT('',(-54.7067129030979,41.0131058152927,-1.00000000000001));
#164=CARTESIAN_POINT('',(-54.7067129030979,41.0131058152927,-6.6996400848652E-15));
#165=VECTOR('',#166,1.);
#166=DIRECTION('',(0.,0.,-1.));
#167=CARTESIAN_POINT('',(-54.7067129030979,-41.0131058152927,-1.00000000000001));
#168=AXIS2_PLACEMENT_3D('',#169,#170,#171);
#169=CARTESIAN_POINT('',(-65.8501033828218,-5.50310180797771E-22,-1.00000000000001));
#170=DIRECTION('',(1.22464679914735E-16,0.,-1.));
#171=DIRECTION('',(0.262197423052327,-0.965014254477476,3.21099234885717E-17));
#172=CARTESIAN_POINT('',(-54.7067129030979,-41.0131058152926,-6.6996400848652E-15));
#173=VECTOR('',#174,1.);
#174=DIRECTION('',(0.,0.,-1.));
#175=CARTESIAN_POINT('',(61.5392376669386,38.9486314713678,7.53638304307846E-15));
#176=AXIS2_PLACEMENT_3D('',#177,#178,#179);
#177=CARTESIAN_POINT('',(7.50070457863504,269.966708429926,9.1857138535753E-16));
#178=DIRECTION('',(-1.22464679914735E-16,-7.70371977754894E-34,1.));
#179=DIRECTION('',(-0.262197423052328,-0.965014254477476,-3.21099234885718E-17));
#180=CARTESIAN_POINT('',(61.5392376669386,38.9486314713678,-0.999999999999993));
#181=CARTESIAN_POINT('',(61.5392376669386,38.9486314713678,7.53638304307845E-15));
#182=VECTOR('',#183,1.);
#183=DIRECTION('',(0.,0.,-1.));
#184=AXIS2_PLACEMENT_3D('',#185,#186,#187);
#185=CARTESIAN_POINT('',(7.50070457863504,269.966708429926,-0.999999999999999));
#186=DIRECTION('',(-1.22464679914735E-16,-7.70371977754894E-34,1.));
#187=DIRECTION('',(-0.262197423052328,-0.965014254477476,-3.21099234885718E-17));
#188=CARTESIAN_POINT('',(61.5392376669385,-38.9486314713677,7.53638304307845E-15));
#189=AXIS2_PLACEMENT_3D('',#190,#191,#192);
#190=CARTESIAN_POINT('',(70.6498966171782,-5.85056986417608E-22,8.65211697523187E-15));
#191=DIRECTION('',(1.22464679914735E-16,0.,-1.));
#192=DIRECTION('',(-0.227766473755992,0.973715786784194,-2.78933483038355E-17));
#193=CARTESIAN_POINT('',(61.5392376669385,-38.9486314713677,-0.999999999999993));
#194=CARTESIAN_POINT('',(61.5392376669386,-38.9486314713678,7.53638304307845E-15));
#195=VECTOR('',#196,1.);
#196=DIRECTION('',(0.,0.,-1.));
#197=AXIS2_PLACEMENT_3D('',#198,#199,#200);
#198=CARTESIAN_POINT('',(70.6498966171782,-5.85056986417608E-22,-0.999999999999991));
#199=DIRECTION('',(1.22464679914735E-16,0.,-1.));
#200=DIRECTION('',(-0.227766473755992,0.973715786784194,-2.78933483038355E-17));
#201=AXIS2_PLACEMENT_3D('',#202,#203,#204);
#202=CARTESIAN_POINT('',(7.50070457863504,-269.966708429927,9.1857138535753E-16));
#203=DIRECTION('',(-1.22464679914735E-16,7.70371977754894E-34,1.));
#204=DIRECTION('',(0.227766473755991,0.973715786784194,2.78933483038353E-17));
#205=AXIS2_PLACEMENT_3D('',#206,#207,#208);
#206=CARTESIAN_POINT('',(7.50070457863504,-269.966708429927,-0.999999999999999));
#207=DIRECTION('',(-1.22464679914735E-16,7.70371977754894E-34,1.));
#208=DIRECTION('',(0.227766473755991,0.973715786784194,2.78933483038353E-17));
ENDSEC;
END-ISO-10303-21;
