ISO-10303-21;
HEADER;
FILE_DESCRIPTION(('STEP AP242'),
    '1');
FILE_NAME('cam_case poc 01',
    '2024-09-14T10:30:13',
    ('savatneevvg'),
    (''),
    'C3D Converter',
    'C3D Toolkit',
    '');
/**/
FILE_SCHEMA(('AP242_MANAGED_MODEL_BASED_3D_ENGINEERING_MIM_LF { 1 0 10303 442 1 1 4 }'));
ENDSEC;

DATA;
#1=PRODUCT_DEFINITION('','UNSPECIFIED',#19,#22);
#2=SHAPE_DEFINITION_REPRESENTATION(#17,#3);
#3=SHAPE_REPRESENTATION('NONE',(#4),#8);
#4=AXIS2_PLACEMENT_3D('',#5,#6,#7);
#5=CARTESIAN_POINT('',(0.,0.,0.));
#6=DIRECTION('',(0.,0.,1.));
#7=DIRECTION('',(1.,0.,0.));
#8=(GEOMETRIC_REPRESENTATION_CONTEXT(3)GLOBAL_UNCERTAINTY_ASSIGNED_CONTEXT((#10))
GLOBAL_UNIT_ASSIGNED_CONTEXT((#9,#11,#12))REPRESENTATION_CONTEXT('NONE','NONE'));
#9=(LENGTH_UNIT()NAMED_UNIT(*)SI_UNIT(.MILLI.,.METRE.));
#10=UNCERTAINTY_MEASURE_WITH_UNIT(LENGTH_MEASURE(1.E-5),#9,'NONE','NONE');
#11=(NAMED_UNIT(*)PLANE_ANGLE_UNIT()SI_UNIT($,.RADIAN.));
#12=(NAMED_UNIT(*)SI_UNIT($,.STERADIAN.)SOLID_ANGLE_UNIT());
#13=MANIFOLD_SOLID_BREP('',#14);
#14=CLOSED_SHELL('',(#44,#45,#46,#47,#48,#49,#50,#51,#52,#53,#54,#55,#56,#57,#58,
#59,#60,#61,#62,#63,#64,#65));
#15=ADVANCED_BREP_SHAPE_REPRESENTATION('NONE',(#13),#8);
#16=SHAPE_REPRESENTATION_RELATIONSHIP('','',#3,#15);
#17=PRODUCT_DEFINITION_SHAPE('NONE','NONE',#1);
#18=MECHANICAL_CONTEXT('NONE',#23,'mechanical');
#19=PRODUCT_DEFINITION_FORMATION_WITH_SPECIFIED_SOURCE('ANY','UNSPECIFIED',#20,.NOT_KNOWN.);
#20=PRODUCT('','\X2\0414043504420430043B044C\X0\','NONE',(#18));
#21=PRODUCT_RELATED_PRODUCT_CATEGORY('detail','',(#20));
#22=DESIGN_CONTEXT('detailed design',#23,'design');
#23=APPLICATION_CONTEXT('configuration controlled 3d designs of mechanical parts and assemblies');
#24=APPLICATION_PROTOCOL_DEFINITION('international standard','config_control_design',
1994,#23);
#25=CC_DESIGN_DATE_AND_TIME_ASSIGNMENT(#26,#30,(#1));
#26=DATE_AND_TIME(#27,#28);
#27=CALENDAR_DATE(0,1,1);
#28=LOCAL_TIME(0,0,0.,#29);
#29=COORDINATED_UNIVERSAL_TIME_OFFSET(0,0,.AHEAD.);
#30=DATE_TIME_ROLE('creation_date');
#31=CC_DESIGN_APPROVAL(#32,(#1));
#32=APPROVAL(#33,'UNSPECIFIED');
#33=APPROVAL_STATUS('not_yet_approved');
#34=APPROVAL_DATE_TIME(#35,#32);
#35=DATE_AND_TIME(#36,#37);
#36=CALENDAR_DATE(0,1,1);
#37=LOCAL_TIME(0,0,0.,#38);
#38=COORDINATED_UNIVERSAL_TIME_OFFSET(0,0,.AHEAD.);
#39=PERSON('UNSPECIFIED','savatneevvg','UNSPECIFIED',('UNSPECIFIED'),('UNSPECIFIED'),
('UNSPECIFIED'));
#40=ORGANIZATION('UNSPECIFIED','UNSPECIFIED','UNSPECIFIED');
#41=PERSON_AND_ORGANIZATION(#39,#40);
#42=PERSON_AND_ORGANIZATION_ROLE('creator');
#43=CC_DESIGN_PERSON_AND_ORGANIZATION_ASSIGNMENT(#41,#42,(#19,#1));
#44=ADVANCED_FACE('',(#66),#68,.T.);
#45=ADVANCED_FACE('',(#73),#75,.T.);
#46=ADVANCED_FACE('',(#80),#82,.T.);
#47=ADVANCED_FACE('',(#87),#89,.T.);
#48=ADVANCED_FACE('',(#94),#96,.T.);
#49=ADVANCED_FACE('',(#101),#103,.T.);
#50=ADVANCED_FACE('',(#108),#110,.T.);
#51=ADVANCED_FACE('',(#115),#117,.T.);
#52=ADVANCED_FACE('',(#122),#124,.T.);
#53=ADVANCED_FACE('',(#129),#131,.T.);
#54=ADVANCED_FACE('',(#136),#138,.T.);
#55=ADVANCED_FACE('',(#143),#145,.T.);
#56=ADVANCED_FACE('',(#150),#152,.T.);
#57=ADVANCED_FACE('',(#157),#159,.T.);
#58=ADVANCED_FACE('',(#164),#166,.T.);
#59=ADVANCED_FACE('',(#171),#173,.T.);
#60=ADVANCED_FACE('',(#178),#180,.T.);
#61=ADVANCED_FACE('',(#185),#187,.T.);
#62=ADVANCED_FACE('',(#192),#194,.T.);
#63=ADVANCED_FACE('',(#199),#201,.F.);
#64=ADVANCED_FACE('',(#206),#208,.T.);
#65=ADVANCED_FACE('',(#213),#215,.T.);
#66=FACE_BOUND('',#67,.T.);
#67=EDGE_LOOP('',(#220,#221,#222,#223,#224,#225,#226,#227));
#68=PLANE('',#69);
#69=AXIS2_PLACEMENT_3D('',#70,#71,#72);
#70=CARTESIAN_POINT('',(-14.7078210487016,1.41421356237321,0.));
#71=DIRECTION('',(-0.707106781181117,0.707106781191979,0.));
#72=DIRECTION('',(-0.707106781191979,-0.707106781181117,0.));
#73=FACE_BOUND('',#74,.T.);
#74=EDGE_LOOP('',(#228,#229,#230,#231));
#75=PLANE('',#76);
#76=AXIS2_PLACEMENT_3D('',#77,#78,#79);
#77=CARTESIAN_POINT('',(-15.9806132548472,0.1414213562472,0.));
#78=DIRECTION('',(-0.707106781187785,-0.70710678118531,0.));
#79=DIRECTION('',(0.70710678118531,-0.707106781187785,0.));
#80=FACE_BOUND('',#81,.T.);
#81=EDGE_LOOP('',(#232,#233,#234,#235));
#82=PLANE('',#83);
#83=AXIS2_PLACEMENT_3D('',#84,#85,#86);
#84=CARTESIAN_POINT('',(-14.0735064736564,-1.76568542495023,0.));
#85=DIRECTION('',(-1.26168144001041E-16,-1.,0.));
#86=DIRECTION('',(1.,-1.26168144001041E-16,0.));
#87=FACE_BOUND('',#88,.T.);
#88=EDGE_LOOP('',(#236,#237,#238,#239));
#89=PLANE('',#90);
#90=AXIS2_PLACEMENT_3D('',#91,#92,#93);
#91=CARTESIAN_POINT('',(1.7656854249641,-1.76568542495023,0.));
#92=DIRECTION('',(1.,-1.26168144001708E-16,0.));
#93=DIRECTION('',(1.26168144001708E-16,1.,0.));
#94=FACE_BOUND('',#95,.T.);
#95=EDGE_LOOP('',(#240,#241,#242,#243));
#96=PLANE('',#97);
#97=AXIS2_PLACEMENT_3D('',#98,#99,#100);
#98=CARTESIAN_POINT('',(1.7656854249641,14.0735064735866,0.));
#99=DIRECTION('',(0.707106781187786,0.707106781185309,0.));
#100=DIRECTION('',(-0.707106781185309,0.707106781187786,0.));
#101=FACE_BOUND('',#102,.T.);
#102=EDGE_LOOP('',(#244,#245,#246,#247));
#103=PLANE('',#104);
#104=AXIS2_PLACEMENT_3D('',#105,#106,#107);
#105=CARTESIAN_POINT('',(0.141421356872689,13.152186129658,0.));
#106=DIRECTION('',(0.707106782012097,-0.707106780360998,0.));
#107=DIRECTION('',(0.707106780360998,0.707106782012097,0.));
#108=FACE_BOUND('',#109,.T.);
#109=EDGE_LOOP('',(#248,#249,#250,#251));
#110=PLANE('',#111);
#111=AXIS2_PLACEMENT_3D('',#112,#113,#114);
#112=CARTESIAN_POINT('',(-0.42426406858748,13.7178715551202,0.));
#113=DIRECTION('',(-0.707106781187784,-0.707106781185311,0.));
#114=DIRECTION('',(0.707106781185311,-0.707106781187784,0.));
#115=FACE_BOUND('',#116,.T.);
#116=EDGE_LOOP('',(#252,#253,#254,#255));
#117=PLANE('',#118);
#118=AXIS2_PLACEMENT_3D('',#119,#120,#121);
#119=CARTESIAN_POINT('',(3.71086972435754E-15,14.1421356237062,0.));
#120=DIRECTION('',(-0.70710678118531,0.707106781187785,0.));
#121=DIRECTION('',(-0.707106781187785,-0.70710678118531,0.));
#122=FACE_BOUND('',#123,.T.);
#123=EDGE_LOOP('',(#256,#257,#258,#259));
#124=PLANE('',#125);
#125=AXIS2_PLACEMENT_3D('',#126,#127,#128);
#126=CARTESIAN_POINT('',(-0.565685424964092,14.7078210486723,0.));
#127=DIRECTION('',(-0.707106781187786,-0.707106781185309,0.));
#128=DIRECTION('',(0.707106781185309,-0.707106781187786,0.));
#129=FACE_BOUND('',#130,.T.);
#130=EDGE_LOOP('',(#260,#261,#262,#263));
#131=PLANE('',#132);
#132=AXIS2_PLACEMENT_3D('',#133,#134,#135);
#133=CARTESIAN_POINT('',(-0.989949493676748,14.2835569799611,0.));
#134=DIRECTION('',(0.707106781185335,-0.70710678118776,0.));
#135=DIRECTION('',(0.70710678118776,0.707106781185335,0.));
#136=FACE_BOUND('',#137,.T.);
#137=EDGE_LOOP('',(#264,#265,#266,#267));
#138=PLANE('',#139);
#139=AXIS2_PLACEMENT_3D('',#140,#141,#142);
#140=CARTESIAN_POINT('',(-1.41421356238793,14.7078210486737,0.));
#141=DIRECTION('',(-0.707106781187786,-0.707106781185309,0.));
#142=DIRECTION('',(0.707106781185309,-0.707106781187786,0.));
#143=FACE_BOUND('',#144,.T.);
#144=EDGE_LOOP('',(#268,#269,#270,#271));
#145=PLANE('',#146);
#146=AXIS2_PLACEMENT_3D('',#147,#148,#149);
#147=CARTESIAN_POINT('',(-14.2835569799904,0.989949493660539,0.));
#148=DIRECTION('',(0.707106781187786,0.707106781185309,0.));
#149=DIRECTION('',(-0.707106781185309,0.707106781187786,0.));
#150=FACE_BOUND('',#151,.T.);
#151=EDGE_LOOP('',(#272,#273,#274,#275));
#152=PLANE('',#153);
#153=AXIS2_PLACEMENT_3D('',#154,#155,#156);
#154=CARTESIAN_POINT('',(-14.707821048704,0.565685424950231,0.));
#155=DIRECTION('',(0.707106781183846,-0.707106781189249,0.));
#156=DIRECTION('',(0.707106781189249,0.707106781183846,0.));
#157=FACE_BOUND('',#158,.T.);
#158=EDGE_LOOP('',(#276,#277,#278,#279));
#159=PLANE('',#160);
#160=AXIS2_PLACEMENT_3D('',#161,#162,#163);
#161=CARTESIAN_POINT('',(-14.1421356237557,2.45355707848037E-15,0.));
#162=DIRECTION('',(0.707106781187786,0.707106781185309,0.));
#163=DIRECTION('',(-0.707106781185309,0.707106781187786,0.));
#164=FACE_BOUND('',#165,.T.);
#165=EDGE_LOOP('',(#280,#281,#282,#283));
#166=PLANE('',#167);
#167=AXIS2_PLACEMENT_3D('',#168,#169,#170);
#168=CARTESIAN_POINT('',(-13.717871555039,0.424264068715265,0.));
#169=DIRECTION('',(-0.707106781185309,0.707106781187786,0.));
#170=DIRECTION('',(-0.707106781187786,-0.707106781185309,0.));
#171=FACE_BOUND('',#172,.T.);
#172=EDGE_LOOP('',(#284,#285,#286,#287));
#173=PLANE('',#174);
#174=AXIS2_PLACEMENT_3D('',#175,#176,#177);
#175=CARTESIAN_POINT('',(-13.1521861300862,-0.141421356231363,0.));
#176=DIRECTION('',(0.707106781182691,0.707106781190404,0.));
#177=DIRECTION('',(-0.707106781190404,0.707106781182691,0.));
#178=FACE_BOUND('',#179,.T.);
#179=EDGE_LOOP('',(#288,#289,#290,#291));
#180=PLANE('',#181);
#181=AXIS2_PLACEMENT_3D('',#182,#183,#184);
#182=CARTESIAN_POINT('',(-13.5764501988075,-0.565685424950226,0.));
#183=DIRECTION('',(0.707106781184517,-0.707106781188578,0.));
#184=DIRECTION('',(0.707106781188578,0.707106781184517,0.));
#185=FACE_BOUND('',#186,.T.);
#186=EDGE_LOOP('',(#292,#293,#294,#295));
#187=PLANE('',#188);
#188=AXIS2_PLACEMENT_3D('',#189,#190,#191);
#189=CARTESIAN_POINT('',(0.565685424964098,-0.565685424950228,0.));
#190=DIRECTION('',(1.25607396694341E-16,1.,0.));
#191=DIRECTION('',(-1.,1.25607396694341E-16,0.));
#192=FACE_BOUND('',#193,.T.);
#193=EDGE_LOOP('',(#296,#297,#298,#299));
#194=PLANE('',#195);
#195=AXIS2_PLACEMENT_3D('',#196,#197,#198);
#196=CARTESIAN_POINT('',(0.5656854249641,13.5764501987401,0.));
#197=DIRECTION('',(-1.,1.25607396695063E-16,0.));
#198=DIRECTION('',(-1.25607396695063E-16,-1.,0.));
#199=FACE_BOUND('',#200,.T.);
#200=EDGE_LOOP('',(#300,#301,#302,#303,#304,#305,#306,#307,#308,#309,#310,#311,#312,
#313,#314));
#201=PLANE('',#202);
#202=AXIS2_PLACEMENT_3D('',#203,#204,#205);
#203=CARTESIAN_POINT('',(0.,0.,0.));
#204=DIRECTION('',(0.,0.,-1.));
#205=DIRECTION('',(-6.12323399573677E-17,-1.,0.));
#206=FACE_BOUND('',#207,.T.);
#207=EDGE_LOOP('',(#315,#316,#317,#318,#319,#320,#321,#322,#323,#324,#325,#326,#327,
#328,#329,#330,#331,#332,#333,#334));
#208=PLANE('',#209);
#209=AXIS2_PLACEMENT_3D('',#210,#211,#212);
#210=CARTESIAN_POINT('',(0.,0.,36.));
#211=DIRECTION('',(0.,0.,1.));
#212=DIRECTION('',(-1.,1.22464679914735E-16,0.));
#213=FACE_BOUND('',#214,.T.);
#214=EDGE_LOOP('',(#335,#336,#337,#338,#339));
#215=PLANE('',#216);
#216=AXIS2_PLACEMENT_3D('',#217,#218,#219);
#217=CARTESIAN_POINT('',(0.,0.,-1.));
#218=DIRECTION('',(0.,0.,-1.));
#219=DIRECTION('',(-6.12323399573677E-17,-1.,0.));
#220=ORIENTED_EDGE('',*,*,#340,.T.);
#221=ORIENTED_EDGE('',*,*,#341,.F.);
#222=ORIENTED_EDGE('',*,*,#342,.F.);
#223=ORIENTED_EDGE('',*,*,#343,.T.);
#224=ORIENTED_EDGE('',*,*,#344,.T.);
#225=ORIENTED_EDGE('',*,*,#345,.F.);
#226=ORIENTED_EDGE('',*,*,#346,.F.);
#227=ORIENTED_EDGE('',*,*,#347,.F.);
#228=ORIENTED_EDGE('',*,*,#348,.T.);
#229=ORIENTED_EDGE('',*,*,#349,.F.);
#230=ORIENTED_EDGE('',*,*,#340,.F.);
#231=ORIENTED_EDGE('',*,*,#350,.F.);
#232=ORIENTED_EDGE('',*,*,#351,.T.);
#233=ORIENTED_EDGE('',*,*,#352,.F.);
#234=ORIENTED_EDGE('',*,*,#348,.F.);
#235=ORIENTED_EDGE('',*,*,#353,.F.);
#236=ORIENTED_EDGE('',*,*,#354,.T.);
#237=ORIENTED_EDGE('',*,*,#355,.F.);
#238=ORIENTED_EDGE('',*,*,#351,.F.);
#239=ORIENTED_EDGE('',*,*,#356,.F.);
#240=ORIENTED_EDGE('',*,*,#346,.T.);
#241=ORIENTED_EDGE('',*,*,#357,.F.);
#242=ORIENTED_EDGE('',*,*,#354,.F.);
#243=ORIENTED_EDGE('',*,*,#358,.F.);
#244=ORIENTED_EDGE('',*,*,#359,.F.);
#245=ORIENTED_EDGE('',*,*,#360,.T.);
#246=ORIENTED_EDGE('',*,*,#361,.F.);
#247=ORIENTED_EDGE('',*,*,#362,.F.);
#248=ORIENTED_EDGE('',*,*,#363,.F.);
#249=ORIENTED_EDGE('',*,*,#362,.T.);
#250=ORIENTED_EDGE('',*,*,#364,.F.);
#251=ORIENTED_EDGE('',*,*,#365,.F.);
#252=ORIENTED_EDGE('',*,*,#366,.F.);
#253=ORIENTED_EDGE('',*,*,#365,.T.);
#254=ORIENTED_EDGE('',*,*,#367,.F.);
#255=ORIENTED_EDGE('',*,*,#368,.F.);
#256=ORIENTED_EDGE('',*,*,#369,.F.);
#257=ORIENTED_EDGE('',*,*,#368,.T.);
#258=ORIENTED_EDGE('',*,*,#370,.F.);
#259=ORIENTED_EDGE('',*,*,#371,.F.);
#260=ORIENTED_EDGE('',*,*,#372,.F.);
#261=ORIENTED_EDGE('',*,*,#371,.T.);
#262=ORIENTED_EDGE('',*,*,#373,.F.);
#263=ORIENTED_EDGE('',*,*,#374,.F.);
#264=ORIENTED_EDGE('',*,*,#375,.F.);
#265=ORIENTED_EDGE('',*,*,#374,.T.);
#266=ORIENTED_EDGE('',*,*,#376,.F.);
#267=ORIENTED_EDGE('',*,*,#344,.F.);
#268=ORIENTED_EDGE('',*,*,#377,.F.);
#269=ORIENTED_EDGE('',*,*,#342,.T.);
#270=ORIENTED_EDGE('',*,*,#378,.F.);
#271=ORIENTED_EDGE('',*,*,#379,.F.);
#272=ORIENTED_EDGE('',*,*,#380,.F.);
#273=ORIENTED_EDGE('',*,*,#379,.T.);
#274=ORIENTED_EDGE('',*,*,#381,.F.);
#275=ORIENTED_EDGE('',*,*,#382,.F.);
#276=ORIENTED_EDGE('',*,*,#383,.F.);
#277=ORIENTED_EDGE('',*,*,#382,.T.);
#278=ORIENTED_EDGE('',*,*,#384,.F.);
#279=ORIENTED_EDGE('',*,*,#385,.F.);
#280=ORIENTED_EDGE('',*,*,#386,.F.);
#281=ORIENTED_EDGE('',*,*,#385,.T.);
#282=ORIENTED_EDGE('',*,*,#387,.F.);
#283=ORIENTED_EDGE('',*,*,#388,.F.);
#284=ORIENTED_EDGE('',*,*,#389,.F.);
#285=ORIENTED_EDGE('',*,*,#388,.T.);
#286=ORIENTED_EDGE('',*,*,#390,.F.);
#287=ORIENTED_EDGE('',*,*,#391,.F.);
#288=ORIENTED_EDGE('',*,*,#392,.F.);
#289=ORIENTED_EDGE('',*,*,#391,.T.);
#290=ORIENTED_EDGE('',*,*,#393,.F.);
#291=ORIENTED_EDGE('',*,*,#394,.F.);
#292=ORIENTED_EDGE('',*,*,#395,.F.);
#293=ORIENTED_EDGE('',*,*,#394,.T.);
#294=ORIENTED_EDGE('',*,*,#396,.F.);
#295=ORIENTED_EDGE('',*,*,#397,.F.);
#296=ORIENTED_EDGE('',*,*,#398,.F.);
#297=ORIENTED_EDGE('',*,*,#397,.T.);
#298=ORIENTED_EDGE('',*,*,#399,.F.);
#299=ORIENTED_EDGE('',*,*,#360,.F.);
#300=ORIENTED_EDGE('',*,*,#398,.T.);
#301=ORIENTED_EDGE('',*,*,#359,.T.);
#302=ORIENTED_EDGE('',*,*,#363,.T.);
#303=ORIENTED_EDGE('',*,*,#366,.T.);
#304=ORIENTED_EDGE('',*,*,#369,.T.);
#305=ORIENTED_EDGE('',*,*,#372,.T.);
#306=ORIENTED_EDGE('',*,*,#375,.T.);
#307=ORIENTED_EDGE('',*,*,#343,.F.);
#308=ORIENTED_EDGE('',*,*,#377,.T.);
#309=ORIENTED_EDGE('',*,*,#380,.T.);
#310=ORIENTED_EDGE('',*,*,#383,.T.);
#311=ORIENTED_EDGE('',*,*,#386,.T.);
#312=ORIENTED_EDGE('',*,*,#389,.T.);
#313=ORIENTED_EDGE('',*,*,#392,.T.);
#314=ORIENTED_EDGE('',*,*,#395,.T.);
#315=ORIENTED_EDGE('',*,*,#399,.T.);
#316=ORIENTED_EDGE('',*,*,#396,.T.);
#317=ORIENTED_EDGE('',*,*,#393,.T.);
#318=ORIENTED_EDGE('',*,*,#390,.T.);
#319=ORIENTED_EDGE('',*,*,#387,.T.);
#320=ORIENTED_EDGE('',*,*,#384,.T.);
#321=ORIENTED_EDGE('',*,*,#381,.T.);
#322=ORIENTED_EDGE('',*,*,#378,.T.);
#323=ORIENTED_EDGE('',*,*,#341,.T.);
#324=ORIENTED_EDGE('',*,*,#349,.T.);
#325=ORIENTED_EDGE('',*,*,#352,.T.);
#326=ORIENTED_EDGE('',*,*,#355,.T.);
#327=ORIENTED_EDGE('',*,*,#357,.T.);
#328=ORIENTED_EDGE('',*,*,#345,.T.);
#329=ORIENTED_EDGE('',*,*,#376,.T.);
#330=ORIENTED_EDGE('',*,*,#373,.T.);
#331=ORIENTED_EDGE('',*,*,#370,.T.);
#332=ORIENTED_EDGE('',*,*,#367,.T.);
#333=ORIENTED_EDGE('',*,*,#364,.T.);
#334=ORIENTED_EDGE('',*,*,#361,.T.);
#335=ORIENTED_EDGE('',*,*,#347,.T.);
#336=ORIENTED_EDGE('',*,*,#358,.T.);
#337=ORIENTED_EDGE('',*,*,#356,.T.);
#338=ORIENTED_EDGE('',*,*,#353,.T.);
#339=ORIENTED_EDGE('',*,*,#350,.T.);
#340=EDGE_CURVE('',#400,#401,#402,.T.);
#341=EDGE_CURVE('',#403,#401,#404,.T.);
#342=EDGE_CURVE('',#405,#403,#406,.T.);
#343=EDGE_CURVE('',#405,#407,#408,.T.);
#344=EDGE_CURVE('',#407,#409,#410,.T.);
#345=EDGE_CURVE('',#411,#409,#412,.T.);
#346=EDGE_CURVE('',#413,#411,#414,.T.);
#347=EDGE_CURVE('',#400,#413,#415,.T.);
#348=EDGE_CURVE('',#416,#417,#418,.T.);
#349=EDGE_CURVE('',#401,#417,#419,.T.);
#350=EDGE_CURVE('',#416,#400,#420,.T.);
#351=EDGE_CURVE('',#421,#422,#423,.T.);
#352=EDGE_CURVE('',#417,#422,#424,.T.);
#353=EDGE_CURVE('',#421,#416,#425,.T.);
#354=EDGE_CURVE('',#426,#427,#428,.T.);
#355=EDGE_CURVE('',#422,#427,#429,.T.);
#356=EDGE_CURVE('',#426,#421,#430,.T.);
#357=EDGE_CURVE('',#427,#411,#431,.T.);
#358=EDGE_CURVE('',#413,#426,#432,.T.);
#359=EDGE_CURVE('',#433,#434,#435,.F.);
#360=EDGE_CURVE('',#433,#436,#437,.T.);
#361=EDGE_CURVE('',#438,#436,#439,.T.);
#362=EDGE_CURVE('',#434,#438,#440,.T.);
#363=EDGE_CURVE('',#434,#441,#442,.F.);
#364=EDGE_CURVE('',#443,#438,#444,.T.);
#365=EDGE_CURVE('',#441,#443,#445,.T.);
#366=EDGE_CURVE('',#441,#446,#447,.F.);
#367=EDGE_CURVE('',#448,#443,#449,.T.);
#368=EDGE_CURVE('',#446,#448,#450,.T.);
#369=EDGE_CURVE('',#446,#451,#452,.F.);
#370=EDGE_CURVE('',#453,#448,#454,.T.);
#371=EDGE_CURVE('',#451,#453,#455,.T.);
#372=EDGE_CURVE('',#451,#456,#457,.F.);
#373=EDGE_CURVE('',#458,#453,#459,.T.);
#374=EDGE_CURVE('',#456,#458,#460,.T.);
#375=EDGE_CURVE('',#456,#407,#461,.F.);
#376=EDGE_CURVE('',#409,#458,#462,.T.);
#377=EDGE_CURVE('',#405,#463,#464,.F.);
#378=EDGE_CURVE('',#465,#403,#466,.T.);
#379=EDGE_CURVE('',#463,#465,#467,.T.);
#380=EDGE_CURVE('',#463,#468,#469,.F.);
#381=EDGE_CURVE('',#470,#465,#471,.T.);
#382=EDGE_CURVE('',#468,#470,#472,.T.);
#383=EDGE_CURVE('',#468,#473,#474,.F.);
#384=EDGE_CURVE('',#475,#470,#476,.T.);
#385=EDGE_CURVE('',#473,#475,#477,.T.);
#386=EDGE_CURVE('',#473,#478,#479,.F.);
#387=EDGE_CURVE('',#480,#475,#481,.T.);
#388=EDGE_CURVE('',#478,#480,#482,.T.);
#389=EDGE_CURVE('',#478,#483,#484,.F.);
#390=EDGE_CURVE('',#485,#480,#486,.T.);
#391=EDGE_CURVE('',#483,#485,#487,.T.);
#392=EDGE_CURVE('',#483,#488,#489,.F.);
#393=EDGE_CURVE('',#490,#485,#491,.T.);
#394=EDGE_CURVE('',#488,#490,#492,.T.);
#395=EDGE_CURVE('',#488,#493,#494,.F.);
#396=EDGE_CURVE('',#495,#490,#496,.T.);
#397=EDGE_CURVE('',#493,#495,#497,.T.);
#398=EDGE_CURVE('',#493,#433,#498,.F.);
#399=EDGE_CURVE('',#436,#495,#499,.T.);
#400=VERTEX_POINT('',#500);
#401=VERTEX_POINT('',#501);
#402=LINE('',#502,#503);
#403=VERTEX_POINT('',#505);
#404=LINE('',#506,#507);
#405=VERTEX_POINT('',#509);
#406=LINE('',#510,#511);
#407=VERTEX_POINT('',#513);
#408=LINE('',#514,#515);
#409=VERTEX_POINT('',#517);
#410=LINE('',#518,#519);
#411=VERTEX_POINT('',#521);
#412=LINE('',#522,#523);
#413=VERTEX_POINT('',#525);
#414=LINE('',#526,#527);
#415=LINE('',#529,#530);
#416=VERTEX_POINT('',#532);
#417=VERTEX_POINT('',#533);
#418=LINE('',#534,#535);
#419=LINE('',#537,#538);
#420=LINE('',#540,#541);
#421=VERTEX_POINT('',#543);
#422=VERTEX_POINT('',#544);
#423=LINE('',#545,#546);
#424=LINE('',#548,#549);
#425=LINE('',#551,#552);
#426=VERTEX_POINT('',#554);
#427=VERTEX_POINT('',#555);
#428=LINE('',#556,#557);
#429=LINE('',#559,#560);
#430=LINE('',#562,#563);
#431=LINE('',#565,#566);
#432=LINE('',#568,#569);
#433=VERTEX_POINT('',#571);
#434=VERTEX_POINT('',#572);
#435=LINE('',#573,#574);
#436=VERTEX_POINT('',#576);
#437=LINE('',#577,#578);
#438=VERTEX_POINT('',#580);
#439=LINE('',#581,#582);
#440=LINE('',#584,#585);
#441=VERTEX_POINT('',#587);
#442=LINE('',#588,#589);
#443=VERTEX_POINT('',#591);
#444=LINE('',#592,#593);
#445=LINE('',#595,#596);
#446=VERTEX_POINT('',#598);
#447=LINE('',#599,#600);
#448=VERTEX_POINT('',#602);
#449=LINE('',#603,#604);
#450=LINE('',#606,#607);
#451=VERTEX_POINT('',#609);
#452=LINE('',#610,#611);
#453=VERTEX_POINT('',#613);
#454=LINE('',#614,#615);
#455=LINE('',#617,#618);
#456=VERTEX_POINT('',#620);
#457=LINE('',#621,#622);
#458=VERTEX_POINT('',#624);
#459=LINE('',#625,#626);
#460=LINE('',#628,#629);
#461=LINE('',#631,#632);
#462=LINE('',#634,#635);
#463=VERTEX_POINT('',#637);
#464=LINE('',#638,#639);
#465=VERTEX_POINT('',#641);
#466=LINE('',#642,#643);
#467=LINE('',#645,#646);
#468=VERTEX_POINT('',#648);
#469=LINE('',#649,#650);
#470=VERTEX_POINT('',#652);
#471=LINE('',#653,#654);
#472=LINE('',#656,#657);
#473=VERTEX_POINT('',#659);
#474=LINE('',#660,#661);
#475=VERTEX_POINT('',#663);
#476=LINE('',#664,#665);
#477=LINE('',#667,#668);
#478=VERTEX_POINT('',#670);
#479=LINE('',#671,#672);
#480=VERTEX_POINT('',#674);
#481=LINE('',#675,#676);
#482=LINE('',#678,#679);
#483=VERTEX_POINT('',#681);
#484=LINE('',#682,#683);
#485=VERTEX_POINT('',#685);
#486=LINE('',#686,#687);
#487=LINE('',#689,#690);
#488=VERTEX_POINT('',#692);
#489=LINE('',#693,#694);
#490=VERTEX_POINT('',#696);
#491=LINE('',#697,#698);
#492=LINE('',#700,#701);
#493=VERTEX_POINT('',#703);
#494=LINE('',#704,#705);
#495=VERTEX_POINT('',#707);
#496=LINE('',#708,#709);
#497=LINE('',#711,#712);
#498=LINE('',#714,#715);
#499=LINE('',#717,#718);
#500=CARTESIAN_POINT('',(-15.9806132548472,0.1414213562472,-1.));
#501=CARTESIAN_POINT('',(-15.9806132548472,0.1414213562472,36.));
#502=CARTESIAN_POINT('',(-15.9806132548472,0.1414213562472,-1.));
#503=VECTOR('',#504,1.);
#504=DIRECTION('',(0.,0.,1.));
#505=CARTESIAN_POINT('',(-14.7078210487016,1.41421356237321,36.));
#506=CARTESIAN_POINT('',(-14.7078210487016,1.41421356237321,36.));
#507=VECTOR('',#508,1.);
#508=DIRECTION('',(-0.707106781191979,-0.707106781181117,0.));
#509=CARTESIAN_POINT('',(-14.707821048703,1.41421356237459,0.));
#510=CARTESIAN_POINT('',(-14.7078210487016,1.41421356237321,0.));
#511=VECTOR('',#512,1.);
#512=DIRECTION('',(0.,0.,1.));
#513=CARTESIAN_POINT('',(-1.41421356235596,14.7078210486418,0.));
#514=CARTESIAN_POINT('',(-14.7078210487057,1.41421356237735,0.));
#515=VECTOR('',#516,1.);
#516=DIRECTION('',(0.707106781189679,0.707106781183416,0.));
#517=CARTESIAN_POINT('',(-1.41421356238793,14.7078210486737,36.));
#518=CARTESIAN_POINT('',(-1.41421356234017,14.707821048626,0.));
#519=VECTOR('',#520,1.);
#520=DIRECTION('',(0.,0.,1.));
#521=CARTESIAN_POINT('',(-0.141421356249866,15.9806132548072,36.));
#522=CARTESIAN_POINT('',(-0.141421356198352,15.9806132547557,36.));
#523=VECTOR('',#524,1.);
#524=DIRECTION('',(-0.707106781189897,-0.707106781183198,0.));
#525=CARTESIAN_POINT('',(-0.141421356249866,15.9806132548072,-1.));
#526=CARTESIAN_POINT('',(-0.141421356198355,15.9806132547557,-1.));
#527=VECTOR('',#528,1.);
#528=DIRECTION('',(7.20144664621723E-17,9.60192886162297E-17,1.));
#529=CARTESIAN_POINT('',(-15.9806132548472,0.1414213562472,-1.));
#530=VECTOR('',#531,1.);
#531=DIRECTION('',(0.707106781189679,0.707106781183416,0.));
#532=CARTESIAN_POINT('',(-14.0735064736564,-1.76568542495023,-1.));
#533=CARTESIAN_POINT('',(-14.0735064736564,-1.76568542495023,36.));
#534=CARTESIAN_POINT('',(-14.0735064736564,-1.76568542495023,-1.));
#535=VECTOR('',#536,1.);
#536=DIRECTION('',(0.,0.,1.));
#537=CARTESIAN_POINT('',(-15.9806132548472,0.1414213562472,36.));
#538=VECTOR('',#539,1.);
#539=DIRECTION('',(0.70710678118531,-0.707106781187785,0.));
#540=CARTESIAN_POINT('',(-14.0735064736564,-1.76568542495023,-1.));
#541=VECTOR('',#542,1.);
#542=DIRECTION('',(-0.70710678118531,0.707106781187785,0.));
#543=CARTESIAN_POINT('',(1.7656854249641,-1.76568542495023,-1.));
#544=CARTESIAN_POINT('',(1.7656854249641,-1.76568542495023,36.));
#545=CARTESIAN_POINT('',(1.7656854249641,-1.76568542495023,-1.));
#546=VECTOR('',#547,1.);
#547=DIRECTION('',(0.,-2.40048221540574E-17,1.));
#548=CARTESIAN_POINT('',(-14.0735064736564,-1.76568542495023,36.));
#549=VECTOR('',#550,1.);
#550=DIRECTION('',(1.,-1.26168144001041E-16,0.));
#551=CARTESIAN_POINT('',(1.7656854249641,-1.76568542495023,-1.));
#552=VECTOR('',#553,1.);
#553=DIRECTION('',(-1.,1.12149461334259E-16,0.));
#554=CARTESIAN_POINT('',(1.7656854249641,14.0735064735866,-1.));
#555=CARTESIAN_POINT('',(1.7656854249641,14.0735064735866,36.));
#556=CARTESIAN_POINT('',(1.7656854249641,14.0735064735866,-1.));
#557=VECTOR('',#558,1.);
#558=DIRECTION('',(0.,0.,1.));
#559=CARTESIAN_POINT('',(1.7656854249641,-1.76568542495023,36.));
#560=VECTOR('',#561,1.);
#561=DIRECTION('',(1.26168144001708E-16,1.,0.));
#562=CARTESIAN_POINT('',(1.7656854249641,14.0735064735866,-1.));
#563=VECTOR('',#564,1.);
#564=DIRECTION('',(-1.26168144001708E-16,-1.,0.));
#565=CARTESIAN_POINT('',(1.7656854249641,14.0735064735866,36.));
#566=VECTOR('',#567,1.);
#567=DIRECTION('',(-0.707106781185309,0.707106781187786,0.));
#568=CARTESIAN_POINT('',(-0.141421356249866,15.9806132548072,-1.));
#569=VECTOR('',#570,1.);
#570=DIRECTION('',(0.707106781185309,-0.707106781187786,0.));
#571=CARTESIAN_POINT('',(0.5656854249641,13.5764501987401,0.));
#572=CARTESIAN_POINT('',(0.141421356872689,13.152186129658,0.));
#573=CARTESIAN_POINT('',(0.141421356872689,13.152186129658,0.));
#574=VECTOR('',#575,1.);
#575=DIRECTION('',(0.707106780360999,0.707106782012096,0.));
#576=CARTESIAN_POINT('',(0.5656854249641,13.5764501987401,36.));
#577=CARTESIAN_POINT('',(0.5656854249641,13.5764501987401,0.));
#578=VECTOR('',#579,1.);
#579=DIRECTION('',(0.,0.,1.));
#580=CARTESIAN_POINT('',(0.141421356872689,13.152186129658,36.));
#581=CARTESIAN_POINT('',(0.141421356872689,13.152186129658,36.));
#582=VECTOR('',#583,1.);
#583=DIRECTION('',(0.707106780360998,0.707106782012097,0.));
#584=CARTESIAN_POINT('',(0.141421356872689,13.152186129658,0.));
#585=VECTOR('',#586,1.);
#586=DIRECTION('',(0.,0.,1.));
#587=CARTESIAN_POINT('',(-0.42426406858748,13.7178715551202,0.));
#588=CARTESIAN_POINT('',(-0.42426406858748,13.7178715551202,0.));
#589=VECTOR('',#590,1.);
#590=DIRECTION('',(0.707106781185311,-0.707106781187784,0.));
#591=CARTESIAN_POINT('',(-0.42426406858748,13.7178715551202,36.));
#592=CARTESIAN_POINT('',(-0.42426406858748,13.7178715551202,36.));
#593=VECTOR('',#594,1.);
#594=DIRECTION('',(0.707106781185311,-0.707106781187784,0.));
#595=CARTESIAN_POINT('',(-0.42426406858748,13.7178715551202,0.));
#596=VECTOR('',#597,1.);
#597=DIRECTION('',(0.,0.,1.));
#598=CARTESIAN_POINT('',(3.72059164057539E-15,14.1421356237062,0.));
#599=CARTESIAN_POINT('',(3.71086972435754E-15,14.1421356237062,0.));
#600=VECTOR('',#601,1.);
#601=DIRECTION('',(-0.707106781187785,-0.70710678118531,0.));
#602=CARTESIAN_POINT('',(3.72059164057539E-15,14.1421356237062,36.));
#603=CARTESIAN_POINT('',(3.71086972435754E-15,14.1421356237062,36.));
#604=VECTOR('',#605,1.);
#605=DIRECTION('',(-0.707106781187785,-0.70710678118531,0.));
#606=CARTESIAN_POINT('',(3.85383630650405E-15,14.1421356237062,0.));
#607=VECTOR('',#608,1.);
#608=DIRECTION('',(0.,0.,1.));
#609=CARTESIAN_POINT('',(-0.565685424964092,14.7078210486723,0.));
#610=CARTESIAN_POINT('',(-0.565685424964092,14.7078210486723,0.));
#611=VECTOR('',#612,1.);
#612=DIRECTION('',(0.707106781185309,-0.707106781187786,0.));
#613=CARTESIAN_POINT('',(-0.565685424964092,14.7078210486723,36.));
#614=CARTESIAN_POINT('',(-0.565685424964092,14.7078210486723,36.));
#615=VECTOR('',#616,1.);
#616=DIRECTION('',(0.707106781185309,-0.707106781187786,0.));
#617=CARTESIAN_POINT('',(-0.565685424964092,14.7078210486723,0.));
#618=VECTOR('',#619,1.);
#619=DIRECTION('',(0.,0.,1.));
#620=CARTESIAN_POINT('',(-0.989949493676748,14.2835569799611,0.));
#621=CARTESIAN_POINT('',(-0.989949493676748,14.2835569799611,0.));
#622=VECTOR('',#623,1.);
#623=DIRECTION('',(0.70710678118776,0.707106781185335,0.));
#624=CARTESIAN_POINT('',(-0.989949493676748,14.2835569799611,36.));
#625=CARTESIAN_POINT('',(-0.989949493676748,14.2835569799611,36.));
#626=VECTOR('',#627,1.);
#627=DIRECTION('',(0.70710678118776,0.707106781185335,0.));
#628=CARTESIAN_POINT('',(-0.989949493676748,14.2835569799611,0.));
#629=VECTOR('',#630,1.);
#630=DIRECTION('',(0.,0.,1.));
#631=CARTESIAN_POINT('',(-1.41421356238793,14.7078210486737,0.));
#632=VECTOR('',#633,1.);
#633=DIRECTION('',(0.707106781185309,-0.707106781187786,0.));
#634=CARTESIAN_POINT('',(-1.41421356238793,14.7078210486737,36.));
#635=VECTOR('',#636,1.);
#636=DIRECTION('',(0.707106781185309,-0.707106781187786,0.));
#637=CARTESIAN_POINT('',(-14.2835569799904,0.989949493660539,0.));
#638=CARTESIAN_POINT('',(-14.2835569799904,0.989949493660539,0.));
#639=VECTOR('',#640,1.);
#640=DIRECTION('',(-0.707106781185309,0.707106781187786,0.));
#641=CARTESIAN_POINT('',(-14.2835569799904,0.989949493660539,36.));
#642=CARTESIAN_POINT('',(-14.2835569799904,0.989949493660539,36.));
#643=VECTOR('',#644,1.);
#644=DIRECTION('',(-0.707106781185309,0.707106781187786,0.));
#645=CARTESIAN_POINT('',(-14.2835569799904,0.989949493660539,0.));
#646=VECTOR('',#647,1.);
#647=DIRECTION('',(0.,0.,1.));
#648=CARTESIAN_POINT('',(-14.707821048704,0.565685424950231,0.));
#649=CARTESIAN_POINT('',(-14.707821048704,0.565685424950231,0.));
#650=VECTOR('',#651,1.);
#651=DIRECTION('',(0.707106781189249,0.707106781183846,0.));
#652=CARTESIAN_POINT('',(-14.707821048704,0.565685424950231,36.));
#653=CARTESIAN_POINT('',(-14.707821048704,0.565685424950231,36.));
#654=VECTOR('',#655,1.);
#655=DIRECTION('',(0.707106781189249,0.707106781183846,0.));
#656=CARTESIAN_POINT('',(-14.707821048704,0.565685424950231,0.));
#657=VECTOR('',#658,1.);
#658=DIRECTION('',(0.,0.,1.));
#659=CARTESIAN_POINT('',(-14.1421356237557,2.49524467484002E-15,0.));
#660=CARTESIAN_POINT('',(-14.1421356237557,2.45355707848037E-15,0.));
#661=VECTOR('',#662,1.);
#662=DIRECTION('',(-0.707106781185309,0.707106781187786,0.));
#663=CARTESIAN_POINT('',(-14.1421356237557,2.49524467484002E-15,36.));
#664=CARTESIAN_POINT('',(-14.1421356237557,2.45355707848037E-15,36.));
#665=VECTOR('',#666,1.);
#666=DIRECTION('',(-0.707106781185309,0.707106781187786,0.));
#667=CARTESIAN_POINT('',(-14.1421356237557,2.42026829071223E-15,0.));
#668=VECTOR('',#669,1.);
#669=DIRECTION('',(0.,0.,1.));
#670=CARTESIAN_POINT('',(-13.717871555039,0.424264068715265,0.));
#671=CARTESIAN_POINT('',(-13.717871555039,0.424264068715265,0.));
#672=VECTOR('',#673,1.);
#673=DIRECTION('',(-0.707106781187786,-0.707106781185309,0.));
#674=CARTESIAN_POINT('',(-13.717871555039,0.424264068715265,36.));
#675=CARTESIAN_POINT('',(-13.717871555039,0.424264068715265,36.));
#676=VECTOR('',#677,1.);
#677=DIRECTION('',(-0.707106781187786,-0.707106781185309,0.));
#678=CARTESIAN_POINT('',(-13.717871555039,0.424264068715265,0.));
#679=VECTOR('',#680,1.);
#680=DIRECTION('',(0.,0.,1.));
#681=CARTESIAN_POINT('',(-13.1521861300862,-0.141421356231363,0.));
#682=CARTESIAN_POINT('',(-13.1521861300862,-0.141421356231363,0.));
#683=VECTOR('',#684,1.);
#684=DIRECTION('',(-0.707106781190404,0.707106781182691,0.));
#685=CARTESIAN_POINT('',(-13.1521861300862,-0.141421356231363,36.));
#686=CARTESIAN_POINT('',(-13.1521861300862,-0.141421356231363,36.));
#687=VECTOR('',#688,1.);
#688=DIRECTION('',(-0.707106781190404,0.707106781182691,0.));
#689=CARTESIAN_POINT('',(-13.1521861300862,-0.141421356231363,0.));
#690=VECTOR('',#691,1.);
#691=DIRECTION('',(0.,0.,1.));
#692=CARTESIAN_POINT('',(-13.5764501988075,-0.565685424950226,0.));
#693=CARTESIAN_POINT('',(-13.5764501988075,-0.565685424950226,0.));
#694=VECTOR('',#695,1.);
#695=DIRECTION('',(0.707106781188578,0.707106781184517,0.));
#696=CARTESIAN_POINT('',(-13.5764501988075,-0.565685424950226,36.));
#697=CARTESIAN_POINT('',(-13.5764501988075,-0.565685424950226,36.));
#698=VECTOR('',#699,1.);
#699=DIRECTION('',(0.707106781188578,0.707106781184517,0.));
#700=CARTESIAN_POINT('',(-13.5764501988075,-0.565685424950226,0.));
#701=VECTOR('',#702,1.);
#702=DIRECTION('',(0.,0.,1.));
#703=CARTESIAN_POINT('',(0.565685424964098,-0.565685424950228,0.));
#704=CARTESIAN_POINT('',(0.565685424964098,-0.565685424950228,0.));
#705=VECTOR('',#706,1.);
#706=DIRECTION('',(-1.,1.25607396694341E-16,0.));
#707=CARTESIAN_POINT('',(0.565685424964098,-0.565685424950228,36.));
#708=CARTESIAN_POINT('',(0.565685424964098,-0.565685424950228,36.));
#709=VECTOR('',#710,1.);
#710=DIRECTION('',(-1.,1.25607396694341E-16,0.));
#711=CARTESIAN_POINT('',(0.565685424964098,-0.565685424950228,0.));
#712=VECTOR('',#713,1.);
#713=DIRECTION('',(0.,0.,1.));
#714=CARTESIAN_POINT('',(0.5656854249641,13.5764501987401,0.));
#715=VECTOR('',#716,1.);
#716=DIRECTION('',(-1.25607396695063E-16,-1.,0.));
#717=CARTESIAN_POINT('',(0.5656854249641,13.5764501987401,36.));
#718=VECTOR('',#719,1.);
#719=DIRECTION('',(-1.25607396695063E-16,-1.,0.));
ENDSEC;
END-ISO-10303-21;
