ISO-10303-21;
HEADER;
FILE_DESCRIPTION(('STEP AP242'),
    '1');
FILE_NAME('cam_case poc 01',
    '2024-09-14T11:31:35',
    ('savatneevvg'),
    (''),
    'C3D Converter',
    'C3D Toolkit',
    '');
/**/
FILE_SCHEMA(('AP242_MANAGED_MODEL_BASED_3D_ENGINEERING_MIM_LF { 1 0 10303 442 1 1 4 }'));
ENDSEC;

DATA;
#1=PRODUCT_DEFINITION('','UNSPECIFIED',#19,#22);
#2=SHAPE_DEFINITION_REPRESENTATION(#17,#3);
#3=SHAPE_REPRESENTATION('NONE',(#4),#8);
#4=AXIS2_PLACEMENT_3D('',#5,#6,#7);
#5=CARTESIAN_POINT('',(0.,0.,0.));
#6=DIRECTION('',(0.,0.,1.));
#7=DIRECTION('',(1.,0.,0.));
#8=(GEOMETRIC_REPRESENTATION_CONTEXT(3)GLOBAL_UNCERTAINTY_ASSIGNED_CONTEXT((#10))
GLOBAL_UNIT_ASSIGNED_CONTEXT((#9,#11,#12))REPRESENTATION_CONTEXT('NONE','NONE'));
#9=(LENGTH_UNIT()NAMED_UNIT(*)SI_UNIT(.MILLI.,.METRE.));
#10=UNCERTAINTY_MEASURE_WITH_UNIT(LENGTH_MEASURE(1.E-5),#9,'NONE','NONE');
#11=(NAMED_UNIT(*)PLANE_ANGLE_UNIT()SI_UNIT($,.RADIAN.));
#12=(NAMED_UNIT(*)SI_UNIT($,.STERADIAN.)SOLID_ANGLE_UNIT());
#13=MANIFOLD_SOLID_BREP('',#14);
#14=CLOSED_SHELL('',(#44,#45,#46,#47,#48,#49,#50,#51,#52,#53,#54,#55,#56,#57,#58,
#59,#60,#61,#62,#63,#64,#65,#66,#67));
#15=ADVANCED_BREP_SHAPE_REPRESENTATION('NONE',(#13),#8);
#16=SHAPE_REPRESENTATION_RELATIONSHIP('','',#3,#15);
#17=PRODUCT_DEFINITION_SHAPE('NONE','NONE',#1);
#18=MECHANICAL_CONTEXT('NONE',#23,'mechanical');
#19=PRODUCT_DEFINITION_FORMATION_WITH_SPECIFIED_SOURCE('ANY','UNSPECIFIED',#20,.NOT_KNOWN.);
#20=PRODUCT('','\X2\0414043504420430043B044C\X0\','NONE',(#18));
#21=PRODUCT_RELATED_PRODUCT_CATEGORY('detail','',(#20));
#22=DESIGN_CONTEXT('detailed design',#23,'design');
#23=APPLICATION_CONTEXT('configuration controlled 3d designs of mechanical parts and assemblies');
#24=APPLICATION_PROTOCOL_DEFINITION('international standard','config_control_design',
1994,#23);
#25=CC_DESIGN_DATE_AND_TIME_ASSIGNMENT(#26,#30,(#1));
#26=DATE_AND_TIME(#27,#28);
#27=CALENDAR_DATE(0,1,1);
#28=LOCAL_TIME(0,0,0.,#29);
#29=COORDINATED_UNIVERSAL_TIME_OFFSET(0,0,.AHEAD.);
#30=DATE_TIME_ROLE('creation_date');
#31=CC_DESIGN_APPROVAL(#32,(#1));
#32=APPROVAL(#33,'UNSPECIFIED');
#33=APPROVAL_STATUS('not_yet_approved');
#34=APPROVAL_DATE_TIME(#35,#32);
#35=DATE_AND_TIME(#36,#37);
#36=CALENDAR_DATE(0,1,1);
#37=LOCAL_TIME(0,0,0.,#38);
#38=COORDINATED_UNIVERSAL_TIME_OFFSET(0,0,.AHEAD.);
#39=PERSON('UNSPECIFIED','savatneevvg','UNSPECIFIED',('UNSPECIFIED'),('UNSPECIFIED'),
('UNSPECIFIED'));
#40=ORGANIZATION('UNSPECIFIED','UNSPECIFIED','UNSPECIFIED');
#41=PERSON_AND_ORGANIZATION(#39,#40);
#42=PERSON_AND_ORGANIZATION_ROLE('creator');
#43=CC_DESIGN_PERSON_AND_ORGANIZATION_ASSIGNMENT(#41,#42,(#19,#1));
#44=ADVANCED_FACE('',(#68),#70,.T.);
#45=ADVANCED_FACE('',(#75),#77,.T.);
#46=ADVANCED_FACE('',(#82),#84,.T.);
#47=ADVANCED_FACE('',(#89),#91,.T.);
#48=ADVANCED_FACE('',(#96),#98,.T.);
#49=ADVANCED_FACE('',(#103),#105,.T.);
#50=ADVANCED_FACE('',(#110),#112,.T.);
#51=ADVANCED_FACE('',(#117),#119,.T.);
#52=ADVANCED_FACE('',(#124),#126,.T.);
#53=ADVANCED_FACE('',(#131),#133,.T.);
#54=ADVANCED_FACE('',(#138),#140,.T.);
#55=ADVANCED_FACE('',(#145),#147,.T.);
#56=ADVANCED_FACE('',(#152),#154,.T.);
#57=ADVANCED_FACE('',(#159),#161,.T.);
#58=ADVANCED_FACE('',(#166),#168,.T.);
#59=ADVANCED_FACE('',(#173),#175,.T.);
#60=ADVANCED_FACE('',(#180),#182,.T.);
#61=ADVANCED_FACE('',(#187),#189,.T.);
#62=ADVANCED_FACE('',(#194),#196,.T.);
#63=ADVANCED_FACE('',(#201),#203,.T.);
#64=ADVANCED_FACE('',(#208),#210,.T.);
#65=ADVANCED_FACE('',(#215),#217,.F.);
#66=ADVANCED_FACE('',(#222),#224,.T.);
#67=ADVANCED_FACE('',(#229),#231,.T.);
#68=FACE_BOUND('',#69,.T.);
#69=EDGE_LOOP('',(#236,#237,#238,#239,#240,#241,#242,#243));
#70=PLANE('',#71);
#71=AXIS2_PLACEMENT_3D('',#72,#73,#74);
#72=CARTESIAN_POINT('',(-19.7646752981837,3.64264068712027,0.));
#73=DIRECTION('',(-0.707106781189715,0.70710678118338,0.));
#74=DIRECTION('',(-0.70710678118338,-0.707106781189715,0.));
#75=FACE_BOUND('',#76,.T.);
#76=EDGE_LOOP('',(#244,#245,#246,#247));
#77=PLANE('',#78);
#78=AXIS2_PLACEMENT_3D('',#79,#80,#81);
#79=CARTESIAN_POINT('',(-21.0374675043126,2.36984848097997,0.));
#80=DIRECTION('',(-0.707106781186153,-0.707106781186942,0.));
#81=DIRECTION('',(0.707106781186942,-0.707106781186153,0.));
#82=FACE_BOUND('',#83,.T.);
#83=EDGE_LOOP('',(#248,#249,#250,#251));
#84=PLANE('',#85);
#85=AXIS2_PLACEMENT_3D('',#86,#87,#88);
#86=CARTESIAN_POINT('',(-14.6735064736301,-3.99411254969541,0.));
#87=DIRECTION('',(-4.7578559354056E-17,-1.,0.));
#88=DIRECTION('',(1.,-4.7578559354056E-17,0.));
#89=FACE_BOUND('',#90,.T.);
#90=EDGE_LOOP('',(#252,#253,#254,#255));
#91=PLANE('',#92);
#92=AXIS2_PLACEMENT_3D('',#93,#94,#95);
#93=CARTESIAN_POINT('',(3.99411254969383,-3.99411254969541,0.));
#94=DIRECTION('',(1.,2.37892796770276E-17,0.));
#95=DIRECTION('',(-2.37892796770276E-17,1.,0.));
#96=FACE_BOUND('',#97,.T.);
#97=EDGE_LOOP('',(#256,#257,#258,#259));
#98=PLANE('',#99);
#99=AXIS2_PLACEMENT_3D('',#100,#101,#102);
#100=CARTESIAN_POINT('',(3.99411254969383,14.6735064736289,0.));
#101=DIRECTION('',(0.707106781186154,0.707106781186942,0.));
#102=DIRECTION('',(-0.707106781186942,0.707106781186154,0.));
#103=FACE_BOUND('',#104,.T.);
#104=EDGE_LOOP('',(#260,#261,#262,#263));
#105=PLANE('',#106);
#106=AXIS2_PLACEMENT_3D('',#107,#108,#109);
#107=CARTESIAN_POINT('',(0.0343145750345058,16.9362481734377,0.));
#108=DIRECTION('',(-0.707106781186121,-0.707106781186974,0.));
#109=DIRECTION('',(0.707106781186974,-0.707106781186121,0.));
#110=FACE_BOUND('',#111,.T.);
#111=EDGE_LOOP('',(#264,#265,#266,#267));
#112=PLANE('',#113);
#113=AXIS2_PLACEMENT_3D('',#114,#115,#116);
#114=CARTESIAN_POINT('',(-0.37509517281889,16.5268384255839,0.));
#115=DIRECTION('',(0.707106781186916,-0.707106781186179,0.));
#116=DIRECTION('',(0.707106781186179,0.707106781186916,0.));
#117=FACE_BOUND('',#118,.T.);
#118=EDGE_LOOP('',(#268,#269,#270,#271));
#119=PLANE('',#120);
#120=AXIS2_PLACEMENT_3D('',#121,#122,#123);
#121=CARTESIAN_POINT('',(-1.78930873519305,17.9410519879563,0.));
#122=DIRECTION('',(-0.707106781186108,-0.707106781186987,0.));
#123=DIRECTION('',(0.707106781186987,-0.707106781186108,0.));
#124=FACE_BOUND('',#125,.T.);
#125=EDGE_LOOP('',(#272,#273,#274,#275));
#126=PLANE('',#127);
#127=AXIS2_PLACEMENT_3D('',#128,#129,#130);
#128=CARTESIAN_POINT('',(-1.37989898734086,18.3504617358114,0.));
#129=DIRECTION('',(-0.707106781186977,0.707106781186118,0.));
#130=DIRECTION('',(-0.707106781186118,-0.707106781186977,0.));
#131=FACE_BOUND('',#132,.T.);
#132=EDGE_LOOP('',(#276,#277,#278,#279));
#133=PLANE('',#134);
#134=AXIS2_PLACEMENT_3D('',#135,#136,#137);
#135=CARTESIAN_POINT('',(-2.79411254969383,19.7646752981626,0.));
#136=DIRECTION('',(-0.707106781186121,-0.707106781186974,0.));
#137=DIRECTION('',(0.707106781186974,-0.707106781186121,0.));
#138=FACE_BOUND('',#139,.T.);
#139=EDGE_LOOP('',(#280,#281,#282,#283));
#140=PLANE('',#141);
#141=AXIS2_PLACEMENT_3D('',#142,#143,#144);
#142=CARTESIAN_POINT('',(-3.21837661838339,19.3404112294709,0.));
#143=DIRECTION('',(0.707106781188362,-0.707106781184733,0.));
#144=DIRECTION('',(0.707106781184733,0.707106781188362,0.));
#145=FACE_BOUND('',#146,.T.);
#146=EDGE_LOOP('',(#284,#285,#286,#287));
#147=PLANE('',#148);
#148=AXIS2_PLACEMENT_3D('',#149,#150,#151);
#149=CARTESIAN_POINT('',(-3.64264068709643,19.7646752981818,0.));
#150=DIRECTION('',(-0.707106781184717,-0.707106781188378,0.));
#151=DIRECTION('',(0.707106781188378,-0.707106781184717,0.));
#152=FACE_BOUND('',#153,.T.);
#153=EDGE_LOOP('',(#288,#289,#290,#291));
#154=PLANE('',#155);
#155=AXIS2_PLACEMENT_3D('',#156,#157,#158);
#156=CARTESIAN_POINT('',(-19.3404112294709,3.21837661840926,0.));
#157=DIRECTION('',(0.707106781184999,0.707106781188096,0.));
#158=DIRECTION('',(-0.707106781188096,0.707106781184999,0.));
#159=FACE_BOUND('',#160,.T.);
#160=EDGE_LOOP('',(#292,#293,#294,#295));
#161=PLANE('',#162);
#162=AXIS2_PLACEMENT_3D('',#163,#164,#165);
#163=CARTESIAN_POINT('',(-19.7646752981809,2.79411254969543,0.));
#164=DIRECTION('',(0.707106781189714,-0.707106781183381,0.));
#165=DIRECTION('',(0.707106781183381,0.707106781189714,0.));
#166=FACE_BOUND('',#167,.T.);
#167=EDGE_LOOP('',(#296,#297,#298,#299));
#168=PLANE('',#169);
#169=AXIS2_PLACEMENT_3D('',#170,#171,#172);
#170=CARTESIAN_POINT('',(-18.3504617358077,1.37989898732395,0.));
#171=DIRECTION('',(0.707106781186121,0.707106781186974,0.));
#172=DIRECTION('',(-0.707106781186974,0.707106781186121,0.));
#173=FACE_BOUND('',#174,.T.);
#174=EDGE_LOOP('',(#300,#301,#302,#303));
#175=PLANE('',#176);
#176=AXIS2_PLACEMENT_3D('',#177,#178,#179);
#177=CARTESIAN_POINT('',(-17.9640130361689,1.76634768696317,0.));
#178=DIRECTION('',(-0.707106781186974,0.707106781186121,0.));
#179=DIRECTION('',(-0.707106781186121,-0.707106781186974,0.));
#180=FACE_BOUND('',#181,.T.);
#181=EDGE_LOOP('',(#304,#305,#306,#307));
#182=PLANE('',#183);
#183=AXIS2_PLACEMENT_3D('',#184,#185,#186);
#184=CARTESIAN_POINT('',(-16.549799473791,0.352134124594856,0.));
#185=DIRECTION('',(0.707106781186135,0.70710678118696,0.));
#186=DIRECTION('',(-0.70710678118696,0.707106781186135,0.));
#187=FACE_BOUND('',#188,.T.);
#188=EDGE_LOOP('',(#308,#309,#310,#311));
#189=PLANE('',#190);
#190=AXIS2_PLACEMENT_3D('',#191,#192,#193);
#191=CARTESIAN_POINT('',(-16.9362481734338,-0.0343145750482989,0.));
#192=DIRECTION('',(0.707106781186922,-0.707106781186173,0.));
#193=DIRECTION('',(0.707106781186173,0.707106781186922,0.));
#194=FACE_BOUND('',#195,.T.);
#195=EDGE_LOOP('',(#312,#313,#314,#315));
#196=PLANE('',#197);
#197=AXIS2_PLACEMENT_3D('',#198,#199,#200);
#198=CARTESIAN_POINT('',(-14.1764501987833,-2.79411254969541,0.));
#199=DIRECTION('',(0.707106781186121,0.707106781186974,0.));
#200=DIRECTION('',(-0.707106781186974,0.707106781186121,0.));
#201=FACE_BOUND('',#202,.T.);
#202=EDGE_LOOP('',(#316,#317,#318,#319));
#203=PLANE('',#204);
#204=AXIS2_PLACEMENT_3D('',#205,#206,#207);
#205=CARTESIAN_POINT('',(2.79411254969382,-2.79411254969541,0.));
#206=DIRECTION('',(0.,1.,0.));
#207=DIRECTION('',(-1.,0.,0.));
#208=FACE_BOUND('',#209,.T.);
#209=EDGE_LOOP('',(#320,#321,#322,#323));
#210=PLANE('',#211);
#211=AXIS2_PLACEMENT_3D('',#212,#213,#214);
#212=CARTESIAN_POINT('',(2.79411254969382,14.1764501987817,0.));
#213=DIRECTION('',(-1.,-1.30841038223648E-16,0.));
#214=DIRECTION('',(1.30841038223648E-16,-1.,0.));
#215=FACE_BOUND('',#216,.T.);
#216=EDGE_LOOP('',(#324,#325,#326,#327,#328,#329,#330,#331,#332,#333,#334,#335,#336,
#337,#338,#339,#340));
#217=PLANE('',#218);
#218=AXIS2_PLACEMENT_3D('',#219,#220,#221);
#219=CARTESIAN_POINT('',(0.,0.,0.));
#220=DIRECTION('',(0.,0.,-1.));
#221=DIRECTION('',(-6.12323399573677E-17,-1.,0.));
#222=FACE_BOUND('',#223,.T.);
#223=EDGE_LOOP('',(#341,#342,#343,#344,#345,#346,#347,#348,#349,#350,#351,#352,#353,
#354,#355,#356,#357,#358,#359,#360,#361,#362));
#224=PLANE('',#225);
#225=AXIS2_PLACEMENT_3D('',#226,#227,#228);
#226=CARTESIAN_POINT('',(0.,0.,36.));
#227=DIRECTION('',(0.,0.,1.));
#228=DIRECTION('',(-1.,1.22464679914735E-16,0.));
#229=FACE_BOUND('',#230,.T.);
#230=EDGE_LOOP('',(#363,#364,#365,#366,#367));
#231=PLANE('',#232);
#232=AXIS2_PLACEMENT_3D('',#233,#234,#235);
#233=CARTESIAN_POINT('',(0.,0.,-1.));
#234=DIRECTION('',(0.,0.,-1.));
#235=DIRECTION('',(-6.12323399573677E-17,-1.,0.));
#236=ORIENTED_EDGE('',*,*,#368,.T.);
#237=ORIENTED_EDGE('',*,*,#369,.F.);
#238=ORIENTED_EDGE('',*,*,#370,.F.);
#239=ORIENTED_EDGE('',*,*,#371,.T.);
#240=ORIENTED_EDGE('',*,*,#372,.T.);
#241=ORIENTED_EDGE('',*,*,#373,.F.);
#242=ORIENTED_EDGE('',*,*,#374,.F.);
#243=ORIENTED_EDGE('',*,*,#375,.F.);
#244=ORIENTED_EDGE('',*,*,#376,.T.);
#245=ORIENTED_EDGE('',*,*,#377,.F.);
#246=ORIENTED_EDGE('',*,*,#368,.F.);
#247=ORIENTED_EDGE('',*,*,#378,.F.);
#248=ORIENTED_EDGE('',*,*,#379,.T.);
#249=ORIENTED_EDGE('',*,*,#380,.F.);
#250=ORIENTED_EDGE('',*,*,#376,.F.);
#251=ORIENTED_EDGE('',*,*,#381,.F.);
#252=ORIENTED_EDGE('',*,*,#382,.T.);
#253=ORIENTED_EDGE('',*,*,#383,.F.);
#254=ORIENTED_EDGE('',*,*,#379,.F.);
#255=ORIENTED_EDGE('',*,*,#384,.F.);
#256=ORIENTED_EDGE('',*,*,#374,.T.);
#257=ORIENTED_EDGE('',*,*,#385,.F.);
#258=ORIENTED_EDGE('',*,*,#382,.F.);
#259=ORIENTED_EDGE('',*,*,#386,.F.);
#260=ORIENTED_EDGE('',*,*,#387,.F.);
#261=ORIENTED_EDGE('',*,*,#388,.T.);
#262=ORIENTED_EDGE('',*,*,#389,.F.);
#263=ORIENTED_EDGE('',*,*,#390,.F.);
#264=ORIENTED_EDGE('',*,*,#391,.F.);
#265=ORIENTED_EDGE('',*,*,#390,.T.);
#266=ORIENTED_EDGE('',*,*,#392,.F.);
#267=ORIENTED_EDGE('',*,*,#393,.F.);
#268=ORIENTED_EDGE('',*,*,#394,.F.);
#269=ORIENTED_EDGE('',*,*,#393,.T.);
#270=ORIENTED_EDGE('',*,*,#395,.F.);
#271=ORIENTED_EDGE('',*,*,#396,.F.);
#272=ORIENTED_EDGE('',*,*,#397,.F.);
#273=ORIENTED_EDGE('',*,*,#396,.T.);
#274=ORIENTED_EDGE('',*,*,#398,.F.);
#275=ORIENTED_EDGE('',*,*,#399,.F.);
#276=ORIENTED_EDGE('',*,*,#400,.F.);
#277=ORIENTED_EDGE('',*,*,#399,.T.);
#278=ORIENTED_EDGE('',*,*,#401,.F.);
#279=ORIENTED_EDGE('',*,*,#402,.F.);
#280=ORIENTED_EDGE('',*,*,#403,.F.);
#281=ORIENTED_EDGE('',*,*,#402,.T.);
#282=ORIENTED_EDGE('',*,*,#404,.F.);
#283=ORIENTED_EDGE('',*,*,#405,.F.);
#284=ORIENTED_EDGE('',*,*,#406,.F.);
#285=ORIENTED_EDGE('',*,*,#405,.T.);
#286=ORIENTED_EDGE('',*,*,#407,.F.);
#287=ORIENTED_EDGE('',*,*,#372,.F.);
#288=ORIENTED_EDGE('',*,*,#408,.F.);
#289=ORIENTED_EDGE('',*,*,#370,.T.);
#290=ORIENTED_EDGE('',*,*,#409,.F.);
#291=ORIENTED_EDGE('',*,*,#410,.F.);
#292=ORIENTED_EDGE('',*,*,#411,.F.);
#293=ORIENTED_EDGE('',*,*,#410,.T.);
#294=ORIENTED_EDGE('',*,*,#412,.F.);
#295=ORIENTED_EDGE('',*,*,#413,.F.);
#296=ORIENTED_EDGE('',*,*,#414,.F.);
#297=ORIENTED_EDGE('',*,*,#413,.T.);
#298=ORIENTED_EDGE('',*,*,#415,.F.);
#299=ORIENTED_EDGE('',*,*,#416,.F.);
#300=ORIENTED_EDGE('',*,*,#417,.F.);
#301=ORIENTED_EDGE('',*,*,#416,.T.);
#302=ORIENTED_EDGE('',*,*,#418,.F.);
#303=ORIENTED_EDGE('',*,*,#419,.F.);
#304=ORIENTED_EDGE('',*,*,#420,.F.);
#305=ORIENTED_EDGE('',*,*,#419,.T.);
#306=ORIENTED_EDGE('',*,*,#421,.F.);
#307=ORIENTED_EDGE('',*,*,#422,.F.);
#308=ORIENTED_EDGE('',*,*,#423,.F.);
#309=ORIENTED_EDGE('',*,*,#422,.T.);
#310=ORIENTED_EDGE('',*,*,#424,.F.);
#311=ORIENTED_EDGE('',*,*,#425,.F.);
#312=ORIENTED_EDGE('',*,*,#426,.F.);
#313=ORIENTED_EDGE('',*,*,#425,.T.);
#314=ORIENTED_EDGE('',*,*,#427,.F.);
#315=ORIENTED_EDGE('',*,*,#428,.F.);
#316=ORIENTED_EDGE('',*,*,#429,.F.);
#317=ORIENTED_EDGE('',*,*,#428,.T.);
#318=ORIENTED_EDGE('',*,*,#430,.F.);
#319=ORIENTED_EDGE('',*,*,#431,.F.);
#320=ORIENTED_EDGE('',*,*,#432,.F.);
#321=ORIENTED_EDGE('',*,*,#431,.T.);
#322=ORIENTED_EDGE('',*,*,#433,.F.);
#323=ORIENTED_EDGE('',*,*,#388,.F.);
#324=ORIENTED_EDGE('',*,*,#432,.T.);
#325=ORIENTED_EDGE('',*,*,#387,.T.);
#326=ORIENTED_EDGE('',*,*,#391,.T.);
#327=ORIENTED_EDGE('',*,*,#394,.T.);
#328=ORIENTED_EDGE('',*,*,#397,.T.);
#329=ORIENTED_EDGE('',*,*,#400,.T.);
#330=ORIENTED_EDGE('',*,*,#403,.T.);
#331=ORIENTED_EDGE('',*,*,#406,.T.);
#332=ORIENTED_EDGE('',*,*,#371,.F.);
#333=ORIENTED_EDGE('',*,*,#408,.T.);
#334=ORIENTED_EDGE('',*,*,#411,.T.);
#335=ORIENTED_EDGE('',*,*,#414,.T.);
#336=ORIENTED_EDGE('',*,*,#417,.T.);
#337=ORIENTED_EDGE('',*,*,#420,.T.);
#338=ORIENTED_EDGE('',*,*,#423,.T.);
#339=ORIENTED_EDGE('',*,*,#426,.T.);
#340=ORIENTED_EDGE('',*,*,#429,.T.);
#341=ORIENTED_EDGE('',*,*,#433,.T.);
#342=ORIENTED_EDGE('',*,*,#430,.T.);
#343=ORIENTED_EDGE('',*,*,#427,.T.);
#344=ORIENTED_EDGE('',*,*,#424,.T.);
#345=ORIENTED_EDGE('',*,*,#421,.T.);
#346=ORIENTED_EDGE('',*,*,#418,.T.);
#347=ORIENTED_EDGE('',*,*,#415,.T.);
#348=ORIENTED_EDGE('',*,*,#412,.T.);
#349=ORIENTED_EDGE('',*,*,#409,.T.);
#350=ORIENTED_EDGE('',*,*,#369,.T.);
#351=ORIENTED_EDGE('',*,*,#377,.T.);
#352=ORIENTED_EDGE('',*,*,#380,.T.);
#353=ORIENTED_EDGE('',*,*,#383,.T.);
#354=ORIENTED_EDGE('',*,*,#385,.T.);
#355=ORIENTED_EDGE('',*,*,#373,.T.);
#356=ORIENTED_EDGE('',*,*,#407,.T.);
#357=ORIENTED_EDGE('',*,*,#404,.T.);
#358=ORIENTED_EDGE('',*,*,#401,.T.);
#359=ORIENTED_EDGE('',*,*,#398,.T.);
#360=ORIENTED_EDGE('',*,*,#395,.T.);
#361=ORIENTED_EDGE('',*,*,#392,.T.);
#362=ORIENTED_EDGE('',*,*,#389,.T.);
#363=ORIENTED_EDGE('',*,*,#375,.T.);
#364=ORIENTED_EDGE('',*,*,#386,.T.);
#365=ORIENTED_EDGE('',*,*,#384,.T.);
#366=ORIENTED_EDGE('',*,*,#381,.T.);
#367=ORIENTED_EDGE('',*,*,#378,.T.);
#368=EDGE_CURVE('',#434,#435,#436,.T.);
#369=EDGE_CURVE('',#437,#435,#438,.T.);
#370=EDGE_CURVE('',#439,#437,#440,.T.);
#371=EDGE_CURVE('',#439,#441,#442,.T.);
#372=EDGE_CURVE('',#441,#443,#444,.T.);
#373=EDGE_CURVE('',#445,#443,#446,.T.);
#374=EDGE_CURVE('',#447,#445,#448,.T.);
#375=EDGE_CURVE('',#434,#447,#449,.T.);
#376=EDGE_CURVE('',#450,#451,#452,.T.);
#377=EDGE_CURVE('',#435,#451,#453,.T.);
#378=EDGE_CURVE('',#450,#434,#454,.T.);
#379=EDGE_CURVE('',#455,#456,#457,.T.);
#380=EDGE_CURVE('',#451,#456,#458,.T.);
#381=EDGE_CURVE('',#455,#450,#459,.T.);
#382=EDGE_CURVE('',#460,#461,#462,.T.);
#383=EDGE_CURVE('',#456,#461,#463,.T.);
#384=EDGE_CURVE('',#460,#455,#464,.T.);
#385=EDGE_CURVE('',#461,#445,#465,.T.);
#386=EDGE_CURVE('',#447,#460,#466,.T.);
#387=EDGE_CURVE('',#467,#468,#469,.F.);
#388=EDGE_CURVE('',#467,#470,#471,.T.);
#389=EDGE_CURVE('',#472,#470,#473,.T.);
#390=EDGE_CURVE('',#468,#472,#474,.T.);
#391=EDGE_CURVE('',#468,#475,#476,.F.);
#392=EDGE_CURVE('',#477,#472,#478,.T.);
#393=EDGE_CURVE('',#475,#477,#479,.T.);
#394=EDGE_CURVE('',#475,#480,#481,.F.);
#395=EDGE_CURVE('',#482,#477,#483,.T.);
#396=EDGE_CURVE('',#480,#482,#484,.T.);
#397=EDGE_CURVE('',#480,#485,#486,.F.);
#398=EDGE_CURVE('',#487,#482,#488,.T.);
#399=EDGE_CURVE('',#485,#487,#489,.T.);
#400=EDGE_CURVE('',#485,#490,#491,.F.);
#401=EDGE_CURVE('',#492,#487,#493,.T.);
#402=EDGE_CURVE('',#490,#492,#494,.T.);
#403=EDGE_CURVE('',#490,#495,#496,.F.);
#404=EDGE_CURVE('',#497,#492,#498,.T.);
#405=EDGE_CURVE('',#495,#497,#499,.T.);
#406=EDGE_CURVE('',#495,#441,#500,.F.);
#407=EDGE_CURVE('',#443,#497,#501,.T.);
#408=EDGE_CURVE('',#439,#502,#503,.F.);
#409=EDGE_CURVE('',#504,#437,#505,.T.);
#410=EDGE_CURVE('',#502,#504,#506,.T.);
#411=EDGE_CURVE('',#502,#507,#508,.F.);
#412=EDGE_CURVE('',#509,#504,#510,.T.);
#413=EDGE_CURVE('',#507,#509,#511,.T.);
#414=EDGE_CURVE('',#507,#512,#513,.F.);
#415=EDGE_CURVE('',#514,#509,#515,.T.);
#416=EDGE_CURVE('',#512,#514,#516,.T.);
#417=EDGE_CURVE('',#512,#517,#518,.F.);
#418=EDGE_CURVE('',#519,#514,#520,.T.);
#419=EDGE_CURVE('',#517,#519,#521,.T.);
#420=EDGE_CURVE('',#517,#522,#523,.F.);
#421=EDGE_CURVE('',#524,#519,#525,.T.);
#422=EDGE_CURVE('',#522,#524,#526,.T.);
#423=EDGE_CURVE('',#522,#527,#528,.F.);
#424=EDGE_CURVE('',#529,#524,#530,.T.);
#425=EDGE_CURVE('',#527,#529,#531,.T.);
#426=EDGE_CURVE('',#527,#532,#533,.F.);
#427=EDGE_CURVE('',#534,#529,#535,.T.);
#428=EDGE_CURVE('',#532,#534,#536,.T.);
#429=EDGE_CURVE('',#532,#537,#538,.F.);
#430=EDGE_CURVE('',#539,#534,#540,.T.);
#431=EDGE_CURVE('',#537,#539,#541,.T.);
#432=EDGE_CURVE('',#537,#467,#542,.F.);
#433=EDGE_CURVE('',#470,#539,#543,.T.);
#434=VERTEX_POINT('',#544);
#435=VERTEX_POINT('',#545);
#436=LINE('',#546,#547);
#437=VERTEX_POINT('',#549);
#438=LINE('',#550,#551);
#439=VERTEX_POINT('',#553);
#440=LINE('',#554,#555);
#441=VERTEX_POINT('',#557);
#442=LINE('',#558,#559);
#443=VERTEX_POINT('',#561);
#444=LINE('',#562,#563);
#445=VERTEX_POINT('',#565);
#446=LINE('',#566,#567);
#447=VERTEX_POINT('',#569);
#448=LINE('',#570,#571);
#449=LINE('',#573,#574);
#450=VERTEX_POINT('',#576);
#451=VERTEX_POINT('',#577);
#452=LINE('',#578,#579);
#453=LINE('',#581,#582);
#454=LINE('',#584,#585);
#455=VERTEX_POINT('',#587);
#456=VERTEX_POINT('',#588);
#457=LINE('',#589,#590);
#458=LINE('',#592,#593);
#459=LINE('',#595,#596);
#460=VERTEX_POINT('',#598);
#461=VERTEX_POINT('',#599);
#462=LINE('',#600,#601);
#463=LINE('',#603,#604);
#464=LINE('',#606,#607);
#465=LINE('',#609,#610);
#466=LINE('',#612,#613);
#467=VERTEX_POINT('',#615);
#468=VERTEX_POINT('',#616);
#469=LINE('',#617,#618);
#470=VERTEX_POINT('',#620);
#471=LINE('',#621,#622);
#472=VERTEX_POINT('',#624);
#473=LINE('',#625,#626);
#474=LINE('',#628,#629);
#475=VERTEX_POINT('',#631);
#476=LINE('',#632,#633);
#477=VERTEX_POINT('',#635);
#478=LINE('',#636,#637);
#479=LINE('',#639,#640);
#480=VERTEX_POINT('',#642);
#481=LINE('',#643,#644);
#482=VERTEX_POINT('',#646);
#483=LINE('',#647,#648);
#484=LINE('',#650,#651);
#485=VERTEX_POINT('',#653);
#486=LINE('',#654,#655);
#487=VERTEX_POINT('',#657);
#488=LINE('',#658,#659);
#489=LINE('',#661,#662);
#490=VERTEX_POINT('',#664);
#491=LINE('',#665,#666);
#492=VERTEX_POINT('',#668);
#493=LINE('',#669,#670);
#494=LINE('',#672,#673);
#495=VERTEX_POINT('',#675);
#496=LINE('',#676,#677);
#497=VERTEX_POINT('',#679);
#498=LINE('',#680,#681);
#499=LINE('',#683,#684);
#500=LINE('',#686,#687);
#501=LINE('',#689,#690);
#502=VERTEX_POINT('',#692);
#503=LINE('',#693,#694);
#504=VERTEX_POINT('',#696);
#505=LINE('',#697,#698);
#506=LINE('',#700,#701);
#507=VERTEX_POINT('',#703);
#508=LINE('',#704,#705);
#509=VERTEX_POINT('',#707);
#510=LINE('',#708,#709);
#511=LINE('',#711,#712);
#512=VERTEX_POINT('',#714);
#513=LINE('',#715,#716);
#514=VERTEX_POINT('',#718);
#515=LINE('',#719,#720);
#516=LINE('',#722,#723);
#517=VERTEX_POINT('',#725);
#518=LINE('',#726,#727);
#519=VERTEX_POINT('',#729);
#520=LINE('',#730,#731);
#521=LINE('',#733,#734);
#522=VERTEX_POINT('',#736);
#523=LINE('',#737,#738);
#524=VERTEX_POINT('',#740);
#525=LINE('',#741,#742);
#526=LINE('',#744,#745);
#527=VERTEX_POINT('',#747);
#528=LINE('',#748,#749);
#529=VERTEX_POINT('',#751);
#530=LINE('',#752,#753);
#531=LINE('',#755,#756);
#532=VERTEX_POINT('',#758);
#533=LINE('',#759,#760);
#534=VERTEX_POINT('',#762);
#535=LINE('',#763,#764);
#536=LINE('',#766,#767);
#537=VERTEX_POINT('',#769);
#538=LINE('',#770,#771);
#539=VERTEX_POINT('',#773);
#540=LINE('',#774,#775);
#541=LINE('',#777,#778);
#542=LINE('',#780,#781);
#543=LINE('',#783,#784);
#544=CARTESIAN_POINT('',(-21.0374675043126,2.36984848097997,-1.));
#545=CARTESIAN_POINT('',(-21.0374675043126,2.36984848097997,36.));
#546=CARTESIAN_POINT('',(-21.0374675043126,2.36984848097997,-1.));
#547=VECTOR('',#548,1.);
#548=DIRECTION('',(0.,0.,1.));
#549=CARTESIAN_POINT('',(-19.7646752981837,3.64264068712027,36.));
#550=CARTESIAN_POINT('',(-19.7646752981837,3.64264068712027,36.));
#551=VECTOR('',#552,1.);
#552=DIRECTION('',(-0.70710678118338,-0.707106781189715,0.));
#553=CARTESIAN_POINT('',(-19.7646752981827,3.64264068711927,0.));
#554=CARTESIAN_POINT('',(-19.7646752981837,3.64264068712027,0.));
#555=VECTOR('',#556,1.);
#556=DIRECTION('',(0.,0.,1.));
#557=CARTESIAN_POINT('',(-3.64264068712539,19.7646752982107,0.));
#558=CARTESIAN_POINT('',(-19.7646752981807,3.64264068711728,0.));
#559=VECTOR('',#560,1.);
#560=DIRECTION('',(0.707106781185039,0.707106781188057,0.));
#561=CARTESIAN_POINT('',(-3.64264068709643,19.7646752981818,36.));
#562=CARTESIAN_POINT('',(-3.64264068713899,19.7646752982243,0.));
#563=VECTOR('',#564,1.);
#564=DIRECTION('',(0.,0.,1.));
#565=CARTESIAN_POINT('',(-2.36984848098454,21.0374675043002,36.));
#566=CARTESIAN_POINT('',(-2.36984848102831,21.037467504344,36.));
#567=VECTOR('',#568,1.);
#568=DIRECTION('',(-0.707106781184056,-0.707106781189039,0.));
#569=CARTESIAN_POINT('',(-2.36984848098454,21.0374675043002,-1.));
#570=CARTESIAN_POINT('',(-2.36984848102832,21.037467504344,-1.));
#571=VECTOR('',#572,1.);
#572=DIRECTION('',(-1.20024110770287E-17,-9.60192886162297E-17,1.));
#573=CARTESIAN_POINT('',(-21.0374675043126,2.36984848097997,-1.));
#574=VECTOR('',#575,1.);
#575=DIRECTION('',(0.707106781185038,0.707106781188056,0.));
#576=CARTESIAN_POINT('',(-14.6735064736301,-3.99411254969541,-1.));
#577=CARTESIAN_POINT('',(-14.6735064736301,-3.99411254969541,36.));
#578=CARTESIAN_POINT('',(-14.6735064736301,-3.99411254969541,-1.));
#579=VECTOR('',#580,1.);
#580=DIRECTION('',(0.,0.,1.));
#581=CARTESIAN_POINT('',(-21.0374675043126,2.36984848097997,36.));
#582=VECTOR('',#583,1.);
#583=DIRECTION('',(0.707106781186942,-0.707106781186153,0.));
#584=CARTESIAN_POINT('',(-14.6735064736301,-3.99411254969541,-1.));
#585=VECTOR('',#586,1.);
#586=DIRECTION('',(-0.707106781186942,0.707106781186153,0.));
#587=CARTESIAN_POINT('',(3.99411254969383,-3.99411254969541,-1.));
#588=CARTESIAN_POINT('',(3.99411254969383,-3.99411254969541,36.));
#589=CARTESIAN_POINT('',(3.99411254969383,-3.99411254969541,-1.));
#590=VECTOR('',#591,1.);
#591=DIRECTION('',(0.,0.,1.));
#592=CARTESIAN_POINT('',(-14.6735064736301,-3.99411254969541,36.));
#593=VECTOR('',#594,1.);
#594=DIRECTION('',(1.,-4.7578559354056E-17,0.));
#595=CARTESIAN_POINT('',(3.99411254969383,-3.99411254969541,-1.));
#596=VECTOR('',#597,1.);
#597=DIRECTION('',(-1.,7.1367839031084E-17,0.));
#598=CARTESIAN_POINT('',(3.99411254969383,14.6735064736289,-1.));
#599=CARTESIAN_POINT('',(3.99411254969383,14.6735064736289,36.));
#600=CARTESIAN_POINT('',(3.99411254969383,14.6735064736289,-1.));
#601=VECTOR('',#602,1.);
#602=DIRECTION('',(-2.40048221540574E-17,0.,1.));
#603=CARTESIAN_POINT('',(3.99411254969383,-3.99411254969541,36.));
#604=VECTOR('',#605,1.);
#605=DIRECTION('',(-2.37892796770276E-17,1.,0.));
#606=CARTESIAN_POINT('',(3.99411254969383,14.6735064736289,-1.));
#607=VECTOR('',#608,1.);
#608=DIRECTION('',(2.37892796770276E-17,-1.,0.));
#609=CARTESIAN_POINT('',(3.99411254969383,14.6735064736289,36.));
#610=VECTOR('',#611,1.);
#611=DIRECTION('',(-0.707106781186942,0.707106781186154,0.));
#612=CARTESIAN_POINT('',(-2.36984848098454,21.0374675043002,-1.));
#613=VECTOR('',#614,1.);
#614=DIRECTION('',(0.707106781186942,-0.707106781186154,0.));
#615=CARTESIAN_POINT('',(2.79411254969382,14.1764501987817,0.));
#616=CARTESIAN_POINT('',(0.0343145750345124,16.9362481734377,0.));
#617=CARTESIAN_POINT('',(0.0343145750345058,16.9362481734377,0.));
#618=VECTOR('',#619,1.);
#619=DIRECTION('',(0.707106781186974,-0.707106781186121,0.));
#620=CARTESIAN_POINT('',(2.79411254969382,14.1764501987817,36.));
#621=CARTESIAN_POINT('',(2.79411254969382,14.1764501987817,0.));
#622=VECTOR('',#623,1.);
#623=DIRECTION('',(0.,0.,1.));
#624=CARTESIAN_POINT('',(0.0343145750345124,16.9362481734377,36.));
#625=CARTESIAN_POINT('',(0.0343145750345058,16.9362481734377,36.));
#626=VECTOR('',#627,1.);
#627=DIRECTION('',(0.707106781186974,-0.707106781186121,0.));
#628=CARTESIAN_POINT('',(0.0343145750345124,16.9362481734377,0.));
#629=VECTOR('',#630,1.);
#630=DIRECTION('',(0.,0.,1.));
#631=CARTESIAN_POINT('',(-0.37509517281889,16.5268384255839,0.));
#632=CARTESIAN_POINT('',(-0.37509517281889,16.5268384255839,0.));
#633=VECTOR('',#634,1.);
#634=DIRECTION('',(0.707106781186179,0.707106781186916,0.));
#635=CARTESIAN_POINT('',(-0.37509517281889,16.5268384255839,36.));
#636=CARTESIAN_POINT('',(-0.37509517281889,16.5268384255839,36.));
#637=VECTOR('',#638,1.);
#638=DIRECTION('',(0.707106781186179,0.707106781186916,0.));
#639=CARTESIAN_POINT('',(-0.37509517281889,16.5268384255839,0.));
#640=VECTOR('',#641,1.);
#641=DIRECTION('',(0.,0.,1.));
#642=CARTESIAN_POINT('',(-1.78930873519332,17.9410519879572,0.));
#643=CARTESIAN_POINT('',(-1.78930873519305,17.9410519879563,0.));
#644=VECTOR('',#645,1.);
#645=DIRECTION('',(0.707106781186987,-0.707106781186108,0.));
#646=CARTESIAN_POINT('',(-1.78930873519332,17.9410519879572,36.));
#647=CARTESIAN_POINT('',(-1.78930873519305,17.9410519879563,36.));
#648=VECTOR('',#649,1.);
#649=DIRECTION('',(0.707106781186987,-0.707106781186108,0.));
#650=CARTESIAN_POINT('',(-1.78930873519332,17.9410519879572,0.));
#651=VECTOR('',#652,1.);
#652=DIRECTION('',(0.,0.,1.));
#653=CARTESIAN_POINT('',(-1.37989898734085,18.3504617358114,0.));
#654=CARTESIAN_POINT('',(-1.37989898734086,18.3504617358114,0.));
#655=VECTOR('',#656,1.);
#656=DIRECTION('',(-0.707106781186118,-0.707106781186977,0.));
#657=CARTESIAN_POINT('',(-1.37989898734085,18.3504617358114,36.));
#658=CARTESIAN_POINT('',(-1.37989898734086,18.3504617358114,36.));
#659=VECTOR('',#660,1.);
#660=DIRECTION('',(-0.707106781186118,-0.707106781186977,0.));
#661=CARTESIAN_POINT('',(-1.37989898734085,18.3504617358114,0.));
#662=VECTOR('',#663,1.);
#663=DIRECTION('',(0.,0.,1.));
#664=CARTESIAN_POINT('',(-2.79411254969383,19.7646752981626,0.));
#665=CARTESIAN_POINT('',(-2.79411254969383,19.7646752981626,0.));
#666=VECTOR('',#667,1.);
#667=DIRECTION('',(0.707106781186974,-0.707106781186121,0.));
#668=CARTESIAN_POINT('',(-2.79411254969383,19.7646752981626,36.));
#669=CARTESIAN_POINT('',(-2.79411254969383,19.7646752981626,36.));
#670=VECTOR('',#671,1.);
#671=DIRECTION('',(0.707106781186974,-0.707106781186121,0.));
#672=CARTESIAN_POINT('',(-2.79411254969383,19.7646752981626,0.));
#673=VECTOR('',#674,1.);
#674=DIRECTION('',(0.,0.,1.));
#675=CARTESIAN_POINT('',(-3.21837661838339,19.3404112294709,0.));
#676=CARTESIAN_POINT('',(-3.21837661838339,19.3404112294709,0.));
#677=VECTOR('',#678,1.);
#678=DIRECTION('',(0.707106781184733,0.707106781188362,0.));
#679=CARTESIAN_POINT('',(-3.21837661838339,19.3404112294709,36.));
#680=CARTESIAN_POINT('',(-3.21837661838339,19.3404112294709,36.));
#681=VECTOR('',#682,1.);
#682=DIRECTION('',(0.707106781184733,0.707106781188362,0.));
#683=CARTESIAN_POINT('',(-3.21837661838339,19.3404112294709,0.));
#684=VECTOR('',#685,1.);
#685=DIRECTION('',(0.,0.,1.));
#686=CARTESIAN_POINT('',(-3.64264068709643,19.7646752981818,0.));
#687=VECTOR('',#688,1.);
#688=DIRECTION('',(0.707106781188378,-0.707106781184718,0.));
#689=CARTESIAN_POINT('',(-3.64264068709643,19.7646752981818,36.));
#690=VECTOR('',#691,1.);
#691=DIRECTION('',(0.707106781188378,-0.707106781184717,0.));
#692=CARTESIAN_POINT('',(-19.3404112294709,3.21837661840926,0.));
#693=CARTESIAN_POINT('',(-19.3404112294709,3.21837661840926,0.));
#694=VECTOR('',#695,1.);
#695=DIRECTION('',(-0.707106781188096,0.707106781184999,0.));
#696=CARTESIAN_POINT('',(-19.3404112294709,3.21837661840926,36.));
#697=CARTESIAN_POINT('',(-19.3404112294709,3.21837661840926,36.));
#698=VECTOR('',#699,1.);
#699=DIRECTION('',(-0.707106781188096,0.707106781184999,0.));
#700=CARTESIAN_POINT('',(-19.3404112294709,3.21837661840926,0.));
#701=VECTOR('',#702,1.);
#702=DIRECTION('',(0.,0.,1.));
#703=CARTESIAN_POINT('',(-19.7646752981809,2.79411254969543,0.));
#704=CARTESIAN_POINT('',(-19.7646752981809,2.79411254969543,0.));
#705=VECTOR('',#706,1.);
#706=DIRECTION('',(0.707106781183381,0.707106781189714,0.));
#707=CARTESIAN_POINT('',(-19.7646752981809,2.79411254969543,36.));
#708=CARTESIAN_POINT('',(-19.7646752981809,2.79411254969543,36.));
#709=VECTOR('',#710,1.);
#710=DIRECTION('',(0.707106781183381,0.707106781189714,0.));
#711=CARTESIAN_POINT('',(-19.7646752981809,2.79411254969543,0.));
#712=VECTOR('',#713,1.);
#713=DIRECTION('',(0.,0.,1.));
#714=CARTESIAN_POINT('',(-18.3504617358077,1.37989898732394,0.));
#715=CARTESIAN_POINT('',(-18.3504617358077,1.37989898732395,0.));
#716=VECTOR('',#717,1.);
#717=DIRECTION('',(-0.707106781186974,0.707106781186121,0.));
#718=CARTESIAN_POINT('',(-18.3504617358077,1.37989898732394,36.));
#719=CARTESIAN_POINT('',(-18.3504617358077,1.37989898732395,36.));
#720=VECTOR('',#721,1.);
#721=DIRECTION('',(-0.707106781186974,0.707106781186121,0.));
#722=CARTESIAN_POINT('',(-18.3504617358077,1.37989898732394,0.));
#723=VECTOR('',#724,1.);
#724=DIRECTION('',(0.,0.,1.));
#725=CARTESIAN_POINT('',(-17.9640130361669,1.76634768696515,0.));
#726=CARTESIAN_POINT('',(-17.9640130361689,1.76634768696317,0.));
#727=VECTOR('',#728,1.);
#728=DIRECTION('',(-0.707106781186121,-0.707106781186974,0.));
#729=CARTESIAN_POINT('',(-17.9640130361669,1.76634768696515,36.));
#730=CARTESIAN_POINT('',(-17.9640130361689,1.76634768696317,36.));
#731=VECTOR('',#732,1.);
#732=DIRECTION('',(-0.707106781186121,-0.707106781186974,0.));
#733=CARTESIAN_POINT('',(-17.9640130361669,1.76634768696515,0.));
#734=VECTOR('',#735,1.);
#735=DIRECTION('',(0.,0.,1.));
#736=CARTESIAN_POINT('',(-16.549799473791,0.352134124594856,0.));
#737=CARTESIAN_POINT('',(-16.549799473791,0.352134124594856,0.));
#738=VECTOR('',#739,1.);
#739=DIRECTION('',(-0.70710678118696,0.707106781186135,0.));
#740=CARTESIAN_POINT('',(-16.549799473791,0.352134124594856,36.));
#741=CARTESIAN_POINT('',(-16.549799473791,0.352134124594856,36.));
#742=VECTOR('',#743,1.);
#743=DIRECTION('',(-0.70710678118696,0.707106781186135,0.));
#744=CARTESIAN_POINT('',(-16.549799473791,0.352134124594856,0.));
#745=VECTOR('',#746,1.);
#746=DIRECTION('',(0.,0.,1.));
#747=CARTESIAN_POINT('',(-16.9362481734338,-0.0343145750482924,0.));
#748=CARTESIAN_POINT('',(-16.9362481734338,-0.0343145750482989,0.));
#749=VECTOR('',#750,1.);
#750=DIRECTION('',(0.707106781186173,0.707106781186922,0.));
#751=CARTESIAN_POINT('',(-16.9362481734338,-0.0343145750482924,36.));
#752=CARTESIAN_POINT('',(-16.9362481734338,-0.0343145750482989,36.));
#753=VECTOR('',#754,1.);
#754=DIRECTION('',(0.707106781186173,0.707106781186922,0.));
#755=CARTESIAN_POINT('',(-16.9362481734338,-0.0343145750482925,0.));
#756=VECTOR('',#757,1.);
#757=DIRECTION('',(0.,0.,1.));
#758=CARTESIAN_POINT('',(-14.1764501987833,-2.79411254969541,0.));
#759=CARTESIAN_POINT('',(-14.1764501987833,-2.79411254969541,0.));
#760=VECTOR('',#761,1.);
#761=DIRECTION('',(-0.707106781186974,0.707106781186121,0.));
#762=CARTESIAN_POINT('',(-14.1764501987833,-2.79411254969541,36.));
#763=CARTESIAN_POINT('',(-14.1764501987833,-2.79411254969541,36.));
#764=VECTOR('',#765,1.);
#765=DIRECTION('',(-0.707106781186974,0.707106781186121,0.));
#766=CARTESIAN_POINT('',(-14.1764501987833,-2.79411254969541,0.));
#767=VECTOR('',#768,1.);
#768=DIRECTION('',(0.,0.,1.));
#769=CARTESIAN_POINT('',(2.79411254969382,-2.79411254969541,0.));
#770=CARTESIAN_POINT('',(2.79411254969382,-2.79411254969541,0.));
#771=VECTOR('',#772,1.);
#772=DIRECTION('',(-1.,0.,0.));
#773=CARTESIAN_POINT('',(2.79411254969382,-2.79411254969541,36.));
#774=CARTESIAN_POINT('',(2.79411254969382,-2.79411254969541,36.));
#775=VECTOR('',#776,1.);
#776=DIRECTION('',(-1.,0.,0.));
#777=CARTESIAN_POINT('',(2.79411254969382,-2.79411254969541,0.));
#778=VECTOR('',#779,1.);
#779=DIRECTION('',(0.,0.,1.));
#780=CARTESIAN_POINT('',(2.79411254969382,14.1764501987817,0.));
#781=VECTOR('',#782,1.);
#782=DIRECTION('',(1.30841038223648E-16,-1.,0.));
#783=CARTESIAN_POINT('',(2.79411254969382,14.1764501987817,36.));
#784=VECTOR('',#785,1.);
#785=DIRECTION('',(1.30841038223648E-16,-1.,0.));
ENDSEC;
END-ISO-10303-21;
