ISO-10303-21;
HEADER;
FILE_DESCRIPTION(('STEP AP242'),
    '1');
FILE_NAME('шестерня3',
    '',
    ('UNSPECIFIED'),
    ('UNSPECIFIED'),
    'C3D Converter',
    'C3D Toolkit',
    '');
FILE_SCHEMA(('AP242_MANAGED_MODEL_BASED_3D_ENGINEERING_MIM_LF { 1 0 10303 442 1 1 4 }'));
ENDSEC;

DATA;
#1=PRODUCT_DEFINITION('','UNSPECIFIED',#28,#31);
#2=SHAPE_DEFINITION_REPRESENTATION(#26,#3);
#3=SHAPE_REPRESENTATION('NONE',(#4),#8);
#4=AXIS2_PLACEMENT_3D('',#5,#6,#7);
#5=CARTESIAN_POINT('',(0.,0.,0.));
#6=DIRECTION('',(0.,0.,1.));
#7=DIRECTION('',(1.,0.,0.));
#8=(GEOMETRIC_REPRESENTATION_CONTEXT(3)GLOBAL_UNCERTAINTY_ASSIGNED_CONTEXT((#10))
GLOBAL_UNIT_ASSIGNED_CONTEXT((#9,#11,#12))REPRESENTATION_CONTEXT('NONE','NONE'));
#9=(LENGTH_UNIT()NAMED_UNIT(*)SI_UNIT(.MILLI.,.METRE.));
#10=UNCERTAINTY_MEASURE_WITH_UNIT(LENGTH_MEASURE(1.E-5),#9,'NONE','NONE');
#11=(NAMED_UNIT(*)PLANE_ANGLE_UNIT()SI_UNIT($,.RADIAN.));
#12=(NAMED_UNIT(*)SI_UNIT($,.STERADIAN.)SOLID_ANGLE_UNIT());
#13=MANIFOLD_SOLID_BREP('',#14);
#14=CLOSED_SHELL('',(#53,#62,#71,#80,#89,#98,#107,#116,#125,#134,#143,#152,#161,
#170,#179,#188,#197,#206,#215,#224,#233,#242,#251,#260,#269,#278,#287,#296,#305,
#314,#323,#332,#341,#350,#359,#368,#377,#386,#395,#404,#413,#422,#431,#440,#449,
#458));
#15=COLOUR_RGB('',0.564705882352941,0.564705882352941,0.564705882352941);
#16=FILL_AREA_STYLE_COLOUR('',#15);
#17=FILL_AREA_STYLE($,(#16));
#18=SURFACE_STYLE_FILL_AREA(#17);
#19=SURFACE_SIDE_STYLE('',(#18));
#20=SURFACE_STYLE_USAGE(.BOTH.,#19);
#21=PRESENTATION_STYLE_ASSIGNMENT((#20));
#22=MECHANICAL_DESIGN_GEOMETRIC_PRESENTATION_REPRESENTATION('NONE',(#23,#61,#70,
#79,#88,#97,#106,#115,#124,#133,#142,#151,#160,#169,#178,#187,#196,#205,#214,#223,
#232,#241,#250,#259,#268,#277,#286,#295,#304,#313,#322,#331,#340,#349,#358,#367,
#376,#385,#394,#403,#412,#421,#430,#439,#448,#457,#466),#8);
#23=STYLED_ITEM('',(#21),#13);
#24=ADVANCED_BREP_SHAPE_REPRESENTATION('NONE',(#13),#8);
#25=SHAPE_REPRESENTATION_RELATIONSHIP('','',#3,#24);
#26=PRODUCT_DEFINITION_SHAPE('NONE','NONE',#1);
#27=MECHANICAL_CONTEXT('NONE',#32,'mechanical');
#28=PRODUCT_DEFINITION_FORMATION_WITH_SPECIFIED_SOURCE('ANY','UNSPECIFIED',#29,.NOT_KNOWN.);
#29=PRODUCT('','\X2\0414043504420430043B044C\X0\','NONE',(#27));
#30=PRODUCT_RELATED_PRODUCT_CATEGORY('detail','',(#29));
#31=DESIGN_CONTEXT('detailed design',#32,'design');
#32=APPLICATION_CONTEXT('configuration controlled 3d designs of mechanical parts and assemblies');
#33=APPLICATION_PROTOCOL_DEFINITION('international standard','config_control_design',
1994,#32);
#34=CC_DESIGN_DATE_AND_TIME_ASSIGNMENT(#35,#39,(#1));
#35=DATE_AND_TIME(#36,#37);
#36=CALENDAR_DATE(0,1,1);
#37=LOCAL_TIME(0,0,0.,#38);
#38=COORDINATED_UNIVERSAL_TIME_OFFSET(0,0,.AHEAD.);
#39=DATE_TIME_ROLE('creation_date');
#40=CC_DESIGN_APPROVAL(#41,(#1));
#41=APPROVAL(#42,'UNSPECIFIED');
#42=APPROVAL_STATUS('not_yet_approved');
#43=APPROVAL_DATE_TIME(#44,#41);
#44=DATE_AND_TIME(#45,#46);
#45=CALENDAR_DATE(0,1,1);
#46=LOCAL_TIME(0,0,0.,#47);
#47=COORDINATED_UNIVERSAL_TIME_OFFSET(0,0,.AHEAD.);
#48=PERSON('UNSPECIFIED','savvig','UNSPECIFIED',('UNSPECIFIED'),('UNSPECIFIED'),
('UNSPECIFIED'));
#49=ORGANIZATION('UNSPECIFIED','UNSPECIFIED','UNSPECIFIED');
#50=PERSON_AND_ORGANIZATION(#48,#49);
#51=PERSON_AND_ORGANIZATION_ROLE('creator');
#52=CC_DESIGN_PERSON_AND_ORGANIZATION_ASSIGNMENT(#50,#51,(#28,#1));
#53=ADVANCED_FACE('',(#467,#469),#471,.F.);
#54=COLOUR_RGB('',0.564705882352941,0.564705882352941,0.564705882352941);
#55=FILL_AREA_STYLE_COLOUR('',#54);
#56=FILL_AREA_STYLE($,(#55));
#57=SURFACE_STYLE_FILL_AREA(#56);
#58=SURFACE_SIDE_STYLE('',(#57));
#59=SURFACE_STYLE_USAGE(.BOTH.,#58);
#60=PRESENTATION_STYLE_ASSIGNMENT((#59));
#61=STYLED_ITEM('',(#60),#53);
#62=ADVANCED_FACE('',(#476),#478,.F.);
#63=COLOUR_RGB('',0.564705882352941,0.564705882352941,0.564705882352941);
#64=FILL_AREA_STYLE_COLOUR('',#63);
#65=FILL_AREA_STYLE($,(#64));
#66=SURFACE_STYLE_FILL_AREA(#65);
#67=SURFACE_SIDE_STYLE('',(#66));
#68=SURFACE_STYLE_USAGE(.BOTH.,#67);
#69=PRESENTATION_STYLE_ASSIGNMENT((#68));
#70=STYLED_ITEM('',(#69),#62);
#71=ADVANCED_FACE('',(#483),#485,.F.);
#72=COLOUR_RGB('',0.564705882352941,0.564705882352941,0.564705882352941);
#73=FILL_AREA_STYLE_COLOUR('',#72);
#74=FILL_AREA_STYLE($,(#73));
#75=SURFACE_STYLE_FILL_AREA(#74);
#76=SURFACE_SIDE_STYLE('',(#75));
#77=SURFACE_STYLE_USAGE(.BOTH.,#76);
#78=PRESENTATION_STYLE_ASSIGNMENT((#77));
#79=STYLED_ITEM('',(#78),#71);
#80=ADVANCED_FACE('',(#490,#492),#494,.F.);
#81=COLOUR_RGB('',0.564705882352941,0.564705882352941,0.564705882352941);
#82=FILL_AREA_STYLE_COLOUR('',#81);
#83=FILL_AREA_STYLE($,(#82));
#84=SURFACE_STYLE_FILL_AREA(#83);
#85=SURFACE_SIDE_STYLE('',(#84));
#86=SURFACE_STYLE_USAGE(.BOTH.,#85);
#87=PRESENTATION_STYLE_ASSIGNMENT((#86));
#88=STYLED_ITEM('',(#87),#80);
#89=ADVANCED_FACE('',(#499),#501,.T.);
#90=COLOUR_RGB('',0.564705882352941,0.564705882352941,0.564705882352941);
#91=FILL_AREA_STYLE_COLOUR('',#90);
#92=FILL_AREA_STYLE($,(#91));
#93=SURFACE_STYLE_FILL_AREA(#92);
#94=SURFACE_SIDE_STYLE('',(#93));
#95=SURFACE_STYLE_USAGE(.BOTH.,#94);
#96=PRESENTATION_STYLE_ASSIGNMENT((#95));
#97=STYLED_ITEM('',(#96),#89);
#98=ADVANCED_FACE('',(#506),#508,.T.);
#99=COLOUR_RGB('',0.564705882352941,0.564705882352941,0.564705882352941);
#100=FILL_AREA_STYLE_COLOUR('',#99);
#101=FILL_AREA_STYLE($,(#100));
#102=SURFACE_STYLE_FILL_AREA(#101);
#103=SURFACE_SIDE_STYLE('',(#102));
#104=SURFACE_STYLE_USAGE(.BOTH.,#103);
#105=PRESENTATION_STYLE_ASSIGNMENT((#104));
#106=STYLED_ITEM('',(#105),#98);
#107=ADVANCED_FACE('',(#513),#515,.F.);
#108=COLOUR_RGB('',0.564705882352941,0.564705882352941,0.564705882352941);
#109=FILL_AREA_STYLE_COLOUR('',#108);
#110=FILL_AREA_STYLE($,(#109));
#111=SURFACE_STYLE_FILL_AREA(#110);
#112=SURFACE_SIDE_STYLE('',(#111));
#113=SURFACE_STYLE_USAGE(.BOTH.,#112);
#114=PRESENTATION_STYLE_ASSIGNMENT((#113));
#115=STYLED_ITEM('',(#114),#107);
#116=ADVANCED_FACE('',(#520),#522,.T.);
#117=COLOUR_RGB('',0.564705882352941,0.564705882352941,0.564705882352941);
#118=FILL_AREA_STYLE_COLOUR('',#117);
#119=FILL_AREA_STYLE($,(#118));
#120=SURFACE_STYLE_FILL_AREA(#119);
#121=SURFACE_SIDE_STYLE('',(#120));
#122=SURFACE_STYLE_USAGE(.BOTH.,#121);
#123=PRESENTATION_STYLE_ASSIGNMENT((#122));
#124=STYLED_ITEM('',(#123),#116);
#125=ADVANCED_FACE('',(#527),#529,.T.);
#126=COLOUR_RGB('',0.564705882352941,0.564705882352941,0.564705882352941);
#127=FILL_AREA_STYLE_COLOUR('',#126);
#128=FILL_AREA_STYLE($,(#127));
#129=SURFACE_STYLE_FILL_AREA(#128);
#130=SURFACE_SIDE_STYLE('',(#129));
#131=SURFACE_STYLE_USAGE(.BOTH.,#130);
#132=PRESENTATION_STYLE_ASSIGNMENT((#131));
#133=STYLED_ITEM('',(#132),#125);
#134=ADVANCED_FACE('',(#534),#536,.T.);
#135=COLOUR_RGB('',0.564705882352941,0.564705882352941,0.564705882352941);
#136=FILL_AREA_STYLE_COLOUR('',#135);
#137=FILL_AREA_STYLE($,(#136));
#138=SURFACE_STYLE_FILL_AREA(#137);
#139=SURFACE_SIDE_STYLE('',(#138));
#140=SURFACE_STYLE_USAGE(.BOTH.,#139);
#141=PRESENTATION_STYLE_ASSIGNMENT((#140));
#142=STYLED_ITEM('',(#141),#134);
#143=ADVANCED_FACE('',(#541),#543,.F.);
#144=COLOUR_RGB('',0.564705882352941,0.564705882352941,0.564705882352941);
#145=FILL_AREA_STYLE_COLOUR('',#144);
#146=FILL_AREA_STYLE($,(#145));
#147=SURFACE_STYLE_FILL_AREA(#146);
#148=SURFACE_SIDE_STYLE('',(#147));
#149=SURFACE_STYLE_USAGE(.BOTH.,#148);
#150=PRESENTATION_STYLE_ASSIGNMENT((#149));
#151=STYLED_ITEM('',(#150),#143);
#152=ADVANCED_FACE('',(#548),#550,.T.);
#153=COLOUR_RGB('',0.564705882352941,0.564705882352941,0.564705882352941);
#154=FILL_AREA_STYLE_COLOUR('',#153);
#155=FILL_AREA_STYLE($,(#154));
#156=SURFACE_STYLE_FILL_AREA(#155);
#157=SURFACE_SIDE_STYLE('',(#156));
#158=SURFACE_STYLE_USAGE(.BOTH.,#157);
#159=PRESENTATION_STYLE_ASSIGNMENT((#158));
#160=STYLED_ITEM('',(#159),#152);
#161=ADVANCED_FACE('',(#555),#557,.T.);
#162=COLOUR_RGB('',0.564705882352941,0.564705882352941,0.564705882352941);
#163=FILL_AREA_STYLE_COLOUR('',#162);
#164=FILL_AREA_STYLE($,(#163));
#165=SURFACE_STYLE_FILL_AREA(#164);
#166=SURFACE_SIDE_STYLE('',(#165));
#167=SURFACE_STYLE_USAGE(.BOTH.,#166);
#168=PRESENTATION_STYLE_ASSIGNMENT((#167));
#169=STYLED_ITEM('',(#168),#161);
#170=ADVANCED_FACE('',(#562),#564,.T.);
#171=COLOUR_RGB('',0.564705882352941,0.564705882352941,0.564705882352941);
#172=FILL_AREA_STYLE_COLOUR('',#171);
#173=FILL_AREA_STYLE($,(#172));
#174=SURFACE_STYLE_FILL_AREA(#173);
#175=SURFACE_SIDE_STYLE('',(#174));
#176=SURFACE_STYLE_USAGE(.BOTH.,#175);
#177=PRESENTATION_STYLE_ASSIGNMENT((#176));
#178=STYLED_ITEM('',(#177),#170);
#179=ADVANCED_FACE('',(#569),#571,.F.);
#180=COLOUR_RGB('',0.564705882352941,0.564705882352941,0.564705882352941);
#181=FILL_AREA_STYLE_COLOUR('',#180);
#182=FILL_AREA_STYLE($,(#181));
#183=SURFACE_STYLE_FILL_AREA(#182);
#184=SURFACE_SIDE_STYLE('',(#183));
#185=SURFACE_STYLE_USAGE(.BOTH.,#184);
#186=PRESENTATION_STYLE_ASSIGNMENT((#185));
#187=STYLED_ITEM('',(#186),#179);
#188=ADVANCED_FACE('',(#576),#578,.T.);
#189=COLOUR_RGB('',0.564705882352941,0.564705882352941,0.564705882352941);
#190=FILL_AREA_STYLE_COLOUR('',#189);
#191=FILL_AREA_STYLE($,(#190));
#192=SURFACE_STYLE_FILL_AREA(#191);
#193=SURFACE_SIDE_STYLE('',(#192));
#194=SURFACE_STYLE_USAGE(.BOTH.,#193);
#195=PRESENTATION_STYLE_ASSIGNMENT((#194));
#196=STYLED_ITEM('',(#195),#188);
#197=ADVANCED_FACE('',(#583),#585,.T.);
#198=COLOUR_RGB('',0.564705882352941,0.564705882352941,0.564705882352941);
#199=FILL_AREA_STYLE_COLOUR('',#198);
#200=FILL_AREA_STYLE($,(#199));
#201=SURFACE_STYLE_FILL_AREA(#200);
#202=SURFACE_SIDE_STYLE('',(#201));
#203=SURFACE_STYLE_USAGE(.BOTH.,#202);
#204=PRESENTATION_STYLE_ASSIGNMENT((#203));
#205=STYLED_ITEM('',(#204),#197);
#206=ADVANCED_FACE('',(#590),#592,.T.);
#207=COLOUR_RGB('',0.564705882352941,0.564705882352941,0.564705882352941);
#208=FILL_AREA_STYLE_COLOUR('',#207);
#209=FILL_AREA_STYLE($,(#208));
#210=SURFACE_STYLE_FILL_AREA(#209);
#211=SURFACE_SIDE_STYLE('',(#210));
#212=SURFACE_STYLE_USAGE(.BOTH.,#211);
#213=PRESENTATION_STYLE_ASSIGNMENT((#212));
#214=STYLED_ITEM('',(#213),#206);
#215=ADVANCED_FACE('',(#597),#599,.F.);
#216=COLOUR_RGB('',0.564705882352941,0.564705882352941,0.564705882352941);
#217=FILL_AREA_STYLE_COLOUR('',#216);
#218=FILL_AREA_STYLE($,(#217));
#219=SURFACE_STYLE_FILL_AREA(#218);
#220=SURFACE_SIDE_STYLE('',(#219));
#221=SURFACE_STYLE_USAGE(.BOTH.,#220);
#222=PRESENTATION_STYLE_ASSIGNMENT((#221));
#223=STYLED_ITEM('',(#222),#215);
#224=ADVANCED_FACE('',(#604),#606,.T.);
#225=COLOUR_RGB('',0.564705882352941,0.564705882352941,0.564705882352941);
#226=FILL_AREA_STYLE_COLOUR('',#225);
#227=FILL_AREA_STYLE($,(#226));
#228=SURFACE_STYLE_FILL_AREA(#227);
#229=SURFACE_SIDE_STYLE('',(#228));
#230=SURFACE_STYLE_USAGE(.BOTH.,#229);
#231=PRESENTATION_STYLE_ASSIGNMENT((#230));
#232=STYLED_ITEM('',(#231),#224);
#233=ADVANCED_FACE('',(#611),#613,.T.);
#234=COLOUR_RGB('',0.564705882352941,0.564705882352941,0.564705882352941);
#235=FILL_AREA_STYLE_COLOUR('',#234);
#236=FILL_AREA_STYLE($,(#235));
#237=SURFACE_STYLE_FILL_AREA(#236);
#238=SURFACE_SIDE_STYLE('',(#237));
#239=SURFACE_STYLE_USAGE(.BOTH.,#238);
#240=PRESENTATION_STYLE_ASSIGNMENT((#239));
#241=STYLED_ITEM('',(#240),#233);
#242=ADVANCED_FACE('',(#618),#620,.T.);
#243=COLOUR_RGB('',0.564705882352941,0.564705882352941,0.564705882352941);
#244=FILL_AREA_STYLE_COLOUR('',#243);
#245=FILL_AREA_STYLE($,(#244));
#246=SURFACE_STYLE_FILL_AREA(#245);
#247=SURFACE_SIDE_STYLE('',(#246));
#248=SURFACE_STYLE_USAGE(.BOTH.,#247);
#249=PRESENTATION_STYLE_ASSIGNMENT((#248));
#250=STYLED_ITEM('',(#249),#242);
#251=ADVANCED_FACE('',(#625),#627,.F.);
#252=COLOUR_RGB('',0.564705882352941,0.564705882352941,0.564705882352941);
#253=FILL_AREA_STYLE_COLOUR('',#252);
#254=FILL_AREA_STYLE($,(#253));
#255=SURFACE_STYLE_FILL_AREA(#254);
#256=SURFACE_SIDE_STYLE('',(#255));
#257=SURFACE_STYLE_USAGE(.BOTH.,#256);
#258=PRESENTATION_STYLE_ASSIGNMENT((#257));
#259=STYLED_ITEM('',(#258),#251);
#260=ADVANCED_FACE('',(#632),#634,.T.);
#261=COLOUR_RGB('',0.564705882352941,0.564705882352941,0.564705882352941);
#262=FILL_AREA_STYLE_COLOUR('',#261);
#263=FILL_AREA_STYLE($,(#262));
#264=SURFACE_STYLE_FILL_AREA(#263);
#265=SURFACE_SIDE_STYLE('',(#264));
#266=SURFACE_STYLE_USAGE(.BOTH.,#265);
#267=PRESENTATION_STYLE_ASSIGNMENT((#266));
#268=STYLED_ITEM('',(#267),#260);
#269=ADVANCED_FACE('',(#639),#641,.T.);
#270=COLOUR_RGB('',0.564705882352941,0.564705882352941,0.564705882352941);
#271=FILL_AREA_STYLE_COLOUR('',#270);
#272=FILL_AREA_STYLE($,(#271));
#273=SURFACE_STYLE_FILL_AREA(#272);
#274=SURFACE_SIDE_STYLE('',(#273));
#275=SURFACE_STYLE_USAGE(.BOTH.,#274);
#276=PRESENTATION_STYLE_ASSIGNMENT((#275));
#277=STYLED_ITEM('',(#276),#269);
#278=ADVANCED_FACE('',(#646),#648,.T.);
#279=COLOUR_RGB('',0.564705882352941,0.564705882352941,0.564705882352941);
#280=FILL_AREA_STYLE_COLOUR('',#279);
#281=FILL_AREA_STYLE($,(#280));
#282=SURFACE_STYLE_FILL_AREA(#281);
#283=SURFACE_SIDE_STYLE('',(#282));
#284=SURFACE_STYLE_USAGE(.BOTH.,#283);
#285=PRESENTATION_STYLE_ASSIGNMENT((#284));
#286=STYLED_ITEM('',(#285),#278);
#287=ADVANCED_FACE('',(#653),#655,.F.);
#288=COLOUR_RGB('',0.564705882352941,0.564705882352941,0.564705882352941);
#289=FILL_AREA_STYLE_COLOUR('',#288);
#290=FILL_AREA_STYLE($,(#289));
#291=SURFACE_STYLE_FILL_AREA(#290);
#292=SURFACE_SIDE_STYLE('',(#291));
#293=SURFACE_STYLE_USAGE(.BOTH.,#292);
#294=PRESENTATION_STYLE_ASSIGNMENT((#293));
#295=STYLED_ITEM('',(#294),#287);
#296=ADVANCED_FACE('',(#660),#662,.T.);
#297=COLOUR_RGB('',0.564705882352941,0.564705882352941,0.564705882352941);
#298=FILL_AREA_STYLE_COLOUR('',#297);
#299=FILL_AREA_STYLE($,(#298));
#300=SURFACE_STYLE_FILL_AREA(#299);
#301=SURFACE_SIDE_STYLE('',(#300));
#302=SURFACE_STYLE_USAGE(.BOTH.,#301);
#303=PRESENTATION_STYLE_ASSIGNMENT((#302));
#304=STYLED_ITEM('',(#303),#296);
#305=ADVANCED_FACE('',(#667),#669,.T.);
#306=COLOUR_RGB('',0.564705882352941,0.564705882352941,0.564705882352941);
#307=FILL_AREA_STYLE_COLOUR('',#306);
#308=FILL_AREA_STYLE($,(#307));
#309=SURFACE_STYLE_FILL_AREA(#308);
#310=SURFACE_SIDE_STYLE('',(#309));
#311=SURFACE_STYLE_USAGE(.BOTH.,#310);
#312=PRESENTATION_STYLE_ASSIGNMENT((#311));
#313=STYLED_ITEM('',(#312),#305);
#314=ADVANCED_FACE('',(#674),#676,.T.);
#315=COLOUR_RGB('',0.564705882352941,0.564705882352941,0.564705882352941);
#316=FILL_AREA_STYLE_COLOUR('',#315);
#317=FILL_AREA_STYLE($,(#316));
#318=SURFACE_STYLE_FILL_AREA(#317);
#319=SURFACE_SIDE_STYLE('',(#318));
#320=SURFACE_STYLE_USAGE(.BOTH.,#319);
#321=PRESENTATION_STYLE_ASSIGNMENT((#320));
#322=STYLED_ITEM('',(#321),#314);
#323=ADVANCED_FACE('',(#681),#683,.F.);
#324=COLOUR_RGB('',0.564705882352941,0.564705882352941,0.564705882352941);
#325=FILL_AREA_STYLE_COLOUR('',#324);
#326=FILL_AREA_STYLE($,(#325));
#327=SURFACE_STYLE_FILL_AREA(#326);
#328=SURFACE_SIDE_STYLE('',(#327));
#329=SURFACE_STYLE_USAGE(.BOTH.,#328);
#330=PRESENTATION_STYLE_ASSIGNMENT((#329));
#331=STYLED_ITEM('',(#330),#323);
#332=ADVANCED_FACE('',(#688),#690,.T.);
#333=COLOUR_RGB('',0.564705882352941,0.564705882352941,0.564705882352941);
#334=FILL_AREA_STYLE_COLOUR('',#333);
#335=FILL_AREA_STYLE($,(#334));
#336=SURFACE_STYLE_FILL_AREA(#335);
#337=SURFACE_SIDE_STYLE('',(#336));
#338=SURFACE_STYLE_USAGE(.BOTH.,#337);
#339=PRESENTATION_STYLE_ASSIGNMENT((#338));
#340=STYLED_ITEM('',(#339),#332);
#341=ADVANCED_FACE('',(#695),#697,.T.);
#342=COLOUR_RGB('',0.564705882352941,0.564705882352941,0.564705882352941);
#343=FILL_AREA_STYLE_COLOUR('',#342);
#344=FILL_AREA_STYLE($,(#343));
#345=SURFACE_STYLE_FILL_AREA(#344);
#346=SURFACE_SIDE_STYLE('',(#345));
#347=SURFACE_STYLE_USAGE(.BOTH.,#346);
#348=PRESENTATION_STYLE_ASSIGNMENT((#347));
#349=STYLED_ITEM('',(#348),#341);
#350=ADVANCED_FACE('',(#702),#704,.T.);
#351=COLOUR_RGB('',0.564705882352941,0.564705882352941,0.564705882352941);
#352=FILL_AREA_STYLE_COLOUR('',#351);
#353=FILL_AREA_STYLE($,(#352));
#354=SURFACE_STYLE_FILL_AREA(#353);
#355=SURFACE_SIDE_STYLE('',(#354));
#356=SURFACE_STYLE_USAGE(.BOTH.,#355);
#357=PRESENTATION_STYLE_ASSIGNMENT((#356));
#358=STYLED_ITEM('',(#357),#350);
#359=ADVANCED_FACE('',(#709),#711,.F.);
#360=COLOUR_RGB('',0.564705882352941,0.564705882352941,0.564705882352941);
#361=FILL_AREA_STYLE_COLOUR('',#360);
#362=FILL_AREA_STYLE($,(#361));
#363=SURFACE_STYLE_FILL_AREA(#362);
#364=SURFACE_SIDE_STYLE('',(#363));
#365=SURFACE_STYLE_USAGE(.BOTH.,#364);
#366=PRESENTATION_STYLE_ASSIGNMENT((#365));
#367=STYLED_ITEM('',(#366),#359);
#368=ADVANCED_FACE('',(#716),#718,.T.);
#369=COLOUR_RGB('',0.564705882352941,0.564705882352941,0.564705882352941);
#370=FILL_AREA_STYLE_COLOUR('',#369);
#371=FILL_AREA_STYLE($,(#370));
#372=SURFACE_STYLE_FILL_AREA(#371);
#373=SURFACE_SIDE_STYLE('',(#372));
#374=SURFACE_STYLE_USAGE(.BOTH.,#373);
#375=PRESENTATION_STYLE_ASSIGNMENT((#374));
#376=STYLED_ITEM('',(#375),#368);
#377=ADVANCED_FACE('',(#723),#725,.T.);
#378=COLOUR_RGB('',0.564705882352941,0.564705882352941,0.564705882352941);
#379=FILL_AREA_STYLE_COLOUR('',#378);
#380=FILL_AREA_STYLE($,(#379));
#381=SURFACE_STYLE_FILL_AREA(#380);
#382=SURFACE_SIDE_STYLE('',(#381));
#383=SURFACE_STYLE_USAGE(.BOTH.,#382);
#384=PRESENTATION_STYLE_ASSIGNMENT((#383));
#385=STYLED_ITEM('',(#384),#377);
#386=ADVANCED_FACE('',(#730),#732,.T.);
#387=COLOUR_RGB('',0.564705882352941,0.564705882352941,0.564705882352941);
#388=FILL_AREA_STYLE_COLOUR('',#387);
#389=FILL_AREA_STYLE($,(#388));
#390=SURFACE_STYLE_FILL_AREA(#389);
#391=SURFACE_SIDE_STYLE('',(#390));
#392=SURFACE_STYLE_USAGE(.BOTH.,#391);
#393=PRESENTATION_STYLE_ASSIGNMENT((#392));
#394=STYLED_ITEM('',(#393),#386);
#395=ADVANCED_FACE('',(#737),#739,.F.);
#396=COLOUR_RGB('',0.564705882352941,0.564705882352941,0.564705882352941);
#397=FILL_AREA_STYLE_COLOUR('',#396);
#398=FILL_AREA_STYLE($,(#397));
#399=SURFACE_STYLE_FILL_AREA(#398);
#400=SURFACE_SIDE_STYLE('',(#399));
#401=SURFACE_STYLE_USAGE(.BOTH.,#400);
#402=PRESENTATION_STYLE_ASSIGNMENT((#401));
#403=STYLED_ITEM('',(#402),#395);
#404=ADVANCED_FACE('',(#744),#746,.T.);
#405=COLOUR_RGB('',0.564705882352941,0.564705882352941,0.564705882352941);
#406=FILL_AREA_STYLE_COLOUR('',#405);
#407=FILL_AREA_STYLE($,(#406));
#408=SURFACE_STYLE_FILL_AREA(#407);
#409=SURFACE_SIDE_STYLE('',(#408));
#410=SURFACE_STYLE_USAGE(.BOTH.,#409);
#411=PRESENTATION_STYLE_ASSIGNMENT((#410));
#412=STYLED_ITEM('',(#411),#404);
#413=ADVANCED_FACE('',(#751),#753,.T.);
#414=COLOUR_RGB('',0.564705882352941,0.564705882352941,0.564705882352941);
#415=FILL_AREA_STYLE_COLOUR('',#414);
#416=FILL_AREA_STYLE($,(#415));
#417=SURFACE_STYLE_FILL_AREA(#416);
#418=SURFACE_SIDE_STYLE('',(#417));
#419=SURFACE_STYLE_USAGE(.BOTH.,#418);
#420=PRESENTATION_STYLE_ASSIGNMENT((#419));
#421=STYLED_ITEM('',(#420),#413);
#422=ADVANCED_FACE('',(#758),#760,.T.);
#423=COLOUR_RGB('',0.564705882352941,0.564705882352941,0.564705882352941);
#424=FILL_AREA_STYLE_COLOUR('',#423);
#425=FILL_AREA_STYLE($,(#424));
#426=SURFACE_STYLE_FILL_AREA(#425);
#427=SURFACE_SIDE_STYLE('',(#426));
#428=SURFACE_STYLE_USAGE(.BOTH.,#427);
#429=PRESENTATION_STYLE_ASSIGNMENT((#428));
#430=STYLED_ITEM('',(#429),#422);
#431=ADVANCED_FACE('',(#765),#767,.F.);
#432=COLOUR_RGB('',0.564705882352941,0.564705882352941,0.564705882352941);
#433=FILL_AREA_STYLE_COLOUR('',#432);
#434=FILL_AREA_STYLE($,(#433));
#435=SURFACE_STYLE_FILL_AREA(#434);
#436=SURFACE_SIDE_STYLE('',(#435));
#437=SURFACE_STYLE_USAGE(.BOTH.,#436);
#438=PRESENTATION_STYLE_ASSIGNMENT((#437));
#439=STYLED_ITEM('',(#438),#431);
#440=ADVANCED_FACE('',(#772),#774,.T.);
#441=COLOUR_RGB('',0.564705882352941,0.564705882352941,0.564705882352941);
#442=FILL_AREA_STYLE_COLOUR('',#441);
#443=FILL_AREA_STYLE($,(#442));
#444=SURFACE_STYLE_FILL_AREA(#443);
#445=SURFACE_SIDE_STYLE('',(#444));
#446=SURFACE_STYLE_USAGE(.BOTH.,#445);
#447=PRESENTATION_STYLE_ASSIGNMENT((#446));
#448=STYLED_ITEM('',(#447),#440);
#449=ADVANCED_FACE('',(#779,#781),#783,.F.);
#450=COLOUR_RGB('',0.564705882352941,0.564705882352941,0.564705882352941);
#451=FILL_AREA_STYLE_COLOUR('',#450);
#452=FILL_AREA_STYLE($,(#451));
#453=SURFACE_STYLE_FILL_AREA(#452);
#454=SURFACE_SIDE_STYLE('',(#453));
#455=SURFACE_STYLE_USAGE(.BOTH.,#454);
#456=PRESENTATION_STYLE_ASSIGNMENT((#455));
#457=STYLED_ITEM('',(#456),#449);
#458=ADVANCED_FACE('',(#788,#790),#792,.T.);
#459=COLOUR_RGB('',0.564705882352941,0.564705882352941,0.564705882352941);
#460=FILL_AREA_STYLE_COLOUR('',#459);
#461=FILL_AREA_STYLE($,(#460));
#462=SURFACE_STYLE_FILL_AREA(#461);
#463=SURFACE_SIDE_STYLE('',(#462));
#464=SURFACE_STYLE_USAGE(.BOTH.,#463);
#465=PRESENTATION_STYLE_ASSIGNMENT((#464));
#466=STYLED_ITEM('',(#465),#458);
#467=FACE_BOUND('',#468,.T.);
#468=EDGE_LOOP('',(#797,#798,#799,#800,#801,#802,#803,#804,#805,#806,#807,#808,#809,
#810,#811,#812,#813,#814,#815,#816,#817,#818,#819,#820,#821,#822,#823,#824,#825,
#826,#827,#828,#829,#830,#831,#832,#833,#834,#835,#836));
#469=FACE_BOUND('',#470,.T.);
#470=EDGE_LOOP('',(#837));
#471=PLANE('',#472);
#472=AXIS2_PLACEMENT_3D('',#473,#474,#475);
#473=CARTESIAN_POINT('',(0.,0.,0.));
#474=DIRECTION('',(0.,0.,1.));
#475=DIRECTION('',(-1.,1.22464679914735E-16,0.));
#476=FACE_BOUND('',#477,.T.);
#477=EDGE_LOOP('',(#838,#839,#840,#841));
#478=PLANE('',#479);
#479=AXIS2_PLACEMENT_3D('',#480,#481,#482);
#480=CARTESIAN_POINT('',(-2.9630303944392,-0.868148582514095,0.));
#481=DIRECTION('',(-0.64567914400882,-0.76360882851892,0.));
#482=DIRECTION('',(0.76360882851892,-0.64567914400882,0.));
#483=FACE_BOUND('',#484,.T.);
#484=EDGE_LOOP('',(#842,#843,#844,#845));
#485=CYLINDRICAL_SURFACE('',#486,3.05);
#486=AXIS2_PLACEMENT_3D('',#487,#488,#489);
#487=CARTESIAN_POINT('',(-0.039859502917428,0.00223750363377166,0.));
#488=DIRECTION('',(0.,0.,1.));
#489=DIRECTION('',(-0.122117826293109,-0.992515610205425,0.));
#490=FACE_BOUND('',#491,.T.);
#491=EDGE_LOOP('',(#846,#847));
#492=FACE_BOUND('',#493,.T.);
#493=EDGE_LOOP('',(#848));
#494=PLANE('',#495);
#495=AXIS2_PLACEMENT_3D('',#496,#497,#498);
#496=CARTESIAN_POINT('',(0.,0.,1.));
#497=DIRECTION('',(0.,0.,-1.));
#498=DIRECTION('',(-1.,0.,0.));
#499=FACE_BOUND('',#500,.T.);
#500=EDGE_LOOP('',(#849,#850,#851,#852));
#501=CYLINDRICAL_SURFACE('',#502,1.99816159566602);
#502=AXIS2_PLACEMENT_3D('',#503,#504,#505);
#503=CARTESIAN_POINT('',(-6.9541974890948,-19.2058923707591,0.));
#504=DIRECTION('',(0.,0.,1.));
#505=DIRECTION('',(-0.947876645659397,0.318637512878647,0.));
#506=FACE_BOUND('',#507,.T.);
#507=EDGE_LOOP('',(#853,#854,#855,#856));
#508=PLANE('',#509);
#509=AXIS2_PLACEMENT_3D('',#510,#511,#512);
#510=CARTESIAN_POINT('',(-7.3040841517999,-13.9757730906892,0.));
#511=DIRECTION('',(-0.947876645659397,0.318637512878647,0.));
#512=DIRECTION('',(-0.318637512878647,-0.947876645659397,0.));
#513=FACE_BOUND('',#514,.T.);
#514=EDGE_LOOP('',(#857,#858,#859,#860));
#515=CYLINDRICAL_SURFACE('',#516,2.9913597403053);
#516=AXIS2_PLACEMENT_3D('',#517,#518,#519);
#517=CARTESIAN_POINT('',(-10.1395241884011,-13.022613662913,0.));
#518=DIRECTION('',(0.,0.,-1.));
#519=DIRECTION('',(-0.541286439711967,0.840838266365145,0.));
#520=FACE_BOUND('',#521,.T.);
#521=EDGE_LOOP('',(#861,#862,#863,#864));
#522=PLANE('',#523);
#523=AXIS2_PLACEMENT_3D('',#524,#525,#526);
#524=CARTESIAN_POINT('',(-15.8334264674788,-13.1304493264782,0.));
#525=DIRECTION('',(0.541286439711967,-0.840838266365145,0.));
#526=DIRECTION('',(0.840838266365145,0.541286439711967,0.));
#527=FACE_BOUND('',#528,.T.);
#528=EDGE_LOOP('',(#865,#866,#867,#868));
#529=CYLINDRICAL_SURFACE('',#530,1.99816159566602);
#530=AXIS2_PLACEMENT_3D('',#531,#532,#533);
#531=CARTESIAN_POINT('',(-16.915004243566,-11.450318594461,0.));
#532=DIRECTION('',(0.,0.,1.));
#533=DIRECTION('',(-0.57955788401235,0.814931076275244,0.));
#534=FACE_BOUND('',#535,.T.);
#535=EDGE_LOOP('',(#869,#870,#871,#872));
#536=PLANE('',#537);
#537=AXIS2_PLACEMENT_3D('',#538,#539,#540);
#538=CARTESIAN_POINT('',(-14.1238815192439,-7.01340499396448,0.));
#539=DIRECTION('',(-0.579557884012351,0.814931076275243,0.));
#540=DIRECTION('',(-0.814931076275243,-0.579557884012351,0.));
#541=FACE_BOUND('',#542,.T.);
#542=EDGE_LOOP('',(#873,#874,#875,#876));
#543=CYLINDRICAL_SURFACE('',#544,2.9913597403053);
#544=AXIS2_PLACEMENT_3D('',#545,#546,#547);
#545=CARTESIAN_POINT('',(-15.857547640655,-4.57565298127105,0.));
#546=DIRECTION('',(0.,0.,-1.));
#547=DIRECTION('',(0.0563224039809121,0.998412633538764,0.));
#548=FACE_BOUND('',#549,.T.);
#549=EDGE_LOOP('',(#877,#878,#879,#880));
#550=PLANE('',#551);
#551=AXIS2_PLACEMENT_3D('',#552,#553,#554);
#552=CARTESIAN_POINT('',(-20.527395561454,-1.31610207805864,0.));
#553=DIRECTION('',(-0.0563224039809105,-0.998412633538764,0.));
#554=DIRECTION('',(0.998412633538764,-0.0563224039809105,0.));
#555=FACE_BOUND('',#556,.T.);
#556=EDGE_LOOP('',(#881,#882,#883,#884));
#557=CYLINDRICAL_SURFACE('',#558,1.99816159566602);
#558=AXIS2_PLACEMENT_3D('',#559,#560,#561);
#559=CARTESIAN_POINT('',(-20.4148542968437,0.678887702906286,0.));
#560=DIRECTION('',(0.,0.,1.));
#561=DIRECTION('',(0.0101322908794432,0.99994866702323,0.));
#562=FACE_BOUND('',#563,.T.);
#563=EDGE_LOOP('',(#885,#886,#887,#888));
#564=PLANE('',#565);
#565=AXIS2_PLACEMENT_3D('',#566,#567,#568);
#566=CARTESIAN_POINT('',(-15.5488361994133,2.62784543358641,0.));
#567=DIRECTION('',(0.0101322908794442,0.99994866702323,0.));
#568=DIRECTION('',(-0.99994866702323,0.0101322908794442,0.));
#569=FACE_BOUND('',#570,.T.);
#570=EDGE_LOOP('',(#889,#890,#891,#892));
#571=CYLINDRICAL_SURFACE('',#572,2.9913597403053);
#572=AXIS2_PLACEMENT_3D('',#573,#574,#575);
#573=CARTESIAN_POINT('',(-15.5185268723995,5.61905161849165,0.));
#574=DIRECTION('',(0.,0.,-1.));
#575=DIRECTION('',(0.632418003681184,0.774627309497868,0.));
#576=FACE_BOUND('',#577,.T.);
#577=EDGE_LOOP('',(#893,#894,#895,#896));
#578=PLANE('',#579);
#579=AXIS2_PLACEMENT_3D('',#580,#581,#582);
#580=CARTESIAN_POINT('',(-17.3805972514675,11.000951431515,0.));
#581=DIRECTION('',(-0.632418003681183,-0.774627309497869,0.));
#582=DIRECTION('',(0.774627309497869,-0.632418003681183,0.));
#583=FACE_BOUND('',#584,.T.);
#584=EDGE_LOOP('',(#897,#898,#899,#900));
#585=CYLINDRICAL_SURFACE('',#586,1.99816159566602);
#586=AXIS2_PLACEMENT_3D('',#587,#588,#589);
#587=CARTESIAN_POINT('',(-16.116923884104,12.5487819723077,0.));
#588=DIRECTION('',(0.,0.,1.));
#589=DIRECTION('',(0.595952275039192,0.803019853973494,0.));
#590=FACE_BOUND('',#591,.T.);
#591=EDGE_LOOP('',(#901,#902,#903,#904));
#592=PLANE('',#593);
#593=AXIS2_PLACEMENT_3D('',#594,#595,#596);
#594=CARTESIAN_POINT('',(-11.0346639369115,11.2653482226885,0.));
#595=DIRECTION('',(0.595952275039192,0.803019853973493,0.));
#596=DIRECTION('',(-0.803019853973493,0.595952275039192,0.));
#597=FACE_BOUND('',#598,.T.);
#598=EDGE_LOOP('',(#905,#906,#907,#908));
#599=CYLINDRICAL_SURFACE('',#600,2.9913597403053);
#600=AXIS2_PLACEMENT_3D('',#601,#602,#603);
#601=CARTESIAN_POINT('',(-9.25195629421593,13.6674694845306,0.));
#602=DIRECTION('',(0.,0.,-1.));
#603=DIRECTION('',(0.9669514210726,0.254960681842671,0.));
#604=FACE_BOUND('',#605,.T.);
#605=EDGE_LOOP('',(#909,#910,#911,#912));
#606=PLANE('',#607);
#607=AXIS2_PLACEMENT_3D('',#608,#609,#610);
#608=CARTESIAN_POINT('',(-7.59500153619341,19.1160154028367,0.));
#609=DIRECTION('',(-0.9669514210726,-0.254960681842672,0.));
#610=DIRECTION('',(0.254960681842672,-0.9669514210726,0.));
#611=FACE_BOUND('',#612,.T.);
#612=EDGE_LOOP('',(#913,#914,#915,#916));
#613=CYLINDRICAL_SURFACE('',#614,1.99816159566602);
#614=AXIS2_PLACEMENT_3D('',#615,#616,#617);
#615=CARTESIAN_POINT('',(-5.66287634173146,19.6254680456996,0.));
#616=DIRECTION('',(0.,0.,1.));
#617=DIRECTION('',(0.954138745806794,0.299364750346861,0.));
#618=FACE_BOUND('',#619,.T.);
#619=EDGE_LOOP('',(#917,#918,#919,#920));
#620=PLANE('',#621);
#621=AXIS2_PLACEMENT_3D('',#622,#623,#624);
#622=CARTESIAN_POINT('',(-2.30562510494226,15.5998708858268,0.));
#623=DIRECTION('',(0.954138745806794,0.29936475034686,0.));
#624=DIRECTION('',(-0.29936475034686,0.954138745806794,0.));
#625=FACE_BOUND('',#626,.T.);
#626=EDGE_LOOP('',(#921,#922,#923,#924));
#627=CYLINDRICAL_SURFACE('',#628,2.9913597403053);
#628=AXIS2_PLACEMENT_3D('',#629,#630,#631);
#629=CARTESIAN_POINT('',(0.548547125929577,16.4953785476809,0.));
#630=DIRECTION('',(0.,0.,-1.));
#631=DIRECTION('',(0.932142261084294,-0.362092260481578,0.));
#632=FACE_BOUND('',#633,.T.);
#633=EDGE_LOOP('',(#925,#926,#927,#928));
#634=PLANE('',#635);
#635=AXIS2_PLACEMENT_3D('',#636,#637,#638);
#636=CARTESIAN_POINT('',(5.09162662129888,19.9294112197413,0.));
#637=DIRECTION('',(-0.932142261084295,0.362092260481578,0.));
#638=DIRECTION('',(-0.362092260481578,-0.932142261084295,0.));
#639=FACE_BOUND('',#640,.T.);
#640=EDGE_LOOP('',(#929,#930,#931,#932));
#641=CYLINDRICAL_SURFACE('',#642,1.99816159566602);
#642=AXIS2_PLACEMENT_3D('',#643,#644,#645);
#643=CARTESIAN_POINT('',(6.9541974890948,19.2058923707591,0.));
#644=DIRECTION('',(0.,0.,1.));
#645=DIRECTION('',(0.947876645659397,-0.318637512878646,0.));
#646=FACE_BOUND('',#647,.T.);
#647=EDGE_LOOP('',(#933,#934,#935,#936));
#648=PLANE('',#649);
#649=AXIS2_PLACEMENT_3D('',#650,#651,#652);
#650=CARTESIAN_POINT('',(7.3040841517999,13.9757730906892,0.));
#651=DIRECTION('',(0.947876645659397,-0.318637512878647,0.));
#652=DIRECTION('',(0.318637512878647,0.947876645659397,0.));
#653=FACE_BOUND('',#654,.T.);
#654=EDGE_LOOP('',(#937,#938,#939,#940));
#655=CYLINDRICAL_SURFACE('',#656,2.9913597403053);
#656=AXIS2_PLACEMENT_3D('',#657,#658,#659);
#657=CARTESIAN_POINT('',(10.1395241884011,13.022613662913,0.));
#658=DIRECTION('',(0.,0.,-1.));
#659=DIRECTION('',(0.541286439711967,-0.840838266365145,0.));
#660=FACE_BOUND('',#661,.T.);
#661=EDGE_LOOP('',(#941,#942,#943,#944));
#662=PLANE('',#663);
#663=AXIS2_PLACEMENT_3D('',#664,#665,#666);
#664=CARTESIAN_POINT('',(15.8334264674788,13.1304493264782,0.));
#665=DIRECTION('',(-0.541286439711967,0.840838266365145,0.));
#666=DIRECTION('',(-0.840838266365145,-0.541286439711967,0.));
#667=FACE_BOUND('',#668,.T.);
#668=EDGE_LOOP('',(#945,#946,#947,#948));
#669=CYLINDRICAL_SURFACE('',#670,1.99816159566602);
#670=AXIS2_PLACEMENT_3D('',#671,#672,#673);
#671=CARTESIAN_POINT('',(16.915004243566,11.450318594461,0.));
#672=DIRECTION('',(0.,0.,1.));
#673=DIRECTION('',(0.579557884012353,-0.814931076275242,0.));
#674=FACE_BOUND('',#675,.T.);
#675=EDGE_LOOP('',(#949,#950,#951,#952));
#676=PLANE('',#677);
#677=AXIS2_PLACEMENT_3D('',#678,#679,#680);
#678=CARTESIAN_POINT('',(14.1238815192439,7.01340499396448,0.));
#679=DIRECTION('',(0.579557884012351,-0.814931076275243,0.));
#680=DIRECTION('',(0.814931076275243,0.579557884012351,0.));
#681=FACE_BOUND('',#682,.T.);
#682=EDGE_LOOP('',(#953,#954,#955,#956));
#683=CYLINDRICAL_SURFACE('',#684,2.9913597403053);
#684=AXIS2_PLACEMENT_3D('',#685,#686,#687);
#685=CARTESIAN_POINT('',(15.857547640655,4.57565298127105,0.));
#686=DIRECTION('',(0.,0.,-1.));
#687=DIRECTION('',(-0.0563224039809115,-0.998412633538764,0.));
#688=FACE_BOUND('',#689,.T.);
#689=EDGE_LOOP('',(#957,#958,#959,#960));
#690=PLANE('',#691);
#691=AXIS2_PLACEMENT_3D('',#692,#693,#694);
#692=CARTESIAN_POINT('',(20.527395561454,1.31610207805864,0.));
#693=DIRECTION('',(0.0563224039809105,0.998412633538764,0.));
#694=DIRECTION('',(-0.998412633538764,0.0563224039809105,0.));
#695=FACE_BOUND('',#696,.T.);
#696=EDGE_LOOP('',(#961,#962,#963,#964));
#697=CYLINDRICAL_SURFACE('',#698,1.99816159566602);
#698=AXIS2_PLACEMENT_3D('',#699,#700,#701);
#699=CARTESIAN_POINT('',(20.4148542968437,-0.678887702906283,0.));
#700=DIRECTION('',(0.,0.,1.));
#701=DIRECTION('',(-0.0101322908794432,-0.99994866702323,0.));
#702=FACE_BOUND('',#703,.T.);
#703=EDGE_LOOP('',(#965,#966,#967,#968));
#704=PLANE('',#705);
#705=AXIS2_PLACEMENT_3D('',#706,#707,#708);
#706=CARTESIAN_POINT('',(15.5488361994133,-2.62784543358641,0.));
#707=DIRECTION('',(-0.0101322908794442,-0.99994866702323,0.));
#708=DIRECTION('',(0.99994866702323,-0.0101322908794442,0.));
#709=FACE_BOUND('',#710,.T.);
#710=EDGE_LOOP('',(#969,#970,#971,#972));
#711=CYLINDRICAL_SURFACE('',#712,2.9913597403053);
#712=AXIS2_PLACEMENT_3D('',#713,#714,#715);
#713=CARTESIAN_POINT('',(15.5185268723995,-5.61905161849165,0.));
#714=DIRECTION('',(0.,0.,-1.));
#715=DIRECTION('',(-0.632418003681184,-0.774627309497868,0.));
#716=FACE_BOUND('',#717,.T.);
#717=EDGE_LOOP('',(#973,#974,#975,#976));
#718=PLANE('',#719);
#719=AXIS2_PLACEMENT_3D('',#720,#721,#722);
#720=CARTESIAN_POINT('',(17.3805972514675,-11.000951431515,0.));
#721=DIRECTION('',(0.632418003681183,0.774627309497869,0.));
#722=DIRECTION('',(-0.774627309497869,0.632418003681183,0.));
#723=FACE_BOUND('',#724,.T.);
#724=EDGE_LOOP('',(#977,#978,#979,#980));
#725=CYLINDRICAL_SURFACE('',#726,1.99816159566602);
#726=AXIS2_PLACEMENT_3D('',#727,#728,#729);
#727=CARTESIAN_POINT('',(16.116923884104,-12.5487819723077,0.));
#728=DIRECTION('',(0.,0.,1.));
#729=DIRECTION('',(-0.595952275039192,-0.803019853973494,0.));
#730=FACE_BOUND('',#731,.T.);
#731=EDGE_LOOP('',(#981,#982,#983,#984));
#732=PLANE('',#733);
#733=AXIS2_PLACEMENT_3D('',#734,#735,#736);
#734=CARTESIAN_POINT('',(11.0346639369115,-11.2653482226885,0.));
#735=DIRECTION('',(-0.595952275039192,-0.803019853973494,0.));
#736=DIRECTION('',(0.803019853973494,-0.595952275039192,0.));
#737=FACE_BOUND('',#738,.T.);
#738=EDGE_LOOP('',(#985,#986,#987,#988));
#739=CYLINDRICAL_SURFACE('',#740,2.9913597403053);
#740=AXIS2_PLACEMENT_3D('',#741,#742,#743);
#741=CARTESIAN_POINT('',(9.25195629421593,-13.6674694845306,0.));
#742=DIRECTION('',(0.,0.,-1.));
#743=DIRECTION('',(-0.9669514210726,-0.254960681842672,0.));
#744=FACE_BOUND('',#745,.T.);
#745=EDGE_LOOP('',(#989,#990,#991,#992));
#746=PLANE('',#747);
#747=AXIS2_PLACEMENT_3D('',#748,#749,#750);
#748=CARTESIAN_POINT('',(7.59500153619341,-19.1160154028367,0.));
#749=DIRECTION('',(0.9669514210726,0.254960681842672,0.));
#750=DIRECTION('',(-0.254960681842672,0.9669514210726,0.));
#751=FACE_BOUND('',#752,.T.);
#752=EDGE_LOOP('',(#993,#994,#995,#996));
#753=CYLINDRICAL_SURFACE('',#754,1.99816159566602);
#754=AXIS2_PLACEMENT_3D('',#755,#756,#757);
#755=CARTESIAN_POINT('',(5.66287634173147,-19.6254680456996,0.));
#756=DIRECTION('',(0.,0.,1.));
#757=DIRECTION('',(-0.954138745806794,-0.299364750346861,0.));
#758=FACE_BOUND('',#759,.T.);
#759=EDGE_LOOP('',(#997,#998,#999,#1000));
#760=PLANE('',#761);
#761=AXIS2_PLACEMENT_3D('',#762,#763,#764);
#762=CARTESIAN_POINT('',(2.30562510494226,-15.5998708858268,0.));
#763=DIRECTION('',(-0.954138745806794,-0.29936475034686,0.));
#764=DIRECTION('',(0.29936475034686,-0.954138745806794,0.));
#765=FACE_BOUND('',#766,.T.);
#766=EDGE_LOOP('',(#1001,#1002,#1003,#1004));
#767=CYLINDRICAL_SURFACE('',#768,2.9913597403053);
#768=AXIS2_PLACEMENT_3D('',#769,#770,#771);
#769=CARTESIAN_POINT('',(-0.548547125929575,-16.4953785476809,0.));
#770=DIRECTION('',(0.,0.,-1.));
#771=DIRECTION('',(-0.932142261084294,0.362092260481578,0.));
#772=FACE_BOUND('',#773,.T.);
#773=EDGE_LOOP('',(#1005,#1006,#1007,#1008));
#774=PLANE('',#775);
#775=AXIS2_PLACEMENT_3D('',#776,#777,#778);
#776=CARTESIAN_POINT('',(-5.09162662129888,-19.9294112197413,0.));
#777=DIRECTION('',(0.932142261084294,-0.362092260481578,0.));
#778=DIRECTION('',(0.362092260481578,0.932142261084294,0.));
#779=FACE_OUTER_BOUND('',#780,.T.);
#780=EDGE_LOOP('',(#1009));
#781=FACE_OUTER_BOUND('',#782,.T.);
#782=EDGE_LOOP('',(#1010));
#783=CYLINDRICAL_SURFACE('',#784,0.6);
#784=AXIS2_PLACEMENT_3D('',#785,#786,#787);
#785=CARTESIAN_POINT('',(-0.039859502917428,0.00223750363377166,1.));
#786=DIRECTION('',(0.,0.,-1.));
#787=DIRECTION('',(-1.,0.,0.));
#788=FACE_BOUND('',#789,.T.);
#789=EDGE_LOOP('',(#1011,#1012,#1013,#1014,#1015,#1016,#1017,#1018,#1019,#1020,#1021,
#1022,#1023,#1024,#1025,#1026,#1027,#1028,#1029,#1030,#1031,#1032,#1033,#1034,#1035,
#1036,#1037,#1038,#1039,#1040,#1041,#1042,#1043,#1044,#1045,#1046,#1047,#1048,#1049,
#1050));
#790=FACE_BOUND('',#791,.T.);
#791=EDGE_LOOP('',(#1051,#1052));
#792=PLANE('',#793);
#793=AXIS2_PLACEMENT_3D('',#794,#795,#796);
#794=CARTESIAN_POINT('',(0.,0.,6.));
#795=DIRECTION('',(0.,0.,1.));
#796=DIRECTION('',(-1.,1.22464679914735E-16,0.));
#797=ORIENTED_EDGE('',*,*,#1053,.F.);
#798=ORIENTED_EDGE('',*,*,#1054,.F.);
#799=ORIENTED_EDGE('',*,*,#1055,.F.);
#800=ORIENTED_EDGE('',*,*,#1056,.F.);
#801=ORIENTED_EDGE('',*,*,#1057,.F.);
#802=ORIENTED_EDGE('',*,*,#1058,.F.);
#803=ORIENTED_EDGE('',*,*,#1059,.F.);
#804=ORIENTED_EDGE('',*,*,#1060,.F.);
#805=ORIENTED_EDGE('',*,*,#1061,.F.);
#806=ORIENTED_EDGE('',*,*,#1062,.F.);
#807=ORIENTED_EDGE('',*,*,#1063,.F.);
#808=ORIENTED_EDGE('',*,*,#1064,.F.);
#809=ORIENTED_EDGE('',*,*,#1065,.F.);
#810=ORIENTED_EDGE('',*,*,#1066,.F.);
#811=ORIENTED_EDGE('',*,*,#1067,.F.);
#812=ORIENTED_EDGE('',*,*,#1068,.F.);
#813=ORIENTED_EDGE('',*,*,#1069,.F.);
#814=ORIENTED_EDGE('',*,*,#1070,.F.);
#815=ORIENTED_EDGE('',*,*,#1071,.F.);
#816=ORIENTED_EDGE('',*,*,#1072,.F.);
#817=ORIENTED_EDGE('',*,*,#1073,.F.);
#818=ORIENTED_EDGE('',*,*,#1074,.F.);
#819=ORIENTED_EDGE('',*,*,#1075,.F.);
#820=ORIENTED_EDGE('',*,*,#1076,.F.);
#821=ORIENTED_EDGE('',*,*,#1077,.F.);
#822=ORIENTED_EDGE('',*,*,#1078,.F.);
#823=ORIENTED_EDGE('',*,*,#1079,.F.);
#824=ORIENTED_EDGE('',*,*,#1080,.F.);
#825=ORIENTED_EDGE('',*,*,#1081,.F.);
#826=ORIENTED_EDGE('',*,*,#1082,.F.);
#827=ORIENTED_EDGE('',*,*,#1083,.F.);
#828=ORIENTED_EDGE('',*,*,#1084,.F.);
#829=ORIENTED_EDGE('',*,*,#1085,.F.);
#830=ORIENTED_EDGE('',*,*,#1086,.F.);
#831=ORIENTED_EDGE('',*,*,#1087,.F.);
#832=ORIENTED_EDGE('',*,*,#1088,.F.);
#833=ORIENTED_EDGE('',*,*,#1089,.F.);
#834=ORIENTED_EDGE('',*,*,#1090,.F.);
#835=ORIENTED_EDGE('',*,*,#1091,.F.);
#836=ORIENTED_EDGE('',*,*,#1092,.F.);
#837=ORIENTED_EDGE('',*,*,#1093,.T.);
#838=ORIENTED_EDGE('',*,*,#1094,.F.);
#839=ORIENTED_EDGE('',*,*,#1095,.T.);
#840=ORIENTED_EDGE('',*,*,#1096,.F.);
#841=ORIENTED_EDGE('',*,*,#1097,.F.);
#842=ORIENTED_EDGE('',*,*,#1098,.F.);
#843=ORIENTED_EDGE('',*,*,#1097,.T.);
#844=ORIENTED_EDGE('',*,*,#1099,.F.);
#845=ORIENTED_EDGE('',*,*,#1095,.F.);
#846=ORIENTED_EDGE('',*,*,#1098,.T.);
#847=ORIENTED_EDGE('',*,*,#1094,.T.);
#848=ORIENTED_EDGE('',*,*,#1100,.T.);
#849=ORIENTED_EDGE('',*,*,#1053,.T.);
#850=ORIENTED_EDGE('',*,*,#1101,.T.);
#851=ORIENTED_EDGE('',*,*,#1102,.F.);
#852=ORIENTED_EDGE('',*,*,#1103,.F.);
#853=ORIENTED_EDGE('',*,*,#1054,.T.);
#854=ORIENTED_EDGE('',*,*,#1103,.T.);
#855=ORIENTED_EDGE('',*,*,#1104,.F.);
#856=ORIENTED_EDGE('',*,*,#1105,.F.);
#857=ORIENTED_EDGE('',*,*,#1055,.T.);
#858=ORIENTED_EDGE('',*,*,#1105,.T.);
#859=ORIENTED_EDGE('',*,*,#1106,.F.);
#860=ORIENTED_EDGE('',*,*,#1107,.F.);
#861=ORIENTED_EDGE('',*,*,#1056,.T.);
#862=ORIENTED_EDGE('',*,*,#1107,.T.);
#863=ORIENTED_EDGE('',*,*,#1108,.F.);
#864=ORIENTED_EDGE('',*,*,#1109,.F.);
#865=ORIENTED_EDGE('',*,*,#1057,.T.);
#866=ORIENTED_EDGE('',*,*,#1109,.T.);
#867=ORIENTED_EDGE('',*,*,#1110,.F.);
#868=ORIENTED_EDGE('',*,*,#1111,.F.);
#869=ORIENTED_EDGE('',*,*,#1058,.T.);
#870=ORIENTED_EDGE('',*,*,#1111,.T.);
#871=ORIENTED_EDGE('',*,*,#1112,.F.);
#872=ORIENTED_EDGE('',*,*,#1113,.F.);
#873=ORIENTED_EDGE('',*,*,#1059,.T.);
#874=ORIENTED_EDGE('',*,*,#1113,.T.);
#875=ORIENTED_EDGE('',*,*,#1114,.F.);
#876=ORIENTED_EDGE('',*,*,#1115,.F.);
#877=ORIENTED_EDGE('',*,*,#1060,.T.);
#878=ORIENTED_EDGE('',*,*,#1115,.T.);
#879=ORIENTED_EDGE('',*,*,#1116,.F.);
#880=ORIENTED_EDGE('',*,*,#1117,.F.);
#881=ORIENTED_EDGE('',*,*,#1061,.T.);
#882=ORIENTED_EDGE('',*,*,#1117,.T.);
#883=ORIENTED_EDGE('',*,*,#1118,.F.);
#884=ORIENTED_EDGE('',*,*,#1119,.F.);
#885=ORIENTED_EDGE('',*,*,#1062,.T.);
#886=ORIENTED_EDGE('',*,*,#1119,.T.);
#887=ORIENTED_EDGE('',*,*,#1120,.F.);
#888=ORIENTED_EDGE('',*,*,#1121,.F.);
#889=ORIENTED_EDGE('',*,*,#1063,.T.);
#890=ORIENTED_EDGE('',*,*,#1121,.T.);
#891=ORIENTED_EDGE('',*,*,#1122,.F.);
#892=ORIENTED_EDGE('',*,*,#1123,.F.);
#893=ORIENTED_EDGE('',*,*,#1064,.T.);
#894=ORIENTED_EDGE('',*,*,#1123,.T.);
#895=ORIENTED_EDGE('',*,*,#1124,.F.);
#896=ORIENTED_EDGE('',*,*,#1125,.F.);
#897=ORIENTED_EDGE('',*,*,#1065,.T.);
#898=ORIENTED_EDGE('',*,*,#1125,.T.);
#899=ORIENTED_EDGE('',*,*,#1126,.F.);
#900=ORIENTED_EDGE('',*,*,#1127,.F.);
#901=ORIENTED_EDGE('',*,*,#1066,.T.);
#902=ORIENTED_EDGE('',*,*,#1127,.T.);
#903=ORIENTED_EDGE('',*,*,#1128,.F.);
#904=ORIENTED_EDGE('',*,*,#1129,.F.);
#905=ORIENTED_EDGE('',*,*,#1067,.T.);
#906=ORIENTED_EDGE('',*,*,#1129,.T.);
#907=ORIENTED_EDGE('',*,*,#1130,.F.);
#908=ORIENTED_EDGE('',*,*,#1131,.F.);
#909=ORIENTED_EDGE('',*,*,#1068,.T.);
#910=ORIENTED_EDGE('',*,*,#1131,.T.);
#911=ORIENTED_EDGE('',*,*,#1132,.F.);
#912=ORIENTED_EDGE('',*,*,#1133,.F.);
#913=ORIENTED_EDGE('',*,*,#1069,.T.);
#914=ORIENTED_EDGE('',*,*,#1133,.T.);
#915=ORIENTED_EDGE('',*,*,#1134,.F.);
#916=ORIENTED_EDGE('',*,*,#1135,.F.);
#917=ORIENTED_EDGE('',*,*,#1070,.T.);
#918=ORIENTED_EDGE('',*,*,#1135,.T.);
#919=ORIENTED_EDGE('',*,*,#1136,.F.);
#920=ORIENTED_EDGE('',*,*,#1137,.F.);
#921=ORIENTED_EDGE('',*,*,#1071,.T.);
#922=ORIENTED_EDGE('',*,*,#1137,.T.);
#923=ORIENTED_EDGE('',*,*,#1138,.F.);
#924=ORIENTED_EDGE('',*,*,#1139,.F.);
#925=ORIENTED_EDGE('',*,*,#1072,.T.);
#926=ORIENTED_EDGE('',*,*,#1139,.T.);
#927=ORIENTED_EDGE('',*,*,#1140,.F.);
#928=ORIENTED_EDGE('',*,*,#1141,.F.);
#929=ORIENTED_EDGE('',*,*,#1073,.T.);
#930=ORIENTED_EDGE('',*,*,#1141,.T.);
#931=ORIENTED_EDGE('',*,*,#1142,.F.);
#932=ORIENTED_EDGE('',*,*,#1143,.F.);
#933=ORIENTED_EDGE('',*,*,#1074,.T.);
#934=ORIENTED_EDGE('',*,*,#1143,.T.);
#935=ORIENTED_EDGE('',*,*,#1144,.F.);
#936=ORIENTED_EDGE('',*,*,#1145,.F.);
#937=ORIENTED_EDGE('',*,*,#1075,.T.);
#938=ORIENTED_EDGE('',*,*,#1145,.T.);
#939=ORIENTED_EDGE('',*,*,#1146,.F.);
#940=ORIENTED_EDGE('',*,*,#1147,.F.);
#941=ORIENTED_EDGE('',*,*,#1076,.T.);
#942=ORIENTED_EDGE('',*,*,#1147,.T.);
#943=ORIENTED_EDGE('',*,*,#1148,.F.);
#944=ORIENTED_EDGE('',*,*,#1149,.F.);
#945=ORIENTED_EDGE('',*,*,#1077,.T.);
#946=ORIENTED_EDGE('',*,*,#1149,.T.);
#947=ORIENTED_EDGE('',*,*,#1150,.F.);
#948=ORIENTED_EDGE('',*,*,#1151,.F.);
#949=ORIENTED_EDGE('',*,*,#1078,.T.);
#950=ORIENTED_EDGE('',*,*,#1151,.T.);
#951=ORIENTED_EDGE('',*,*,#1152,.F.);
#952=ORIENTED_EDGE('',*,*,#1153,.F.);
#953=ORIENTED_EDGE('',*,*,#1079,.T.);
#954=ORIENTED_EDGE('',*,*,#1153,.T.);
#955=ORIENTED_EDGE('',*,*,#1154,.F.);
#956=ORIENTED_EDGE('',*,*,#1155,.F.);
#957=ORIENTED_EDGE('',*,*,#1080,.T.);
#958=ORIENTED_EDGE('',*,*,#1155,.T.);
#959=ORIENTED_EDGE('',*,*,#1156,.F.);
#960=ORIENTED_EDGE('',*,*,#1157,.F.);
#961=ORIENTED_EDGE('',*,*,#1081,.T.);
#962=ORIENTED_EDGE('',*,*,#1157,.T.);
#963=ORIENTED_EDGE('',*,*,#1158,.F.);
#964=ORIENTED_EDGE('',*,*,#1159,.F.);
#965=ORIENTED_EDGE('',*,*,#1082,.T.);
#966=ORIENTED_EDGE('',*,*,#1159,.T.);
#967=ORIENTED_EDGE('',*,*,#1160,.F.);
#968=ORIENTED_EDGE('',*,*,#1161,.F.);
#969=ORIENTED_EDGE('',*,*,#1083,.T.);
#970=ORIENTED_EDGE('',*,*,#1161,.T.);
#971=ORIENTED_EDGE('',*,*,#1162,.F.);
#972=ORIENTED_EDGE('',*,*,#1163,.F.);
#973=ORIENTED_EDGE('',*,*,#1084,.T.);
#974=ORIENTED_EDGE('',*,*,#1163,.T.);
#975=ORIENTED_EDGE('',*,*,#1164,.F.);
#976=ORIENTED_EDGE('',*,*,#1165,.F.);
#977=ORIENTED_EDGE('',*,*,#1085,.T.);
#978=ORIENTED_EDGE('',*,*,#1165,.T.);
#979=ORIENTED_EDGE('',*,*,#1166,.F.);
#980=ORIENTED_EDGE('',*,*,#1167,.F.);
#981=ORIENTED_EDGE('',*,*,#1086,.T.);
#982=ORIENTED_EDGE('',*,*,#1167,.T.);
#983=ORIENTED_EDGE('',*,*,#1168,.F.);
#984=ORIENTED_EDGE('',*,*,#1169,.F.);
#985=ORIENTED_EDGE('',*,*,#1087,.T.);
#986=ORIENTED_EDGE('',*,*,#1169,.T.);
#987=ORIENTED_EDGE('',*,*,#1170,.F.);
#988=ORIENTED_EDGE('',*,*,#1171,.F.);
#989=ORIENTED_EDGE('',*,*,#1088,.T.);
#990=ORIENTED_EDGE('',*,*,#1171,.T.);
#991=ORIENTED_EDGE('',*,*,#1172,.F.);
#992=ORIENTED_EDGE('',*,*,#1173,.F.);
#993=ORIENTED_EDGE('',*,*,#1089,.T.);
#994=ORIENTED_EDGE('',*,*,#1173,.T.);
#995=ORIENTED_EDGE('',*,*,#1174,.F.);
#996=ORIENTED_EDGE('',*,*,#1175,.F.);
#997=ORIENTED_EDGE('',*,*,#1090,.T.);
#998=ORIENTED_EDGE('',*,*,#1175,.T.);
#999=ORIENTED_EDGE('',*,*,#1176,.F.);
#1000=ORIENTED_EDGE('',*,*,#1177,.F.);
#1001=ORIENTED_EDGE('',*,*,#1091,.T.);
#1002=ORIENTED_EDGE('',*,*,#1177,.T.);
#1003=ORIENTED_EDGE('',*,*,#1178,.F.);
#1004=ORIENTED_EDGE('',*,*,#1179,.F.);
#1005=ORIENTED_EDGE('',*,*,#1092,.T.);
#1006=ORIENTED_EDGE('',*,*,#1179,.T.);
#1007=ORIENTED_EDGE('',*,*,#1180,.F.);
#1008=ORIENTED_EDGE('',*,*,#1101,.F.);
#1009=ORIENTED_EDGE('',*,*,#1100,.F.);
#1010=ORIENTED_EDGE('',*,*,#1093,.F.);
#1011=ORIENTED_EDGE('',*,*,#1180,.T.);
#1012=ORIENTED_EDGE('',*,*,#1178,.T.);
#1013=ORIENTED_EDGE('',*,*,#1176,.T.);
#1014=ORIENTED_EDGE('',*,*,#1174,.T.);
#1015=ORIENTED_EDGE('',*,*,#1172,.T.);
#1016=ORIENTED_EDGE('',*,*,#1170,.T.);
#1017=ORIENTED_EDGE('',*,*,#1168,.T.);
#1018=ORIENTED_EDGE('',*,*,#1166,.T.);
#1019=ORIENTED_EDGE('',*,*,#1164,.T.);
#1020=ORIENTED_EDGE('',*,*,#1162,.T.);
#1021=ORIENTED_EDGE('',*,*,#1160,.T.);
#1022=ORIENTED_EDGE('',*,*,#1158,.T.);
#1023=ORIENTED_EDGE('',*,*,#1156,.T.);
#1024=ORIENTED_EDGE('',*,*,#1154,.T.);
#1025=ORIENTED_EDGE('',*,*,#1152,.T.);
#1026=ORIENTED_EDGE('',*,*,#1150,.T.);
#1027=ORIENTED_EDGE('',*,*,#1148,.T.);
#1028=ORIENTED_EDGE('',*,*,#1146,.T.);
#1029=ORIENTED_EDGE('',*,*,#1144,.T.);
#1030=ORIENTED_EDGE('',*,*,#1142,.T.);
#1031=ORIENTED_EDGE('',*,*,#1140,.T.);
#1032=ORIENTED_EDGE('',*,*,#1138,.T.);
#1033=ORIENTED_EDGE('',*,*,#1136,.T.);
#1034=ORIENTED_EDGE('',*,*,#1134,.T.);
#1035=ORIENTED_EDGE('',*,*,#1132,.T.);
#1036=ORIENTED_EDGE('',*,*,#1130,.T.);
#1037=ORIENTED_EDGE('',*,*,#1128,.T.);
#1038=ORIENTED_EDGE('',*,*,#1126,.T.);
#1039=ORIENTED_EDGE('',*,*,#1124,.T.);
#1040=ORIENTED_EDGE('',*,*,#1122,.T.);
#1041=ORIENTED_EDGE('',*,*,#1120,.T.);
#1042=ORIENTED_EDGE('',*,*,#1118,.T.);
#1043=ORIENTED_EDGE('',*,*,#1116,.T.);
#1044=ORIENTED_EDGE('',*,*,#1114,.T.);
#1045=ORIENTED_EDGE('',*,*,#1112,.T.);
#1046=ORIENTED_EDGE('',*,*,#1110,.T.);
#1047=ORIENTED_EDGE('',*,*,#1108,.T.);
#1048=ORIENTED_EDGE('',*,*,#1106,.T.);
#1049=ORIENTED_EDGE('',*,*,#1104,.T.);
#1050=ORIENTED_EDGE('',*,*,#1102,.T.);
#1051=ORIENTED_EDGE('',*,*,#1096,.T.);
#1052=ORIENTED_EDGE('',*,*,#1099,.T.);
#1053=EDGE_CURVE('',#1181,#1182,#1183,.T.);
#1054=EDGE_CURVE('',#1184,#1181,#1185,.T.);
#1055=EDGE_CURVE('',#1186,#1184,#1187,.T.);
#1056=EDGE_CURVE('',#1188,#1186,#1189,.T.);
#1057=EDGE_CURVE('',#1190,#1188,#1191,.T.);
#1058=EDGE_CURVE('',#1192,#1190,#1193,.T.);
#1059=EDGE_CURVE('',#1194,#1192,#1195,.T.);
#1060=EDGE_CURVE('',#1196,#1194,#1197,.T.);
#1061=EDGE_CURVE('',#1198,#1196,#1199,.T.);
#1062=EDGE_CURVE('',#1200,#1198,#1201,.T.);
#1063=EDGE_CURVE('',#1202,#1200,#1203,.T.);
#1064=EDGE_CURVE('',#1204,#1202,#1205,.T.);
#1065=EDGE_CURVE('',#1206,#1204,#1207,.T.);
#1066=EDGE_CURVE('',#1208,#1206,#1209,.T.);
#1067=EDGE_CURVE('',#1210,#1208,#1211,.T.);
#1068=EDGE_CURVE('',#1212,#1210,#1213,.T.);
#1069=EDGE_CURVE('',#1214,#1212,#1215,.T.);
#1070=EDGE_CURVE('',#1216,#1214,#1217,.T.);
#1071=EDGE_CURVE('',#1218,#1216,#1219,.T.);
#1072=EDGE_CURVE('',#1220,#1218,#1221,.T.);
#1073=EDGE_CURVE('',#1222,#1220,#1223,.T.);
#1074=EDGE_CURVE('',#1224,#1222,#1225,.T.);
#1075=EDGE_CURVE('',#1226,#1224,#1227,.T.);
#1076=EDGE_CURVE('',#1228,#1226,#1229,.T.);
#1077=EDGE_CURVE('',#1230,#1228,#1231,.T.);
#1078=EDGE_CURVE('',#1232,#1230,#1233,.T.);
#1079=EDGE_CURVE('',#1234,#1232,#1235,.T.);
#1080=EDGE_CURVE('',#1236,#1234,#1237,.T.);
#1081=EDGE_CURVE('',#1238,#1236,#1239,.T.);
#1082=EDGE_CURVE('',#1240,#1238,#1241,.T.);
#1083=EDGE_CURVE('',#1242,#1240,#1243,.T.);
#1084=EDGE_CURVE('',#1244,#1242,#1245,.T.);
#1085=EDGE_CURVE('',#1246,#1244,#1247,.T.);
#1086=EDGE_CURVE('',#1248,#1246,#1249,.T.);
#1087=EDGE_CURVE('',#1250,#1248,#1251,.T.);
#1088=EDGE_CURVE('',#1252,#1250,#1253,.T.);
#1089=EDGE_CURVE('',#1254,#1252,#1255,.T.);
#1090=EDGE_CURVE('',#1256,#1254,#1257,.T.);
#1091=EDGE_CURVE('',#1258,#1256,#1259,.T.);
#1092=EDGE_CURVE('',#1182,#1258,#1260,.T.);
#1093=EDGE_CURVE('',#1261,#1261,#1262,.F.);
#1094=EDGE_CURVE('',#1263,#1264,#1265,.T.);
#1095=EDGE_CURVE('',#1263,#1266,#1267,.T.);
#1096=EDGE_CURVE('',#1268,#1266,#1269,.F.);
#1097=EDGE_CURVE('',#1264,#1268,#1270,.T.);
#1098=EDGE_CURVE('',#1264,#1263,#1271,.T.);
#1099=EDGE_CURVE('',#1266,#1268,#1272,.F.);
#1100=EDGE_CURVE('',#1273,#1273,#1274,.T.);
#1101=EDGE_CURVE('',#1182,#1275,#1276,.T.);
#1102=EDGE_CURVE('',#1277,#1275,#1278,.T.);
#1103=EDGE_CURVE('',#1181,#1277,#1279,.T.);
#1104=EDGE_CURVE('',#1280,#1277,#1281,.T.);
#1105=EDGE_CURVE('',#1184,#1280,#1282,.T.);
#1106=EDGE_CURVE('',#1283,#1280,#1284,.T.);
#1107=EDGE_CURVE('',#1186,#1283,#1285,.T.);
#1108=EDGE_CURVE('',#1286,#1283,#1287,.T.);
#1109=EDGE_CURVE('',#1188,#1286,#1288,.T.);
#1110=EDGE_CURVE('',#1289,#1286,#1290,.T.);
#1111=EDGE_CURVE('',#1190,#1289,#1291,.T.);
#1112=EDGE_CURVE('',#1292,#1289,#1293,.T.);
#1113=EDGE_CURVE('',#1192,#1292,#1294,.T.);
#1114=EDGE_CURVE('',#1295,#1292,#1296,.T.);
#1115=EDGE_CURVE('',#1194,#1295,#1297,.T.);
#1116=EDGE_CURVE('',#1298,#1295,#1299,.T.);
#1117=EDGE_CURVE('',#1196,#1298,#1300,.T.);
#1118=EDGE_CURVE('',#1301,#1298,#1302,.T.);
#1119=EDGE_CURVE('',#1198,#1301,#1303,.T.);
#1120=EDGE_CURVE('',#1304,#1301,#1305,.T.);
#1121=EDGE_CURVE('',#1200,#1304,#1306,.T.);
#1122=EDGE_CURVE('',#1307,#1304,#1308,.T.);
#1123=EDGE_CURVE('',#1202,#1307,#1309,.T.);
#1124=EDGE_CURVE('',#1310,#1307,#1311,.T.);
#1125=EDGE_CURVE('',#1204,#1310,#1312,.T.);
#1126=EDGE_CURVE('',#1313,#1310,#1314,.T.);
#1127=EDGE_CURVE('',#1206,#1313,#1315,.T.);
#1128=EDGE_CURVE('',#1316,#1313,#1317,.T.);
#1129=EDGE_CURVE('',#1208,#1316,#1318,.T.);
#1130=EDGE_CURVE('',#1319,#1316,#1320,.T.);
#1131=EDGE_CURVE('',#1210,#1319,#1321,.T.);
#1132=EDGE_CURVE('',#1322,#1319,#1323,.T.);
#1133=EDGE_CURVE('',#1212,#1322,#1324,.T.);
#1134=EDGE_CURVE('',#1325,#1322,#1326,.T.);
#1135=EDGE_CURVE('',#1214,#1325,#1327,.T.);
#1136=EDGE_CURVE('',#1328,#1325,#1329,.T.);
#1137=EDGE_CURVE('',#1216,#1328,#1330,.T.);
#1138=EDGE_CURVE('',#1331,#1328,#1332,.T.);
#1139=EDGE_CURVE('',#1218,#1331,#1333,.T.);
#1140=EDGE_CURVE('',#1334,#1331,#1335,.T.);
#1141=EDGE_CURVE('',#1220,#1334,#1336,.T.);
#1142=EDGE_CURVE('',#1337,#1334,#1338,.T.);
#1143=EDGE_CURVE('',#1222,#1337,#1339,.T.);
#1144=EDGE_CURVE('',#1340,#1337,#1341,.T.);
#1145=EDGE_CURVE('',#1224,#1340,#1342,.T.);
#1146=EDGE_CURVE('',#1343,#1340,#1344,.T.);
#1147=EDGE_CURVE('',#1226,#1343,#1345,.T.);
#1148=EDGE_CURVE('',#1346,#1343,#1347,.T.);
#1149=EDGE_CURVE('',#1228,#1346,#1348,.T.);
#1150=EDGE_CURVE('',#1349,#1346,#1350,.T.);
#1151=EDGE_CURVE('',#1230,#1349,#1351,.T.);
#1152=EDGE_CURVE('',#1352,#1349,#1353,.T.);
#1153=EDGE_CURVE('',#1232,#1352,#1354,.T.);
#1154=EDGE_CURVE('',#1355,#1352,#1356,.T.);
#1155=EDGE_CURVE('',#1234,#1355,#1357,.T.);
#1156=EDGE_CURVE('',#1358,#1355,#1359,.T.);
#1157=EDGE_CURVE('',#1236,#1358,#1360,.T.);
#1158=EDGE_CURVE('',#1361,#1358,#1362,.T.);
#1159=EDGE_CURVE('',#1238,#1361,#1363,.T.);
#1160=EDGE_CURVE('',#1364,#1361,#1365,.T.);
#1161=EDGE_CURVE('',#1240,#1364,#1366,.T.);
#1162=EDGE_CURVE('',#1367,#1364,#1368,.T.);
#1163=EDGE_CURVE('',#1242,#1367,#1369,.T.);
#1164=EDGE_CURVE('',#1370,#1367,#1371,.T.);
#1165=EDGE_CURVE('',#1244,#1370,#1372,.T.);
#1166=EDGE_CURVE('',#1373,#1370,#1374,.T.);
#1167=EDGE_CURVE('',#1246,#1373,#1375,.T.);
#1168=EDGE_CURVE('',#1376,#1373,#1377,.T.);
#1169=EDGE_CURVE('',#1248,#1376,#1378,.T.);
#1170=EDGE_CURVE('',#1379,#1376,#1380,.T.);
#1171=EDGE_CURVE('',#1250,#1379,#1381,.T.);
#1172=EDGE_CURVE('',#1382,#1379,#1383,.T.);
#1173=EDGE_CURVE('',#1252,#1382,#1384,.T.);
#1174=EDGE_CURVE('',#1385,#1382,#1386,.T.);
#1175=EDGE_CURVE('',#1254,#1385,#1387,.T.);
#1176=EDGE_CURVE('',#1388,#1385,#1389,.T.);
#1177=EDGE_CURVE('',#1256,#1388,#1390,.T.);
#1178=EDGE_CURVE('',#1391,#1388,#1392,.T.);
#1179=EDGE_CURVE('',#1258,#1391,#1393,.T.);
#1180=EDGE_CURVE('',#1275,#1391,#1394,.T.);
#1181=VERTEX_POINT('',#1395);
#1182=VERTEX_POINT('',#1396);
#1183=CIRCLE('',#1397,1.99816159566602);
#1184=VERTEX_POINT('',#1401);
#1185=LINE('',#1402,#1403);
#1186=VERTEX_POINT('',#1405);
#1187=CIRCLE('',#1406,2.9913597403053);
#1188=VERTEX_POINT('',#1410);
#1189=LINE('',#1411,#1412);
#1190=VERTEX_POINT('',#1414);
#1191=CIRCLE('',#1415,1.99816159566602);
#1192=VERTEX_POINT('',#1419);
#1193=LINE('',#1420,#1421);
#1194=VERTEX_POINT('',#1423);
#1195=CIRCLE('',#1424,2.9913597403053);
#1196=VERTEX_POINT('',#1428);
#1197=LINE('',#1429,#1430);
#1198=VERTEX_POINT('',#1432);
#1199=CIRCLE('',#1433,1.99816159566602);
#1200=VERTEX_POINT('',#1437);
#1201=LINE('',#1438,#1439);
#1202=VERTEX_POINT('',#1441);
#1203=CIRCLE('',#1442,2.9913597403053);
#1204=VERTEX_POINT('',#1446);
#1205=LINE('',#1447,#1448);
#1206=VERTEX_POINT('',#1450);
#1207=CIRCLE('',#1451,1.99816159566602);
#1208=VERTEX_POINT('',#1455);
#1209=LINE('',#1456,#1457);
#1210=VERTEX_POINT('',#1459);
#1211=CIRCLE('',#1460,2.9913597403053);
#1212=VERTEX_POINT('',#1464);
#1213=LINE('',#1465,#1466);
#1214=VERTEX_POINT('',#1468);
#1215=CIRCLE('',#1469,1.99816159566602);
#1216=VERTEX_POINT('',#1473);
#1217=LINE('',#1474,#1475);
#1218=VERTEX_POINT('',#1477);
#1219=CIRCLE('',#1478,2.9913597403053);
#1220=VERTEX_POINT('',#1482);
#1221=LINE('',#1483,#1484);
#1222=VERTEX_POINT('',#1486);
#1223=CIRCLE('',#1487,1.99816159566602);
#1224=VERTEX_POINT('',#1491);
#1225=LINE('',#1492,#1493);
#1226=VERTEX_POINT('',#1495);
#1227=CIRCLE('',#1496,2.9913597403053);
#1228=VERTEX_POINT('',#1500);
#1229=LINE('',#1501,#1502);
#1230=VERTEX_POINT('',#1504);
#1231=CIRCLE('',#1505,1.99816159566602);
#1232=VERTEX_POINT('',#1509);
#1233=LINE('',#1510,#1511);
#1234=VERTEX_POINT('',#1513);
#1235=CIRCLE('',#1514,2.9913597403053);
#1236=VERTEX_POINT('',#1518);
#1237=LINE('',#1519,#1520);
#1238=VERTEX_POINT('',#1522);
#1239=CIRCLE('',#1523,1.99816159566602);
#1240=VERTEX_POINT('',#1527);
#1241=LINE('',#1528,#1529);
#1242=VERTEX_POINT('',#1531);
#1243=CIRCLE('',#1532,2.9913597403053);
#1244=VERTEX_POINT('',#1536);
#1245=LINE('',#1537,#1538);
#1246=VERTEX_POINT('',#1540);
#1247=CIRCLE('',#1541,1.99816159566602);
#1248=VERTEX_POINT('',#1545);
#1249=LINE('',#1546,#1547);
#1250=VERTEX_POINT('',#1549);
#1251=CIRCLE('',#1550,2.9913597403053);
#1252=VERTEX_POINT('',#1554);
#1253=LINE('',#1555,#1556);
#1254=VERTEX_POINT('',#1558);
#1255=CIRCLE('',#1559,1.99816159566602);
#1256=VERTEX_POINT('',#1563);
#1257=LINE('',#1564,#1565);
#1258=VERTEX_POINT('',#1567);
#1259=CIRCLE('',#1568,2.9913597403053);
#1260=LINE('',#1572,#1573);
#1261=VERTEX_POINT('',#1575);
#1262=CIRCLE('',#1576,0.6);
#1263=VERTEX_POINT('',#1580);
#1264=VERTEX_POINT('',#1581);
#1265=LINE('',#1582,#1583);
#1266=VERTEX_POINT('',#1585);
#1267=LINE('',#1586,#1587);
#1268=VERTEX_POINT('',#1589);
#1269=LINE('',#1590,#1591);
#1270=LINE('',#1593,#1594);
#1271=CIRCLE('',#1596,3.05);
#1272=CIRCLE('',#1600,3.05);
#1273=VERTEX_POINT('',#1604);
#1274=CIRCLE('',#1605,0.6);
#1275=VERTEX_POINT('',#1609);
#1276=LINE('',#1610,#1611);
#1277=VERTEX_POINT('',#1613);
#1278=CIRCLE('',#1614,1.99816159566602);
#1279=LINE('',#1618,#1619);
#1280=VERTEX_POINT('',#1621);
#1281=LINE('',#1622,#1623);
#1282=LINE('',#1625,#1626);
#1283=VERTEX_POINT('',#1628);
#1284=CIRCLE('',#1629,2.9913597403053);
#1285=LINE('',#1633,#1634);
#1286=VERTEX_POINT('',#1636);
#1287=LINE('',#1637,#1638);
#1288=LINE('',#1640,#1641);
#1289=VERTEX_POINT('',#1643);
#1290=CIRCLE('',#1644,1.99816159566602);
#1291=LINE('',#1648,#1649);
#1292=VERTEX_POINT('',#1651);
#1293=LINE('',#1652,#1653);
#1294=LINE('',#1655,#1656);
#1295=VERTEX_POINT('',#1658);
#1296=CIRCLE('',#1659,2.9913597403053);
#1297=LINE('',#1663,#1664);
#1298=VERTEX_POINT('',#1666);
#1299=LINE('',#1667,#1668);
#1300=LINE('',#1670,#1671);
#1301=VERTEX_POINT('',#1673);
#1302=CIRCLE('',#1674,1.99816159566602);
#1303=LINE('',#1678,#1679);
#1304=VERTEX_POINT('',#1681);
#1305=LINE('',#1682,#1683);
#1306=LINE('',#1685,#1686);
#1307=VERTEX_POINT('',#1688);
#1308=CIRCLE('',#1689,2.9913597403053);
#1309=LINE('',#1693,#1694);
#1310=VERTEX_POINT('',#1696);
#1311=LINE('',#1697,#1698);
#1312=LINE('',#1700,#1701);
#1313=VERTEX_POINT('',#1703);
#1314=CIRCLE('',#1704,1.99816159566602);
#1315=LINE('',#1708,#1709);
#1316=VERTEX_POINT('',#1711);
#1317=LINE('',#1712,#1713);
#1318=LINE('',#1715,#1716);
#1319=VERTEX_POINT('',#1718);
#1320=CIRCLE('',#1719,2.9913597403053);
#1321=LINE('',#1723,#1724);
#1322=VERTEX_POINT('',#1726);
#1323=LINE('',#1727,#1728);
#1324=LINE('',#1730,#1731);
#1325=VERTEX_POINT('',#1733);
#1326=CIRCLE('',#1734,1.99816159566602);
#1327=LINE('',#1738,#1739);
#1328=VERTEX_POINT('',#1741);
#1329=LINE('',#1742,#1743);
#1330=LINE('',#1745,#1746);
#1331=VERTEX_POINT('',#1748);
#1332=CIRCLE('',#1749,2.9913597403053);
#1333=LINE('',#1753,#1754);
#1334=VERTEX_POINT('',#1756);
#1335=LINE('',#1757,#1758);
#1336=LINE('',#1760,#1761);
#1337=VERTEX_POINT('',#1763);
#1338=CIRCLE('',#1764,1.99816159566602);
#1339=LINE('',#1768,#1769);
#1340=VERTEX_POINT('',#1771);
#1341=LINE('',#1772,#1773);
#1342=LINE('',#1775,#1776);
#1343=VERTEX_POINT('',#1778);
#1344=CIRCLE('',#1779,2.9913597403053);
#1345=LINE('',#1783,#1784);
#1346=VERTEX_POINT('',#1786);
#1347=LINE('',#1787,#1788);
#1348=LINE('',#1790,#1791);
#1349=VERTEX_POINT('',#1793);
#1350=CIRCLE('',#1794,1.99816159566602);
#1351=LINE('',#1798,#1799);
#1352=VERTEX_POINT('',#1801);
#1353=LINE('',#1802,#1803);
#1354=LINE('',#1805,#1806);
#1355=VERTEX_POINT('',#1808);
#1356=CIRCLE('',#1809,2.9913597403053);
#1357=LINE('',#1813,#1814);
#1358=VERTEX_POINT('',#1816);
#1359=LINE('',#1817,#1818);
#1360=LINE('',#1820,#1821);
#1361=VERTEX_POINT('',#1823);
#1362=CIRCLE('',#1824,1.99816159566602);
#1363=LINE('',#1828,#1829);
#1364=VERTEX_POINT('',#1831);
#1365=LINE('',#1832,#1833);
#1366=LINE('',#1835,#1836);
#1367=VERTEX_POINT('',#1838);
#1368=CIRCLE('',#1839,2.9913597403053);
#1369=LINE('',#1843,#1844);
#1370=VERTEX_POINT('',#1846);
#1371=LINE('',#1847,#1848);
#1372=LINE('',#1850,#1851);
#1373=VERTEX_POINT('',#1853);
#1374=CIRCLE('',#1854,1.99816159566602);
#1375=LINE('',#1858,#1859);
#1376=VERTEX_POINT('',#1861);
#1377=LINE('',#1862,#1863);
#1378=LINE('',#1865,#1866);
#1379=VERTEX_POINT('',#1868);
#1380=CIRCLE('',#1869,2.9913597403053);
#1381=LINE('',#1873,#1874);
#1382=VERTEX_POINT('',#1876);
#1383=LINE('',#1877,#1878);
#1384=LINE('',#1880,#1881);
#1385=VERTEX_POINT('',#1883);
#1386=CIRCLE('',#1884,1.99816159566602);
#1387=LINE('',#1888,#1889);
#1388=VERTEX_POINT('',#1891);
#1389=LINE('',#1892,#1893);
#1390=LINE('',#1895,#1896);
#1391=VERTEX_POINT('',#1898);
#1392=CIRCLE('',#1899,2.9913597403053);
#1393=LINE('',#1903,#1904);
#1394=LINE('',#1906,#1907);
#1395=CARTESIAN_POINT('',(-8.84820819988013,-18.5692031295865,0.));
#1396=CARTESIAN_POINT('',(-5.09162662129888,-19.9294112197413,0.));
#1397=AXIS2_PLACEMENT_3D('',#1398,#1399,#1400);
#1398=CARTESIAN_POINT('',(-6.9541974890948,-19.2058923707591,0.));
#1399=DIRECTION('',(0.,0.,1.));
#1400=DIRECTION('',(-0.947876645659397,0.318637512878647,0.));
#1401=CARTESIAN_POINT('',(-7.3040841517999,-13.9757730906892,0.));
#1402=CARTESIAN_POINT('',(-7.3040841517999,-13.9757730906892,0.));
#1403=VECTOR('',#1404,1.);
#1404=DIRECTION('',(-0.318637512878647,-0.947876645659397,0.));
#1405=CARTESIAN_POINT('',(-11.7587066521286,-10.5073639248002,0.));
#1406=AXIS2_PLACEMENT_3D('',#1407,#1408,#1409);
#1407=CARTESIAN_POINT('',(-10.1395241884011,-13.022613662913,0.));
#1408=DIRECTION('',(0.,0.,-1.));
#1409=DIRECTION('',(-0.541286439711967,0.840838266365145,0.));
#1410=CARTESIAN_POINT('',(-15.8334264674788,-13.1304493264782,0.));
#1411=CARTESIAN_POINT('',(-15.8334264674788,-13.1304493264782,0.));
#1412=VECTOR('',#1413,1.);
#1413=DIRECTION('',(0.840838266365145,0.541286439711967,0.));
#1414=CARTESIAN_POINT('',(-18.073054549865,-9.82195461473306,0.));
#1415=AXIS2_PLACEMENT_3D('',#1416,#1417,#1418);
#1416=CARTESIAN_POINT('',(-16.915004243566,-11.450318594461,0.));
#1417=DIRECTION('',(0.,0.,1.));
#1418=DIRECTION('',(-0.57955788401235,0.814931076275244,0.));
#1419=CARTESIAN_POINT('',(-14.1238815192439,-7.01340499396448,0.));
#1420=CARTESIAN_POINT('',(-14.1238815192439,-7.01340499396448,0.));
#1421=VECTOR('',#1422,1.);
#1422=DIRECTION('',(-0.814931076275244,-0.57955788401235,0.));
#1423=CARTESIAN_POINT('',(-15.6890670689093,-1.589041625091,0.));
#1424=AXIS2_PLACEMENT_3D('',#1425,#1426,#1427);
#1425=CARTESIAN_POINT('',(-15.857547640655,-4.57565298127105,0.));
#1426=DIRECTION('',(0.,0.,-1.));
#1427=DIRECTION('',(0.056322403980912,0.998412633538764,0.));
#1428=CARTESIAN_POINT('',(-20.527395561454,-1.31610207805864,0.));
#1429=CARTESIAN_POINT('',(-20.527395561454,-1.31610207805864,0.));
#1430=VECTOR('',#1431,1.);
#1431=DIRECTION('',(0.998412633538764,-0.0563224039809105,0.));
#1432=CARTESIAN_POINT('',(-20.3946083423323,2.67694672698953,0.));
#1433=AXIS2_PLACEMENT_3D('',#1434,#1435,#1436);
#1434=CARTESIAN_POINT('',(-20.4148542968437,0.678887702906286,0.));
#1435=DIRECTION('',(0.,0.,1.));
#1436=DIRECTION('',(0.0101322908794431,0.99994866702323,0.));
#1437=CARTESIAN_POINT('',(-15.5488361994133,2.62784543358641,0.));
#1438=CARTESIAN_POINT('',(-15.5488361994133,2.62784543358641,0.));
#1439=VECTOR('',#1440,1.);
#1440=DIRECTION('',(-0.99994866702323,0.0101322908794442,0.));
#1441=CARTESIAN_POINT('',(-13.6267371171433,7.93624056586459,0.));
#1442=AXIS2_PLACEMENT_3D('',#1443,#1444,#1445);
#1443=CARTESIAN_POINT('',(-15.5185268723995,5.61905161849165,0.));
#1444=DIRECTION('',(0.,0.,-1.));
#1445=DIRECTION('',(0.632418003681184,0.774627309497868,0.));
#1446=CARTESIAN_POINT('',(-17.3805972514675,11.000951431515,0.));
#1447=CARTESIAN_POINT('',(-17.3805972514675,11.000951431515,0.));
#1448=VECTOR('',#1449,1.);
#1449=DIRECTION('',(0.774627309497869,-0.632418003681183,0.));
#1450=CARTESIAN_POINT('',(-14.9261149352709,14.1533454050749,0.));
#1451=AXIS2_PLACEMENT_3D('',#1452,#1453,#1454);
#1452=CARTESIAN_POINT('',(-16.116923884104,12.5487819723077,0.));
#1453=DIRECTION('',(0.,0.,1.));
#1454=DIRECTION('',(0.595952275039192,0.803019853973494,0.));
#1455=CARTESIAN_POINT('',(-11.0346639369115,11.2653482226885,0.));
#1456=CARTESIAN_POINT('',(-11.0346639369115,11.2653482226885,0.));
#1457=VECTOR('',#1458,1.);
#1458=DIRECTION('',(-0.803019853973493,0.595952275039192,0.));
#1459=CARTESIAN_POINT('',(-6.35945674238836,14.4301486035556,0.));
#1460=AXIS2_PLACEMENT_3D('',#1461,#1462,#1463);
#1461=CARTESIAN_POINT('',(-9.25195629421593,13.6674694845306,0.));
#1462=DIRECTION('',(0.,0.,-1.));
#1463=DIRECTION('',(0.9669514210726,0.254960681842671,0.));
#1464=CARTESIAN_POINT('',(-7.59500153619341,19.1160154028367,0.));
#1465=CARTESIAN_POINT('',(-7.59500153619341,19.1160154028367,0.));
#1466=VECTOR('',#1467,1.);
#1467=DIRECTION('',(0.254960681842672,-0.9669514210726,0.));
#1468=CARTESIAN_POINT('',(-3.75635294292339,20.2236471929388,0.));
#1469=AXIS2_PLACEMENT_3D('',#1470,#1471,#1472);
#1470=CARTESIAN_POINT('',(-5.66287634173146,19.6254680456996,0.));
#1471=DIRECTION('',(0.,0.,1.));
#1472=DIRECTION('',(0.954138745806794,0.299364750346861,0.));
#1473=CARTESIAN_POINT('',(-2.30562510494226,15.5998708858268,0.));
#1474=CARTESIAN_POINT('',(-2.30562510494226,15.5998708858268,0.));
#1475=VECTOR('',#1476,1.);
#1476=DIRECTION('',(-0.29936475034686,0.954138745806794,0.));
#1477=CARTESIAN_POINT('',(3.33691995797429,15.4122303374002,0.));
#1478=AXIS2_PLACEMENT_3D('',#1479,#1480,#1481);
#1479=CARTESIAN_POINT('',(0.548547125929577,16.4953785476809,0.));
#1480=DIRECTION('',(0.,0.,-1.));
#1481=DIRECTION('',(0.932142261084294,-0.362092260481578,0.));
#1482=CARTESIAN_POINT('',(5.09162662129888,19.9294112197413,0.));
#1483=CARTESIAN_POINT('',(5.09162662129888,19.9294112197413,0.));
#1484=VECTOR('',#1485,1.);
#1485=DIRECTION('',(-0.362092260481578,-0.932142261084295,0.));
#1486=CARTESIAN_POINT('',(8.84820819988013,18.5692031295865,0.));
#1487=AXIS2_PLACEMENT_3D('',#1488,#1489,#1490);
#1488=CARTESIAN_POINT('',(6.9541974890948,19.2058923707591,0.));
#1489=DIRECTION('',(0.,0.,1.));
#1490=DIRECTION('',(0.947876645659397,-0.318637512878646,0.));
#1491=CARTESIAN_POINT('',(7.3040841517999,13.9757730906892,0.));
#1492=CARTESIAN_POINT('',(7.3040841517999,13.9757730906892,0.));
#1493=VECTOR('',#1494,1.);
#1494=DIRECTION('',(0.318637512878647,0.947876645659397,0.));
#1495=CARTESIAN_POINT('',(11.7587066521286,10.5073639248002,0.));
#1496=AXIS2_PLACEMENT_3D('',#1497,#1498,#1499);
#1497=CARTESIAN_POINT('',(10.1395241884011,13.022613662913,0.));
#1498=DIRECTION('',(0.,0.,-1.));
#1499=DIRECTION('',(0.541286439711967,-0.840838266365145,0.));
#1500=CARTESIAN_POINT('',(15.8334264674788,13.1304493264782,0.));
#1501=CARTESIAN_POINT('',(15.8334264674788,13.1304493264782,0.));
#1502=VECTOR('',#1503,1.);
#1503=DIRECTION('',(-0.840838266365145,-0.541286439711967,0.));
#1504=CARTESIAN_POINT('',(18.073054549865,9.82195461473306,0.));
#1505=AXIS2_PLACEMENT_3D('',#1506,#1507,#1508);
#1506=CARTESIAN_POINT('',(16.915004243566,11.450318594461,0.));
#1507=DIRECTION('',(0.,0.,1.));
#1508=DIRECTION('',(0.579557884012353,-0.814931076275242,0.));
#1509=CARTESIAN_POINT('',(14.1238815192439,7.01340499396448,0.));
#1510=CARTESIAN_POINT('',(14.1238815192439,7.01340499396448,0.));
#1511=VECTOR('',#1512,1.);
#1512=DIRECTION('',(0.814931076275243,0.579557884012351,0.));
#1513=CARTESIAN_POINT('',(15.6890670689093,1.589041625091,0.));
#1514=AXIS2_PLACEMENT_3D('',#1515,#1516,#1517);
#1515=CARTESIAN_POINT('',(15.857547640655,4.57565298127105,0.));
#1516=DIRECTION('',(0.,0.,-1.));
#1517=DIRECTION('',(-0.056322403980912,-0.998412633538764,0.));
#1518=CARTESIAN_POINT('',(20.527395561454,1.31610207805864,0.));
#1519=CARTESIAN_POINT('',(20.527395561454,1.31610207805864,0.));
#1520=VECTOR('',#1521,1.);
#1521=DIRECTION('',(-0.998412633538764,0.0563224039809105,0.));
#1522=CARTESIAN_POINT('',(20.3946083423323,-2.67694672698953,0.));
#1523=AXIS2_PLACEMENT_3D('',#1524,#1525,#1526);
#1524=CARTESIAN_POINT('',(20.4148542968437,-0.678887702906283,0.));
#1525=DIRECTION('',(0.,0.,1.));
#1526=DIRECTION('',(-0.0101322908794431,-0.99994866702323,0.));
#1527=CARTESIAN_POINT('',(15.5488361994133,-2.62784543358641,0.));
#1528=CARTESIAN_POINT('',(15.5488361994133,-2.62784543358641,0.));
#1529=VECTOR('',#1530,1.);
#1530=DIRECTION('',(0.99994866702323,-0.0101322908794442,0.));
#1531=CARTESIAN_POINT('',(13.6267371171433,-7.93624056586459,0.));
#1532=AXIS2_PLACEMENT_3D('',#1533,#1534,#1535);
#1533=CARTESIAN_POINT('',(15.5185268723995,-5.61905161849165,0.));
#1534=DIRECTION('',(0.,0.,-1.));
#1535=DIRECTION('',(-0.632418003681184,-0.774627309497868,0.));
#1536=CARTESIAN_POINT('',(17.3805972514675,-11.000951431515,0.));
#1537=CARTESIAN_POINT('',(17.3805972514675,-11.000951431515,0.));
#1538=VECTOR('',#1539,1.);
#1539=DIRECTION('',(-0.774627309497869,0.632418003681183,0.));
#1540=CARTESIAN_POINT('',(14.9261149352709,-14.1533454050749,0.));
#1541=AXIS2_PLACEMENT_3D('',#1542,#1543,#1544);
#1542=CARTESIAN_POINT('',(16.116923884104,-12.5487819723077,0.));
#1543=DIRECTION('',(0.,0.,1.));
#1544=DIRECTION('',(-0.595952275039192,-0.803019853973494,0.));
#1545=CARTESIAN_POINT('',(11.0346639369115,-11.2653482226885,0.));
#1546=CARTESIAN_POINT('',(11.0346639369115,-11.2653482226885,0.));
#1547=VECTOR('',#1548,1.);
#1548=DIRECTION('',(0.803019853973494,-0.595952275039192,0.));
#1549=CARTESIAN_POINT('',(6.35945674238836,-14.4301486035556,0.));
#1550=AXIS2_PLACEMENT_3D('',#1551,#1552,#1553);
#1551=CARTESIAN_POINT('',(9.25195629421593,-13.6674694845306,0.));
#1552=DIRECTION('',(0.,0.,-1.));
#1553=DIRECTION('',(-0.9669514210726,-0.254960681842671,0.));
#1554=CARTESIAN_POINT('',(7.59500153619341,-19.1160154028367,0.));
#1555=CARTESIAN_POINT('',(7.59500153619341,-19.1160154028367,0.));
#1556=VECTOR('',#1557,1.);
#1557=DIRECTION('',(-0.254960681842672,0.9669514210726,0.));
#1558=CARTESIAN_POINT('',(3.75635294292339,-20.2236471929388,0.));
#1559=AXIS2_PLACEMENT_3D('',#1560,#1561,#1562);
#1560=CARTESIAN_POINT('',(5.66287634173147,-19.6254680456996,0.));
#1561=DIRECTION('',(0.,0.,1.));
#1562=DIRECTION('',(-0.954138745806794,-0.299364750346862,0.));
#1563=CARTESIAN_POINT('',(2.30562510494226,-15.5998708858268,0.));
#1564=CARTESIAN_POINT('',(2.30562510494226,-15.5998708858268,0.));
#1565=VECTOR('',#1566,1.);
#1566=DIRECTION('',(0.29936475034686,-0.954138745806794,0.));
#1567=CARTESIAN_POINT('',(-3.33691995797428,-15.4122303374002,0.));
#1568=AXIS2_PLACEMENT_3D('',#1569,#1570,#1571);
#1569=CARTESIAN_POINT('',(-0.548547125929575,-16.4953785476809,0.));
#1570=DIRECTION('',(0.,0.,-1.));
#1571=DIRECTION('',(-0.932142261084294,0.362092260481578,0.));
#1572=CARTESIAN_POINT('',(-5.09162662129888,-19.9294112197413,0.));
#1573=VECTOR('',#1574,1.);
#1574=DIRECTION('',(0.362092260481578,0.932142261084294,0.));
#1575=CARTESIAN_POINT('',(-0.639859502917428,0.00223750363377158,0.));
#1576=AXIS2_PLACEMENT_3D('',#1577,#1578,#1579);
#1577=CARTESIAN_POINT('',(-0.039859502917428,0.00223750363377166,0.));
#1578=DIRECTION('',(0.,0.,-1.));
#1579=DIRECTION('',(-1.,0.,0.));
#1580=CARTESIAN_POINT('',(-2.9630303944392,-0.868148582514094,1.));
#1581=CARTESIAN_POINT('',(-0.412318873111411,-3.02493510749277,1.));
#1582=CARTESIAN_POINT('',(-2.9630303944392,-0.868148582514095,1.));
#1583=VECTOR('',#1584,1.);
#1584=DIRECTION('',(0.763608828518921,-0.64567914400882,0.));
#1585=CARTESIAN_POINT('',(-2.9630303944392,-0.868148582514094,6.));
#1586=CARTESIAN_POINT('',(-2.9630303944392,-0.868148582514094,1.));
#1587=VECTOR('',#1588,1.);
#1588=DIRECTION('',(0.,0.,1.));
#1589=CARTESIAN_POINT('',(-0.412318873111411,-3.02493510749277,6.));
#1590=CARTESIAN_POINT('',(-2.9630303944392,-0.868148582514095,6.));
#1591=VECTOR('',#1592,1.);
#1592=DIRECTION('',(0.763608828518921,-0.64567914400882,0.));
#1593=CARTESIAN_POINT('',(-0.412318873111411,-3.02493510749277,1.));
#1594=VECTOR('',#1595,1.);
#1595=DIRECTION('',(0.,0.,1.));
#1596=AXIS2_PLACEMENT_3D('',#1597,#1598,#1599);
#1597=CARTESIAN_POINT('',(-0.039859502917428,0.00223750363377166,1.));
#1598=DIRECTION('',(0.,0.,1.));
#1599=DIRECTION('',(-0.122117826293109,-0.992515610205425,0.));
#1600=AXIS2_PLACEMENT_3D('',#1601,#1602,#1603);
#1601=CARTESIAN_POINT('',(-0.039859502917428,0.00223750363377166,6.));
#1602=DIRECTION('',(0.,0.,1.));
#1603=DIRECTION('',(-0.122117826293109,-0.992515610205425,0.));
#1604=CARTESIAN_POINT('',(-0.639859502917428,0.00223750363377158,1.));
#1605=AXIS2_PLACEMENT_3D('',#1606,#1607,#1608);
#1606=CARTESIAN_POINT('',(-0.039859502917428,0.00223750363377166,1.));
#1607=DIRECTION('',(0.,0.,-1.));
#1608=DIRECTION('',(-1.,0.,0.));
#1609=CARTESIAN_POINT('',(-5.09162662129888,-19.9294112197413,6.));
#1610=CARTESIAN_POINT('',(-5.09162662129888,-19.9294112197413,0.));
#1611=VECTOR('',#1612,1.);
#1612=DIRECTION('',(0.,0.,1.));
#1613=CARTESIAN_POINT('',(-8.84820819988013,-18.5692031295865,6.));
#1614=AXIS2_PLACEMENT_3D('',#1615,#1616,#1617);
#1615=CARTESIAN_POINT('',(-6.9541974890948,-19.2058923707591,6.));
#1616=DIRECTION('',(0.,0.,1.));
#1617=DIRECTION('',(-0.947876645659397,0.318637512878647,0.));
#1618=CARTESIAN_POINT('',(-8.84820819988013,-18.5692031295865,0.));
#1619=VECTOR('',#1620,1.);
#1620=DIRECTION('',(0.,0.,1.));
#1621=CARTESIAN_POINT('',(-7.3040841517999,-13.9757730906892,6.));
#1622=CARTESIAN_POINT('',(-7.3040841517999,-13.9757730906892,6.));
#1623=VECTOR('',#1624,1.);
#1624=DIRECTION('',(-0.318637512878647,-0.947876645659397,0.));
#1625=CARTESIAN_POINT('',(-7.3040841517999,-13.9757730906892,0.));
#1626=VECTOR('',#1627,1.);
#1627=DIRECTION('',(0.,0.,1.));
#1628=CARTESIAN_POINT('',(-11.7587066521286,-10.5073639248002,6.));
#1629=AXIS2_PLACEMENT_3D('',#1630,#1631,#1632);
#1630=CARTESIAN_POINT('',(-10.1395241884011,-13.022613662913,6.));
#1631=DIRECTION('',(0.,0.,-1.));
#1632=DIRECTION('',(-0.541286439711967,0.840838266365145,0.));
#1633=CARTESIAN_POINT('',(-11.7587066521286,-10.5073639248002,0.));
#1634=VECTOR('',#1635,1.);
#1635=DIRECTION('',(0.,0.,1.));
#1636=CARTESIAN_POINT('',(-15.8334264674788,-13.1304493264782,6.));
#1637=CARTESIAN_POINT('',(-15.8334264674788,-13.1304493264782,6.));
#1638=VECTOR('',#1639,1.);
#1639=DIRECTION('',(0.840838266365145,0.541286439711967,0.));
#1640=CARTESIAN_POINT('',(-15.8334264674788,-13.1304493264782,0.));
#1641=VECTOR('',#1642,1.);
#1642=DIRECTION('',(0.,0.,1.));
#1643=CARTESIAN_POINT('',(-18.073054549865,-9.82195461473306,6.));
#1644=AXIS2_PLACEMENT_3D('',#1645,#1646,#1647);
#1645=CARTESIAN_POINT('',(-16.915004243566,-11.450318594461,6.));
#1646=DIRECTION('',(0.,0.,1.));
#1647=DIRECTION('',(-0.57955788401235,0.814931076275244,0.));
#1648=CARTESIAN_POINT('',(-18.073054549865,-9.82195461473305,0.));
#1649=VECTOR('',#1650,1.);
#1650=DIRECTION('',(0.,0.,1.));
#1651=CARTESIAN_POINT('',(-14.1238815192439,-7.01340499396448,6.));
#1652=CARTESIAN_POINT('',(-14.1238815192439,-7.01340499396448,6.));
#1653=VECTOR('',#1654,1.);
#1654=DIRECTION('',(-0.814931076275244,-0.57955788401235,0.));
#1655=CARTESIAN_POINT('',(-14.1238815192439,-7.01340499396448,0.));
#1656=VECTOR('',#1657,1.);
#1657=DIRECTION('',(0.,0.,1.));
#1658=CARTESIAN_POINT('',(-15.6890670689093,-1.589041625091,6.));
#1659=AXIS2_PLACEMENT_3D('',#1660,#1661,#1662);
#1660=CARTESIAN_POINT('',(-15.857547640655,-4.57565298127105,6.));
#1661=DIRECTION('',(0.,0.,-1.));
#1662=DIRECTION('',(0.056322403980912,0.998412633538764,0.));
#1663=CARTESIAN_POINT('',(-15.6890670689093,-1.589041625091,0.));
#1664=VECTOR('',#1665,1.);
#1665=DIRECTION('',(0.,0.,1.));
#1666=CARTESIAN_POINT('',(-20.527395561454,-1.31610207805864,6.));
#1667=CARTESIAN_POINT('',(-20.527395561454,-1.31610207805864,6.));
#1668=VECTOR('',#1669,1.);
#1669=DIRECTION('',(0.998412633538764,-0.0563224039809105,0.));
#1670=CARTESIAN_POINT('',(-20.527395561454,-1.31610207805864,0.));
#1671=VECTOR('',#1672,1.);
#1672=DIRECTION('',(0.,0.,1.));
#1673=CARTESIAN_POINT('',(-20.3946083423323,2.67694672698953,6.));
#1674=AXIS2_PLACEMENT_3D('',#1675,#1676,#1677);
#1675=CARTESIAN_POINT('',(-20.4148542968437,0.678887702906286,6.));
#1676=DIRECTION('',(0.,0.,1.));
#1677=DIRECTION('',(0.0101322908794431,0.99994866702323,0.));
#1678=CARTESIAN_POINT('',(-20.3946083423323,2.67694672698953,0.));
#1679=VECTOR('',#1680,1.);
#1680=DIRECTION('',(0.,0.,1.));
#1681=CARTESIAN_POINT('',(-15.5488361994133,2.62784543358641,6.));
#1682=CARTESIAN_POINT('',(-15.5488361994133,2.62784543358641,6.));
#1683=VECTOR('',#1684,1.);
#1684=DIRECTION('',(-0.99994866702323,0.0101322908794442,0.));
#1685=CARTESIAN_POINT('',(-15.5488361994133,2.62784543358641,0.));
#1686=VECTOR('',#1687,1.);
#1687=DIRECTION('',(0.,0.,1.));
#1688=CARTESIAN_POINT('',(-13.6267371171433,7.93624056586459,6.));
#1689=AXIS2_PLACEMENT_3D('',#1690,#1691,#1692);
#1690=CARTESIAN_POINT('',(-15.5185268723995,5.61905161849165,6.));
#1691=DIRECTION('',(0.,0.,-1.));
#1692=DIRECTION('',(0.632418003681184,0.774627309497868,0.));
#1693=CARTESIAN_POINT('',(-13.6267371171433,7.93624056586459,0.));
#1694=VECTOR('',#1695,1.);
#1695=DIRECTION('',(0.,0.,1.));
#1696=CARTESIAN_POINT('',(-17.3805972514675,11.000951431515,6.));
#1697=CARTESIAN_POINT('',(-17.3805972514675,11.000951431515,6.));
#1698=VECTOR('',#1699,1.);
#1699=DIRECTION('',(0.774627309497869,-0.632418003681183,0.));
#1700=CARTESIAN_POINT('',(-17.3805972514675,11.000951431515,0.));
#1701=VECTOR('',#1702,1.);
#1702=DIRECTION('',(0.,0.,1.));
#1703=CARTESIAN_POINT('',(-14.9261149352709,14.1533454050749,6.));
#1704=AXIS2_PLACEMENT_3D('',#1705,#1706,#1707);
#1705=CARTESIAN_POINT('',(-16.116923884104,12.5487819723077,6.));
#1706=DIRECTION('',(0.,0.,1.));
#1707=DIRECTION('',(0.595952275039192,0.803019853973494,0.));
#1708=CARTESIAN_POINT('',(-14.9261149352709,14.1533454050749,0.));
#1709=VECTOR('',#1710,1.);
#1710=DIRECTION('',(0.,0.,1.));
#1711=CARTESIAN_POINT('',(-11.0346639369115,11.2653482226885,6.));
#1712=CARTESIAN_POINT('',(-11.0346639369115,11.2653482226885,6.));
#1713=VECTOR('',#1714,1.);
#1714=DIRECTION('',(-0.803019853973493,0.595952275039192,0.));
#1715=CARTESIAN_POINT('',(-11.0346639369115,11.2653482226885,0.));
#1716=VECTOR('',#1717,1.);
#1717=DIRECTION('',(0.,0.,1.));
#1718=CARTESIAN_POINT('',(-6.35945674238836,14.4301486035556,6.));
#1719=AXIS2_PLACEMENT_3D('',#1720,#1721,#1722);
#1720=CARTESIAN_POINT('',(-9.25195629421593,13.6674694845306,6.));
#1721=DIRECTION('',(0.,0.,-1.));
#1722=DIRECTION('',(0.9669514210726,0.254960681842671,0.));
#1723=CARTESIAN_POINT('',(-6.35945674238836,14.4301486035556,0.));
#1724=VECTOR('',#1725,1.);
#1725=DIRECTION('',(0.,0.,1.));
#1726=CARTESIAN_POINT('',(-7.59500153619341,19.1160154028367,6.));
#1727=CARTESIAN_POINT('',(-7.59500153619341,19.1160154028367,6.));
#1728=VECTOR('',#1729,1.);
#1729=DIRECTION('',(0.254960681842672,-0.9669514210726,0.));
#1730=CARTESIAN_POINT('',(-7.59500153619341,19.1160154028367,0.));
#1731=VECTOR('',#1732,1.);
#1732=DIRECTION('',(0.,0.,1.));
#1733=CARTESIAN_POINT('',(-3.75635294292339,20.2236471929388,6.));
#1734=AXIS2_PLACEMENT_3D('',#1735,#1736,#1737);
#1735=CARTESIAN_POINT('',(-5.66287634173146,19.6254680456996,6.));
#1736=DIRECTION('',(0.,0.,1.));
#1737=DIRECTION('',(0.954138745806794,0.299364750346861,0.));
#1738=CARTESIAN_POINT('',(-3.75635294292339,20.2236471929388,0.));
#1739=VECTOR('',#1740,1.);
#1740=DIRECTION('',(0.,0.,1.));
#1741=CARTESIAN_POINT('',(-2.30562510494226,15.5998708858268,6.));
#1742=CARTESIAN_POINT('',(-2.30562510494226,15.5998708858268,6.));
#1743=VECTOR('',#1744,1.);
#1744=DIRECTION('',(-0.29936475034686,0.954138745806794,0.));
#1745=CARTESIAN_POINT('',(-2.30562510494226,15.5998708858268,0.));
#1746=VECTOR('',#1747,1.);
#1747=DIRECTION('',(0.,0.,1.));
#1748=CARTESIAN_POINT('',(3.33691995797429,15.4122303374002,6.));
#1749=AXIS2_PLACEMENT_3D('',#1750,#1751,#1752);
#1750=CARTESIAN_POINT('',(0.548547125929577,16.4953785476809,6.));
#1751=DIRECTION('',(0.,0.,-1.));
#1752=DIRECTION('',(0.932142261084294,-0.362092260481578,0.));
#1753=CARTESIAN_POINT('',(3.33691995797429,15.4122303374002,0.));
#1754=VECTOR('',#1755,1.);
#1755=DIRECTION('',(0.,0.,1.));
#1756=CARTESIAN_POINT('',(5.09162662129888,19.9294112197413,6.));
#1757=CARTESIAN_POINT('',(5.09162662129888,19.9294112197413,6.));
#1758=VECTOR('',#1759,1.);
#1759=DIRECTION('',(-0.362092260481578,-0.932142261084295,0.));
#1760=CARTESIAN_POINT('',(5.09162662129888,19.9294112197413,0.));
#1761=VECTOR('',#1762,1.);
#1762=DIRECTION('',(0.,0.,1.));
#1763=CARTESIAN_POINT('',(8.84820819988013,18.5692031295865,6.));
#1764=AXIS2_PLACEMENT_3D('',#1765,#1766,#1767);
#1765=CARTESIAN_POINT('',(6.9541974890948,19.2058923707591,6.));
#1766=DIRECTION('',(0.,0.,1.));
#1767=DIRECTION('',(0.947876645659397,-0.318637512878646,0.));
#1768=CARTESIAN_POINT('',(8.84820819988013,18.5692031295865,0.));
#1769=VECTOR('',#1770,1.);
#1770=DIRECTION('',(0.,0.,1.));
#1771=CARTESIAN_POINT('',(7.3040841517999,13.9757730906892,6.));
#1772=CARTESIAN_POINT('',(7.3040841517999,13.9757730906892,6.));
#1773=VECTOR('',#1774,1.);
#1774=DIRECTION('',(0.318637512878647,0.947876645659397,0.));
#1775=CARTESIAN_POINT('',(7.3040841517999,13.9757730906892,0.));
#1776=VECTOR('',#1777,1.);
#1777=DIRECTION('',(0.,0.,1.));
#1778=CARTESIAN_POINT('',(11.7587066521286,10.5073639248002,6.));
#1779=AXIS2_PLACEMENT_3D('',#1780,#1781,#1782);
#1780=CARTESIAN_POINT('',(10.1395241884011,13.022613662913,6.));
#1781=DIRECTION('',(0.,0.,-1.));
#1782=DIRECTION('',(0.541286439711967,-0.840838266365145,0.));
#1783=CARTESIAN_POINT('',(11.7587066521286,10.5073639248002,0.));
#1784=VECTOR('',#1785,1.);
#1785=DIRECTION('',(0.,0.,1.));
#1786=CARTESIAN_POINT('',(15.8334264674788,13.1304493264782,6.));
#1787=CARTESIAN_POINT('',(15.8334264674788,13.1304493264782,6.));
#1788=VECTOR('',#1789,1.);
#1789=DIRECTION('',(-0.840838266365145,-0.541286439711967,0.));
#1790=CARTESIAN_POINT('',(15.8334264674788,13.1304493264782,0.));
#1791=VECTOR('',#1792,1.);
#1792=DIRECTION('',(0.,0.,1.));
#1793=CARTESIAN_POINT('',(18.073054549865,9.82195461473306,6.));
#1794=AXIS2_PLACEMENT_3D('',#1795,#1796,#1797);
#1795=CARTESIAN_POINT('',(16.915004243566,11.450318594461,6.));
#1796=DIRECTION('',(0.,0.,1.));
#1797=DIRECTION('',(0.579557884012353,-0.814931076275242,0.));
#1798=CARTESIAN_POINT('',(18.073054549865,9.82195461473306,0.));
#1799=VECTOR('',#1800,1.);
#1800=DIRECTION('',(0.,0.,1.));
#1801=CARTESIAN_POINT('',(14.1238815192439,7.01340499396448,6.));
#1802=CARTESIAN_POINT('',(14.1238815192439,7.01340499396448,6.));
#1803=VECTOR('',#1804,1.);
#1804=DIRECTION('',(0.814931076275243,0.579557884012351,0.));
#1805=CARTESIAN_POINT('',(14.1238815192439,7.01340499396448,0.));
#1806=VECTOR('',#1807,1.);
#1807=DIRECTION('',(0.,0.,1.));
#1808=CARTESIAN_POINT('',(15.6890670689093,1.589041625091,6.));
#1809=AXIS2_PLACEMENT_3D('',#1810,#1811,#1812);
#1810=CARTESIAN_POINT('',(15.857547640655,4.57565298127105,6.));
#1811=DIRECTION('',(0.,0.,-1.));
#1812=DIRECTION('',(-0.056322403980912,-0.998412633538764,0.));
#1813=CARTESIAN_POINT('',(15.6890670689093,1.589041625091,0.));
#1814=VECTOR('',#1815,1.);
#1815=DIRECTION('',(0.,0.,1.));
#1816=CARTESIAN_POINT('',(20.527395561454,1.31610207805864,6.));
#1817=CARTESIAN_POINT('',(20.527395561454,1.31610207805864,6.));
#1818=VECTOR('',#1819,1.);
#1819=DIRECTION('',(-0.998412633538764,0.0563224039809105,0.));
#1820=CARTESIAN_POINT('',(20.527395561454,1.31610207805864,0.));
#1821=VECTOR('',#1822,1.);
#1822=DIRECTION('',(0.,0.,1.));
#1823=CARTESIAN_POINT('',(20.3946083423323,-2.67694672698953,6.));
#1824=AXIS2_PLACEMENT_3D('',#1825,#1826,#1827);
#1825=CARTESIAN_POINT('',(20.4148542968437,-0.678887702906283,6.));
#1826=DIRECTION('',(0.,0.,1.));
#1827=DIRECTION('',(-0.0101322908794431,-0.99994866702323,0.));
#1828=CARTESIAN_POINT('',(20.3946083423323,-2.67694672698953,0.));
#1829=VECTOR('',#1830,1.);
#1830=DIRECTION('',(0.,0.,1.));
#1831=CARTESIAN_POINT('',(15.5488361994133,-2.62784543358641,6.));
#1832=CARTESIAN_POINT('',(15.5488361994133,-2.62784543358641,6.));
#1833=VECTOR('',#1834,1.);
#1834=DIRECTION('',(0.99994866702323,-0.0101322908794442,0.));
#1835=CARTESIAN_POINT('',(15.5488361994133,-2.62784543358641,0.));
#1836=VECTOR('',#1837,1.);
#1837=DIRECTION('',(0.,0.,1.));
#1838=CARTESIAN_POINT('',(13.6267371171433,-7.93624056586459,6.));
#1839=AXIS2_PLACEMENT_3D('',#1840,#1841,#1842);
#1840=CARTESIAN_POINT('',(15.5185268723995,-5.61905161849165,6.));
#1841=DIRECTION('',(0.,0.,-1.));
#1842=DIRECTION('',(-0.632418003681184,-0.774627309497868,0.));
#1843=CARTESIAN_POINT('',(13.6267371171433,-7.93624056586459,0.));
#1844=VECTOR('',#1845,1.);
#1845=DIRECTION('',(0.,0.,1.));
#1846=CARTESIAN_POINT('',(17.3805972514675,-11.000951431515,6.));
#1847=CARTESIAN_POINT('',(17.3805972514675,-11.000951431515,6.));
#1848=VECTOR('',#1849,1.);
#1849=DIRECTION('',(-0.774627309497869,0.632418003681183,0.));
#1850=CARTESIAN_POINT('',(17.3805972514675,-11.000951431515,0.));
#1851=VECTOR('',#1852,1.);
#1852=DIRECTION('',(0.,0.,1.));
#1853=CARTESIAN_POINT('',(14.9261149352709,-14.1533454050749,6.));
#1854=AXIS2_PLACEMENT_3D('',#1855,#1856,#1857);
#1855=CARTESIAN_POINT('',(16.116923884104,-12.5487819723077,6.));
#1856=DIRECTION('',(0.,0.,1.));
#1857=DIRECTION('',(-0.595952275039192,-0.803019853973494,0.));
#1858=CARTESIAN_POINT('',(14.9261149352709,-14.1533454050749,0.));
#1859=VECTOR('',#1860,1.);
#1860=DIRECTION('',(0.,0.,1.));
#1861=CARTESIAN_POINT('',(11.0346639369115,-11.2653482226885,6.));
#1862=CARTESIAN_POINT('',(11.0346639369115,-11.2653482226885,6.));
#1863=VECTOR('',#1864,1.);
#1864=DIRECTION('',(0.803019853973494,-0.595952275039192,0.));
#1865=CARTESIAN_POINT('',(11.0346639369115,-11.2653482226885,0.));
#1866=VECTOR('',#1867,1.);
#1867=DIRECTION('',(0.,0.,1.));
#1868=CARTESIAN_POINT('',(6.35945674238836,-14.4301486035556,6.));
#1869=AXIS2_PLACEMENT_3D('',#1870,#1871,#1872);
#1870=CARTESIAN_POINT('',(9.25195629421593,-13.6674694845306,6.));
#1871=DIRECTION('',(0.,0.,-1.));
#1872=DIRECTION('',(-0.9669514210726,-0.254960681842671,0.));
#1873=CARTESIAN_POINT('',(6.35945674238836,-14.4301486035556,0.));
#1874=VECTOR('',#1875,1.);
#1875=DIRECTION('',(0.,0.,1.));
#1876=CARTESIAN_POINT('',(7.59500153619341,-19.1160154028367,6.));
#1877=CARTESIAN_POINT('',(7.59500153619341,-19.1160154028367,6.));
#1878=VECTOR('',#1879,1.);
#1879=DIRECTION('',(-0.254960681842672,0.9669514210726,0.));
#1880=CARTESIAN_POINT('',(7.59500153619341,-19.1160154028367,0.));
#1881=VECTOR('',#1882,1.);
#1882=DIRECTION('',(0.,0.,1.));
#1883=CARTESIAN_POINT('',(3.75635294292339,-20.2236471929388,6.));
#1884=AXIS2_PLACEMENT_3D('',#1885,#1886,#1887);
#1885=CARTESIAN_POINT('',(5.66287634173147,-19.6254680456996,6.));
#1886=DIRECTION('',(0.,0.,1.));
#1887=DIRECTION('',(-0.954138745806794,-0.299364750346862,0.));
#1888=CARTESIAN_POINT('',(3.75635294292339,-20.2236471929388,0.));
#1889=VECTOR('',#1890,1.);
#1890=DIRECTION('',(0.,0.,1.));
#1891=CARTESIAN_POINT('',(2.30562510494226,-15.5998708858268,6.));
#1892=CARTESIAN_POINT('',(2.30562510494226,-15.5998708858268,6.));
#1893=VECTOR('',#1894,1.);
#1894=DIRECTION('',(0.29936475034686,-0.954138745806794,0.));
#1895=CARTESIAN_POINT('',(2.30562510494226,-15.5998708858268,0.));
#1896=VECTOR('',#1897,1.);
#1897=DIRECTION('',(0.,0.,1.));
#1898=CARTESIAN_POINT('',(-3.33691995797428,-15.4122303374002,6.));
#1899=AXIS2_PLACEMENT_3D('',#1900,#1901,#1902);
#1900=CARTESIAN_POINT('',(-0.548547125929575,-16.4953785476809,6.));
#1901=DIRECTION('',(0.,0.,-1.));
#1902=DIRECTION('',(-0.932142261084294,0.362092260481578,0.));
#1903=CARTESIAN_POINT('',(-3.33691995797428,-15.4122303374002,0.));
#1904=VECTOR('',#1905,1.);
#1905=DIRECTION('',(0.,0.,1.));
#1906=CARTESIAN_POINT('',(-5.09162662129888,-19.9294112197413,6.));
#1907=VECTOR('',#1908,1.);
#1908=DIRECTION('',(0.362092260481578,0.932142261084294,0.));
ENDSEC;
END-ISO-10303-21;
