ISO-10303-21;
HEADER;
FILE_DESCRIPTION(('STEP AP242'),
    '1');
FILE_NAME('шестерня4',
    '',
    ('UNSPECIFIED'),
    ('UNSPECIFIED'),
    'C3D Converter',
    'C3D Toolkit',
    '');
FILE_SCHEMA(('AP242_MANAGED_MODEL_BASED_3D_ENGINEERING_MIM_LF { 1 0 10303 442 1 1 4 }'));
ENDSEC;

DATA;
#1=PRODUCT_DEFINITION('','UNSPECIFIED',#28,#31);
#2=SHAPE_DEFINITION_REPRESENTATION(#26,#3);
#3=SHAPE_REPRESENTATION('NONE',(#4),#8);
#4=AXIS2_PLACEMENT_3D('',#5,#6,#7);
#5=CARTESIAN_POINT('',(0.,0.,0.));
#6=DIRECTION('',(0.,0.,1.));
#7=DIRECTION('',(1.,0.,0.));
#8=(GEOMETRIC_REPRESENTATION_CONTEXT(3)GLOBAL_UNCERTAINTY_ASSIGNED_CONTEXT((#10))
GLOBAL_UNIT_ASSIGNED_CONTEXT((#9,#11,#12))REPRESENTATION_CONTEXT('NONE','NONE'));
#9=(LENGTH_UNIT()NAMED_UNIT(*)SI_UNIT(.MILLI.,.METRE.));
#10=UNCERTAINTY_MEASURE_WITH_UNIT(LENGTH_MEASURE(1.E-5),#9,'NONE','NONE');
#11=(NAMED_UNIT(*)PLANE_ANGLE_UNIT()SI_UNIT($,.RADIAN.));
#12=(NAMED_UNIT(*)SI_UNIT($,.STERADIAN.)SOLID_ANGLE_UNIT());
#13=MANIFOLD_SOLID_BREP('',#14);
#14=CLOSED_SHELL('',(#53,#62,#71,#80,#89,#98,#107,#116,#125,#134,#143,#152,#161,
#170,#179,#188,#197,#206,#215,#224,#233,#242,#251,#260,#269,#278,#287,#296,#305,
#314,#323,#332,#341,#350,#359,#368,#377,#386,#395,#404,#413,#422,#431,#440,#449,
#458));
#15=COLOUR_RGB('',0.564705882352941,0.564705882352941,0.564705882352941);
#16=FILL_AREA_STYLE_COLOUR('',#15);
#17=FILL_AREA_STYLE($,(#16));
#18=SURFACE_STYLE_FILL_AREA(#17);
#19=SURFACE_SIDE_STYLE('',(#18));
#20=SURFACE_STYLE_USAGE(.BOTH.,#19);
#21=PRESENTATION_STYLE_ASSIGNMENT((#20));
#22=MECHANICAL_DESIGN_GEOMETRIC_PRESENTATION_REPRESENTATION('NONE',(#23,#61,#70,
#79,#88,#97,#106,#115,#124,#133,#142,#151,#160,#169,#178,#187,#196,#205,#214,#223,
#232,#241,#250,#259,#268,#277,#286,#295,#304,#313,#322,#331,#340,#349,#358,#367,
#376,#385,#394,#403,#412,#421,#430,#439,#448,#457,#466),#8);
#23=STYLED_ITEM('',(#21),#13);
#24=ADVANCED_BREP_SHAPE_REPRESENTATION('NONE',(#13),#8);
#25=SHAPE_REPRESENTATION_RELATIONSHIP('','',#3,#24);
#26=PRODUCT_DEFINITION_SHAPE('NONE','NONE',#1);
#27=MECHANICAL_CONTEXT('NONE',#32,'mechanical');
#28=PRODUCT_DEFINITION_FORMATION_WITH_SPECIFIED_SOURCE('ANY','UNSPECIFIED',#29,.NOT_KNOWN.);
#29=PRODUCT('','\X2\0414043504420430043B044C\X0\','NONE',(#27));
#30=PRODUCT_RELATED_PRODUCT_CATEGORY('detail','',(#29));
#31=DESIGN_CONTEXT('detailed design',#32,'design');
#32=APPLICATION_CONTEXT('configuration controlled 3d designs of mechanical parts and assemblies');
#33=APPLICATION_PROTOCOL_DEFINITION('international standard','config_control_design',
1994,#32);
#34=CC_DESIGN_DATE_AND_TIME_ASSIGNMENT(#35,#39,(#1));
#35=DATE_AND_TIME(#36,#37);
#36=CALENDAR_DATE(0,1,1);
#37=LOCAL_TIME(0,0,0.,#38);
#38=COORDINATED_UNIVERSAL_TIME_OFFSET(0,0,.AHEAD.);
#39=DATE_TIME_ROLE('creation_date');
#40=CC_DESIGN_APPROVAL(#41,(#1));
#41=APPROVAL(#42,'UNSPECIFIED');
#42=APPROVAL_STATUS('not_yet_approved');
#43=APPROVAL_DATE_TIME(#44,#41);
#44=DATE_AND_TIME(#45,#46);
#45=CALENDAR_DATE(0,1,1);
#46=LOCAL_TIME(0,0,0.,#47);
#47=COORDINATED_UNIVERSAL_TIME_OFFSET(0,0,.AHEAD.);
#48=PERSON('UNSPECIFIED','savvig','UNSPECIFIED',('UNSPECIFIED'),('UNSPECIFIED'),
('UNSPECIFIED'));
#49=ORGANIZATION('UNSPECIFIED','UNSPECIFIED','UNSPECIFIED');
#50=PERSON_AND_ORGANIZATION(#48,#49);
#51=PERSON_AND_ORGANIZATION_ROLE('creator');
#52=CC_DESIGN_PERSON_AND_ORGANIZATION_ASSIGNMENT(#50,#51,(#28,#1));
#53=ADVANCED_FACE('',(#467,#469),#471,.F.);
#54=COLOUR_RGB('',0.564705882352941,0.564705882352941,0.564705882352941);
#55=FILL_AREA_STYLE_COLOUR('',#54);
#56=FILL_AREA_STYLE($,(#55));
#57=SURFACE_STYLE_FILL_AREA(#56);
#58=SURFACE_SIDE_STYLE('',(#57));
#59=SURFACE_STYLE_USAGE(.BOTH.,#58);
#60=PRESENTATION_STYLE_ASSIGNMENT((#59));
#61=STYLED_ITEM('',(#60),#53);
#62=ADVANCED_FACE('',(#476,#478),#480,.T.);
#63=COLOUR_RGB('',0.564705882352941,0.564705882352941,0.564705882352941);
#64=FILL_AREA_STYLE_COLOUR('',#63);
#65=FILL_AREA_STYLE($,(#64));
#66=SURFACE_STYLE_FILL_AREA(#65);
#67=SURFACE_SIDE_STYLE('',(#66));
#68=SURFACE_STYLE_USAGE(.BOTH.,#67);
#69=PRESENTATION_STYLE_ASSIGNMENT((#68));
#70=STYLED_ITEM('',(#69),#62);
#71=ADVANCED_FACE('',(#485,#487),#489,.F.);
#72=COLOUR_RGB('',0.564705882352941,0.564705882352941,0.564705882352941);
#73=FILL_AREA_STYLE_COLOUR('',#72);
#74=FILL_AREA_STYLE($,(#73));
#75=SURFACE_STYLE_FILL_AREA(#74);
#76=SURFACE_SIDE_STYLE('',(#75));
#77=SURFACE_STYLE_USAGE(.BOTH.,#76);
#78=PRESENTATION_STYLE_ASSIGNMENT((#77));
#79=STYLED_ITEM('',(#78),#71);
#80=ADVANCED_FACE('',(#494),#496,.T.);
#81=COLOUR_RGB('',0.564705882352941,0.564705882352941,0.564705882352941);
#82=FILL_AREA_STYLE_COLOUR('',#81);
#83=FILL_AREA_STYLE($,(#82));
#84=SURFACE_STYLE_FILL_AREA(#83);
#85=SURFACE_SIDE_STYLE('',(#84));
#86=SURFACE_STYLE_USAGE(.BOTH.,#85);
#87=PRESENTATION_STYLE_ASSIGNMENT((#86));
#88=STYLED_ITEM('',(#87),#80);
#89=ADVANCED_FACE('',(#501),#503,.T.);
#90=COLOUR_RGB('',0.564705882352941,0.564705882352941,0.564705882352941);
#91=FILL_AREA_STYLE_COLOUR('',#90);
#92=FILL_AREA_STYLE($,(#91));
#93=SURFACE_STYLE_FILL_AREA(#92);
#94=SURFACE_SIDE_STYLE('',(#93));
#95=SURFACE_STYLE_USAGE(.BOTH.,#94);
#96=PRESENTATION_STYLE_ASSIGNMENT((#95));
#97=STYLED_ITEM('',(#96),#89);
#98=ADVANCED_FACE('',(#508),#510,.T.);
#99=COLOUR_RGB('',0.564705882352941,0.564705882352941,0.564705882352941);
#100=FILL_AREA_STYLE_COLOUR('',#99);
#101=FILL_AREA_STYLE($,(#100));
#102=SURFACE_STYLE_FILL_AREA(#101);
#103=SURFACE_SIDE_STYLE('',(#102));
#104=SURFACE_STYLE_USAGE(.BOTH.,#103);
#105=PRESENTATION_STYLE_ASSIGNMENT((#104));
#106=STYLED_ITEM('',(#105),#98);
#107=ADVANCED_FACE('',(#515),#517,.F.);
#108=COLOUR_RGB('',0.564705882352941,0.564705882352941,0.564705882352941);
#109=FILL_AREA_STYLE_COLOUR('',#108);
#110=FILL_AREA_STYLE($,(#109));
#111=SURFACE_STYLE_FILL_AREA(#110);
#112=SURFACE_SIDE_STYLE('',(#111));
#113=SURFACE_STYLE_USAGE(.BOTH.,#112);
#114=PRESENTATION_STYLE_ASSIGNMENT((#113));
#115=STYLED_ITEM('',(#114),#107);
#116=ADVANCED_FACE('',(#522),#524,.T.);
#117=COLOUR_RGB('',0.564705882352941,0.564705882352941,0.564705882352941);
#118=FILL_AREA_STYLE_COLOUR('',#117);
#119=FILL_AREA_STYLE($,(#118));
#120=SURFACE_STYLE_FILL_AREA(#119);
#121=SURFACE_SIDE_STYLE('',(#120));
#122=SURFACE_STYLE_USAGE(.BOTH.,#121);
#123=PRESENTATION_STYLE_ASSIGNMENT((#122));
#124=STYLED_ITEM('',(#123),#116);
#125=ADVANCED_FACE('',(#529),#531,.T.);
#126=COLOUR_RGB('',0.564705882352941,0.564705882352941,0.564705882352941);
#127=FILL_AREA_STYLE_COLOUR('',#126);
#128=FILL_AREA_STYLE($,(#127));
#129=SURFACE_STYLE_FILL_AREA(#128);
#130=SURFACE_SIDE_STYLE('',(#129));
#131=SURFACE_STYLE_USAGE(.BOTH.,#130);
#132=PRESENTATION_STYLE_ASSIGNMENT((#131));
#133=STYLED_ITEM('',(#132),#125);
#134=ADVANCED_FACE('',(#536),#538,.T.);
#135=COLOUR_RGB('',0.564705882352941,0.564705882352941,0.564705882352941);
#136=FILL_AREA_STYLE_COLOUR('',#135);
#137=FILL_AREA_STYLE($,(#136));
#138=SURFACE_STYLE_FILL_AREA(#137);
#139=SURFACE_SIDE_STYLE('',(#138));
#140=SURFACE_STYLE_USAGE(.BOTH.,#139);
#141=PRESENTATION_STYLE_ASSIGNMENT((#140));
#142=STYLED_ITEM('',(#141),#134);
#143=ADVANCED_FACE('',(#543),#545,.F.);
#144=COLOUR_RGB('',0.564705882352941,0.564705882352941,0.564705882352941);
#145=FILL_AREA_STYLE_COLOUR('',#144);
#146=FILL_AREA_STYLE($,(#145));
#147=SURFACE_STYLE_FILL_AREA(#146);
#148=SURFACE_SIDE_STYLE('',(#147));
#149=SURFACE_STYLE_USAGE(.BOTH.,#148);
#150=PRESENTATION_STYLE_ASSIGNMENT((#149));
#151=STYLED_ITEM('',(#150),#143);
#152=ADVANCED_FACE('',(#550),#552,.T.);
#153=COLOUR_RGB('',0.564705882352941,0.564705882352941,0.564705882352941);
#154=FILL_AREA_STYLE_COLOUR('',#153);
#155=FILL_AREA_STYLE($,(#154));
#156=SURFACE_STYLE_FILL_AREA(#155);
#157=SURFACE_SIDE_STYLE('',(#156));
#158=SURFACE_STYLE_USAGE(.BOTH.,#157);
#159=PRESENTATION_STYLE_ASSIGNMENT((#158));
#160=STYLED_ITEM('',(#159),#152);
#161=ADVANCED_FACE('',(#557),#559,.T.);
#162=COLOUR_RGB('',0.564705882352941,0.564705882352941,0.564705882352941);
#163=FILL_AREA_STYLE_COLOUR('',#162);
#164=FILL_AREA_STYLE($,(#163));
#165=SURFACE_STYLE_FILL_AREA(#164);
#166=SURFACE_SIDE_STYLE('',(#165));
#167=SURFACE_STYLE_USAGE(.BOTH.,#166);
#168=PRESENTATION_STYLE_ASSIGNMENT((#167));
#169=STYLED_ITEM('',(#168),#161);
#170=ADVANCED_FACE('',(#564),#566,.T.);
#171=COLOUR_RGB('',0.564705882352941,0.564705882352941,0.564705882352941);
#172=FILL_AREA_STYLE_COLOUR('',#171);
#173=FILL_AREA_STYLE($,(#172));
#174=SURFACE_STYLE_FILL_AREA(#173);
#175=SURFACE_SIDE_STYLE('',(#174));
#176=SURFACE_STYLE_USAGE(.BOTH.,#175);
#177=PRESENTATION_STYLE_ASSIGNMENT((#176));
#178=STYLED_ITEM('',(#177),#170);
#179=ADVANCED_FACE('',(#571),#573,.F.);
#180=COLOUR_RGB('',0.564705882352941,0.564705882352941,0.564705882352941);
#181=FILL_AREA_STYLE_COLOUR('',#180);
#182=FILL_AREA_STYLE($,(#181));
#183=SURFACE_STYLE_FILL_AREA(#182);
#184=SURFACE_SIDE_STYLE('',(#183));
#185=SURFACE_STYLE_USAGE(.BOTH.,#184);
#186=PRESENTATION_STYLE_ASSIGNMENT((#185));
#187=STYLED_ITEM('',(#186),#179);
#188=ADVANCED_FACE('',(#578),#580,.T.);
#189=COLOUR_RGB('',0.564705882352941,0.564705882352941,0.564705882352941);
#190=FILL_AREA_STYLE_COLOUR('',#189);
#191=FILL_AREA_STYLE($,(#190));
#192=SURFACE_STYLE_FILL_AREA(#191);
#193=SURFACE_SIDE_STYLE('',(#192));
#194=SURFACE_STYLE_USAGE(.BOTH.,#193);
#195=PRESENTATION_STYLE_ASSIGNMENT((#194));
#196=STYLED_ITEM('',(#195),#188);
#197=ADVANCED_FACE('',(#585),#587,.T.);
#198=COLOUR_RGB('',0.564705882352941,0.564705882352941,0.564705882352941);
#199=FILL_AREA_STYLE_COLOUR('',#198);
#200=FILL_AREA_STYLE($,(#199));
#201=SURFACE_STYLE_FILL_AREA(#200);
#202=SURFACE_SIDE_STYLE('',(#201));
#203=SURFACE_STYLE_USAGE(.BOTH.,#202);
#204=PRESENTATION_STYLE_ASSIGNMENT((#203));
#205=STYLED_ITEM('',(#204),#197);
#206=ADVANCED_FACE('',(#592),#594,.T.);
#207=COLOUR_RGB('',0.564705882352941,0.564705882352941,0.564705882352941);
#208=FILL_AREA_STYLE_COLOUR('',#207);
#209=FILL_AREA_STYLE($,(#208));
#210=SURFACE_STYLE_FILL_AREA(#209);
#211=SURFACE_SIDE_STYLE('',(#210));
#212=SURFACE_STYLE_USAGE(.BOTH.,#211);
#213=PRESENTATION_STYLE_ASSIGNMENT((#212));
#214=STYLED_ITEM('',(#213),#206);
#215=ADVANCED_FACE('',(#599),#601,.F.);
#216=COLOUR_RGB('',0.564705882352941,0.564705882352941,0.564705882352941);
#217=FILL_AREA_STYLE_COLOUR('',#216);
#218=FILL_AREA_STYLE($,(#217));
#219=SURFACE_STYLE_FILL_AREA(#218);
#220=SURFACE_SIDE_STYLE('',(#219));
#221=SURFACE_STYLE_USAGE(.BOTH.,#220);
#222=PRESENTATION_STYLE_ASSIGNMENT((#221));
#223=STYLED_ITEM('',(#222),#215);
#224=ADVANCED_FACE('',(#606),#608,.T.);
#225=COLOUR_RGB('',0.564705882352941,0.564705882352941,0.564705882352941);
#226=FILL_AREA_STYLE_COLOUR('',#225);
#227=FILL_AREA_STYLE($,(#226));
#228=SURFACE_STYLE_FILL_AREA(#227);
#229=SURFACE_SIDE_STYLE('',(#228));
#230=SURFACE_STYLE_USAGE(.BOTH.,#229);
#231=PRESENTATION_STYLE_ASSIGNMENT((#230));
#232=STYLED_ITEM('',(#231),#224);
#233=ADVANCED_FACE('',(#613),#615,.T.);
#234=COLOUR_RGB('',0.564705882352941,0.564705882352941,0.564705882352941);
#235=FILL_AREA_STYLE_COLOUR('',#234);
#236=FILL_AREA_STYLE($,(#235));
#237=SURFACE_STYLE_FILL_AREA(#236);
#238=SURFACE_SIDE_STYLE('',(#237));
#239=SURFACE_STYLE_USAGE(.BOTH.,#238);
#240=PRESENTATION_STYLE_ASSIGNMENT((#239));
#241=STYLED_ITEM('',(#240),#233);
#242=ADVANCED_FACE('',(#620),#622,.T.);
#243=COLOUR_RGB('',0.564705882352941,0.564705882352941,0.564705882352941);
#244=FILL_AREA_STYLE_COLOUR('',#243);
#245=FILL_AREA_STYLE($,(#244));
#246=SURFACE_STYLE_FILL_AREA(#245);
#247=SURFACE_SIDE_STYLE('',(#246));
#248=SURFACE_STYLE_USAGE(.BOTH.,#247);
#249=PRESENTATION_STYLE_ASSIGNMENT((#248));
#250=STYLED_ITEM('',(#249),#242);
#251=ADVANCED_FACE('',(#627),#629,.F.);
#252=COLOUR_RGB('',0.564705882352941,0.564705882352941,0.564705882352941);
#253=FILL_AREA_STYLE_COLOUR('',#252);
#254=FILL_AREA_STYLE($,(#253));
#255=SURFACE_STYLE_FILL_AREA(#254);
#256=SURFACE_SIDE_STYLE('',(#255));
#257=SURFACE_STYLE_USAGE(.BOTH.,#256);
#258=PRESENTATION_STYLE_ASSIGNMENT((#257));
#259=STYLED_ITEM('',(#258),#251);
#260=ADVANCED_FACE('',(#634),#636,.T.);
#261=COLOUR_RGB('',0.564705882352941,0.564705882352941,0.564705882352941);
#262=FILL_AREA_STYLE_COLOUR('',#261);
#263=FILL_AREA_STYLE($,(#262));
#264=SURFACE_STYLE_FILL_AREA(#263);
#265=SURFACE_SIDE_STYLE('',(#264));
#266=SURFACE_STYLE_USAGE(.BOTH.,#265);
#267=PRESENTATION_STYLE_ASSIGNMENT((#266));
#268=STYLED_ITEM('',(#267),#260);
#269=ADVANCED_FACE('',(#641),#643,.T.);
#270=COLOUR_RGB('',0.564705882352941,0.564705882352941,0.564705882352941);
#271=FILL_AREA_STYLE_COLOUR('',#270);
#272=FILL_AREA_STYLE($,(#271));
#273=SURFACE_STYLE_FILL_AREA(#272);
#274=SURFACE_SIDE_STYLE('',(#273));
#275=SURFACE_STYLE_USAGE(.BOTH.,#274);
#276=PRESENTATION_STYLE_ASSIGNMENT((#275));
#277=STYLED_ITEM('',(#276),#269);
#278=ADVANCED_FACE('',(#648),#650,.T.);
#279=COLOUR_RGB('',0.564705882352941,0.564705882352941,0.564705882352941);
#280=FILL_AREA_STYLE_COLOUR('',#279);
#281=FILL_AREA_STYLE($,(#280));
#282=SURFACE_STYLE_FILL_AREA(#281);
#283=SURFACE_SIDE_STYLE('',(#282));
#284=SURFACE_STYLE_USAGE(.BOTH.,#283);
#285=PRESENTATION_STYLE_ASSIGNMENT((#284));
#286=STYLED_ITEM('',(#285),#278);
#287=ADVANCED_FACE('',(#655),#657,.F.);
#288=COLOUR_RGB('',0.564705882352941,0.564705882352941,0.564705882352941);
#289=FILL_AREA_STYLE_COLOUR('',#288);
#290=FILL_AREA_STYLE($,(#289));
#291=SURFACE_STYLE_FILL_AREA(#290);
#292=SURFACE_SIDE_STYLE('',(#291));
#293=SURFACE_STYLE_USAGE(.BOTH.,#292);
#294=PRESENTATION_STYLE_ASSIGNMENT((#293));
#295=STYLED_ITEM('',(#294),#287);
#296=ADVANCED_FACE('',(#662),#664,.T.);
#297=COLOUR_RGB('',0.564705882352941,0.564705882352941,0.564705882352941);
#298=FILL_AREA_STYLE_COLOUR('',#297);
#299=FILL_AREA_STYLE($,(#298));
#300=SURFACE_STYLE_FILL_AREA(#299);
#301=SURFACE_SIDE_STYLE('',(#300));
#302=SURFACE_STYLE_USAGE(.BOTH.,#301);
#303=PRESENTATION_STYLE_ASSIGNMENT((#302));
#304=STYLED_ITEM('',(#303),#296);
#305=ADVANCED_FACE('',(#669),#671,.T.);
#306=COLOUR_RGB('',0.564705882352941,0.564705882352941,0.564705882352941);
#307=FILL_AREA_STYLE_COLOUR('',#306);
#308=FILL_AREA_STYLE($,(#307));
#309=SURFACE_STYLE_FILL_AREA(#308);
#310=SURFACE_SIDE_STYLE('',(#309));
#311=SURFACE_STYLE_USAGE(.BOTH.,#310);
#312=PRESENTATION_STYLE_ASSIGNMENT((#311));
#313=STYLED_ITEM('',(#312),#305);
#314=ADVANCED_FACE('',(#676),#678,.T.);
#315=COLOUR_RGB('',0.564705882352941,0.564705882352941,0.564705882352941);
#316=FILL_AREA_STYLE_COLOUR('',#315);
#317=FILL_AREA_STYLE($,(#316));
#318=SURFACE_STYLE_FILL_AREA(#317);
#319=SURFACE_SIDE_STYLE('',(#318));
#320=SURFACE_STYLE_USAGE(.BOTH.,#319);
#321=PRESENTATION_STYLE_ASSIGNMENT((#320));
#322=STYLED_ITEM('',(#321),#314);
#323=ADVANCED_FACE('',(#683),#685,.F.);
#324=COLOUR_RGB('',0.564705882352941,0.564705882352941,0.564705882352941);
#325=FILL_AREA_STYLE_COLOUR('',#324);
#326=FILL_AREA_STYLE($,(#325));
#327=SURFACE_STYLE_FILL_AREA(#326);
#328=SURFACE_SIDE_STYLE('',(#327));
#329=SURFACE_STYLE_USAGE(.BOTH.,#328);
#330=PRESENTATION_STYLE_ASSIGNMENT((#329));
#331=STYLED_ITEM('',(#330),#323);
#332=ADVANCED_FACE('',(#690),#692,.T.);
#333=COLOUR_RGB('',0.564705882352941,0.564705882352941,0.564705882352941);
#334=FILL_AREA_STYLE_COLOUR('',#333);
#335=FILL_AREA_STYLE($,(#334));
#336=SURFACE_STYLE_FILL_AREA(#335);
#337=SURFACE_SIDE_STYLE('',(#336));
#338=SURFACE_STYLE_USAGE(.BOTH.,#337);
#339=PRESENTATION_STYLE_ASSIGNMENT((#338));
#340=STYLED_ITEM('',(#339),#332);
#341=ADVANCED_FACE('',(#697),#699,.T.);
#342=COLOUR_RGB('',0.564705882352941,0.564705882352941,0.564705882352941);
#343=FILL_AREA_STYLE_COLOUR('',#342);
#344=FILL_AREA_STYLE($,(#343));
#345=SURFACE_STYLE_FILL_AREA(#344);
#346=SURFACE_SIDE_STYLE('',(#345));
#347=SURFACE_STYLE_USAGE(.BOTH.,#346);
#348=PRESENTATION_STYLE_ASSIGNMENT((#347));
#349=STYLED_ITEM('',(#348),#341);
#350=ADVANCED_FACE('',(#704),#706,.T.);
#351=COLOUR_RGB('',0.564705882352941,0.564705882352941,0.564705882352941);
#352=FILL_AREA_STYLE_COLOUR('',#351);
#353=FILL_AREA_STYLE($,(#352));
#354=SURFACE_STYLE_FILL_AREA(#353);
#355=SURFACE_SIDE_STYLE('',(#354));
#356=SURFACE_STYLE_USAGE(.BOTH.,#355);
#357=PRESENTATION_STYLE_ASSIGNMENT((#356));
#358=STYLED_ITEM('',(#357),#350);
#359=ADVANCED_FACE('',(#711),#713,.F.);
#360=COLOUR_RGB('',0.564705882352941,0.564705882352941,0.564705882352941);
#361=FILL_AREA_STYLE_COLOUR('',#360);
#362=FILL_AREA_STYLE($,(#361));
#363=SURFACE_STYLE_FILL_AREA(#362);
#364=SURFACE_SIDE_STYLE('',(#363));
#365=SURFACE_STYLE_USAGE(.BOTH.,#364);
#366=PRESENTATION_STYLE_ASSIGNMENT((#365));
#367=STYLED_ITEM('',(#366),#359);
#368=ADVANCED_FACE('',(#718),#720,.T.);
#369=COLOUR_RGB('',0.564705882352941,0.564705882352941,0.564705882352941);
#370=FILL_AREA_STYLE_COLOUR('',#369);
#371=FILL_AREA_STYLE($,(#370));
#372=SURFACE_STYLE_FILL_AREA(#371);
#373=SURFACE_SIDE_STYLE('',(#372));
#374=SURFACE_STYLE_USAGE(.BOTH.,#373);
#375=PRESENTATION_STYLE_ASSIGNMENT((#374));
#376=STYLED_ITEM('',(#375),#368);
#377=ADVANCED_FACE('',(#725),#727,.T.);
#378=COLOUR_RGB('',0.564705882352941,0.564705882352941,0.564705882352941);
#379=FILL_AREA_STYLE_COLOUR('',#378);
#380=FILL_AREA_STYLE($,(#379));
#381=SURFACE_STYLE_FILL_AREA(#380);
#382=SURFACE_SIDE_STYLE('',(#381));
#383=SURFACE_STYLE_USAGE(.BOTH.,#382);
#384=PRESENTATION_STYLE_ASSIGNMENT((#383));
#385=STYLED_ITEM('',(#384),#377);
#386=ADVANCED_FACE('',(#732),#734,.T.);
#387=COLOUR_RGB('',0.564705882352941,0.564705882352941,0.564705882352941);
#388=FILL_AREA_STYLE_COLOUR('',#387);
#389=FILL_AREA_STYLE($,(#388));
#390=SURFACE_STYLE_FILL_AREA(#389);
#391=SURFACE_SIDE_STYLE('',(#390));
#392=SURFACE_STYLE_USAGE(.BOTH.,#391);
#393=PRESENTATION_STYLE_ASSIGNMENT((#392));
#394=STYLED_ITEM('',(#393),#386);
#395=ADVANCED_FACE('',(#739),#741,.F.);
#396=COLOUR_RGB('',0.564705882352941,0.564705882352941,0.564705882352941);
#397=FILL_AREA_STYLE_COLOUR('',#396);
#398=FILL_AREA_STYLE($,(#397));
#399=SURFACE_STYLE_FILL_AREA(#398);
#400=SURFACE_SIDE_STYLE('',(#399));
#401=SURFACE_STYLE_USAGE(.BOTH.,#400);
#402=PRESENTATION_STYLE_ASSIGNMENT((#401));
#403=STYLED_ITEM('',(#402),#395);
#404=ADVANCED_FACE('',(#746),#748,.T.);
#405=COLOUR_RGB('',0.564705882352941,0.564705882352941,0.564705882352941);
#406=FILL_AREA_STYLE_COLOUR('',#405);
#407=FILL_AREA_STYLE($,(#406));
#408=SURFACE_STYLE_FILL_AREA(#407);
#409=SURFACE_SIDE_STYLE('',(#408));
#410=SURFACE_STYLE_USAGE(.BOTH.,#409);
#411=PRESENTATION_STYLE_ASSIGNMENT((#410));
#412=STYLED_ITEM('',(#411),#404);
#413=ADVANCED_FACE('',(#753),#755,.T.);
#414=COLOUR_RGB('',0.564705882352941,0.564705882352941,0.564705882352941);
#415=FILL_AREA_STYLE_COLOUR('',#414);
#416=FILL_AREA_STYLE($,(#415));
#417=SURFACE_STYLE_FILL_AREA(#416);
#418=SURFACE_SIDE_STYLE('',(#417));
#419=SURFACE_STYLE_USAGE(.BOTH.,#418);
#420=PRESENTATION_STYLE_ASSIGNMENT((#419));
#421=STYLED_ITEM('',(#420),#413);
#422=ADVANCED_FACE('',(#760),#762,.T.);
#423=COLOUR_RGB('',0.564705882352941,0.564705882352941,0.564705882352941);
#424=FILL_AREA_STYLE_COLOUR('',#423);
#425=FILL_AREA_STYLE($,(#424));
#426=SURFACE_STYLE_FILL_AREA(#425);
#427=SURFACE_SIDE_STYLE('',(#426));
#428=SURFACE_STYLE_USAGE(.BOTH.,#427);
#429=PRESENTATION_STYLE_ASSIGNMENT((#428));
#430=STYLED_ITEM('',(#429),#422);
#431=ADVANCED_FACE('',(#767),#769,.F.);
#432=COLOUR_RGB('',0.564705882352941,0.564705882352941,0.564705882352941);
#433=FILL_AREA_STYLE_COLOUR('',#432);
#434=FILL_AREA_STYLE($,(#433));
#435=SURFACE_STYLE_FILL_AREA(#434);
#436=SURFACE_SIDE_STYLE('',(#435));
#437=SURFACE_STYLE_USAGE(.BOTH.,#436);
#438=PRESENTATION_STYLE_ASSIGNMENT((#437));
#439=STYLED_ITEM('',(#438),#431);
#440=ADVANCED_FACE('',(#774),#776,.F.);
#441=COLOUR_RGB('',0.564705882352941,0.564705882352941,0.564705882352941);
#442=FILL_AREA_STYLE_COLOUR('',#441);
#443=FILL_AREA_STYLE($,(#442));
#444=SURFACE_STYLE_FILL_AREA(#443);
#445=SURFACE_SIDE_STYLE('',(#444));
#446=SURFACE_STYLE_USAGE(.BOTH.,#445);
#447=PRESENTATION_STYLE_ASSIGNMENT((#446));
#448=STYLED_ITEM('',(#447),#440);
#449=ADVANCED_FACE('',(#781),#783,.F.);
#450=COLOUR_RGB('',0.564705882352941,0.564705882352941,0.564705882352941);
#451=FILL_AREA_STYLE_COLOUR('',#450);
#452=FILL_AREA_STYLE($,(#451));
#453=SURFACE_STYLE_FILL_AREA(#452);
#454=SURFACE_SIDE_STYLE('',(#453));
#455=SURFACE_STYLE_USAGE(.BOTH.,#454);
#456=PRESENTATION_STYLE_ASSIGNMENT((#455));
#457=STYLED_ITEM('',(#456),#449);
#458=ADVANCED_FACE('',(#788,#790),#792,.T.);
#459=COLOUR_RGB('',0.564705882352941,0.564705882352941,0.564705882352941);
#460=FILL_AREA_STYLE_COLOUR('',#459);
#461=FILL_AREA_STYLE($,(#460));
#462=SURFACE_STYLE_FILL_AREA(#461);
#463=SURFACE_SIDE_STYLE('',(#462));
#464=SURFACE_STYLE_USAGE(.BOTH.,#463);
#465=PRESENTATION_STYLE_ASSIGNMENT((#464));
#466=STYLED_ITEM('',(#465),#458);
#467=FACE_BOUND('',#468,.T.);
#468=EDGE_LOOP('',(#797,#798,#799,#800,#801,#802,#803,#804,#805,#806,#807,#808,#809,
#810,#811,#812,#813,#814,#815,#816,#817,#818,#819,#820,#821,#822,#823,#824,#825,
#826,#827,#828,#829,#830,#831,#832,#833,#834,#835,#836));
#469=FACE_BOUND('',#470,.T.);
#470=EDGE_LOOP('',(#837));
#471=PLANE('',#472);
#472=AXIS2_PLACEMENT_3D('',#473,#474,#475);
#473=CARTESIAN_POINT('',(0.,0.,0.));
#474=DIRECTION('',(0.,0.,1.));
#475=DIRECTION('',(-1.,1.22464679914735E-16,0.));
#476=FACE_BOUND('',#477,.T.);
#477=EDGE_LOOP('',(#838,#839));
#478=FACE_BOUND('',#479,.T.);
#479=EDGE_LOOP('',(#840));
#480=PLANE('',#481);
#481=AXIS2_PLACEMENT_3D('',#482,#483,#484);
#482=CARTESIAN_POINT('',(0.,0.,1.4));
#483=DIRECTION('',(0.,0.,1.));
#484=DIRECTION('',(-1.,1.22464679914735E-16,0.));
#485=FACE_OUTER_BOUND('',#486,.T.);
#486=EDGE_LOOP('',(#841));
#487=FACE_OUTER_BOUND('',#488,.T.);
#488=EDGE_LOOP('',(#842));
#489=CYLINDRICAL_SURFACE('',#490,1.);
#490=AXIS2_PLACEMENT_3D('',#491,#492,#493);
#491=CARTESIAN_POINT('',(0.,0.,6.));
#492=DIRECTION('',(0.,0.,-1.));
#493=DIRECTION('',(-1.,0.,0.));
#494=FACE_BOUND('',#495,.T.);
#495=EDGE_LOOP('',(#843,#844,#845,#846));
#496=PLANE('',#497);
#497=AXIS2_PLACEMENT_3D('',#498,#499,#500);
#498=CARTESIAN_POINT('',(1.99992333400925,-22.0775454584599,0.));
#499=DIRECTION('',(0.99993697532198,0.0112269935392068,0.));
#500=DIRECTION('',(-0.0112269935392068,0.99993697532198,0.));
#501=FACE_BOUND('',#502,.T.);
#502=EDGE_LOOP('',(#847,#848,#849,#850));
#503=CYLINDRICAL_SURFACE('',#504,2.00004938654533);
#504=AXIS2_PLACEMENT_3D('',#505,#506,#507);
#505=CARTESIAN_POINT('',(-2.70646942611565E-15,-22.1,0.));
#506=DIRECTION('',(0.,0.,1.));
#507=DIRECTION('',(-0.999999269020386,0.00120911483915612,0.));
#508=FACE_BOUND('',#509,.T.);
#509=EDGE_LOOP('',(#851,#852,#853,#854));
#510=PLANE('',#511);
#511=AXIS2_PLACEMENT_3D('',#512,#513,#514);
#512=CARTESIAN_POINT('',(-1.99291041414997,-16.1944987680086,0.));
#513=DIRECTION('',(-0.999999269020386,0.00120911483915626,0.));
#514=DIRECTION('',(-0.00120911483915626,-0.999999269020386,0.));
#515=FACE_BOUND('',#516,.T.);
#516=EDGE_LOOP('',(#855,#856,#857,#858));
#517=CYLINDRICAL_SURFACE('',#518,3.24989725914383);
#518=AXIS2_PLACEMENT_3D('',#519,#520,#521);
#519=CARTESIAN_POINT('',(-5.23847762324503,-16.0267916237437,0.));
#520=DIRECTION('',(0.,0.,-1.));
#521=DIRECTION('',(-0.815565067569293,0.578665378747247,0.));
#522=FACE_BOUND('',#523,.T.);
#523=EDGE_LOOP('',(#859,#860,#861,#862));
#524=PLANE('',#525);
#525=AXIS2_PLACEMENT_3D('',#526,#527,#528);
#526=CARTESIAN_POINT('',(-11.3588836626389,-19.0366349114257,0.));
#527=DIRECTION('',(0.815565067569293,-0.578665378747246,0.));
#528=DIRECTION('',(0.578665378747246,0.815565067569293,0.));
#529=FACE_BOUND('',#530,.T.);
#530=EDGE_LOOP('',(#863,#864,#865,#866));
#531=CYLINDRICAL_SURFACE('',#532,2.00004938654533);
#532=AXIS2_PLACEMENT_3D('',#533,#534,#535);
#533=CARTESIAN_POINT('',(-12.9900540756637,-17.8792755756863,0.));
#534=DIRECTION('',(0.,0.,1.));
#535=DIRECTION('',(-0.808305703129233,0.588763017086465,0.));
#536=FACE_BOUND('',#537,.T.);
#537=EDGE_LOOP('',(#867,#868,#869,#870));
#538=PLANE('',#539);
#539=AXIS2_PLACEMENT_3D('',#540,#541,#542);
#540=CARTESIAN_POINT('',(-11.1311859374183,-11.9302213681258,0.));
#541=DIRECTION('',(-0.808305703129233,0.588763017086465,0.));
#542=DIRECTION('',(-0.588763017086465,-0.808305703129233,0.));
#543=FACE_BOUND('',#544,.T.);
#544=EDGE_LOOP('',(#871,#872,#873,#874));
#545=CYLINDRICAL_SURFACE('',#546,3.24989725914383);
#546=AXIS2_PLACEMENT_3D('',#547,#548,#549);
#547=CARTESIAN_POINT('',(-13.6583291798592,-9.88684689750719,0.));
#548=DIRECTION('',(0.,0.,-1.));
#549=DIRECTION('',(-0.31967502404224,0.947527244465083,0.));
#550=FACE_BOUND('',#551,.T.);
#551=EDGE_LOOP('',(#875,#876,#877,#878));
#552=PLANE('',#553);
#553=AXIS2_PLACEMENT_3D('',#554,#555,#556);
#554=CARTESIAN_POINT('',(-20.3789831744149,-8.72437685964978,0.));
#555=DIRECTION('',(0.319675024042241,-0.947527244465083,0.));
#556=DIRECTION('',(0.947527244465083,0.319675024042241,0.));
#557=FACE_BOUND('',#558,.T.);
#558=EDGE_LOOP('',(#879,#880,#881,#882));
#559=CYLINDRICAL_SURFACE('',#560,2.00004938654533);
#560=AXIS2_PLACEMENT_3D('',#561,#562,#563);
#561=CARTESIAN_POINT('',(-21.0183490101229,-6.82927557568633,0.));
#562=DIRECTION('',(0.,0.,1.));
#563=DIRECTION('',(-0.307866831943095,0.951429458125678,0.));
#564=FACE_BOUND('',#565,.T.);
#565=EDGE_LOOP('',(#883,#884,#885,#886));
#566=PLANE('',#567);
#567=AXIS2_PLACEMENT_3D('',#568,#569,#570);
#568=CARTESIAN_POINT('',(-16.0177267676877,-3.10900489892904,0.));
#569=DIRECTION('',(-0.307866831943095,0.951429458125678,0.));
#570=DIRECTION('',(-0.951429458125678,-0.307866831943095,0.));
#571=FACE_BOUND('',#572,.T.);
#572=EDGE_LOOP('',(#887,#888,#889,#890));
#573=CYLINDRICAL_SURFACE('',#574,3.24989725914383);
#574=AXIS2_PLACEMENT_3D('',#575,#576,#577);
#575=CARTESIAN_POINT('',(-16.8611632193017,0.029537302010658,0.));
#576=DIRECTION('',(0.,0.,-1.));
#577=DIRECTION('',(0.298320013314508,0.954465908063788,0.));
#578=FACE_BOUND('',#579,.T.);
#579=EDGE_LOOP('',(#891,#892,#893,#894));
#580=PLANE('',#581);
#581=AXIS2_PLACEMENT_3D('',#582,#583,#584);
#582=CARTESIAN_POINT('',(-21.6150037697266,4.92029662184933,0.));
#583=DIRECTION('',(-0.298320013314508,-0.954465908063788,0.));
#584=DIRECTION('',(0.954465908063788,-0.298320013314508,0.));
#585=FACE_BOUND('',#586,.T.);
#586=EDGE_LOOP('',(#895,#896,#897,#898));
#587=CYLINDRICAL_SURFACE('',#588,2.00004938654533);
#588=AXIS2_PLACEMENT_3D('',#589,#590,#591);
#589=CARTESIAN_POINT('',(-21.0183490101229,6.82927557568634,0.));
#590=DIRECTION('',(0.,0.,1.));
#591=DIRECTION('',(0.310166705036553,0.950682184058778,0.));
#592=FACE_BOUND('',#593,.T.);
#593=EDGE_LOOP('',(#899,#900,#901,#902));
#594=PLANE('',#595);
#595=AXIS2_PLACEMENT_3D('',#596,#597,#598);
#596=CARTESIAN_POINT('',(-14.7860403952095,6.89974577046868,0.));
#597=DIRECTION('',(0.310166705036553,0.950682184058778,0.));
#598=DIRECTION('',(-0.950682184058778,0.310166705036553,0.));
#599=FACE_BOUND('',#600,.T.);
#600=EDGE_LOOP('',(#903,#904,#905,#906));
#601=CYLINDRICAL_SURFACE('',#602,3.24989725914383);
#602=AXIS2_PLACEMENT_3D('',#603,#604,#605);
#603=CARTESIAN_POINT('',(-13.6236059988305,9.93463925609641,0.));
#604=DIRECTION('',(0.,0.,-1.));
#605=DIRECTION('',(0.802366945109436,0.596831035885158,0.));
#606=FACE_BOUND('',#607,.T.);
#607=EDGE_LOOP('',(#907,#908,#909,#910));
#608=PLANE('',#609);
#609=AXIS2_PLACEMENT_3D('',#610,#611,#612);
#610=CARTESIAN_POINT('',(-14.5948275919599,16.6855840285333,0.));
#611=DIRECTION('',(-0.802366945109436,-0.596831035885158,0.));
#612=DIRECTION('',(0.596831035885158,-0.802366945109436,0.));
#613=FACE_BOUND('',#614,.T.);
#614=EDGE_LOOP('',(#911,#912,#913,#914));
#615=CYLINDRICAL_SURFACE('',#616,2.00004938654533);
#616=AXIS2_PLACEMENT_3D('',#617,#618,#619);
#617=CARTESIAN_POINT('',(-12.9900540756637,17.8792755756863,0.));
#618=DIRECTION('',(0.,0.,1.));
#619=DIRECTION('',(0.809727102870801,0.586806628180408,0.));
#620=FACE_BOUND('',#621,.T.);
#621=EDGE_LOOP('',(#915,#916,#917,#918));
#622=PLANE('',#623);
#623=AXIS2_PLACEMENT_3D('',#624,#625,#626);
#624=CARTESIAN_POINT('',(-7.90658915079004,14.2730280692807,0.));
#625=DIRECTION('',(0.809727102870801,0.586806628180408,0.));
#626=DIRECTION('',(-0.586806628180408,0.809727102870801,0.));
#627=FACE_BOUND('',#628,.T.);
#628=EDGE_LOOP('',(#919,#920,#921,#922));
#629=CYLINDRICAL_SURFACE('',#630,3.24989725914383);
#630=AXIS2_PLACEMENT_3D('',#631,#632,#633);
#631=CARTESIAN_POINT('',(-5.182294336143,16.0450466803223,0.));
#632=DIRECTION('',(0.,0.,-1.));
#633=DIRECTION('',(0.99993697532198,0.0112269935392069,0.));
#634=FACE_BOUND('',#635,.T.);
#635=EDGE_LOOP('',(#923,#924,#925,#926));
#636=PLANE('',#637);
#637=AXIS2_PLACEMENT_3D('',#638,#639,#640);
#638=CARTESIAN_POINT('',(-1.99992333400925,22.0775454584599,0.));
#639=DIRECTION('',(-0.99993697532198,-0.0112269935392067,0.));
#640=DIRECTION('',(0.0112269935392067,-0.99993697532198,0.));
#641=FACE_BOUND('',#642,.T.);
#642=EDGE_LOOP('',(#927,#928,#929,#930));
#643=CYLINDRICAL_SURFACE('',#644,2.00004938654533);
#644=AXIS2_PLACEMENT_3D('',#645,#646,#647);
#645=CARTESIAN_POINT('',(5.4129388522313E-15,22.1,0.));
#646=DIRECTION('',(0.,0.,1.));
#647=DIRECTION('',(0.999999269020386,-0.00120911483915612,0.));
#648=FACE_BOUND('',#649,.T.);
#649=EDGE_LOOP('',(#931,#932,#933,#934));
#650=PLANE('',#651);
#651=AXIS2_PLACEMENT_3D('',#652,#653,#654);
#652=CARTESIAN_POINT('',(1.99291041414997,16.1944987680087,0.));
#653=DIRECTION('',(0.999999269020386,-0.00120911483915635,0.));
#654=DIRECTION('',(0.00120911483915635,0.999999269020386,0.));
#655=FACE_BOUND('',#656,.T.);
#656=EDGE_LOOP('',(#935,#936,#937,#938));
#657=CYLINDRICAL_SURFACE('',#658,3.24989725914383);
#658=AXIS2_PLACEMENT_3D('',#659,#660,#661);
#659=CARTESIAN_POINT('',(5.23847762324503,16.0267916237437,0.));
#660=DIRECTION('',(0.,0.,-1.));
#661=DIRECTION('',(0.815565067569293,-0.578665378747247,0.));
#662=FACE_BOUND('',#663,.T.);
#663=EDGE_LOOP('',(#939,#940,#941,#942));
#664=PLANE('',#665);
#665=AXIS2_PLACEMENT_3D('',#666,#667,#668);
#666=CARTESIAN_POINT('',(11.3588836626389,19.0366349114257,0.));
#667=DIRECTION('',(-0.815565067569293,0.578665378747246,0.));
#668=DIRECTION('',(-0.578665378747246,-0.815565067569293,0.));
#669=FACE_BOUND('',#670,.T.);
#670=EDGE_LOOP('',(#943,#944,#945,#946));
#671=CYLINDRICAL_SURFACE('',#672,2.00004938654533);
#672=AXIS2_PLACEMENT_3D('',#673,#674,#675);
#673=CARTESIAN_POINT('',(12.9900540756637,17.8792755756863,0.));
#674=DIRECTION('',(0.,0.,1.));
#675=DIRECTION('',(0.808305703129233,-0.588763017086465,0.));
#676=FACE_BOUND('',#677,.T.);
#677=EDGE_LOOP('',(#947,#948,#949,#950));
#678=PLANE('',#679);
#679=AXIS2_PLACEMENT_3D('',#680,#681,#682);
#680=CARTESIAN_POINT('',(11.1311859374183,11.9302213681258,0.));
#681=DIRECTION('',(0.808305703129233,-0.588763017086465,0.));
#682=DIRECTION('',(0.588763017086465,0.808305703129233,0.));
#683=FACE_BOUND('',#684,.T.);
#684=EDGE_LOOP('',(#951,#952,#953,#954));
#685=CYLINDRICAL_SURFACE('',#686,3.24989725914383);
#686=AXIS2_PLACEMENT_3D('',#687,#688,#689);
#687=CARTESIAN_POINT('',(13.6583291798592,9.88684689750719,0.));
#688=DIRECTION('',(0.,0.,-1.));
#689=DIRECTION('',(0.319675024042241,-0.947527244465083,0.));
#690=FACE_BOUND('',#691,.T.);
#691=EDGE_LOOP('',(#955,#956,#957,#958));
#692=PLANE('',#693);
#693=AXIS2_PLACEMENT_3D('',#694,#695,#696);
#694=CARTESIAN_POINT('',(20.3789831744149,8.72437685964978,0.));
#695=DIRECTION('',(-0.319675024042241,0.947527244465083,0.));
#696=DIRECTION('',(-0.947527244465083,-0.319675024042241,0.));
#697=FACE_BOUND('',#698,.T.);
#698=EDGE_LOOP('',(#959,#960,#961,#962));
#699=CYLINDRICAL_SURFACE('',#700,2.00004938654533);
#700=AXIS2_PLACEMENT_3D('',#701,#702,#703);
#701=CARTESIAN_POINT('',(21.0183490101229,6.82927557568633,0.));
#702=DIRECTION('',(0.,0.,1.));
#703=DIRECTION('',(0.307866831943095,-0.951429458125678,0.));
#704=FACE_BOUND('',#705,.T.);
#705=EDGE_LOOP('',(#963,#964,#965,#966));
#706=PLANE('',#707);
#707=AXIS2_PLACEMENT_3D('',#708,#709,#710);
#708=CARTESIAN_POINT('',(16.0177267676877,3.10900489892905,0.));
#709=DIRECTION('',(0.307866831943095,-0.951429458125678,0.));
#710=DIRECTION('',(0.951429458125678,0.307866831943095,0.));
#711=FACE_BOUND('',#712,.T.);
#712=EDGE_LOOP('',(#967,#968,#969,#970));
#713=CYLINDRICAL_SURFACE('',#714,3.24989725914383);
#714=AXIS2_PLACEMENT_3D('',#715,#716,#717);
#715=CARTESIAN_POINT('',(16.8611632193017,-0.0295373020106563,0.));
#716=DIRECTION('',(0.,0.,-1.));
#717=DIRECTION('',(-0.298320013314508,-0.954465908063788,0.));
#718=FACE_BOUND('',#719,.T.);
#719=EDGE_LOOP('',(#971,#972,#973,#974));
#720=PLANE('',#721);
#721=AXIS2_PLACEMENT_3D('',#722,#723,#724);
#722=CARTESIAN_POINT('',(21.6150037697266,-4.92029662184933,0.));
#723=DIRECTION('',(0.298320013314508,0.954465908063788,0.));
#724=DIRECTION('',(-0.954465908063788,0.298320013314508,0.));
#725=FACE_BOUND('',#726,.T.);
#726=EDGE_LOOP('',(#975,#976,#977,#978));
#727=CYLINDRICAL_SURFACE('',#728,2.00004938654533);
#728=AXIS2_PLACEMENT_3D('',#729,#730,#731);
#729=CARTESIAN_POINT('',(21.0183490101229,-6.82927557568634,0.));
#730=DIRECTION('',(0.,0.,1.));
#731=DIRECTION('',(-0.310166705036553,-0.950682184058778,0.));
#732=FACE_BOUND('',#733,.T.);
#733=EDGE_LOOP('',(#979,#980,#981,#982));
#734=PLANE('',#735);
#735=AXIS2_PLACEMENT_3D('',#736,#737,#738);
#736=CARTESIAN_POINT('',(14.7860403952094,-6.89974577046866,0.));
#737=DIRECTION('',(-0.310166705036553,-0.950682184058778,0.));
#738=DIRECTION('',(0.950682184058778,-0.310166705036553,0.));
#739=FACE_BOUND('',#740,.T.);
#740=EDGE_LOOP('',(#983,#984,#985,#986));
#741=CYLINDRICAL_SURFACE('',#742,3.24989725914383);
#742=AXIS2_PLACEMENT_3D('',#743,#744,#745);
#743=CARTESIAN_POINT('',(13.6236059988305,-9.93463925609641,0.));
#744=DIRECTION('',(0.,0.,-1.));
#745=DIRECTION('',(-0.802366945109436,-0.596831035885159,0.));
#746=FACE_BOUND('',#747,.T.);
#747=EDGE_LOOP('',(#987,#988,#989,#990));
#748=PLANE('',#749);
#749=AXIS2_PLACEMENT_3D('',#750,#751,#752);
#750=CARTESIAN_POINT('',(14.5948275919599,-16.6855840285333,0.));
#751=DIRECTION('',(0.802366945109436,0.596831035885158,0.));
#752=DIRECTION('',(-0.596831035885158,0.802366945109436,0.));
#753=FACE_BOUND('',#754,.T.);
#754=EDGE_LOOP('',(#991,#992,#993,#994));
#755=CYLINDRICAL_SURFACE('',#756,2.00004938654533);
#756=AXIS2_PLACEMENT_3D('',#757,#758,#759);
#757=CARTESIAN_POINT('',(12.9900540756637,-17.8792755756863,0.));
#758=DIRECTION('',(0.,0.,1.));
#759=DIRECTION('',(-0.809727102870801,-0.586806628180408,0.));
#760=FACE_BOUND('',#761,.T.);
#761=EDGE_LOOP('',(#995,#996,#997,#998));
#762=PLANE('',#763);
#763=AXIS2_PLACEMENT_3D('',#764,#765,#766);
#764=CARTESIAN_POINT('',(7.90658915079004,-14.2730280692807,0.));
#765=DIRECTION('',(-0.809727102870801,-0.586806628180408,0.));
#766=DIRECTION('',(0.586806628180408,-0.809727102870801,0.));
#767=FACE_BOUND('',#768,.T.);
#768=EDGE_LOOP('',(#999,#1000,#1001,#1002));
#769=CYLINDRICAL_SURFACE('',#770,3.24989725914383);
#770=AXIS2_PLACEMENT_3D('',#771,#772,#773);
#771=CARTESIAN_POINT('',(5.182294336143,-16.0450466803223,0.));
#772=DIRECTION('',(0.,0.,-1.));
#773=DIRECTION('',(-0.99993697532198,-0.0112269935392069,0.));
#774=FACE_BOUND('',#775,.T.);
#775=EDGE_LOOP('',(#1003,#1004,#1005,#1006));
#776=PLANE('',#777);
#777=AXIS2_PLACEMENT_3D('',#778,#779,#780);
#778=CARTESIAN_POINT('',(3.04999981283024,0.0010685202271619,-1.));
#779=DIRECTION('',(0.826032102280826,0.563623070856329,0.));
#780=DIRECTION('',(-0.563623070856329,0.826032102280826,0.));
#781=FACE_BOUND('',#782,.T.);
#782=EDGE_LOOP('',(#1007,#1008,#1009,#1010));
#783=CYLINDRICAL_SURFACE('',#784,3.05);
#784=AXIS2_PLACEMENT_3D('',#785,#786,#787);
#785=CARTESIAN_POINT('',(0.,0.,-1.));
#786=DIRECTION('',(0.,0.,1.));
#787=DIRECTION('',(0.364984256611514,0.931013690783192,0.));
#788=FACE_BOUND('',#789,.T.);
#789=EDGE_LOOP('',(#1011,#1012,#1013,#1014,#1015,#1016,#1017,#1018,#1019,#1020,#1021,
#1022,#1023,#1024,#1025,#1026,#1027,#1028,#1029,#1030,#1031,#1032,#1033,#1034,#1035,
#1036,#1037,#1038,#1039,#1040,#1041,#1042,#1043,#1044,#1045,#1046,#1047,#1048,#1049,
#1050));
#790=FACE_BOUND('',#791,.T.);
#791=EDGE_LOOP('',(#1051,#1052));
#792=PLANE('',#793);
#793=AXIS2_PLACEMENT_3D('',#794,#795,#796);
#794=CARTESIAN_POINT('',(0.,0.,6.));
#795=DIRECTION('',(0.,0.,1.));
#796=DIRECTION('',(-1.,1.22464679914735E-16,0.));
#797=ORIENTED_EDGE('',*,*,#1053,.F.);
#798=ORIENTED_EDGE('',*,*,#1054,.F.);
#799=ORIENTED_EDGE('',*,*,#1055,.F.);
#800=ORIENTED_EDGE('',*,*,#1056,.F.);
#801=ORIENTED_EDGE('',*,*,#1057,.F.);
#802=ORIENTED_EDGE('',*,*,#1058,.F.);
#803=ORIENTED_EDGE('',*,*,#1059,.F.);
#804=ORIENTED_EDGE('',*,*,#1060,.F.);
#805=ORIENTED_EDGE('',*,*,#1061,.F.);
#806=ORIENTED_EDGE('',*,*,#1062,.F.);
#807=ORIENTED_EDGE('',*,*,#1063,.F.);
#808=ORIENTED_EDGE('',*,*,#1064,.F.);
#809=ORIENTED_EDGE('',*,*,#1065,.F.);
#810=ORIENTED_EDGE('',*,*,#1066,.F.);
#811=ORIENTED_EDGE('',*,*,#1067,.F.);
#812=ORIENTED_EDGE('',*,*,#1068,.F.);
#813=ORIENTED_EDGE('',*,*,#1069,.F.);
#814=ORIENTED_EDGE('',*,*,#1070,.F.);
#815=ORIENTED_EDGE('',*,*,#1071,.F.);
#816=ORIENTED_EDGE('',*,*,#1072,.F.);
#817=ORIENTED_EDGE('',*,*,#1073,.F.);
#818=ORIENTED_EDGE('',*,*,#1074,.F.);
#819=ORIENTED_EDGE('',*,*,#1075,.F.);
#820=ORIENTED_EDGE('',*,*,#1076,.F.);
#821=ORIENTED_EDGE('',*,*,#1077,.F.);
#822=ORIENTED_EDGE('',*,*,#1078,.F.);
#823=ORIENTED_EDGE('',*,*,#1079,.F.);
#824=ORIENTED_EDGE('',*,*,#1080,.F.);
#825=ORIENTED_EDGE('',*,*,#1081,.F.);
#826=ORIENTED_EDGE('',*,*,#1082,.F.);
#827=ORIENTED_EDGE('',*,*,#1083,.F.);
#828=ORIENTED_EDGE('',*,*,#1084,.F.);
#829=ORIENTED_EDGE('',*,*,#1085,.F.);
#830=ORIENTED_EDGE('',*,*,#1086,.F.);
#831=ORIENTED_EDGE('',*,*,#1087,.F.);
#832=ORIENTED_EDGE('',*,*,#1088,.F.);
#833=ORIENTED_EDGE('',*,*,#1089,.F.);
#834=ORIENTED_EDGE('',*,*,#1090,.F.);
#835=ORIENTED_EDGE('',*,*,#1091,.F.);
#836=ORIENTED_EDGE('',*,*,#1092,.F.);
#837=ORIENTED_EDGE('',*,*,#1093,.T.);
#838=ORIENTED_EDGE('',*,*,#1094,.F.);
#839=ORIENTED_EDGE('',*,*,#1095,.F.);
#840=ORIENTED_EDGE('',*,*,#1096,.T.);
#841=ORIENTED_EDGE('',*,*,#1096,.F.);
#842=ORIENTED_EDGE('',*,*,#1093,.F.);
#843=ORIENTED_EDGE('',*,*,#1053,.T.);
#844=ORIENTED_EDGE('',*,*,#1097,.T.);
#845=ORIENTED_EDGE('',*,*,#1098,.F.);
#846=ORIENTED_EDGE('',*,*,#1099,.F.);
#847=ORIENTED_EDGE('',*,*,#1054,.T.);
#848=ORIENTED_EDGE('',*,*,#1099,.T.);
#849=ORIENTED_EDGE('',*,*,#1100,.F.);
#850=ORIENTED_EDGE('',*,*,#1101,.F.);
#851=ORIENTED_EDGE('',*,*,#1055,.T.);
#852=ORIENTED_EDGE('',*,*,#1101,.T.);
#853=ORIENTED_EDGE('',*,*,#1102,.F.);
#854=ORIENTED_EDGE('',*,*,#1103,.F.);
#855=ORIENTED_EDGE('',*,*,#1056,.T.);
#856=ORIENTED_EDGE('',*,*,#1103,.T.);
#857=ORIENTED_EDGE('',*,*,#1104,.F.);
#858=ORIENTED_EDGE('',*,*,#1105,.F.);
#859=ORIENTED_EDGE('',*,*,#1057,.T.);
#860=ORIENTED_EDGE('',*,*,#1105,.T.);
#861=ORIENTED_EDGE('',*,*,#1106,.F.);
#862=ORIENTED_EDGE('',*,*,#1107,.F.);
#863=ORIENTED_EDGE('',*,*,#1058,.T.);
#864=ORIENTED_EDGE('',*,*,#1107,.T.);
#865=ORIENTED_EDGE('',*,*,#1108,.F.);
#866=ORIENTED_EDGE('',*,*,#1109,.F.);
#867=ORIENTED_EDGE('',*,*,#1059,.T.);
#868=ORIENTED_EDGE('',*,*,#1109,.T.);
#869=ORIENTED_EDGE('',*,*,#1110,.F.);
#870=ORIENTED_EDGE('',*,*,#1111,.F.);
#871=ORIENTED_EDGE('',*,*,#1060,.T.);
#872=ORIENTED_EDGE('',*,*,#1111,.T.);
#873=ORIENTED_EDGE('',*,*,#1112,.F.);
#874=ORIENTED_EDGE('',*,*,#1113,.F.);
#875=ORIENTED_EDGE('',*,*,#1061,.T.);
#876=ORIENTED_EDGE('',*,*,#1113,.T.);
#877=ORIENTED_EDGE('',*,*,#1114,.F.);
#878=ORIENTED_EDGE('',*,*,#1115,.F.);
#879=ORIENTED_EDGE('',*,*,#1062,.T.);
#880=ORIENTED_EDGE('',*,*,#1115,.T.);
#881=ORIENTED_EDGE('',*,*,#1116,.F.);
#882=ORIENTED_EDGE('',*,*,#1117,.F.);
#883=ORIENTED_EDGE('',*,*,#1063,.T.);
#884=ORIENTED_EDGE('',*,*,#1117,.T.);
#885=ORIENTED_EDGE('',*,*,#1118,.F.);
#886=ORIENTED_EDGE('',*,*,#1119,.F.);
#887=ORIENTED_EDGE('',*,*,#1064,.T.);
#888=ORIENTED_EDGE('',*,*,#1119,.T.);
#889=ORIENTED_EDGE('',*,*,#1120,.F.);
#890=ORIENTED_EDGE('',*,*,#1121,.F.);
#891=ORIENTED_EDGE('',*,*,#1065,.T.);
#892=ORIENTED_EDGE('',*,*,#1121,.T.);
#893=ORIENTED_EDGE('',*,*,#1122,.F.);
#894=ORIENTED_EDGE('',*,*,#1123,.F.);
#895=ORIENTED_EDGE('',*,*,#1066,.T.);
#896=ORIENTED_EDGE('',*,*,#1123,.T.);
#897=ORIENTED_EDGE('',*,*,#1124,.F.);
#898=ORIENTED_EDGE('',*,*,#1125,.F.);
#899=ORIENTED_EDGE('',*,*,#1067,.T.);
#900=ORIENTED_EDGE('',*,*,#1125,.T.);
#901=ORIENTED_EDGE('',*,*,#1126,.F.);
#902=ORIENTED_EDGE('',*,*,#1127,.F.);
#903=ORIENTED_EDGE('',*,*,#1068,.T.);
#904=ORIENTED_EDGE('',*,*,#1127,.T.);
#905=ORIENTED_EDGE('',*,*,#1128,.F.);
#906=ORIENTED_EDGE('',*,*,#1129,.F.);
#907=ORIENTED_EDGE('',*,*,#1069,.T.);
#908=ORIENTED_EDGE('',*,*,#1129,.T.);
#909=ORIENTED_EDGE('',*,*,#1130,.F.);
#910=ORIENTED_EDGE('',*,*,#1131,.F.);
#911=ORIENTED_EDGE('',*,*,#1070,.T.);
#912=ORIENTED_EDGE('',*,*,#1131,.T.);
#913=ORIENTED_EDGE('',*,*,#1132,.F.);
#914=ORIENTED_EDGE('',*,*,#1133,.F.);
#915=ORIENTED_EDGE('',*,*,#1071,.T.);
#916=ORIENTED_EDGE('',*,*,#1133,.T.);
#917=ORIENTED_EDGE('',*,*,#1134,.F.);
#918=ORIENTED_EDGE('',*,*,#1135,.F.);
#919=ORIENTED_EDGE('',*,*,#1072,.T.);
#920=ORIENTED_EDGE('',*,*,#1135,.T.);
#921=ORIENTED_EDGE('',*,*,#1136,.F.);
#922=ORIENTED_EDGE('',*,*,#1137,.F.);
#923=ORIENTED_EDGE('',*,*,#1073,.T.);
#924=ORIENTED_EDGE('',*,*,#1137,.T.);
#925=ORIENTED_EDGE('',*,*,#1138,.F.);
#926=ORIENTED_EDGE('',*,*,#1139,.F.);
#927=ORIENTED_EDGE('',*,*,#1074,.T.);
#928=ORIENTED_EDGE('',*,*,#1139,.T.);
#929=ORIENTED_EDGE('',*,*,#1140,.F.);
#930=ORIENTED_EDGE('',*,*,#1141,.F.);
#931=ORIENTED_EDGE('',*,*,#1075,.T.);
#932=ORIENTED_EDGE('',*,*,#1141,.T.);
#933=ORIENTED_EDGE('',*,*,#1142,.F.);
#934=ORIENTED_EDGE('',*,*,#1143,.F.);
#935=ORIENTED_EDGE('',*,*,#1076,.T.);
#936=ORIENTED_EDGE('',*,*,#1143,.T.);
#937=ORIENTED_EDGE('',*,*,#1144,.F.);
#938=ORIENTED_EDGE('',*,*,#1145,.F.);
#939=ORIENTED_EDGE('',*,*,#1077,.T.);
#940=ORIENTED_EDGE('',*,*,#1145,.T.);
#941=ORIENTED_EDGE('',*,*,#1146,.F.);
#942=ORIENTED_EDGE('',*,*,#1147,.F.);
#943=ORIENTED_EDGE('',*,*,#1078,.T.);
#944=ORIENTED_EDGE('',*,*,#1147,.T.);
#945=ORIENTED_EDGE('',*,*,#1148,.F.);
#946=ORIENTED_EDGE('',*,*,#1149,.F.);
#947=ORIENTED_EDGE('',*,*,#1079,.T.);
#948=ORIENTED_EDGE('',*,*,#1149,.T.);
#949=ORIENTED_EDGE('',*,*,#1150,.F.);
#950=ORIENTED_EDGE('',*,*,#1151,.F.);
#951=ORIENTED_EDGE('',*,*,#1080,.T.);
#952=ORIENTED_EDGE('',*,*,#1151,.T.);
#953=ORIENTED_EDGE('',*,*,#1152,.F.);
#954=ORIENTED_EDGE('',*,*,#1153,.F.);
#955=ORIENTED_EDGE('',*,*,#1081,.T.);
#956=ORIENTED_EDGE('',*,*,#1153,.T.);
#957=ORIENTED_EDGE('',*,*,#1154,.F.);
#958=ORIENTED_EDGE('',*,*,#1155,.F.);
#959=ORIENTED_EDGE('',*,*,#1082,.T.);
#960=ORIENTED_EDGE('',*,*,#1155,.T.);
#961=ORIENTED_EDGE('',*,*,#1156,.F.);
#962=ORIENTED_EDGE('',*,*,#1157,.F.);
#963=ORIENTED_EDGE('',*,*,#1083,.T.);
#964=ORIENTED_EDGE('',*,*,#1157,.T.);
#965=ORIENTED_EDGE('',*,*,#1158,.F.);
#966=ORIENTED_EDGE('',*,*,#1159,.F.);
#967=ORIENTED_EDGE('',*,*,#1084,.T.);
#968=ORIENTED_EDGE('',*,*,#1159,.T.);
#969=ORIENTED_EDGE('',*,*,#1160,.F.);
#970=ORIENTED_EDGE('',*,*,#1161,.F.);
#971=ORIENTED_EDGE('',*,*,#1085,.T.);
#972=ORIENTED_EDGE('',*,*,#1161,.T.);
#973=ORIENTED_EDGE('',*,*,#1162,.F.);
#974=ORIENTED_EDGE('',*,*,#1163,.F.);
#975=ORIENTED_EDGE('',*,*,#1086,.T.);
#976=ORIENTED_EDGE('',*,*,#1163,.T.);
#977=ORIENTED_EDGE('',*,*,#1164,.F.);
#978=ORIENTED_EDGE('',*,*,#1165,.F.);
#979=ORIENTED_EDGE('',*,*,#1087,.T.);
#980=ORIENTED_EDGE('',*,*,#1165,.T.);
#981=ORIENTED_EDGE('',*,*,#1166,.F.);
#982=ORIENTED_EDGE('',*,*,#1167,.F.);
#983=ORIENTED_EDGE('',*,*,#1088,.T.);
#984=ORIENTED_EDGE('',*,*,#1167,.T.);
#985=ORIENTED_EDGE('',*,*,#1168,.F.);
#986=ORIENTED_EDGE('',*,*,#1169,.F.);
#987=ORIENTED_EDGE('',*,*,#1089,.T.);
#988=ORIENTED_EDGE('',*,*,#1169,.T.);
#989=ORIENTED_EDGE('',*,*,#1170,.F.);
#990=ORIENTED_EDGE('',*,*,#1171,.F.);
#991=ORIENTED_EDGE('',*,*,#1090,.T.);
#992=ORIENTED_EDGE('',*,*,#1171,.T.);
#993=ORIENTED_EDGE('',*,*,#1172,.F.);
#994=ORIENTED_EDGE('',*,*,#1173,.F.);
#995=ORIENTED_EDGE('',*,*,#1091,.T.);
#996=ORIENTED_EDGE('',*,*,#1173,.T.);
#997=ORIENTED_EDGE('',*,*,#1174,.F.);
#998=ORIENTED_EDGE('',*,*,#1175,.F.);
#999=ORIENTED_EDGE('',*,*,#1092,.T.);
#1000=ORIENTED_EDGE('',*,*,#1175,.T.);
#1001=ORIENTED_EDGE('',*,*,#1176,.F.);
#1002=ORIENTED_EDGE('',*,*,#1097,.F.);
#1003=ORIENTED_EDGE('',*,*,#1177,.F.);
#1004=ORIENTED_EDGE('',*,*,#1178,.F.);
#1005=ORIENTED_EDGE('',*,*,#1094,.T.);
#1006=ORIENTED_EDGE('',*,*,#1179,.T.);
#1007=ORIENTED_EDGE('',*,*,#1180,.F.);
#1008=ORIENTED_EDGE('',*,*,#1179,.F.);
#1009=ORIENTED_EDGE('',*,*,#1095,.T.);
#1010=ORIENTED_EDGE('',*,*,#1178,.T.);
#1011=ORIENTED_EDGE('',*,*,#1176,.T.);
#1012=ORIENTED_EDGE('',*,*,#1174,.T.);
#1013=ORIENTED_EDGE('',*,*,#1172,.T.);
#1014=ORIENTED_EDGE('',*,*,#1170,.T.);
#1015=ORIENTED_EDGE('',*,*,#1168,.T.);
#1016=ORIENTED_EDGE('',*,*,#1166,.T.);
#1017=ORIENTED_EDGE('',*,*,#1164,.T.);
#1018=ORIENTED_EDGE('',*,*,#1162,.T.);
#1019=ORIENTED_EDGE('',*,*,#1160,.T.);
#1020=ORIENTED_EDGE('',*,*,#1158,.T.);
#1021=ORIENTED_EDGE('',*,*,#1156,.T.);
#1022=ORIENTED_EDGE('',*,*,#1154,.T.);
#1023=ORIENTED_EDGE('',*,*,#1152,.T.);
#1024=ORIENTED_EDGE('',*,*,#1150,.T.);
#1025=ORIENTED_EDGE('',*,*,#1148,.T.);
#1026=ORIENTED_EDGE('',*,*,#1146,.T.);
#1027=ORIENTED_EDGE('',*,*,#1144,.T.);
#1028=ORIENTED_EDGE('',*,*,#1142,.T.);
#1029=ORIENTED_EDGE('',*,*,#1140,.T.);
#1030=ORIENTED_EDGE('',*,*,#1138,.T.);
#1031=ORIENTED_EDGE('',*,*,#1136,.T.);
#1032=ORIENTED_EDGE('',*,*,#1134,.T.);
#1033=ORIENTED_EDGE('',*,*,#1132,.T.);
#1034=ORIENTED_EDGE('',*,*,#1130,.T.);
#1035=ORIENTED_EDGE('',*,*,#1128,.T.);
#1036=ORIENTED_EDGE('',*,*,#1126,.T.);
#1037=ORIENTED_EDGE('',*,*,#1124,.T.);
#1038=ORIENTED_EDGE('',*,*,#1122,.T.);
#1039=ORIENTED_EDGE('',*,*,#1120,.T.);
#1040=ORIENTED_EDGE('',*,*,#1118,.T.);
#1041=ORIENTED_EDGE('',*,*,#1116,.T.);
#1042=ORIENTED_EDGE('',*,*,#1114,.T.);
#1043=ORIENTED_EDGE('',*,*,#1112,.T.);
#1044=ORIENTED_EDGE('',*,*,#1110,.T.);
#1045=ORIENTED_EDGE('',*,*,#1108,.T.);
#1046=ORIENTED_EDGE('',*,*,#1106,.T.);
#1047=ORIENTED_EDGE('',*,*,#1104,.T.);
#1048=ORIENTED_EDGE('',*,*,#1102,.T.);
#1049=ORIENTED_EDGE('',*,*,#1100,.T.);
#1050=ORIENTED_EDGE('',*,*,#1098,.T.);
#1051=ORIENTED_EDGE('',*,*,#1177,.T.);
#1052=ORIENTED_EDGE('',*,*,#1180,.T.);
#1053=EDGE_CURVE('',#1181,#1182,#1183,.T.);
#1054=EDGE_CURVE('',#1184,#1181,#1185,.T.);
#1055=EDGE_CURVE('',#1186,#1184,#1187,.T.);
#1056=EDGE_CURVE('',#1188,#1186,#1189,.T.);
#1057=EDGE_CURVE('',#1190,#1188,#1191,.T.);
#1058=EDGE_CURVE('',#1192,#1190,#1193,.T.);
#1059=EDGE_CURVE('',#1194,#1192,#1195,.T.);
#1060=EDGE_CURVE('',#1196,#1194,#1197,.T.);
#1061=EDGE_CURVE('',#1198,#1196,#1199,.T.);
#1062=EDGE_CURVE('',#1200,#1198,#1201,.T.);
#1063=EDGE_CURVE('',#1202,#1200,#1203,.T.);
#1064=EDGE_CURVE('',#1204,#1202,#1205,.T.);
#1065=EDGE_CURVE('',#1206,#1204,#1207,.T.);
#1066=EDGE_CURVE('',#1208,#1206,#1209,.T.);
#1067=EDGE_CURVE('',#1210,#1208,#1211,.T.);
#1068=EDGE_CURVE('',#1212,#1210,#1213,.T.);
#1069=EDGE_CURVE('',#1214,#1212,#1215,.T.);
#1070=EDGE_CURVE('',#1216,#1214,#1217,.T.);
#1071=EDGE_CURVE('',#1218,#1216,#1219,.T.);
#1072=EDGE_CURVE('',#1220,#1218,#1221,.T.);
#1073=EDGE_CURVE('',#1222,#1220,#1223,.T.);
#1074=EDGE_CURVE('',#1224,#1222,#1225,.T.);
#1075=EDGE_CURVE('',#1226,#1224,#1227,.T.);
#1076=EDGE_CURVE('',#1228,#1226,#1229,.T.);
#1077=EDGE_CURVE('',#1230,#1228,#1231,.T.);
#1078=EDGE_CURVE('',#1232,#1230,#1233,.T.);
#1079=EDGE_CURVE('',#1234,#1232,#1235,.T.);
#1080=EDGE_CURVE('',#1236,#1234,#1237,.T.);
#1081=EDGE_CURVE('',#1238,#1236,#1239,.T.);
#1082=EDGE_CURVE('',#1240,#1238,#1241,.T.);
#1083=EDGE_CURVE('',#1242,#1240,#1243,.T.);
#1084=EDGE_CURVE('',#1244,#1242,#1245,.T.);
#1085=EDGE_CURVE('',#1246,#1244,#1247,.T.);
#1086=EDGE_CURVE('',#1248,#1246,#1249,.T.);
#1087=EDGE_CURVE('',#1250,#1248,#1251,.T.);
#1088=EDGE_CURVE('',#1252,#1250,#1253,.T.);
#1089=EDGE_CURVE('',#1254,#1252,#1255,.T.);
#1090=EDGE_CURVE('',#1256,#1254,#1257,.T.);
#1091=EDGE_CURVE('',#1258,#1256,#1259,.T.);
#1092=EDGE_CURVE('',#1182,#1258,#1260,.T.);
#1093=EDGE_CURVE('',#1261,#1261,#1262,.F.);
#1094=EDGE_CURVE('',#1263,#1264,#1265,.F.);
#1095=EDGE_CURVE('',#1264,#1263,#1266,.F.);
#1096=EDGE_CURVE('',#1267,#1267,#1268,.T.);
#1097=EDGE_CURVE('',#1182,#1269,#1270,.T.);
#1098=EDGE_CURVE('',#1271,#1269,#1272,.T.);
#1099=EDGE_CURVE('',#1181,#1271,#1273,.T.);
#1100=EDGE_CURVE('',#1274,#1271,#1275,.T.);
#1101=EDGE_CURVE('',#1184,#1274,#1276,.T.);
#1102=EDGE_CURVE('',#1277,#1274,#1278,.T.);
#1103=EDGE_CURVE('',#1186,#1277,#1279,.T.);
#1104=EDGE_CURVE('',#1280,#1277,#1281,.T.);
#1105=EDGE_CURVE('',#1188,#1280,#1282,.T.);
#1106=EDGE_CURVE('',#1283,#1280,#1284,.T.);
#1107=EDGE_CURVE('',#1190,#1283,#1285,.T.);
#1108=EDGE_CURVE('',#1286,#1283,#1287,.T.);
#1109=EDGE_CURVE('',#1192,#1286,#1288,.T.);
#1110=EDGE_CURVE('',#1289,#1286,#1290,.T.);
#1111=EDGE_CURVE('',#1194,#1289,#1291,.T.);
#1112=EDGE_CURVE('',#1292,#1289,#1293,.T.);
#1113=EDGE_CURVE('',#1196,#1292,#1294,.T.);
#1114=EDGE_CURVE('',#1295,#1292,#1296,.T.);
#1115=EDGE_CURVE('',#1198,#1295,#1297,.T.);
#1116=EDGE_CURVE('',#1298,#1295,#1299,.T.);
#1117=EDGE_CURVE('',#1200,#1298,#1300,.T.);
#1118=EDGE_CURVE('',#1301,#1298,#1302,.T.);
#1119=EDGE_CURVE('',#1202,#1301,#1303,.T.);
#1120=EDGE_CURVE('',#1304,#1301,#1305,.T.);
#1121=EDGE_CURVE('',#1204,#1304,#1306,.T.);
#1122=EDGE_CURVE('',#1307,#1304,#1308,.T.);
#1123=EDGE_CURVE('',#1206,#1307,#1309,.T.);
#1124=EDGE_CURVE('',#1310,#1307,#1311,.T.);
#1125=EDGE_CURVE('',#1208,#1310,#1312,.T.);
#1126=EDGE_CURVE('',#1313,#1310,#1314,.T.);
#1127=EDGE_CURVE('',#1210,#1313,#1315,.T.);
#1128=EDGE_CURVE('',#1316,#1313,#1317,.T.);
#1129=EDGE_CURVE('',#1212,#1316,#1318,.T.);
#1130=EDGE_CURVE('',#1319,#1316,#1320,.T.);
#1131=EDGE_CURVE('',#1214,#1319,#1321,.T.);
#1132=EDGE_CURVE('',#1322,#1319,#1323,.T.);
#1133=EDGE_CURVE('',#1216,#1322,#1324,.T.);
#1134=EDGE_CURVE('',#1325,#1322,#1326,.T.);
#1135=EDGE_CURVE('',#1218,#1325,#1327,.T.);
#1136=EDGE_CURVE('',#1328,#1325,#1329,.T.);
#1137=EDGE_CURVE('',#1220,#1328,#1330,.T.);
#1138=EDGE_CURVE('',#1331,#1328,#1332,.T.);
#1139=EDGE_CURVE('',#1222,#1331,#1333,.T.);
#1140=EDGE_CURVE('',#1334,#1331,#1335,.T.);
#1141=EDGE_CURVE('',#1224,#1334,#1336,.T.);
#1142=EDGE_CURVE('',#1337,#1334,#1338,.T.);
#1143=EDGE_CURVE('',#1226,#1337,#1339,.T.);
#1144=EDGE_CURVE('',#1340,#1337,#1341,.T.);
#1145=EDGE_CURVE('',#1228,#1340,#1342,.T.);
#1146=EDGE_CURVE('',#1343,#1340,#1344,.T.);
#1147=EDGE_CURVE('',#1230,#1343,#1345,.T.);
#1148=EDGE_CURVE('',#1346,#1343,#1347,.T.);
#1149=EDGE_CURVE('',#1232,#1346,#1348,.T.);
#1150=EDGE_CURVE('',#1349,#1346,#1350,.T.);
#1151=EDGE_CURVE('',#1234,#1349,#1351,.T.);
#1152=EDGE_CURVE('',#1352,#1349,#1353,.T.);
#1153=EDGE_CURVE('',#1236,#1352,#1354,.T.);
#1154=EDGE_CURVE('',#1355,#1352,#1356,.T.);
#1155=EDGE_CURVE('',#1238,#1355,#1357,.T.);
#1156=EDGE_CURVE('',#1358,#1355,#1359,.T.);
#1157=EDGE_CURVE('',#1240,#1358,#1360,.T.);
#1158=EDGE_CURVE('',#1361,#1358,#1362,.T.);
#1159=EDGE_CURVE('',#1242,#1361,#1363,.T.);
#1160=EDGE_CURVE('',#1364,#1361,#1365,.T.);
#1161=EDGE_CURVE('',#1244,#1364,#1366,.T.);
#1162=EDGE_CURVE('',#1367,#1364,#1368,.T.);
#1163=EDGE_CURVE('',#1246,#1367,#1369,.T.);
#1164=EDGE_CURVE('',#1370,#1367,#1371,.T.);
#1165=EDGE_CURVE('',#1248,#1370,#1372,.T.);
#1166=EDGE_CURVE('',#1373,#1370,#1374,.T.);
#1167=EDGE_CURVE('',#1250,#1373,#1375,.T.);
#1168=EDGE_CURVE('',#1376,#1373,#1377,.T.);
#1169=EDGE_CURVE('',#1252,#1376,#1378,.T.);
#1170=EDGE_CURVE('',#1379,#1376,#1380,.T.);
#1171=EDGE_CURVE('',#1254,#1379,#1381,.T.);
#1172=EDGE_CURVE('',#1382,#1379,#1383,.T.);
#1173=EDGE_CURVE('',#1256,#1382,#1384,.T.);
#1174=EDGE_CURVE('',#1385,#1382,#1386,.T.);
#1175=EDGE_CURVE('',#1258,#1385,#1387,.T.);
#1176=EDGE_CURVE('',#1269,#1385,#1388,.T.);
#1177=EDGE_CURVE('',#1389,#1390,#1391,.F.);
#1178=EDGE_CURVE('',#1263,#1389,#1392,.T.);
#1179=EDGE_CURVE('',#1264,#1390,#1393,.T.);
#1180=EDGE_CURVE('',#1390,#1389,#1394,.F.);
#1181=VERTEX_POINT('',#1395);
#1182=VERTEX_POINT('',#1396);
#1183=LINE('',#1397,#1398);
#1184=VERTEX_POINT('',#1400);
#1185=CIRCLE('',#1401,2.00004938654533);
#1186=VERTEX_POINT('',#1405);
#1187=LINE('',#1406,#1407);
#1188=VERTEX_POINT('',#1409);
#1189=CIRCLE('',#1410,3.24989725914383);
#1190=VERTEX_POINT('',#1414);
#1191=LINE('',#1415,#1416);
#1192=VERTEX_POINT('',#1418);
#1193=CIRCLE('',#1419,2.00004938654533);
#1194=VERTEX_POINT('',#1423);
#1195=LINE('',#1424,#1425);
#1196=VERTEX_POINT('',#1427);
#1197=CIRCLE('',#1428,3.24989725914383);
#1198=VERTEX_POINT('',#1432);
#1199=LINE('',#1433,#1434);
#1200=VERTEX_POINT('',#1436);
#1201=CIRCLE('',#1437,2.00004938654533);
#1202=VERTEX_POINT('',#1441);
#1203=LINE('',#1442,#1443);
#1204=VERTEX_POINT('',#1445);
#1205=CIRCLE('',#1446,3.24989725914383);
#1206=VERTEX_POINT('',#1450);
#1207=LINE('',#1451,#1452);
#1208=VERTEX_POINT('',#1454);
#1209=CIRCLE('',#1455,2.00004938654533);
#1210=VERTEX_POINT('',#1459);
#1211=LINE('',#1460,#1461);
#1212=VERTEX_POINT('',#1463);
#1213=CIRCLE('',#1464,3.24989725914383);
#1214=VERTEX_POINT('',#1468);
#1215=LINE('',#1469,#1470);
#1216=VERTEX_POINT('',#1472);
#1217=CIRCLE('',#1473,2.00004938654533);
#1218=VERTEX_POINT('',#1477);
#1219=LINE('',#1478,#1479);
#1220=VERTEX_POINT('',#1481);
#1221=CIRCLE('',#1482,3.24989725914383);
#1222=VERTEX_POINT('',#1486);
#1223=LINE('',#1487,#1488);
#1224=VERTEX_POINT('',#1490);
#1225=CIRCLE('',#1491,2.00004938654533);
#1226=VERTEX_POINT('',#1495);
#1227=LINE('',#1496,#1497);
#1228=VERTEX_POINT('',#1499);
#1229=CIRCLE('',#1500,3.24989725914383);
#1230=VERTEX_POINT('',#1504);
#1231=LINE('',#1505,#1506);
#1232=VERTEX_POINT('',#1508);
#1233=CIRCLE('',#1509,2.00004938654533);
#1234=VERTEX_POINT('',#1513);
#1235=LINE('',#1514,#1515);
#1236=VERTEX_POINT('',#1517);
#1237=CIRCLE('',#1518,3.24989725914383);
#1238=VERTEX_POINT('',#1522);
#1239=LINE('',#1523,#1524);
#1240=VERTEX_POINT('',#1526);
#1241=CIRCLE('',#1527,2.00004938654533);
#1242=VERTEX_POINT('',#1531);
#1243=LINE('',#1532,#1533);
#1244=VERTEX_POINT('',#1535);
#1245=CIRCLE('',#1536,3.24989725914383);
#1246=VERTEX_POINT('',#1540);
#1247=LINE('',#1541,#1542);
#1248=VERTEX_POINT('',#1544);
#1249=CIRCLE('',#1545,2.00004938654533);
#1250=VERTEX_POINT('',#1549);
#1251=LINE('',#1550,#1551);
#1252=VERTEX_POINT('',#1553);
#1253=CIRCLE('',#1554,3.24989725914383);
#1254=VERTEX_POINT('',#1558);
#1255=LINE('',#1559,#1560);
#1256=VERTEX_POINT('',#1562);
#1257=CIRCLE('',#1563,2.00004938654533);
#1258=VERTEX_POINT('',#1567);
#1259=LINE('',#1568,#1569);
#1260=CIRCLE('',#1571,3.24989725914383);
#1261=VERTEX_POINT('',#1575);
#1262=CIRCLE('',#1576,1.);
#1263=VERTEX_POINT('',#1580);
#1264=VERTEX_POINT('',#1581);
#1265=LINE('',#1582,#1583);
#1266=CIRCLE('',#1585,3.05);
#1267=VERTEX_POINT('',#1589);
#1268=CIRCLE('',#1590,1.);
#1269=VERTEX_POINT('',#1594);
#1270=LINE('',#1595,#1596);
#1271=VERTEX_POINT('',#1598);
#1272=LINE('',#1599,#1600);
#1273=LINE('',#1602,#1603);
#1274=VERTEX_POINT('',#1605);
#1275=CIRCLE('',#1606,2.00004938654533);
#1276=LINE('',#1610,#1611);
#1277=VERTEX_POINT('',#1613);
#1278=LINE('',#1614,#1615);
#1279=LINE('',#1617,#1618);
#1280=VERTEX_POINT('',#1620);
#1281=CIRCLE('',#1621,3.24989725914383);
#1282=LINE('',#1625,#1626);
#1283=VERTEX_POINT('',#1628);
#1284=LINE('',#1629,#1630);
#1285=LINE('',#1632,#1633);
#1286=VERTEX_POINT('',#1635);
#1287=CIRCLE('',#1636,2.00004938654533);
#1288=LINE('',#1640,#1641);
#1289=VERTEX_POINT('',#1643);
#1290=LINE('',#1644,#1645);
#1291=LINE('',#1647,#1648);
#1292=VERTEX_POINT('',#1650);
#1293=CIRCLE('',#1651,3.24989725914383);
#1294=LINE('',#1655,#1656);
#1295=VERTEX_POINT('',#1658);
#1296=LINE('',#1659,#1660);
#1297=LINE('',#1662,#1663);
#1298=VERTEX_POINT('',#1665);
#1299=CIRCLE('',#1666,2.00004938654533);
#1300=LINE('',#1670,#1671);
#1301=VERTEX_POINT('',#1673);
#1302=LINE('',#1674,#1675);
#1303=LINE('',#1677,#1678);
#1304=VERTEX_POINT('',#1680);
#1305=CIRCLE('',#1681,3.24989725914383);
#1306=LINE('',#1685,#1686);
#1307=VERTEX_POINT('',#1688);
#1308=LINE('',#1689,#1690);
#1309=LINE('',#1692,#1693);
#1310=VERTEX_POINT('',#1695);
#1311=CIRCLE('',#1696,2.00004938654533);
#1312=LINE('',#1700,#1701);
#1313=VERTEX_POINT('',#1703);
#1314=LINE('',#1704,#1705);
#1315=LINE('',#1707,#1708);
#1316=VERTEX_POINT('',#1710);
#1317=CIRCLE('',#1711,3.24989725914383);
#1318=LINE('',#1715,#1716);
#1319=VERTEX_POINT('',#1718);
#1320=LINE('',#1719,#1720);
#1321=LINE('',#1722,#1723);
#1322=VERTEX_POINT('',#1725);
#1323=CIRCLE('',#1726,2.00004938654533);
#1324=LINE('',#1730,#1731);
#1325=VERTEX_POINT('',#1733);
#1326=LINE('',#1734,#1735);
#1327=LINE('',#1737,#1738);
#1328=VERTEX_POINT('',#1740);
#1329=CIRCLE('',#1741,3.24989725914383);
#1330=LINE('',#1745,#1746);
#1331=VERTEX_POINT('',#1748);
#1332=LINE('',#1749,#1750);
#1333=LINE('',#1752,#1753);
#1334=VERTEX_POINT('',#1755);
#1335=CIRCLE('',#1756,2.00004938654533);
#1336=LINE('',#1760,#1761);
#1337=VERTEX_POINT('',#1763);
#1338=LINE('',#1764,#1765);
#1339=LINE('',#1767,#1768);
#1340=VERTEX_POINT('',#1770);
#1341=CIRCLE('',#1771,3.24989725914383);
#1342=LINE('',#1775,#1776);
#1343=VERTEX_POINT('',#1778);
#1344=LINE('',#1779,#1780);
#1345=LINE('',#1782,#1783);
#1346=VERTEX_POINT('',#1785);
#1347=CIRCLE('',#1786,2.00004938654533);
#1348=LINE('',#1790,#1791);
#1349=VERTEX_POINT('',#1793);
#1350=LINE('',#1794,#1795);
#1351=LINE('',#1797,#1798);
#1352=VERTEX_POINT('',#1800);
#1353=CIRCLE('',#1801,3.24989725914383);
#1354=LINE('',#1805,#1806);
#1355=VERTEX_POINT('',#1808);
#1356=LINE('',#1809,#1810);
#1357=LINE('',#1812,#1813);
#1358=VERTEX_POINT('',#1815);
#1359=CIRCLE('',#1816,2.00004938654533);
#1360=LINE('',#1820,#1821);
#1361=VERTEX_POINT('',#1823);
#1362=LINE('',#1824,#1825);
#1363=LINE('',#1827,#1828);
#1364=VERTEX_POINT('',#1830);
#1365=CIRCLE('',#1831,3.24989725914383);
#1366=LINE('',#1835,#1836);
#1367=VERTEX_POINT('',#1838);
#1368=LINE('',#1839,#1840);
#1369=LINE('',#1842,#1843);
#1370=VERTEX_POINT('',#1845);
#1371=CIRCLE('',#1846,2.00004938654533);
#1372=LINE('',#1850,#1851);
#1373=VERTEX_POINT('',#1853);
#1374=LINE('',#1854,#1855);
#1375=LINE('',#1857,#1858);
#1376=VERTEX_POINT('',#1860);
#1377=CIRCLE('',#1861,3.24989725914383);
#1378=LINE('',#1865,#1866);
#1379=VERTEX_POINT('',#1868);
#1380=LINE('',#1869,#1870);
#1381=LINE('',#1872,#1873);
#1382=VERTEX_POINT('',#1875);
#1383=CIRCLE('',#1876,2.00004938654533);
#1384=LINE('',#1880,#1881);
#1385=VERTEX_POINT('',#1883);
#1386=LINE('',#1884,#1885);
#1387=LINE('',#1887,#1888);
#1388=CIRCLE('',#1890,3.24989725914383);
#1389=VERTEX_POINT('',#1894);
#1390=VERTEX_POINT('',#1895);
#1391=LINE('',#1896,#1897);
#1392=LINE('',#1899,#1900);
#1393=LINE('',#1902,#1903);
#1394=CIRCLE('',#1905,3.05);
#1395=CARTESIAN_POINT('',(1.99992333404299,-22.0775454584595,0.));
#1396=CARTESIAN_POINT('',(1.93260190078272,-16.0815332558532,0.));
#1397=CARTESIAN_POINT('',(1.99992333400925,-22.0775454584599,0.));
#1398=VECTOR('',#1399,1.);
#1399=DIRECTION('',(-0.0112269935392068,0.99993697532198,0.));
#1400=CARTESIAN_POINT('',(-2.00004792455001,-22.0975817106077,0.));
#1401=AXIS2_PLACEMENT_3D('',#1402,#1403,#1404);
#1402=CARTESIAN_POINT('',(-2.70646942611565E-15,-22.1,0.));
#1403=DIRECTION('',(0.,0.,1.));
#1404=DIRECTION('',(-0.999999269020386,0.00120911483915599,0.));
#1405=CARTESIAN_POINT('',(-1.99291041414997,-16.1944987680086,0.));
#1406=CARTESIAN_POINT('',(-1.99291041414997,-16.1944987680086,0.));
#1407=VECTOR('',#1408,1.);
#1408=DIRECTION('',(-0.00120911483915626,-0.999999269020386,0.));
#1409=CARTESIAN_POINT('',(-7.88898030094691,-14.1461885954236,0.));
#1410=AXIS2_PLACEMENT_3D('',#1411,#1412,#1413);
#1411=CARTESIAN_POINT('',(-5.23847762324503,-16.0267916237437,0.));
#1412=DIRECTION('',(0.,0.,-1.));
#1413=DIRECTION('',(-0.815565067569293,0.578665378747246,0.));
#1414=CARTESIAN_POINT('',(-11.3588836626114,-19.0366349114453,0.));
#1415=CARTESIAN_POINT('',(-11.3588836626389,-19.0366349114257,0.));
#1416=VECTOR('',#1417,1.);
#1417=DIRECTION('',(0.578665378747246,0.815565067569293,0.));
#1418=CARTESIAN_POINT('',(-14.6067054013484,-16.701720464542,0.));
#1419=AXIS2_PLACEMENT_3D('',#1420,#1421,#1422);
#1420=CARTESIAN_POINT('',(-12.9900540756637,-17.8792755756863,0.));
#1421=DIRECTION('',(0.,0.,1.));
#1422=DIRECTION('',(-0.808305703129233,0.588763017086465,0.));
#1423=CARTESIAN_POINT('',(-11.1311859374183,-11.9302213681258,0.));
#1424=CARTESIAN_POINT('',(-11.1311859374183,-11.9302213681258,0.));
#1425=VECTOR('',#1426,1.);
#1426=DIRECTION('',(-0.588763017086465,-0.808305703129233,0.));
#1427=CARTESIAN_POINT('',(-14.6972401642932,-6.80748070280832,0.));
#1428=AXIS2_PLACEMENT_3D('',#1429,#1430,#1431);
#1429=CARTESIAN_POINT('',(-13.6583291798592,-9.88684689750719,0.));
#1430=DIRECTION('',(0.,0.,-1.));
#1431=DIRECTION('',(-0.31967502404224,0.947527244465083,0.));
#1432=CARTESIAN_POINT('',(-20.3789831744041,-8.72437685968175,0.));
#1433=CARTESIAN_POINT('',(-20.3789831744149,-8.72437685964978,0.));
#1434=VECTOR('',#1435,1.);
#1435=DIRECTION('',(0.947527244465083,0.319675024042241,0.));
#1436=CARTESIAN_POINT('',(-21.6340978784883,-4.92636967162091,0.));
#1437=AXIS2_PLACEMENT_3D('',#1438,#1439,#1440);
#1438=CARTESIAN_POINT('',(-21.0183490101229,-6.82927557568633,0.));
#1439=DIRECTION('',(0.,0.,1.));
#1440=DIRECTION('',(-0.307866831943095,0.951429458125678,0.));
#1441=CARTESIAN_POINT('',(-16.0177267676877,-3.10900489892904,0.));
#1442=CARTESIAN_POINT('',(-16.0177267676877,-3.10900489892904,0.));
#1443=VECTOR('',#1444,1.);
#1444=DIRECTION('',(-0.951429458125678,-0.307866831943095,0.));
#1445=CARTESIAN_POINT('',(-15.8916538256996,3.1314534405207,0.));
#1446=AXIS2_PLACEMENT_3D('',#1447,#1448,#1449);
#1447=CARTESIAN_POINT('',(-16.8611632193017,0.029537302010658,0.));
#1448=DIRECTION('',(0.,0.,-1.));
#1449=DIRECTION('',(0.298320013314508,0.954465908063788,0.));
#1450=CARTESIAN_POINT('',(-21.6150037697367,4.92029662181713,0.));
#1451=CARTESIAN_POINT('',(-21.6150037697266,4.92029662184933,0.));
#1452=VECTOR('',#1453,1.);
#1453=DIRECTION('',(0.954465908063788,-0.298320013314508,0.));
#1454=CARTESIAN_POINT('',(-20.3980002819877,8.73068689471268,0.));
#1455=AXIS2_PLACEMENT_3D('',#1456,#1457,#1458);
#1456=CARTESIAN_POINT('',(-21.0183490101229,6.82927557568634,0.));
#1457=DIRECTION('',(0.,0.,1.));
#1458=DIRECTION('',(0.310166705036553,0.950682184058778,0.));
#1459=CARTESIAN_POINT('',(-14.7860403952095,6.89974577046868,0.));
#1460=CARTESIAN_POINT('',(-14.7860403952095,6.89974577046868,0.));
#1461=VECTOR('',#1462,1.);
#1462=DIRECTION('',(-0.950682184058778,0.310166705036553,0.));
#1463=CARTESIAN_POINT('',(-11.015995863136,11.8742788037586,0.));
#1464=AXIS2_PLACEMENT_3D('',#1465,#1466,#1467);
#1465=CARTESIAN_POINT('',(-13.6236059988305,9.93463925609641,0.));
#1466=DIRECTION('',(0.,0.,-1.));
#1467=DIRECTION('',(0.802366945109436,0.596831035885158,0.));
#1468=CARTESIAN_POINT('',(-14.594827591987,16.6855840285132,0.));
#1469=CARTESIAN_POINT('',(-14.5948275919599,16.6855840285333,0.));
#1470=VECTOR('',#1471,1.);
#1471=DIRECTION('',(0.596831035885158,-0.802366945109436,0.));
#1472=CARTESIAN_POINT('',(-11.3705598802978,19.0529178123993,0.));
#1473=AXIS2_PLACEMENT_3D('',#1474,#1475,#1476);
#1474=CARTESIAN_POINT('',(-12.9900540756637,17.8792755756863,0.));
#1475=DIRECTION('',(0.,0.,1.));
#1476=DIRECTION('',(0.809727102870801,0.586806628180408,0.));
#1477=CARTESIAN_POINT('',(-7.90658915079004,14.2730280692807,0.));
#1478=CARTESIAN_POINT('',(-7.90658915079004,14.2730280692807,0.));
#1479=VECTOR('',#1480,1.);
#1480=DIRECTION('',(-0.586806628180408,0.809727102870801,0.));
#1481=CARTESIAN_POINT('',(-1.93260190078272,16.0815332558532,0.));
#1482=AXIS2_PLACEMENT_3D('',#1483,#1484,#1485);
#1483=CARTESIAN_POINT('',(-5.182294336143,16.0450466803223,0.));
#1484=DIRECTION('',(0.,0.,-1.));
#1485=DIRECTION('',(0.99993697532198,0.0112269935392059,0.));
#1486=CARTESIAN_POINT('',(-1.99992333404298,22.0775454584595,0.));
#1487=CARTESIAN_POINT('',(-1.99992333400925,22.0775454584599,0.));
#1488=VECTOR('',#1489,1.);
#1489=DIRECTION('',(0.0112269935392067,-0.99993697532198,0.));
#1490=CARTESIAN_POINT('',(2.00004792455001,22.0975817106077,0.));
#1491=AXIS2_PLACEMENT_3D('',#1492,#1493,#1494);
#1492=CARTESIAN_POINT('',(5.4129388522313E-15,22.1,0.));
#1493=DIRECTION('',(0.,0.,1.));
#1494=DIRECTION('',(0.999999269020386,-0.00120911483915599,0.));
#1495=CARTESIAN_POINT('',(1.99291041414997,16.1944987680087,0.));
#1496=CARTESIAN_POINT('',(1.99291041414997,16.1944987680087,0.));
#1497=VECTOR('',#1498,1.);
#1498=DIRECTION('',(0.00120911483915635,0.999999269020386,0.));
#1499=CARTESIAN_POINT('',(7.88898030094691,14.1461885954236,0.));
#1500=AXIS2_PLACEMENT_3D('',#1501,#1502,#1503);
#1501=CARTESIAN_POINT('',(5.23847762324503,16.0267916237437,0.));
#1502=DIRECTION('',(0.,0.,-1.));
#1503=DIRECTION('',(0.815565067569293,-0.578665378747247,0.));
#1504=CARTESIAN_POINT('',(11.3588836626114,19.0366349114453,0.));
#1505=CARTESIAN_POINT('',(11.3588836626389,19.0366349114257,0.));
#1506=VECTOR('',#1507,1.);
#1507=DIRECTION('',(-0.578665378747246,-0.815565067569293,0.));
#1508=CARTESIAN_POINT('',(14.6067054013484,16.701720464542,0.));
#1509=AXIS2_PLACEMENT_3D('',#1510,#1511,#1512);
#1510=CARTESIAN_POINT('',(12.9900540756637,17.8792755756863,0.));
#1511=DIRECTION('',(0.,0.,1.));
#1512=DIRECTION('',(0.808305703129233,-0.588763017086465,0.));
#1513=CARTESIAN_POINT('',(11.1311859374183,11.9302213681258,0.));
#1514=CARTESIAN_POINT('',(11.1311859374183,11.9302213681258,0.));
#1515=VECTOR('',#1516,1.);
#1516=DIRECTION('',(0.588763017086465,0.808305703129233,0.));
#1517=CARTESIAN_POINT('',(14.6972401642932,6.80748070280832,0.));
#1518=AXIS2_PLACEMENT_3D('',#1519,#1520,#1521);
#1519=CARTESIAN_POINT('',(13.6583291798592,9.88684689750719,0.));
#1520=DIRECTION('',(0.,0.,-1.));
#1521=DIRECTION('',(0.319675024042241,-0.947527244465083,0.));
#1522=CARTESIAN_POINT('',(20.3789831744041,8.72437685968175,0.));
#1523=CARTESIAN_POINT('',(20.3789831744149,8.72437685964978,0.));
#1524=VECTOR('',#1525,1.);
#1525=DIRECTION('',(-0.947527244465083,-0.319675024042241,0.));
#1526=CARTESIAN_POINT('',(21.6340978784883,4.92636967162091,0.));
#1527=AXIS2_PLACEMENT_3D('',#1528,#1529,#1530);
#1528=CARTESIAN_POINT('',(21.0183490101229,6.82927557568633,0.));
#1529=DIRECTION('',(0.,0.,1.));
#1530=DIRECTION('',(0.307866831943095,-0.951429458125678,0.));
#1531=CARTESIAN_POINT('',(16.0177267676877,3.10900489892905,0.));
#1532=CARTESIAN_POINT('',(16.0177267676877,3.10900489892905,0.));
#1533=VECTOR('',#1534,1.);
#1534=DIRECTION('',(0.951429458125678,0.307866831943095,0.));
#1535=CARTESIAN_POINT('',(15.8916538256996,-3.1314534405207,0.));
#1536=AXIS2_PLACEMENT_3D('',#1537,#1538,#1539);
#1537=CARTESIAN_POINT('',(16.8611632193017,-0.0295373020106563,0.));
#1538=DIRECTION('',(0.,0.,-1.));
#1539=DIRECTION('',(-0.298320013314508,-0.954465908063788,0.));
#1540=CARTESIAN_POINT('',(21.6150037697367,-4.92029662181713,0.));
#1541=CARTESIAN_POINT('',(21.6150037697266,-4.92029662184933,0.));
#1542=VECTOR('',#1543,1.);
#1543=DIRECTION('',(-0.954465908063788,0.298320013314508,0.));
#1544=CARTESIAN_POINT('',(20.3980002819877,-8.73068689471268,0.));
#1545=AXIS2_PLACEMENT_3D('',#1546,#1547,#1548);
#1546=CARTESIAN_POINT('',(21.0183490101229,-6.82927557568634,0.));
#1547=DIRECTION('',(0.,0.,1.));
#1548=DIRECTION('',(-0.310166705036553,-0.950682184058778,0.));
#1549=CARTESIAN_POINT('',(14.7860403952094,-6.89974577046866,0.));
#1550=CARTESIAN_POINT('',(14.7860403952094,-6.89974577046866,0.));
#1551=VECTOR('',#1552,1.);
#1552=DIRECTION('',(0.950682184058778,-0.310166705036553,0.));
#1553=CARTESIAN_POINT('',(11.015995863136,-11.8742788037586,0.));
#1554=AXIS2_PLACEMENT_3D('',#1555,#1556,#1557);
#1555=CARTESIAN_POINT('',(13.6236059988305,-9.93463925609641,0.));
#1556=DIRECTION('',(0.,0.,-1.));
#1557=DIRECTION('',(-0.802366945109435,-0.596831035885159,0.));
#1558=CARTESIAN_POINT('',(14.594827591987,-16.6855840285132,0.));
#1559=CARTESIAN_POINT('',(14.5948275919599,-16.6855840285333,0.));
#1560=VECTOR('',#1561,1.);
#1561=DIRECTION('',(-0.596831035885158,0.802366945109436,0.));
#1562=CARTESIAN_POINT('',(11.3705598802978,-19.0529178123993,0.));
#1563=AXIS2_PLACEMENT_3D('',#1564,#1565,#1566);
#1564=CARTESIAN_POINT('',(12.9900540756637,-17.8792755756863,0.));
#1565=DIRECTION('',(0.,0.,1.));
#1566=DIRECTION('',(-0.809727102870801,-0.586806628180408,0.));
#1567=CARTESIAN_POINT('',(7.90658915079004,-14.2730280692807,0.));
#1568=CARTESIAN_POINT('',(7.90658915079004,-14.2730280692807,0.));
#1569=VECTOR('',#1570,1.);
#1570=DIRECTION('',(0.586806628180408,-0.809727102870801,0.));
#1571=AXIS2_PLACEMENT_3D('',#1572,#1573,#1574);
#1572=CARTESIAN_POINT('',(5.182294336143,-16.0450466803223,0.));
#1573=DIRECTION('',(0.,0.,-1.));
#1574=DIRECTION('',(-0.99993697532198,-0.011226993539207,0.));
#1575=CARTESIAN_POINT('',(-1.,-1.22464679914735E-16,0.));
#1576=AXIS2_PLACEMENT_3D('',#1577,#1578,#1579);
#1577=CARTESIAN_POINT('',(0.,0.,0.));
#1578=DIRECTION('',(0.,0.,-1.));
#1579=DIRECTION('',(-1.,0.,0.));
#1580=CARTESIAN_POINT('',(1.11320198266512,2.83959175688874,1.4));
#1581=CARTESIAN_POINT('',(3.04999981283024,0.00106852022716055,1.4));
#1582=CARTESIAN_POINT('',(3.04999981283024,0.0010685202271619,1.4));
#1583=VECTOR('',#1584,1.);
#1584=DIRECTION('',(-0.563623070856329,0.826032102280826,0.));
#1585=AXIS2_PLACEMENT_3D('',#1586,#1587,#1588);
#1586=CARTESIAN_POINT('',(0.,0.,1.4));
#1587=DIRECTION('',(0.,0.,1.));
#1588=DIRECTION('',(0.364984256611514,0.931013690783192,0.));
#1589=CARTESIAN_POINT('',(-1.,-1.22464679914735E-16,1.4));
#1590=AXIS2_PLACEMENT_3D('',#1591,#1592,#1593);
#1591=CARTESIAN_POINT('',(0.,0.,1.4));
#1592=DIRECTION('',(0.,0.,-1.));
#1593=DIRECTION('',(-1.,0.,0.));
#1594=CARTESIAN_POINT('',(1.93260190078272,-16.0815332558532,6.));
#1595=CARTESIAN_POINT('',(1.93260190078272,-16.0815332558532,0.));
#1596=VECTOR('',#1597,1.);
#1597=DIRECTION('',(0.,0.,1.));
#1598=CARTESIAN_POINT('',(1.99992333404299,-22.0775454584595,6.));
#1599=CARTESIAN_POINT('',(1.99992333400925,-22.0775454584599,6.));
#1600=VECTOR('',#1601,1.);
#1601=DIRECTION('',(-0.0112269935392068,0.99993697532198,0.));
#1602=CARTESIAN_POINT('',(1.99992333404299,-22.0775454584595,0.));
#1603=VECTOR('',#1604,1.);
#1604=DIRECTION('',(0.,0.,1.));
#1605=CARTESIAN_POINT('',(-2.00004792455001,-22.0975817106077,6.));
#1606=AXIS2_PLACEMENT_3D('',#1607,#1608,#1609);
#1607=CARTESIAN_POINT('',(-2.70646942611565E-15,-22.1,6.));
#1608=DIRECTION('',(0.,0.,1.));
#1609=DIRECTION('',(-0.999999269020386,0.00120911483915599,0.));
#1610=CARTESIAN_POINT('',(-2.00004792455001,-22.0975817106077,0.));
#1611=VECTOR('',#1612,1.);
#1612=DIRECTION('',(0.,0.,1.));
#1613=CARTESIAN_POINT('',(-1.99291041414997,-16.1944987680086,6.));
#1614=CARTESIAN_POINT('',(-1.99291041414997,-16.1944987680086,6.));
#1615=VECTOR('',#1616,1.);
#1616=DIRECTION('',(-0.00120911483915626,-0.999999269020386,0.));
#1617=CARTESIAN_POINT('',(-1.99291041414997,-16.1944987680086,0.));
#1618=VECTOR('',#1619,1.);
#1619=DIRECTION('',(0.,0.,1.));
#1620=CARTESIAN_POINT('',(-7.88898030094691,-14.1461885954236,6.));
#1621=AXIS2_PLACEMENT_3D('',#1622,#1623,#1624);
#1622=CARTESIAN_POINT('',(-5.23847762324503,-16.0267916237437,6.));
#1623=DIRECTION('',(0.,0.,-1.));
#1624=DIRECTION('',(-0.815565067569293,0.578665378747246,0.));
#1625=CARTESIAN_POINT('',(-7.88898030094691,-14.1461885954236,0.));
#1626=VECTOR('',#1627,1.);
#1627=DIRECTION('',(0.,0.,1.));
#1628=CARTESIAN_POINT('',(-11.3588836626114,-19.0366349114453,6.));
#1629=CARTESIAN_POINT('',(-11.3588836626389,-19.0366349114257,6.));
#1630=VECTOR('',#1631,1.);
#1631=DIRECTION('',(0.578665378747246,0.815565067569293,0.));
#1632=CARTESIAN_POINT('',(-11.3588836626114,-19.0366349114453,0.));
#1633=VECTOR('',#1634,1.);
#1634=DIRECTION('',(0.,0.,1.));
#1635=CARTESIAN_POINT('',(-14.6067054013484,-16.701720464542,6.));
#1636=AXIS2_PLACEMENT_3D('',#1637,#1638,#1639);
#1637=CARTESIAN_POINT('',(-12.9900540756637,-17.8792755756863,6.));
#1638=DIRECTION('',(0.,0.,1.));
#1639=DIRECTION('',(-0.808305703129233,0.588763017086465,0.));
#1640=CARTESIAN_POINT('',(-14.6067054013484,-16.701720464542,0.));
#1641=VECTOR('',#1642,1.);
#1642=DIRECTION('',(0.,0.,1.));
#1643=CARTESIAN_POINT('',(-11.1311859374183,-11.9302213681258,6.));
#1644=CARTESIAN_POINT('',(-11.1311859374183,-11.9302213681258,6.));
#1645=VECTOR('',#1646,1.);
#1646=DIRECTION('',(-0.588763017086465,-0.808305703129233,0.));
#1647=CARTESIAN_POINT('',(-11.1311859374183,-11.9302213681258,0.));
#1648=VECTOR('',#1649,1.);
#1649=DIRECTION('',(0.,0.,1.));
#1650=CARTESIAN_POINT('',(-14.6972401642932,-6.80748070280832,6.));
#1651=AXIS2_PLACEMENT_3D('',#1652,#1653,#1654);
#1652=CARTESIAN_POINT('',(-13.6583291798592,-9.88684689750719,6.));
#1653=DIRECTION('',(0.,0.,-1.));
#1654=DIRECTION('',(-0.31967502404224,0.947527244465083,0.));
#1655=CARTESIAN_POINT('',(-14.6972401642932,-6.80748070280832,0.));
#1656=VECTOR('',#1657,1.);
#1657=DIRECTION('',(0.,0.,1.));
#1658=CARTESIAN_POINT('',(-20.3789831744041,-8.72437685968175,6.));
#1659=CARTESIAN_POINT('',(-20.3789831744149,-8.72437685964978,6.));
#1660=VECTOR('',#1661,1.);
#1661=DIRECTION('',(0.947527244465083,0.319675024042241,0.));
#1662=CARTESIAN_POINT('',(-20.3789831744041,-8.72437685968174,0.));
#1663=VECTOR('',#1664,1.);
#1664=DIRECTION('',(0.,0.,1.));
#1665=CARTESIAN_POINT('',(-21.6340978784883,-4.92636967162091,6.));
#1666=AXIS2_PLACEMENT_3D('',#1667,#1668,#1669);
#1667=CARTESIAN_POINT('',(-21.0183490101229,-6.82927557568633,6.));
#1668=DIRECTION('',(0.,0.,1.));
#1669=DIRECTION('',(-0.307866831943095,0.951429458125678,0.));
#1670=CARTESIAN_POINT('',(-21.6340978784883,-4.92636967162091,0.));
#1671=VECTOR('',#1672,1.);
#1672=DIRECTION('',(0.,0.,1.));
#1673=CARTESIAN_POINT('',(-16.0177267676877,-3.10900489892904,6.));
#1674=CARTESIAN_POINT('',(-16.0177267676877,-3.10900489892904,6.));
#1675=VECTOR('',#1676,1.);
#1676=DIRECTION('',(-0.951429458125678,-0.307866831943095,0.));
#1677=CARTESIAN_POINT('',(-16.0177267676877,-3.10900489892904,0.));
#1678=VECTOR('',#1679,1.);
#1679=DIRECTION('',(0.,0.,1.));
#1680=CARTESIAN_POINT('',(-15.8916538256996,3.1314534405207,6.));
#1681=AXIS2_PLACEMENT_3D('',#1682,#1683,#1684);
#1682=CARTESIAN_POINT('',(-16.8611632193017,0.029537302010658,6.));
#1683=DIRECTION('',(0.,0.,-1.));
#1684=DIRECTION('',(0.298320013314508,0.954465908063788,0.));
#1685=CARTESIAN_POINT('',(-15.8916538256996,3.1314534405207,0.));
#1686=VECTOR('',#1687,1.);
#1687=DIRECTION('',(0.,0.,1.));
#1688=CARTESIAN_POINT('',(-21.6150037697367,4.92029662181713,6.));
#1689=CARTESIAN_POINT('',(-21.6150037697266,4.92029662184933,6.));
#1690=VECTOR('',#1691,1.);
#1691=DIRECTION('',(0.954465908063788,-0.298320013314508,0.));
#1692=CARTESIAN_POINT('',(-21.6150037697367,4.92029662181713,0.));
#1693=VECTOR('',#1694,1.);
#1694=DIRECTION('',(0.,0.,1.));
#1695=CARTESIAN_POINT('',(-20.3980002819877,8.73068689471268,6.));
#1696=AXIS2_PLACEMENT_3D('',#1697,#1698,#1699);
#1697=CARTESIAN_POINT('',(-21.0183490101229,6.82927557568634,6.));
#1698=DIRECTION('',(0.,0.,1.));
#1699=DIRECTION('',(0.310166705036553,0.950682184058778,0.));
#1700=CARTESIAN_POINT('',(-20.3980002819877,8.73068689471268,0.));
#1701=VECTOR('',#1702,1.);
#1702=DIRECTION('',(0.,0.,1.));
#1703=CARTESIAN_POINT('',(-14.7860403952095,6.89974577046868,6.));
#1704=CARTESIAN_POINT('',(-14.7860403952095,6.89974577046868,6.));
#1705=VECTOR('',#1706,1.);
#1706=DIRECTION('',(-0.950682184058778,0.310166705036553,0.));
#1707=CARTESIAN_POINT('',(-14.7860403952095,6.89974577046868,0.));
#1708=VECTOR('',#1709,1.);
#1709=DIRECTION('',(0.,0.,1.));
#1710=CARTESIAN_POINT('',(-11.015995863136,11.8742788037586,6.));
#1711=AXIS2_PLACEMENT_3D('',#1712,#1713,#1714);
#1712=CARTESIAN_POINT('',(-13.6236059988305,9.93463925609641,6.));
#1713=DIRECTION('',(0.,0.,-1.));
#1714=DIRECTION('',(0.802366945109436,0.596831035885158,0.));
#1715=CARTESIAN_POINT('',(-11.015995863136,11.8742788037586,0.));
#1716=VECTOR('',#1717,1.);
#1717=DIRECTION('',(0.,0.,1.));
#1718=CARTESIAN_POINT('',(-14.594827591987,16.6855840285132,6.));
#1719=CARTESIAN_POINT('',(-14.5948275919599,16.6855840285333,6.));
#1720=VECTOR('',#1721,1.);
#1721=DIRECTION('',(0.596831035885158,-0.802366945109436,0.));
#1722=CARTESIAN_POINT('',(-14.594827591987,16.6855840285131,0.));
#1723=VECTOR('',#1724,1.);
#1724=DIRECTION('',(0.,0.,1.));
#1725=CARTESIAN_POINT('',(-11.3705598802978,19.0529178123993,6.));
#1726=AXIS2_PLACEMENT_3D('',#1727,#1728,#1729);
#1727=CARTESIAN_POINT('',(-12.9900540756637,17.8792755756863,6.));
#1728=DIRECTION('',(0.,0.,1.));
#1729=DIRECTION('',(0.809727102870801,0.586806628180408,0.));
#1730=CARTESIAN_POINT('',(-11.3705598802978,19.0529178123993,0.));
#1731=VECTOR('',#1732,1.);
#1732=DIRECTION('',(0.,0.,1.));
#1733=CARTESIAN_POINT('',(-7.90658915079004,14.2730280692807,6.));
#1734=CARTESIAN_POINT('',(-7.90658915079004,14.2730280692807,6.));
#1735=VECTOR('',#1736,1.);
#1736=DIRECTION('',(-0.586806628180408,0.809727102870801,0.));
#1737=CARTESIAN_POINT('',(-7.90658915079004,14.2730280692807,0.));
#1738=VECTOR('',#1739,1.);
#1739=DIRECTION('',(0.,0.,1.));
#1740=CARTESIAN_POINT('',(-1.93260190078272,16.0815332558532,6.));
#1741=AXIS2_PLACEMENT_3D('',#1742,#1743,#1744);
#1742=CARTESIAN_POINT('',(-5.182294336143,16.0450466803223,6.));
#1743=DIRECTION('',(0.,0.,-1.));
#1744=DIRECTION('',(0.99993697532198,0.0112269935392059,0.));
#1745=CARTESIAN_POINT('',(-1.93260190078272,16.0815332558532,0.));
#1746=VECTOR('',#1747,1.);
#1747=DIRECTION('',(0.,0.,1.));
#1748=CARTESIAN_POINT('',(-1.99992333404298,22.0775454584595,6.));
#1749=CARTESIAN_POINT('',(-1.99992333400925,22.0775454584599,6.));
#1750=VECTOR('',#1751,1.);
#1751=DIRECTION('',(0.0112269935392067,-0.99993697532198,0.));
#1752=CARTESIAN_POINT('',(-1.99992333404298,22.0775454584595,0.));
#1753=VECTOR('',#1754,1.);
#1754=DIRECTION('',(0.,0.,1.));
#1755=CARTESIAN_POINT('',(2.00004792455001,22.0975817106077,6.));
#1756=AXIS2_PLACEMENT_3D('',#1757,#1758,#1759);
#1757=CARTESIAN_POINT('',(5.4129388522313E-15,22.1,6.));
#1758=DIRECTION('',(0.,0.,1.));
#1759=DIRECTION('',(0.999999269020386,-0.00120911483915599,0.));
#1760=CARTESIAN_POINT('',(2.00004792455001,22.0975817106077,0.));
#1761=VECTOR('',#1762,1.);
#1762=DIRECTION('',(0.,0.,1.));
#1763=CARTESIAN_POINT('',(1.99291041414997,16.1944987680087,6.));
#1764=CARTESIAN_POINT('',(1.99291041414997,16.1944987680087,6.));
#1765=VECTOR('',#1766,1.);
#1766=DIRECTION('',(0.00120911483915635,0.999999269020386,0.));
#1767=CARTESIAN_POINT('',(1.99291041414997,16.1944987680087,0.));
#1768=VECTOR('',#1769,1.);
#1769=DIRECTION('',(0.,0.,1.));
#1770=CARTESIAN_POINT('',(7.88898030094691,14.1461885954236,6.));
#1771=AXIS2_PLACEMENT_3D('',#1772,#1773,#1774);
#1772=CARTESIAN_POINT('',(5.23847762324503,16.0267916237437,6.));
#1773=DIRECTION('',(0.,0.,-1.));
#1774=DIRECTION('',(0.815565067569293,-0.578665378747247,0.));
#1775=CARTESIAN_POINT('',(7.88898030094691,14.1461885954236,0.));
#1776=VECTOR('',#1777,1.);
#1777=DIRECTION('',(0.,0.,1.));
#1778=CARTESIAN_POINT('',(11.3588836626114,19.0366349114453,6.));
#1779=CARTESIAN_POINT('',(11.3588836626389,19.0366349114257,6.));
#1780=VECTOR('',#1781,1.);
#1781=DIRECTION('',(-0.578665378747246,-0.815565067569293,0.));
#1782=CARTESIAN_POINT('',(11.3588836626114,19.0366349114453,0.));
#1783=VECTOR('',#1784,1.);
#1784=DIRECTION('',(0.,0.,1.));
#1785=CARTESIAN_POINT('',(14.6067054013484,16.701720464542,6.));
#1786=AXIS2_PLACEMENT_3D('',#1787,#1788,#1789);
#1787=CARTESIAN_POINT('',(12.9900540756637,17.8792755756863,6.));
#1788=DIRECTION('',(0.,0.,1.));
#1789=DIRECTION('',(0.808305703129233,-0.588763017086465,0.));
#1790=CARTESIAN_POINT('',(14.6067054013484,16.701720464542,0.));
#1791=VECTOR('',#1792,1.);
#1792=DIRECTION('',(0.,0.,1.));
#1793=CARTESIAN_POINT('',(11.1311859374183,11.9302213681258,6.));
#1794=CARTESIAN_POINT('',(11.1311859374183,11.9302213681258,6.));
#1795=VECTOR('',#1796,1.);
#1796=DIRECTION('',(0.588763017086465,0.808305703129233,0.));
#1797=CARTESIAN_POINT('',(11.1311859374183,11.9302213681258,0.));
#1798=VECTOR('',#1799,1.);
#1799=DIRECTION('',(0.,0.,1.));
#1800=CARTESIAN_POINT('',(14.6972401642932,6.80748070280832,6.));
#1801=AXIS2_PLACEMENT_3D('',#1802,#1803,#1804);
#1802=CARTESIAN_POINT('',(13.6583291798592,9.88684689750719,6.));
#1803=DIRECTION('',(0.,0.,-1.));
#1804=DIRECTION('',(0.319675024042241,-0.947527244465083,0.));
#1805=CARTESIAN_POINT('',(14.6972401642932,6.80748070280832,0.));
#1806=VECTOR('',#1807,1.);
#1807=DIRECTION('',(0.,0.,1.));
#1808=CARTESIAN_POINT('',(20.3789831744041,8.72437685968175,6.));
#1809=CARTESIAN_POINT('',(20.3789831744149,8.72437685964978,6.));
#1810=VECTOR('',#1811,1.);
#1811=DIRECTION('',(-0.947527244465083,-0.319675024042241,0.));
#1812=CARTESIAN_POINT('',(20.3789831744041,8.72437685968175,0.));
#1813=VECTOR('',#1814,1.);
#1814=DIRECTION('',(0.,0.,1.));
#1815=CARTESIAN_POINT('',(21.6340978784883,4.92636967162091,6.));
#1816=AXIS2_PLACEMENT_3D('',#1817,#1818,#1819);
#1817=CARTESIAN_POINT('',(21.0183490101229,6.82927557568633,6.));
#1818=DIRECTION('',(0.,0.,1.));
#1819=DIRECTION('',(0.307866831943095,-0.951429458125678,0.));
#1820=CARTESIAN_POINT('',(21.6340978784883,4.92636967162091,0.));
#1821=VECTOR('',#1822,1.);
#1822=DIRECTION('',(0.,0.,1.));
#1823=CARTESIAN_POINT('',(16.0177267676877,3.10900489892905,6.));
#1824=CARTESIAN_POINT('',(16.0177267676877,3.10900489892905,6.));
#1825=VECTOR('',#1826,1.);
#1826=DIRECTION('',(0.951429458125678,0.307866831943095,0.));
#1827=CARTESIAN_POINT('',(16.0177267676877,3.10900489892905,0.));
#1828=VECTOR('',#1829,1.);
#1829=DIRECTION('',(0.,0.,1.));
#1830=CARTESIAN_POINT('',(15.8916538256996,-3.1314534405207,6.));
#1831=AXIS2_PLACEMENT_3D('',#1832,#1833,#1834);
#1832=CARTESIAN_POINT('',(16.8611632193017,-0.0295373020106563,6.));
#1833=DIRECTION('',(0.,0.,-1.));
#1834=DIRECTION('',(-0.298320013314508,-0.954465908063788,0.));
#1835=CARTESIAN_POINT('',(15.8916538256996,-3.1314534405207,0.));
#1836=VECTOR('',#1837,1.);
#1837=DIRECTION('',(0.,0.,1.));
#1838=CARTESIAN_POINT('',(21.6150037697367,-4.92029662181713,6.));
#1839=CARTESIAN_POINT('',(21.6150037697266,-4.92029662184933,6.));
#1840=VECTOR('',#1841,1.);
#1841=DIRECTION('',(-0.954465908063788,0.298320013314508,0.));
#1842=CARTESIAN_POINT('',(21.6150037697367,-4.92029662181713,0.));
#1843=VECTOR('',#1844,1.);
#1844=DIRECTION('',(0.,0.,1.));
#1845=CARTESIAN_POINT('',(20.3980002819877,-8.73068689471268,6.));
#1846=AXIS2_PLACEMENT_3D('',#1847,#1848,#1849);
#1847=CARTESIAN_POINT('',(21.0183490101229,-6.82927557568634,6.));
#1848=DIRECTION('',(0.,0.,1.));
#1849=DIRECTION('',(-0.310166705036553,-0.950682184058778,0.));
#1850=CARTESIAN_POINT('',(20.3980002819877,-8.73068689471268,0.));
#1851=VECTOR('',#1852,1.);
#1852=DIRECTION('',(0.,0.,1.));
#1853=CARTESIAN_POINT('',(14.7860403952094,-6.89974577046866,6.));
#1854=CARTESIAN_POINT('',(14.7860403952094,-6.89974577046866,6.));
#1855=VECTOR('',#1856,1.);
#1856=DIRECTION('',(0.950682184058778,-0.310166705036553,0.));
#1857=CARTESIAN_POINT('',(14.7860403952094,-6.89974577046866,0.));
#1858=VECTOR('',#1859,1.);
#1859=DIRECTION('',(0.,0.,1.));
#1860=CARTESIAN_POINT('',(11.015995863136,-11.8742788037586,6.));
#1861=AXIS2_PLACEMENT_3D('',#1862,#1863,#1864);
#1862=CARTESIAN_POINT('',(13.6236059988305,-9.93463925609641,6.));
#1863=DIRECTION('',(0.,0.,-1.));
#1864=DIRECTION('',(-0.802366945109435,-0.596831035885159,0.));
#1865=CARTESIAN_POINT('',(11.015995863136,-11.8742788037586,0.));
#1866=VECTOR('',#1867,1.);
#1867=DIRECTION('',(0.,0.,1.));
#1868=CARTESIAN_POINT('',(14.594827591987,-16.6855840285132,6.));
#1869=CARTESIAN_POINT('',(14.5948275919599,-16.6855840285333,6.));
#1870=VECTOR('',#1871,1.);
#1871=DIRECTION('',(-0.596831035885158,0.802366945109436,0.));
#1872=CARTESIAN_POINT('',(14.594827591987,-16.6855840285131,0.));
#1873=VECTOR('',#1874,1.);
#1874=DIRECTION('',(0.,0.,1.));
#1875=CARTESIAN_POINT('',(11.3705598802978,-19.0529178123993,6.));
#1876=AXIS2_PLACEMENT_3D('',#1877,#1878,#1879);
#1877=CARTESIAN_POINT('',(12.9900540756637,-17.8792755756863,6.));
#1878=DIRECTION('',(0.,0.,1.));
#1879=DIRECTION('',(-0.809727102870801,-0.586806628180408,0.));
#1880=CARTESIAN_POINT('',(11.3705598802978,-19.0529178123993,0.));
#1881=VECTOR('',#1882,1.);
#1882=DIRECTION('',(0.,0.,1.));
#1883=CARTESIAN_POINT('',(7.90658915079004,-14.2730280692807,6.));
#1884=CARTESIAN_POINT('',(7.90658915079004,-14.2730280692807,6.));
#1885=VECTOR('',#1886,1.);
#1886=DIRECTION('',(0.586806628180408,-0.809727102870801,0.));
#1887=CARTESIAN_POINT('',(7.90658915079004,-14.2730280692807,0.));
#1888=VECTOR('',#1889,1.);
#1889=DIRECTION('',(0.,0.,1.));
#1890=AXIS2_PLACEMENT_3D('',#1891,#1892,#1893);
#1891=CARTESIAN_POINT('',(5.182294336143,-16.0450466803223,6.));
#1892=DIRECTION('',(0.,0.,-1.));
#1893=DIRECTION('',(-0.99993697532198,-0.011226993539207,0.));
#1894=CARTESIAN_POINT('',(1.11320198266512,2.83959175688874,6.));
#1895=CARTESIAN_POINT('',(3.04999981283024,0.00106852022716099,6.));
#1896=CARTESIAN_POINT('',(3.04999981283024,0.0010685202271619,6.));
#1897=VECTOR('',#1898,1.);
#1898=DIRECTION('',(-0.563623070856329,0.826032102280826,0.));
#1899=CARTESIAN_POINT('',(1.11320198266512,2.83959175688874,1.4));
#1900=VECTOR('',#1901,1.);
#1901=DIRECTION('',(0.,0.,1.));
#1902=CARTESIAN_POINT('',(3.04999981283024,0.00106852022716055,1.4));
#1903=VECTOR('',#1904,1.);
#1904=DIRECTION('',(0.,0.,1.));
#1905=AXIS2_PLACEMENT_3D('',#1906,#1907,#1908);
#1906=CARTESIAN_POINT('',(0.,0.,6.));
#1907=DIRECTION('',(0.,0.,1.));
#1908=DIRECTION('',(0.364984256611514,0.931013690783192,0.));
ENDSEC;
END-ISO-10303-21;
