ISO-10303-21;
HEADER;
FILE_DESCRIPTION(('STEP AP242'),
    '1');
FILE_NAME('Деталь',
    '',
    ('UNSPECIFIED'),
    ('UNSPECIFIED'),
    'C3D Converter',
    'C3D Toolkit',
    '');
FILE_SCHEMA(('AP242_MANAGED_MODEL_BASED_3D_ENGINEERING_MIM_LF { 1 0 10303 442 1 1 4 }'));
ENDSEC;

DATA;
#1=PRODUCT_DEFINITION('','UNSPECIFIED',#28,#31);
#2=SHAPE_DEFINITION_REPRESENTATION(#26,#3);
#3=SHAPE_REPRESENTATION('NONE',(#4),#8);
#4=AXIS2_PLACEMENT_3D('',#5,#6,#7);
#5=CARTESIAN_POINT('',(0.,0.,0.));
#6=DIRECTION('',(0.,0.,1.));
#7=DIRECTION('',(1.,0.,0.));
#8=(GEOMETRIC_REPRESENTATION_CONTEXT(3)GLOBAL_UNCERTAINTY_ASSIGNED_CONTEXT((#10))
GLOBAL_UNIT_ASSIGNED_CONTEXT((#9,#11,#12))REPRESENTATION_CONTEXT('NONE','NONE'));
#9=(LENGTH_UNIT()NAMED_UNIT(*)SI_UNIT(.MILLI.,.METRE.));
#10=UNCERTAINTY_MEASURE_WITH_UNIT(LENGTH_MEASURE(1.E-5),#9,'NONE','NONE');
#11=(NAMED_UNIT(*)PLANE_ANGLE_UNIT()SI_UNIT($,.RADIAN.));
#12=(NAMED_UNIT(*)SI_UNIT($,.STERADIAN.)SOLID_ANGLE_UNIT());
#13=MANIFOLD_SOLID_BREP('',#14);
#14=CLOSED_SHELL('',(#53,#62,#71,#80,#89,#98,#107,#116,#125,#134,#143,#152,#161,
#170,#179,#188,#197,#206,#215,#224,#233,#242,#251,#260,#269,#278,#287,#296,#305));
#15=COLOUR_RGB('',0.564705882352941,0.564705882352941,0.564705882352941);
#16=FILL_AREA_STYLE_COLOUR('',#15);
#17=FILL_AREA_STYLE($,(#16));
#18=SURFACE_STYLE_FILL_AREA(#17);
#19=SURFACE_SIDE_STYLE('',(#18));
#20=SURFACE_STYLE_USAGE(.BOTH.,#19);
#21=PRESENTATION_STYLE_ASSIGNMENT((#20));
#22=MECHANICAL_DESIGN_GEOMETRIC_PRESENTATION_REPRESENTATION('NONE',(#23,#61,#70,
#79,#88,#97,#106,#115,#124,#133,#142,#151,#160,#169,#178,#187,#196,#205,#214,#223,
#232,#241,#250,#259,#268,#277,#286,#295,#304,#313),#8);
#23=STYLED_ITEM('',(#21),#13);
#24=ADVANCED_BREP_SHAPE_REPRESENTATION('NONE',(#13),#8);
#25=SHAPE_REPRESENTATION_RELATIONSHIP('','',#3,#24);
#26=PRODUCT_DEFINITION_SHAPE('NONE','NONE',#1);
#27=MECHANICAL_CONTEXT('NONE',#32,'mechanical');
#28=PRODUCT_DEFINITION_FORMATION_WITH_SPECIFIED_SOURCE('ANY','UNSPECIFIED',#29,.NOT_KNOWN.);
#29=PRODUCT('','\X2\04340435044004360430043B043A0430\X0\ \X2\043D0430\X0\ \X2\04420440044304310443\X0\',
'NONE',(#27));
#30=PRODUCT_RELATED_PRODUCT_CATEGORY('detail','',(#29));
#31=DESIGN_CONTEXT('detailed design',#32,'design');
#32=APPLICATION_CONTEXT('configuration controlled 3d designs of mechanical parts and assemblies');
#33=APPLICATION_PROTOCOL_DEFINITION('international standard','config_control_design',
1994,#32);
#34=CC_DESIGN_DATE_AND_TIME_ASSIGNMENT(#35,#39,(#1));
#35=DATE_AND_TIME(#36,#37);
#36=CALENDAR_DATE(0,1,1);
#37=LOCAL_TIME(0,0,0.,#38);
#38=COORDINATED_UNIVERSAL_TIME_OFFSET(0,0,.AHEAD.);
#39=DATE_TIME_ROLE('creation_date');
#40=CC_DESIGN_APPROVAL(#41,(#1));
#41=APPROVAL(#42,'UNSPECIFIED');
#42=APPROVAL_STATUS('not_yet_approved');
#43=APPROVAL_DATE_TIME(#44,#41);
#44=DATE_AND_TIME(#45,#46);
#45=CALENDAR_DATE(0,1,1);
#46=LOCAL_TIME(0,0,0.,#47);
#47=COORDINATED_UNIVERSAL_TIME_OFFSET(0,0,.AHEAD.);
#48=PERSON('UNSPECIFIED','savvig','UNSPECIFIED',('UNSPECIFIED'),('UNSPECIFIED'),
('UNSPECIFIED'));
#49=ORGANIZATION('UNSPECIFIED','UNSPECIFIED','UNSPECIFIED');
#50=PERSON_AND_ORGANIZATION(#48,#49);
#51=PERSON_AND_ORGANIZATION_ROLE('creator');
#52=CC_DESIGN_PERSON_AND_ORGANIZATION_ASSIGNMENT(#50,#51,(#28,#1));
#53=ADVANCED_FACE('',(#314,#316),#318,.F.);
#54=COLOUR_RGB('',0.564705882352941,0.564705882352941,0.564705882352941);
#55=FILL_AREA_STYLE_COLOUR('',#54);
#56=FILL_AREA_STYLE($,(#55));
#57=SURFACE_STYLE_FILL_AREA(#56);
#58=SURFACE_SIDE_STYLE('',(#57));
#59=SURFACE_STYLE_USAGE(.BOTH.,#58);
#60=PRESENTATION_STYLE_ASSIGNMENT((#59));
#61=STYLED_ITEM('',(#60),#53);
#62=ADVANCED_FACE('',(#323,#325),#327,.T.);
#63=COLOUR_RGB('',0.564705882352941,0.564705882352941,0.564705882352941);
#64=FILL_AREA_STYLE_COLOUR('',#63);
#65=FILL_AREA_STYLE($,(#64));
#66=SURFACE_STYLE_FILL_AREA(#65);
#67=SURFACE_SIDE_STYLE('',(#66));
#68=SURFACE_STYLE_USAGE(.BOTH.,#67);
#69=PRESENTATION_STYLE_ASSIGNMENT((#68));
#70=STYLED_ITEM('',(#69),#62);
#71=ADVANCED_FACE('',(#332,#334),#336,.T.);
#72=COLOUR_RGB('',0.564705882352941,0.564705882352941,0.564705882352941);
#73=FILL_AREA_STYLE_COLOUR('',#72);
#74=FILL_AREA_STYLE($,(#73));
#75=SURFACE_STYLE_FILL_AREA(#74);
#76=SURFACE_SIDE_STYLE('',(#75));
#77=SURFACE_STYLE_USAGE(.BOTH.,#76);
#78=PRESENTATION_STYLE_ASSIGNMENT((#77));
#79=STYLED_ITEM('',(#78),#71);
#80=ADVANCED_FACE('',(#341,#343),#345,.F.);
#81=COLOUR_RGB('',0.564705882352941,0.564705882352941,0.564705882352941);
#82=FILL_AREA_STYLE_COLOUR('',#81);
#83=FILL_AREA_STYLE($,(#82));
#84=SURFACE_STYLE_FILL_AREA(#83);
#85=SURFACE_SIDE_STYLE('',(#84));
#86=SURFACE_STYLE_USAGE(.BOTH.,#85);
#87=PRESENTATION_STYLE_ASSIGNMENT((#86));
#88=STYLED_ITEM('',(#87),#80);
#89=ADVANCED_FACE('',(#350,#352),#354,.T.);
#90=COLOUR_RGB('',0.564705882352941,0.564705882352941,0.564705882352941);
#91=FILL_AREA_STYLE_COLOUR('',#90);
#92=FILL_AREA_STYLE($,(#91));
#93=SURFACE_STYLE_FILL_AREA(#92);
#94=SURFACE_SIDE_STYLE('',(#93));
#95=SURFACE_STYLE_USAGE(.BOTH.,#94);
#96=PRESENTATION_STYLE_ASSIGNMENT((#95));
#97=STYLED_ITEM('',(#96),#89);
#98=ADVANCED_FACE('',(#359),#361,.T.);
#99=COLOUR_RGB('',0.564705882352941,0.564705882352941,0.564705882352941);
#100=FILL_AREA_STYLE_COLOUR('',#99);
#101=FILL_AREA_STYLE($,(#100));
#102=SURFACE_STYLE_FILL_AREA(#101);
#103=SURFACE_SIDE_STYLE('',(#102));
#104=SURFACE_STYLE_USAGE(.BOTH.,#103);
#105=PRESENTATION_STYLE_ASSIGNMENT((#104));
#106=STYLED_ITEM('',(#105),#98);
#107=ADVANCED_FACE('',(#366),#368,.T.);
#108=COLOUR_RGB('',0.564705882352941,0.564705882352941,0.564705882352941);
#109=FILL_AREA_STYLE_COLOUR('',#108);
#110=FILL_AREA_STYLE($,(#109));
#111=SURFACE_STYLE_FILL_AREA(#110);
#112=SURFACE_SIDE_STYLE('',(#111));
#113=SURFACE_STYLE_USAGE(.BOTH.,#112);
#114=PRESENTATION_STYLE_ASSIGNMENT((#113));
#115=STYLED_ITEM('',(#114),#107);
#116=ADVANCED_FACE('',(#373),#375,.T.);
#117=COLOUR_RGB('',0.564705882352941,0.564705882352941,0.564705882352941);
#118=FILL_AREA_STYLE_COLOUR('',#117);
#119=FILL_AREA_STYLE($,(#118));
#120=SURFACE_STYLE_FILL_AREA(#119);
#121=SURFACE_SIDE_STYLE('',(#120));
#122=SURFACE_STYLE_USAGE(.BOTH.,#121);
#123=PRESENTATION_STYLE_ASSIGNMENT((#122));
#124=STYLED_ITEM('',(#123),#116);
#125=ADVANCED_FACE('',(#380,#382),#384,.F.);
#126=COLOUR_RGB('',0.564705882352941,0.564705882352941,0.564705882352941);
#127=FILL_AREA_STYLE_COLOUR('',#126);
#128=FILL_AREA_STYLE($,(#127));
#129=SURFACE_STYLE_FILL_AREA(#128);
#130=SURFACE_SIDE_STYLE('',(#129));
#131=SURFACE_STYLE_USAGE(.BOTH.,#130);
#132=PRESENTATION_STYLE_ASSIGNMENT((#131));
#133=STYLED_ITEM('',(#132),#125);
#134=ADVANCED_FACE('',(#389),#391,.F.);
#135=COLOUR_RGB('',0.564705882352941,0.564705882352941,0.564705882352941);
#136=FILL_AREA_STYLE_COLOUR('',#135);
#137=FILL_AREA_STYLE($,(#136));
#138=SURFACE_STYLE_FILL_AREA(#137);
#139=SURFACE_SIDE_STYLE('',(#138));
#140=SURFACE_STYLE_USAGE(.BOTH.,#139);
#141=PRESENTATION_STYLE_ASSIGNMENT((#140));
#142=STYLED_ITEM('',(#141),#134);
#143=ADVANCED_FACE('',(#396),#398,.T.);
#144=COLOUR_RGB('',0.564705882352941,0.564705882352941,0.564705882352941);
#145=FILL_AREA_STYLE_COLOUR('',#144);
#146=FILL_AREA_STYLE($,(#145));
#147=SURFACE_STYLE_FILL_AREA(#146);
#148=SURFACE_SIDE_STYLE('',(#147));
#149=SURFACE_STYLE_USAGE(.BOTH.,#148);
#150=PRESENTATION_STYLE_ASSIGNMENT((#149));
#151=STYLED_ITEM('',(#150),#143);
#152=ADVANCED_FACE('',(#403),#405,.T.);
#153=COLOUR_RGB('',0.564705882352941,0.564705882352941,0.564705882352941);
#154=FILL_AREA_STYLE_COLOUR('',#153);
#155=FILL_AREA_STYLE($,(#154));
#156=SURFACE_STYLE_FILL_AREA(#155);
#157=SURFACE_SIDE_STYLE('',(#156));
#158=SURFACE_STYLE_USAGE(.BOTH.,#157);
#159=PRESENTATION_STYLE_ASSIGNMENT((#158));
#160=STYLED_ITEM('',(#159),#152);
#161=ADVANCED_FACE('',(#410,#412),#414,.T.);
#162=COLOUR_RGB('',0.564705882352941,0.564705882352941,0.564705882352941);
#163=FILL_AREA_STYLE_COLOUR('',#162);
#164=FILL_AREA_STYLE($,(#163));
#165=SURFACE_STYLE_FILL_AREA(#164);
#166=SURFACE_SIDE_STYLE('',(#165));
#167=SURFACE_STYLE_USAGE(.BOTH.,#166);
#168=PRESENTATION_STYLE_ASSIGNMENT((#167));
#169=STYLED_ITEM('',(#168),#161);
#170=ADVANCED_FACE('',(#419),#421,.T.);
#171=COLOUR_RGB('',0.564705882352941,0.564705882352941,0.564705882352941);
#172=FILL_AREA_STYLE_COLOUR('',#171);
#173=FILL_AREA_STYLE($,(#172));
#174=SURFACE_STYLE_FILL_AREA(#173);
#175=SURFACE_SIDE_STYLE('',(#174));
#176=SURFACE_STYLE_USAGE(.BOTH.,#175);
#177=PRESENTATION_STYLE_ASSIGNMENT((#176));
#178=STYLED_ITEM('',(#177),#170);
#179=ADVANCED_FACE('',(#426,#428),#430,.T.);
#180=COLOUR_RGB('',0.564705882352941,0.564705882352941,0.564705882352941);
#181=FILL_AREA_STYLE_COLOUR('',#180);
#182=FILL_AREA_STYLE($,(#181));
#183=SURFACE_STYLE_FILL_AREA(#182);
#184=SURFACE_SIDE_STYLE('',(#183));
#185=SURFACE_STYLE_USAGE(.BOTH.,#184);
#186=PRESENTATION_STYLE_ASSIGNMENT((#185));
#187=STYLED_ITEM('',(#186),#179);
#188=ADVANCED_FACE('',(#435),#437,.T.);
#189=COLOUR_RGB('',0.564705882352941,0.564705882352941,0.564705882352941);
#190=FILL_AREA_STYLE_COLOUR('',#189);
#191=FILL_AREA_STYLE($,(#190));
#192=SURFACE_STYLE_FILL_AREA(#191);
#193=SURFACE_SIDE_STYLE('',(#192));
#194=SURFACE_STYLE_USAGE(.BOTH.,#193);
#195=PRESENTATION_STYLE_ASSIGNMENT((#194));
#196=STYLED_ITEM('',(#195),#188);
#197=ADVANCED_FACE('',(#442),#444,.F.);
#198=COLOUR_RGB('',0.564705882352941,0.564705882352941,0.564705882352941);
#199=FILL_AREA_STYLE_COLOUR('',#198);
#200=FILL_AREA_STYLE($,(#199));
#201=SURFACE_STYLE_FILL_AREA(#200);
#202=SURFACE_SIDE_STYLE('',(#201));
#203=SURFACE_STYLE_USAGE(.BOTH.,#202);
#204=PRESENTATION_STYLE_ASSIGNMENT((#203));
#205=STYLED_ITEM('',(#204),#197);
#206=ADVANCED_FACE('',(#449),#451,.T.);
#207=COLOUR_RGB('',0.564705882352941,0.564705882352941,0.564705882352941);
#208=FILL_AREA_STYLE_COLOUR('',#207);
#209=FILL_AREA_STYLE($,(#208));
#210=SURFACE_STYLE_FILL_AREA(#209);
#211=SURFACE_SIDE_STYLE('',(#210));
#212=SURFACE_STYLE_USAGE(.BOTH.,#211);
#213=PRESENTATION_STYLE_ASSIGNMENT((#212));
#214=STYLED_ITEM('',(#213),#206);
#215=ADVANCED_FACE('',(#456,#458),#460,.T.);
#216=COLOUR_RGB('',0.564705882352941,0.564705882352941,0.564705882352941);
#217=FILL_AREA_STYLE_COLOUR('',#216);
#218=FILL_AREA_STYLE($,(#217));
#219=SURFACE_STYLE_FILL_AREA(#218);
#220=SURFACE_SIDE_STYLE('',(#219));
#221=SURFACE_STYLE_USAGE(.BOTH.,#220);
#222=PRESENTATION_STYLE_ASSIGNMENT((#221));
#223=STYLED_ITEM('',(#222),#215);
#224=ADVANCED_FACE('',(#465),#467,.T.);
#225=COLOUR_RGB('',0.564705882352941,0.564705882352941,0.564705882352941);
#226=FILL_AREA_STYLE_COLOUR('',#225);
#227=FILL_AREA_STYLE($,(#226));
#228=SURFACE_STYLE_FILL_AREA(#227);
#229=SURFACE_SIDE_STYLE('',(#228));
#230=SURFACE_STYLE_USAGE(.BOTH.,#229);
#231=PRESENTATION_STYLE_ASSIGNMENT((#230));
#232=STYLED_ITEM('',(#231),#224);
#233=ADVANCED_FACE('',(#472,#474),#476,.F.);
#234=COLOUR_RGB('',0.564705882352941,0.564705882352941,0.564705882352941);
#235=FILL_AREA_STYLE_COLOUR('',#234);
#236=FILL_AREA_STYLE($,(#235));
#237=SURFACE_STYLE_FILL_AREA(#236);
#238=SURFACE_SIDE_STYLE('',(#237));
#239=SURFACE_STYLE_USAGE(.BOTH.,#238);
#240=PRESENTATION_STYLE_ASSIGNMENT((#239));
#241=STYLED_ITEM('',(#240),#233);
#242=ADVANCED_FACE('',(#481),#483,.F.);
#243=COLOUR_RGB('',0.564705882352941,0.564705882352941,0.564705882352941);
#244=FILL_AREA_STYLE_COLOUR('',#243);
#245=FILL_AREA_STYLE($,(#244));
#246=SURFACE_STYLE_FILL_AREA(#245);
#247=SURFACE_SIDE_STYLE('',(#246));
#248=SURFACE_STYLE_USAGE(.BOTH.,#247);
#249=PRESENTATION_STYLE_ASSIGNMENT((#248));
#250=STYLED_ITEM('',(#249),#242);
#251=ADVANCED_FACE('',(#488),#490,.F.);
#252=COLOUR_RGB('',0.564705882352941,0.564705882352941,0.564705882352941);
#253=FILL_AREA_STYLE_COLOUR('',#252);
#254=FILL_AREA_STYLE($,(#253));
#255=SURFACE_STYLE_FILL_AREA(#254);
#256=SURFACE_SIDE_STYLE('',(#255));
#257=SURFACE_STYLE_USAGE(.BOTH.,#256);
#258=PRESENTATION_STYLE_ASSIGNMENT((#257));
#259=STYLED_ITEM('',(#258),#251);
#260=ADVANCED_FACE('',(#495),#497,.F.);
#261=COLOUR_RGB('',0.564705882352941,0.564705882352941,0.564705882352941);
#262=FILL_AREA_STYLE_COLOUR('',#261);
#263=FILL_AREA_STYLE($,(#262));
#264=SURFACE_STYLE_FILL_AREA(#263);
#265=SURFACE_SIDE_STYLE('',(#264));
#266=SURFACE_STYLE_USAGE(.BOTH.,#265);
#267=PRESENTATION_STYLE_ASSIGNMENT((#266));
#268=STYLED_ITEM('',(#267),#260);
#269=ADVANCED_FACE('',(#502),#504,.F.);
#270=COLOUR_RGB('',0.564705882352941,0.564705882352941,0.564705882352941);
#271=FILL_AREA_STYLE_COLOUR('',#270);
#272=FILL_AREA_STYLE($,(#271));
#273=SURFACE_STYLE_FILL_AREA(#272);
#274=SURFACE_SIDE_STYLE('',(#273));
#275=SURFACE_STYLE_USAGE(.BOTH.,#274);
#276=PRESENTATION_STYLE_ASSIGNMENT((#275));
#277=STYLED_ITEM('',(#276),#269);
#278=ADVANCED_FACE('',(#509),#511,.F.);
#279=COLOUR_RGB('',0.564705882352941,0.564705882352941,0.564705882352941);
#280=FILL_AREA_STYLE_COLOUR('',#279);
#281=FILL_AREA_STYLE($,(#280));
#282=SURFACE_STYLE_FILL_AREA(#281);
#283=SURFACE_SIDE_STYLE('',(#282));
#284=SURFACE_STYLE_USAGE(.BOTH.,#283);
#285=PRESENTATION_STYLE_ASSIGNMENT((#284));
#286=STYLED_ITEM('',(#285),#278);
#287=ADVANCED_FACE('',(#516),#518,.F.);
#288=COLOUR_RGB('',0.564705882352941,0.564705882352941,0.564705882352941);
#289=FILL_AREA_STYLE_COLOUR('',#288);
#290=FILL_AREA_STYLE($,(#289));
#291=SURFACE_STYLE_FILL_AREA(#290);
#292=SURFACE_SIDE_STYLE('',(#291));
#293=SURFACE_STYLE_USAGE(.BOTH.,#292);
#294=PRESENTATION_STYLE_ASSIGNMENT((#293));
#295=STYLED_ITEM('',(#294),#287);
#296=ADVANCED_FACE('',(#523,#525),#527,.F.);
#297=COLOUR_RGB('',0.564705882352941,0.564705882352941,0.564705882352941);
#298=FILL_AREA_STYLE_COLOUR('',#297);
#299=FILL_AREA_STYLE($,(#298));
#300=SURFACE_STYLE_FILL_AREA(#299);
#301=SURFACE_SIDE_STYLE('',(#300));
#302=SURFACE_STYLE_USAGE(.BOTH.,#301);
#303=PRESENTATION_STYLE_ASSIGNMENT((#302));
#304=STYLED_ITEM('',(#303),#296);
#305=ADVANCED_FACE('',(#532,#534),#536,.T.);
#306=COLOUR_RGB('',0.564705882352941,0.564705882352941,0.564705882352941);
#307=FILL_AREA_STYLE_COLOUR('',#306);
#308=FILL_AREA_STYLE($,(#307));
#309=SURFACE_STYLE_FILL_AREA(#308);
#310=SURFACE_SIDE_STYLE('',(#309));
#311=SURFACE_STYLE_USAGE(.BOTH.,#310);
#312=PRESENTATION_STYLE_ASSIGNMENT((#311));
#313=STYLED_ITEM('',(#312),#305);
#314=FACE_OUTER_BOUND('',#315,.T.);
#315=EDGE_LOOP('',(#541));
#316=FACE_OUTER_BOUND('',#317,.T.);
#317=EDGE_LOOP('',(#542));
#318=CYLINDRICAL_SURFACE('',#319,2.);
#319=AXIS2_PLACEMENT_3D('',#320,#321,#322);
#320=CARTESIAN_POINT('',(24.75,19.0388797118661,38.5000000003408));
#321=DIRECTION('',(-1.,-6.36130514928282E-17,0.));
#322=DIRECTION('',(-6.36130514928282E-17,1.,-6.12323399573677E-17));
#323=FACE_BOUND('',#324,.T.);
#324=EDGE_LOOP('',(#543,#544,#545,#546));
#325=FACE_BOUND('',#326,.T.);
#326=EDGE_LOOP('',(#547));
#327=PLANE('',#328);
#328=AXIS2_PLACEMENT_3D('',#329,#330,#331);
#329=CARTESIAN_POINT('',(7.49999999999999,26.0199818511647,50.));
#330=DIRECTION('',(1.,0.,0.));
#331=DIRECTION('',(0.,-1.,0.));
#332=FACE_BOUND('',#333,.T.);
#333=EDGE_LOOP('',(#548));
#334=FACE_BOUND('',#335,.T.);
#335=EDGE_LOOP('',(#549));
#336=PLANE('',#337);
#337=AXIS2_PLACEMENT_3D('',#338,#339,#340);
#338=CARTESIAN_POINT('',(4.49999999999999,0.,0.));
#339=DIRECTION('',(1.,0.,0.));
#340=DIRECTION('',(0.,1.,6.12323399573677E-17));
#341=FACE_OUTER_BOUND('',#342,.T.);
#342=EDGE_LOOP('',(#550));
#343=FACE_OUTER_BOUND('',#344,.T.);
#344=EDGE_LOOP('',(#551));
#345=CYLINDRICAL_SURFACE('',#346,4.);
#346=AXIS2_PLACEMENT_3D('',#347,#348,#349);
#347=CARTESIAN_POINT('',(4.49999999999999,19.0388797118661,38.5000000003408));
#348=DIRECTION('',(1.,0.,0.));
#349=DIRECTION('',(0.,1.,6.12323399573677E-17));
#350=FACE_BOUND('',#351,.T.);
#351=EDGE_LOOP('',(#552,#553,#554,#555));
#352=FACE_BOUND('',#353,.T.);
#353=EDGE_LOOP('',(#556));
#354=PLANE('',#355);
#355=AXIS2_PLACEMENT_3D('',#356,#357,#358);
#356=CARTESIAN_POINT('',(2.,11.0199818511647,50.));
#357=DIRECTION('',(-1.,-5.9211894646675E-17,0.));
#358=DIRECTION('',(-5.9211894646675E-17,1.,0.));
#359=FACE_BOUND('',#360,.T.);
#360=EDGE_LOOP('',(#557,#558,#559,#560,#561,#562,#563,#564,#565,#566,#567,#568));
#361=CYLINDRICAL_SURFACE('',#362,14.2);
#362=AXIS2_PLACEMENT_3D('',#363,#364,#365);
#363=CARTESIAN_POINT('',(0.,0.,50.));
#364=DIRECTION('',(0.,0.,-1.));
#365=DIRECTION('',(0.528169014084507,0.849139265704396,0.));
#366=FACE_BOUND('',#367,.T.);
#367=EDGE_LOOP('',(#569,#570,#571,#572,#573,#574,#575,#576));
#368=PLANE('',#369);
#369=AXIS2_PLACEMENT_3D('',#370,#371,#372);
#370=CARTESIAN_POINT('',(0.,0.,27.));
#371=DIRECTION('',(0.,0.,-1.));
#372=DIRECTION('',(-6.12323399573677E-17,1.,0.));
#373=FACE_BOUND('',#374,.T.);
#374=EDGE_LOOP('',(#577,#578,#579,#580));
#375=PLANE('',#376);
#376=AXIS2_PLACEMENT_3D('',#377,#378,#379);
#377=CARTESIAN_POINT('',(2.,26.0199818511647,50.));
#378=DIRECTION('',(0.,1.,0.));
#379=DIRECTION('',(1.,0.,0.));
#380=FACE_BOUND('',#381,.T.);
#381=EDGE_LOOP('',(#581,#582,#583,#584,#585,#586,#587,#588,#589,#590,#591,#592));
#382=FACE_BOUND('',#383,.T.);
#383=EDGE_LOOP('',(#593));
#384=PLANE('',#385);
#385=AXIS2_PLACEMENT_3D('',#386,#387,#388);
#386=CARTESIAN_POINT('',(0.,0.,50.));
#387=DIRECTION('',(0.,0.,-1.));
#388=DIRECTION('',(-6.12323399573677E-17,1.,0.));
#389=FACE_BOUND('',#390,.T.);
#390=EDGE_LOOP('',(#594,#595,#596,#597));
#391=CYLINDRICAL_SURFACE('',#392,11.2);
#392=AXIS2_PLACEMENT_3D('',#393,#394,#395);
#393=CARTESIAN_POINT('',(0.,0.,50.));
#394=DIRECTION('',(0.,0.,1.));
#395=DIRECTION('',(-0.178571428571429,0.983926950996851,0.));
#396=FACE_BOUND('',#397,.T.);
#397=EDGE_LOOP('',(#598,#599,#600,#601));
#398=PLANE('',#399);
#399=AXIS2_PLACEMENT_3D('',#400,#401,#402);
#400=CARTESIAN_POINT('',(2.5,-13.2905981806737,32.5));
#401=DIRECTION('',(0.,-0.857492925712544,-0.514495755427526));
#402=DIRECTION('',(7.61606711663404E-17,-0.514495755427526,0.857492925712544));
#403=FACE_BOUND('',#404,.T.);
#404=EDGE_LOOP('',(#602,#603,#604));
#405=PLANE('',#406);
#406=AXIS2_PLACEMENT_3D('',#407,#408,#409);
#407=CARTESIAN_POINT('',(-2.5,0.,1.53080849893419E-16));
#408=DIRECTION('',(-1.,0.,6.12323399573677E-17));
#409=DIRECTION('',(-3.74939945665464E-33,1.,-6.12323399573677E-17));
#410=FACE_BOUND('',#411,.T.);
#411=EDGE_LOOP('',(#605,#606,#607,#608,#609,#610,#611,#612));
#412=FACE_BOUND('',#413,.T.);
#413=EDGE_LOOP('',(#613));
#414=PLANE('',#415);
#415=AXIS2_PLACEMENT_3D('',#416,#417,#418);
#416=CARTESIAN_POINT('',(0.,0.,45.));
#417=DIRECTION('',(0.,0.,-1.));
#418=DIRECTION('',(-6.12323399573677E-17,1.,0.));
#419=FACE_BOUND('',#420,.T.);
#420=EDGE_LOOP('',(#614,#615,#616,#617));
#421=PLANE('',#422);
#422=AXIS2_PLACEMENT_3D('',#423,#424,#425);
#423=CARTESIAN_POINT('',(-4.99999999999999,-23.0831916153318,50.));
#424=DIRECTION('',(-1.,-9.06989987511038E-17,0.));
#425=DIRECTION('',(-9.06989987511038E-17,1.,0.));
#426=FACE_BOUND('',#427,.T.);
#427=EDGE_LOOP('',(#618,#619,#620,#621));
#428=FACE_BOUND('',#429,.T.);
#429=EDGE_LOOP('',(#622,#623,#624,#625,#626,#627));
#430=PLANE('',#431);
#431=AXIS2_PLACEMENT_3D('',#432,#433,#434);
#432=CARTESIAN_POINT('',(-7.50000000000001,12.0577775730024,50.));
#433=DIRECTION('',(-1.,-6.36130514928282E-17,0.));
#434=DIRECTION('',(-6.36130514928282E-17,1.,0.));
#435=FACE_BOUND('',#436,.T.);
#436=EDGE_LOOP('',(#628,#629,#630,#631));
#437=PLANE('',#438);
#438=AXIS2_PLACEMENT_3D('',#439,#440,#441);
#439=CARTESIAN_POINT('',(5.00000000000001,-13.2905981806689,50.));
#440=DIRECTION('',(1.,9.06989987510155E-17,0.));
#441=DIRECTION('',(9.06989987510155E-17,-1.,0.));
#442=FACE_BOUND('',#443,.T.);
#443=EDGE_LOOP('',(#632,#633,#634));
#444=PLANE('',#445);
#445=AXIS2_PLACEMENT_3D('',#446,#447,#448);
#446=CARTESIAN_POINT('',(2.5,0.,-1.53080849893419E-16));
#447=DIRECTION('',(-1.,0.,6.12323399573677E-17));
#448=DIRECTION('',(-3.74939945665464E-33,1.,-6.12323399573677E-17));
#449=FACE_BOUND('',#450,.T.);
#450=EDGE_LOOP('',(#635,#636,#637,#638));
#451=PLANE('',#452);
#452=AXIS2_PLACEMENT_3D('',#453,#454,#455);
#453=CARTESIAN_POINT('',(-7.50000000000001,26.0199818511647,50.));
#454=DIRECTION('',(0.,1.,0.));
#455=DIRECTION('',(1.,0.,0.));
#456=FACE_BOUND('',#457,.T.);
#457=EDGE_LOOP('',(#639,#640,#641,#642));
#458=FACE_BOUND('',#459,.T.);
#459=EDGE_LOOP('',(#643));
#460=PLANE('',#461);
#461=AXIS2_PLACEMENT_3D('',#462,#463,#464);
#462=CARTESIAN_POINT('',(-2.,26.0199818511647,50.));
#463=DIRECTION('',(1.,5.9211894646675E-17,0.));
#464=DIRECTION('',(5.9211894646675E-17,-1.,0.));
#465=FACE_BOUND('',#466,.T.);
#466=EDGE_LOOP('',(#644,#645,#646,#647));
#467=CYLINDRICAL_SURFACE('',#468,24.75);
#468=AXIS2_PLACEMENT_3D('',#469,#470,#471);
#469=CARTESIAN_POINT('',(1.4210854715202E-14,-47.3228801446886,50.));
#470=DIRECTION('',(0.,0.,-1.));
#471=DIRECTION('',(0.202020202020202,0.979381354721294,0.));
#472=FACE_OUTER_BOUND('',#473,.T.);
#473=EDGE_LOOP('',(#648));
#474=FACE_OUTER_BOUND('',#475,.T.);
#475=EDGE_LOOP('',(#649));
#476=CYLINDRICAL_SURFACE('',#477,10.5);
#477=AXIS2_PLACEMENT_3D('',#478,#479,#480);
#478=CARTESIAN_POINT('',(1.4210854715202E-14,-47.3228801446886,50.));
#479=DIRECTION('',(0.,0.,-1.));
#480=DIRECTION('',(-6.12323399573677E-17,1.,0.));
#481=FACE_BOUND('',#482,.T.);
#482=EDGE_LOOP('',(#650,#651,#652,#653));
#483=PLANE('',#484);
#484=AXIS2_PLACEMENT_3D('',#485,#486,#487);
#485=CARTESIAN_POINT('',(-4.50000000000001,19.0388797118661,42.5991869115871));
#486=DIRECTION('',(1.23259516440783E-32,0.499999999999999,0.866025403784439));
#487=DIRECTION('',(-2.16671851986881E-16,0.866025403784439,-0.499999999999999));
#488=FACE_BOUND('',#489,.T.);
#489=EDGE_LOOP('',(#654,#655,#656,#657));
#490=PLANE('',#491);
#491=AXIS2_PLACEMENT_3D('',#492,#493,#494);
#492=CARTESIAN_POINT('',(-4.50000000000001,15.4888797118661,40.5495934559639));
#493=DIRECTION('',(0.,-0.499999999999999,0.866025403784439));
#494=DIRECTION('',(0.,0.866025403784439,0.499999999999999));
#495=FACE_BOUND('',#496,.T.);
#496=EDGE_LOOP('',(#658,#659,#660,#661));
#497=PLANE('',#498);
#498=AXIS2_PLACEMENT_3D('',#499,#500,#501);
#499=CARTESIAN_POINT('',(-4.50000000000001,15.4888797118661,36.4504065447176));
#500=DIRECTION('',(0.,-1.,-4.3334370397376E-16));
#501=DIRECTION('',(0.,-4.3334370397376E-16,1.));
#502=FACE_BOUND('',#503,.T.);
#503=EDGE_LOOP('',(#662,#663,#664,#665));
#504=PLANE('',#505);
#505=AXIS2_PLACEMENT_3D('',#506,#507,#508);
#506=CARTESIAN_POINT('',(-4.50000000000001,19.0388797118661,34.4008130890944));
#507=DIRECTION('',(0.,-0.499999999999999,-0.866025403784439));
#508=DIRECTION('',(0.,-0.866025403784439,0.499999999999999));
#509=FACE_BOUND('',#510,.T.);
#510=EDGE_LOOP('',(#666,#667,#668,#669));
#511=PLANE('',#512);
#512=AXIS2_PLACEMENT_3D('',#513,#514,#515);
#513=CARTESIAN_POINT('',(-4.50000000000001,22.5888797118661,36.4504065447176));
#514=DIRECTION('',(1.23259516440783E-32,0.499999999999999,-0.866025403784439));
#515=DIRECTION('',(2.16671851986881E-16,-0.866025403784439,-0.499999999999999));
#516=FACE_BOUND('',#517,.T.);
#517=EDGE_LOOP('',(#670,#671,#672,#673));
#518=PLANE('',#519);
#519=AXIS2_PLACEMENT_3D('',#520,#521,#522);
#520=CARTESIAN_POINT('',(-4.50000000000001,22.5888797118661,40.5495934559639));
#521=DIRECTION('',(0.,1.,0.));
#522=DIRECTION('',(0.,0.,-1.));
#523=FACE_OUTER_BOUND('',#524,.T.);
#524=EDGE_LOOP('',(#674));
#525=FACE_OUTER_BOUND('',#526,.T.);
#526=EDGE_LOOP('',(#675));
#527=CYLINDRICAL_SURFACE('',#528,2.);
#528=AXIS2_PLACEMENT_3D('',#529,#530,#531);
#529=CARTESIAN_POINT('',(24.75,19.0388797118661,38.5000000003408));
#530=DIRECTION('',(-1.,-6.36130514928282E-17,0.));
#531=DIRECTION('',(-6.36130514928282E-17,1.,-6.12323399573677E-17));
#532=FACE_BOUND('',#533,.T.);
#533=EDGE_LOOP('',(#676,#677,#678,#679,#680,#681));
#534=FACE_BOUND('',#535,.T.);
#535=EDGE_LOOP('',(#682));
#536=PLANE('',#537);
#537=AXIS2_PLACEMENT_3D('',#538,#539,#540);
#538=CARTESIAN_POINT('',(-4.50000000000001,-2.86258731717727E-16,0.));
#539=DIRECTION('',(-1.,-6.36130514928282E-17,0.));
#540=DIRECTION('',(6.36130514928282E-17,-1.,-6.12323399573677E-17));
#541=ORIENTED_EDGE('',*,*,#683,.T.);
#542=ORIENTED_EDGE('',*,*,#684,.F.);
#543=ORIENTED_EDGE('',*,*,#685,.T.);
#544=ORIENTED_EDGE('',*,*,#686,.F.);
#545=ORIENTED_EDGE('',*,*,#687,.F.);
#546=ORIENTED_EDGE('',*,*,#688,.T.);
#547=ORIENTED_EDGE('',*,*,#689,.T.);
#548=ORIENTED_EDGE('',*,*,#690,.T.);
#549=ORIENTED_EDGE('',*,*,#683,.F.);
#550=ORIENTED_EDGE('',*,*,#689,.F.);
#551=ORIENTED_EDGE('',*,*,#690,.F.);
#552=ORIENTED_EDGE('',*,*,#691,.T.);
#553=ORIENTED_EDGE('',*,*,#692,.F.);
#554=ORIENTED_EDGE('',*,*,#693,.F.);
#555=ORIENTED_EDGE('',*,*,#694,.T.);
#556=ORIENTED_EDGE('',*,*,#684,.T.);
#557=ORIENTED_EDGE('',*,*,#695,.F.);
#558=ORIENTED_EDGE('',*,*,#696,.F.);
#559=ORIENTED_EDGE('',*,*,#697,.T.);
#560=ORIENTED_EDGE('',*,*,#698,.F.);
#561=ORIENTED_EDGE('',*,*,#699,.T.);
#562=ORIENTED_EDGE('',*,*,#700,.T.);
#563=ORIENTED_EDGE('',*,*,#701,.F.);
#564=ORIENTED_EDGE('',*,*,#685,.F.);
#565=ORIENTED_EDGE('',*,*,#702,.T.);
#566=ORIENTED_EDGE('',*,*,#703,.T.);
#567=ORIENTED_EDGE('',*,*,#704,.T.);
#568=ORIENTED_EDGE('',*,*,#705,.F.);
#569=ORIENTED_EDGE('',*,*,#706,.T.);
#570=ORIENTED_EDGE('',*,*,#692,.T.);
#571=ORIENTED_EDGE('',*,*,#707,.T.);
#572=ORIENTED_EDGE('',*,*,#686,.T.);
#573=ORIENTED_EDGE('',*,*,#701,.T.);
#574=ORIENTED_EDGE('',*,*,#708,.T.);
#575=ORIENTED_EDGE('',*,*,#709,.T.);
#576=ORIENTED_EDGE('',*,*,#710,.T.);
#577=ORIENTED_EDGE('',*,*,#687,.T.);
#578=ORIENTED_EDGE('',*,*,#707,.F.);
#579=ORIENTED_EDGE('',*,*,#691,.F.);
#580=ORIENTED_EDGE('',*,*,#711,.T.);
#581=ORIENTED_EDGE('',*,*,#712,.F.);
#582=ORIENTED_EDGE('',*,*,#702,.F.);
#583=ORIENTED_EDGE('',*,*,#688,.F.);
#584=ORIENTED_EDGE('',*,*,#711,.F.);
#585=ORIENTED_EDGE('',*,*,#694,.F.);
#586=ORIENTED_EDGE('',*,*,#713,.F.);
#587=ORIENTED_EDGE('',*,*,#714,.F.);
#588=ORIENTED_EDGE('',*,*,#715,.F.);
#589=ORIENTED_EDGE('',*,*,#716,.F.);
#590=ORIENTED_EDGE('',*,*,#699,.F.);
#591=ORIENTED_EDGE('',*,*,#717,.F.);
#592=ORIENTED_EDGE('',*,*,#718,.F.);
#593=ORIENTED_EDGE('',*,*,#719,.T.);
#594=ORIENTED_EDGE('',*,*,#693,.T.);
#595=ORIENTED_EDGE('',*,*,#706,.F.);
#596=ORIENTED_EDGE('',*,*,#720,.F.);
#597=ORIENTED_EDGE('',*,*,#713,.T.);
#598=ORIENTED_EDGE('',*,*,#695,.T.);
#599=ORIENTED_EDGE('',*,*,#721,.T.);
#600=ORIENTED_EDGE('',*,*,#722,.T.);
#601=ORIENTED_EDGE('',*,*,#723,.F.);
#602=ORIENTED_EDGE('',*,*,#696,.T.);
#603=ORIENTED_EDGE('',*,*,#723,.T.);
#604=ORIENTED_EDGE('',*,*,#724,.T.);
#605=ORIENTED_EDGE('',*,*,#722,.F.);
#606=ORIENTED_EDGE('',*,*,#725,.F.);
#607=ORIENTED_EDGE('',*,*,#704,.F.);
#608=ORIENTED_EDGE('',*,*,#726,.T.);
#609=ORIENTED_EDGE('',*,*,#727,.T.);
#610=ORIENTED_EDGE('',*,*,#728,.T.);
#611=ORIENTED_EDGE('',*,*,#697,.F.);
#612=ORIENTED_EDGE('',*,*,#724,.F.);
#613=ORIENTED_EDGE('',*,*,#729,.T.);
#614=ORIENTED_EDGE('',*,*,#717,.T.);
#615=ORIENTED_EDGE('',*,*,#698,.T.);
#616=ORIENTED_EDGE('',*,*,#728,.F.);
#617=ORIENTED_EDGE('',*,*,#730,.F.);
#618=ORIENTED_EDGE('',*,*,#731,.T.);
#619=ORIENTED_EDGE('',*,*,#708,.F.);
#620=ORIENTED_EDGE('',*,*,#700,.F.);
#621=ORIENTED_EDGE('',*,*,#716,.T.);
#622=ORIENTED_EDGE('',*,*,#732,.T.);
#623=ORIENTED_EDGE('',*,*,#733,.T.);
#624=ORIENTED_EDGE('',*,*,#734,.T.);
#625=ORIENTED_EDGE('',*,*,#735,.T.);
#626=ORIENTED_EDGE('',*,*,#736,.T.);
#627=ORIENTED_EDGE('',*,*,#737,.T.);
#628=ORIENTED_EDGE('',*,*,#712,.T.);
#629=ORIENTED_EDGE('',*,*,#738,.T.);
#630=ORIENTED_EDGE('',*,*,#726,.F.);
#631=ORIENTED_EDGE('',*,*,#703,.F.);
#632=ORIENTED_EDGE('',*,*,#705,.T.);
#633=ORIENTED_EDGE('',*,*,#725,.T.);
#634=ORIENTED_EDGE('',*,*,#721,.F.);
#635=ORIENTED_EDGE('',*,*,#739,.T.);
#636=ORIENTED_EDGE('',*,*,#709,.F.);
#637=ORIENTED_EDGE('',*,*,#731,.F.);
#638=ORIENTED_EDGE('',*,*,#715,.T.);
#639=ORIENTED_EDGE('',*,*,#720,.T.);
#640=ORIENTED_EDGE('',*,*,#710,.F.);
#641=ORIENTED_EDGE('',*,*,#739,.F.);
#642=ORIENTED_EDGE('',*,*,#714,.T.);
#643=ORIENTED_EDGE('',*,*,#740,.T.);
#644=ORIENTED_EDGE('',*,*,#718,.T.);
#645=ORIENTED_EDGE('',*,*,#730,.T.);
#646=ORIENTED_EDGE('',*,*,#727,.F.);
#647=ORIENTED_EDGE('',*,*,#738,.F.);
#648=ORIENTED_EDGE('',*,*,#719,.F.);
#649=ORIENTED_EDGE('',*,*,#729,.F.);
#650=ORIENTED_EDGE('',*,*,#732,.F.);
#651=ORIENTED_EDGE('',*,*,#741,.F.);
#652=ORIENTED_EDGE('',*,*,#742,.F.);
#653=ORIENTED_EDGE('',*,*,#743,.T.);
#654=ORIENTED_EDGE('',*,*,#733,.F.);
#655=ORIENTED_EDGE('',*,*,#743,.F.);
#656=ORIENTED_EDGE('',*,*,#744,.F.);
#657=ORIENTED_EDGE('',*,*,#745,.T.);
#658=ORIENTED_EDGE('',*,*,#734,.F.);
#659=ORIENTED_EDGE('',*,*,#745,.F.);
#660=ORIENTED_EDGE('',*,*,#746,.F.);
#661=ORIENTED_EDGE('',*,*,#747,.T.);
#662=ORIENTED_EDGE('',*,*,#735,.F.);
#663=ORIENTED_EDGE('',*,*,#747,.F.);
#664=ORIENTED_EDGE('',*,*,#748,.F.);
#665=ORIENTED_EDGE('',*,*,#749,.T.);
#666=ORIENTED_EDGE('',*,*,#736,.F.);
#667=ORIENTED_EDGE('',*,*,#749,.F.);
#668=ORIENTED_EDGE('',*,*,#750,.F.);
#669=ORIENTED_EDGE('',*,*,#751,.T.);
#670=ORIENTED_EDGE('',*,*,#737,.F.);
#671=ORIENTED_EDGE('',*,*,#751,.F.);
#672=ORIENTED_EDGE('',*,*,#752,.F.);
#673=ORIENTED_EDGE('',*,*,#741,.T.);
#674=ORIENTED_EDGE('',*,*,#740,.F.);
#675=ORIENTED_EDGE('',*,*,#753,.T.);
#676=ORIENTED_EDGE('',*,*,#742,.T.);
#677=ORIENTED_EDGE('',*,*,#752,.T.);
#678=ORIENTED_EDGE('',*,*,#750,.T.);
#679=ORIENTED_EDGE('',*,*,#748,.T.);
#680=ORIENTED_EDGE('',*,*,#746,.T.);
#681=ORIENTED_EDGE('',*,*,#744,.T.);
#682=ORIENTED_EDGE('',*,*,#753,.F.);
#683=EDGE_CURVE('',#754,#754,#755,.F.);
#684=EDGE_CURVE('',#756,#756,#757,.F.);
#685=EDGE_CURVE('',#758,#759,#760,.T.);
#686=EDGE_CURVE('',#761,#759,#762,.T.);
#687=EDGE_CURVE('',#763,#761,#764,.T.);
#688=EDGE_CURVE('',#763,#758,#765,.T.);
#689=EDGE_CURVE('',#766,#766,#767,.F.);
#690=EDGE_CURVE('',#768,#768,#769,.T.);
#691=EDGE_CURVE('',#770,#771,#772,.T.);
#692=EDGE_CURVE('',#773,#771,#774,.T.);
#693=EDGE_CURVE('',#775,#773,#776,.T.);
#694=EDGE_CURVE('',#775,#770,#777,.T.);
#695=EDGE_CURVE('',#778,#779,#780,.F.);
#696=EDGE_CURVE('',#781,#778,#782,.T.);
#697=EDGE_CURVE('',#781,#783,#784,.T.);
#698=EDGE_CURVE('',#785,#783,#786,.T.);
#699=EDGE_CURVE('',#785,#787,#788,.T.);
#700=EDGE_CURVE('',#787,#789,#790,.T.);
#701=EDGE_CURVE('',#759,#789,#791,.T.);
#702=EDGE_CURVE('',#758,#792,#793,.T.);
#703=EDGE_CURVE('',#792,#794,#795,.T.);
#704=EDGE_CURVE('',#794,#796,#797,.T.);
#705=EDGE_CURVE('',#779,#796,#798,.F.);
#706=EDGE_CURVE('',#799,#773,#800,.T.);
#707=EDGE_CURVE('',#771,#761,#801,.T.);
#708=EDGE_CURVE('',#789,#802,#803,.T.);
#709=EDGE_CURVE('',#802,#804,#805,.T.);
#710=EDGE_CURVE('',#804,#799,#806,.T.);
#711=EDGE_CURVE('',#770,#763,#807,.T.);
#712=EDGE_CURVE('',#792,#808,#809,.T.);
#713=EDGE_CURVE('',#810,#775,#811,.T.);
#714=EDGE_CURVE('',#812,#810,#813,.T.);
#715=EDGE_CURVE('',#814,#812,#815,.T.);
#716=EDGE_CURVE('',#787,#814,#816,.T.);
#717=EDGE_CURVE('',#817,#785,#818,.T.);
#718=EDGE_CURVE('',#808,#817,#819,.T.);
#719=EDGE_CURVE('',#820,#820,#821,.T.);
#720=EDGE_CURVE('',#810,#799,#822,.T.);
#721=EDGE_CURVE('',#779,#823,#824,.T.);
#722=EDGE_CURVE('',#823,#825,#826,.T.);
#723=EDGE_CURVE('',#778,#825,#827,.T.);
#724=EDGE_CURVE('',#825,#781,#828,.T.);
#725=EDGE_CURVE('',#796,#823,#829,.F.);
#726=EDGE_CURVE('',#794,#830,#831,.T.);
#727=EDGE_CURVE('',#830,#832,#833,.T.);
#728=EDGE_CURVE('',#832,#783,#834,.T.);
#729=EDGE_CURVE('',#835,#835,#836,.F.);
#730=EDGE_CURVE('',#817,#832,#837,.T.);
#731=EDGE_CURVE('',#814,#802,#838,.T.);
#732=EDGE_CURVE('',#839,#840,#841,.F.);
#733=EDGE_CURVE('',#840,#842,#843,.F.);
#734=EDGE_CURVE('',#842,#844,#845,.F.);
#735=EDGE_CURVE('',#844,#846,#847,.F.);
#736=EDGE_CURVE('',#846,#848,#849,.F.);
#737=EDGE_CURVE('',#848,#839,#850,.F.);
#738=EDGE_CURVE('',#808,#830,#851,.T.);
#739=EDGE_CURVE('',#812,#804,#852,.T.);
#740=EDGE_CURVE('',#853,#853,#854,.T.);
#741=EDGE_CURVE('',#855,#839,#856,.T.);
#742=EDGE_CURVE('',#857,#855,#858,.T.);
#743=EDGE_CURVE('',#857,#840,#859,.T.);
#744=EDGE_CURVE('',#860,#857,#861,.T.);
#745=EDGE_CURVE('',#860,#842,#862,.T.);
#746=EDGE_CURVE('',#863,#860,#864,.T.);
#747=EDGE_CURVE('',#863,#844,#865,.T.);
#748=EDGE_CURVE('',#866,#863,#867,.T.);
#749=EDGE_CURVE('',#866,#846,#868,.T.);
#750=EDGE_CURVE('',#869,#866,#870,.T.);
#751=EDGE_CURVE('',#869,#848,#871,.T.);
#752=EDGE_CURVE('',#855,#869,#872,.T.);
#753=EDGE_CURVE('',#873,#873,#874,.T.);
#754=VERTEX_POINT('',#875);
#755=CIRCLE('',#876,2.);
#756=VERTEX_POINT('',#880);
#757=CIRCLE('',#881,2.);
#758=VERTEX_POINT('',#885);
#759=VERTEX_POINT('',#886);
#760=LINE('',#887,#888);
#761=VERTEX_POINT('',#890);
#762=LINE('',#891,#892);
#763=VERTEX_POINT('',#894);
#764=LINE('',#895,#896);
#765=LINE('',#898,#899);
#766=VERTEX_POINT('',#901);
#767=CIRCLE('',#902,4.);
#768=VERTEX_POINT('',#906);
#769=CIRCLE('',#907,4.);
#770=VERTEX_POINT('',#911);
#771=VERTEX_POINT('',#912);
#772=LINE('',#913,#914);
#773=VERTEX_POINT('',#916);
#774=LINE('',#917,#918);
#775=VERTEX_POINT('',#920);
#776=LINE('',#921,#922);
#777=LINE('',#924,#925);
#778=VERTEX_POINT('',#927);
#779=VERTEX_POINT('',#928);
#780=(BOUNDED_CURVE()B_SPLINE_CURVE(3,
(#929,#930,#931,#932),
.UNSPECIFIED.,.F.,.F.)B_SPLINE_CURVE_WITH_KNOTS((4,4),
(0.,1.),
.UNSPECIFIED.)CURVE()GEOMETRIC_REPRESENTATION_ITEM()RATIONAL_B_SPLINE_CURVE((1.,
0.989586728106389,0.989586728106389,1.))REPRESENTATION_ITEM(''));
#781=VERTEX_POINT('',#933);
#782=LINE('',#934,#935);
#783=VERTEX_POINT('',#937);
#784=CIRCLE('',#938,14.2);
#785=VERTEX_POINT('',#942);
#786=LINE('',#943,#944);
#787=VERTEX_POINT('',#946);
#788=CIRCLE('',#947,14.2);
#789=VERTEX_POINT('',#951);
#790=LINE('',#952,#953);
#791=CIRCLE('',#955,14.2);
#792=VERTEX_POINT('',#959);
#793=CIRCLE('',#960,14.2);
#794=VERTEX_POINT('',#964);
#795=LINE('',#965,#966);
#796=VERTEX_POINT('',#968);
#797=CIRCLE('',#969,14.2);
#798=LINE('',#973,#974);
#799=VERTEX_POINT('',#976);
#800=CIRCLE('',#977,11.2);
#801=LINE('',#981,#982);
#802=VERTEX_POINT('',#984);
#803=LINE('',#985,#986);
#804=VERTEX_POINT('',#988);
#805=LINE('',#989,#990);
#806=LINE('',#992,#993);
#807=LINE('',#995,#996);
#808=VERTEX_POINT('',#998);
#809=LINE('',#999,#1000);
#810=VERTEX_POINT('',#1002);
#811=CIRCLE('',#1003,11.2);
#812=VERTEX_POINT('',#1007);
#813=LINE('',#1008,#1009);
#814=VERTEX_POINT('',#1011);
#815=LINE('',#1012,#1013);
#816=LINE('',#1015,#1016);
#817=VERTEX_POINT('',#1018);
#818=LINE('',#1019,#1020);
#819=CIRCLE('',#1022,24.75);
#820=VERTEX_POINT('',#1026);
#821=CIRCLE('',#1027,10.5);
#822=LINE('',#1031,#1032);
#823=VERTEX_POINT('',#1034);
#824=LINE('',#1035,#1036);
#825=VERTEX_POINT('',#1038);
#826=LINE('',#1039,#1040);
#827=LINE('',#1042,#1043);
#828=LINE('',#1045,#1046);
#829=LINE('',#1048,#1049);
#830=VERTEX_POINT('',#1051);
#831=LINE('',#1052,#1053);
#832=VERTEX_POINT('',#1055);
#833=CIRCLE('',#1056,24.75);
#834=LINE('',#1060,#1061);
#835=VERTEX_POINT('',#1063);
#836=CIRCLE('',#1064,10.5);
#837=LINE('',#1068,#1069);
#838=LINE('',#1071,#1072);
#839=VERTEX_POINT('',#1074);
#840=VERTEX_POINT('',#1075);
#841=LINE('',#1076,#1077);
#842=VERTEX_POINT('',#1079);
#843=LINE('',#1080,#1081);
#844=VERTEX_POINT('',#1083);
#845=LINE('',#1084,#1085);
#846=VERTEX_POINT('',#1087);
#847=LINE('',#1088,#1089);
#848=VERTEX_POINT('',#1091);
#849=LINE('',#1092,#1093);
#850=LINE('',#1095,#1096);
#851=LINE('',#1098,#1099);
#852=LINE('',#1101,#1102);
#853=VERTEX_POINT('',#1104);
#854=CIRCLE('',#1105,2.);
#855=VERTEX_POINT('',#1109);
#856=LINE('',#1110,#1111);
#857=VERTEX_POINT('',#1113);
#858=LINE('',#1114,#1115);
#859=LINE('',#1117,#1118);
#860=VERTEX_POINT('',#1120);
#861=LINE('',#1121,#1122);
#862=LINE('',#1124,#1125);
#863=VERTEX_POINT('',#1127);
#864=LINE('',#1128,#1129);
#865=LINE('',#1131,#1132);
#866=VERTEX_POINT('',#1134);
#867=LINE('',#1135,#1136);
#868=LINE('',#1138,#1139);
#869=VERTEX_POINT('',#1141);
#870=LINE('',#1142,#1143);
#871=LINE('',#1145,#1146);
#872=LINE('',#1148,#1149);
#873=VERTEX_POINT('',#1151);
#874=CIRCLE('',#1152,2.);
#875=CARTESIAN_POINT('',(4.49999999999999,21.0388797118661,38.5000000003408));
#876=AXIS2_PLACEMENT_3D('',#877,#878,#879);
#877=CARTESIAN_POINT('',(4.49999999999999,19.0388797118661,38.5000000003408));
#878=DIRECTION('',(-1.,0.,0.));
#879=DIRECTION('',(0.,1.,-6.12323399573677E-17));
#880=CARTESIAN_POINT('',(2.,21.0388797118661,38.5000000003408));
#881=AXIS2_PLACEMENT_3D('',#882,#883,#884);
#882=CARTESIAN_POINT('',(2.,19.0388797118661,38.5000000003408));
#883=DIRECTION('',(-1.,-5.9211894646675E-17,0.));
#884=DIRECTION('',(-5.9211894646675E-17,1.,-6.12323399573677E-17));
#885=CARTESIAN_POINT('',(7.49999999999999,12.0577775730024,50.));
#886=CARTESIAN_POINT('',(7.49999999999999,12.0577775730024,27.));
#887=CARTESIAN_POINT('',(7.49999999999999,12.0577775730024,50.));
#888=VECTOR('',#889,1.);
#889=DIRECTION('',(0.,0.,-1.));
#890=CARTESIAN_POINT('',(7.49999999999999,26.0199818511647,27.));
#891=CARTESIAN_POINT('',(7.49999999999999,26.0199818511647,27.));
#892=VECTOR('',#893,1.);
#893=DIRECTION('',(0.,-1.,0.));
#894=CARTESIAN_POINT('',(7.49999999999999,26.0199818511647,50.));
#895=CARTESIAN_POINT('',(7.49999999999999,26.0199818511647,50.));
#896=VECTOR('',#897,1.);
#897=DIRECTION('',(0.,0.,-1.));
#898=CARTESIAN_POINT('',(7.49999999999999,26.0199818511647,50.));
#899=VECTOR('',#900,1.);
#900=DIRECTION('',(0.,-1.,0.));
#901=CARTESIAN_POINT('',(7.49999999999999,23.0388797118661,38.5000000003408));
#902=AXIS2_PLACEMENT_3D('',#903,#904,#905);
#903=CARTESIAN_POINT('',(7.49999999999999,19.0388797118661,38.5000000003408));
#904=DIRECTION('',(1.,0.,0.));
#905=DIRECTION('',(0.,1.,6.12323399573677E-17));
#906=CARTESIAN_POINT('',(4.49999999999999,23.0388797118661,38.5000000003408));
#907=AXIS2_PLACEMENT_3D('',#908,#909,#910);
#908=CARTESIAN_POINT('',(4.49999999999999,19.0388797118661,38.5000000003408));
#909=DIRECTION('',(1.,0.,0.));
#910=DIRECTION('',(0.,1.,6.12323399573677E-17));
#911=CARTESIAN_POINT('',(2.,26.0199818511647,50.));
#912=CARTESIAN_POINT('',(2.,26.0199818511647,27.));
#913=CARTESIAN_POINT('',(2.,26.0199818511647,50.));
#914=VECTOR('',#915,1.);
#915=DIRECTION('',(0.,0.,-1.));
#916=CARTESIAN_POINT('',(2.,11.0199818511647,27.));
#917=CARTESIAN_POINT('',(2.,11.0199818511647,27.));
#918=VECTOR('',#919,1.);
#919=DIRECTION('',(-5.9211894646675E-17,1.,0.));
#920=CARTESIAN_POINT('',(2.,11.0199818511647,50.));
#921=CARTESIAN_POINT('',(2.,11.0199818511647,50.));
#922=VECTOR('',#923,1.);
#923=DIRECTION('',(2.12390491667421E-16,0.,-1.));
#924=CARTESIAN_POINT('',(2.,11.0199818511647,50.));
#925=VECTOR('',#926,1.);
#926=DIRECTION('',(-5.9211894646675E-17,1.,0.));
#927=CARTESIAN_POINT('',(-2.5,-13.9781973086661,33.645998546654));
#928=CARTESIAN_POINT('',(2.5,-13.9781973086661,33.645998546654));
#929=CARTESIAN_POINT('',(2.5,-13.9781973086661,33.645998546654));
#930=CARTESIAN_POINT('',(0.842102374319378,-14.2747122292011,34.140190080879));
#931=CARTESIAN_POINT('',(-0.842102374319372,-14.2747122292011,34.140190080879));
#932=CARTESIAN_POINT('',(-2.49999999999999,-13.9781973086661,33.645998546654));
#933=CARTESIAN_POINT('',(-2.5,-13.9781973086661,45.));
#934=CARTESIAN_POINT('',(-2.5,-13.9781973086661,45.));
#935=VECTOR('',#936,1.);
#936=DIRECTION('',(2.34678079798479E-16,-1.56452053198986E-16,-1.));
#937=CARTESIAN_POINT('',(-4.99999999999999,-13.2905981806713,45.));
#938=AXIS2_PLACEMENT_3D('',#939,#940,#941);
#939=CARTESIAN_POINT('',(0.,0.,45.));
#940=DIRECTION('',(0.,0.,-1.));
#941=DIRECTION('',(-0.176056338028169,-0.984380092159584,0.));
#942=CARTESIAN_POINT('',(-4.99999999999999,-13.2905981806713,50.));
#943=CARTESIAN_POINT('',(-4.99999999999999,-13.2905981806713,50.));
#944=VECTOR('',#945,1.);
#945=DIRECTION('',(0.,0.,-1.));
#946=CARTESIAN_POINT('',(-7.50000000000001,12.0577775730024,50.));
#947=AXIS2_PLACEMENT_3D('',#948,#949,#950);
#948=CARTESIAN_POINT('',(0.,0.,50.));
#949=DIRECTION('',(0.,0.,-1.));
#950=DIRECTION('',(-0.352112676056337,-0.935957618356966,0.));
#951=CARTESIAN_POINT('',(-7.50000000000001,12.0577775730024,27.));
#952=CARTESIAN_POINT('',(-7.50000000000001,12.0577775730024,50.));
#953=VECTOR('',#954,1.);
#954=DIRECTION('',(2.31698718182641E-16,1.54465812121761E-16,-1.));
#955=AXIS2_PLACEMENT_3D('',#956,#957,#958);
#956=CARTESIAN_POINT('',(0.,0.,27.));
#957=DIRECTION('',(0.,0.,-1.));
#958=DIRECTION('',(0.528169014084506,0.849139265704396,0.));
#959=CARTESIAN_POINT('',(5.00000000000001,-13.2905981806689,50.));
#960=AXIS2_PLACEMENT_3D('',#961,#962,#963);
#961=CARTESIAN_POINT('',(0.,0.,50.));
#962=DIRECTION('',(0.,0.,-1.));
#963=DIRECTION('',(0.528169014084507,0.849139265704396,0.));
#964=CARTESIAN_POINT('',(5.00000000000001,-13.2905981806689,45.));
#965=CARTESIAN_POINT('',(5.00000000000001,-13.2905981806689,50.));
#966=VECTOR('',#967,1.);
#967=DIRECTION('',(0.,0.,-1.));
#968=CARTESIAN_POINT('',(2.5,-13.9781973086661,45.));
#969=AXIS2_PLACEMENT_3D('',#970,#971,#972);
#970=CARTESIAN_POINT('',(0.,0.,45.));
#971=DIRECTION('',(0.,0.,-1.));
#972=DIRECTION('',(0.352112676056338,-0.935957618356966,0.));
#973=CARTESIAN_POINT('',(2.5,-13.9781973086661,45.));
#974=VECTOR('',#975,1.);
#975=DIRECTION('',(-3.91130132997465E-17,0.,-1.));
#976=CARTESIAN_POINT('',(-2.,11.0199818511647,27.));
#977=AXIS2_PLACEMENT_3D('',#978,#979,#980);
#978=CARTESIAN_POINT('',(0.,0.,27.));
#979=DIRECTION('',(0.,0.,1.));
#980=DIRECTION('',(-0.178571428571429,0.983926950996851,0.));
#981=CARTESIAN_POINT('',(2.,26.0199818511647,27.));
#982=VECTOR('',#983,1.);
#983=DIRECTION('',(1.,0.,0.));
#984=CARTESIAN_POINT('',(-7.50000000000001,26.0199818511647,27.));
#985=CARTESIAN_POINT('',(-7.50000000000001,12.0577775730024,27.));
#986=VECTOR('',#987,1.);
#987=DIRECTION('',(-6.36130514928282E-17,1.,0.));
#988=CARTESIAN_POINT('',(-2.,26.0199818511647,27.));
#989=CARTESIAN_POINT('',(-7.50000000000001,26.0199818511647,27.));
#990=VECTOR('',#991,1.);
#991=DIRECTION('',(1.,0.,0.));
#992=CARTESIAN_POINT('',(-2.,26.0199818511647,27.));
#993=VECTOR('',#994,1.);
#994=DIRECTION('',(5.9211894646675E-17,-1.,0.));
#995=CARTESIAN_POINT('',(2.,26.0199818511647,50.));
#996=VECTOR('',#997,1.);
#997=DIRECTION('',(1.,0.,0.));
#998=CARTESIAN_POINT('',(5.00000000000001,-23.0831916153366,50.));
#999=CARTESIAN_POINT('',(5.00000000000001,-13.2905981806689,50.));
#1000=VECTOR('',#1001,1.);
#1001=DIRECTION('',(9.06989987510155E-17,-1.,0.));
#1002=CARTESIAN_POINT('',(-2.,11.0199818511647,50.));
#1003=AXIS2_PLACEMENT_3D('',#1004,#1005,#1006);
#1004=CARTESIAN_POINT('',(0.,0.,50.));
#1005=DIRECTION('',(0.,0.,1.));
#1006=DIRECTION('',(-0.178571428571429,0.983926950996851,0.));
#1007=CARTESIAN_POINT('',(-2.,26.0199818511647,50.));
#1008=CARTESIAN_POINT('',(-2.,26.0199818511647,50.));
#1009=VECTOR('',#1010,1.);
#1010=DIRECTION('',(5.9211894646675E-17,-1.,0.));
#1011=CARTESIAN_POINT('',(-7.50000000000001,26.0199818511647,50.));
#1012=CARTESIAN_POINT('',(-7.50000000000001,26.0199818511647,50.));
#1013=VECTOR('',#1014,1.);
#1014=DIRECTION('',(1.,0.,0.));
#1015=CARTESIAN_POINT('',(-7.50000000000001,12.0577775730024,50.));
#1016=VECTOR('',#1017,1.);
#1017=DIRECTION('',(-6.36130514928282E-17,1.,0.));
#1018=CARTESIAN_POINT('',(-4.99999999999999,-23.0831916153342,50.));
#1019=CARTESIAN_POINT('',(-4.99999999999999,-23.0831916153318,50.));
#1020=VECTOR('',#1021,1.);
#1021=DIRECTION('',(-9.06989987511038E-17,1.,0.));
#1022=AXIS2_PLACEMENT_3D('',#1023,#1024,#1025);
#1023=CARTESIAN_POINT('',(1.4210854715202E-14,-47.3228801446886,50.));
#1024=DIRECTION('',(0.,0.,-1.));
#1025=DIRECTION('',(0.202020202020202,0.979381354721294,0.));
#1026=CARTESIAN_POINT('',(1.22820360065449E-14,-36.8228801446886,50.));
#1027=AXIS2_PLACEMENT_3D('',#1028,#1029,#1030);
#1028=CARTESIAN_POINT('',(1.4210854715202E-14,-47.3228801446886,50.));
#1029=DIRECTION('',(0.,0.,-1.));
#1030=DIRECTION('',(-6.12323399573677E-17,1.,0.));
#1031=CARTESIAN_POINT('',(-2.,11.0199818511647,50.));
#1032=VECTOR('',#1033,1.);
#1033=DIRECTION('',(0.,0.,-1.));
#1034=CARTESIAN_POINT('',(2.5,-20.7905981806737,45.));
#1035=CARTESIAN_POINT('',(2.5,-13.9781973086661,33.645998546654));
#1036=VECTOR('',#1037,1.);
#1037=DIRECTION('',(6.70782644156665E-17,-0.514495755427526,0.857492925712544));
#1038=CARTESIAN_POINT('',(-2.5,-20.7905981806737,45.));
#1039=CARTESIAN_POINT('',(2.5,-20.7905981806737,45.));
#1040=VECTOR('',#1041,1.);
#1041=DIRECTION('',(-1.,0.,0.));
#1042=CARTESIAN_POINT('',(-2.5,-13.9781973086661,33.645998546654));
#1043=VECTOR('',#1044,1.);
#1044=DIRECTION('',(1.006173966235E-16,-0.514495755427526,0.857492925712544));
#1045=CARTESIAN_POINT('',(-2.5,-20.7905981806737,45.));
#1046=VECTOR('',#1047,1.);
#1047=DIRECTION('',(0.,1.,0.));
#1048=CARTESIAN_POINT('',(2.5,-20.7905981806737,45.));
#1049=VECTOR('',#1050,1.);
#1050=DIRECTION('',(0.,1.,0.));
#1051=CARTESIAN_POINT('',(5.00000000000001,-23.0831916153366,45.));
#1052=CARTESIAN_POINT('',(5.00000000000001,-13.2905981806689,45.));
#1053=VECTOR('',#1054,1.);
#1054=DIRECTION('',(9.06989987510155E-17,-1.,0.));
#1055=CARTESIAN_POINT('',(-4.99999999999999,-23.0831916153342,45.));
#1056=AXIS2_PLACEMENT_3D('',#1057,#1058,#1059);
#1057=CARTESIAN_POINT('',(1.4210854715202E-14,-47.3228801446886,45.));
#1058=DIRECTION('',(0.,0.,-1.));
#1059=DIRECTION('',(0.202020202020202,0.979381354721294,0.));
#1060=CARTESIAN_POINT('',(-4.99999999999999,-23.0831916153318,45.));
#1061=VECTOR('',#1062,1.);
#1062=DIRECTION('',(-9.06989987511038E-17,1.,0.));
#1063=CARTESIAN_POINT('',(1.22820360065449E-14,-36.8228801446886,45.));
#1064=AXIS2_PLACEMENT_3D('',#1065,#1066,#1067);
#1065=CARTESIAN_POINT('',(1.4210854715202E-14,-47.3228801446886,45.));
#1066=DIRECTION('',(0.,0.,-1.));
#1067=DIRECTION('',(-6.12323399573677E-17,1.,0.));
#1068=CARTESIAN_POINT('',(-4.99999999999999,-23.0831916153342,50.));
#1069=VECTOR('',#1070,1.);
#1070=DIRECTION('',(0.,0.,-1.));
#1071=CARTESIAN_POINT('',(-7.50000000000001,26.0199818511647,50.));
#1072=VECTOR('',#1073,1.);
#1073=DIRECTION('',(0.,0.,-1.));
#1074=CARTESIAN_POINT('',(-7.50000000000001,22.5888797118661,40.5495934559639));
#1075=CARTESIAN_POINT('',(-7.50000000000001,19.0388797118661,42.5991869115871));
#1076=CARTESIAN_POINT('',(-7.50000000000001,19.0388797118661,42.5991869115871));
#1077=VECTOR('',#1078,1.);
#1078=DIRECTION('',(0.,0.866025403784439,-0.499999999999999));
#1079=CARTESIAN_POINT('',(-7.50000000000001,15.4888797118661,40.5495934559639));
#1080=CARTESIAN_POINT('',(-7.50000000000001,15.4888797118661,40.5495934559639));
#1081=VECTOR('',#1082,1.);
#1082=DIRECTION('',(0.,0.866025403784439,0.499999999999999));
#1083=CARTESIAN_POINT('',(-7.50000000000001,15.4888797118661,36.4504065447176));
#1084=CARTESIAN_POINT('',(-7.50000000000001,15.4888797118661,36.4504065447176));
#1085=VECTOR('',#1086,1.);
#1086=DIRECTION('',(0.,-8.66687407947521E-16,1.));
#1087=CARTESIAN_POINT('',(-7.50000000000001,19.0388797118661,34.4008130890944));
#1088=CARTESIAN_POINT('',(-7.50000000000001,19.0388797118661,34.4008130890944));
#1089=VECTOR('',#1090,1.);
#1090=DIRECTION('',(2.16671851986881E-16,-0.866025403784439,0.499999999999999));
#1091=CARTESIAN_POINT('',(-7.50000000000001,22.5888797118661,36.4504065447176));
#1092=CARTESIAN_POINT('',(-7.50000000000001,22.5888797118661,36.4504065447176));
#1093=VECTOR('',#1094,1.);
#1094=DIRECTION('',(0.,-0.866025403784439,-0.499999999999999));
#1095=CARTESIAN_POINT('',(-7.50000000000001,22.5888797118661,40.5495934559639));
#1096=VECTOR('',#1097,1.);
#1097=DIRECTION('',(0.,0.,-1.));
#1098=CARTESIAN_POINT('',(5.00000000000001,-23.0831916153366,50.));
#1099=VECTOR('',#1100,1.);
#1100=DIRECTION('',(0.,0.,-1.));
#1101=CARTESIAN_POINT('',(-2.,26.0199818511647,50.));
#1102=VECTOR('',#1103,1.);
#1103=DIRECTION('',(0.,0.,-1.));
#1104=CARTESIAN_POINT('',(-2.,21.0388797118661,38.5000000003408));
#1105=AXIS2_PLACEMENT_3D('',#1106,#1107,#1108);
#1106=CARTESIAN_POINT('',(-2.,19.0388797118661,38.5000000003408));
#1107=DIRECTION('',(-1.,-5.9211894646675E-17,0.));
#1108=DIRECTION('',(-5.9211894646675E-17,1.,-6.12323399573677E-17));
#1109=CARTESIAN_POINT('',(-4.50000000000001,22.5888797118661,40.5495934559639));
#1110=CARTESIAN_POINT('',(-4.50000000000001,22.5888797118661,40.5495934559639));
#1111=VECTOR('',#1112,1.);
#1112=DIRECTION('',(-1.,0.,0.));
#1113=CARTESIAN_POINT('',(-4.50000000000001,19.0388797118661,42.5991869115871));
#1114=CARTESIAN_POINT('',(-4.50000000000001,19.0388797118661,42.5991869115871));
#1115=VECTOR('',#1116,1.);
#1116=DIRECTION('',(-2.16671851986881E-16,0.866025403784439,-0.499999999999999));
#1117=CARTESIAN_POINT('',(-4.50000000000001,19.0388797118661,42.5991869115871));
#1118=VECTOR('',#1119,1.);
#1119=DIRECTION('',(-1.,0.,0.));
#1120=CARTESIAN_POINT('',(-4.50000000000001,15.4888797118661,40.5495934559639));
#1121=CARTESIAN_POINT('',(-4.50000000000001,15.4888797118661,40.5495934559639));
#1122=VECTOR('',#1123,1.);
#1123=DIRECTION('',(0.,0.866025403784439,0.499999999999999));
#1124=CARTESIAN_POINT('',(-4.50000000000001,15.4888797118661,40.5495934559639));
#1125=VECTOR('',#1126,1.);
#1126=DIRECTION('',(-1.,0.,0.));
#1127=CARTESIAN_POINT('',(-4.50000000000001,15.4888797118661,36.4504065447176));
#1128=CARTESIAN_POINT('',(-4.50000000000001,15.4888797118661,36.4504065447176));
#1129=VECTOR('',#1130,1.);
#1130=DIRECTION('',(0.,-4.3334370397376E-16,1.));
#1131=CARTESIAN_POINT('',(-4.50000000000001,15.4888797118661,36.4504065447176));
#1132=VECTOR('',#1133,1.);
#1133=DIRECTION('',(-1.,0.,0.));
#1134=CARTESIAN_POINT('',(-4.50000000000001,19.0388797118661,34.4008130890944));
#1135=CARTESIAN_POINT('',(-4.50000000000001,19.0388797118661,34.4008130890944));
#1136=VECTOR('',#1137,1.);
#1137=DIRECTION('',(0.,-0.866025403784439,0.499999999999999));
#1138=CARTESIAN_POINT('',(-4.50000000000001,19.0388797118661,34.4008130890944));
#1139=VECTOR('',#1140,1.);
#1140=DIRECTION('',(-1.,0.,0.));
#1141=CARTESIAN_POINT('',(-4.50000000000001,22.5888797118661,36.4504065447176));
#1142=CARTESIAN_POINT('',(-4.50000000000001,22.5888797118661,36.4504065447176));
#1143=VECTOR('',#1144,1.);
#1144=DIRECTION('',(2.16671851986881E-16,-0.866025403784439,-0.499999999999999));
#1145=CARTESIAN_POINT('',(-4.50000000000001,22.5888797118661,36.4504065447176));
#1146=VECTOR('',#1147,1.);
#1147=DIRECTION('',(-1.,0.,0.));
#1148=CARTESIAN_POINT('',(-4.50000000000001,22.5888797118661,40.5495934559639));
#1149=VECTOR('',#1150,1.);
#1150=DIRECTION('',(0.,0.,-1.));
#1151=CARTESIAN_POINT('',(-4.50000000000001,21.0388797118661,38.5000000003408));
#1152=AXIS2_PLACEMENT_3D('',#1153,#1154,#1155);
#1153=CARTESIAN_POINT('',(-4.50000000000001,19.0388797118661,38.5000000003408));
#1154=DIRECTION('',(-1.,-6.36130514928282E-17,0.));
#1155=DIRECTION('',(-6.36130514928282E-17,1.,-6.12323399573677E-17));
ENDSEC;
END-ISO-10303-21;
