ISO-10303-21;
HEADER;
FILE_DESCRIPTION(('STEP AP242'),
    '1');
FILE_NAME('подставка',
    '',
    ('UNSPECIFIED'),
    ('UNSPECIFIED'),
    'C3D Converter',
    'C3D Toolkit',
    '');
FILE_SCHEMA(('AP242_MANAGED_MODEL_BASED_3D_ENGINEERING_MIM_LF { 1 0 10303 442 1 1 4 }'));
ENDSEC;

DATA;
#1=PRODUCT_DEFINITION('','UNSPECIFIED',#28,#31);
#2=SHAPE_DEFINITION_REPRESENTATION(#26,#3);
#3=SHAPE_REPRESENTATION('NONE',(#4),#8);
#4=AXIS2_PLACEMENT_3D('',#5,#6,#7);
#5=CARTESIAN_POINT('',(0.,0.,0.));
#6=DIRECTION('',(0.,0.,1.));
#7=DIRECTION('',(1.,0.,0.));
#8=(GEOMETRIC_REPRESENTATION_CONTEXT(3)GLOBAL_UNCERTAINTY_ASSIGNED_CONTEXT((#10))
GLOBAL_UNIT_ASSIGNED_CONTEXT((#9,#11,#12))REPRESENTATION_CONTEXT('NONE','NONE'));
#9=(LENGTH_UNIT()NAMED_UNIT(*)SI_UNIT(.MILLI.,.METRE.));
#10=UNCERTAINTY_MEASURE_WITH_UNIT(LENGTH_MEASURE(1.E-5),#9,'NONE','NONE');
#11=(NAMED_UNIT(*)PLANE_ANGLE_UNIT()SI_UNIT($,.RADIAN.));
#12=(NAMED_UNIT(*)SI_UNIT($,.STERADIAN.)SOLID_ANGLE_UNIT());
#13=MANIFOLD_SOLID_BREP('',#14);
#14=CLOSED_SHELL('',(#53,#62,#71,#80,#89,#98,#107,#116,#125,#134,#143,#152,#161,
#170,#179,#188,#197,#206,#215,#224,#233));
#15=COLOUR_RGB('',0.564705882352941,0.564705882352941,0.564705882352941);
#16=FILL_AREA_STYLE_COLOUR('',#15);
#17=FILL_AREA_STYLE($,(#16));
#18=SURFACE_STYLE_FILL_AREA(#17);
#19=SURFACE_SIDE_STYLE('',(#18));
#20=SURFACE_STYLE_USAGE(.BOTH.,#19);
#21=PRESENTATION_STYLE_ASSIGNMENT((#20));
#22=MECHANICAL_DESIGN_GEOMETRIC_PRESENTATION_REPRESENTATION('NONE',(#23,#61,#70,
#79,#88,#97,#106,#115,#124,#133,#142,#151,#160,#169,#178,#187,#196,#205,#214,#223,
#232,#241),#8);
#23=STYLED_ITEM('',(#21),#13);
#24=ADVANCED_BREP_SHAPE_REPRESENTATION('NONE',(#13),#8);
#25=SHAPE_REPRESENTATION_RELATIONSHIP('','',#3,#24);
#26=PRODUCT_DEFINITION_SHAPE('NONE','NONE',#1);
#27=MECHANICAL_CONTEXT('NONE',#32,'mechanical');
#28=PRODUCT_DEFINITION_FORMATION_WITH_SPECIFIED_SOURCE('ANY','UNSPECIFIED',#29,.NOT_KNOWN.);
#29=PRODUCT('','\X2\0414043504420430043B044C\X0\','NONE',(#27));
#30=PRODUCT_RELATED_PRODUCT_CATEGORY('detail','',(#29));
#31=DESIGN_CONTEXT('detailed design',#32,'design');
#32=APPLICATION_CONTEXT('configuration controlled 3d designs of mechanical parts and assemblies');
#33=APPLICATION_PROTOCOL_DEFINITION('international standard','config_control_design',
1994,#32);
#34=CC_DESIGN_DATE_AND_TIME_ASSIGNMENT(#35,#39,(#1));
#35=DATE_AND_TIME(#36,#37);
#36=CALENDAR_DATE(0,1,1);
#37=LOCAL_TIME(0,0,0.,#38);
#38=COORDINATED_UNIVERSAL_TIME_OFFSET(0,0,.AHEAD.);
#39=DATE_TIME_ROLE('creation_date');
#40=CC_DESIGN_APPROVAL(#41,(#1));
#41=APPROVAL(#42,'UNSPECIFIED');
#42=APPROVAL_STATUS('not_yet_approved');
#43=APPROVAL_DATE_TIME(#44,#41);
#44=DATE_AND_TIME(#45,#46);
#45=CALENDAR_DATE(0,1,1);
#46=LOCAL_TIME(0,0,0.,#47);
#47=COORDINATED_UNIVERSAL_TIME_OFFSET(0,0,.AHEAD.);
#48=PERSON('UNSPECIFIED','savvig','UNSPECIFIED',('UNSPECIFIED'),('UNSPECIFIED'),
('UNSPECIFIED'));
#49=ORGANIZATION('UNSPECIFIED','UNSPECIFIED','UNSPECIFIED');
#50=PERSON_AND_ORGANIZATION(#48,#49);
#51=PERSON_AND_ORGANIZATION_ROLE('creator');
#52=CC_DESIGN_PERSON_AND_ORGANIZATION_ASSIGNMENT(#50,#51,(#28,#1));
#53=ADVANCED_FACE('',(#242,#244),#246,.T.);
#54=COLOUR_RGB('',0.564705882352941,0.564705882352941,0.564705882352941);
#55=FILL_AREA_STYLE_COLOUR('',#54);
#56=FILL_AREA_STYLE($,(#55));
#57=SURFACE_STYLE_FILL_AREA(#56);
#58=SURFACE_SIDE_STYLE('',(#57));
#59=SURFACE_STYLE_USAGE(.BOTH.,#58);
#60=PRESENTATION_STYLE_ASSIGNMENT((#59));
#61=STYLED_ITEM('',(#60),#53);
#62=ADVANCED_FACE('',(#251,#253),#255,.F.);
#63=COLOUR_RGB('',0.564705882352941,0.564705882352941,0.564705882352941);
#64=FILL_AREA_STYLE_COLOUR('',#63);
#65=FILL_AREA_STYLE($,(#64));
#66=SURFACE_STYLE_FILL_AREA(#65);
#67=SURFACE_SIDE_STYLE('',(#66));
#68=SURFACE_STYLE_USAGE(.BOTH.,#67);
#69=PRESENTATION_STYLE_ASSIGNMENT((#68));
#70=STYLED_ITEM('',(#69),#62);
#71=ADVANCED_FACE('',(#260),#262,.F.);
#72=COLOUR_RGB('',0.564705882352941,0.564705882352941,0.564705882352941);
#73=FILL_AREA_STYLE_COLOUR('',#72);
#74=FILL_AREA_STYLE($,(#73));
#75=SURFACE_STYLE_FILL_AREA(#74);
#76=SURFACE_SIDE_STYLE('',(#75));
#77=SURFACE_STYLE_USAGE(.BOTH.,#76);
#78=PRESENTATION_STYLE_ASSIGNMENT((#77));
#79=STYLED_ITEM('',(#78),#71);
#80=ADVANCED_FACE('',(#267),#269,.F.);
#81=COLOUR_RGB('',0.564705882352941,0.564705882352941,0.564705882352941);
#82=FILL_AREA_STYLE_COLOUR('',#81);
#83=FILL_AREA_STYLE($,(#82));
#84=SURFACE_STYLE_FILL_AREA(#83);
#85=SURFACE_SIDE_STYLE('',(#84));
#86=SURFACE_STYLE_USAGE(.BOTH.,#85);
#87=PRESENTATION_STYLE_ASSIGNMENT((#86));
#88=STYLED_ITEM('',(#87),#80);
#89=ADVANCED_FACE('',(#274),#276,.F.);
#90=COLOUR_RGB('',0.564705882352941,0.564705882352941,0.564705882352941);
#91=FILL_AREA_STYLE_COLOUR('',#90);
#92=FILL_AREA_STYLE($,(#91));
#93=SURFACE_STYLE_FILL_AREA(#92);
#94=SURFACE_SIDE_STYLE('',(#93));
#95=SURFACE_STYLE_USAGE(.BOTH.,#94);
#96=PRESENTATION_STYLE_ASSIGNMENT((#95));
#97=STYLED_ITEM('',(#96),#89);
#98=ADVANCED_FACE('',(#281),#283,.T.);
#99=COLOUR_RGB('',0.564705882352941,0.564705882352941,0.564705882352941);
#100=FILL_AREA_STYLE_COLOUR('',#99);
#101=FILL_AREA_STYLE($,(#100));
#102=SURFACE_STYLE_FILL_AREA(#101);
#103=SURFACE_SIDE_STYLE('',(#102));
#104=SURFACE_STYLE_USAGE(.BOTH.,#103);
#105=PRESENTATION_STYLE_ASSIGNMENT((#104));
#106=STYLED_ITEM('',(#105),#98);
#107=ADVANCED_FACE('',(#288,#290),#292,.F.);
#108=COLOUR_RGB('',0.564705882352941,0.564705882352941,0.564705882352941);
#109=FILL_AREA_STYLE_COLOUR('',#108);
#110=FILL_AREA_STYLE($,(#109));
#111=SURFACE_STYLE_FILL_AREA(#110);
#112=SURFACE_SIDE_STYLE('',(#111));
#113=SURFACE_STYLE_USAGE(.BOTH.,#112);
#114=PRESENTATION_STYLE_ASSIGNMENT((#113));
#115=STYLED_ITEM('',(#114),#107);
#116=ADVANCED_FACE('',(#297),#299,.T.);
#117=COLOUR_RGB('',0.564705882352941,0.564705882352941,0.564705882352941);
#118=FILL_AREA_STYLE_COLOUR('',#117);
#119=FILL_AREA_STYLE($,(#118));
#120=SURFACE_STYLE_FILL_AREA(#119);
#121=SURFACE_SIDE_STYLE('',(#120));
#122=SURFACE_STYLE_USAGE(.BOTH.,#121);
#123=PRESENTATION_STYLE_ASSIGNMENT((#122));
#124=STYLED_ITEM('',(#123),#116);
#125=ADVANCED_FACE('',(#304,#306),#308,.T.);
#126=COLOUR_RGB('',0.564705882352941,0.564705882352941,0.564705882352941);
#127=FILL_AREA_STYLE_COLOUR('',#126);
#128=FILL_AREA_STYLE($,(#127));
#129=SURFACE_STYLE_FILL_AREA(#128);
#130=SURFACE_SIDE_STYLE('',(#129));
#131=SURFACE_STYLE_USAGE(.BOTH.,#130);
#132=PRESENTATION_STYLE_ASSIGNMENT((#131));
#133=STYLED_ITEM('',(#132),#125);
#134=ADVANCED_FACE('',(#313),#315,.F.);
#135=COLOUR_RGB('',0.564705882352941,0.564705882352941,0.564705882352941);
#136=FILL_AREA_STYLE_COLOUR('',#135);
#137=FILL_AREA_STYLE($,(#136));
#138=SURFACE_STYLE_FILL_AREA(#137);
#139=SURFACE_SIDE_STYLE('',(#138));
#140=SURFACE_STYLE_USAGE(.BOTH.,#139);
#141=PRESENTATION_STYLE_ASSIGNMENT((#140));
#142=STYLED_ITEM('',(#141),#134);
#143=ADVANCED_FACE('',(#320),#322,.F.);
#144=COLOUR_RGB('',0.564705882352941,0.564705882352941,0.564705882352941);
#145=FILL_AREA_STYLE_COLOUR('',#144);
#146=FILL_AREA_STYLE($,(#145));
#147=SURFACE_STYLE_FILL_AREA(#146);
#148=SURFACE_SIDE_STYLE('',(#147));
#149=SURFACE_STYLE_USAGE(.BOTH.,#148);
#150=PRESENTATION_STYLE_ASSIGNMENT((#149));
#151=STYLED_ITEM('',(#150),#143);
#152=ADVANCED_FACE('',(#327),#329,.T.);
#153=COLOUR_RGB('',0.564705882352941,0.564705882352941,0.564705882352941);
#154=FILL_AREA_STYLE_COLOUR('',#153);
#155=FILL_AREA_STYLE($,(#154));
#156=SURFACE_STYLE_FILL_AREA(#155);
#157=SURFACE_SIDE_STYLE('',(#156));
#158=SURFACE_STYLE_USAGE(.BOTH.,#157);
#159=PRESENTATION_STYLE_ASSIGNMENT((#158));
#160=STYLED_ITEM('',(#159),#152);
#161=ADVANCED_FACE('',(#334),#336,.T.);
#162=COLOUR_RGB('',0.564705882352941,0.564705882352941,0.564705882352941);
#163=FILL_AREA_STYLE_COLOUR('',#162);
#164=FILL_AREA_STYLE($,(#163));
#165=SURFACE_STYLE_FILL_AREA(#164);
#166=SURFACE_SIDE_STYLE('',(#165));
#167=SURFACE_STYLE_USAGE(.BOTH.,#166);
#168=PRESENTATION_STYLE_ASSIGNMENT((#167));
#169=STYLED_ITEM('',(#168),#161);
#170=ADVANCED_FACE('',(#341),#343,.T.);
#171=COLOUR_RGB('',0.564705882352941,0.564705882352941,0.564705882352941);
#172=FILL_AREA_STYLE_COLOUR('',#171);
#173=FILL_AREA_STYLE($,(#172));
#174=SURFACE_STYLE_FILL_AREA(#173);
#175=SURFACE_SIDE_STYLE('',(#174));
#176=SURFACE_STYLE_USAGE(.BOTH.,#175);
#177=PRESENTATION_STYLE_ASSIGNMENT((#176));
#178=STYLED_ITEM('',(#177),#170);
#179=ADVANCED_FACE('',(#348),#350,.T.);
#180=COLOUR_RGB('',0.564705882352941,0.564705882352941,0.564705882352941);
#181=FILL_AREA_STYLE_COLOUR('',#180);
#182=FILL_AREA_STYLE($,(#181));
#183=SURFACE_STYLE_FILL_AREA(#182);
#184=SURFACE_SIDE_STYLE('',(#183));
#185=SURFACE_STYLE_USAGE(.BOTH.,#184);
#186=PRESENTATION_STYLE_ASSIGNMENT((#185));
#187=STYLED_ITEM('',(#186),#179);
#188=ADVANCED_FACE('',(#355),#357,.T.);
#189=COLOUR_RGB('',0.564705882352941,0.564705882352941,0.564705882352941);
#190=FILL_AREA_STYLE_COLOUR('',#189);
#191=FILL_AREA_STYLE($,(#190));
#192=SURFACE_STYLE_FILL_AREA(#191);
#193=SURFACE_SIDE_STYLE('',(#192));
#194=SURFACE_STYLE_USAGE(.BOTH.,#193);
#195=PRESENTATION_STYLE_ASSIGNMENT((#194));
#196=STYLED_ITEM('',(#195),#188);
#197=ADVANCED_FACE('',(#362),#364,.F.);
#198=COLOUR_RGB('',0.564705882352941,0.564705882352941,0.564705882352941);
#199=FILL_AREA_STYLE_COLOUR('',#198);
#200=FILL_AREA_STYLE($,(#199));
#201=SURFACE_STYLE_FILL_AREA(#200);
#202=SURFACE_SIDE_STYLE('',(#201));
#203=SURFACE_STYLE_USAGE(.BOTH.,#202);
#204=PRESENTATION_STYLE_ASSIGNMENT((#203));
#205=STYLED_ITEM('',(#204),#197);
#206=ADVANCED_FACE('',(#369),#371,.F.);
#207=COLOUR_RGB('',0.564705882352941,0.564705882352941,0.564705882352941);
#208=FILL_AREA_STYLE_COLOUR('',#207);
#209=FILL_AREA_STYLE($,(#208));
#210=SURFACE_STYLE_FILL_AREA(#209);
#211=SURFACE_SIDE_STYLE('',(#210));
#212=SURFACE_STYLE_USAGE(.BOTH.,#211);
#213=PRESENTATION_STYLE_ASSIGNMENT((#212));
#214=STYLED_ITEM('',(#213),#206);
#215=ADVANCED_FACE('',(#376),#378,.F.);
#216=COLOUR_RGB('',0.564705882352941,0.564705882352941,0.564705882352941);
#217=FILL_AREA_STYLE_COLOUR('',#216);
#218=FILL_AREA_STYLE($,(#217));
#219=SURFACE_STYLE_FILL_AREA(#218);
#220=SURFACE_SIDE_STYLE('',(#219));
#221=SURFACE_STYLE_USAGE(.BOTH.,#220);
#222=PRESENTATION_STYLE_ASSIGNMENT((#221));
#223=STYLED_ITEM('',(#222),#215);
#224=ADVANCED_FACE('',(#383),#385,.F.);
#225=COLOUR_RGB('',0.564705882352941,0.564705882352941,0.564705882352941);
#226=FILL_AREA_STYLE_COLOUR('',#225);
#227=FILL_AREA_STYLE($,(#226));
#228=SURFACE_STYLE_FILL_AREA(#227);
#229=SURFACE_SIDE_STYLE('',(#228));
#230=SURFACE_STYLE_USAGE(.BOTH.,#229);
#231=PRESENTATION_STYLE_ASSIGNMENT((#230));
#232=STYLED_ITEM('',(#231),#224);
#233=ADVANCED_FACE('',(#390),#392,.F.);
#234=COLOUR_RGB('',0.564705882352941,0.564705882352941,0.564705882352941);
#235=FILL_AREA_STYLE_COLOUR('',#234);
#236=FILL_AREA_STYLE($,(#235));
#237=SURFACE_STYLE_FILL_AREA(#236);
#238=SURFACE_SIDE_STYLE('',(#237));
#239=SURFACE_STYLE_USAGE(.BOTH.,#238);
#240=PRESENTATION_STYLE_ASSIGNMENT((#239));
#241=STYLED_ITEM('',(#240),#233);
#242=FACE_BOUND('',#243,.T.);
#243=EDGE_LOOP('',(#397,#398,#399,#400));
#244=FACE_BOUND('',#245,.T.);
#245=EDGE_LOOP('',(#401,#402,#403));
#246=PLANE('',#247);
#247=AXIS2_PLACEMENT_3D('',#248,#249,#250);
#248=CARTESIAN_POINT('',(-30.,-25.,52.));
#249=DIRECTION('',(-1.1842378929335E-16,-1.4210854715202E-16,1.));
#250=DIRECTION('',(1.,0.,1.1842378929335E-16));
#251=FACE_BOUND('',#252,.T.);
#252=EDGE_LOOP('',(#404,#405,#406,#407));
#253=FACE_BOUND('',#254,.T.);
#254=EDGE_LOOP('',(#408,#409,#410));
#255=PLANE('',#256);
#256=AXIS2_PLACEMENT_3D('',#257,#258,#259);
#257=CARTESIAN_POINT('',(-30.,-25.,49.));
#258=DIRECTION('',(-1.1842378929335E-16,-1.4210854715202E-16,1.));
#259=DIRECTION('',(1.,0.,1.1842378929335E-16));
#260=FACE_BOUND('',#261,.T.);
#261=EDGE_LOOP('',(#411,#412,#413,#414));
#262=PLANE('',#263);
#263=AXIS2_PLACEMENT_3D('',#264,#265,#266);
#264=CARTESIAN_POINT('',(6.19084430868987,-8.48076923076924,53.));
#265=DIRECTION('',(0.589604219875227,-0.807692307692308,0.));
#266=DIRECTION('',(-0.807692307692308,-0.589604219875227,0.));
#267=FACE_BOUND('',#268,.T.);
#268=EDGE_LOOP('',(#415,#416,#417,#418));
#269=PLANE('',#270);
#270=AXIS2_PLACEMENT_3D('',#271,#272,#273);
#271=CARTESIAN_POINT('',(-5.53408234690558E-15,-13.,53.));
#272=DIRECTION('',(-0.589604219875227,-0.807692307692308,-6.98231659009738E-17));
#273=DIRECTION('',(-0.807692307692308,0.589604219875227,0.));
#274=FACE_BOUND('',#275,.T.);
#275=EDGE_LOOP('',(#419,#420,#421,#422));
#276=CYLINDRICAL_SURFACE('',#277,10.5);
#277=AXIS2_PLACEMENT_3D('',#278,#279,#280);
#278=CARTESIAN_POINT('',(-6.27646083254755E-15,-7.53175299905706E-15,53.));
#279=DIRECTION('',(1.1842378929335E-16,1.4210854715202E-16,-1.));
#280=DIRECTION('',(-0.589604219875227,-0.807692307692308,-1.8460314629299E-16));
#281=FACE_BOUND('',#282,.T.);
#282=EDGE_LOOP('',(#423,#424,#425,#426));
#283=CYLINDRICAL_SURFACE('',#284,10.);
#284=AXIS2_PLACEMENT_3D('',#285,#286,#287);
#285=CARTESIAN_POINT('',(-23.1320090175507,-65.,42.));
#286=DIRECTION('',(0.,-1.,-2.18628534080031E-16));
#287=DIRECTION('',(3.5527136788005E-16,-2.18628534080031E-16,1.));
#288=FACE_BOUND('',#289,.T.);
#289=EDGE_LOOP('',(#427,#428,#429,#430,#431,#432,#433,#434));
#290=FACE_BOUND('',#291,.T.);
#291=EDGE_LOOP('',(#435,#436,#437,#438,#439,#440,#441,#442));
#292=PLANE('',#293);
#293=AXIS2_PLACEMENT_3D('',#294,#295,#296);
#294=CARTESIAN_POINT('',(0.,-25.,-1.53080849893419E-15));
#295=DIRECTION('',(0.,1.,6.12323399573677E-17));
#296=DIRECTION('',(-1.,7.49879891330929E-33,-1.22464679914735E-16));
#297=FACE_BOUND('',#298,.T.);
#298=EDGE_LOOP('',(#443,#444,#445,#446));
#299=CYLINDRICAL_SURFACE('',#300,10.);
#300=AXIS2_PLACEMENT_3D('',#301,#302,#303);
#301=CARTESIAN_POINT('',(26.4921894064179,-65.,42.));
#302=DIRECTION('',(0.,-1.,-1.09314267040015E-16));
#303=DIRECTION('',(0.624695047554424,-8.53601015586743E-17,0.78086880944303));
#304=FACE_BOUND('',#305,.T.);
#305=EDGE_LOOP('',(#447,#448,#449,#450,#451,#452,#453,#454));
#306=FACE_BOUND('',#307,.T.);
#307=EDGE_LOOP('',(#455,#456,#457,#458,#459,#460,#461,#462));
#308=PLANE('',#309);
#309=AXIS2_PLACEMENT_3D('',#310,#311,#312);
#310=CARTESIAN_POINT('',(0.,25.,1.53080849893419E-15));
#311=DIRECTION('',(0.,1.,6.12323399573677E-17));
#312=DIRECTION('',(-1.,7.49879891330929E-33,-1.22464679914735E-16));
#313=FACE_BOUND('',#314,.T.);
#314=EDGE_LOOP('',(#463,#464,#465,#466));
#315=CYLINDRICAL_SURFACE('',#316,7.);
#316=AXIS2_PLACEMENT_3D('',#317,#318,#319);
#317=CARTESIAN_POINT('',(-23.1320090175507,-65.,42.));
#318=DIRECTION('',(0.,-1.,-2.18628534080031E-16));
#319=DIRECTION('',(3.5527136788005E-16,-2.18628534080031E-16,1.));
#320=FACE_BOUND('',#321,.T.);
#321=EDGE_LOOP('',(#467,#468,#469,#470));
#322=CYLINDRICAL_SURFACE('',#323,7.);
#323=AXIS2_PLACEMENT_3D('',#324,#325,#326);
#324=CARTESIAN_POINT('',(26.4921894064179,-65.,42.));
#325=DIRECTION('',(0.,-1.,-1.09314267040015E-16));
#326=DIRECTION('',(0.624695047554424,-8.53601015586743E-17,0.78086880944303));
#327=FACE_BOUND('',#328,.T.);
#328=EDGE_LOOP('',(#471,#472,#473,#474));
#329=PLANE('',#330);
#330=AXIS2_PLACEMENT_3D('',#331,#332,#333);
#331=CARTESIAN_POINT('',(-50.,-25.,-3.06161699786838E-15));
#332=DIRECTION('',(-0.93334560620306,-2.19811290218235E-17,0.358979079308869));
#333=DIRECTION('',(0.358979079308869,-6.37674942731914E-17,0.93334560620306));
#334=FACE_BOUND('',#335,.T.);
#335=EDGE_LOOP('',(#475,#476,#477,#478));
#336=CYLINDRICAL_SURFACE('',#337,10.);
#337=AXIS2_PLACEMENT_3D('',#338,#339,#340);
#338=CARTESIAN_POINT('',(-35.439701325243,-65.,9.99999999999999));
#339=DIRECTION('',(0.,-1.,-6.83214169000096E-17));
#340=DIRECTION('',(-0.93334560620306,-2.45259593358429E-17,0.358979079308869));
#341=FACE_BOUND('',#342,.T.);
#342=EDGE_LOOP('',(#479,#480,#481,#482));
#343=PLANE('',#344);
#344=AXIS2_PLACEMENT_3D('',#345,#346,#347);
#345=CARTESIAN_POINT('',(95.,-25.,-3.06161699786838E-15));
#346=DIRECTION('',(1.0880840072014E-32,6.12323399573676E-17,-1.));
#347=DIRECTION('',(-1.,0.,-1.0880840072014E-32));
#348=FACE_BOUND('',#349,.T.);
#349=EDGE_LOOP('',(#483,#484,#485,#486));
#350=CYLINDRICAL_SURFACE('',#351,10.);
#351=AXIS2_PLACEMENT_3D('',#352,#353,#354);
#352=CARTESIAN_POINT('',(66.4921894064179,-65.,10.));
#353=DIRECTION('',(-2.18628534080031E-16,-1.,-2.73285667600039E-17));
#354=DIRECTION('',(5.9748044892479E-33,2.73285667600039E-17,-1.));
#355=FACE_BOUND('',#356,.T.);
#356=EDGE_LOOP('',(#487,#488,#489,#490));
#357=PLANE('',#358);
#358=AXIS2_PLACEMENT_3D('',#359,#360,#361);
#359=CARTESIAN_POINT('',(30.,-25.,52.));
#360=DIRECTION('',(0.624695047554424,-1.10968132026277E-16,0.78086880944303));
#361=DIRECTION('',(0.78086880944303,4.26800507793372E-17,-0.624695047554424));
#362=FACE_BOUND('',#363,.T.);
#363=EDGE_LOOP('',(#491,#492,#493,#494));
#364=PLANE('',#365);
#365=AXIS2_PLACEMENT_3D('',#366,#367,#368);
#366=CARTESIAN_POINT('',(28.1259148573367,-25.,49.6573935716709));
#367=DIRECTION('',(0.624695047554424,-1.10968132026277E-16,0.78086880944303));
#368=DIRECTION('',(0.78086880944303,4.26800507793372E-17,-0.624695047554424));
#369=FACE_BOUND('',#370,.T.);
#370=EDGE_LOOP('',(#495,#496,#497,#498));
#371=CYLINDRICAL_SURFACE('',#372,7.);
#372=AXIS2_PLACEMENT_3D('',#373,#374,#375);
#373=CARTESIAN_POINT('',(66.4921894064179,-65.,10.));
#374=DIRECTION('',(-2.18628534080031E-16,-1.,-2.73285667600039E-17));
#375=DIRECTION('',(5.9748044892479E-33,2.73285667600039E-17,-1.));
#376=FACE_BOUND('',#377,.T.);
#377=EDGE_LOOP('',(#499,#500,#501,#502));
#378=PLANE('',#379);
#379=AXIS2_PLACEMENT_3D('',#380,#381,#382);
#380=CARTESIAN_POINT('',(95.,-25.,3.));
#381=DIRECTION('',(1.0880840072014E-32,6.12323399573676E-17,-1.));
#382=DIRECTION('',(-1.,0.,-1.0880840072014E-32));
#383=FACE_BOUND('',#384,.T.);
#384=EDGE_LOOP('',(#503,#504,#505,#506));
#385=CYLINDRICAL_SURFACE('',#386,7.);
#386=AXIS2_PLACEMENT_3D('',#387,#388,#389);
#387=CARTESIAN_POINT('',(-35.439701325243,-65.,9.99999999999999));
#388=DIRECTION('',(0.,-1.,-6.83214169000096E-17));
#389=DIRECTION('',(-0.93334560620306,-2.45259593358429E-17,0.358979079308869));
#390=FACE_BOUND('',#391,.T.);
#391=EDGE_LOOP('',(#507,#508,#509,#510));
#392=PLANE('',#393);
#393=AXIS2_PLACEMENT_3D('',#394,#395,#396);
#394=CARTESIAN_POINT('',(-47.1999631813908,-25.,-1.07693723792661));
#395=DIRECTION('',(-0.93334560620306,-2.19811290218235E-17,0.358979079308869));
#396=DIRECTION('',(0.358979079308869,-6.37674942731914E-17,0.93334560620306));
#397=ORIENTED_EDGE('',*,*,#511,.F.);
#398=ORIENTED_EDGE('',*,*,#512,.T.);
#399=ORIENTED_EDGE('',*,*,#513,.T.);
#400=ORIENTED_EDGE('',*,*,#514,.F.);
#401=ORIENTED_EDGE('',*,*,#515,.T.);
#402=ORIENTED_EDGE('',*,*,#516,.T.);
#403=ORIENTED_EDGE('',*,*,#517,.T.);
#404=ORIENTED_EDGE('',*,*,#518,.T.);
#405=ORIENTED_EDGE('',*,*,#519,.T.);
#406=ORIENTED_EDGE('',*,*,#520,.F.);
#407=ORIENTED_EDGE('',*,*,#521,.F.);
#408=ORIENTED_EDGE('',*,*,#522,.T.);
#409=ORIENTED_EDGE('',*,*,#523,.T.);
#410=ORIENTED_EDGE('',*,*,#524,.T.);
#411=ORIENTED_EDGE('',*,*,#524,.F.);
#412=ORIENTED_EDGE('',*,*,#525,.F.);
#413=ORIENTED_EDGE('',*,*,#516,.F.);
#414=ORIENTED_EDGE('',*,*,#526,.T.);
#415=ORIENTED_EDGE('',*,*,#523,.F.);
#416=ORIENTED_EDGE('',*,*,#527,.F.);
#417=ORIENTED_EDGE('',*,*,#517,.F.);
#418=ORIENTED_EDGE('',*,*,#525,.T.);
#419=ORIENTED_EDGE('',*,*,#522,.F.);
#420=ORIENTED_EDGE('',*,*,#526,.F.);
#421=ORIENTED_EDGE('',*,*,#515,.F.);
#422=ORIENTED_EDGE('',*,*,#527,.T.);
#423=ORIENTED_EDGE('',*,*,#528,.F.);
#424=ORIENTED_EDGE('',*,*,#529,.T.);
#425=ORIENTED_EDGE('',*,*,#511,.T.);
#426=ORIENTED_EDGE('',*,*,#530,.T.);
#427=ORIENTED_EDGE('',*,*,#529,.F.);
#428=ORIENTED_EDGE('',*,*,#531,.F.);
#429=ORIENTED_EDGE('',*,*,#532,.F.);
#430=ORIENTED_EDGE('',*,*,#533,.F.);
#431=ORIENTED_EDGE('',*,*,#534,.F.);
#432=ORIENTED_EDGE('',*,*,#535,.F.);
#433=ORIENTED_EDGE('',*,*,#536,.F.);
#434=ORIENTED_EDGE('',*,*,#512,.F.);
#435=ORIENTED_EDGE('',*,*,#537,.T.);
#436=ORIENTED_EDGE('',*,*,#521,.T.);
#437=ORIENTED_EDGE('',*,*,#538,.T.);
#438=ORIENTED_EDGE('',*,*,#539,.T.);
#439=ORIENTED_EDGE('',*,*,#540,.T.);
#440=ORIENTED_EDGE('',*,*,#541,.T.);
#441=ORIENTED_EDGE('',*,*,#542,.T.);
#442=ORIENTED_EDGE('',*,*,#543,.T.);
#443=ORIENTED_EDGE('',*,*,#513,.F.);
#444=ORIENTED_EDGE('',*,*,#536,.T.);
#445=ORIENTED_EDGE('',*,*,#544,.T.);
#446=ORIENTED_EDGE('',*,*,#545,.T.);
#447=ORIENTED_EDGE('',*,*,#530,.F.);
#448=ORIENTED_EDGE('',*,*,#514,.T.);
#449=ORIENTED_EDGE('',*,*,#545,.F.);
#450=ORIENTED_EDGE('',*,*,#546,.T.);
#451=ORIENTED_EDGE('',*,*,#547,.F.);
#452=ORIENTED_EDGE('',*,*,#548,.T.);
#453=ORIENTED_EDGE('',*,*,#549,.F.);
#454=ORIENTED_EDGE('',*,*,#550,.T.);
#455=ORIENTED_EDGE('',*,*,#551,.T.);
#456=ORIENTED_EDGE('',*,*,#552,.F.);
#457=ORIENTED_EDGE('',*,*,#553,.T.);
#458=ORIENTED_EDGE('',*,*,#554,.F.);
#459=ORIENTED_EDGE('',*,*,#555,.T.);
#460=ORIENTED_EDGE('',*,*,#556,.F.);
#461=ORIENTED_EDGE('',*,*,#557,.T.);
#462=ORIENTED_EDGE('',*,*,#519,.F.);
#463=ORIENTED_EDGE('',*,*,#558,.T.);
#464=ORIENTED_EDGE('',*,*,#551,.F.);
#465=ORIENTED_EDGE('',*,*,#518,.F.);
#466=ORIENTED_EDGE('',*,*,#537,.F.);
#467=ORIENTED_EDGE('',*,*,#520,.T.);
#468=ORIENTED_EDGE('',*,*,#557,.F.);
#469=ORIENTED_EDGE('',*,*,#559,.F.);
#470=ORIENTED_EDGE('',*,*,#538,.F.);
#471=ORIENTED_EDGE('',*,*,#528,.T.);
#472=ORIENTED_EDGE('',*,*,#550,.F.);
#473=ORIENTED_EDGE('',*,*,#560,.F.);
#474=ORIENTED_EDGE('',*,*,#531,.T.);
#475=ORIENTED_EDGE('',*,*,#561,.F.);
#476=ORIENTED_EDGE('',*,*,#532,.T.);
#477=ORIENTED_EDGE('',*,*,#560,.T.);
#478=ORIENTED_EDGE('',*,*,#549,.T.);
#479=ORIENTED_EDGE('',*,*,#561,.T.);
#480=ORIENTED_EDGE('',*,*,#548,.F.);
#481=ORIENTED_EDGE('',*,*,#562,.F.);
#482=ORIENTED_EDGE('',*,*,#533,.T.);
#483=ORIENTED_EDGE('',*,*,#563,.F.);
#484=ORIENTED_EDGE('',*,*,#534,.T.);
#485=ORIENTED_EDGE('',*,*,#562,.T.);
#486=ORIENTED_EDGE('',*,*,#547,.T.);
#487=ORIENTED_EDGE('',*,*,#544,.F.);
#488=ORIENTED_EDGE('',*,*,#535,.T.);
#489=ORIENTED_EDGE('',*,*,#563,.T.);
#490=ORIENTED_EDGE('',*,*,#546,.F.);
#491=ORIENTED_EDGE('',*,*,#559,.T.);
#492=ORIENTED_EDGE('',*,*,#556,.T.);
#493=ORIENTED_EDGE('',*,*,#564,.F.);
#494=ORIENTED_EDGE('',*,*,#539,.F.);
#495=ORIENTED_EDGE('',*,*,#564,.T.);
#496=ORIENTED_EDGE('',*,*,#555,.F.);
#497=ORIENTED_EDGE('',*,*,#565,.F.);
#498=ORIENTED_EDGE('',*,*,#540,.F.);
#499=ORIENTED_EDGE('',*,*,#566,.F.);
#500=ORIENTED_EDGE('',*,*,#541,.F.);
#501=ORIENTED_EDGE('',*,*,#565,.T.);
#502=ORIENTED_EDGE('',*,*,#554,.T.);
#503=ORIENTED_EDGE('',*,*,#566,.T.);
#504=ORIENTED_EDGE('',*,*,#553,.F.);
#505=ORIENTED_EDGE('',*,*,#567,.F.);
#506=ORIENTED_EDGE('',*,*,#542,.F.);
#507=ORIENTED_EDGE('',*,*,#558,.F.);
#508=ORIENTED_EDGE('',*,*,#543,.F.);
#509=ORIENTED_EDGE('',*,*,#567,.T.);
#510=ORIENTED_EDGE('',*,*,#552,.T.);
#511=EDGE_CURVE('',#568,#569,#570,.T.);
#512=EDGE_CURVE('',#568,#571,#572,.T.);
#513=EDGE_CURVE('',#571,#573,#574,.T.);
#514=EDGE_CURVE('',#569,#573,#575,.T.);
#515=EDGE_CURVE('',#576,#577,#578,.T.);
#516=EDGE_CURVE('',#577,#579,#580,.F.);
#517=EDGE_CURVE('',#579,#576,#581,.F.);
#518=EDGE_CURVE('',#582,#583,#584,.T.);
#519=EDGE_CURVE('',#583,#585,#586,.T.);
#520=EDGE_CURVE('',#587,#585,#588,.T.);
#521=EDGE_CURVE('',#582,#587,#589,.T.);
#522=EDGE_CURVE('',#590,#591,#592,.F.);
#523=EDGE_CURVE('',#591,#593,#594,.T.);
#524=EDGE_CURVE('',#593,#590,#595,.T.);
#525=EDGE_CURVE('',#579,#593,#596,.T.);
#526=EDGE_CURVE('',#577,#590,#597,.T.);
#527=EDGE_CURVE('',#576,#591,#598,.T.);
#528=EDGE_CURVE('',#599,#600,#601,.T.);
#529=EDGE_CURVE('',#599,#568,#602,.F.);
#530=EDGE_CURVE('',#569,#600,#603,.F.);
#531=EDGE_CURVE('',#604,#599,#605,.T.);
#532=EDGE_CURVE('',#606,#604,#607,.F.);
#533=EDGE_CURVE('',#608,#606,#609,.T.);
#534=EDGE_CURVE('',#610,#608,#611,.F.);
#535=EDGE_CURVE('',#612,#610,#613,.T.);
#536=EDGE_CURVE('',#571,#612,#614,.F.);
#537=EDGE_CURVE('',#615,#582,#616,.F.);
#538=EDGE_CURVE('',#587,#617,#618,.F.);
#539=EDGE_CURVE('',#617,#619,#620,.T.);
#540=EDGE_CURVE('',#619,#621,#622,.F.);
#541=EDGE_CURVE('',#621,#623,#624,.T.);
#542=EDGE_CURVE('',#623,#625,#626,.F.);
#543=EDGE_CURVE('',#625,#615,#627,.T.);
#544=EDGE_CURVE('',#612,#628,#629,.T.);
#545=EDGE_CURVE('',#628,#573,#630,.F.);
#546=EDGE_CURVE('',#628,#631,#632,.T.);
#547=EDGE_CURVE('',#633,#631,#634,.F.);
#548=EDGE_CURVE('',#633,#635,#636,.T.);
#549=EDGE_CURVE('',#637,#635,#638,.F.);
#550=EDGE_CURVE('',#637,#600,#639,.T.);
#551=EDGE_CURVE('',#583,#640,#641,.F.);
#552=EDGE_CURVE('',#642,#640,#643,.T.);
#553=EDGE_CURVE('',#642,#644,#645,.F.);
#554=EDGE_CURVE('',#646,#644,#647,.T.);
#555=EDGE_CURVE('',#646,#648,#649,.F.);
#556=EDGE_CURVE('',#650,#648,#651,.T.);
#557=EDGE_CURVE('',#650,#585,#652,.F.);
#558=EDGE_CURVE('',#615,#640,#653,.T.);
#559=EDGE_CURVE('',#617,#650,#654,.T.);
#560=EDGE_CURVE('',#604,#637,#655,.T.);
#561=EDGE_CURVE('',#606,#635,#656,.T.);
#562=EDGE_CURVE('',#608,#633,#657,.T.);
#563=EDGE_CURVE('',#610,#631,#658,.T.);
#564=EDGE_CURVE('',#619,#648,#659,.T.);
#565=EDGE_CURVE('',#621,#646,#660,.T.);
#566=EDGE_CURVE('',#623,#644,#661,.T.);
#567=EDGE_CURVE('',#625,#642,#662,.T.);
#568=VERTEX_POINT('',#663);
#569=VERTEX_POINT('',#664);
#570=LINE('',#665,#666);
#571=VERTEX_POINT('',#668);
#572=LINE('',#669,#670);
#573=VERTEX_POINT('',#672);
#574=LINE('',#673,#674);
#575=LINE('',#676,#677);
#576=VERTEX_POINT('',#679);
#577=VERTEX_POINT('',#680);
#578=CIRCLE('',#681,10.5);
#579=VERTEX_POINT('',#685);
#580=LINE('',#686,#687);
#581=LINE('',#689,#690);
#582=VERTEX_POINT('',#692);
#583=VERTEX_POINT('',#693);
#584=LINE('',#694,#695);
#585=VERTEX_POINT('',#697);
#586=LINE('',#698,#699);
#587=VERTEX_POINT('',#701);
#588=LINE('',#702,#703);
#589=LINE('',#705,#706);
#590=VERTEX_POINT('',#708);
#591=VERTEX_POINT('',#709);
#592=CIRCLE('',#710,10.5);
#593=VERTEX_POINT('',#714);
#594=LINE('',#715,#716);
#595=LINE('',#718,#719);
#596=LINE('',#721,#722);
#597=LINE('',#724,#725);
#598=LINE('',#727,#728);
#599=VERTEX_POINT('',#730);
#600=VERTEX_POINT('',#731);
#601=LINE('',#732,#733);
#602=CIRCLE('',#735,10.);
#603=CIRCLE('',#739,10.);
#604=VERTEX_POINT('',#743);
#605=LINE('',#744,#745);
#606=VERTEX_POINT('',#747);
#607=CIRCLE('',#748,10.);
#608=VERTEX_POINT('',#752);
#609=LINE('',#753,#754);
#610=VERTEX_POINT('',#756);
#611=CIRCLE('',#757,10.);
#612=VERTEX_POINT('',#761);
#613=LINE('',#762,#763);
#614=CIRCLE('',#765,10.);
#615=VERTEX_POINT('',#769);
#616=CIRCLE('',#770,7.00000000000001);
#617=VERTEX_POINT('',#774);
#618=CIRCLE('',#775,7.00000000000001);
#619=VERTEX_POINT('',#779);
#620=LINE('',#780,#781);
#621=VERTEX_POINT('',#783);
#622=CIRCLE('',#784,7.);
#623=VERTEX_POINT('',#788);
#624=LINE('',#789,#790);
#625=VERTEX_POINT('',#792);
#626=CIRCLE('',#793,7.);
#627=LINE('',#797,#798);
#628=VERTEX_POINT('',#800);
#629=LINE('',#801,#802);
#630=CIRCLE('',#804,10.);
#631=VERTEX_POINT('',#808);
#632=LINE('',#809,#810);
#633=VERTEX_POINT('',#812);
#634=CIRCLE('',#813,10.);
#635=VERTEX_POINT('',#817);
#636=LINE('',#818,#819);
#637=VERTEX_POINT('',#821);
#638=CIRCLE('',#822,10.);
#639=LINE('',#826,#827);
#640=VERTEX_POINT('',#829);
#641=CIRCLE('',#830,7.);
#642=VERTEX_POINT('',#834);
#643=LINE('',#835,#836);
#644=VERTEX_POINT('',#838);
#645=CIRCLE('',#839,7.);
#646=VERTEX_POINT('',#843);
#647=LINE('',#844,#845);
#648=VERTEX_POINT('',#847);
#649=CIRCLE('',#848,7.00000000000001);
#650=VERTEX_POINT('',#852);
#651=LINE('',#853,#854);
#652=CIRCLE('',#856,7.00000000000001);
#653=LINE('',#860,#861);
#654=LINE('',#863,#864);
#655=LINE('',#866,#867);
#656=LINE('',#869,#870);
#657=LINE('',#872,#873);
#658=LINE('',#875,#876);
#659=LINE('',#878,#879);
#660=LINE('',#881,#882);
#661=LINE('',#884,#885);
#662=LINE('',#887,#888);
#663=CARTESIAN_POINT('',(-23.1320090175507,-25.,52.));
#664=CARTESIAN_POINT('',(-23.1320090175507,25.,52.));
#665=CARTESIAN_POINT('',(-23.1320090175507,-25.,52.));
#666=VECTOR('',#667,1.);
#667=DIRECTION('',(0.,1.,0.));
#668=CARTESIAN_POINT('',(26.4921894064179,-25.,52.));
#669=CARTESIAN_POINT('',(-23.1320090175507,-25.,52.));
#670=VECTOR('',#671,1.);
#671=DIRECTION('',(1.,0.,1.43184728081554E-16));
#672=CARTESIAN_POINT('',(26.4921894064179,25.,52.));
#673=CARTESIAN_POINT('',(26.4921894064179,-25.,52.));
#674=VECTOR('',#675,1.);
#675=DIRECTION('',(0.,1.,2.8421709430404E-16));
#676=CARTESIAN_POINT('',(-23.1320090175507,25.,52.));
#677=VECTOR('',#678,1.);
#678=DIRECTION('',(1.,7.15923640407768E-17,1.43184728081554E-16));
#679=CARTESIAN_POINT('',(-6.19084430868989,-8.48076923076924,52.));
#680=CARTESIAN_POINT('',(6.19084430868988,-8.48076923076923,52.));
#681=AXIS2_PLACEMENT_3D('',#682,#683,#684);
#682=CARTESIAN_POINT('',(-7.105427357601E-15,-7.105427357601E-15,52.));
#683=DIRECTION('',(1.1842378929335E-16,1.4210854715202E-16,-1.));
#684=DIRECTION('',(-0.589604219875227,-0.807692307692308,-1.8460314629299E-16));
#685=CARTESIAN_POINT('',(-5.96292810381018E-15,-13.,52.));
#686=CARTESIAN_POINT('',(-6.21724893790088E-15,-13.,52.));
#687=VECTOR('',#688,1.);
#688=DIRECTION('',(0.807692307692308,0.589604219875226,0.));
#689=CARTESIAN_POINT('',(-6.19084430868989,-8.48076923076924,52.));
#690=VECTOR('',#691,1.);
#691=DIRECTION('',(0.807692307692308,-0.589604219875227,0.));
#692=CARTESIAN_POINT('',(-23.1320090175507,-25.,49.));
#693=CARTESIAN_POINT('',(-23.1320090175507,25.,49.));
#694=CARTESIAN_POINT('',(-23.1320090175507,-25.,49.));
#695=VECTOR('',#696,1.);
#696=DIRECTION('',(0.,1.,1.4210854715202E-16));
#697=CARTESIAN_POINT('',(26.4921894064179,25.,49.));
#698=CARTESIAN_POINT('',(-23.1320090175507,25.,49.));
#699=VECTOR('',#700,1.);
#700=DIRECTION('',(1.,0.,1.43184728081554E-16));
#701=CARTESIAN_POINT('',(26.4921894064179,-25.,49.));
#702=CARTESIAN_POINT('',(26.4921894064179,-25.,49.));
#703=VECTOR('',#704,1.);
#704=DIRECTION('',(0.,1.,2.8421709430404E-16));
#705=CARTESIAN_POINT('',(-23.1320090175507,-25.,49.));
#706=VECTOR('',#707,1.);
#707=DIRECTION('',(1.,7.15923640407768E-17,0.));
#708=CARTESIAN_POINT('',(6.19084430868988,-8.48076923076924,49.));
#709=CARTESIAN_POINT('',(-6.19084430868989,-8.48076923076924,49.));
#710=AXIS2_PLACEMENT_3D('',#711,#712,#713);
#711=CARTESIAN_POINT('',(-7.105427357601E-15,-7.105427357601E-15,49.));
#712=DIRECTION('',(1.1842378929335E-16,1.4210854715202E-16,-1.));
#713=DIRECTION('',(-0.589604219875227,-0.807692307692308,-1.8460314629299E-16));
#714=CARTESIAN_POINT('',(-5.06038718973218E-15,-13.,49.));
#715=CARTESIAN_POINT('',(-6.19084430868989,-8.48076923076924,49.));
#716=VECTOR('',#717,1.);
#717=DIRECTION('',(0.807692307692308,-0.589604219875227,0.));
#718=CARTESIAN_POINT('',(-6.21724893790088E-15,-13.,49.));
#719=VECTOR('',#720,1.);
#720=DIRECTION('',(0.807692307692308,0.589604219875226,0.));
#721=CARTESIAN_POINT('',(-5.37236453790649E-15,-13.,52.));
#722=VECTOR('',#723,1.);
#723=DIRECTION('',(5.92118946466748E-17,0.,-1.));
#724=CARTESIAN_POINT('',(6.19084430868988,-8.48076923076923,52.));
#725=VECTOR('',#726,1.);
#726=DIRECTION('',(2.96059473233375E-16,0.,-1.));
#727=CARTESIAN_POINT('',(-6.19084430868989,-8.48076923076924,52.));
#728=VECTOR('',#729,1.);
#729=DIRECTION('',(0.,0.,-1.));
#730=CARTESIAN_POINT('',(-32.4654650795813,-25.,45.5897907930887));
#731=CARTESIAN_POINT('',(-32.4654650795813,25.,45.5897907930887));
#732=CARTESIAN_POINT('',(-32.4654650795813,-25.,45.5897907930887));
#733=VECTOR('',#734,1.);
#734=DIRECTION('',(0.,1.,2.8421709430404E-16));
#735=AXIS2_PLACEMENT_3D('',#736,#737,#738);
#736=CARTESIAN_POINT('',(-23.1320090175507,-25.,42.));
#737=DIRECTION('',(3.08148791101958E-33,-1.,-6.12323399573677E-17));
#738=DIRECTION('',(3.5527136788005E-16,-6.12323399573677E-17,1.));
#739=AXIS2_PLACEMENT_3D('',#740,#741,#742);
#740=CARTESIAN_POINT('',(-23.1320090175507,25.,42.));
#741=DIRECTION('',(0.,1.,6.12323399573677E-17));
#742=DIRECTION('',(-0.933345606203059,-2.19811290218235E-17,0.358979079308869));
#743=CARTESIAN_POINT('',(-44.7731573872736,-25.,13.5897907930887));
#744=CARTESIAN_POINT('',(-44.7731573872736,-25.,13.5897907930887));
#745=VECTOR('',#746,1.);
#746=DIRECTION('',(0.358979079308869,-1.03622178193936E-16,0.93334560620306));
#747=CARTESIAN_POINT('',(-35.439701325243,-25.,-2.2132357220348E-15));
#748=AXIS2_PLACEMENT_3D('',#749,#750,#751);
#749=CARTESIAN_POINT('',(-35.439701325243,-25.,10.));
#750=DIRECTION('',(3.08148791101958E-33,-1.,-6.12323399573676E-17));
#751=DIRECTION('',(-0.93334560620306,-2.19811290218235E-17,0.358979079308869));
#752=CARTESIAN_POINT('',(66.4921894064179,-25.,-2.50120211264236E-15));
#753=CARTESIAN_POINT('',(66.4921894064179,-25.,-3.06161699786838E-15));
#754=VECTOR('',#755,1.);
#755=DIRECTION('',(-1.,0.,-1.54781962653418E-32));
#756=CARTESIAN_POINT('',(72.7391398819621,-25.,17.8086880944303));
#757=AXIS2_PLACEMENT_3D('',#758,#759,#760);
#758=CARTESIAN_POINT('',(66.4921894064179,-25.,10.));
#759=DIRECTION('',(6.16297582203915E-33,-1.,-6.12323399573677E-17));
#760=DIRECTION('',(1.4210854715202E-15,6.12323399573677E-17,-1.));
#761=CARTESIAN_POINT('',(32.7391398819621,-25.,49.8086880944303));
#762=CARTESIAN_POINT('',(32.7391398819621,-25.,49.8086880944303));
#763=VECTOR('',#764,1.);
#764=DIRECTION('',(0.78086880944303,6.93550825164229E-17,-0.624695047554424));
#765=AXIS2_PLACEMENT_3D('',#766,#767,#768);
#766=CARTESIAN_POINT('',(26.4921894064179,-25.,42.));
#767=DIRECTION('',(0.,-1.,-6.12323399573677E-17));
#768=DIRECTION('',(0.624695047554424,-4.78144244019206E-17,0.78086880944303));
#769=CARTESIAN_POINT('',(-29.6654282609721,-25.,44.5128535551621));
#770=AXIS2_PLACEMENT_3D('',#771,#772,#773);
#771=CARTESIAN_POINT('',(-23.1320090175507,-25.,42.));
#772=DIRECTION('',(3.08148791101958E-33,-1.,-6.12323399573677E-17));
#773=DIRECTION('',(1.01506105108586E-15,-6.12323399573677E-17,1.));
#774=CARTESIAN_POINT('',(30.8650547392988,-25.,47.4660816661012));
#775=AXIS2_PLACEMENT_3D('',#776,#777,#778);
#776=CARTESIAN_POINT('',(26.4921894064179,-25.,42.));
#777=DIRECTION('',(0.,-1.,-6.12323399573677E-17));
#778=DIRECTION('',(0.624695047554424,-4.78144244019206E-17,0.780868809443031));
#779=CARTESIAN_POINT('',(70.8650547392989,-25.,15.4660816661012));
#780=CARTESIAN_POINT('',(30.8650547392988,-25.,47.4660816661012));
#781=VECTOR('',#782,1.);
#782=DIRECTION('',(0.78086880944303,2.08065247549269E-16,-0.624695047554424));
#783=CARTESIAN_POINT('',(66.4921894064179,-25.,3.));
#784=AXIS2_PLACEMENT_3D('',#785,#786,#787);
#785=CARTESIAN_POINT('',(66.4921894064179,-25.,10.));
#786=DIRECTION('',(0.,-1.,-6.12323399573677E-17));
#787=DIRECTION('',(2.03012210217171E-15,6.12323399573677E-17,-1.));
#788=CARTESIAN_POINT('',(-35.439701325243,-25.,3.));
#789=CARTESIAN_POINT('',(66.4921894064179,-25.,3.));
#790=VECTOR('',#791,1.);
#791=DIRECTION('',(-1.,-6.97075989329608E-17,-8.7134498666201E-18));
#792=CARTESIAN_POINT('',(-41.9731205686644,-25.,12.5128535551621));
#793=AXIS2_PLACEMENT_3D('',#794,#795,#796);
#794=CARTESIAN_POINT('',(-35.439701325243,-25.,10.));
#795=DIRECTION('',(0.,-1.,-6.12323399573677E-17));
#796=DIRECTION('',(-0.93334560620306,-2.19811290218235E-17,0.358979079308869));
#797=CARTESIAN_POINT('',(-41.9731205686644,-25.,12.5128535551621));
#798=VECTOR('',#799,1.);
#799=DIRECTION('',(0.358979079308869,-2.07244356387872E-16,0.93334560620306));
#800=CARTESIAN_POINT('',(32.7391398819621,25.,49.8086880944303));
#801=CARTESIAN_POINT('',(32.7391398819621,-25.,49.8086880944303));
#802=VECTOR('',#803,1.);
#803=DIRECTION('',(0.,1.,0.));
#804=AXIS2_PLACEMENT_3D('',#805,#806,#807);
#805=CARTESIAN_POINT('',(26.4921894064179,25.,42.));
#806=DIRECTION('',(0.,1.,6.12323399573677E-17));
#807=DIRECTION('',(3.5527136788005E-16,-6.12323399573677E-17,1.));
#808=CARTESIAN_POINT('',(72.7391398819621,25.,17.8086880944303));
#809=CARTESIAN_POINT('',(32.7391398819621,25.,49.8086880944303));
#810=VECTOR('',#811,1.);
#811=DIRECTION('',(0.78086880944303,0.,-0.624695047554424));
#812=CARTESIAN_POINT('',(66.4921894064179,25.,-2.53254042669707E-15));
#813=AXIS2_PLACEMENT_3D('',#814,#815,#816);
#814=CARTESIAN_POINT('',(66.4921894064179,25.,10.));
#815=DIRECTION('',(0.,1.,6.12323399573677E-17));
#816=DIRECTION('',(0.624695047554429,-4.78144244019204E-17,0.780868809443027));
#817=CARTESIAN_POINT('',(-35.439701325243,25.,1.23901749777498E-16));
#818=CARTESIAN_POINT('',(66.4921894064179,25.,-1.97215226305253E-31));
#819=VECTOR('',#820,1.);
#820=DIRECTION('',(-1.,0.,-3.86954906633545E-33));
#821=CARTESIAN_POINT('',(-44.7731573872736,25.,13.5897907930887));
#822=AXIS2_PLACEMENT_3D('',#823,#824,#825);
#823=CARTESIAN_POINT('',(-35.439701325243,25.,10.));
#824=DIRECTION('',(0.,1.,6.12323399573677E-17));
#825=DIRECTION('',(2.1316282072803E-15,6.12323399573677E-17,-1.));
#826=CARTESIAN_POINT('',(-44.7731573872736,25.,13.5897907930887));
#827=VECTOR('',#828,1.);
#828=DIRECTION('',(0.358979079308869,-1.03622178193936E-16,0.93334560620306));
#829=CARTESIAN_POINT('',(-29.6654282609721,25.,44.5128535551621));
#830=AXIS2_PLACEMENT_3D('',#831,#832,#833);
#831=CARTESIAN_POINT('',(-23.1320090175507,25.,42.));
#832=DIRECTION('',(0.,1.,6.12323399573677E-17));
#833=DIRECTION('',(-0.933345606203059,-2.19811290218236E-17,0.35897907930887));
#834=CARTESIAN_POINT('',(-41.9731205686644,25.,12.5128535551621));
#835=CARTESIAN_POINT('',(-41.9731205686644,25.,12.5128535551621));
#836=VECTOR('',#837,1.);
#837=DIRECTION('',(0.358979079308869,-1.03622178193936E-16,0.93334560620306));
#838=CARTESIAN_POINT('',(-35.439701325243,25.,3.));
#839=AXIS2_PLACEMENT_3D('',#840,#841,#842);
#840=CARTESIAN_POINT('',(-35.439701325243,25.,10.));
#841=DIRECTION('',(0.,1.,6.12323399573677E-17));
#842=DIRECTION('',(0.,6.12323399573677E-17,-1.));
#843=CARTESIAN_POINT('',(66.4921894064179,25.,3.));
#844=CARTESIAN_POINT('',(66.4921894064179,25.,3.));
#845=VECTOR('',#846,1.);
#846=DIRECTION('',(-1.,0.,0.));
#847=CARTESIAN_POINT('',(70.8650547392989,25.,15.4660816661012));
#848=AXIS2_PLACEMENT_3D('',#849,#850,#851);
#849=CARTESIAN_POINT('',(66.4921894064179,25.,10.));
#850=DIRECTION('',(0.,1.,6.12323399573677E-17));
#851=DIRECTION('',(0.624695047554427,-4.78144244019205E-17,0.780868809443029));
#852=CARTESIAN_POINT('',(30.8650547392988,25.,47.4660816661012));
#853=CARTESIAN_POINT('',(30.8650547392988,25.,47.4660816661012));
#854=VECTOR('',#855,1.);
#855=DIRECTION('',(0.78086880944303,6.93550825164229E-17,-0.624695047554424));
#856=AXIS2_PLACEMENT_3D('',#857,#858,#859);
#857=CARTESIAN_POINT('',(26.4921894064179,25.,42.));
#858=DIRECTION('',(0.,1.,6.12323399573677E-17));
#859=DIRECTION('',(5.07530525542928E-16,-6.12323399573677E-17,1.));
#860=CARTESIAN_POINT('',(-29.6654282609721,-25.,44.5128535551621));
#861=VECTOR('',#862,1.);
#862=DIRECTION('',(7.105427357601E-17,1.,1.4210854715202E-16));
#863=CARTESIAN_POINT('',(30.8650547392988,-25.,47.4660816661012));
#864=VECTOR('',#865,1.);
#865=DIRECTION('',(0.,1.,0.));
#866=CARTESIAN_POINT('',(-44.7731573872736,-25.,13.5897907930887));
#867=VECTOR('',#868,1.);
#868=DIRECTION('',(0.,1.,7.105427357601E-17));
#869=CARTESIAN_POINT('',(-35.439701325243,-25.,-2.41898691863432E-15));
#870=VECTOR('',#871,1.);
#871=DIRECTION('',(0.,1.,4.83797383726863E-17));
#872=CARTESIAN_POINT('',(66.4921894064179,-25.,-2.41898691863432E-15));
#873=VECTOR('',#874,1.);
#874=DIRECTION('',(2.8421709430404E-16,1.,3.06161699786838E-17));
#875=CARTESIAN_POINT('',(72.7391398819621,-25.,17.8086880944303));
#876=VECTOR('',#877,1.);
#877=DIRECTION('',(0.,1.,0.));
#878=CARTESIAN_POINT('',(70.8650547392988,-25.,15.4660816661012));
#879=VECTOR('',#880,1.);
#880=DIRECTION('',(2.8421709430404E-16,1.,0.));
#881=CARTESIAN_POINT('',(66.4921894064179,-25.,3.));
#882=VECTOR('',#883,1.);
#883=DIRECTION('',(2.8421709430404E-16,1.,4.44089209850063E-17));
#884=CARTESIAN_POINT('',(-35.439701325243,-25.,3.));
#885=VECTOR('',#886,1.);
#886=DIRECTION('',(0.,1.,6.21724893790088E-17));
#887=CARTESIAN_POINT('',(-41.9731205686644,-25.,12.5128535551621));
#888=VECTOR('',#889,1.);
#889=DIRECTION('',(0.,1.,7.105427357601E-17));
ENDSEC;
END-ISO-10303-21;
