ISO-10303-21;
HEADER;
/* Generated by software containing ST-Developer
 * from STEP Tools, Inc. (www.steptools.com) 
 */
/* OPTION: using custom renumber hook */

FILE_DESCRIPTION(
/* description */ (
'CAx-IF Rec.Pracs.---Representation and Presentation of Product Manufa
cturing Information (PMI)---4.0---2014-10-13',
'CAx-IF Rec.Pracs.---3D Tessellated Geometry---0.4---2014-09-14','2;1'),

/* implementation_level */ '2;1');

FILE_NAME(
/* name */ 'fnirsi_oscilloscope',
/* time_stamp */ '2026-04-02T15:26:12+05:00',
/* author */ (''),
/* organization */ (''),
/* preprocessor_version */ 'ST-DEVELOPER v19.4',
/* originating_system */ 'SIEMENS PLM Software NX2212.9160',
/* authorisation */ $);

FILE_SCHEMA (('AP242_MANAGED_MODEL_BASED_3D_ENGINEERING_MIM_LF { 1 0 10303 442 3 1 4 }'));
ENDSEC;

DATA;
#10=DEFAULT_MODEL_GEOMETRIC_VIEW('','',#53,#27,'','',#1235,*);
#11=MECHANICAL_DESIGN_AND_DRAUGHTING_RELATIONSHIP('','',#19,#20);
#12=MECHANICAL_DESIGN_AND_DRAUGHTING_RELATIONSHIP('','',#21,#20);
#13=MECHANICAL_DESIGN_AND_DRAUGHTING_RELATIONSHIP('','',#22,#20);
#14=MECHANICAL_DESIGN_AND_DRAUGHTING_RELATIONSHIP('','',#23,#20);
#15=MECHANICAL_DESIGN_AND_DRAUGHTING_RELATIONSHIP('','',#24,#20);
#16=MECHANICAL_DESIGN_AND_DRAUGHTING_RELATIONSHIP('','',#25,#20);
#17=MECHANICAL_DESIGN_AND_DRAUGHTING_RELATIONSHIP('','',#26,#20);
#18=MECHANICAL_DESIGN_AND_DRAUGHTING_RELATIONSHIP('','',#27,#20);
#19=DRAUGHTING_MODEL('Top',(#46,#37),#1230);
#20=DRAUGHTING_MODEL('',(#38),#1230);
#21=DRAUGHTING_MODEL('Front',(#47,#39),#1230);
#22=DRAUGHTING_MODEL('Right',(#48,#40),#1230);
#23=DRAUGHTING_MODEL('Back',(#49,#41),#1230);
#24=DRAUGHTING_MODEL('Bottom',(#50,#42),#1230);
#25=DRAUGHTING_MODEL('Left',(#51,#43),#1230);
#26=DRAUGHTING_MODEL('Isometric',(#52,#44),#1230);
#27=DRAUGHTING_MODEL('Trimetric',(#53,#45),#1230);
#28=REPRESENTATION_MAP(#561,#70);
#29=REPRESENTATION_MAP(#561,#70);
#30=REPRESENTATION_MAP(#561,#70);
#31=REPRESENTATION_MAP(#561,#70);
#32=REPRESENTATION_MAP(#561,#70);
#33=REPRESENTATION_MAP(#561,#70);
#34=REPRESENTATION_MAP(#561,#70);
#35=REPRESENTATION_MAP(#561,#70);
#36=REPRESENTATION_MAP(#561,#70);
#37=MAPPED_ITEM('',#28,#561);
#38=MAPPED_ITEM('',#29,#561);
#39=MAPPED_ITEM('',#30,#561);
#40=MAPPED_ITEM('',#31,#561);
#41=MAPPED_ITEM('',#32,#561);
#42=MAPPED_ITEM('',#33,#561);
#43=MAPPED_ITEM('',#34,#561);
#44=MAPPED_ITEM('',#35,#561);
#45=MAPPED_ITEM('',#36,#561);
#46=CAMERA_MODEL_D3('Top',#591,#54);
#47=CAMERA_MODEL_D3('Front',#593,#55);
#48=CAMERA_MODEL_D3('Right',#595,#56);
#49=CAMERA_MODEL_D3('Back',#597,#57);
#50=CAMERA_MODEL_D3('Bottom',#599,#58);
#51=CAMERA_MODEL_D3('Left',#601,#59);
#52=CAMERA_MODEL_D3('Isometric',#603,#60);
#53=CAMERA_MODEL_D3('Trimetric',#605,#61);
#54=VIEW_VOLUME(.PARALLEL.,#1206,197.874954223633,0.,.F.,0.,.F.,.F.,#62);
#55=VIEW_VOLUME(.PARALLEL.,#1209,65.1394119262695,0.,.F.,0.,.F.,.F.,#63);
#56=VIEW_VOLUME(.PARALLEL.,#1212,105.089027404785,0.,.F.,0.,.F.,.F.,#64);
#57=VIEW_VOLUME(.PARALLEL.,#1215,65.1394119262695,0.,.F.,0.,.F.,.F.,#65);
#58=VIEW_VOLUME(.PARALLEL.,#1218,197.874954223633,0.,.F.,0.,.F.,.F.,#66);
#59=VIEW_VOLUME(.PARALLEL.,#1221,105.089027404785,0.,.F.,0.,.F.,.F.,#67);
#60=VIEW_VOLUME(.PARALLEL.,#1224,158.055516642697,0.,.F.,0.,.F.,.F.,#68);
#61=VIEW_VOLUME(.PARALLEL.,#1227,121.184186213627,0.,.F.,0.,.F.,.F.,#69);
#62=PLANAR_BOX('',98.6715340968781,98.6715340968781,#592);
#63=PLANAR_BOX('',32.4821588975299,32.4821588975299,#594);
#64=PLANAR_BOX('',52.4032745400407,52.4032745400407,#596);
#65=PLANAR_BOX('',32.4821588975299,32.4821588975299,#598);
#66=PLANAR_BOX('',98.6715340968781,98.6715340968781,#600);
#67=PLANAR_BOX('',52.4032745400407,52.4032745400407,#602);
#68=PLANAR_BOX('',78.8153324446703,78.8153324446703,#604);
#69=PLANAR_BOX('',60.4292221261431,60.4292221261431,#606);
#70=ADVANCED_BREP_SHAPE_REPRESENTATION('',(#333),#1230);
#71=B_SPLINE_SURFACE_WITH_KNOTS('',3,3,((#909,#910,#911,#912),(#913,#914,
#915,#916),(#917,#918,#919,#920),(#921,#922,#923,#924),(#925,#926,#927,
#928),(#929,#930,#931,#932),(#933,#934,#935,#936),(#937,#938,#939,#940),
(#941,#942,#943,#944),(#945,#946,#947,#948),(#949,#950,#951,#952),(#953,
#954,#955,#956),(#957,#958,#959,#960),(#961,#962,#963,#964),(#965,#966,
#967,#968),(#969,#970,#971,#972),(#973,#974,#975,#976),(#977,#978,#979,
#980),(#981,#982,#983,#984),(#985,#986,#987,#988),(#989,#990,#991,#992),
(#993,#994,#995,#996),(#997,#998,#999,#1000),(#1001,#1002,#1003,#1004),
(#1005,#1006,#1007,#1008),(#1009,#1010,#1011,#1012),(#1013,#1014,#1015,
#1016),(#1017,#1018,#1019,#1020),(#1021,#1022,#1023,#1024)),
 .RULED_SURF.,.F.,.F.,.F.,(4,1,1,1,1,1,1,1,1,1,1,1,1,1,1,1,1,1,1,1,1,1,
1,1,1,1,4),(4,4),(0.,0.0009765625,0.001953125,0.00390625,0.0078125,0.015625,
0.03125,0.0625,0.125,0.25,0.375,0.40625,0.421875,0.423828125,0.42578125,
0.42626953125,0.4267578125,0.427001953125,0.42724609375,0.427734375,0.4296875,
0.4375,0.46875,0.5,0.625,0.75,1.),(0.,1.),.UNSPECIFIED.);
#72=B_SPLINE_SURFACE_WITH_KNOTS('',3,3,((#1093,#1094,#1095,#1096),(#1097,
#1098,#1099,#1100),(#1101,#1102,#1103,#1104),(#1105,#1106,#1107,#1108),
(#1109,#1110,#1111,#1112),(#1113,#1114,#1115,#1116),(#1117,#1118,#1119,
#1120),(#1121,#1122,#1123,#1124),(#1125,#1126,#1127,#1128),(#1129,#1130,
#1131,#1132),(#1133,#1134,#1135,#1136),(#1137,#1138,#1139,#1140),(#1141,
#1142,#1143,#1144),(#1145,#1146,#1147,#1148),(#1149,#1150,#1151,#1152),
(#1153,#1154,#1155,#1156),(#1157,#1158,#1159,#1160),(#1161,#1162,#1163,
#1164),(#1165,#1166,#1167,#1168),(#1169,#1170,#1171,#1172),(#1173,#1174,
#1175,#1176),(#1177,#1178,#1179,#1180),(#1181,#1182,#1183,#1184),(#1185,
#1186,#1187,#1188),(#1189,#1190,#1191,#1192),(#1193,#1194,#1195,#1196),
(#1197,#1198,#1199,#1200),(#1201,#1202,#1203,#1204)),.RULED_SURF.,.F.,.F.,
 .F.,(4,1,1,1,1,1,1,1,1,1,1,1,1,1,1,1,1,1,1,1,1,1,1,1,1,4),(4,4),(0.,0.25,
0.375,0.40625,0.421875,0.423828125,0.42578125,0.42626953125,0.4267578125,
0.427001953125,0.42724609375,0.427734375,0.4296875,0.4375,0.5,0.625,0.75,
0.875,0.9375,0.96875,0.984375,0.9921875,0.99609375,0.998046875,0.9990234375,
1.),(0.,1.),.UNSPECIFIED.);
#73=CYLINDRICAL_SURFACE('',#583,4.9999999999989);
#74=CYLINDRICAL_SURFACE('',#586,8.);
#75=CYLINDRICAL_SURFACE('',#587,8.);
#76=CYLINDRICAL_SURFACE('',#588,8.);
#77=CYLINDRICAL_SURFACE('',#589,8.);
#78=B_SPLINE_CURVE_WITH_KNOTS('',3,(#786,#787,#788,#789,#790,#791,#792,
#793,#794,#795,#796,#797,#798,#799,#800,#801,#802,#803,#804,#805,#806,#807,
#808,#809,#810,#811,#812,#813),.UNSPECIFIED.,.F.,.F.,(4,1,1,1,1,1,1,1,1,
1,1,1,1,1,1,1,1,1,1,1,1,1,1,1,1,4),(0.,0.25,0.375,0.40625,0.421875,0.423828125,
0.42578125,0.42626953125,0.4267578125,0.427001953125,0.42724609375,0.427734375,
0.4296875,0.4375,0.5,0.625,0.75,0.875,0.9375,0.96875,0.984375,0.9921875,
0.99609375,0.998046875,0.9990234375,1.),.UNSPECIFIED.);
#79=B_SPLINE_CURVE_WITH_KNOTS('',3,(#816,#817,#818,#819,#820,#821,#822,
#823,#824,#825,#826,#827,#828,#829,#830,#831,#832,#833,#834,#835,#836,#837,
#838,#839,#840,#841,#842,#843,#844),.UNSPECIFIED.,.F.,.F.,(4,1,1,1,1,1,
1,1,1,1,1,1,1,1,1,1,1,1,1,1,1,1,1,1,1,1,4),(0.,0.0009765625,0.001953125,
0.00390625,0.0078125,0.015625,0.03125,0.0625,0.125,0.25,0.375,0.40625,0.421875,
0.423828125,0.42578125,0.42626953125,0.4267578125,0.427001953125,0.42724609375,
0.427734375,0.4296875,0.4375,0.46875,0.5,0.625,0.75,1.),.UNSPECIFIED.);
#80=B_SPLINE_CURVE_WITH_KNOTS('',3,(#1025,#1026,#1027,#1028,#1029,#1030,
#1031,#1032,#1033,#1034,#1035,#1036,#1037,#1038,#1039,#1040,#1041,#1042,
#1043,#1044,#1045,#1046,#1047,#1048,#1049,#1050,#1051,#1052,#1053),
 .UNSPECIFIED.,.F.,.F.,(4,1,1,1,1,1,1,1,1,1,1,1,1,1,1,1,1,1,1,1,1,1,1,1,
1,1,4),(0.,0.0009765625,0.001953125,0.00390625,0.0078125,0.015625,0.03125,
0.0625,0.125,0.25,0.375,0.40625,0.421875,0.423828125,0.42578125,0.42626953125,
0.4267578125,0.427001953125,0.42724609375,0.427734375,0.4296875,0.4375,
0.46875,0.5,0.625,0.75,1.),.UNSPECIFIED.);
#81=B_SPLINE_CURVE_WITH_KNOTS('',3,(#1056,#1057,#1058,#1059),
 .UNSPECIFIED.,.F.,.F.,(4,4),(0.,1.),.PIECEWISE_BEZIER_KNOTS.);
#82=B_SPLINE_CURVE_WITH_KNOTS('',3,(#1060,#1061,#1062,#1063),
 .UNSPECIFIED.,.F.,.F.,(4,4),(0.,1.),.PIECEWISE_BEZIER_KNOTS.);
#83=B_SPLINE_CURVE_WITH_KNOTS('',3,(#1065,#1066,#1067,#1068,#1069,#1070,
#1071,#1072,#1073,#1074,#1075,#1076,#1077,#1078,#1079,#1080,#1081,#1082,
#1083,#1084,#1085,#1086,#1087,#1088,#1089,#1090,#1091,#1092),
 .UNSPECIFIED.,.F.,.F.,(4,1,1,1,1,1,1,1,1,1,1,1,1,1,1,1,1,1,1,1,1,1,1,1,
1,4),(0.,0.25,0.375,0.40625,0.421875,0.423828125,0.42578125,0.42626953125,
0.4267578125,0.427001953125,0.42724609375,0.427734375,0.4296875,0.4375,
0.5,0.625,0.75,0.875,0.9375,0.96875,0.984375,0.9921875,0.99609375,0.998046875,
0.9990234375,1.),.UNSPECIFIED.);
#84=ORIENTED_EDGE('',*,*,#172,.T.);
#85=ORIENTED_EDGE('',*,*,#173,.T.);
#86=ORIENTED_EDGE('',*,*,#174,.T.);
#87=ORIENTED_EDGE('',*,*,#175,.T.);
#88=ORIENTED_EDGE('',*,*,#176,.T.);
#89=ORIENTED_EDGE('',*,*,#177,.T.);
#90=ORIENTED_EDGE('',*,*,#178,.T.);
#91=ORIENTED_EDGE('',*,*,#179,.T.);
#92=ORIENTED_EDGE('',*,*,#180,.F.);
#93=ORIENTED_EDGE('',*,*,#181,.F.);
#94=ORIENTED_EDGE('',*,*,#182,.T.);
#95=ORIENTED_EDGE('',*,*,#183,.T.);
#96=ORIENTED_EDGE('',*,*,#172,.F.);
#97=ORIENTED_EDGE('',*,*,#184,.T.);
#98=ORIENTED_EDGE('',*,*,#185,.F.);
#99=ORIENTED_EDGE('',*,*,#186,.F.);
#100=ORIENTED_EDGE('',*,*,#187,.F.);
#101=ORIENTED_EDGE('',*,*,#188,.F.);
#102=ORIENTED_EDGE('',*,*,#178,.F.);
#103=ORIENTED_EDGE('',*,*,#189,.T.);
#104=ORIENTED_EDGE('',*,*,#190,.T.);
#105=ORIENTED_EDGE('',*,*,#191,.T.);
#106=ORIENTED_EDGE('',*,*,#174,.F.);
#107=ORIENTED_EDGE('',*,*,#192,.T.);
#108=ORIENTED_EDGE('',*,*,#193,.T.);
#109=ORIENTED_EDGE('',*,*,#194,.T.);
#110=ORIENTED_EDGE('',*,*,#195,.F.);
#111=ORIENTED_EDGE('',*,*,#176,.F.);
#112=ORIENTED_EDGE('',*,*,#196,.T.);
#113=ORIENTED_EDGE('',*,*,#197,.T.);
#114=ORIENTED_EDGE('',*,*,#198,.T.);
#115=ORIENTED_EDGE('',*,*,#193,.F.);
#116=ORIENTED_EDGE('',*,*,#199,.T.);
#117=ORIENTED_EDGE('',*,*,#182,.F.);
#118=ORIENTED_EDGE('',*,*,#200,.T.);
#119=ORIENTED_EDGE('',*,*,#190,.F.);
#120=ORIENTED_EDGE('',*,*,#201,.T.);
#121=ORIENTED_EDGE('',*,*,#197,.F.);
#122=ORIENTED_EDGE('',*,*,#202,.T.);
#123=ORIENTED_EDGE('',*,*,#185,.T.);
#124=ORIENTED_EDGE('',*,*,#203,.F.);
#125=ORIENTED_EDGE('',*,*,#204,.F.);
#126=ORIENTED_EDGE('',*,*,#205,.T.);
#127=ORIENTED_EDGE('',*,*,#188,.T.);
#128=ORIENTED_EDGE('',*,*,#206,.F.);
#129=ORIENTED_EDGE('',*,*,#207,.F.);
#130=ORIENTED_EDGE('',*,*,#203,.T.);
#131=ORIENTED_EDGE('',*,*,#187,.T.);
#132=ORIENTED_EDGE('',*,*,#208,.F.);
#133=ORIENTED_EDGE('',*,*,#209,.F.);
#134=ORIENTED_EDGE('',*,*,#206,.T.);
#135=ORIENTED_EDGE('',*,*,#186,.T.);
#136=ORIENTED_EDGE('',*,*,#205,.F.);
#137=ORIENTED_EDGE('',*,*,#210,.F.);
#138=ORIENTED_EDGE('',*,*,#208,.T.);
#139=ORIENTED_EDGE('',*,*,#204,.T.);
#140=ORIENTED_EDGE('',*,*,#207,.T.);
#141=ORIENTED_EDGE('',*,*,#209,.T.);
#142=ORIENTED_EDGE('',*,*,#210,.T.);
#143=ORIENTED_EDGE('',*,*,#211,.F.);
#144=ORIENTED_EDGE('',*,*,#195,.T.);
#145=ORIENTED_EDGE('',*,*,#211,.T.);
#146=ORIENTED_EDGE('',*,*,#173,.F.);
#147=ORIENTED_EDGE('',*,*,#183,.F.);
#148=ORIENTED_EDGE('',*,*,#199,.F.);
#149=ORIENTED_EDGE('',*,*,#192,.F.);
#150=ORIENTED_EDGE('',*,*,#175,.F.);
#151=ORIENTED_EDGE('',*,*,#194,.F.);
#152=ORIENTED_EDGE('',*,*,#202,.F.);
#153=ORIENTED_EDGE('',*,*,#196,.F.);
#154=ORIENTED_EDGE('',*,*,#177,.F.);
#155=ORIENTED_EDGE('',*,*,#198,.F.);
#156=ORIENTED_EDGE('',*,*,#201,.F.);
#157=ORIENTED_EDGE('',*,*,#189,.F.);
#158=ORIENTED_EDGE('',*,*,#179,.F.);
#159=ORIENTED_EDGE('',*,*,#191,.F.);
#160=ORIENTED_EDGE('',*,*,#200,.F.);
#161=ORIENTED_EDGE('',*,*,#184,.F.);
#162=ORIENTED_EDGE('',*,*,#212,.F.);
#163=ORIENTED_EDGE('',*,*,#213,.T.);
#164=ORIENTED_EDGE('',*,*,#181,.T.);
#165=ORIENTED_EDGE('',*,*,#214,.T.);
#166=ORIENTED_EDGE('',*,*,#215,.T.);
#167=ORIENTED_EDGE('',*,*,#212,.T.);
#168=ORIENTED_EDGE('',*,*,#215,.F.);
#169=ORIENTED_EDGE('',*,*,#214,.F.);
#170=ORIENTED_EDGE('',*,*,#180,.T.);
#171=ORIENTED_EDGE('',*,*,#213,.F.);
#172=EDGE_CURVE('',#216,#217,#477,.T.);
#173=EDGE_CURVE('',#217,#218,#335,.T.);
#174=EDGE_CURVE('',#218,#219,#478,.T.);
#175=EDGE_CURVE('',#219,#220,#336,.T.);
#176=EDGE_CURVE('',#220,#221,#479,.T.);
#177=EDGE_CURVE('',#221,#222,#337,.T.);
#178=EDGE_CURVE('',#222,#223,#480,.T.);
#179=EDGE_CURVE('',#223,#216,#338,.T.);
#180=EDGE_CURVE('',#224,#225,#78,.F.);
#181=EDGE_CURVE('',#225,#224,#79,.F.);
#182=EDGE_CURVE('',#226,#227,#481,.T.);
#183=EDGE_CURVE('',#227,#217,#482,.F.);
#184=EDGE_CURVE('',#216,#226,#483,.T.);
#185=EDGE_CURVE('',#228,#229,#484,.T.);
#186=EDGE_CURVE('',#230,#228,#485,.T.);
#187=EDGE_CURVE('',#231,#230,#486,.T.);
#188=EDGE_CURVE('',#229,#231,#487,.T.);
#189=EDGE_CURVE('',#222,#232,#488,.T.);
#190=EDGE_CURVE('',#232,#233,#489,.T.);
#191=EDGE_CURVE('',#233,#223,#490,.F.);
#192=EDGE_CURVE('',#218,#234,#491,.T.);
#193=EDGE_CURVE('',#234,#235,#492,.T.);
#194=EDGE_CURVE('',#235,#219,#493,.F.);
#195=EDGE_CURVE('',#236,#236,#339,.T.);
#196=EDGE_CURVE('',#220,#237,#494,.T.);
#197=EDGE_CURVE('',#237,#238,#495,.T.);
#198=EDGE_CURVE('',#238,#221,#496,.F.);
#199=EDGE_CURVE('',#234,#227,#340,.F.);
#200=EDGE_CURVE('',#226,#233,#341,.F.);
#201=EDGE_CURVE('',#232,#238,#342,.F.);
#202=EDGE_CURVE('',#237,#235,#343,.F.);
#203=EDGE_CURVE('',#239,#229,#497,.T.);
#204=EDGE_CURVE('',#240,#239,#498,.T.);
#205=EDGE_CURVE('',#240,#228,#499,.T.);
#206=EDGE_CURVE('',#241,#231,#500,.T.);
#207=EDGE_CURVE('',#239,#241,#501,.T.);
#208=EDGE_CURVE('',#242,#230,#502,.T.);
#209=EDGE_CURVE('',#241,#242,#503,.T.);
#210=EDGE_CURVE('',#242,#240,#504,.T.);
#211=EDGE_CURVE('',#243,#243,#344,.T.);
#212=EDGE_CURVE('',#244,#245,#80,.F.);
#213=EDGE_CURVE('',#244,#225,#81,.T.);
#214=EDGE_CURVE('',#224,#245,#82,.F.);
#215=EDGE_CURVE('',#245,#244,#83,.F.);
#216=VERTEX_POINT('',#771);
#217=VERTEX_POINT('',#772);
#218=VERTEX_POINT('',#774);
#219=VERTEX_POINT('',#776);
#220=VERTEX_POINT('',#778);
#221=VERTEX_POINT('',#780);
#222=VERTEX_POINT('',#782);
#223=VERTEX_POINT('',#784);
#224=VERTEX_POINT('',#814);
#225=VERTEX_POINT('',#815);
#226=VERTEX_POINT('',#847);
#227=VERTEX_POINT('',#848);
#228=VERTEX_POINT('',#852);
#229=VERTEX_POINT('',#853);
#230=VERTEX_POINT('',#855);
#231=VERTEX_POINT('',#857);
#232=VERTEX_POINT('',#861);
#233=VERTEX_POINT('',#863);
#234=VERTEX_POINT('',#867);
#235=VERTEX_POINT('',#869);
#236=VERTEX_POINT('',#873);
#237=VERTEX_POINT('',#875);
#238=VERTEX_POINT('',#877);
#239=VERTEX_POINT('',#886);
#240=VERTEX_POINT('',#888);
#241=VERTEX_POINT('',#892);
#242=VERTEX_POINT('',#896);
#243=VERTEX_POINT('',#903);
#244=VERTEX_POINT('',#1054);
#245=VERTEX_POINT('',#1055);
#246=EDGE_LOOP('',(#84,#85,#86,#87,#88,#89,#90,#91));
#247=EDGE_LOOP('',(#92,#93));
#248=EDGE_LOOP('',(#94,#95,#96,#97));
#249=EDGE_LOOP('',(#98,#99,#100,#101));
#250=EDGE_LOOP('',(#102,#103,#104,#105));
#251=EDGE_LOOP('',(#106,#107,#108,#109));
#252=EDGE_LOOP('',(#110));
#253=EDGE_LOOP('',(#111,#112,#113,#114));
#254=EDGE_LOOP('',(#115,#116,#117,#118,#119,#120,#121,#122));
#255=EDGE_LOOP('',(#123,#124,#125,#126));
#256=EDGE_LOOP('',(#127,#128,#129,#130));
#257=EDGE_LOOP('',(#131,#132,#133,#134));
#258=EDGE_LOOP('',(#135,#136,#137,#138));
#259=EDGE_LOOP('',(#139,#140,#141,#142));
#260=EDGE_LOOP('',(#143));
#261=EDGE_LOOP('',(#144));
#262=EDGE_LOOP('',(#145));
#263=EDGE_LOOP('',(#146,#147,#148,#149));
#264=EDGE_LOOP('',(#150,#151,#152,#153));
#265=EDGE_LOOP('',(#154,#155,#156,#157));
#266=EDGE_LOOP('',(#158,#159,#160,#161));
#267=EDGE_LOOP('',(#162,#163,#164,#165));
#268=EDGE_LOOP('',(#166,#167));
#269=EDGE_LOOP('',(#168,#169,#170,#171));
#270=FACE_BOUND('',#246,.T.);
#271=FACE_BOUND('',#247,.T.);
#272=FACE_BOUND('',#248,.T.);
#273=FACE_BOUND('',#249,.T.);
#274=FACE_BOUND('',#250,.T.);
#275=FACE_BOUND('',#251,.T.);
#276=FACE_BOUND('',#252,.T.);
#277=FACE_BOUND('',#253,.T.);
#278=FACE_BOUND('',#254,.T.);
#279=FACE_BOUND('',#255,.T.);
#280=FACE_BOUND('',#256,.T.);
#281=FACE_BOUND('',#257,.T.);
#282=FACE_BOUND('',#258,.T.);
#283=FACE_BOUND('',#259,.T.);
#284=FACE_BOUND('',#260,.T.);
#285=FACE_BOUND('',#261,.T.);
#286=FACE_BOUND('',#262,.T.);
#287=FACE_BOUND('',#263,.T.);
#288=FACE_BOUND('',#264,.T.);
#289=FACE_BOUND('',#265,.T.);
#290=FACE_BOUND('',#266,.T.);
#291=FACE_BOUND('',#267,.T.);
#292=FACE_BOUND('',#268,.T.);
#293=FACE_BOUND('',#269,.T.);
#294=PLANE('',#563);
#295=PLANE('',#568);
#296=PLANE('',#569);
#297=PLANE('',#570);
#298=PLANE('',#571);
#299=PLANE('',#573);
#300=PLANE('',#578);
#301=PLANE('',#579);
#302=PLANE('',#580);
#303=PLANE('',#581);
#304=PLANE('',#582);
#305=PLANE('',#585);
#306=PLANE('',#590);
#307=ADVANCED_FACE('',(#270,#271),#294,.T.);
#308=ADVANCED_FACE('',(#272,#273),#295,.F.);
#309=ADVANCED_FACE('',(#274),#296,.F.);
#310=ADVANCED_FACE('',(#275),#297,.F.);
#311=ADVANCED_FACE('',(#276,#277),#298,.F.);
#312=ADVANCED_FACE('',(#278),#299,.F.);
#313=ADVANCED_FACE('',(#279),#300,.F.);
#314=ADVANCED_FACE('',(#280),#301,.F.);
#315=ADVANCED_FACE('',(#281),#302,.F.);
#316=ADVANCED_FACE('',(#282),#303,.F.);
#317=ADVANCED_FACE('',(#283),#304,.T.);
#318=ADVANCED_FACE('',(#284,#285),#73,.T.);
#319=ADVANCED_FACE('',(#286),#305,.T.);
#320=ADVANCED_FACE('',(#287),#74,.T.);
#321=ADVANCED_FACE('',(#288),#75,.T.);
#322=ADVANCED_FACE('',(#289),#76,.T.);
#323=ADVANCED_FACE('',(#290),#77,.T.);
#324=ADVANCED_FACE('',(#291),#71,.T.);
#325=ADVANCED_FACE('',(#292),#306,.F.);
#326=ADVANCED_FACE('',(#293),#72,.T.);
#327=CLOSED_SHELL('',(#307,#308,#309,#310,#311,#312,#313,#314,#315,#316,
#317,#318,#319,#320,#321,#322,#323,#324,#325,#326));
#328=SURFACE_STYLE_USAGE(.BOTH.,#329);
#329=SURFACE_SIDE_STYLE('',(#330));
#330=SURFACE_STYLE_FILL_AREA(#331);
#331=FILL_AREA_STYLE('',(#332));
#332=FILL_AREA_STYLE_COLOUR('',#414);
#333=MANIFOLD_SOLID_BREP('Extrude (2)',#327);
#334=CIRCLE('',#562,4.9999999999989);
#335=CIRCLE('',#564,8.);
#336=CIRCLE('',#565,8.);
#337=CIRCLE('',#566,8.);
#338=CIRCLE('',#567,8.);
#339=CIRCLE('',#572,4.9999999999989);
#340=CIRCLE('',#574,8.);
#341=CIRCLE('',#575,8.);
#342=CIRCLE('',#576,8.);
#343=CIRCLE('',#577,8.);
#344=CIRCLE('',#584,4.9999999999989);
#345=SHAPE_REPRESENTATION_RELATIONSHIP('','',#560,#347);
#346=SHAPE_REPRESENTATION_RELATIONSHIP('','',#560,#70);
#347=GEOMETRICALLY_BOUNDED_WIREFRAME_SHAPE_REPRESENTATION('',(#553,#554,
#555,#556,#557,#558),#1230);
#348=STYLED_ITEM('',(#370),#436);
#349=STYLED_ITEM('',(#371),#437);
#350=STYLED_ITEM('',(#372),#438);
#351=STYLED_ITEM('',(#373),#439);
#352=STYLED_ITEM('',(#374),#440);
#353=STYLED_ITEM('',(#375),#441);
#354=STYLED_ITEM('',(#376),#442);
#355=STYLED_ITEM('',(#377),#443);
#356=STYLED_ITEM('',(#378),#444);
#357=STYLED_ITEM('',(#379),#445);
#358=STYLED_ITEM('',(#380),#446);
#359=STYLED_ITEM('',(#381),#447);
#360=STYLED_ITEM('',(#382),#448);
#361=STYLED_ITEM('',(#383),#449);
#362=STYLED_ITEM('',(#384),#450);
#363=STYLED_ITEM('',(#385),#451);
#364=STYLED_ITEM('',(#386),#452);
#365=STYLED_ITEM('',(#387),#453);
#366=STYLED_ITEM('',(#388),#454);
#367=STYLED_ITEM('',(#389),#455);
#368=STYLED_ITEM('',(#390),#456);
#369=STYLED_ITEM('',(#391),#333);
#370=PRESENTATION_STYLE_ASSIGNMENT((#392));
#371=PRESENTATION_STYLE_ASSIGNMENT((#393));
#372=PRESENTATION_STYLE_ASSIGNMENT((#394));
#373=PRESENTATION_STYLE_ASSIGNMENT((#395));
#374=PRESENTATION_STYLE_ASSIGNMENT((#396));
#375=PRESENTATION_STYLE_ASSIGNMENT((#397));
#376=PRESENTATION_STYLE_ASSIGNMENT((#398));
#377=PRESENTATION_STYLE_ASSIGNMENT((#399));
#378=PRESENTATION_STYLE_ASSIGNMENT((#400));
#379=PRESENTATION_STYLE_ASSIGNMENT((#401));
#380=PRESENTATION_STYLE_ASSIGNMENT((#402));
#381=PRESENTATION_STYLE_ASSIGNMENT((#403));
#382=PRESENTATION_STYLE_ASSIGNMENT((#404));
#383=PRESENTATION_STYLE_ASSIGNMENT((#405));
#384=PRESENTATION_STYLE_ASSIGNMENT((#406));
#385=PRESENTATION_STYLE_ASSIGNMENT((#407));
#386=PRESENTATION_STYLE_ASSIGNMENT((#408));
#387=PRESENTATION_STYLE_ASSIGNMENT((#409));
#388=PRESENTATION_STYLE_ASSIGNMENT((#410));
#389=PRESENTATION_STYLE_ASSIGNMENT((#411));
#390=PRESENTATION_STYLE_ASSIGNMENT((#412));
#391=PRESENTATION_STYLE_ASSIGNMENT((#328));
#392=CURVE_STYLE('',#415,POSITIVE_LENGTH_MEASURE(0.705555555555555),#413);
#393=CURVE_STYLE('',#416,POSITIVE_LENGTH_MEASURE(0.705555555555555),#413);
#394=CURVE_STYLE('',#417,POSITIVE_LENGTH_MEASURE(0.705555555555555),#413);
#395=CURVE_STYLE('',#418,POSITIVE_LENGTH_MEASURE(0.705555555555555),#413);
#396=CURVE_STYLE('',#419,POSITIVE_LENGTH_MEASURE(0.705555555555555),#413);
#397=CURVE_STYLE('',#420,POSITIVE_LENGTH_MEASURE(0.705555555555555),#413);
#398=CURVE_STYLE('',#421,POSITIVE_LENGTH_MEASURE(0.705555555555555),#413);
#399=CURVE_STYLE('',#422,POSITIVE_LENGTH_MEASURE(0.705555555555555),#413);
#400=CURVE_STYLE('',#423,POSITIVE_LENGTH_MEASURE(0.705555555555555),#413);
#401=CURVE_STYLE('',#424,POSITIVE_LENGTH_MEASURE(0.705555555555555),#413);
#402=CURVE_STYLE('',#425,POSITIVE_LENGTH_MEASURE(0.705555555555555),#413);
#403=CURVE_STYLE('',#426,POSITIVE_LENGTH_MEASURE(0.705555555555555),#413);
#404=CURVE_STYLE('',#427,POSITIVE_LENGTH_MEASURE(0.705555555555555),#413);
#405=CURVE_STYLE('',#428,POSITIVE_LENGTH_MEASURE(0.705555555555555),#413);
#406=CURVE_STYLE('',#429,POSITIVE_LENGTH_MEASURE(0.705555555555555),#413);
#407=CURVE_STYLE('',#430,POSITIVE_LENGTH_MEASURE(0.705555555555555),#413);
#408=CURVE_STYLE('',#431,POSITIVE_LENGTH_MEASURE(0.705555555555555),#413);
#409=CURVE_STYLE('',#432,POSITIVE_LENGTH_MEASURE(0.705555555555555),#413);
#410=CURVE_STYLE('',#433,POSITIVE_LENGTH_MEASURE(0.705555555555555),#413);
#411=CURVE_STYLE('',#434,POSITIVE_LENGTH_MEASURE(0.705555555555555),#413);
#412=CURVE_STYLE('',#435,POSITIVE_LENGTH_MEASURE(0.705555555555555),#413);
#413=COLOUR_RGB('',0.301960796117783,0.427450984716415,0.701960802078247);
#414=COLOUR_RGB('',0.611764705882353,0.658823529411765,0.670588235294118);
#415=DRAUGHTING_PRE_DEFINED_CURVE_FONT('chain double dash');
#416=DRAUGHTING_PRE_DEFINED_CURVE_FONT('chain double dash');
#417=DRAUGHTING_PRE_DEFINED_CURVE_FONT('chain double dash');
#418=DRAUGHTING_PRE_DEFINED_CURVE_FONT('chain double dash');
#419=DRAUGHTING_PRE_DEFINED_CURVE_FONT('continuous');
#420=DRAUGHTING_PRE_DEFINED_CURVE_FONT('continuous');
#421=DRAUGHTING_PRE_DEFINED_CURVE_FONT('continuous');
#422=DRAUGHTING_PRE_DEFINED_CURVE_FONT('continuous');
#423=DRAUGHTING_PRE_DEFINED_CURVE_FONT('continuous');
#424=DRAUGHTING_PRE_DEFINED_CURVE_FONT('continuous');
#425=DRAUGHTING_PRE_DEFINED_CURVE_FONT('continuous');
#426=DRAUGHTING_PRE_DEFINED_CURVE_FONT('continuous');
#427=DRAUGHTING_PRE_DEFINED_CURVE_FONT('continuous');
#428=DRAUGHTING_PRE_DEFINED_CURVE_FONT('continuous');
#429=DRAUGHTING_PRE_DEFINED_CURVE_FONT('continuous');
#430=DRAUGHTING_PRE_DEFINED_CURVE_FONT('continuous');
#431=DRAUGHTING_PRE_DEFINED_CURVE_FONT('continuous');
#432=DRAUGHTING_PRE_DEFINED_CURVE_FONT('continuous');
#433=DRAUGHTING_PRE_DEFINED_CURVE_FONT('continuous');
#434=DRAUGHTING_PRE_DEFINED_CURVE_FONT('continuous');
#435=DRAUGHTING_PRE_DEFINED_CURVE_FONT('continuous');
#436=TRIMMED_CURVE('',#457,(PARAMETER_VALUE(0.)),(PARAMETER_VALUE(0.0505)),
 .T.,.PARAMETER.);
#437=TRIMMED_CURVE('',#458,(PARAMETER_VALUE(0.)),(PARAMETER_VALUE(0.0382)),
 .T.,.PARAMETER.);
#438=TRIMMED_CURVE('',#459,(PARAMETER_VALUE(2.42861286636753E-17)),(
PARAMETER_VALUE(0.0505000000000001)),.T.,.PARAMETER.);
#439=TRIMMED_CURVE('',#460,(PARAMETER_VALUE(0.)),(PARAMETER_VALUE(0.0382)),
 .T.,.PARAMETER.);
#440=TRIMMED_CURVE('',#461,(PARAMETER_VALUE(9.54097911787244E-18)),(
PARAMETER_VALUE(0.03968)),.T.,.PARAMETER.);
#441=TRIMMED_CURVE('',#462,(PARAMETER_VALUE(3.46944695195361E-18)),(
PARAMETER_VALUE(0.0542)),.T.,.PARAMETER.);
#442=TRIMMED_CURVE('',#463,(PARAMETER_VALUE(0.)),(PARAMETER_VALUE(0.03968)),
 .T.,.PARAMETER.);
#443=TRIMMED_CURVE('',#464,(PARAMETER_VALUE(0.)),(PARAMETER_VALUE(0.0542)),
 .T.,.PARAMETER.);
#444=TRIMMED_CURVE('',#465,(PARAMETER_VALUE(0.)),(PARAMETER_VALUE(0.0382)),
 .T.,.PARAMETER.);
#445=TRIMMED_CURVE('',#466,(PARAMETER_VALUE(0.)),(PARAMETER_VALUE(0.0505)),
 .T.,.PARAMETER.);
#446=TRIMMED_CURVE('',#467,(PARAMETER_VALUE(0.)),(PARAMETER_VALUE(0.0382)),
 .T.,.PARAMETER.);
#447=TRIMMED_CURVE('',#468,(PARAMETER_VALUE(0.)),(PARAMETER_VALUE(0.0505000000000001)),
 .T.,.PARAMETER.);
#448=TRIMMED_CURVE('',#334,(PARAMETER_VALUE(3.33066907387648E-17)),(
PARAMETER_VALUE(6.28318530717959)),.T.,.PARAMETER.);
#449=TRIMMED_CURVE('',#469,(PARAMETER_VALUE(2.05432527401305E-33)),(
PARAMETER_VALUE(0.003)),.T.,.PARAMETER.);
#450=TRIMMED_CURVE('',#470,(PARAMETER_VALUE(-3.46944695195361E-18)),(
PARAMETER_VALUE(0.007)),.T.,.PARAMETER.);
#451=TRIMMED_CURVE('',#471,(PARAMETER_VALUE(0.)),(PARAMETER_VALUE(0.003)),
 .T.,.PARAMETER.);
#452=TRIMMED_CURVE('',#472,(PARAMETER_VALUE(0.)),(PARAMETER_VALUE(0.00700000000000001)),
 .T.,.PARAMETER.);
#453=TRIMMED_CURVE('',#473,(PARAMETER_VALUE(2.08166817117193E-17)),(
PARAMETER_VALUE(0.071000000000003)),.T.,.PARAMETER.);
#454=TRIMMED_CURVE('',#474,(PARAMETER_VALUE(-6.92501611609941E-15)),(
PARAMETER_VALUE(0.106999999999997)),.T.,.PARAMETER.);
#455=TRIMMED_CURVE('',#475,(PARAMETER_VALUE(3.46944695195362E-17)),(
PARAMETER_VALUE(0.071000000000003)),.T.,.PARAMETER.);
#456=TRIMMED_CURVE('',#476,(PARAMETER_VALUE(0.)),(PARAMETER_VALUE(0.107000000000007)),
 .T.,.PARAMETER.);
#457=LINE('',#748,#505);
#458=LINE('',#749,#506);
#459=LINE('',#750,#507);
#460=LINE('',#751,#508);
#461=LINE('',#752,#509);
#462=LINE('',#753,#510);
#463=LINE('',#754,#511);
#464=LINE('',#755,#512);
#465=LINE('',#756,#513);
#466=LINE('',#757,#514);
#467=LINE('',#758,#515);
#468=LINE('',#759,#516);
#469=LINE('',#761,#517);
#470=LINE('',#762,#518);
#471=LINE('',#763,#519);
#472=LINE('',#764,#520);
#473=LINE('',#765,#521);
#474=LINE('',#766,#522);
#475=LINE('',#767,#523);
#476=LINE('',#768,#524);
#477=LINE('',#770,#525);
#478=LINE('',#775,#526);
#479=LINE('',#779,#527);
#480=LINE('',#783,#528);
#481=LINE('',#846,#529);
#482=LINE('',#849,#530);
#483=LINE('',#850,#531);
#484=LINE('',#851,#532);
#485=LINE('',#854,#533);
#486=LINE('',#856,#534);
#487=LINE('',#858,#535);
#488=LINE('',#860,#536);
#489=LINE('',#862,#537);
#490=LINE('',#864,#538);
#491=LINE('',#866,#539);
#492=LINE('',#868,#540);
#493=LINE('',#870,#541);
#494=LINE('',#874,#542);
#495=LINE('',#876,#543);
#496=LINE('',#878,#544);
#497=LINE('',#885,#545);
#498=LINE('',#887,#546);
#499=LINE('',#889,#547);
#500=LINE('',#891,#548);
#501=LINE('',#893,#549);
#502=LINE('',#895,#550);
#503=LINE('',#897,#551);
#504=LINE('',#899,#552);
#505=VECTOR('',#609,1000.);
#506=VECTOR('',#610,1000.);
#507=VECTOR('',#611,1000.);
#508=VECTOR('',#612,1000.);
#509=VECTOR('',#613,1000.);
#510=VECTOR('',#614,1000.);
#511=VECTOR('',#615,1000.);
#512=VECTOR('',#616,1000.);
#513=VECTOR('',#617,1000.);
#514=VECTOR('',#618,1000.);
#515=VECTOR('',#619,1000.);
#516=VECTOR('',#620,1000.);
#517=VECTOR('',#623,1000.);
#518=VECTOR('',#624,1000.);
#519=VECTOR('',#625,1000.);
#520=VECTOR('',#626,1000.);
#521=VECTOR('',#627,1000.);
#522=VECTOR('',#628,1000.);
#523=VECTOR('',#629,1000.);
#524=VECTOR('',#630,1000.);
#525=VECTOR('',#633,1000.);
#526=VECTOR('',#636,1000.);
#527=VECTOR('',#639,1000.);
#528=VECTOR('',#642,1000.);
#529=VECTOR('',#647,1000.);
#530=VECTOR('',#648,1000.);
#531=VECTOR('',#649,1000.);
#532=VECTOR('',#650,1000.);
#533=VECTOR('',#651,1000.);
#534=VECTOR('',#652,1000.);
#535=VECTOR('',#653,1000.);
#536=VECTOR('',#656,1000.);
#537=VECTOR('',#657,1000.);
#538=VECTOR('',#658,1000.);
#539=VECTOR('',#661,1000.);
#540=VECTOR('',#662,1000.);
#541=VECTOR('',#663,1000.);
#542=VECTOR('',#668,1000.);
#543=VECTOR('',#669,1000.);
#544=VECTOR('',#670,1000.);
#545=VECTOR('',#683,1000.);
#546=VECTOR('',#684,1000.);
#547=VECTOR('',#685,1000.);
#548=VECTOR('',#688,1000.);
#549=VECTOR('',#689,1000.);
#550=VECTOR('',#692,1000.);
#551=VECTOR('',#693,1000.);
#552=VECTOR('',#696,1000.);
#553=GEOMETRIC_CURVE_SET('',(#436,#437,#438,#439));
#554=GEOMETRIC_CURVE_SET('',(#440,#441,#442,#443));
#555=GEOMETRIC_CURVE_SET('',(#444,#445,#446,#447));
#556=GEOMETRIC_CURVE_SET('',(#448));
#557=GEOMETRIC_CURVE_SET('',(#449,#450,#451,#452));
#558=GEOMETRIC_CURVE_SET('',(#453,#454,#455,#456));
#559=SHAPE_DEFINITION_REPRESENTATION(#1235,#560);
#560=SHAPE_REPRESENTATION('fnirsi_oscilloscope',(#561),#1230);
#561=AXIS2_PLACEMENT_3D('',#747,#607,#608);
#562=AXIS2_PLACEMENT_3D('',#760,#621,#622);
#563=AXIS2_PLACEMENT_3D('',#769,#631,#632);
#564=AXIS2_PLACEMENT_3D('',#773,#634,#635);
#565=AXIS2_PLACEMENT_3D('',#777,#637,#638);
#566=AXIS2_PLACEMENT_3D('',#781,#640,#641);
#567=AXIS2_PLACEMENT_3D('',#785,#643,#644);
#568=AXIS2_PLACEMENT_3D('',#845,#645,#646);
#569=AXIS2_PLACEMENT_3D('',#859,#654,#655);
#570=AXIS2_PLACEMENT_3D('',#865,#659,#660);
#571=AXIS2_PLACEMENT_3D('',#871,#664,#665);
#572=AXIS2_PLACEMENT_3D('',#872,#666,#667);
#573=AXIS2_PLACEMENT_3D('',#879,#671,#672);
#574=AXIS2_PLACEMENT_3D('',#880,#673,#674);
#575=AXIS2_PLACEMENT_3D('',#881,#675,#676);
#576=AXIS2_PLACEMENT_3D('',#882,#677,#678);
#577=AXIS2_PLACEMENT_3D('',#883,#679,#680);
#578=AXIS2_PLACEMENT_3D('',#884,#681,#682);
#579=AXIS2_PLACEMENT_3D('',#890,#686,#687);
#580=AXIS2_PLACEMENT_3D('',#894,#690,#691);
#581=AXIS2_PLACEMENT_3D('',#898,#694,#695);
#582=AXIS2_PLACEMENT_3D('',#900,#697,#698);
#583=AXIS2_PLACEMENT_3D('',#901,#699,#700);
#584=AXIS2_PLACEMENT_3D('',#902,#701,#702);
#585=AXIS2_PLACEMENT_3D('',#904,#703,#704);
#586=AXIS2_PLACEMENT_3D('',#905,#705,#706);
#587=AXIS2_PLACEMENT_3D('',#906,#707,#708);
#588=AXIS2_PLACEMENT_3D('',#907,#709,#710);
#589=AXIS2_PLACEMENT_3D('',#908,#711,#712);
#590=AXIS2_PLACEMENT_3D('',#1064,#713,#714);
#591=AXIS2_PLACEMENT_3D('',#1205,#715,#716);
#592=AXIS2_PLACEMENT_3D('',#1207,#717,#718);
#593=AXIS2_PLACEMENT_3D('',#1208,#719,#720);
#594=AXIS2_PLACEMENT_3D('',#1210,#721,#722);
#595=AXIS2_PLACEMENT_3D('',#1211,#723,#724);
#596=AXIS2_PLACEMENT_3D('',#1213,#725,#726);
#597=AXIS2_PLACEMENT_3D('',#1214,#727,#728);
#598=AXIS2_PLACEMENT_3D('',#1216,#729,#730);
#599=AXIS2_PLACEMENT_3D('',#1217,#731,#732);
#600=AXIS2_PLACEMENT_3D('',#1219,#733,#734);
#601=AXIS2_PLACEMENT_3D('',#1220,#735,#736);
#602=AXIS2_PLACEMENT_3D('',#1222,#737,#738);
#603=AXIS2_PLACEMENT_3D('',#1223,#739,#740);
#604=AXIS2_PLACEMENT_3D('',#1225,#741,#742);
#605=AXIS2_PLACEMENT_3D('',#1226,#743,#744);
#606=AXIS2_PLACEMENT_3D('',#1228,#745,#746);
#607=DIRECTION('',(0.,0.,1.));
#608=DIRECTION('',(1.,0.,0.));
#609=DIRECTION('',(-1.,0.,0.));
#610=DIRECTION('',(0.,-1.,0.));
#611=DIRECTION('',(1.,0.,0.));
#612=DIRECTION('',(0.,1.,0.));
#613=DIRECTION('',(0.,1.,0.));
#614=DIRECTION('',(-1.,0.,0.));
#615=DIRECTION('',(0.,-1.,0.));
#616=DIRECTION('',(1.,0.,0.));
#617=DIRECTION('',(0.,1.,0.));
#618=DIRECTION('',(-1.,0.,0.));
#619=DIRECTION('',(0.,-1.,0.));
#620=DIRECTION('',(1.,0.,0.));
#621=DIRECTION('',(6.54482084102739E-16,1.,-2.17154149742113E-15));
#622=DIRECTION('',(-1.,6.54482084102736E-16,-1.42108547152052E-15));
#623=DIRECTION('',(-1.1842378929335E-15,0.,1.));
#624=DIRECTION('',(-1.,0.,0.));
#625=DIRECTION('',(1.1842378929335E-15,0.,-1.));
#626=DIRECTION('',(1.,0.,0.));
#627=DIRECTION('',(-1.,-7.00535091594435E-16,0.));
#628=DIRECTION('',(-4.64841042086062E-16,-1.,0.));
#629=DIRECTION('',(1.,7.00535091594435E-16,0.));
#630=DIRECTION('',(4.64841042086017E-16,1.,0.));
#631=DIRECTION('',(0.,0.,1.));
#632=DIRECTION('',(1.,0.,0.));
#633=DIRECTION('',(1.,6.8411630038519E-16,0.));
#634=DIRECTION('',(0.,0.,1.));
#635=DIRECTION('',(1.,0.,0.));
#636=DIRECTION('',(4.5394633016217E-16,1.,0.));
#637=DIRECTION('',(0.,0.,1.));
#638=DIRECTION('',(1.,0.,0.));
#639=DIRECTION('',(-1.,-6.84116300385191E-16,0.));
#640=DIRECTION('',(0.,0.,1.));
#641=DIRECTION('',(1.,0.,0.));
#642=DIRECTION('',(-4.53946330162126E-16,-1.,0.));
#643=DIRECTION('',(0.,0.,1.));
#644=DIRECTION('',(1.,0.,0.));
#645=DIRECTION('',(-6.8411630038519E-16,1.,0.));
#646=DIRECTION('',(-1.,-6.8411630038519E-16,0.));
#647=DIRECTION('',(1.,6.8411630038519E-16,0.));
#648=DIRECTION('',(0.,0.,-1.));
#649=DIRECTION('',(0.,0.,-1.));
#650=DIRECTION('',(1.15648231731787E-15,0.,-1.));
#651=DIRECTION('',(-1.,0.,0.));
#652=DIRECTION('',(-1.15648231731787E-15,0.,1.));
#653=DIRECTION('',(1.,0.,0.));
#654=DIRECTION('',(1.,-4.53946330162126E-16,0.));
#655=DIRECTION('',(4.53946330162126E-16,1.,0.));
#656=DIRECTION('',(0.,0.,-1.));
#657=DIRECTION('',(-4.53946330162126E-16,-1.,0.));
#658=DIRECTION('',(0.,0.,-1.));
#659=DIRECTION('',(-1.,4.5394633016217E-16,0.));
#660=DIRECTION('',(-4.5394633016217E-16,-1.,0.));
#661=DIRECTION('',(0.,0.,-1.));
#662=DIRECTION('',(4.5394633016217E-16,1.,0.));
#663=DIRECTION('',(0.,0.,-1.));
#664=DIRECTION('',(6.8411630038519E-16,-1.,0.));
#665=DIRECTION('',(1.,6.8411630038519E-16,0.));
#666=DIRECTION('',(0.,1.,0.));
#667=DIRECTION('',(-1.,0.,-1.83697019872103E-16));
#668=DIRECTION('',(0.,0.,-1.));
#669=DIRECTION('',(-1.,-6.84116300385191E-16,0.));
#670=DIRECTION('',(0.,0.,-1.));
#671=DIRECTION('',(0.,0.,1.));
#672=DIRECTION('',(1.,0.,0.));
#673=DIRECTION('',(0.,0.,1.));
#674=DIRECTION('',(1.,0.,0.));
#675=DIRECTION('',(0.,0.,1.));
#676=DIRECTION('',(1.,0.,0.));
#677=DIRECTION('',(0.,0.,1.));
#678=DIRECTION('',(1.,0.,0.));
#679=DIRECTION('',(0.,0.,1.));
#680=DIRECTION('',(1.,0.,0.));
#681=DIRECTION('',(1.,0.,1.15648231731787E-15));
#682=DIRECTION('',(1.15648231731787E-15,0.,-1.));
#683=DIRECTION('',(0.,1.,0.));
#684=DIRECTION('',(1.15648231731787E-15,0.,-1.));
#685=DIRECTION('',(0.,1.,0.));
#686=DIRECTION('',(0.,0.,1.));
#687=DIRECTION('',(1.,0.,0.));
#688=DIRECTION('',(0.,1.,0.));
#689=DIRECTION('',(1.,0.,0.));
#690=DIRECTION('',(-1.,0.,-1.15648231731787E-15));
#691=DIRECTION('',(-1.15648231731787E-15,0.,1.));
#692=DIRECTION('',(0.,1.,0.));
#693=DIRECTION('',(-1.15648231731787E-15,0.,1.));
#694=DIRECTION('',(0.,0.,-1.));
#695=DIRECTION('',(-1.,0.,0.));
#696=DIRECTION('',(-1.,0.,0.));
#697=DIRECTION('',(0.,-1.,0.));
#698=DIRECTION('',(0.,0.,-1.));
#699=DIRECTION('',(0.,-1.,0.));
#700=DIRECTION('',(0.,0.,-1.));
#701=DIRECTION('',(0.,1.,0.));
#702=DIRECTION('',(-1.,0.,-1.83697019872103E-16));
#703=DIRECTION('',(0.,1.,0.));
#704=DIRECTION('',(0.,0.,1.));
#705=DIRECTION('',(0.,0.,-1.));
#706=DIRECTION('',(-1.,0.,0.));
#707=DIRECTION('',(0.,0.,-1.));
#708=DIRECTION('',(-1.,0.,0.));
#709=DIRECTION('',(0.,0.,-1.));
#710=DIRECTION('',(-1.,0.,0.));
#711=DIRECTION('',(0.,0.,-1.));
#712=DIRECTION('',(-1.,0.,0.));
#713=DIRECTION('',(0.,0.,-1.));
#714=DIRECTION('',(0.797547006208367,0.603256805090561,0.));
#715=DIRECTION('',(0.,0.,-1.));
#716=DIRECTION('',(-1.,0.,0.));
#717=DIRECTION('',(0.,0.,1.));
#718=DIRECTION('',(1.,0.,0.));
#719=DIRECTION('',(0.,1.,0.));
#720=DIRECTION('',(-1.,0.,0.));
#721=DIRECTION('',(0.,0.,1.));
#722=DIRECTION('',(1.,0.,0.));
#723=DIRECTION('',(-1.,0.,0.));
#724=DIRECTION('',(0.,-1.,0.));
#725=DIRECTION('',(0.,0.,1.));
#726=DIRECTION('',(1.,0.,0.));
#727=DIRECTION('',(0.,-1.,0.));
#728=DIRECTION('',(1.,0.,0.));
#729=DIRECTION('',(0.,0.,1.));
#730=DIRECTION('',(1.,0.,0.));
#731=DIRECTION('',(0.,0.,1.));
#732=DIRECTION('',(-1.,0.,0.));
#733=DIRECTION('',(0.,0.,1.));
#734=DIRECTION('',(1.,0.,0.));
#735=DIRECTION('',(1.,0.,0.));
#736=DIRECTION('',(0.,1.,0.));
#737=DIRECTION('',(0.,0.,1.));
#738=DIRECTION('',(1.,0.,0.));
#739=DIRECTION('',(-0.577350269189626,0.577350269189626,-0.577350269189626));
#740=DIRECTION('',(-0.707106777491619,-0.707106784881476,-7.38985717063656E-9));
#741=DIRECTION('',(0.,0.,1.));
#742=DIRECTION('',(1.,0.,0.));
#743=DIRECTION('',(-0.718873086818576,0.585048618558824,-0.375419230954334));
#744=DIRECTION('',(-0.631219054758315,-0.775604606039713,-3.4517627561792E-8));
#745=DIRECTION('',(0.,0.,1.));
#746=DIRECTION('',(1.,0.,0.));
#747=CARTESIAN_POINT('',(0.,0.,0.));
#748=CARTESIAN_POINT('',(25.2500000000015,4.80000000000347,24.));
#749=CARTESIAN_POINT('',(25.2500000000015,43.0000000000035,24.));
#750=CARTESIAN_POINT('',(-25.2499999999985,43.0000000000035,24.));
#751=CARTESIAN_POINT('',(-25.2499999999985,4.80000000000346,24.));
#752=CARTESIAN_POINT('',(-27.1,4.06000000000345,24.));
#753=CARTESIAN_POINT('',(27.1,4.06000000000346,24.));
#754=CARTESIAN_POINT('',(27.1,43.7400000000035,24.));
#755=CARTESIAN_POINT('',(-27.1,43.7400000000035,24.));
#756=CARTESIAN_POINT('',(-25.2499999999985,4.80000000000347,21.5));
#757=CARTESIAN_POINT('',(25.2500000000015,4.80000000000347,21.5));
#758=CARTESIAN_POINT('',(25.2500000000015,43.0000000000035,21.5));
#759=CARTESIAN_POINT('',(-25.2499999999985,43.0000000000035,21.5));
#760=CARTESIAN_POINT('',(-19.0000000000026,53.5000000000035,10.9999999999989));
#761=CARTESIAN_POINT('',(14.5000000000015,-53.5000000000035,10.));
#762=CARTESIAN_POINT('',(21.5000000000015,-53.5000000000035,10.));
#763=CARTESIAN_POINT('',(21.5000000000015,-53.5000000000035,13.));
#764=CARTESIAN_POINT('',(14.5000000000015,-53.5000000000035,13.));
#765=CARTESIAN_POINT('',(35.5000000000015,-53.5000000000035,0.));
#766=CARTESIAN_POINT('',(35.5000000000015,53.4999999999965,0.));
#767=CARTESIAN_POINT('',(-35.5000000000015,53.5000000000034,0.));
#768=CARTESIAN_POINT('',(-35.5000000000015,-53.5000000000035,0.));
#769=CARTESIAN_POINT('',(0.,0.,24.));
#770=CARTESIAN_POINT('',(-35.5000000000015,-53.5000000000035,24.));
#771=CARTESIAN_POINT('',(-27.5000000000015,-53.5000000000035,24.));
#772=CARTESIAN_POINT('',(27.5000000000015,-53.5000000000035,24.));
#773=CARTESIAN_POINT('',(27.5000000000015,-45.5000000000035,24.));
#774=CARTESIAN_POINT('',(35.5000000000015,-45.5000000000035,24.));
#775=CARTESIAN_POINT('',(35.5000000000015,-53.5,24.));
#776=CARTESIAN_POINT('',(35.5000000000015,45.5000000000035,24.));
#777=CARTESIAN_POINT('',(27.5000000000015,45.5000000000035,24.));
#778=CARTESIAN_POINT('',(27.5000000000015,53.5000000000035,24.));
#779=CARTESIAN_POINT('',(35.5000000000015,53.5000000000035,24.));
#780=CARTESIAN_POINT('',(-27.5000000000015,53.5000000000034,24.));
#781=CARTESIAN_POINT('',(-27.5000000000015,45.5000000000034,24.));
#782=CARTESIAN_POINT('',(-35.5000000000015,45.5000000000034,24.));
#783=CARTESIAN_POINT('',(-35.5000000000015,53.5000000000034,24.));
#784=CARTESIAN_POINT('',(-35.5000000000015,-45.5000000000035,24.));
#785=CARTESIAN_POINT('',(-27.5000000000015,-45.5000000000035,24.));
#786=CARTESIAN_POINT('',(-27.1,4.06000000000346,24.));
#787=CARTESIAN_POINT('',(-27.1,11.8100084947393,24.));
#788=CARTESIAN_POINT('',(-27.1,23.4350212368432,24.));
#789=CARTESIAN_POINT('',(-27.1,36.0287850407889,24.));
#790=CARTESIAN_POINT('',(-27.1,41.3569158809199,24.));
#791=CARTESIAN_POINT('',(-27.1,42.870589415048,24.));
#792=CARTESIAN_POINT('',(-27.1,43.4760588286992,24.));
#793=CARTESIAN_POINT('',(-27.0973843081303,43.6097162187794,24.));
#794=CARTESIAN_POINT('',(-27.1026156918697,43.7056830868097,24.));
#795=CARTESIAN_POINT('',(-27.0942857583552,43.7353302221349,24.));
#796=CARTESIAN_POINT('',(-27.0697788157171,43.7414946027875,24.));
#797=CARTESIAN_POINT('',(-27.0367268662024,43.7392526986115,24.));
#798=CARTESIAN_POINT('',(-26.9538734595373,43.7409964018595,24.));
#799=CARTESIAN_POINT('',(-26.6281230486404,43.7384057570339,24.));
#800=CARTESIAN_POINT('',(-24.3577237368115,43.7451015775061,24.));
#801=CARTESIAN_POINT('',(-18.1933149811136,43.7354688228819,24.));
#802=CARTESIAN_POINT('',(-8.35058141568179,43.7399715325131,24.));
#803=CARTESIAN_POINT('',(3.46627354435191,43.7399755992974,24.));
#804=CARTESIAN_POINT('',(13.3138042538694,43.7401281037104,24.));
#805=CARTESIAN_POINT('',(20.2066416915392,43.7398078444431,24.));
#806=CARTESIAN_POINT('',(23.6537114988628,43.7402882333441,24.));
#807=CARTESIAN_POINT('',(25.3762697697916,43.7395676499925,24.));
#808=CARTESIAN_POINT('',(26.2390138543554,43.7406485250199,24.));
#809=CARTESIAN_POINT('',(26.6681884729883,43.7390272124789,24.));
#810=CARTESIAN_POINT('',(26.8860719177782,43.7414591812904,24.));
#811=CARTESIAN_POINT('',(27.0047143309946,43.7370816374297,24.));
#812=CARTESIAN_POINT('',(27.0751599948259,43.7458367251511,24.));
#813=CARTESIAN_POINT('',(27.0905465193391,43.7306999898098,24.));
#814=CARTESIAN_POINT('',(27.0905465193391,43.7306999898098,24.));
#815=CARTESIAN_POINT('',(-27.1,4.06000000000346,24.));
#816=CARTESIAN_POINT('',(27.0905465193391,43.7306999898098,24.));
#817=CARTESIAN_POINT('',(27.1059330438523,43.7155632544685,24.));
#818=CARTESIAN_POINT('',(27.0970334780738,43.646261225382,24.));
#819=CARTESIAN_POINT('',(27.1014832609631,43.5295448865124,24.));
#820=CARTESIAN_POINT('',(27.0990111593579,43.315198622923,24.));
#821=CARTESIAN_POINT('',(27.1006592270947,42.8929913459081,24.));
#822=CARTESIAN_POINT('',(27.0995605152702,42.0442532917691,24.));
#823=CARTESIAN_POINT('',(27.1002929898198,40.3496595168972,24.));
#824=CARTESIAN_POINT('',(27.0998046734534,36.9585504115492,24.));
#825=CARTESIAN_POINT('',(27.1001302176977,30.1776132379226,24.));
#826=CARTESIAN_POINT('',(27.0999565941007,20.4899318145602,24.));
#827=CARTESIAN_POINT('',(27.1,11.771214959218,24.));
#828=CARTESIAN_POINT('',(27.1,6.44308411908708,24.));
#829=CARTESIAN_POINT('',(27.1,4.92941058495898,24.));
#830=CARTESIAN_POINT('',(27.1,4.32394117130774,24.));
#831=CARTESIAN_POINT('',(27.0973843081303,4.19028378122751,24.));
#832=CARTESIAN_POINT('',(27.1026156918697,4.09431691319723,24.));
#833=CARTESIAN_POINT('',(27.0942857583552,4.06466977787206,24.));
#834=CARTESIAN_POINT('',(27.0697788157171,4.05850539721949,24.));
#835=CARTESIAN_POINT('',(27.0367268662024,4.06074730139546,24.));
#836=CARTESIAN_POINT('',(26.9538734595373,4.05900359814748,24.));
#837=CARTESIAN_POINT('',(26.6281230486404,4.06159424297304,24.));
#838=CARTESIAN_POINT('',(25.3395180338185,4.05779391243475,24.));
#839=CARTESIAN_POINT('',(23.123920795385,4.05773263222451,24.));
#840=CARTESIAN_POINT('',(17.2108858137233,4.06226736778242,24.));
#841=CARTESIAN_POINT('',(8.35055247841562,4.06000000000347,24.));
#842=CARTESIAN_POINT('',(-7.40524862310243,4.06000000000346,24.));
#843=CARTESIAN_POINT('',(-19.222099449241,4.06000000000346,24.));
#844=CARTESIAN_POINT('',(-27.1,4.06000000000346,24.));
#845=CARTESIAN_POINT('',(-35.5000000000015,-53.5000000000035,24.));
#846=CARTESIAN_POINT('',(-35.5000000000015,-53.5000000000035,0.));
#847=CARTESIAN_POINT('',(-27.5000000000015,-53.5000000000035,0.));
#848=CARTESIAN_POINT('',(27.5000000000015,-53.5000000000035,0.));
#849=CARTESIAN_POINT('',(27.5000000000015,-53.5000000000035,24.));
#850=CARTESIAN_POINT('',(-27.5000000000015,-53.5000000000035,24.));
#851=CARTESIAN_POINT('',(14.5000000000015,-53.5000000000035,13.));
#852=CARTESIAN_POINT('',(14.5000000000015,-53.5000000000035,13.));
#853=CARTESIAN_POINT('',(14.5000000000015,-53.5000000000035,10.));
#854=CARTESIAN_POINT('',(21.5000000000015,-53.5000000000035,13.));
#855=CARTESIAN_POINT('',(21.5000000000015,-53.5000000000035,13.));
#856=CARTESIAN_POINT('',(21.5000000000015,-53.5000000000035,10.));
#857=CARTESIAN_POINT('',(21.5000000000015,-53.5000000000035,10.));
#858=CARTESIAN_POINT('',(14.5000000000015,-53.5000000000035,10.));
#859=CARTESIAN_POINT('',(-35.5000000000015,53.5000000000034,24.));
#860=CARTESIAN_POINT('',(-35.5000000000015,45.5000000000034,24.));
#861=CARTESIAN_POINT('',(-35.5000000000015,45.5000000000034,0.));
#862=CARTESIAN_POINT('',(-35.5000000000015,53.5000000000034,0.));
#863=CARTESIAN_POINT('',(-35.5000000000015,-45.5000000000035,0.));
#864=CARTESIAN_POINT('',(-35.5000000000015,-45.5000000000035,24.));
#865=CARTESIAN_POINT('',(35.5000000000015,-53.5,24.));
#866=CARTESIAN_POINT('',(35.5000000000015,-45.5000000000035,24.));
#867=CARTESIAN_POINT('',(35.5000000000015,-45.5000000000035,0.));
#868=CARTESIAN_POINT('',(35.5000000000015,-53.5,0.));
#869=CARTESIAN_POINT('',(35.5000000000015,45.5000000000035,0.));
#870=CARTESIAN_POINT('',(35.5000000000015,45.5000000000035,24.));
#871=CARTESIAN_POINT('',(35.5000000000015,53.5000000000035,24.));
#872=CARTESIAN_POINT('',(-19.0000000000026,53.5000000000034,10.9999999999989));
#873=CARTESIAN_POINT('',(-24.0000000000015,53.5000000000034,10.9999999999989));
#874=CARTESIAN_POINT('',(27.5000000000015,53.5000000000035,24.));
#875=CARTESIAN_POINT('',(27.5000000000015,53.5000000000035,0.));
#876=CARTESIAN_POINT('',(35.5000000000015,53.5000000000035,0.));
#877=CARTESIAN_POINT('',(-27.5000000000015,53.5000000000034,0.));
#878=CARTESIAN_POINT('',(-27.5000000000015,53.5000000000034,24.));
#879=CARTESIAN_POINT('',(0.,0.,0.));
#880=CARTESIAN_POINT('',(27.5000000000015,-45.5000000000035,0.));
#881=CARTESIAN_POINT('',(-27.5000000000015,-45.5000000000035,0.));
#882=CARTESIAN_POINT('',(-27.5000000000015,45.5000000000034,0.));
#883=CARTESIAN_POINT('',(27.5000000000015,45.5000000000035,0.));
#884=CARTESIAN_POINT('',(14.5000000000015,-55.0000000000035,13.));
#885=CARTESIAN_POINT('',(14.5000000000015,-55.0000000000035,10.));
#886=CARTESIAN_POINT('',(14.5000000000015,-55.0000000000035,10.));
#887=CARTESIAN_POINT('',(14.5000000000015,-55.0000000000035,13.));
#888=CARTESIAN_POINT('',(14.5000000000015,-55.0000000000035,13.));
#889=CARTESIAN_POINT('',(14.5000000000015,-55.0000000000035,13.));
#890=CARTESIAN_POINT('',(14.5000000000015,-55.0000000000035,10.));
#891=CARTESIAN_POINT('',(21.5000000000015,-55.0000000000035,10.));
#892=CARTESIAN_POINT('',(21.5000000000015,-55.0000000000035,10.));
#893=CARTESIAN_POINT('',(14.5000000000015,-55.0000000000035,10.));
#894=CARTESIAN_POINT('',(21.5000000000015,-55.0000000000035,10.));
#895=CARTESIAN_POINT('',(21.5000000000015,-55.0000000000035,13.));
#896=CARTESIAN_POINT('',(21.5000000000015,-55.0000000000035,13.));
#897=CARTESIAN_POINT('',(21.5000000000015,-55.0000000000035,10.));
#898=CARTESIAN_POINT('',(21.5000000000015,-55.0000000000035,13.));
#899=CARTESIAN_POINT('',(21.5000000000015,-55.0000000000035,13.));
#900=CARTESIAN_POINT('',(0.,-55.0000000000035,0.));
#901=CARTESIAN_POINT('',(-19.0000000000026,67.0000000000034,10.9999999999989));
#902=CARTESIAN_POINT('',(-19.0000000000026,67.0000000000034,10.9999999999989));
#903=CARTESIAN_POINT('',(-24.0000000000015,67.0000000000034,10.9999999999989));
#904=CARTESIAN_POINT('',(-19.0000000000026,67.0000000000034,10.9999999999989));
#905=CARTESIAN_POINT('',(27.5000000000015,-45.5000000000035,24.));
#906=CARTESIAN_POINT('',(27.5000000000015,45.5000000000035,24.));
#907=CARTESIAN_POINT('',(-27.5000000000015,45.5000000000034,24.));
#908=CARTESIAN_POINT('',(-27.5000000000015,-45.5000000000035,24.));
#909=CARTESIAN_POINT('',(25.2411918676514,42.99104686519,21.5));
#910=CARTESIAN_POINT('',(25.857643418214,43.2375979067299,22.3333333333333));
#911=CARTESIAN_POINT('',(26.4740949687765,43.4841489482699,23.1666666666667));
#912=CARTESIAN_POINT('',(27.0905465193391,43.7306999898098,24.));
#913=CARTESIAN_POINT('',(25.255528020565,42.9764747056629,21.5));
#914=CARTESIAN_POINT('',(25.8723296949941,43.2228375552647,22.3333333333333));
#915=CARTESIAN_POINT('',(26.4891313694232,43.4692004048666,23.1666666666667));
#916=CARTESIAN_POINT('',(27.1059330438523,43.7155632544685,24.));
#917=CARTESIAN_POINT('',(25.2472359897198,42.9097575304838,21.5));
#918=CARTESIAN_POINT('',(25.8638351525045,43.1552587621165,22.3333333333333));
#919=CARTESIAN_POINT('',(26.4804343152891,43.4007599937493,23.1666666666667));
#920=CARTESIAN_POINT('',(27.0970334780738,43.646261225382,24.));
#921=CARTESIAN_POINT('',(25.2513820051424,42.7973945228019,21.5));
#922=CARTESIAN_POINT('',(25.8680824237493,43.0414446440388,22.3333333333333));
#923=CARTESIAN_POINT('',(26.4847828423562,43.2854947652756,23.1666666666667));
#924=CARTESIAN_POINT('',(27.1014832609631,43.5295448865124,24.));
#925=CARTESIAN_POINT('',(25.2490786632409,42.5910430291246,21.5));
#926=CARTESIAN_POINT('',(25.8657228286133,42.8324282270574,22.3333333333333));
#927=CARTESIAN_POINT('',(26.4823669939856,43.0738134249902,23.1666666666667));
#928=CARTESIAN_POINT('',(27.0990111593579,43.315198622923,24.));
#929=CARTESIAN_POINT('',(25.2506142245086,42.1845834025629,21.5));
#930=CARTESIAN_POINT('',(25.8672958920373,42.420719383678,22.3333333333333));
#931=CARTESIAN_POINT('',(26.483977559566,42.6568553647931,23.1666666666667));
#932=CARTESIAN_POINT('',(27.1006592270947,42.8929913459081,24.));
#933=CARTESIAN_POINT('',(25.2495905169968,41.3675019089109,21.5));
#934=CARTESIAN_POINT('',(25.8662471830879,41.5930857031969,22.3333333333333));
#935=CARTESIAN_POINT('',(26.4829038491791,41.818669497483,23.1666666666667));
#936=CARTESIAN_POINT('',(27.0995605152702,42.0442532917691,24.));
#937=CARTESIAN_POINT('',(25.2502729886713,39.7361137486259,21.5));
#938=CARTESIAN_POINT('',(25.8669463223875,39.9406290047163,22.3333333333333));
#939=CARTESIAN_POINT('',(26.4836196561037,40.1451442608067,23.1666666666667));
#940=CARTESIAN_POINT('',(27.1002929898198,40.3496595168972,24.));
#941=CARTESIAN_POINT('',(25.249818007555,36.4714875433766,21.5));
#942=CARTESIAN_POINT('',(25.8664802295211,36.6338418327675,22.3333333333333));
#943=CARTESIAN_POINT('',(26.4831424514873,36.7961961221583,23.1666666666667));
#944=CARTESIAN_POINT('',(27.0998046734534,36.9585504115492,24.));
#945=CARTESIAN_POINT('',(25.2501213282992,29.9434683893309,21.5));
#946=CARTESIAN_POINT('',(25.8667909580987,30.0215166721948,22.3333333333333));
#947=CARTESIAN_POINT('',(26.4834605878982,30.0995649550587,23.1666666666667));
#948=CARTESIAN_POINT('',(27.1001302176977,30.1776132379226,24.));
#949=CARTESIAN_POINT('',(25.2499595572356,20.6171218577673,21.5));
#950=CARTESIAN_POINT('',(25.8666252361907,20.5747251766982,22.3333333333333));
#951=CARTESIAN_POINT('',(26.4832909151457,20.5323284956292,23.1666666666667));
#952=CARTESIAN_POINT('',(27.0999565941007,20.4899318145602,24.));
#953=CARTESIAN_POINT('',(25.2500000000015,12.2235990786828,21.5));
#954=CARTESIAN_POINT('',(25.8666666666677,12.0728043721945,22.3333333333333));
#955=CARTESIAN_POINT('',(26.4833333333338,11.9220096657063,23.1666666666667));
#956=CARTESIAN_POINT('',(27.1,11.771214959218,24.));
#957=CARTESIAN_POINT('',(25.2500000000015,7.09419892512933,21.5));
#958=CARTESIAN_POINT('',(25.8666666666677,6.87716065644858,22.3333333333333));
#959=CARTESIAN_POINT('',(26.4833333333338,6.66012238776783,23.1666666666667));
#960=CARTESIAN_POINT('',(27.1,6.44308411908708,24.));
#961=CARTESIAN_POINT('',(25.2500000000015,5.63698297241528,21.5));
#962=CARTESIAN_POINT('',(25.8666666666677,5.40112550992984,22.3333333333333));
#963=CARTESIAN_POINT('',(26.4833333333338,5.16526804744441,23.1666666666667));
#964=CARTESIAN_POINT('',(27.1,4.92941058495898,24.));
#965=CARTESIAN_POINT('',(25.2500000000015,5.05409659132966,21.5));
#966=CARTESIAN_POINT('',(25.8666666666677,4.81071145132235,22.3333333333333));
#967=CARTESIAN_POINT('',(26.4833333333338,4.56732631131505,23.1666666666667));
#968=CARTESIAN_POINT('',(27.1,4.32394117130774,24.));
#969=CARTESIAN_POINT('',(25.2475628701229,4.92542440632299,21.5));
#970=CARTESIAN_POINT('',(25.8641700161254,4.68037753129116,22.3333333333333));
#971=CARTESIAN_POINT('',(26.4807771621278,4.43533065625934,23.1666666666667));
#972=CARTESIAN_POINT('',(27.0973843081303,4.19028378122751,24.));
#973=CARTESIAN_POINT('',(25.2524371298801,4.83303694768496,21.5));
#974=CARTESIAN_POINT('',(25.86916331721,4.58679693618905,22.3333333333333));
#975=CARTESIAN_POINT('',(26.4858895045398,4.34055692469314,23.1666666666667));
#976=CARTESIAN_POINT('',(27.1026156918697,4.09431691319723,24.));
#977=CARTESIAN_POINT('',(25.2446758449635,4.80449560268947,21.5));
#978=CARTESIAN_POINT('',(25.8612124827607,4.557886994417,22.3333333333333));
#979=CARTESIAN_POINT('',(26.477749120558,4.31127838614453,23.1666666666667));
#980=CARTESIAN_POINT('',(27.0942857583552,4.06466977787206,24.));
#981=CARTESIAN_POINT('',(25.2218418854944,4.79856114349269,21.5));
#982=CARTESIAN_POINT('',(25.8378208622353,4.55187589473495,22.3333333333333));
#983=CARTESIAN_POINT('',(26.4537998389762,4.30519064597722,23.1666666666667));
#984=CARTESIAN_POINT('',(27.0697788157171,4.05850539721949,24.));
#985=CARTESIAN_POINT('',(25.1910462498765,4.80071942825886,21.5));
#986=CARTESIAN_POINT('',(25.8062731219851,4.55406205263773,22.3333333333333));
#987=CARTESIAN_POINT('',(26.4214999940938,4.30740467701659,23.1666666666667));
#988=CARTESIAN_POINT('',(27.0367268662024,4.06074730139546,24.));
#989=CARTESIAN_POINT('',(25.1138488875778,4.79904076232961,21.5));
#990=CARTESIAN_POINT('',(25.7271904115643,4.55236170760224,22.3333333333333));
#991=CARTESIAN_POINT('',(26.3405319355508,4.30568265287486,23.1666666666667));
#992=CARTESIAN_POINT('',(26.9538734595373,4.05900359814748,24.));
#993=CARTESIAN_POINT('',(24.8103360508565,4.80153478028164,21.5));
#994=CARTESIAN_POINT('',(25.4162650501178,4.55488793451211,22.3333333333333));
#995=CARTESIAN_POINT('',(26.0221940493791,4.30824108874258,23.1666666666667));
#996=CARTESIAN_POINT('',(26.6281230486404,4.06159424297304,24.));
#997=CARTESIAN_POINT('',(23.6096985370465,4.79787619594287,21.5));
#998=CARTESIAN_POINT('',(24.1863050359705,4.55118210144016,22.3333333333333));
#999=CARTESIAN_POINT('',(24.7629115348945,4.30448800693746,23.1666666666667));
#1000=CARTESIAN_POINT('',(25.3395180338185,4.05779391243475,24.));
#1001=CARTESIAN_POINT('',(21.5453505565872,4.79781720138563,21.5));
#1002=CARTESIAN_POINT('',(22.0715406361865,4.55112234499859,22.3333333333333));
#1003=CARTESIAN_POINT('',(22.5977307157858,4.30442748861155,23.1666666666667));
#1004=CARTESIAN_POINT('',(23.123920795385,4.05773263222451,24.));
#1005=CARTESIAN_POINT('',(16.0359729445223,4.80218279862131,21.5));
#1006=CARTESIAN_POINT('',(16.4276105675893,4.55554432167501,22.3333333333333));
#1007=CARTESIAN_POINT('',(16.8192481906563,4.30890584472872,23.1666666666667));
#1008=CARTESIAN_POINT('',(17.2108858137233,4.06226736778242,24.));
#1009=CARTESIAN_POINT('',(7.78049631291643,4.80000000000347,21.5));
#1010=CARTESIAN_POINT('',(7.97051503474949,4.5533333333368,22.3333333333333));
#1011=CARTESIAN_POINT('',(8.16053375658256,4.30666666667013,23.1666666666667));
#1012=CARTESIAN_POINT('',(8.35055247841562,4.06000000000347,24.));
#1013=CARTESIAN_POINT('',(-6.89972427060132,4.80000000000347,21.5));
#1014=CARTESIAN_POINT('',(-7.06823238810169,4.5533333333368,22.3333333333333));
#1015=CARTESIAN_POINT('',(-7.23674050560206,4.30666666667013,23.1666666666667));
#1016=CARTESIAN_POINT('',(-7.40524862310243,4.06000000000346,24.));
#1017=CARTESIAN_POINT('',(-17.9098897082396,4.80000000000347,21.5));
#1018=CARTESIAN_POINT('',(-18.3472929552401,4.5533333333368,22.3333333333333));
#1019=CARTESIAN_POINT('',(-18.7846962022405,4.30666666667013,23.1666666666667));
#1020=CARTESIAN_POINT('',(-19.222099449241,4.06000000000346,24.));
#1021=CARTESIAN_POINT('',(-25.2499999999985,4.80000000000347,21.5));
#1022=CARTESIAN_POINT('',(-25.8666666666657,4.5533333333368,22.3333333333333));
#1023=CARTESIAN_POINT('',(-26.4833333333328,4.30666666667013,23.1666666666667));
#1024=CARTESIAN_POINT('',(-27.1,4.06000000000346,24.));
#1025=CARTESIAN_POINT('',(25.2411918676514,42.99104686519,21.5));
#1026=CARTESIAN_POINT('',(25.255528020565,42.9764747056629,21.5));
#1027=CARTESIAN_POINT('',(25.2472359897198,42.9097575304838,21.5));
#1028=CARTESIAN_POINT('',(25.2513820051424,42.7973945228019,21.5));
#1029=CARTESIAN_POINT('',(25.2490786632409,42.5910430291246,21.5));
#1030=CARTESIAN_POINT('',(25.2506142245086,42.1845834025629,21.5));
#1031=CARTESIAN_POINT('',(25.2495905169968,41.3675019089109,21.5));
#1032=CARTESIAN_POINT('',(25.2502729886713,39.7361137486259,21.5));
#1033=CARTESIAN_POINT('',(25.249818007555,36.4714875433766,21.5));
#1034=CARTESIAN_POINT('',(25.2501213282992,29.9434683893309,21.5));
#1035=CARTESIAN_POINT('',(25.2499595572356,20.6171218577673,21.5));
#1036=CARTESIAN_POINT('',(25.2500000000015,12.2235990786828,21.5));
#1037=CARTESIAN_POINT('',(25.2500000000015,7.09419892512933,21.5));
#1038=CARTESIAN_POINT('',(25.2500000000015,5.63698297241528,21.5));
#1039=CARTESIAN_POINT('',(25.2500000000015,5.05409659132966,21.5));
#1040=CARTESIAN_POINT('',(25.2475628701229,4.92542440632299,21.5));
#1041=CARTESIAN_POINT('',(25.2524371298801,4.83303694768496,21.5));
#1042=CARTESIAN_POINT('',(25.2446758449635,4.80449560268947,21.5));
#1043=CARTESIAN_POINT('',(25.2218418854944,4.79856114349269,21.5));
#1044=CARTESIAN_POINT('',(25.1910462498765,4.80071942825886,21.5));
#1045=CARTESIAN_POINT('',(25.1138488875778,4.79904076232961,21.5));
#1046=CARTESIAN_POINT('',(24.8103360508565,4.80153478028164,21.5));
#1047=CARTESIAN_POINT('',(23.6096985370465,4.79787619594287,21.5));
#1048=CARTESIAN_POINT('',(21.5453505565872,4.79781720138563,21.5));
#1049=CARTESIAN_POINT('',(16.0359729445223,4.80218279862131,21.5));
#1050=CARTESIAN_POINT('',(7.78049631291643,4.80000000000347,21.5));
#1051=CARTESIAN_POINT('',(-6.89972427060132,4.80000000000347,21.5));
#1052=CARTESIAN_POINT('',(-17.9098897082396,4.80000000000347,21.5));
#1053=CARTESIAN_POINT('',(-25.2499999999985,4.80000000000347,21.5));
#1054=CARTESIAN_POINT('',(-25.2499999999985,4.80000000000346,21.5));
#1055=CARTESIAN_POINT('',(25.2411918676514,42.99104686519,21.5));
#1056=CARTESIAN_POINT('',(-25.2499999999985,4.80000000000346,21.5));
#1057=CARTESIAN_POINT('',(-25.8666666666657,4.55333333333679,22.3333333333333));
#1058=CARTESIAN_POINT('',(-26.4833333333328,4.30666666667013,23.1666666666667));
#1059=CARTESIAN_POINT('',(-27.1,4.06000000000346,24.));
#1060=CARTESIAN_POINT('',(25.2411918676514,42.99104686519,21.5));
#1061=CARTESIAN_POINT('',(25.857643418214,43.2375979067299,22.3333333333333));
#1062=CARTESIAN_POINT('',(26.4740949687765,43.4841489482699,23.1666666666667));
#1063=CARTESIAN_POINT('',(27.0905465193391,43.7306999898098,24.));
#1064=CARTESIAN_POINT('',(-0.00482339039076067,23.8963516343835,21.5));
#1065=CARTESIAN_POINT('',(-25.2499999999985,4.80000000000346,21.5));
#1066=CARTESIAN_POINT('',(-25.2499999999985,12.2609456778994,21.5));
#1067=CARTESIAN_POINT('',(-25.2499999999985,23.4523641947433,21.5));
#1068=CARTESIAN_POINT('',(-25.2499999999985,35.5764009213242,21.5));
#1069=CARTESIAN_POINT('',(-25.2499999999985,40.7058010748776,21.5));
#1070=CARTESIAN_POINT('',(-25.2499999999985,42.1630170275916,21.5));
#1071=CARTESIAN_POINT('',(-25.2499999999985,42.7459034086773,21.5));
#1072=CARTESIAN_POINT('',(-25.2475628701199,42.874575593684,21.5));
#1073=CARTESIAN_POINT('',(-25.2524371298771,42.966963052322,21.5));
#1074=CARTESIAN_POINT('',(-25.2446758449605,42.9955043973175,21.5));
#1075=CARTESIAN_POINT('',(-25.2218418854914,43.0014388565143,21.5));
#1076=CARTESIAN_POINT('',(-25.1910462498735,42.9992805717481,21.5));
#1077=CARTESIAN_POINT('',(-25.1138488875748,43.0009592376773,21.5));
#1078=CARTESIAN_POINT('',(-24.8103360508535,42.9984652197253,21.5));
#1079=CARTESIAN_POINT('',(-22.6949270979502,43.0049112968936,21.5));
#1080=CARTESIAN_POINT('',(-16.9513359141357,42.9956378284802,21.5));
#1081=CARTESIAN_POINT('',(-7.78052327475738,42.9999725943045,21.5));
#1082=CARTESIAN_POINT('',(3.22964601457293,42.9999765094044,21.5));
#1083=CARTESIAN_POINT('',(12.4049283177212,43.0001233256488,21.5));
#1084=CARTESIAN_POINT('',(18.827221502266,42.9998150115355,21.5));
#1085=CARTESIAN_POINT('',(22.0389747360268,43.0002774827054,21.5));
#1086=CARTESIAN_POINT('',(23.6439413906746,42.9995837759506,21.5));
#1087=CARTESIAN_POINT('',(24.4477896613474,43.0006243360828,21.5));
#1088=CARTESIAN_POINT('',(24.8476663816604,42.9990634958845,21.5));
#1089=CARTESIAN_POINT('',(25.0506758643521,43.0014047561819,21.5));
#1090=CARTESIAN_POINT('',(25.1612190722382,42.9971904876466,21.5));
#1091=CARTESIAN_POINT('',(25.2268557147378,43.0056190247171,21.5));
#1092=CARTESIAN_POINT('',(25.2411918676514,42.99104686519,21.5));
#1093=CARTESIAN_POINT('',(-25.2499999999985,4.80000000000346,21.5));
#1094=CARTESIAN_POINT('',(-25.8666666666657,4.55333333333679,22.3333333333333));
#1095=CARTESIAN_POINT('',(-26.4833333333328,4.30666666667013,23.1666666666667));
#1096=CARTESIAN_POINT('',(-27.1,4.06000000000346,24.));
#1097=CARTESIAN_POINT('',(-25.2499999999985,12.2609456778994,21.5));
#1098=CARTESIAN_POINT('',(-25.8666666666657,12.1106332835127,22.3333333333333));
#1099=CARTESIAN_POINT('',(-26.4833333333328,11.960320889126,23.1666666666667));
#1100=CARTESIAN_POINT('',(-27.1,11.8100084947393,24.));
#1101=CARTESIAN_POINT('',(-25.2499999999985,23.4523641947433,21.5));
#1102=CARTESIAN_POINT('',(-25.8666666666657,23.4465832087766,22.3333333333333));
#1103=CARTESIAN_POINT('',(-26.4833333333328,23.4408022228099,23.1666666666667));
#1104=CARTESIAN_POINT('',(-27.1,23.4350212368432,24.));
#1105=CARTESIAN_POINT('',(-25.2499999999985,35.5764009213242,21.5));
#1106=CARTESIAN_POINT('',(-25.8666666666657,35.7271956278124,22.3333333333333));
#1107=CARTESIAN_POINT('',(-26.4833333333328,35.8779903343007,23.1666666666667));
#1108=CARTESIAN_POINT('',(-27.1,36.0287850407889,24.));
#1109=CARTESIAN_POINT('',(-25.2499999999985,40.7058010748776,21.5));
#1110=CARTESIAN_POINT('',(-25.8666666666657,40.9228393435584,22.3333333333333));
#1111=CARTESIAN_POINT('',(-26.4833333333328,41.1398776122391,23.1666666666667));
#1112=CARTESIAN_POINT('',(-27.1,41.3569158809199,24.));
#1113=CARTESIAN_POINT('',(-25.2499999999985,42.1630170275916,21.5));
#1114=CARTESIAN_POINT('',(-25.8666666666657,42.3988744900771,22.3333333333333));
#1115=CARTESIAN_POINT('',(-26.4833333333328,42.6347319525625,23.1666666666667));
#1116=CARTESIAN_POINT('',(-27.1,42.870589415048,24.));
#1117=CARTESIAN_POINT('',(-25.2499999999985,42.7459034086773,21.5));
#1118=CARTESIAN_POINT('',(-25.8666666666657,42.9892885486846,22.3333333333333));
#1119=CARTESIAN_POINT('',(-26.4833333333328,43.2326736886919,23.1666666666667));
#1120=CARTESIAN_POINT('',(-27.1,43.4760588286992,24.));
#1121=CARTESIAN_POINT('',(-25.2475628701199,42.874575593684,21.5));
#1122=CARTESIAN_POINT('',(-25.8641700161234,43.1196224687158,22.3333333333333));
#1123=CARTESIAN_POINT('',(-26.4807771621268,43.3646693437476,23.1666666666667));
#1124=CARTESIAN_POINT('',(-27.0973843081303,43.6097162187794,24.));
#1125=CARTESIAN_POINT('',(-25.2524371298771,42.966963052322,21.5));
#1126=CARTESIAN_POINT('',(-25.869163317208,43.2132030638179,22.3333333333333));
#1127=CARTESIAN_POINT('',(-26.4858895045388,43.4594430753138,23.1666666666667));
#1128=CARTESIAN_POINT('',(-27.1026156918697,43.7056830868097,24.));
#1129=CARTESIAN_POINT('',(-25.2446758449605,42.9955043973175,21.5));
#1130=CARTESIAN_POINT('',(-25.8612124827587,43.2421130055899,22.3333333333333));
#1131=CARTESIAN_POINT('',(-26.477749120557,43.4887216138624,23.1666666666667));
#1132=CARTESIAN_POINT('',(-27.0942857583552,43.7353302221349,24.));
#1133=CARTESIAN_POINT('',(-25.2218418854914,43.0014388565143,21.5));
#1134=CARTESIAN_POINT('',(-25.8378208622333,43.248124105272,22.3333333333333));
#1135=CARTESIAN_POINT('',(-26.4537998389752,43.4948093540297,23.1666666666667));
#1136=CARTESIAN_POINT('',(-27.0697788157171,43.7414946027875,24.));
#1137=CARTESIAN_POINT('',(-25.1910462498735,42.9992805717481,21.5));
#1138=CARTESIAN_POINT('',(-25.8062731219831,43.2459379473692,22.3333333333333));
#1139=CARTESIAN_POINT('',(-26.4214999940928,43.4925953229904,23.1666666666667));
#1140=CARTESIAN_POINT('',(-27.0367268662024,43.7392526986115,24.));
#1141=CARTESIAN_POINT('',(-25.1138488875748,43.0009592376773,21.5));
#1142=CARTESIAN_POINT('',(-25.7271904115623,43.2476382924047,22.3333333333333));
#1143=CARTESIAN_POINT('',(-26.3405319355498,43.4943173471321,23.1666666666667));
#1144=CARTESIAN_POINT('',(-26.9538734595373,43.7409964018595,24.));
#1145=CARTESIAN_POINT('',(-24.8103360508535,42.9984652197253,21.5));
#1146=CARTESIAN_POINT('',(-25.4162650501158,43.2451120654949,22.3333333333333));
#1147=CARTESIAN_POINT('',(-26.0221940493781,43.4917589112644,23.1666666666667));
#1148=CARTESIAN_POINT('',(-26.6281230486404,43.7384057570339,24.));
#1149=CARTESIAN_POINT('',(-22.6949270979502,43.0049112968936,21.5));
#1150=CARTESIAN_POINT('',(-23.2491926442373,43.2516413904311,22.3333333333333));
#1151=CARTESIAN_POINT('',(-23.8034581905244,43.4983714839686,23.1666666666667));
#1152=CARTESIAN_POINT('',(-24.3577237368115,43.7451015775061,24.));
#1153=CARTESIAN_POINT('',(-16.9513359141357,42.9956378284802,21.5));
#1154=CARTESIAN_POINT('',(-17.3653289364617,43.2422481599474,22.3333333333333));
#1155=CARTESIAN_POINT('',(-17.7793219587876,43.4888584914147,23.1666666666667));
#1156=CARTESIAN_POINT('',(-18.1933149811136,43.7354688228819,24.));
#1157=CARTESIAN_POINT('',(-7.78052327475738,42.9999725943045,21.5));
#1158=CARTESIAN_POINT('',(-7.97054265506551,43.2466389070407,22.3333333333333));
#1159=CARTESIAN_POINT('',(-8.16056203537365,43.4933052197769,23.1666666666667));
#1160=CARTESIAN_POINT('',(-8.35058141568179,43.7399715325131,24.));
#1161=CARTESIAN_POINT('',(3.22964601457293,42.9999765094044,21.5));
#1162=CARTESIAN_POINT('',(3.30852185783259,43.2466428727021,22.3333333333333));
#1163=CARTESIAN_POINT('',(3.38739770109225,43.4933092359997,23.1666666666667));
#1164=CARTESIAN_POINT('',(3.46627354435191,43.7399755992974,24.));
#1165=CARTESIAN_POINT('',(12.4049283177212,43.0001233256488,21.5));
#1166=CARTESIAN_POINT('',(12.7078869631039,43.2467915850027,22.3333333333333));
#1167=CARTESIAN_POINT('',(13.0108456084867,43.4934598443565,23.1666666666667));
#1168=CARTESIAN_POINT('',(13.3138042538694,43.7401281037104,24.));
#1169=CARTESIAN_POINT('',(18.827221502266,42.9998150115355,21.5));
#1170=CARTESIAN_POINT('',(19.2870282320237,43.2464792891714,22.3333333333333));
#1171=CARTESIAN_POINT('',(19.7468349617815,43.4931435668072,23.1666666666667));
#1172=CARTESIAN_POINT('',(20.2066416915392,43.7398078444431,24.));
#1173=CARTESIAN_POINT('',(22.0389747360268,43.0002774827054,21.5));
#1174=CARTESIAN_POINT('',(22.5772203236388,43.2469477329183,22.3333333333333));
#1175=CARTESIAN_POINT('',(23.1154659112508,43.4936179831312,23.1666666666667));
#1176=CARTESIAN_POINT('',(23.6537114988628,43.7402882333441,24.));
#1177=CARTESIAN_POINT('',(23.6439413906746,42.9995837759506,21.5));
#1178=CARTESIAN_POINT('',(24.2213841837136,43.2462450672979,22.3333333333333));
#1179=CARTESIAN_POINT('',(24.7988269767526,43.4929063586452,23.1666666666667));
#1180=CARTESIAN_POINT('',(25.3762697697916,43.7395676499925,24.));
#1181=CARTESIAN_POINT('',(24.4477896613474,43.0006243360828,21.5));
#1182=CARTESIAN_POINT('',(25.0448643923501,43.2472990657285,22.3333333333333));
#1183=CARTESIAN_POINT('',(25.6419391233528,43.4939737953742,23.1666666666667));
#1184=CARTESIAN_POINT('',(26.2390138543554,43.7406485250199,24.));
#1185=CARTESIAN_POINT('',(24.8476663816604,42.9990634958845,21.5));
#1186=CARTESIAN_POINT('',(25.4545070787697,43.2457180680826,22.3333333333333));
#1187=CARTESIAN_POINT('',(26.061347775879,43.4923726402808,23.1666666666667));
#1188=CARTESIAN_POINT('',(26.6681884729883,43.7390272124789,24.));
#1189=CARTESIAN_POINT('',(25.0506758643521,43.0014047561819,21.5));
#1190=CARTESIAN_POINT('',(25.6624745488275,43.2480895645514,22.3333333333333));
#1191=CARTESIAN_POINT('',(26.2742732333028,43.4947743729209,23.1666666666667));
#1192=CARTESIAN_POINT('',(26.8860719177782,43.7414591812904,24.));
#1193=CARTESIAN_POINT('',(25.1612190722382,42.9971904876466,21.5));
#1194=CARTESIAN_POINT('',(25.7757174918237,43.2438208709077,22.3333333333333));
#1195=CARTESIAN_POINT('',(26.3902159114092,43.4904512541687,23.1666666666667));
#1196=CARTESIAN_POINT('',(27.0047143309946,43.7370816374297,24.));
#1197=CARTESIAN_POINT('',(25.2268557147378,43.0056190247171,21.5));
#1198=CARTESIAN_POINT('',(25.8429571414338,43.2523582581951,22.3333333333333));
#1199=CARTESIAN_POINT('',(26.4590585681298,43.4990974916731,23.1666666666667));
#1200=CARTESIAN_POINT('',(27.0751599948259,43.7458367251511,24.));
#1201=CARTESIAN_POINT('',(25.2411918676514,42.99104686519,21.5));
#1202=CARTESIAN_POINT('',(25.857643418214,43.2375979067299,22.3333333333333));
#1203=CARTESIAN_POINT('',(26.4740949687765,43.4841489482699,23.1666666666667));
#1204=CARTESIAN_POINT('',(27.0905465193391,43.7306999898098,24.));
#1205=CARTESIAN_POINT('',(0.,5.41249990463257,197.874954223633));
#1206=CARTESIAN_POINT('',(0.,0.,0.));
#1207=CARTESIAN_POINT('',(-49.335767048439,-49.335767048439,197.874954223633));
#1208=CARTESIAN_POINT('',(0.,-65.1394119262695,12.));
#1209=CARTESIAN_POINT('',(0.,0.,0.));
#1210=CARTESIAN_POINT('',(-16.2410794487649,-16.2410794487649,65.1394119262695));
#1211=CARTESIAN_POINT('',(105.089027404785,5.41249990463257,12.));
#1212=CARTESIAN_POINT('',(0.,0.,0.));
#1213=CARTESIAN_POINT('',(-26.2016372700203,-26.2016372700203,105.089027404785));
#1214=CARTESIAN_POINT('',(0.,65.1394119262695,12.));
#1215=CARTESIAN_POINT('',(0.,0.,0.));
#1216=CARTESIAN_POINT('',(-16.2410794487649,-16.2410794487649,65.1394119262695));
#1217=CARTESIAN_POINT('',(0.,5.41249990463257,-197.874954223633));
#1218=CARTESIAN_POINT('',(0.,0.,0.));
#1219=CARTESIAN_POINT('',(-49.335767048439,-49.335767048439,197.874954223633));
#1220=CARTESIAN_POINT('',(-105.089027404785,5.41249990463257,12.));
#1221=CARTESIAN_POINT('',(0.,0.,0.));
#1222=CARTESIAN_POINT('',(-26.2016372700203,-26.2016372700203,105.089027404785));
#1223=CARTESIAN_POINT('',(88.290894985199,-84.2158951759338,101.253395080566));
#1224=CARTESIAN_POINT('',(0.,0.,0.));
#1225=CARTESIAN_POINT('',(-39.4076662223352,-39.4076662223352,158.055516642697));
#1226=CARTESIAN_POINT('',(85.5804225326655,-65.3248964384301,57.1214294349566));
#1227=CARTESIAN_POINT('',(0.,0.,0.));
#1228=CARTESIAN_POINT('',(-30.2146110630716,-30.2146110630716,121.184186213627));
#1229=MECHANICAL_DESIGN_GEOMETRIC_PRESENTATION_REPRESENTATION('',(#348,
#349,#350,#351,#352,#353,#354,#355,#356,#357,#358,#359,#360,#361,#362,#363,
#364,#365,#366,#367,#368,#369),#1230);
#1230=(
GEOMETRIC_REPRESENTATION_CONTEXT(3)
GLOBAL_UNCERTAINTY_ASSIGNED_CONTEXT((#1231))
GLOBAL_UNIT_ASSIGNED_CONTEXT((#1234,#1233,#1232))
REPRESENTATION_CONTEXT('fnirsi_oscilloscope','TOP_LEVEL_ASSEMBLY_PART')
);
#1231=UNCERTAINTY_MEASURE_WITH_UNIT(LENGTH_MEASURE(0.005),#1234,
'DISTANCE_ACCURACY_VALUE','Maximum Tolerance applied to model');
#1232=(
NAMED_UNIT(*)
SI_UNIT($,.STERADIAN.)
SOLID_ANGLE_UNIT()
);
#1233=(
NAMED_UNIT(*)
PLANE_ANGLE_UNIT()
SI_UNIT($,.RADIAN.)
);
#1234=(
LENGTH_UNIT()
NAMED_UNIT(*)
SI_UNIT(.MILLI.,.METRE.)
);
#1235=PRODUCT_DEFINITION_SHAPE('','',#1236);
#1236=PRODUCT_DEFINITION('','',#1238,#1237);
#1237=PRODUCT_DEFINITION_CONTEXT('',#1244,'design');
#1238=PRODUCT_DEFINITION_FORMATION_WITH_SPECIFIED_SOURCE('','',#1240,
 .NOT_KNOWN.);
#1239=PRODUCT_RELATED_PRODUCT_CATEGORY('','',(#1240));
#1240=PRODUCT('fnirsi_oscilloscope','fnirsi_oscilloscope',
'fnirsi_oscilloscope',(#1242));
#1241=PRODUCT_CATEGORY('','');
#1242=PRODUCT_CONTEXT('',#1244,'mechanical');
#1243=APPLICATION_PROTOCOL_DEFINITION('international standard',
'ap242_managed_model_based_3d_engineering',2020,#1244);
#1244=APPLICATION_CONTEXT('managed model based 3d engineering');
ENDSEC;
END-ISO-10303-21;
