ISO-10303-21;
HEADER;
FILE_DESCRIPTION(('STEP AP242'),
    '1');
FILE_NAME('¬нешн€€ прищепка',
    '',
    ('UNSPECIFIED'),
    ('UNSPECIFIED'),
    'C3D Converter',
    'C3D Toolkit',
    '');
FILE_SCHEMA(('AP242_MANAGED_MODEL_BASED_3D_ENGINEERING_MIM_LF { 1 0 10303 442 1 1 4 }'));
ENDSEC;

DATA;
#1=PRODUCT_DEFINITION('','UNSPECIFIED',#28,#31);
#2=SHAPE_DEFINITION_REPRESENTATION(#26,#3);
#3=SHAPE_REPRESENTATION('NONE',(#4),#8);
#4=AXIS2_PLACEMENT_3D('',#5,#6,#7);
#5=CARTESIAN_POINT('',(0.,0.,0.));
#6=DIRECTION('',(0.,0.,1.));
#7=DIRECTION('',(1.,0.,0.));
#8=(GEOMETRIC_REPRESENTATION_CONTEXT(3)GLOBAL_UNCERTAINTY_ASSIGNED_CONTEXT((#10))
GLOBAL_UNIT_ASSIGNED_CONTEXT((#9,#11,#12))REPRESENTATION_CONTEXT('NONE','NONE'));
#9=(LENGTH_UNIT()NAMED_UNIT(*)SI_UNIT(.MILLI.,.METRE.));
#10=UNCERTAINTY_MEASURE_WITH_UNIT(LENGTH_MEASURE(1.E-5),#9,'NONE','NONE');
#11=(NAMED_UNIT(*)PLANE_ANGLE_UNIT()SI_UNIT($,.RADIAN.));
#12=(NAMED_UNIT(*)SI_UNIT($,.STERADIAN.)SOLID_ANGLE_UNIT());
#13=MANIFOLD_SOLID_BREP('',#14);
#14=CLOSED_SHELL('',(#53,#62,#71,#80,#89,#98,#107,#116,#125,#134,#143,#152,#161,
#170,#179,#188,#197,#206,#215,#224,#233,#242,#251,#260,#269,#278,#287,#296,#305,
#314,#323,#332,#341,#350,#359,#368,#377,#386,#395,#404,#413,#422,#431,#440,#449));
#15=COLOUR_RGB('',0.564705882352941,0.564705882352941,0.564705882352941);
#16=FILL_AREA_STYLE_COLOUR('',#15);
#17=FILL_AREA_STYLE($,(#16));
#18=SURFACE_STYLE_FILL_AREA(#17);
#19=SURFACE_SIDE_STYLE('',(#18));
#20=SURFACE_STYLE_USAGE(.BOTH.,#19);
#21=PRESENTATION_STYLE_ASSIGNMENT((#20));
#22=MECHANICAL_DESIGN_GEOMETRIC_PRESENTATION_REPRESENTATION('NONE',(#23,#61,#70,
#79,#88,#97,#106,#115,#124,#133,#142,#151,#160,#169,#178,#187,#196,#205,#214,#223,
#232,#241,#250,#259,#268,#277,#286,#295,#304,#313,#322,#331,#340,#349,#358,#367,
#376,#385,#394,#403,#412,#421,#430,#439,#448,#457),#8);
#23=STYLED_ITEM('',(#21),#13);
#24=ADVANCED_BREP_SHAPE_REPRESENTATION('NONE',(#13),#8);
#25=SHAPE_REPRESENTATION_RELATIONSHIP('','',#3,#24);
#26=PRODUCT_DEFINITION_SHAPE('NONE','NONE',#1);
#27=MECHANICAL_CONTEXT('NONE',#32,'mechanical');
#28=PRODUCT_DEFINITION_FORMATION_WITH_SPECIFIED_SOURCE('ANY','UNSPECIFIED',#29,.NOT_KNOWN.);
#29=PRODUCT('','\X2\0414043504420430043B044C\X0\','NONE',(#27));
#30=PRODUCT_RELATED_PRODUCT_CATEGORY('detail','',(#29));
#31=DESIGN_CONTEXT('detailed design',#32,'design');
#32=APPLICATION_CONTEXT('configuration controlled 3d designs of mechanical parts and assemblies');
#33=APPLICATION_PROTOCOL_DEFINITION('international standard','config_control_design',
1994,#32);
#34=CC_DESIGN_DATE_AND_TIME_ASSIGNMENT(#35,#39,(#1));
#35=DATE_AND_TIME(#36,#37);
#36=CALENDAR_DATE(0,1,1);
#37=LOCAL_TIME(0,0,0.,#38);
#38=COORDINATED_UNIVERSAL_TIME_OFFSET(0,0,.AHEAD.);
#39=DATE_TIME_ROLE('creation_date');
#40=CC_DESIGN_APPROVAL(#41,(#1));
#41=APPROVAL(#42,'UNSPECIFIED');
#42=APPROVAL_STATUS('not_yet_approved');
#43=APPROVAL_DATE_TIME(#44,#41);
#44=DATE_AND_TIME(#45,#46);
#45=CALENDAR_DATE(0,1,1);
#46=LOCAL_TIME(0,0,0.,#47);
#47=COORDINATED_UNIVERSAL_TIME_OFFSET(0,0,.AHEAD.);
#48=PERSON('UNSPECIFIED','savvig','UNSPECIFIED',('UNSPECIFIED'),('UNSPECIFIED'),
('UNSPECIFIED'));
#49=ORGANIZATION('UNSPECIFIED','UNSPECIFIED','UNSPECIFIED');
#50=PERSON_AND_ORGANIZATION(#48,#49);
#51=PERSON_AND_ORGANIZATION_ROLE('creator');
#52=CC_DESIGN_PERSON_AND_ORGANIZATION_ASSIGNMENT(#50,#51,(#28,#1));
#53=ADVANCED_FACE('',(#458,#460),#462,.T.);
#54=COLOUR_RGB('',0.564705882352941,0.564705882352941,0.564705882352941);
#55=FILL_AREA_STYLE_COLOUR('',#54);
#56=FILL_AREA_STYLE($,(#55));
#57=SURFACE_STYLE_FILL_AREA(#56);
#58=SURFACE_SIDE_STYLE('',(#57));
#59=SURFACE_STYLE_USAGE(.BOTH.,#58);
#60=PRESENTATION_STYLE_ASSIGNMENT((#59));
#61=STYLED_ITEM('',(#60),#53);
#62=ADVANCED_FACE('',(#467,#469),#471,.F.);
#63=COLOUR_RGB('',0.564705882352941,0.564705882352941,0.564705882352941);
#64=FILL_AREA_STYLE_COLOUR('',#63);
#65=FILL_AREA_STYLE($,(#64));
#66=SURFACE_STYLE_FILL_AREA(#65);
#67=SURFACE_SIDE_STYLE('',(#66));
#68=SURFACE_STYLE_USAGE(.BOTH.,#67);
#69=PRESENTATION_STYLE_ASSIGNMENT((#68));
#70=STYLED_ITEM('',(#69),#62);
#71=ADVANCED_FACE('',(#476),#478,.T.);
#72=COLOUR_RGB('',0.564705882352941,0.564705882352941,0.564705882352941);
#73=FILL_AREA_STYLE_COLOUR('',#72);
#74=FILL_AREA_STYLE($,(#73));
#75=SURFACE_STYLE_FILL_AREA(#74);
#76=SURFACE_SIDE_STYLE('',(#75));
#77=SURFACE_STYLE_USAGE(.BOTH.,#76);
#78=PRESENTATION_STYLE_ASSIGNMENT((#77));
#79=STYLED_ITEM('',(#78),#71);
#80=ADVANCED_FACE('',(#483),#485,.T.);
#81=COLOUR_RGB('',0.564705882352941,0.564705882352941,0.564705882352941);
#82=FILL_AREA_STYLE_COLOUR('',#81);
#83=FILL_AREA_STYLE($,(#82));
#84=SURFACE_STYLE_FILL_AREA(#83);
#85=SURFACE_SIDE_STYLE('',(#84));
#86=SURFACE_STYLE_USAGE(.BOTH.,#85);
#87=PRESENTATION_STYLE_ASSIGNMENT((#86));
#88=STYLED_ITEM('',(#87),#80);
#89=ADVANCED_FACE('',(#490),#492,.F.);
#90=COLOUR_RGB('',0.564705882352941,0.564705882352941,0.564705882352941);
#91=FILL_AREA_STYLE_COLOUR('',#90);
#92=FILL_AREA_STYLE($,(#91));
#93=SURFACE_STYLE_FILL_AREA(#92);
#94=SURFACE_SIDE_STYLE('',(#93));
#95=SURFACE_STYLE_USAGE(.BOTH.,#94);
#96=PRESENTATION_STYLE_ASSIGNMENT((#95));
#97=STYLED_ITEM('',(#96),#89);
#98=ADVANCED_FACE('',(#497),#499,.F.);
#99=COLOUR_RGB('',0.564705882352941,0.564705882352941,0.564705882352941);
#100=FILL_AREA_STYLE_COLOUR('',#99);
#101=FILL_AREA_STYLE($,(#100));
#102=SURFACE_STYLE_FILL_AREA(#101);
#103=SURFACE_SIDE_STYLE('',(#102));
#104=SURFACE_STYLE_USAGE(.BOTH.,#103);
#105=PRESENTATION_STYLE_ASSIGNMENT((#104));
#106=STYLED_ITEM('',(#105),#98);
#107=ADVANCED_FACE('',(#504),#506,.T.);
#108=COLOUR_RGB('',0.564705882352941,0.564705882352941,0.564705882352941);
#109=FILL_AREA_STYLE_COLOUR('',#108);
#110=FILL_AREA_STYLE($,(#109));
#111=SURFACE_STYLE_FILL_AREA(#110);
#112=SURFACE_SIDE_STYLE('',(#111));
#113=SURFACE_STYLE_USAGE(.BOTH.,#112);
#114=PRESENTATION_STYLE_ASSIGNMENT((#113));
#115=STYLED_ITEM('',(#114),#107);
#116=ADVANCED_FACE('',(#511),#513,.F.);
#117=COLOUR_RGB('',0.564705882352941,0.564705882352941,0.564705882352941);
#118=FILL_AREA_STYLE_COLOUR('',#117);
#119=FILL_AREA_STYLE($,(#118));
#120=SURFACE_STYLE_FILL_AREA(#119);
#121=SURFACE_SIDE_STYLE('',(#120));
#122=SURFACE_STYLE_USAGE(.BOTH.,#121);
#123=PRESENTATION_STYLE_ASSIGNMENT((#122));
#124=STYLED_ITEM('',(#123),#116);
#125=ADVANCED_FACE('',(#518),#520,.T.);
#126=COLOUR_RGB('',0.564705882352941,0.564705882352941,0.564705882352941);
#127=FILL_AREA_STYLE_COLOUR('',#126);
#128=FILL_AREA_STYLE($,(#127));
#129=SURFACE_STYLE_FILL_AREA(#128);
#130=SURFACE_SIDE_STYLE('',(#129));
#131=SURFACE_STYLE_USAGE(.BOTH.,#130);
#132=PRESENTATION_STYLE_ASSIGNMENT((#131));
#133=STYLED_ITEM('',(#132),#125);
#134=ADVANCED_FACE('',(#525),#527,.F.);
#135=COLOUR_RGB('',0.564705882352941,0.564705882352941,0.564705882352941);
#136=FILL_AREA_STYLE_COLOUR('',#135);
#137=FILL_AREA_STYLE($,(#136));
#138=SURFACE_STYLE_FILL_AREA(#137);
#139=SURFACE_SIDE_STYLE('',(#138));
#140=SURFACE_STYLE_USAGE(.BOTH.,#139);
#141=PRESENTATION_STYLE_ASSIGNMENT((#140));
#142=STYLED_ITEM('',(#141),#134);
#143=ADVANCED_FACE('',(#532,#534),#536,.F.);
#144=COLOUR_RGB('',0.564705882352941,0.564705882352941,0.564705882352941);
#145=FILL_AREA_STYLE_COLOUR('',#144);
#146=FILL_AREA_STYLE($,(#145));
#147=SURFACE_STYLE_FILL_AREA(#146);
#148=SURFACE_SIDE_STYLE('',(#147));
#149=SURFACE_STYLE_USAGE(.BOTH.,#148);
#150=PRESENTATION_STYLE_ASSIGNMENT((#149));
#151=STYLED_ITEM('',(#150),#143);
#152=ADVANCED_FACE('',(#541),#543,.T.);
#153=COLOUR_RGB('',0.564705882352941,0.564705882352941,0.564705882352941);
#154=FILL_AREA_STYLE_COLOUR('',#153);
#155=FILL_AREA_STYLE($,(#154));
#156=SURFACE_STYLE_FILL_AREA(#155);
#157=SURFACE_SIDE_STYLE('',(#156));
#158=SURFACE_STYLE_USAGE(.BOTH.,#157);
#159=PRESENTATION_STYLE_ASSIGNMENT((#158));
#160=STYLED_ITEM('',(#159),#152);
#161=ADVANCED_FACE('',(#548),#550,.T.);
#162=COLOUR_RGB('',0.564705882352941,0.564705882352941,0.564705882352941);
#163=FILL_AREA_STYLE_COLOUR('',#162);
#164=FILL_AREA_STYLE($,(#163));
#165=SURFACE_STYLE_FILL_AREA(#164);
#166=SURFACE_SIDE_STYLE('',(#165));
#167=SURFACE_STYLE_USAGE(.BOTH.,#166);
#168=PRESENTATION_STYLE_ASSIGNMENT((#167));
#169=STYLED_ITEM('',(#168),#161);
#170=ADVANCED_FACE('',(#555),#557,.T.);
#171=COLOUR_RGB('',0.564705882352941,0.564705882352941,0.564705882352941);
#172=FILL_AREA_STYLE_COLOUR('',#171);
#173=FILL_AREA_STYLE($,(#172));
#174=SURFACE_STYLE_FILL_AREA(#173);
#175=SURFACE_SIDE_STYLE('',(#174));
#176=SURFACE_STYLE_USAGE(.BOTH.,#175);
#177=PRESENTATION_STYLE_ASSIGNMENT((#176));
#178=STYLED_ITEM('',(#177),#170);
#179=ADVANCED_FACE('',(#562,#564),#566,.F.);
#180=COLOUR_RGB('',0.564705882352941,0.564705882352941,0.564705882352941);
#181=FILL_AREA_STYLE_COLOUR('',#180);
#182=FILL_AREA_STYLE($,(#181));
#183=SURFACE_STYLE_FILL_AREA(#182);
#184=SURFACE_SIDE_STYLE('',(#183));
#185=SURFACE_STYLE_USAGE(.BOTH.,#184);
#186=PRESENTATION_STYLE_ASSIGNMENT((#185));
#187=STYLED_ITEM('',(#186),#179);
#188=ADVANCED_FACE('',(#571,#573),#575,.T.);
#189=COLOUR_RGB('',0.564705882352941,0.564705882352941,0.564705882352941);
#190=FILL_AREA_STYLE_COLOUR('',#189);
#191=FILL_AREA_STYLE($,(#190));
#192=SURFACE_STYLE_FILL_AREA(#191);
#193=SURFACE_SIDE_STYLE('',(#192));
#194=SURFACE_STYLE_USAGE(.BOTH.,#193);
#195=PRESENTATION_STYLE_ASSIGNMENT((#194));
#196=STYLED_ITEM('',(#195),#188);
#197=ADVANCED_FACE('',(#580),#582,.T.);
#198=COLOUR_RGB('',0.564705882352941,0.564705882352941,0.564705882352941);
#199=FILL_AREA_STYLE_COLOUR('',#198);
#200=FILL_AREA_STYLE($,(#199));
#201=SURFACE_STYLE_FILL_AREA(#200);
#202=SURFACE_SIDE_STYLE('',(#201));
#203=SURFACE_STYLE_USAGE(.BOTH.,#202);
#204=PRESENTATION_STYLE_ASSIGNMENT((#203));
#205=STYLED_ITEM('',(#204),#197);
#206=ADVANCED_FACE('',(#587),#589,.T.);
#207=COLOUR_RGB('',0.564705882352941,0.564705882352941,0.564705882352941);
#208=FILL_AREA_STYLE_COLOUR('',#207);
#209=FILL_AREA_STYLE($,(#208));
#210=SURFACE_STYLE_FILL_AREA(#209);
#211=SURFACE_SIDE_STYLE('',(#210));
#212=SURFACE_STYLE_USAGE(.BOTH.,#211);
#213=PRESENTATION_STYLE_ASSIGNMENT((#212));
#214=STYLED_ITEM('',(#213),#206);
#215=ADVANCED_FACE('',(#594),#596,.T.);
#216=COLOUR_RGB('',0.564705882352941,0.564705882352941,0.564705882352941);
#217=FILL_AREA_STYLE_COLOUR('',#216);
#218=FILL_AREA_STYLE($,(#217));
#219=SURFACE_STYLE_FILL_AREA(#218);
#220=SURFACE_SIDE_STYLE('',(#219));
#221=SURFACE_STYLE_USAGE(.BOTH.,#220);
#222=PRESENTATION_STYLE_ASSIGNMENT((#221));
#223=STYLED_ITEM('',(#222),#215);
#224=ADVANCED_FACE('',(#601,#603),#605,.T.);
#225=COLOUR_RGB('',0.564705882352941,0.564705882352941,0.564705882352941);
#226=FILL_AREA_STYLE_COLOUR('',#225);
#227=FILL_AREA_STYLE($,(#226));
#228=SURFACE_STYLE_FILL_AREA(#227);
#229=SURFACE_SIDE_STYLE('',(#228));
#230=SURFACE_STYLE_USAGE(.BOTH.,#229);
#231=PRESENTATION_STYLE_ASSIGNMENT((#230));
#232=STYLED_ITEM('',(#231),#224);
#233=ADVANCED_FACE('',(#610),#612,.T.);
#234=COLOUR_RGB('',0.564705882352941,0.564705882352941,0.564705882352941);
#235=FILL_AREA_STYLE_COLOUR('',#234);
#236=FILL_AREA_STYLE($,(#235));
#237=SURFACE_STYLE_FILL_AREA(#236);
#238=SURFACE_SIDE_STYLE('',(#237));
#239=SURFACE_STYLE_USAGE(.BOTH.,#238);
#240=PRESENTATION_STYLE_ASSIGNMENT((#239));
#241=STYLED_ITEM('',(#240),#233);
#242=ADVANCED_FACE('',(#617),#619,.T.);
#243=COLOUR_RGB('',0.564705882352941,0.564705882352941,0.564705882352941);
#244=FILL_AREA_STYLE_COLOUR('',#243);
#245=FILL_AREA_STYLE($,(#244));
#246=SURFACE_STYLE_FILL_AREA(#245);
#247=SURFACE_SIDE_STYLE('',(#246));
#248=SURFACE_STYLE_USAGE(.BOTH.,#247);
#249=PRESENTATION_STYLE_ASSIGNMENT((#248));
#250=STYLED_ITEM('',(#249),#242);
#251=ADVANCED_FACE('',(#624),#626,.T.);
#252=COLOUR_RGB('',0.564705882352941,0.564705882352941,0.564705882352941);
#253=FILL_AREA_STYLE_COLOUR('',#252);
#254=FILL_AREA_STYLE($,(#253));
#255=SURFACE_STYLE_FILL_AREA(#254);
#256=SURFACE_SIDE_STYLE('',(#255));
#257=SURFACE_STYLE_USAGE(.BOTH.,#256);
#258=PRESENTATION_STYLE_ASSIGNMENT((#257));
#259=STYLED_ITEM('',(#258),#251);
#260=ADVANCED_FACE('',(#631),#633,.T.);
#261=COLOUR_RGB('',0.564705882352941,0.564705882352941,0.564705882352941);
#262=FILL_AREA_STYLE_COLOUR('',#261);
#263=FILL_AREA_STYLE($,(#262));
#264=SURFACE_STYLE_FILL_AREA(#263);
#265=SURFACE_SIDE_STYLE('',(#264));
#266=SURFACE_STYLE_USAGE(.BOTH.,#265);
#267=PRESENTATION_STYLE_ASSIGNMENT((#266));
#268=STYLED_ITEM('',(#267),#260);
#269=ADVANCED_FACE('',(#638),#640,.T.);
#270=COLOUR_RGB('',0.564705882352941,0.564705882352941,0.564705882352941);
#271=FILL_AREA_STYLE_COLOUR('',#270);
#272=FILL_AREA_STYLE($,(#271));
#273=SURFACE_STYLE_FILL_AREA(#272);
#274=SURFACE_SIDE_STYLE('',(#273));
#275=SURFACE_STYLE_USAGE(.BOTH.,#274);
#276=PRESENTATION_STYLE_ASSIGNMENT((#275));
#277=STYLED_ITEM('',(#276),#269);
#278=ADVANCED_FACE('',(#645),#647,.T.);
#279=COLOUR_RGB('',0.564705882352941,0.564705882352941,0.564705882352941);
#280=FILL_AREA_STYLE_COLOUR('',#279);
#281=FILL_AREA_STYLE($,(#280));
#282=SURFACE_STYLE_FILL_AREA(#281);
#283=SURFACE_SIDE_STYLE('',(#282));
#284=SURFACE_STYLE_USAGE(.BOTH.,#283);
#285=PRESENTATION_STYLE_ASSIGNMENT((#284));
#286=STYLED_ITEM('',(#285),#278);
#287=ADVANCED_FACE('',(#652),#654,.F.);
#288=COLOUR_RGB('',0.564705882352941,0.564705882352941,0.564705882352941);
#289=FILL_AREA_STYLE_COLOUR('',#288);
#290=FILL_AREA_STYLE($,(#289));
#291=SURFACE_STYLE_FILL_AREA(#290);
#292=SURFACE_SIDE_STYLE('',(#291));
#293=SURFACE_STYLE_USAGE(.BOTH.,#292);
#294=PRESENTATION_STYLE_ASSIGNMENT((#293));
#295=STYLED_ITEM('',(#294),#287);
#296=ADVANCED_FACE('',(#659,#661),#663,.F.);
#297=COLOUR_RGB('',0.564705882352941,0.564705882352941,0.564705882352941);
#298=FILL_AREA_STYLE_COLOUR('',#297);
#299=FILL_AREA_STYLE($,(#298));
#300=SURFACE_STYLE_FILL_AREA(#299);
#301=SURFACE_SIDE_STYLE('',(#300));
#302=SURFACE_STYLE_USAGE(.BOTH.,#301);
#303=PRESENTATION_STYLE_ASSIGNMENT((#302));
#304=STYLED_ITEM('',(#303),#296);
#305=ADVANCED_FACE('',(#668),#670,.T.);
#306=COLOUR_RGB('',0.564705882352941,0.564705882352941,0.564705882352941);
#307=FILL_AREA_STYLE_COLOUR('',#306);
#308=FILL_AREA_STYLE($,(#307));
#309=SURFACE_STYLE_FILL_AREA(#308);
#310=SURFACE_SIDE_STYLE('',(#309));
#311=SURFACE_STYLE_USAGE(.BOTH.,#310);
#312=PRESENTATION_STYLE_ASSIGNMENT((#311));
#313=STYLED_ITEM('',(#312),#305);
#314=ADVANCED_FACE('',(#675),#677,.T.);
#315=COLOUR_RGB('',0.564705882352941,0.564705882352941,0.564705882352941);
#316=FILL_AREA_STYLE_COLOUR('',#315);
#317=FILL_AREA_STYLE($,(#316));
#318=SURFACE_STYLE_FILL_AREA(#317);
#319=SURFACE_SIDE_STYLE('',(#318));
#320=SURFACE_STYLE_USAGE(.BOTH.,#319);
#321=PRESENTATION_STYLE_ASSIGNMENT((#320));
#322=STYLED_ITEM('',(#321),#314);
#323=ADVANCED_FACE('',(#682),#684,.T.);
#324=COLOUR_RGB('',0.564705882352941,0.564705882352941,0.564705882352941);
#325=FILL_AREA_STYLE_COLOUR('',#324);
#326=FILL_AREA_STYLE($,(#325));
#327=SURFACE_STYLE_FILL_AREA(#326);
#328=SURFACE_SIDE_STYLE('',(#327));
#329=SURFACE_STYLE_USAGE(.BOTH.,#328);
#330=PRESENTATION_STYLE_ASSIGNMENT((#329));
#331=STYLED_ITEM('',(#330),#323);
#332=ADVANCED_FACE('',(#689),#691,.T.);
#333=COLOUR_RGB('',0.564705882352941,0.564705882352941,0.564705882352941);
#334=FILL_AREA_STYLE_COLOUR('',#333);
#335=FILL_AREA_STYLE($,(#334));
#336=SURFACE_STYLE_FILL_AREA(#335);
#337=SURFACE_SIDE_STYLE('',(#336));
#338=SURFACE_STYLE_USAGE(.BOTH.,#337);
#339=PRESENTATION_STYLE_ASSIGNMENT((#338));
#340=STYLED_ITEM('',(#339),#332);
#341=ADVANCED_FACE('',(#696),#698,.T.);
#342=COLOUR_RGB('',0.564705882352941,0.564705882352941,0.564705882352941);
#343=FILL_AREA_STYLE_COLOUR('',#342);
#344=FILL_AREA_STYLE($,(#343));
#345=SURFACE_STYLE_FILL_AREA(#344);
#346=SURFACE_SIDE_STYLE('',(#345));
#347=SURFACE_STYLE_USAGE(.BOTH.,#346);
#348=PRESENTATION_STYLE_ASSIGNMENT((#347));
#349=STYLED_ITEM('',(#348),#341);
#350=ADVANCED_FACE('',(#703),#705,.T.);
#351=COLOUR_RGB('',0.564705882352941,0.564705882352941,0.564705882352941);
#352=FILL_AREA_STYLE_COLOUR('',#351);
#353=FILL_AREA_STYLE($,(#352));
#354=SURFACE_STYLE_FILL_AREA(#353);
#355=SURFACE_SIDE_STYLE('',(#354));
#356=SURFACE_STYLE_USAGE(.BOTH.,#355);
#357=PRESENTATION_STYLE_ASSIGNMENT((#356));
#358=STYLED_ITEM('',(#357),#350);
#359=ADVANCED_FACE('',(#710),#712,.T.);
#360=COLOUR_RGB('',0.564705882352941,0.564705882352941,0.564705882352941);
#361=FILL_AREA_STYLE_COLOUR('',#360);
#362=FILL_AREA_STYLE($,(#361));
#363=SURFACE_STYLE_FILL_AREA(#362);
#364=SURFACE_SIDE_STYLE('',(#363));
#365=SURFACE_STYLE_USAGE(.BOTH.,#364);
#366=PRESENTATION_STYLE_ASSIGNMENT((#365));
#367=STYLED_ITEM('',(#366),#359);
#368=ADVANCED_FACE('',(#717),#719,.T.);
#369=COLOUR_RGB('',0.564705882352941,0.564705882352941,0.564705882352941);
#370=FILL_AREA_STYLE_COLOUR('',#369);
#371=FILL_AREA_STYLE($,(#370));
#372=SURFACE_STYLE_FILL_AREA(#371);
#373=SURFACE_SIDE_STYLE('',(#372));
#374=SURFACE_STYLE_USAGE(.BOTH.,#373);
#375=PRESENTATION_STYLE_ASSIGNMENT((#374));
#376=STYLED_ITEM('',(#375),#368);
#377=ADVANCED_FACE('',(#724),#726,.F.);
#378=COLOUR_RGB('',0.564705882352941,0.564705882352941,0.564705882352941);
#379=FILL_AREA_STYLE_COLOUR('',#378);
#380=FILL_AREA_STYLE($,(#379));
#381=SURFACE_STYLE_FILL_AREA(#380);
#382=SURFACE_SIDE_STYLE('',(#381));
#383=SURFACE_STYLE_USAGE(.BOTH.,#382);
#384=PRESENTATION_STYLE_ASSIGNMENT((#383));
#385=STYLED_ITEM('',(#384),#377);
#386=ADVANCED_FACE('',(#731),#733,.F.);
#387=COLOUR_RGB('',0.564705882352941,0.564705882352941,0.564705882352941);
#388=FILL_AREA_STYLE_COLOUR('',#387);
#389=FILL_AREA_STYLE($,(#388));
#390=SURFACE_STYLE_FILL_AREA(#389);
#391=SURFACE_SIDE_STYLE('',(#390));
#392=SURFACE_STYLE_USAGE(.BOTH.,#391);
#393=PRESENTATION_STYLE_ASSIGNMENT((#392));
#394=STYLED_ITEM('',(#393),#386);
#395=ADVANCED_FACE('',(#738),#740,.F.);
#396=COLOUR_RGB('',0.564705882352941,0.564705882352941,0.564705882352941);
#397=FILL_AREA_STYLE_COLOUR('',#396);
#398=FILL_AREA_STYLE($,(#397));
#399=SURFACE_STYLE_FILL_AREA(#398);
#400=SURFACE_SIDE_STYLE('',(#399));
#401=SURFACE_STYLE_USAGE(.BOTH.,#400);
#402=PRESENTATION_STYLE_ASSIGNMENT((#401));
#403=STYLED_ITEM('',(#402),#395);
#404=ADVANCED_FACE('',(#745),#747,.F.);
#405=COLOUR_RGB('',0.564705882352941,0.564705882352941,0.564705882352941);
#406=FILL_AREA_STYLE_COLOUR('',#405);
#407=FILL_AREA_STYLE($,(#406));
#408=SURFACE_STYLE_FILL_AREA(#407);
#409=SURFACE_SIDE_STYLE('',(#408));
#410=SURFACE_STYLE_USAGE(.BOTH.,#409);
#411=PRESENTATION_STYLE_ASSIGNMENT((#410));
#412=STYLED_ITEM('',(#411),#404);
#413=ADVANCED_FACE('',(#752),#754,.F.);
#414=COLOUR_RGB('',0.564705882352941,0.564705882352941,0.564705882352941);
#415=FILL_AREA_STYLE_COLOUR('',#414);
#416=FILL_AREA_STYLE($,(#415));
#417=SURFACE_STYLE_FILL_AREA(#416);
#418=SURFACE_SIDE_STYLE('',(#417));
#419=SURFACE_STYLE_USAGE(.BOTH.,#418);
#420=PRESENTATION_STYLE_ASSIGNMENT((#419));
#421=STYLED_ITEM('',(#420),#413);
#422=ADVANCED_FACE('',(#759),#761,.F.);
#423=COLOUR_RGB('',0.564705882352941,0.564705882352941,0.564705882352941);
#424=FILL_AREA_STYLE_COLOUR('',#423);
#425=FILL_AREA_STYLE($,(#424));
#426=SURFACE_STYLE_FILL_AREA(#425);
#427=SURFACE_SIDE_STYLE('',(#426));
#428=SURFACE_STYLE_USAGE(.BOTH.,#427);
#429=PRESENTATION_STYLE_ASSIGNMENT((#428));
#430=STYLED_ITEM('',(#429),#422);
#431=ADVANCED_FACE('',(#766),#768,.F.);
#432=COLOUR_RGB('',0.564705882352941,0.564705882352941,0.564705882352941);
#433=FILL_AREA_STYLE_COLOUR('',#432);
#434=FILL_AREA_STYLE($,(#433));
#435=SURFACE_STYLE_FILL_AREA(#434);
#436=SURFACE_SIDE_STYLE('',(#435));
#437=SURFACE_STYLE_USAGE(.BOTH.,#436);
#438=PRESENTATION_STYLE_ASSIGNMENT((#437));
#439=STYLED_ITEM('',(#438),#431);
#440=ADVANCED_FACE('',(#773),#775,.F.);
#441=COLOUR_RGB('',0.564705882352941,0.564705882352941,0.564705882352941);
#442=FILL_AREA_STYLE_COLOUR('',#441);
#443=FILL_AREA_STYLE($,(#442));
#444=SURFACE_STYLE_FILL_AREA(#443);
#445=SURFACE_SIDE_STYLE('',(#444));
#446=SURFACE_STYLE_USAGE(.BOTH.,#445);
#447=PRESENTATION_STYLE_ASSIGNMENT((#446));
#448=STYLED_ITEM('',(#447),#440);
#449=ADVANCED_FACE('',(#780),#782,.T.);
#450=COLOUR_RGB('',0.564705882352941,0.564705882352941,0.564705882352941);
#451=FILL_AREA_STYLE_COLOUR('',#450);
#452=FILL_AREA_STYLE($,(#451));
#453=SURFACE_STYLE_FILL_AREA(#452);
#454=SURFACE_SIDE_STYLE('',(#453));
#455=SURFACE_STYLE_USAGE(.BOTH.,#454);
#456=PRESENTATION_STYLE_ASSIGNMENT((#455));
#457=STYLED_ITEM('',(#456),#449);
#458=FACE_BOUND('',#459,.T.);
#459=EDGE_LOOP('',(#787,#788,#789,#790,#791,#792,#793,#794));
#460=FACE_BOUND('',#461,.T.);
#461=EDGE_LOOP('',(#795));
#462=PLANE('',#463);
#463=AXIS2_PLACEMENT_3D('',#464,#465,#466);
#464=CARTESIAN_POINT('',(9.473903143468E-16,-7.4,-9.06238631369041E-16));
#465=DIRECTION('',(-1.28025718154973E-16,1.,1.22464679914735E-16));
#466=DIRECTION('',(-1.,-1.28025718154973E-16,-1.22464679914735E-16));
#467=FACE_BOUND('',#468,.T.);
#468=EDGE_LOOP('',(#796,#797,#798,#799,#800,#801,#802,#803));
#469=FACE_BOUND('',#470,.T.);
#470=EDGE_LOOP('',(#804));
#471=PLANE('',#472);
#472=AXIS2_PLACEMENT_3D('',#473,#474,#475);
#473=CARTESIAN_POINT('',(9.473903143468E-16,7.4,0.));
#474=DIRECTION('',(1.28025718154973E-16,1.,0.));
#475=DIRECTION('',(-1.,1.28025718154973E-16,-1.22464679914735E-16));
#476=FACE_BOUND('',#477,.T.);
#477=EDGE_LOOP('',(#805,#806,#807,#808,#809,#810,#811,#812,#813,#814));
#478=PLANE('',#479);
#479=AXIS2_PLACEMENT_3D('',#480,#481,#482);
#480=CARTESIAN_POINT('',(0.,0.,4.2));
#481=DIRECTION('',(0.,0.,1.));
#482=DIRECTION('',(-1.,1.22464679914735E-16,0.));
#483=FACE_BOUND('',#484,.T.);
#484=EDGE_LOOP('',(#815,#816,#817,#818,#819,#820,#821,#822,#823,#824,#825,#826,#827,
#828,#829,#830));
#485=PLANE('',#486);
#486=AXIS2_PLACEMENT_3D('',#487,#488,#489);
#487=CARTESIAN_POINT('',(0.,0.,4.2));
#488=DIRECTION('',(0.,0.,1.));
#489=DIRECTION('',(-1.,1.22464679914735E-16,0.));
#490=FACE_BOUND('',#491,.T.);
#491=EDGE_LOOP('',(#831,#832,#833,#834));
#492=PLANE('',#493);
#493=AXIS2_PLACEMENT_3D('',#494,#495,#496);
#494=CARTESIAN_POINT('',(-9.79100463093509,-7.4,2.4));
#495=DIRECTION('',(1.,0.,0.));
#496=DIRECTION('',(0.,1.,0.));
#497=FACE_BOUND('',#498,.T.);
#498=EDGE_LOOP('',(#835,#836,#837,#838));
#499=PLANE('',#500);
#500=AXIS2_PLACEMENT_3D('',#501,#502,#503);
#501=CARTESIAN_POINT('',(-26.55,7.4,2.4));
#502=DIRECTION('',(-1.,0.,0.));
#503=DIRECTION('',(0.,-1.,0.));
#504=FACE_BOUND('',#505,.T.);
#505=EDGE_LOOP('',(#839,#840,#841,#842));
#506=PLANE('',#507);
#507=AXIS2_PLACEMENT_3D('',#508,#509,#510);
#508=CARTESIAN_POINT('',(0.,0.,2.4));
#509=DIRECTION('',(0.,0.,1.));
#510=DIRECTION('',(-1.,1.22464679914735E-16,0.));
#511=FACE_BOUND('',#512,.T.);
#512=EDGE_LOOP('',(#843,#844,#845,#846));
#513=PLANE('',#514);
#514=AXIS2_PLACEMENT_3D('',#515,#516,#517);
#515=CARTESIAN_POINT('',(-19.55,-7.4,4.2));
#516=DIRECTION('',(0.648200926187019,9.32530992718646E-17,-0.761469342318055));
#517=DIRECTION('',(0.761469342318055,5.9222842596137E-17,0.648200926187019));
#518=FACE_BOUND('',#519,.T.);
#519=EDGE_LOOP('',(#847,#848,#849,#850));
#520=CYLINDRICAL_SURFACE('',#521,5.);
#521=AXIS2_PLACEMENT_3D('',#522,#523,#524);
#522=CARTESIAN_POINT('',(-6.55,-7.4,8.7));
#523=DIRECTION('',(-1.28025718154973E-16,1.,1.22464679914735E-16));
#524=DIRECTION('',(-0.648200926187019,-1.76239488355676E-16,0.761469342318055));
#525=FACE_BOUND('',#526,.T.);
#526=EDGE_LOOP('',(#851,#852,#853,#854));
#527=PLANE('',#528);
#528=AXIS2_PLACEMENT_3D('',#529,#530,#531);
#529=CARTESIAN_POINT('',(-3.3089953690649,-7.4,12.5073467115903));
#530=DIRECTION('',(-0.648200926187019,-2.18905155819242E-17,-0.761469342318055));
#531=DIRECTION('',(0.761469342318055,1.48683999716961E-16,-0.648200926187019));
#532=FACE_OUTER_BOUND('',#533,.T.);
#533=EDGE_LOOP('',(#855));
#534=FACE_OUTER_BOUND('',#535,.T.);
#535=EDGE_LOOP('',(#856));
#536=CYLINDRICAL_SURFACE('',#537,2.4);
#537=AXIS2_PLACEMENT_3D('',#538,#539,#540);
#538=CARTESIAN_POINT('',(-6.55,-9.9,9.2));
#539=DIRECTION('',(1.28025718154973E-16,1.,0.));
#540=DIRECTION('',(-1.,1.28025718154973E-16,-1.22464679914735E-16));
#541=FACE_BOUND('',#542,.T.);
#542=EDGE_LOOP('',(#857,#858,#859,#860));
#543=PLANE('',#544);
#544=AXIS2_PLACEMENT_3D('',#545,#546,#547);
#545=CARTESIAN_POINT('',(-3.3089953690649,7.4,12.5073467115903));
#546=DIRECTION('',(0.648200926187019,-1.15143614853789E-16,0.761469342318055));
#547=DIRECTION('',(0.761469342318055,-6.93022807710327E-17,-0.648200926187019));
#548=FACE_BOUND('',#549,.T.);
#549=EDGE_LOOP('',(#861,#862,#863,#864));
#550=CYLINDRICAL_SURFACE('',#551,5.);
#551=AXIS2_PLACEMENT_3D('',#552,#553,#554);
#552=CARTESIAN_POINT('',(-6.55,7.4,8.7));
#553=DIRECTION('',(1.28025718154973E-16,1.,0.));
#554=DIRECTION('',(-0.648200926187019,8.29863890838118E-17,0.761469342318055));
#555=FACE_BOUND('',#556,.T.);
#556=EDGE_LOOP('',(#865,#866,#867,#868));
#557=PLANE('',#558);
#558=AXIS2_PLACEMENT_3D('',#559,#560,#561);
#559=CARTESIAN_POINT('',(-19.55,7.4,4.2));
#560=DIRECTION('',(-0.648200926187019,1.23259516440783E-32,0.761469342318055));
#561=DIRECTION('',(0.761469342318055,-1.38604561542065E-16,0.648200926187019));
#562=FACE_OUTER_BOUND('',#563,.T.);
#563=EDGE_LOOP('',(#869));
#564=FACE_OUTER_BOUND('',#565,.T.);
#565=EDGE_LOOP('',(#870));
#566=CYLINDRICAL_SURFACE('',#567,2.4);
#567=AXIS2_PLACEMENT_3D('',#568,#569,#570);
#568=CARTESIAN_POINT('',(-6.55,-9.9,9.2));
#569=DIRECTION('',(1.28025718154973E-16,1.,0.));
#570=DIRECTION('',(-1.,1.28025718154973E-16,-1.22464679914735E-16));
#571=FACE_BOUND('',#572,.T.);
#572=EDGE_LOOP('',(#871,#872,#873,#874,#875,#876,#877,#878,#879));
#573=FACE_BOUND('',#574,.T.);
#574=EDGE_LOOP('',(#880));
#575=PLANE('',#576);
#576=AXIS2_PLACEMENT_3D('',#577,#578,#579);
#577=CARTESIAN_POINT('',(27.75,9.9,0.));
#578=DIRECTION('',(1.28025718154973E-16,1.,0.));
#579=DIRECTION('',(-1.,1.28025718154973E-16,0.));
#580=FACE_BOUND('',#581,.T.);
#581=EDGE_LOOP('',(#881,#882,#883,#884));
#582=CYLINDRICAL_SURFACE('',#583,2.);
#583=AXIS2_PLACEMENT_3D('',#584,#585,#586);
#584=CARTESIAN_POINT('',(-25.75,7.9,-8.));
#585=DIRECTION('',(0.,0.,-1.));
#586=DIRECTION('',(-1.,0.,0.));
#587=FACE_BOUND('',#588,.T.);
#588=EDGE_LOOP('',(#885,#886,#887,#888));
#589=PLANE('',#590);
#590=AXIS2_PLACEMENT_3D('',#591,#592,#593);
#591=CARTESIAN_POINT('',(-27.75,9.9,0.));
#592=DIRECTION('',(-1.,0.,0.));
#593=DIRECTION('',(0.,-1.,0.));
#594=FACE_BOUND('',#595,.T.);
#595=EDGE_LOOP('',(#889,#890,#891,#892));
#596=CYLINDRICAL_SURFACE('',#597,2.);
#597=AXIS2_PLACEMENT_3D('',#598,#599,#600);
#598=CARTESIAN_POINT('',(-25.75,-7.9,-8.));
#599=DIRECTION('',(0.,0.,-1.));
#600=DIRECTION('',(0.,-1.,0.));
#601=FACE_BOUND('',#602,.T.);
#602=EDGE_LOOP('',(#893,#894,#895,#896,#897,#898,#899,#900,#901));
#603=FACE_BOUND('',#604,.T.);
#604=EDGE_LOOP('',(#902));
#605=PLANE('',#606);
#606=AXIS2_PLACEMENT_3D('',#607,#608,#609);
#607=CARTESIAN_POINT('',(-27.75,-9.9,0.));
#608=DIRECTION('',(-1.28025718154973E-16,-1.,0.));
#609=DIRECTION('',(1.,-1.28025718154973E-16,0.));
#610=FACE_BOUND('',#611,.T.);
#611=EDGE_LOOP('',(#903,#904,#905,#906));
#612=CYLINDRICAL_SURFACE('',#613,11.5624999999894);
#613=AXIS2_PLACEMENT_3D('',#614,#615,#616);
#614=CARTESIAN_POINT('',(19.25,-7.4,-5.36249999998942));
#615=DIRECTION('',(-1.28025718154973E-16,1.,1.22464679914735E-16));
#616=DIRECTION('',(-0.562162162162587,-1.73252814676082E-16,0.827027027026738));
#617=FACE_BOUND('',#618,.T.);
#618=EDGE_LOOP('',(#907,#908));
#619=PLANE('',#620);
#620=AXIS2_PLACEMENT_3D('',#621,#622,#623);
#621=CARTESIAN_POINT('',(9.473903143468E-16,-7.4,-9.06238631369041E-16));
#622=DIRECTION('',(-1.28025718154973E-16,1.,1.22464679914735E-16));
#623=DIRECTION('',(-1.,-1.28025718154973E-16,-1.22464679914735E-16));
#624=FACE_BOUND('',#625,.T.);
#625=EDGE_LOOP('',(#909,#910,#911,#912));
#626=CYLINDRICAL_SURFACE('',#627,2.);
#627=AXIS2_PLACEMENT_3D('',#628,#629,#630);
#628=CARTESIAN_POINT('',(25.75,-7.90000000000001,-8.));
#629=DIRECTION('',(0.,0.,-1.));
#630=DIRECTION('',(1.,0.,0.));
#631=FACE_BOUND('',#632,.T.);
#632=EDGE_LOOP('',(#913,#914,#915,#916));
#633=PLANE('',#634);
#634=AXIS2_PLACEMENT_3D('',#635,#636,#637);
#635=CARTESIAN_POINT('',(27.75,-9.90000000000001,0.));
#636=DIRECTION('',(1.,0.,0.));
#637=DIRECTION('',(0.,1.,0.));
#638=FACE_BOUND('',#639,.T.);
#639=EDGE_LOOP('',(#917,#918,#919,#920));
#640=CYLINDRICAL_SURFACE('',#641,2.);
#641=AXIS2_PLACEMENT_3D('',#642,#643,#644);
#642=CARTESIAN_POINT('',(25.75,7.9,-8.));
#643=DIRECTION('',(0.,0.,-1.));
#644=DIRECTION('',(0.,1.,0.));
#645=FACE_BOUND('',#646,.T.);
#646=EDGE_LOOP('',(#921,#922,#923,#924));
#647=CYLINDRICAL_SURFACE('',#648,11.5624999999894);
#648=AXIS2_PLACEMENT_3D('',#649,#650,#651);
#649=CARTESIAN_POINT('',(19.25,7.4,-5.36249999998942));
#650=DIRECTION('',(1.28025718154973E-16,1.,0.));
#651=DIRECTION('',(-0.562162162162587,7.19712145304176E-17,0.827027027026738));
#652=FACE_BOUND('',#653,.T.);
#653=EDGE_LOOP('',(#925,#926));
#654=PLANE('',#655);
#655=AXIS2_PLACEMENT_3D('',#656,#657,#658);
#656=CARTESIAN_POINT('',(9.473903143468E-16,7.4,0.));
#657=DIRECTION('',(1.28025718154973E-16,1.,0.));
#658=DIRECTION('',(-1.,1.28025718154973E-16,-1.22464679914735E-16));
#659=FACE_BOUND('',#660,.T.);
#660=EDGE_LOOP('',(#927,#928,#929,#930,#931,#932,#933,#934));
#661=FACE_BOUND('',#662,.T.);
#662=EDGE_LOOP('',(#935,#936,#937,#938,#939,#940,#941,#942));
#663=PLANE('',#664);
#664=AXIS2_PLACEMENT_3D('',#665,#666,#667);
#665=CARTESIAN_POINT('',(0.,0.,0.));
#666=DIRECTION('',(0.,0.,1.));
#667=DIRECTION('',(-1.,1.22464679914735E-16,0.));
#668=FACE_BOUND('',#669,.T.);
#669=EDGE_LOOP('',(#943,#944,#945,#946));
#670=TOROIDAL_SURFACE('',#671,5.73205080756887,1.);
#671=AXIS2_PLACEMENT_3D('',#672,#673,#674);
#672=CARTESIAN_POINT('',(-19.75,2.,1.));
#673=DIRECTION('',(0.,0.,-1.));
#674=DIRECTION('',(-0.939744114952723,-0.341878631113035,0.));
#675=FACE_BOUND('',#676,.T.);
#676=EDGE_LOOP('',(#947,#948,#949,#950));
#677=CYLINDRICAL_SURFACE('',#678,1.);
#678=AXIS2_PLACEMENT_3D('',#679,#680,#681);
#679=CARTESIAN_POINT('',(-25.4820508075689,4.,1.));
#680=DIRECTION('',(4.44089209850063E-16,1.,1.38777878078145E-17));
#681=DIRECTION('',(0.866025403784439,-3.77653643372806E-16,-0.499999999999999));
#682=FACE_BOUND('',#683,.T.);
#683=EDGE_LOOP('',(#951,#952,#953,#954));
#684=TOROIDAL_SURFACE('',#685,5.73205080756888,1.);
#685=AXIS2_PLACEMENT_3D('',#686,#687,#688);
#686=CARTESIAN_POINT('',(-19.75,-2.,1.));
#687=DIRECTION('',(0.,0.,-1.));
#688=DIRECTION('',(0.341878631113035,-0.939744114952724,0.));
#689=FACE_BOUND('',#690,.T.);
#690=EDGE_LOOP('',(#955,#956,#957,#958));
#691=CYLINDRICAL_SURFACE('',#692,1.);
#692=AXIS2_PLACEMENT_3D('',#693,#694,#695);
#693=CARTESIAN_POINT('',(-21.75,-7.73205080756888,1.));
#694=DIRECTION('',(-1.,-7.40148683083438E-17,0.));
#695=DIRECTION('',(-6.40987562127855E-17,0.866025403784439,-0.5));
#696=FACE_BOUND('',#697,.T.);
#697=EDGE_LOOP('',(#959,#960,#961,#962));
#698=TOROIDAL_SURFACE('',#699,5.73205080756888,1.);
#699=AXIS2_PLACEMENT_3D('',#700,#701,#702);
#700=CARTESIAN_POINT('',(-11.75,-2.,1.));
#701=DIRECTION('',(0.,0.,-1.));
#702=DIRECTION('',(0.939744114952724,0.341878631113035,0.));
#703=FACE_BOUND('',#704,.T.);
#704=EDGE_LOOP('',(#963,#964,#965,#966));
#705=CYLINDRICAL_SURFACE('',#706,1.);
#706=AXIS2_PLACEMENT_3D('',#707,#708,#709);
#707=CARTESIAN_POINT('',(-6.01794919243113,-4.,1.));
#708=DIRECTION('',(0.,-1.,0.));
#709=DIRECTION('',(-0.866025403784439,0.,-0.5));
#710=FACE_BOUND('',#711,.T.);
#711=EDGE_LOOP('',(#967,#968,#969,#970));
#712=TOROIDAL_SURFACE('',#713,5.73205080756888,1.);
#713=AXIS2_PLACEMENT_3D('',#714,#715,#716);
#714=CARTESIAN_POINT('',(-11.75,2.,1.));
#715=DIRECTION('',(0.,0.,-1.));
#716=DIRECTION('',(-0.341878631113035,0.939744114952724,0.));
#717=FACE_BOUND('',#718,.T.);
#718=EDGE_LOOP('',(#971,#972,#973,#974));
#719=CYLINDRICAL_SURFACE('',#720,1.);
#720=AXIS2_PLACEMENT_3D('',#721,#722,#723);
#721=CARTESIAN_POINT('',(-9.75,7.73205080756888,1.));
#722=DIRECTION('',(1.,0.,-1.85037170770859E-17));
#723=DIRECTION('',(-9.25185853854284E-18,-0.866025403784439,-0.5));
#724=FACE_BOUND('',#725,.T.);
#725=EDGE_LOOP('',(#975,#976,#977,#978));
#726=TOROIDAL_SURFACE('',#727,4.,1.);
#727=AXIS2_PLACEMENT_3D('',#728,#729,#730);
#728=CARTESIAN_POINT('',(-19.75,2.,0.));
#729=DIRECTION('',(0.,0.,-1.));
#730=DIRECTION('',(-0.877582561890373,-0.479425538604203,0.));
#731=FACE_BOUND('',#732,.T.);
#732=EDGE_LOOP('',(#979,#980,#981,#982));
#733=CYLINDRICAL_SURFACE('',#734,1.);
#734=AXIS2_PLACEMENT_3D('',#735,#736,#737);
#735=CARTESIAN_POINT('',(-23.75,-6.,-1.11022302462516E-16));
#736=DIRECTION('',(-2.96059473233375E-16,-1.,-9.25185853854297E-18));
#737=DIRECTION('',(-3.5527136788005E-15,-9.25185853854192E-18,1.));
#738=FACE_BOUND('',#739,.T.);
#739=EDGE_LOOP('',(#983,#984,#985,#986));
#740=TOROIDAL_SURFACE('',#741,4.,1.);
#741=AXIS2_PLACEMENT_3D('',#742,#743,#744);
#742=CARTESIAN_POINT('',(-19.75,-2.,0.));
#743=DIRECTION('',(0.,0.,-1.));
#744=DIRECTION('',(0.479425538604203,-0.877582561890373,0.));
#745=FACE_BOUND('',#746,.T.);
#746=EDGE_LOOP('',(#987,#988,#989,#990));
#747=CYLINDRICAL_SURFACE('',#748,1.);
#748=AXIS2_PLACEMENT_3D('',#749,#750,#751);
#749=CARTESIAN_POINT('',(-7.75,-6.,0.));
#750=DIRECTION('',(1.,0.,0.));
#751=DIRECTION('',(0.,-8.88178419700125E-16,1.));
#752=FACE_BOUND('',#753,.T.);
#753=EDGE_LOOP('',(#991,#992,#993,#994));
#754=TOROIDAL_SURFACE('',#755,4.,1.);
#755=AXIS2_PLACEMENT_3D('',#756,#757,#758);
#756=CARTESIAN_POINT('',(-11.75,-2.,0.));
#757=DIRECTION('',(0.,0.,-1.));
#758=DIRECTION('',(0.877582561890373,0.479425538604203,0.));
#759=FACE_BOUND('',#760,.T.);
#760=EDGE_LOOP('',(#995,#996,#997,#998));
#761=CYLINDRICAL_SURFACE('',#762,1.);
#762=AXIS2_PLACEMENT_3D('',#763,#764,#765);
#763=CARTESIAN_POINT('',(-7.75,6.,0.));
#764=DIRECTION('',(0.,1.,0.));
#765=DIRECTION('',(0.,0.,1.));
#766=FACE_BOUND('',#767,.T.);
#767=EDGE_LOOP('',(#999,#1000,#1001,#1002));
#768=TOROIDAL_SURFACE('',#769,4.,1.);
#769=AXIS2_PLACEMENT_3D('',#770,#771,#772);
#770=CARTESIAN_POINT('',(-11.75,2.,0.));
#771=DIRECTION('',(0.,0.,-1.));
#772=DIRECTION('',(-0.479425538604203,0.877582561890373,0.));
#773=FACE_BOUND('',#774,.T.);
#774=EDGE_LOOP('',(#1003,#1004,#1005,#1006));
#775=CYLINDRICAL_SURFACE('',#776,1.);
#776=AXIS2_PLACEMENT_3D('',#777,#778,#779);
#777=CARTESIAN_POINT('',(-23.75,6.,0.));
#778=DIRECTION('',(-1.,0.,0.));
#779=DIRECTION('',(0.,8.88178419700125E-16,1.));
#780=FACE_BOUND('',#781,.T.);
#781=EDGE_LOOP('',(#1007,#1008,#1009,#1010,#1011,#1012,#1013,#1014));
#782=PLANE('',#783);
#783=AXIS2_PLACEMENT_3D('',#784,#785,#786);
#784=CARTESIAN_POINT('',(0.,0.,1.));
#785=DIRECTION('',(0.,0.,-1.));
#786=DIRECTION('',(-6.12323399573677E-17,-1.,0.));
#787=ORIENTED_EDGE('',*,*,#1015,.T.);
#788=ORIENTED_EDGE('',*,*,#1016,.F.);
#789=ORIENTED_EDGE('',*,*,#1017,.F.);
#790=ORIENTED_EDGE('',*,*,#1018,.T.);
#791=ORIENTED_EDGE('',*,*,#1019,.F.);
#792=ORIENTED_EDGE('',*,*,#1020,.T.);
#793=ORIENTED_EDGE('',*,*,#1021,.T.);
#794=ORIENTED_EDGE('',*,*,#1022,.T.);
#795=ORIENTED_EDGE('',*,*,#1023,.T.);
#796=ORIENTED_EDGE('',*,*,#1024,.T.);
#797=ORIENTED_EDGE('',*,*,#1025,.F.);
#798=ORIENTED_EDGE('',*,*,#1026,.F.);
#799=ORIENTED_EDGE('',*,*,#1027,.F.);
#800=ORIENTED_EDGE('',*,*,#1028,.F.);
#801=ORIENTED_EDGE('',*,*,#1029,.F.);
#802=ORIENTED_EDGE('',*,*,#1030,.F.);
#803=ORIENTED_EDGE('',*,*,#1031,.T.);
#804=ORIENTED_EDGE('',*,*,#1032,.T.);
#805=ORIENTED_EDGE('',*,*,#1028,.T.);
#806=ORIENTED_EDGE('',*,*,#1033,.F.);
#807=ORIENTED_EDGE('',*,*,#1034,.T.);
#808=ORIENTED_EDGE('',*,*,#1035,.F.);
#809=ORIENTED_EDGE('',*,*,#1036,.T.);
#810=ORIENTED_EDGE('',*,*,#1037,.F.);
#811=ORIENTED_EDGE('',*,*,#1038,.T.);
#812=ORIENTED_EDGE('',*,*,#1039,.F.);
#813=ORIENTED_EDGE('',*,*,#1019,.T.);
#814=ORIENTED_EDGE('',*,*,#1040,.T.);
#815=ORIENTED_EDGE('',*,*,#1041,.T.);
#816=ORIENTED_EDGE('',*,*,#1015,.F.);
#817=ORIENTED_EDGE('',*,*,#1042,.F.);
#818=ORIENTED_EDGE('',*,*,#1043,.T.);
#819=ORIENTED_EDGE('',*,*,#1044,.F.);
#820=ORIENTED_EDGE('',*,*,#1045,.F.);
#821=ORIENTED_EDGE('',*,*,#1046,.F.);
#822=ORIENTED_EDGE('',*,*,#1047,.F.);
#823=ORIENTED_EDGE('',*,*,#1048,.T.);
#824=ORIENTED_EDGE('',*,*,#1049,.F.);
#825=ORIENTED_EDGE('',*,*,#1050,.F.);
#826=ORIENTED_EDGE('',*,*,#1051,.F.);
#827=ORIENTED_EDGE('',*,*,#1052,.F.);
#828=ORIENTED_EDGE('',*,*,#1053,.T.);
#829=ORIENTED_EDGE('',*,*,#1054,.F.);
#830=ORIENTED_EDGE('',*,*,#1024,.F.);
#831=ORIENTED_EDGE('',*,*,#1041,.F.);
#832=ORIENTED_EDGE('',*,*,#1031,.F.);
#833=ORIENTED_EDGE('',*,*,#1055,.F.);
#834=ORIENTED_EDGE('',*,*,#1016,.T.);
#835=ORIENTED_EDGE('',*,*,#1040,.F.);
#836=ORIENTED_EDGE('',*,*,#1018,.F.);
#837=ORIENTED_EDGE('',*,*,#1056,.F.);
#838=ORIENTED_EDGE('',*,*,#1029,.T.);
#839=ORIENTED_EDGE('',*,*,#1030,.T.);
#840=ORIENTED_EDGE('',*,*,#1056,.T.);
#841=ORIENTED_EDGE('',*,*,#1017,.T.);
#842=ORIENTED_EDGE('',*,*,#1055,.T.);
#843=ORIENTED_EDGE('',*,*,#1039,.T.);
#844=ORIENTED_EDGE('',*,*,#1057,.T.);
#845=ORIENTED_EDGE('',*,*,#1058,.F.);
#846=ORIENTED_EDGE('',*,*,#1020,.F.);
#847=ORIENTED_EDGE('',*,*,#1058,.T.);
#848=ORIENTED_EDGE('',*,*,#1059,.T.);
#849=ORIENTED_EDGE('',*,*,#1060,.F.);
#850=ORIENTED_EDGE('',*,*,#1021,.F.);
#851=ORIENTED_EDGE('',*,*,#1042,.T.);
#852=ORIENTED_EDGE('',*,*,#1022,.F.);
#853=ORIENTED_EDGE('',*,*,#1060,.T.);
#854=ORIENTED_EDGE('',*,*,#1061,.T.);
#855=ORIENTED_EDGE('',*,*,#1023,.F.);
#856=ORIENTED_EDGE('',*,*,#1062,.F.);
#857=ORIENTED_EDGE('',*,*,#1054,.T.);
#858=ORIENTED_EDGE('',*,*,#1063,.F.);
#859=ORIENTED_EDGE('',*,*,#1064,.F.);
#860=ORIENTED_EDGE('',*,*,#1025,.T.);
#861=ORIENTED_EDGE('',*,*,#1026,.T.);
#862=ORIENTED_EDGE('',*,*,#1064,.T.);
#863=ORIENTED_EDGE('',*,*,#1065,.F.);
#864=ORIENTED_EDGE('',*,*,#1066,.F.);
#865=ORIENTED_EDGE('',*,*,#1033,.T.);
#866=ORIENTED_EDGE('',*,*,#1027,.T.);
#867=ORIENTED_EDGE('',*,*,#1066,.T.);
#868=ORIENTED_EDGE('',*,*,#1067,.F.);
#869=ORIENTED_EDGE('',*,*,#1068,.F.);
#870=ORIENTED_EDGE('',*,*,#1032,.F.);
#871=ORIENTED_EDGE('',*,*,#1069,.T.);
#872=ORIENTED_EDGE('',*,*,#1034,.F.);
#873=ORIENTED_EDGE('',*,*,#1067,.T.);
#874=ORIENTED_EDGE('',*,*,#1065,.T.);
#875=ORIENTED_EDGE('',*,*,#1063,.T.);
#876=ORIENTED_EDGE('',*,*,#1053,.F.);
#877=ORIENTED_EDGE('',*,*,#1070,.T.);
#878=ORIENTED_EDGE('',*,*,#1071,.F.);
#879=ORIENTED_EDGE('',*,*,#1072,.T.);
#880=ORIENTED_EDGE('',*,*,#1068,.T.);
#881=ORIENTED_EDGE('',*,*,#1069,.F.);
#882=ORIENTED_EDGE('',*,*,#1073,.T.);
#883=ORIENTED_EDGE('',*,*,#1074,.T.);
#884=ORIENTED_EDGE('',*,*,#1035,.T.);
#885=ORIENTED_EDGE('',*,*,#1074,.F.);
#886=ORIENTED_EDGE('',*,*,#1075,.T.);
#887=ORIENTED_EDGE('',*,*,#1076,.T.);
#888=ORIENTED_EDGE('',*,*,#1036,.F.);
#889=ORIENTED_EDGE('',*,*,#1076,.F.);
#890=ORIENTED_EDGE('',*,*,#1077,.T.);
#891=ORIENTED_EDGE('',*,*,#1078,.T.);
#892=ORIENTED_EDGE('',*,*,#1037,.T.);
#893=ORIENTED_EDGE('',*,*,#1078,.F.);
#894=ORIENTED_EDGE('',*,*,#1079,.T.);
#895=ORIENTED_EDGE('',*,*,#1080,.T.);
#896=ORIENTED_EDGE('',*,*,#1081,.F.);
#897=ORIENTED_EDGE('',*,*,#1043,.F.);
#898=ORIENTED_EDGE('',*,*,#1061,.F.);
#899=ORIENTED_EDGE('',*,*,#1059,.F.);
#900=ORIENTED_EDGE('',*,*,#1057,.F.);
#901=ORIENTED_EDGE('',*,*,#1038,.F.);
#902=ORIENTED_EDGE('',*,*,#1062,.T.);
#903=ORIENTED_EDGE('',*,*,#1046,.T.);
#904=ORIENTED_EDGE('',*,*,#1082,.F.);
#905=ORIENTED_EDGE('',*,*,#1044,.T.);
#906=ORIENTED_EDGE('',*,*,#1081,.T.);
#907=ORIENTED_EDGE('',*,*,#1045,.T.);
#908=ORIENTED_EDGE('',*,*,#1082,.T.);
#909=ORIENTED_EDGE('',*,*,#1080,.F.);
#910=ORIENTED_EDGE('',*,*,#1083,.T.);
#911=ORIENTED_EDGE('',*,*,#1084,.T.);
#912=ORIENTED_EDGE('',*,*,#1047,.T.);
#913=ORIENTED_EDGE('',*,*,#1085,.T.);
#914=ORIENTED_EDGE('',*,*,#1048,.F.);
#915=ORIENTED_EDGE('',*,*,#1084,.F.);
#916=ORIENTED_EDGE('',*,*,#1086,.T.);
#917=ORIENTED_EDGE('',*,*,#1085,.F.);
#918=ORIENTED_EDGE('',*,*,#1087,.T.);
#919=ORIENTED_EDGE('',*,*,#1071,.T.);
#920=ORIENTED_EDGE('',*,*,#1049,.T.);
#921=ORIENTED_EDGE('',*,*,#1052,.T.);
#922=ORIENTED_EDGE('',*,*,#1088,.T.);
#923=ORIENTED_EDGE('',*,*,#1050,.T.);
#924=ORIENTED_EDGE('',*,*,#1070,.F.);
#925=ORIENTED_EDGE('',*,*,#1051,.T.);
#926=ORIENTED_EDGE('',*,*,#1088,.F.);
#927=ORIENTED_EDGE('',*,*,#1073,.F.);
#928=ORIENTED_EDGE('',*,*,#1072,.F.);
#929=ORIENTED_EDGE('',*,*,#1087,.F.);
#930=ORIENTED_EDGE('',*,*,#1086,.F.);
#931=ORIENTED_EDGE('',*,*,#1083,.F.);
#932=ORIENTED_EDGE('',*,*,#1079,.F.);
#933=ORIENTED_EDGE('',*,*,#1077,.F.);
#934=ORIENTED_EDGE('',*,*,#1075,.F.);
#935=ORIENTED_EDGE('',*,*,#1089,.T.);
#936=ORIENTED_EDGE('',*,*,#1090,.T.);
#937=ORIENTED_EDGE('',*,*,#1091,.T.);
#938=ORIENTED_EDGE('',*,*,#1092,.T.);
#939=ORIENTED_EDGE('',*,*,#1093,.T.);
#940=ORIENTED_EDGE('',*,*,#1094,.T.);
#941=ORIENTED_EDGE('',*,*,#1095,.T.);
#942=ORIENTED_EDGE('',*,*,#1096,.T.);
#943=ORIENTED_EDGE('',*,*,#1089,.F.);
#944=ORIENTED_EDGE('',*,*,#1097,.F.);
#945=ORIENTED_EDGE('',*,*,#1098,.T.);
#946=ORIENTED_EDGE('',*,*,#1099,.T.);
#947=ORIENTED_EDGE('',*,*,#1090,.F.);
#948=ORIENTED_EDGE('',*,*,#1099,.F.);
#949=ORIENTED_EDGE('',*,*,#1100,.T.);
#950=ORIENTED_EDGE('',*,*,#1101,.T.);
#951=ORIENTED_EDGE('',*,*,#1091,.F.);
#952=ORIENTED_EDGE('',*,*,#1101,.F.);
#953=ORIENTED_EDGE('',*,*,#1102,.T.);
#954=ORIENTED_EDGE('',*,*,#1103,.T.);
#955=ORIENTED_EDGE('',*,*,#1092,.F.);
#956=ORIENTED_EDGE('',*,*,#1103,.F.);
#957=ORIENTED_EDGE('',*,*,#1104,.T.);
#958=ORIENTED_EDGE('',*,*,#1105,.T.);
#959=ORIENTED_EDGE('',*,*,#1093,.F.);
#960=ORIENTED_EDGE('',*,*,#1105,.F.);
#961=ORIENTED_EDGE('',*,*,#1106,.T.);
#962=ORIENTED_EDGE('',*,*,#1107,.T.);
#963=ORIENTED_EDGE('',*,*,#1094,.F.);
#964=ORIENTED_EDGE('',*,*,#1107,.F.);
#965=ORIENTED_EDGE('',*,*,#1108,.T.);
#966=ORIENTED_EDGE('',*,*,#1109,.T.);
#967=ORIENTED_EDGE('',*,*,#1095,.F.);
#968=ORIENTED_EDGE('',*,*,#1109,.F.);
#969=ORIENTED_EDGE('',*,*,#1110,.T.);
#970=ORIENTED_EDGE('',*,*,#1111,.T.);
#971=ORIENTED_EDGE('',*,*,#1096,.F.);
#972=ORIENTED_EDGE('',*,*,#1111,.F.);
#973=ORIENTED_EDGE('',*,*,#1112,.T.);
#974=ORIENTED_EDGE('',*,*,#1097,.T.);
#975=ORIENTED_EDGE('',*,*,#1098,.F.);
#976=ORIENTED_EDGE('',*,*,#1113,.T.);
#977=ORIENTED_EDGE('',*,*,#1114,.F.);
#978=ORIENTED_EDGE('',*,*,#1115,.F.);
#979=ORIENTED_EDGE('',*,*,#1100,.F.);
#980=ORIENTED_EDGE('',*,*,#1115,.T.);
#981=ORIENTED_EDGE('',*,*,#1116,.F.);
#982=ORIENTED_EDGE('',*,*,#1117,.F.);
#983=ORIENTED_EDGE('',*,*,#1102,.F.);
#984=ORIENTED_EDGE('',*,*,#1117,.T.);
#985=ORIENTED_EDGE('',*,*,#1118,.F.);
#986=ORIENTED_EDGE('',*,*,#1119,.F.);
#987=ORIENTED_EDGE('',*,*,#1104,.F.);
#988=ORIENTED_EDGE('',*,*,#1119,.T.);
#989=ORIENTED_EDGE('',*,*,#1120,.F.);
#990=ORIENTED_EDGE('',*,*,#1121,.F.);
#991=ORIENTED_EDGE('',*,*,#1106,.F.);
#992=ORIENTED_EDGE('',*,*,#1121,.T.);
#993=ORIENTED_EDGE('',*,*,#1122,.F.);
#994=ORIENTED_EDGE('',*,*,#1123,.F.);
#995=ORIENTED_EDGE('',*,*,#1108,.F.);
#996=ORIENTED_EDGE('',*,*,#1123,.T.);
#997=ORIENTED_EDGE('',*,*,#1124,.F.);
#998=ORIENTED_EDGE('',*,*,#1125,.F.);
#999=ORIENTED_EDGE('',*,*,#1110,.F.);
#1000=ORIENTED_EDGE('',*,*,#1125,.T.);
#1001=ORIENTED_EDGE('',*,*,#1126,.F.);
#1002=ORIENTED_EDGE('',*,*,#1127,.F.);
#1003=ORIENTED_EDGE('',*,*,#1112,.F.);
#1004=ORIENTED_EDGE('',*,*,#1127,.T.);
#1005=ORIENTED_EDGE('',*,*,#1128,.F.);
#1006=ORIENTED_EDGE('',*,*,#1113,.F.);
#1007=ORIENTED_EDGE('',*,*,#1122,.T.);
#1008=ORIENTED_EDGE('',*,*,#1120,.T.);
#1009=ORIENTED_EDGE('',*,*,#1118,.T.);
#1010=ORIENTED_EDGE('',*,*,#1116,.T.);
#1011=ORIENTED_EDGE('',*,*,#1114,.T.);
#1012=ORIENTED_EDGE('',*,*,#1128,.T.);
#1013=ORIENTED_EDGE('',*,*,#1126,.T.);
#1014=ORIENTED_EDGE('',*,*,#1124,.T.);
#1015=EDGE_CURVE('',#1129,#1130,#1131,.T.);
#1016=EDGE_CURVE('',#1132,#1130,#1133,.T.);
#1017=EDGE_CURVE('',#1134,#1132,#1135,.T.);
#1018=EDGE_CURVE('',#1134,#1136,#1137,.T.);
#1019=EDGE_CURVE('',#1138,#1136,#1139,.F.);
#1020=EDGE_CURVE('',#1138,#1140,#1141,.T.);
#1021=EDGE_CURVE('',#1140,#1142,#1143,.T.);
#1022=EDGE_CURVE('',#1142,#1129,#1144,.T.);
#1023=EDGE_CURVE('',#1145,#1145,#1146,.F.);
#1024=EDGE_CURVE('',#1147,#1148,#1149,.F.);
#1025=EDGE_CURVE('',#1150,#1148,#1151,.T.);
#1026=EDGE_CURVE('',#1152,#1150,#1153,.T.);
#1027=EDGE_CURVE('',#1154,#1152,#1155,.T.);
#1028=EDGE_CURVE('',#1156,#1154,#1157,.F.);
#1029=EDGE_CURVE('',#1158,#1156,#1159,.T.);
#1030=EDGE_CURVE('',#1160,#1158,#1161,.T.);
#1031=EDGE_CURVE('',#1160,#1147,#1162,.T.);
#1032=EDGE_CURVE('',#1163,#1163,#1164,.T.);
#1033=EDGE_CURVE('',#1165,#1154,#1166,.T.);
#1034=EDGE_CURVE('',#1165,#1167,#1168,.T.);
#1035=EDGE_CURVE('',#1169,#1167,#1170,.F.);
#1036=EDGE_CURVE('',#1169,#1171,#1172,.T.);
#1037=EDGE_CURVE('',#1173,#1171,#1174,.F.);
#1038=EDGE_CURVE('',#1173,#1175,#1176,.T.);
#1039=EDGE_CURVE('',#1138,#1175,#1177,.F.);
#1040=EDGE_CURVE('',#1136,#1156,#1178,.F.);
#1041=EDGE_CURVE('',#1147,#1130,#1179,.F.);
#1042=EDGE_CURVE('',#1180,#1129,#1181,.F.);
#1043=EDGE_CURVE('',#1180,#1182,#1183,.T.);
#1044=EDGE_CURVE('',#1184,#1182,#1185,.T.);
#1045=EDGE_CURVE('',#1186,#1184,#1187,.T.);
#1046=EDGE_CURVE('',#1188,#1186,#1189,.F.);
#1047=EDGE_CURVE('',#1190,#1188,#1191,.F.);
#1048=EDGE_CURVE('',#1190,#1192,#1193,.T.);
#1049=EDGE_CURVE('',#1194,#1192,#1195,.F.);
#1050=EDGE_CURVE('',#1196,#1194,#1197,.T.);
#1051=EDGE_CURVE('',#1198,#1196,#1199,.F.);
#1052=EDGE_CURVE('',#1200,#1198,#1201,.F.);
#1053=EDGE_CURVE('',#1200,#1202,#1203,.T.);
#1054=EDGE_CURVE('',#1148,#1202,#1204,.T.);
#1055=EDGE_CURVE('',#1132,#1160,#1205,.T.);
#1056=EDGE_CURVE('',#1158,#1134,#1206,.T.);
#1057=EDGE_CURVE('',#1175,#1207,#1208,.T.);
#1058=EDGE_CURVE('',#1140,#1207,#1209,.T.);
#1059=EDGE_CURVE('',#1207,#1210,#1211,.T.);
#1060=EDGE_CURVE('',#1142,#1210,#1212,.T.);
#1061=EDGE_CURVE('',#1210,#1180,#1213,.T.);
#1062=EDGE_CURVE('',#1214,#1214,#1215,.T.);
#1063=EDGE_CURVE('',#1216,#1202,#1217,.T.);
#1064=EDGE_CURVE('',#1150,#1216,#1218,.T.);
#1065=EDGE_CURVE('',#1219,#1216,#1220,.T.);
#1066=EDGE_CURVE('',#1152,#1219,#1221,.T.);
#1067=EDGE_CURVE('',#1165,#1219,#1222,.T.);
#1068=EDGE_CURVE('',#1223,#1223,#1224,.F.);
#1069=EDGE_CURVE('',#1225,#1167,#1226,.T.);
#1070=EDGE_CURVE('',#1200,#1194,#1227,.T.);
#1071=EDGE_CURVE('',#1228,#1194,#1229,.T.);
#1072=EDGE_CURVE('',#1228,#1225,#1230,.T.);
#1073=EDGE_CURVE('',#1225,#1231,#1232,.F.);
#1074=EDGE_CURVE('',#1231,#1169,#1233,.T.);
#1075=EDGE_CURVE('',#1231,#1234,#1235,.T.);
#1076=EDGE_CURVE('',#1234,#1171,#1236,.T.);
#1077=EDGE_CURVE('',#1234,#1237,#1238,.F.);
#1078=EDGE_CURVE('',#1237,#1173,#1239,.T.);
#1079=EDGE_CURVE('',#1237,#1240,#1241,.T.);
#1080=EDGE_CURVE('',#1240,#1188,#1242,.T.);
#1081=EDGE_CURVE('',#1182,#1188,#1243,.T.);
#1082=EDGE_CURVE('',#1184,#1186,#1244,.T.);
#1083=EDGE_CURVE('',#1240,#1245,#1246,.F.);
#1084=EDGE_CURVE('',#1245,#1190,#1247,.T.);
#1085=EDGE_CURVE('',#1248,#1192,#1249,.T.);
#1086=EDGE_CURVE('',#1245,#1248,#1250,.T.);
#1087=EDGE_CURVE('',#1248,#1228,#1251,.F.);
#1088=EDGE_CURVE('',#1198,#1196,#1252,.T.);
#1089=EDGE_CURVE('',#1253,#1254,#1255,.F.);
#1090=EDGE_CURVE('',#1254,#1256,#1257,.T.);
#1091=EDGE_CURVE('',#1256,#1258,#1259,.F.);
#1092=EDGE_CURVE('',#1258,#1260,#1261,.T.);
#1093=EDGE_CURVE('',#1260,#1262,#1263,.F.);
#1094=EDGE_CURVE('',#1262,#1264,#1265,.T.);
#1095=EDGE_CURVE('',#1264,#1266,#1267,.F.);
#1096=EDGE_CURVE('',#1266,#1253,#1268,.T.);
#1097=EDGE_CURVE('',#1269,#1253,#1270,.F.);
#1098=EDGE_CURVE('',#1269,#1271,#1272,.F.);
#1099=EDGE_CURVE('',#1271,#1254,#1273,.F.);
#1100=EDGE_CURVE('',#1271,#1274,#1275,.T.);
#1101=EDGE_CURVE('',#1274,#1256,#1276,.F.);
#1102=EDGE_CURVE('',#1274,#1277,#1278,.F.);
#1103=EDGE_CURVE('',#1277,#1258,#1279,.F.);
#1104=EDGE_CURVE('',#1277,#1280,#1281,.T.);
#1105=EDGE_CURVE('',#1280,#1260,#1282,.F.);
#1106=EDGE_CURVE('',#1280,#1283,#1284,.F.);
#1107=EDGE_CURVE('',#1283,#1262,#1285,.F.);
#1108=EDGE_CURVE('',#1283,#1286,#1287,.T.);
#1109=EDGE_CURVE('',#1286,#1264,#1288,.F.);
#1110=EDGE_CURVE('',#1286,#1289,#1290,.F.);
#1111=EDGE_CURVE('',#1289,#1266,#1291,.F.);
#1112=EDGE_CURVE('',#1289,#1269,#1292,.T.);
#1113=EDGE_CURVE('',#1269,#1293,#1294,.T.);
#1114=EDGE_CURVE('',#1295,#1293,#1296,.T.);
#1115=EDGE_CURVE('',#1271,#1295,#1297,.T.);
#1116=EDGE_CURVE('',#1298,#1295,#1299,.T.);
#1117=EDGE_CURVE('',#1274,#1298,#1300,.T.);
#1118=EDGE_CURVE('',#1301,#1298,#1302,.T.);
#1119=EDGE_CURVE('',#1277,#1301,#1303,.T.);
#1120=EDGE_CURVE('',#1304,#1301,#1305,.T.);
#1121=EDGE_CURVE('',#1280,#1304,#1306,.T.);
#1122=EDGE_CURVE('',#1307,#1304,#1308,.T.);
#1123=EDGE_CURVE('',#1283,#1307,#1309,.T.);
#1124=EDGE_CURVE('',#1310,#1307,#1311,.T.);
#1125=EDGE_CURVE('',#1286,#1310,#1312,.T.);
#1126=EDGE_CURVE('',#1313,#1310,#1314,.T.);
#1127=EDGE_CURVE('',#1289,#1313,#1315,.T.);
#1128=EDGE_CURVE('',#1293,#1313,#1316,.T.);
#1129=VERTEX_POINT('',#1317);
#1130=VERTEX_POINT('',#1318);
#1131=LINE('',#1319,#1320);
#1132=VERTEX_POINT('',#1322);
#1133=LINE('',#1323,#1324);
#1134=VERTEX_POINT('',#1326);
#1135=LINE('',#1327,#1328);
#1136=VERTEX_POINT('',#1330);
#1137=LINE('',#1331,#1332);
#1138=VERTEX_POINT('',#1334);
#1139=LINE('',#1335,#1336);
#1140=VERTEX_POINT('',#1338);
#1141=LINE('',#1339,#1340);
#1142=VERTEX_POINT('',#1342);
#1143=CIRCLE('',#1343,5.);
#1144=LINE('',#1347,#1348);
#1145=VERTEX_POINT('',#1350);
#1146=CIRCLE('',#1351,2.4);
#1147=VERTEX_POINT('',#1355);
#1148=VERTEX_POINT('',#1356);
#1149=LINE('',#1357,#1358);
#1150=VERTEX_POINT('',#1360);
#1151=LINE('',#1361,#1362);
#1152=VERTEX_POINT('',#1364);
#1153=CIRCLE('',#1365,5.);
#1154=VERTEX_POINT('',#1369);
#1155=LINE('',#1370,#1371);
#1156=VERTEX_POINT('',#1373);
#1157=LINE('',#1374,#1375);
#1158=VERTEX_POINT('',#1377);
#1159=LINE('',#1378,#1379);
#1160=VERTEX_POINT('',#1381);
#1161=LINE('',#1382,#1383);
#1162=LINE('',#1385,#1386);
#1163=VERTEX_POINT('',#1388);
#1164=CIRCLE('',#1389,2.4);
#1165=VERTEX_POINT('',#1393);
#1166=LINE('',#1394,#1395);
#1167=VERTEX_POINT('',#1397);
#1168=LINE('',#1398,#1399);
#1169=VERTEX_POINT('',#1401);
#1170=CIRCLE('',#1402,2.);
#1171=VERTEX_POINT('',#1406);
#1172=LINE('',#1407,#1408);
#1173=VERTEX_POINT('',#1410);
#1174=CIRCLE('',#1411,2.);
#1175=VERTEX_POINT('',#1415);
#1176=LINE('',#1416,#1417);
#1177=LINE('',#1419,#1420);
#1178=LINE('',#1422,#1423);
#1179=LINE('',#1425,#1426);
#1180=VERTEX_POINT('',#1428);
#1181=LINE('',#1429,#1430);
#1182=VERTEX_POINT('',#1432);
#1183=LINE('',#1433,#1434);
#1184=VERTEX_POINT('',#1436);
#1185=LINE('',#1437,#1438);
#1186=VERTEX_POINT('',#1440);
#1187=LINE('',#1441,#1442);
#1188=VERTEX_POINT('',#1444);
#1189=LINE('',#1445,#1446);
#1190=VERTEX_POINT('',#1448);
#1191=CIRCLE('',#1449,2.);
#1192=VERTEX_POINT('',#1453);
#1193=LINE('',#1454,#1455);
#1194=VERTEX_POINT('',#1457);
#1195=CIRCLE('',#1458,2.);
#1196=VERTEX_POINT('',#1462);
#1197=LINE('',#1463,#1464);
#1198=VERTEX_POINT('',#1466);
#1199=LINE('',#1467,#1468);
#1200=VERTEX_POINT('',#1470);
#1201=LINE('',#1471,#1472);
#1202=VERTEX_POINT('',#1474);
#1203=LINE('',#1475,#1476);
#1204=LINE('',#1478,#1479);
#1205=LINE('',#1481,#1482);
#1206=LINE('',#1484,#1485);
#1207=VERTEX_POINT('',#1487);
#1208=LINE('',#1488,#1489);
#1209=LINE('',#1491,#1492);
#1210=VERTEX_POINT('',#1494);
#1211=CIRCLE('',#1495,5.);
#1212=LINE('',#1499,#1500);
#1213=LINE('',#1502,#1503);
#1214=VERTEX_POINT('',#1505);
#1215=CIRCLE('',#1506,2.4);
#1216=VERTEX_POINT('',#1510);
#1217=LINE('',#1511,#1512);
#1218=LINE('',#1514,#1515);
#1219=VERTEX_POINT('',#1517);
#1220=CIRCLE('',#1518,5.);
#1221=LINE('',#1522,#1523);
#1222=LINE('',#1525,#1526);
#1223=VERTEX_POINT('',#1528);
#1224=CIRCLE('',#1529,2.4);
#1225=VERTEX_POINT('',#1533);
#1226=LINE('',#1534,#1535);
#1227=CIRCLE('',#1537,11.5624999999894);
#1228=VERTEX_POINT('',#1541);
#1229=LINE('',#1542,#1543);
#1230=LINE('',#1545,#1546);
#1231=VERTEX_POINT('',#1548);
#1232=CIRCLE('',#1549,2.);
#1233=LINE('',#1553,#1554);
#1234=VERTEX_POINT('',#1556);
#1235=LINE('',#1557,#1558);
#1236=LINE('',#1560,#1561);
#1237=VERTEX_POINT('',#1563);
#1238=CIRCLE('',#1564,2.);
#1239=LINE('',#1568,#1569);
#1240=VERTEX_POINT('',#1571);
#1241=LINE('',#1572,#1573);
#1242=LINE('',#1575,#1576);
#1243=CIRCLE('',#1578,11.5624999999894);
#1244=CIRCLE('',#1582,11.5624999999894);
#1245=VERTEX_POINT('',#1586);
#1246=CIRCLE('',#1587,2.);
#1247=LINE('',#1591,#1592);
#1248=VERTEX_POINT('',#1594);
#1249=LINE('',#1595,#1596);
#1250=LINE('',#1598,#1599);
#1251=CIRCLE('',#1601,2.);
#1252=CIRCLE('',#1605,11.5624999999894);
#1253=VERTEX_POINT('',#1609);
#1254=VERTEX_POINT('',#1610);
#1255=CIRCLE('',#1611,5.73205080756887);
#1256=VERTEX_POINT('',#1615);
#1257=LINE('',#1616,#1617);
#1258=VERTEX_POINT('',#1619);
#1259=CIRCLE('',#1620,5.73205080756888);
#1260=VERTEX_POINT('',#1624);
#1261=LINE('',#1625,#1626);
#1262=VERTEX_POINT('',#1628);
#1263=CIRCLE('',#1629,5.73205080756888);
#1264=VERTEX_POINT('',#1633);
#1265=LINE('',#1634,#1635);
#1266=VERTEX_POINT('',#1637);
#1267=CIRCLE('',#1638,5.73205080756888);
#1268=LINE('',#1642,#1643);
#1269=VERTEX_POINT('',#1645);
#1270=CIRCLE('',#1646,1.);
#1271=VERTEX_POINT('',#1650);
#1272=CIRCLE('',#1651,4.86602540378444);
#1273=CIRCLE('',#1655,1.);
#1274=VERTEX_POINT('',#1659);
#1275=LINE('',#1660,#1661);
#1276=CIRCLE('',#1663,1.);
#1277=VERTEX_POINT('',#1667);
#1278=CIRCLE('',#1668,4.86602540378444);
#1279=CIRCLE('',#1672,1.);
#1280=VERTEX_POINT('',#1676);
#1281=LINE('',#1677,#1678);
#1282=CIRCLE('',#1680,1.);
#1283=VERTEX_POINT('',#1684);
#1284=CIRCLE('',#1685,4.86602540378444);
#1285=CIRCLE('',#1689,1.);
#1286=VERTEX_POINT('',#1693);
#1287=LINE('',#1694,#1695);
#1288=CIRCLE('',#1697,1.);
#1289=VERTEX_POINT('',#1701);
#1290=CIRCLE('',#1702,4.86602540378444);
#1291=CIRCLE('',#1706,1.);
#1292=LINE('',#1710,#1711);
#1293=VERTEX_POINT('',#1713);
#1294=CIRCLE('',#1714,1.);
#1295=VERTEX_POINT('',#1718);
#1296=CIRCLE('',#1719,4.);
#1297=CIRCLE('',#1723,1.);
#1298=VERTEX_POINT('',#1727);
#1299=LINE('',#1728,#1729);
#1300=CIRCLE('',#1731,1.);
#1301=VERTEX_POINT('',#1735);
#1302=CIRCLE('',#1736,4.);
#1303=CIRCLE('',#1740,1.);
#1304=VERTEX_POINT('',#1744);
#1305=LINE('',#1745,#1746);
#1306=CIRCLE('',#1748,1.);
#1307=VERTEX_POINT('',#1752);
#1308=CIRCLE('',#1753,4.);
#1309=CIRCLE('',#1757,1.);
#1310=VERTEX_POINT('',#1761);
#1311=LINE('',#1762,#1763);
#1312=CIRCLE('',#1765,1.);
#1313=VERTEX_POINT('',#1769);
#1314=CIRCLE('',#1770,4.);
#1315=CIRCLE('',#1774,1.);
#1316=LINE('',#1778,#1779);
#1317=CARTESIAN_POINT('',(6.45,-7.4,4.2));
#1318=CARTESIAN_POINT('',(-9.79100463093509,-7.4,4.2));
#1319=CARTESIAN_POINT('',(6.45,-7.4,4.2));
#1320=VECTOR('',#1321,1.);
#1321=DIRECTION('',(-1.,-1.09374812689649E-16,5.46874063448246E-17));
#1322=CARTESIAN_POINT('',(-9.79100463093509,-7.4,2.4));
#1323=CARTESIAN_POINT('',(-9.79100463093509,-7.4,2.4));
#1324=VECTOR('',#1325,1.);
#1325=DIRECTION('',(0.,0.,1.));
#1326=CARTESIAN_POINT('',(-26.55,-7.4,2.4));
#1327=CARTESIAN_POINT('',(-26.55,-7.4,2.4));
#1328=VECTOR('',#1329,1.);
#1329=DIRECTION('',(1.,1.05994231771147E-16,0.));
#1330=CARTESIAN_POINT('',(-26.55,-7.4,4.2));
#1331=CARTESIAN_POINT('',(-26.55,-7.4,2.4));
#1332=VECTOR('',#1333,1.);
#1333=DIRECTION('',(0.,0.,1.));
#1334=CARTESIAN_POINT('',(-19.55,-7.4,4.2));
#1335=CARTESIAN_POINT('',(-26.55,-7.4,4.2));
#1336=VECTOR('',#1337,1.);
#1337=DIRECTION('',(1.,0.,-1.26882631385732E-16));
#1338=CARTESIAN_POINT('',(-9.7910046309351,-7.4,12.5073467115903));
#1339=CARTESIAN_POINT('',(-19.55,-7.4,4.2));
#1340=VECTOR('',#1341,1.);
#1341=DIRECTION('',(0.761469342318055,6.93022807710326E-17,0.648200926187019));
#1342=CARTESIAN_POINT('',(-3.3089953690649,-7.4,12.5073467115903));
#1343=AXIS2_PLACEMENT_3D('',#1344,#1345,#1346);
#1344=CARTESIAN_POINT('',(-6.55,-7.4,8.7));
#1345=DIRECTION('',(-1.28025718154973E-16,1.,1.22464679914735E-16));
#1346=DIRECTION('',(-0.648200926187019,-1.76239488355676E-16,0.761469342318055));
#1347=CARTESIAN_POINT('',(-3.3089953690649,-7.4,12.5073467115903));
#1348=VECTOR('',#1349,1.);
#1349=DIRECTION('',(0.761469342318055,1.38604561542065E-16,-0.648200926187019));
#1350=CARTESIAN_POINT('',(-8.95,-7.4,9.2));
#1351=AXIS2_PLACEMENT_3D('',#1352,#1353,#1354);
#1352=CARTESIAN_POINT('',(-6.55,-7.4,9.2));
#1353=DIRECTION('',(-1.28025718154973E-16,1.,1.22464679914735E-16));
#1354=DIRECTION('',(-1.,-1.28025718154973E-16,-1.22464679914735E-16));
#1355=CARTESIAN_POINT('',(-9.79100463093509,7.4,4.2));
#1356=CARTESIAN_POINT('',(6.45,7.4,4.2));
#1357=CARTESIAN_POINT('',(6.45,7.4,4.2));
#1358=VECTOR('',#1359,1.);
#1359=DIRECTION('',(-1.,1.09374812689649E-16,5.46874063448246E-17));
#1360=CARTESIAN_POINT('',(-3.3089953690649,7.4,12.5073467115903));
#1361=CARTESIAN_POINT('',(-3.3089953690649,7.4,12.5073467115903));
#1362=VECTOR('',#1363,1.);
#1363=DIRECTION('',(0.761469342318055,-6.93022807710327E-17,-0.648200926187019));
#1364=CARTESIAN_POINT('',(-9.7910046309351,7.4,12.5073467115903));
#1365=AXIS2_PLACEMENT_3D('',#1366,#1367,#1368);
#1366=CARTESIAN_POINT('',(-6.55,7.4,8.7));
#1367=DIRECTION('',(1.28025718154973E-16,1.,0.));
#1368=DIRECTION('',(-0.648200926187019,8.29863890838118E-17,0.761469342318055));
#1369=CARTESIAN_POINT('',(-19.55,7.4,4.2));
#1370=CARTESIAN_POINT('',(-19.55,7.4,4.2));
#1371=VECTOR('',#1372,1.);
#1372=DIRECTION('',(0.761469342318055,-1.38604561542065E-16,0.648200926187019));
#1373=CARTESIAN_POINT('',(-26.55,7.4,4.2));
#1374=CARTESIAN_POINT('',(-19.55,7.4,4.2));
#1375=VECTOR('',#1376,1.);
#1376=DIRECTION('',(-1.,1.26882631385732E-16,0.));
#1377=CARTESIAN_POINT('',(-26.55,7.4,2.4));
#1378=CARTESIAN_POINT('',(-26.55,7.4,2.4));
#1379=VECTOR('',#1380,1.);
#1380=DIRECTION('',(0.,0.,1.));
#1381=CARTESIAN_POINT('',(-9.79100463093509,7.4,2.4));
#1382=CARTESIAN_POINT('',(-9.79100463093509,7.4,2.4));
#1383=VECTOR('',#1384,1.);
#1384=DIRECTION('',(-1.,1.58991347656721E-16,0.));
#1385=CARTESIAN_POINT('',(-9.79100463093509,7.4,2.4));
#1386=VECTOR('',#1387,1.);
#1387=DIRECTION('',(0.,0.,1.));
#1388=CARTESIAN_POINT('',(-8.95,7.4,9.2));
#1389=AXIS2_PLACEMENT_3D('',#1390,#1391,#1392);
#1390=CARTESIAN_POINT('',(-6.55,7.4,9.2));
#1391=DIRECTION('',(1.28025718154973E-16,1.,0.));
#1392=DIRECTION('',(-1.,1.28025718154973E-16,-1.22464679914735E-16));
#1393=CARTESIAN_POINT('',(-19.55,9.9,4.2));
#1394=CARTESIAN_POINT('',(-19.55,9.9,4.2));
#1395=VECTOR('',#1396,1.);
#1396=DIRECTION('',(0.,-1.,0.));
#1397=CARTESIAN_POINT('',(-25.75,9.9,4.2));
#1398=CARTESIAN_POINT('',(-19.55,9.9,4.2));
#1399=VECTOR('',#1400,1.);
#1400=DIRECTION('',(-1.,2.86509167645202E-16,0.));
#1401=CARTESIAN_POINT('',(-27.75,7.9,4.2));
#1402=AXIS2_PLACEMENT_3D('',#1403,#1404,#1405);
#1403=CARTESIAN_POINT('',(-25.75,7.9,4.2));
#1404=DIRECTION('',(0.,0.,1.));
#1405=DIRECTION('',(1.77635683940025E-15,1.,0.));
#1406=CARTESIAN_POINT('',(-27.75,-7.9,4.2));
#1407=CARTESIAN_POINT('',(-27.75,7.9,4.2));
#1408=VECTOR('',#1409,1.);
#1409=DIRECTION('',(0.,-1.,0.));
#1410=CARTESIAN_POINT('',(-25.75,-9.9,4.2));
#1411=AXIS2_PLACEMENT_3D('',#1412,#1413,#1414);
#1412=CARTESIAN_POINT('',(-25.75,-7.9,4.2));
#1413=DIRECTION('',(0.,0.,1.));
#1414=DIRECTION('',(-1.,0.,0.));
#1415=CARTESIAN_POINT('',(-19.55,-9.9,4.2));
#1416=CARTESIAN_POINT('',(-25.75,-9.9,4.2));
#1417=VECTOR('',#1418,1.);
#1418=DIRECTION('',(1.,-2.86509167645202E-16,0.));
#1419=CARTESIAN_POINT('',(-19.55,-9.9,4.2));
#1420=VECTOR('',#1421,1.);
#1421=DIRECTION('',(0.,1.,0.));
#1422=CARTESIAN_POINT('',(-26.55,7.4,4.2));
#1423=VECTOR('',#1424,1.);
#1424=DIRECTION('',(0.,-1.,0.));
#1425=CARTESIAN_POINT('',(-9.7910046309351,-7.4,4.2));
#1426=VECTOR('',#1427,1.);
#1427=DIRECTION('',(1.20024110770287E-16,1.,0.));
#1428=CARTESIAN_POINT('',(6.45,-9.9,4.2));
#1429=CARTESIAN_POINT('',(6.45,-7.4,4.2));
#1430=VECTOR('',#1431,1.);
#1431=DIRECTION('',(0.,-1.,0.));
#1432=CARTESIAN_POINT('',(12.750000000001,-9.9,4.19999999999924));
#1433=CARTESIAN_POINT('',(6.45,-9.9,4.2));
#1434=VECTOR('',#1435,1.);
#1435=DIRECTION('',(1.,-2.81961403079359E-16,0.));
#1436=CARTESIAN_POINT('',(12.750000000001,-7.4,4.19999999999849));
#1437=CARTESIAN_POINT('',(12.750000000001,-7.4,4.19999999999924));
#1438=VECTOR('',#1439,1.);
#1439=DIRECTION('',(0.,-1.,0.));
#1440=CARTESIAN_POINT('',(25.7499999999995,-7.4,4.19999999999924));
#1441=CARTESIAN_POINT('',(25.75,-7.4,4.2));
#1442=VECTOR('',#1443,1.);
#1443=DIRECTION('',(-1.,-1.36642833800019E-16,0.));
#1444=CARTESIAN_POINT('',(25.7499999999994,-9.9,4.19999999999943));
#1445=CARTESIAN_POINT('',(25.749999999999,-7.4,4.19999999999924));
#1446=VECTOR('',#1447,1.);
#1447=DIRECTION('',(0.,-1.,0.));
#1448=CARTESIAN_POINT('',(27.75,-7.90000000000001,4.2));
#1449=AXIS2_PLACEMENT_3D('',#1450,#1451,#1452);
#1450=CARTESIAN_POINT('',(25.75,-7.90000000000001,4.2));
#1451=DIRECTION('',(0.,0.,1.));
#1452=DIRECTION('',(-5.16919840265473E-13,-1.,0.));
#1453=CARTESIAN_POINT('',(27.75,7.9,4.2));
#1454=CARTESIAN_POINT('',(27.75,-7.90000000000001,4.2));
#1455=VECTOR('',#1456,1.);
#1456=DIRECTION('',(0.,1.,0.));
#1457=CARTESIAN_POINT('',(25.7499999999991,9.9,4.19999999999943));
#1458=AXIS2_PLACEMENT_3D('',#1459,#1460,#1461);
#1459=CARTESIAN_POINT('',(25.75,7.9,4.2));
#1460=DIRECTION('',(0.,0.,1.));
#1461=DIRECTION('',(1.,-1.77635683940025E-15,0.));
#1462=CARTESIAN_POINT('',(25.7499999999995,7.4,4.19999999999924));
#1463=CARTESIAN_POINT('',(25.749999999999,7.4,4.19999999999924));
#1464=VECTOR('',#1465,1.);
#1465=DIRECTION('',(0.,1.,0.));
#1466=CARTESIAN_POINT('',(12.750000000001,7.4,4.19999999999849));
#1467=CARTESIAN_POINT('',(25.75,7.4,4.2));
#1468=VECTOR('',#1469,1.);
#1469=DIRECTION('',(-1.,1.36642833800019E-16,0.));
#1470=CARTESIAN_POINT('',(12.7500000000018,9.9,4.19999999999924));
#1471=CARTESIAN_POINT('',(12.750000000001,7.4,4.19999999999924));
#1472=VECTOR('',#1473,1.);
#1473=DIRECTION('',(0.,1.,0.));
#1474=CARTESIAN_POINT('',(6.45,9.9,4.2));
#1475=CARTESIAN_POINT('',(12.7500000000033,9.9,4.2));
#1476=VECTOR('',#1477,1.);
#1477=DIRECTION('',(-1.,2.81961403079259E-16,0.));
#1478=CARTESIAN_POINT('',(6.45,7.4,4.2));
#1479=VECTOR('',#1480,1.);
#1480=DIRECTION('',(0.,1.,0.));
#1481=CARTESIAN_POINT('',(-9.79100463093509,-7.4,2.4));
#1482=VECTOR('',#1483,1.);
#1483=DIRECTION('',(0.,1.,0.));
#1484=CARTESIAN_POINT('',(-26.55,7.4,2.4));
#1485=VECTOR('',#1486,1.);
#1486=DIRECTION('',(0.,-1.,0.));
#1487=CARTESIAN_POINT('',(-9.7910046309351,-9.9,12.5073467115903));
#1488=CARTESIAN_POINT('',(-19.55,-9.9,4.2));
#1489=VECTOR('',#1490,1.);
#1490=DIRECTION('',(0.761469342318055,0.,0.648200926187019));
#1491=CARTESIAN_POINT('',(-9.7910046309351,-7.4,12.5073467115903));
#1492=VECTOR('',#1493,1.);
#1493=DIRECTION('',(0.,-1.,0.));
#1494=CARTESIAN_POINT('',(-3.3089953690649,-9.9,12.5073467115903));
#1495=AXIS2_PLACEMENT_3D('',#1496,#1497,#1498);
#1496=CARTESIAN_POINT('',(-6.55,-9.9,8.7));
#1497=DIRECTION('',(1.28025718154973E-16,1.,0.));
#1498=DIRECTION('',(-0.648200926187019,8.29863890838117E-17,0.761469342318055));
#1499=CARTESIAN_POINT('',(-3.3089953690649,-7.4,12.5073467115903));
#1500=VECTOR('',#1501,1.);
#1501=DIRECTION('',(3.5527136788005E-16,-1.,0.));
#1502=CARTESIAN_POINT('',(-3.30899536906491,-9.9,12.5073467115903));
#1503=VECTOR('',#1504,1.);
#1504=DIRECTION('',(0.761469342318055,0.,-0.648200926187019));
#1505=CARTESIAN_POINT('',(-8.95,-9.9,9.2));
#1506=AXIS2_PLACEMENT_3D('',#1507,#1508,#1509);
#1507=CARTESIAN_POINT('',(-6.55,-9.9,9.2));
#1508=DIRECTION('',(1.28025718154973E-16,1.,0.));
#1509=DIRECTION('',(-1.,1.28025718154973E-16,-1.22464679914735E-16));
#1510=CARTESIAN_POINT('',(-3.3089953690649,9.9,12.5073467115903));
#1511=CARTESIAN_POINT('',(-3.30899536906491,9.9,12.5073467115903));
#1512=VECTOR('',#1513,1.);
#1513=DIRECTION('',(0.761469342318055,0.,-0.648200926187019));
#1514=CARTESIAN_POINT('',(-3.3089953690649,7.4,12.5073467115903));
#1515=VECTOR('',#1516,1.);
#1516=DIRECTION('',(3.5527136788005E-16,1.,0.));
#1517=CARTESIAN_POINT('',(-9.7910046309351,9.9,12.5073467115903));
#1518=AXIS2_PLACEMENT_3D('',#1519,#1520,#1521);
#1519=CARTESIAN_POINT('',(-6.55,9.9,8.7));
#1520=DIRECTION('',(1.28025718154973E-16,1.,0.));
#1521=DIRECTION('',(-0.648200926187019,8.29863890838117E-17,0.761469342318055));
#1522=CARTESIAN_POINT('',(-9.7910046309351,7.4,12.5073467115903));
#1523=VECTOR('',#1524,1.);
#1524=DIRECTION('',(0.,1.,0.));
#1525=CARTESIAN_POINT('',(-19.55,9.9,4.2));
#1526=VECTOR('',#1527,1.);
#1527=DIRECTION('',(0.761469342318055,0.,0.648200926187019));
#1528=CARTESIAN_POINT('',(-8.95,9.9,9.2));
#1529=AXIS2_PLACEMENT_3D('',#1530,#1531,#1532);
#1530=CARTESIAN_POINT('',(-6.55,9.9,9.2));
#1531=DIRECTION('',(1.28025718154973E-16,1.,0.));
#1532=DIRECTION('',(-1.,1.28025718154973E-16,-1.22464679914735E-16));
#1533=CARTESIAN_POINT('',(-25.75,9.90000000000001,0.));
#1534=CARTESIAN_POINT('',(-25.75,9.9,0.));
#1535=VECTOR('',#1536,1.);
#1536=DIRECTION('',(0.,0.,1.));
#1537=AXIS2_PLACEMENT_3D('',#1538,#1539,#1540);
#1538=CARTESIAN_POINT('',(19.25,9.9,-5.36249999998942));
#1539=DIRECTION('',(1.28025718154973E-16,1.,0.));
#1540=DIRECTION('',(-0.562162162162587,7.19712145304176E-17,0.827027027026738));
#1541=CARTESIAN_POINT('',(25.75,9.9,0.));
#1542=CARTESIAN_POINT('',(25.75,9.9,0.));
#1543=VECTOR('',#1544,1.);
#1544=DIRECTION('',(0.,0.,1.));
#1545=CARTESIAN_POINT('',(25.75,9.9,0.));
#1546=VECTOR('',#1547,1.);
#1547=DIRECTION('',(-1.,1.03477097440791E-16,0.));
#1548=CARTESIAN_POINT('',(-27.75,7.9,0.));
#1549=AXIS2_PLACEMENT_3D('',#1550,#1551,#1552);
#1550=CARTESIAN_POINT('',(-25.75,7.9,0.));
#1551=DIRECTION('',(0.,0.,-1.));
#1552=DIRECTION('',(-1.,0.,0.));
#1553=CARTESIAN_POINT('',(-27.75,7.9,0.));
#1554=VECTOR('',#1555,1.);
#1555=DIRECTION('',(0.,0.,1.));
#1556=CARTESIAN_POINT('',(-27.75,-7.9,0.));
#1557=CARTESIAN_POINT('',(-27.75,7.9,0.));
#1558=VECTOR('',#1559,1.);
#1559=DIRECTION('',(0.,-1.,0.));
#1560=CARTESIAN_POINT('',(-27.75,-7.9,0.));
#1561=VECTOR('',#1562,1.);
#1562=DIRECTION('',(0.,0.,1.));
#1563=CARTESIAN_POINT('',(-25.75,-9.9,0.));
#1564=AXIS2_PLACEMENT_3D('',#1565,#1566,#1567);
#1565=CARTESIAN_POINT('',(-25.75,-7.9,0.));
#1566=DIRECTION('',(0.,0.,-1.));
#1567=DIRECTION('',(0.,-1.,0.));
#1568=CARTESIAN_POINT('',(-25.75,-9.9,0.));
#1569=VECTOR('',#1570,1.);
#1570=DIRECTION('',(0.,0.,1.));
#1571=CARTESIAN_POINT('',(25.75,-9.90000000000001,0.));
#1572=CARTESIAN_POINT('',(-25.75,-9.9,0.));
#1573=VECTOR('',#1574,1.);
#1574=DIRECTION('',(1.,-1.37969463254388E-16,0.));
#1575=CARTESIAN_POINT('',(25.75,-9.90000000000001,0.));
#1576=VECTOR('',#1577,1.);
#1577=DIRECTION('',(0.,0.,1.));
#1578=AXIS2_PLACEMENT_3D('',#1579,#1580,#1581);
#1579=CARTESIAN_POINT('',(19.25,-9.9,-5.36249999998942));
#1580=DIRECTION('',(1.28025718154973E-16,1.,0.));
#1581=DIRECTION('',(-0.562162162162587,7.19712145304176E-17,0.827027027026738));
#1582=AXIS2_PLACEMENT_3D('',#1583,#1584,#1585);
#1583=CARTESIAN_POINT('',(19.25,-7.4,-5.36249999998942));
#1584=DIRECTION('',(-1.28025718154973E-16,1.,1.22464679914735E-16));
#1585=DIRECTION('',(-0.562162162162587,-1.73252814676082E-16,0.827027027026738));
#1586=CARTESIAN_POINT('',(27.75,-7.90000000000001,0.));
#1587=AXIS2_PLACEMENT_3D('',#1588,#1589,#1590);
#1588=CARTESIAN_POINT('',(25.75,-7.90000000000001,0.));
#1589=DIRECTION('',(0.,0.,-1.));
#1590=DIRECTION('',(1.,-4.44089209850063E-16,0.));
#1591=CARTESIAN_POINT('',(27.75,-7.90000000000001,0.));
#1592=VECTOR('',#1593,1.);
#1593=DIRECTION('',(0.,0.,1.));
#1594=CARTESIAN_POINT('',(27.75,7.9,0.));
#1595=CARTESIAN_POINT('',(27.75,7.9,0.));
#1596=VECTOR('',#1597,1.);
#1597=DIRECTION('',(0.,0.,1.));
#1598=CARTESIAN_POINT('',(27.75,-7.90000000000001,0.));
#1599=VECTOR('',#1600,1.);
#1600=DIRECTION('',(0.,1.,0.));
#1601=AXIS2_PLACEMENT_3D('',#1602,#1603,#1604);
#1602=CARTESIAN_POINT('',(25.75,7.9,0.));
#1603=DIRECTION('',(0.,0.,-1.));
#1604=DIRECTION('',(0.,1.,0.));
#1605=AXIS2_PLACEMENT_3D('',#1606,#1607,#1608);
#1606=CARTESIAN_POINT('',(19.25,7.4,-5.36249999998942));
#1607=DIRECTION('',(1.28025718154973E-16,1.,0.));
#1608=DIRECTION('',(-0.562162162162587,7.19712145304176E-17,0.827027027026738));
#1609=CARTESIAN_POINT('',(-19.75,7.73205080756888,-7.40148683083438E-17));
#1610=CARTESIAN_POINT('',(-25.4820508075689,2.,0.));
#1611=AXIS2_PLACEMENT_3D('',#1612,#1613,#1614);
#1612=CARTESIAN_POINT('',(-19.75,2.,0.));
#1613=DIRECTION('',(0.,0.,-1.));
#1614=DIRECTION('',(-1.,1.16212126713095E-16,0.));
#1615=CARTESIAN_POINT('',(-25.4820508075689,-2.,0.));
#1616=CARTESIAN_POINT('',(-25.4820508075689,2.,0.));
#1617=VECTOR('',#1618,1.);
#1618=DIRECTION('',(0.,-1.,0.));
#1619=CARTESIAN_POINT('',(-19.75,-7.73205080756888,0.));
#1620=AXIS2_PLACEMENT_3D('',#1621,#1622,#1623);
#1621=CARTESIAN_POINT('',(-19.75,-2.,0.));
#1622=DIRECTION('',(0.,0.,-1.));
#1623=DIRECTION('',(0.,-1.,0.));
#1624=CARTESIAN_POINT('',(-11.75,-7.73205080756888,0.));
#1625=CARTESIAN_POINT('',(-19.75,-7.73205080756888,0.));
#1626=VECTOR('',#1627,1.);
#1627=DIRECTION('',(1.,1.11022302462516E-16,0.));
#1628=CARTESIAN_POINT('',(-6.01794919243113,-2.,0.));
#1629=AXIS2_PLACEMENT_3D('',#1630,#1631,#1632);
#1630=CARTESIAN_POINT('',(-11.75,-2.,0.));
#1631=DIRECTION('',(0.,0.,-1.));
#1632=DIRECTION('',(1.,-2.3242425342619E-16,0.));
#1633=CARTESIAN_POINT('',(-6.01794919243113,2.,0.));
#1634=CARTESIAN_POINT('',(-6.01794919243113,-2.,0.));
#1635=VECTOR('',#1636,1.);
#1636=DIRECTION('',(0.,1.,0.));
#1637=CARTESIAN_POINT('',(-11.75,7.73205080756888,-1.48029736616688E-16));
#1638=AXIS2_PLACEMENT_3D('',#1639,#1640,#1641);
#1639=CARTESIAN_POINT('',(-11.75,2.,0.));
#1640=DIRECTION('',(0.,0.,-1.));
#1641=DIRECTION('',(3.09899004568254E-16,1.,0.));
#1642=CARTESIAN_POINT('',(-11.75,7.73205080756888,-2.22044604925031E-16));
#1643=VECTOR('',#1644,1.);
#1644=DIRECTION('',(-1.,-1.11022302462516E-16,1.38777878078145E-17));
#1645=CARTESIAN_POINT('',(-19.75,6.86602540378444,0.5));
#1646=AXIS2_PLACEMENT_3D('',#1647,#1648,#1649);
#1647=CARTESIAN_POINT('',(-19.75,7.73205080756888,1.));
#1648=DIRECTION('',(-1.,-1.12474308752215E-31,1.85037170770859E-17));
#1649=DIRECTION('',(-1.85037170770859E-17,3.33066907387547E-16,-1.));
#1650=CARTESIAN_POINT('',(-24.6160254037844,2.,0.5));
#1651=AXIS2_PLACEMENT_3D('',#1652,#1653,#1654);
#1652=CARTESIAN_POINT('',(-19.75,2.,0.5));
#1653=DIRECTION('',(0.,0.,-1.));
#1654=DIRECTION('',(-1.,-1.82526465852267E-16,0.));
#1655=AXIS2_PLACEMENT_3D('',#1656,#1657,#1658);
#1656=CARTESIAN_POINT('',(-25.4820508075689,2.,1.));
#1657=DIRECTION('',(2.22044604925031E-16,-1.,0.));
#1658=DIRECTION('',(0.,0.,-1.));
#1659=CARTESIAN_POINT('',(-24.6160254037844,-2.,0.5));
#1660=CARTESIAN_POINT('',(-24.6160254037844,2.,0.5));
#1661=VECTOR('',#1662,1.);
#1662=DIRECTION('',(0.,-1.,0.));
#1663=AXIS2_PLACEMENT_3D('',#1664,#1665,#1666);
#1664=CARTESIAN_POINT('',(-25.4820508075689,-2.,1.));
#1665=DIRECTION('',(-4.44089209850063E-16,-1.,-1.38777878078145E-17));
#1666=DIRECTION('',(5.55111512312578E-17,1.38777878078144E-17,-1.));
#1667=CARTESIAN_POINT('',(-19.75,-6.86602540378444,0.5));
#1668=AXIS2_PLACEMENT_3D('',#1669,#1670,#1671);
#1669=CARTESIAN_POINT('',(-19.75,-2.,0.5));
#1670=DIRECTION('',(0.,0.,-1.));
#1671=DIRECTION('',(7.30105863409069E-16,-1.,0.));
#1672=AXIS2_PLACEMENT_3D('',#1673,#1674,#1675);
#1673=CARTESIAN_POINT('',(-19.75,-7.73205080756888,1.));
#1674=DIRECTION('',(1.,1.66533453693773E-16,0.));
#1675=DIRECTION('',(1.4791141972894E-31,-8.88178419700125E-16,-1.));
#1676=CARTESIAN_POINT('',(-11.75,-6.86602540378444,0.5));
#1677=CARTESIAN_POINT('',(-19.75,-6.86602540378444,0.5));
#1678=VECTOR('',#1679,1.);
#1679=DIRECTION('',(1.,0.,0.));
#1680=AXIS2_PLACEMENT_3D('',#1681,#1682,#1683);
#1681=CARTESIAN_POINT('',(-11.75,-7.73205080756888,1.));
#1682=DIRECTION('',(1.,7.40148683083438E-17,-6.16297582203915E-33));
#1683=DIRECTION('',(-4.31408307542741E-32,4.9960036108132E-16,-1.));
#1684=CARTESIAN_POINT('',(-6.88397459621557,-2.,0.5));
#1685=AXIS2_PLACEMENT_3D('',#1686,#1687,#1688);
#1686=CARTESIAN_POINT('',(-11.75,-2.,0.5));
#1687=DIRECTION('',(0.,0.,-1.));
#1688=DIRECTION('',(1.,9.12632329261336E-17,0.));
#1689=AXIS2_PLACEMENT_3D('',#1690,#1691,#1692);
#1690=CARTESIAN_POINT('',(-6.01794919243113,-2.,1.));
#1691=DIRECTION('',(-1.11022302462516E-16,1.,0.));
#1692=DIRECTION('',(0.,0.,-1.));
#1693=CARTESIAN_POINT('',(-6.88397459621557,2.,0.5));
#1694=CARTESIAN_POINT('',(-6.88397459621557,-2.,0.5));
#1695=VECTOR('',#1696,1.);
#1696=DIRECTION('',(0.,1.,0.));
#1697=AXIS2_PLACEMENT_3D('',#1698,#1699,#1700);
#1698=CARTESIAN_POINT('',(-6.01794919243113,2.,1.));
#1699=DIRECTION('',(0.,1.,0.));
#1700=DIRECTION('',(1.11022302462516E-16,0.,-1.));
#1701=CARTESIAN_POINT('',(-11.75,6.86602540378444,0.5));
#1702=AXIS2_PLACEMENT_3D('',#1703,#1704,#1705);
#1703=CARTESIAN_POINT('',(-11.75,2.,0.5));
#1704=DIRECTION('',(0.,0.,-1.));
#1705=DIRECTION('',(0.,1.,0.));
#1706=AXIS2_PLACEMENT_3D('',#1707,#1708,#1709);
#1707=CARTESIAN_POINT('',(-11.75,7.73205080756888,1.));
#1708=DIRECTION('',(-1.,1.66533453693773E-16,0.));
#1709=DIRECTION('',(0.,0.,-1.));
#1710=CARTESIAN_POINT('',(-11.75,6.86602540378444,0.5));
#1711=VECTOR('',#1712,1.);
#1712=DIRECTION('',(-1.,0.,0.));
#1713=CARTESIAN_POINT('',(-19.75,6.,1.));
#1714=AXIS2_PLACEMENT_3D('',#1715,#1716,#1717);
#1715=CARTESIAN_POINT('',(-19.75,6.,0.));
#1716=DIRECTION('',(1.,-2.22044604925031E-16,0.));
#1717=DIRECTION('',(1.92296268638356E-16,0.866025403784439,0.5));
#1718=CARTESIAN_POINT('',(-23.75,2.,1.));
#1719=AXIS2_PLACEMENT_3D('',#1720,#1721,#1722);
#1720=CARTESIAN_POINT('',(-19.75,2.,1.));
#1721=DIRECTION('',(0.,0.,-1.));
#1722=DIRECTION('',(-1.,0.,0.));
#1723=AXIS2_PLACEMENT_3D('',#1724,#1725,#1726);
#1724=CARTESIAN_POINT('',(-23.75,2.,-3.70074341541719E-17));
#1725=DIRECTION('',(2.96059473233375E-16,1.,9.25185853854297E-18));
#1726=DIRECTION('',(-0.86602540378444,2.51769095581871E-16,0.499999999999998));
#1727=CARTESIAN_POINT('',(-23.75,-2.,1.));
#1728=CARTESIAN_POINT('',(-23.75,-2.,1.));
#1729=VECTOR('',#1730,1.);
#1730=DIRECTION('',(0.,1.,0.));
#1731=AXIS2_PLACEMENT_3D('',#1732,#1733,#1734);
#1732=CARTESIAN_POINT('',(-23.75,-2.,0.));
#1733=DIRECTION('',(-1.66533453693774E-16,1.,0.));
#1734=DIRECTION('',(-0.866025403784438,-1.44222201478767E-16,0.500000000000002));
#1735=CARTESIAN_POINT('',(-19.75,-6.,1.));
#1736=AXIS2_PLACEMENT_3D('',#1737,#1738,#1739);
#1737=CARTESIAN_POINT('',(-19.75,-2.,1.));
#1738=DIRECTION('',(0.,0.,-1.));
#1739=DIRECTION('',(0.,-1.,0.));
#1740=AXIS2_PLACEMENT_3D('',#1741,#1742,#1743);
#1741=CARTESIAN_POINT('',(-19.75,-6.,0.));
#1742=DIRECTION('',(-1.,0.,0.));
#1743=DIRECTION('',(0.,-0.866025403784439,0.5));
#1744=CARTESIAN_POINT('',(-11.75,-6.,1.));
#1745=CARTESIAN_POINT('',(-11.75,-6.,1.));
#1746=VECTOR('',#1747,1.);
#1747=DIRECTION('',(-1.,0.,0.));
#1748=AXIS2_PLACEMENT_3D('',#1749,#1750,#1751);
#1749=CARTESIAN_POINT('',(-11.75,-6.,0.));
#1750=DIRECTION('',(-1.,-1.66533453693774E-16,0.));
#1751=DIRECTION('',(1.44222201478767E-16,-0.866025403784439,0.5));
#1752=CARTESIAN_POINT('',(-7.75,-2.,1.));
#1753=AXIS2_PLACEMENT_3D('',#1754,#1755,#1756);
#1754=CARTESIAN_POINT('',(-11.75,-2.,1.));
#1755=DIRECTION('',(0.,0.,-1.));
#1756=DIRECTION('',(1.,1.11022302462516E-16,0.));
#1757=AXIS2_PLACEMENT_3D('',#1758,#1759,#1760);
#1758=CARTESIAN_POINT('',(-7.75,-2.,0.));
#1759=DIRECTION('',(0.,-1.,0.));
#1760=DIRECTION('',(0.866025403784439,0.,0.5));
#1761=CARTESIAN_POINT('',(-7.75,2.,1.));
#1762=CARTESIAN_POINT('',(-7.75,2.,1.));
#1763=VECTOR('',#1764,1.);
#1764=DIRECTION('',(0.,-1.,0.));
#1765=AXIS2_PLACEMENT_3D('',#1766,#1767,#1768);
#1766=CARTESIAN_POINT('',(-7.75,2.,0.));
#1767=DIRECTION('',(-1.11022302462516E-16,-1.,0.));
#1768=DIRECTION('',(0.866025403784439,-9.61481343191782E-17,0.5));
#1769=CARTESIAN_POINT('',(-11.75,6.,1.));
#1770=AXIS2_PLACEMENT_3D('',#1771,#1772,#1773);
#1771=CARTESIAN_POINT('',(-11.75,2.,1.));
#1772=DIRECTION('',(0.,0.,-1.));
#1773=DIRECTION('',(0.,1.,0.));
#1774=AXIS2_PLACEMENT_3D('',#1775,#1776,#1777);
#1775=CARTESIAN_POINT('',(-11.75,6.,0.));
#1776=DIRECTION('',(1.,0.,0.));
#1777=DIRECTION('',(0.,0.866025403784439,0.5));
#1778=CARTESIAN_POINT('',(-19.75,6.,1.));
#1779=VECTOR('',#1780,1.);
#1780=DIRECTION('',(1.,1.11022302462516E-16,0.));
ENDSEC;
END-ISO-10303-21;
