ISO-10303-21;
HEADER;
FILE_DESCRIPTION(('STEP AP242'),
    '1');
FILE_NAME('inside',
    '',
    ('UNSPECIFIED'),
    ('UNSPECIFIED'),
    'C3D Converter',
    'C3D Toolkit',
    '');
FILE_SCHEMA(('AP242_MANAGED_MODEL_BASED_3D_ENGINEERING_MIM_LF { 1 0 10303 442 1 1 4 }'));
ENDSEC;

DATA;
#1=PRODUCT_DEFINITION('','UNSPECIFIED',#28,#31);
#2=SHAPE_DEFINITION_REPRESENTATION(#26,#3);
#3=SHAPE_REPRESENTATION('NONE',(#4),#8);
#4=AXIS2_PLACEMENT_3D('',#5,#6,#7);
#5=CARTESIAN_POINT('',(0.,0.,0.));
#6=DIRECTION('',(0.,0.,1.));
#7=DIRECTION('',(1.,0.,0.));
#8=(GEOMETRIC_REPRESENTATION_CONTEXT(3)GLOBAL_UNCERTAINTY_ASSIGNED_CONTEXT((#10))
GLOBAL_UNIT_ASSIGNED_CONTEXT((#9,#11,#12))REPRESENTATION_CONTEXT('NONE','NONE'));
#9=(LENGTH_UNIT()NAMED_UNIT(*)SI_UNIT(.MILLI.,.METRE.));
#10=UNCERTAINTY_MEASURE_WITH_UNIT(LENGTH_MEASURE(1.E-5),#9,'NONE','NONE');
#11=(NAMED_UNIT(*)PLANE_ANGLE_UNIT()SI_UNIT($,.RADIAN.));
#12=(NAMED_UNIT(*)SI_UNIT($,.STERADIAN.)SOLID_ANGLE_UNIT());
#13=MANIFOLD_SOLID_BREP('',#14);
#14=CLOSED_SHELL('',(#53,#62,#71,#80,#89,#98,#107,#116,#125,#134));
#15=COLOUR_RGB('',0.564705882352941,0.564705882352941,0.564705882352941);
#16=FILL_AREA_STYLE_COLOUR('',#15);
#17=FILL_AREA_STYLE($,(#16));
#18=SURFACE_STYLE_FILL_AREA(#17);
#19=SURFACE_SIDE_STYLE('',(#18));
#20=SURFACE_STYLE_USAGE(.BOTH.,#19);
#21=PRESENTATION_STYLE_ASSIGNMENT((#20));
#22=MECHANICAL_DESIGN_GEOMETRIC_PRESENTATION_REPRESENTATION('NONE',(#23,#61,#70,
#79,#88,#97,#106,#115,#124,#133,#142),#8);
#23=STYLED_ITEM('',(#21),#13);
#24=ADVANCED_BREP_SHAPE_REPRESENTATION('NONE',(#13),#8);
#25=SHAPE_REPRESENTATION_RELATIONSHIP('','',#3,#24);
#26=PRODUCT_DEFINITION_SHAPE('NONE','NONE',#1);
#27=MECHANICAL_CONTEXT('NONE',#32,'mechanical');
#28=PRODUCT_DEFINITION_FORMATION_WITH_SPECIFIED_SOURCE('ANY','UNSPECIFIED',#29,.NOT_KNOWN.);
#29=PRODUCT('','inside','NONE',(#27));
#30=PRODUCT_RELATED_PRODUCT_CATEGORY('detail','',(#29));
#31=DESIGN_CONTEXT('detailed design',#32,'design');
#32=APPLICATION_CONTEXT('configuration controlled 3d designs of mechanical parts and assemblies');
#33=APPLICATION_PROTOCOL_DEFINITION('international standard','config_control_design',
1994,#32);
#34=CC_DESIGN_DATE_AND_TIME_ASSIGNMENT(#35,#39,(#1));
#35=DATE_AND_TIME(#36,#37);
#36=CALENDAR_DATE(0,1,1);
#37=LOCAL_TIME(0,0,0.,#38);
#38=COORDINATED_UNIVERSAL_TIME_OFFSET(0,0,.AHEAD.);
#39=DATE_TIME_ROLE('creation_date');
#40=CC_DESIGN_APPROVAL(#41,(#1));
#41=APPROVAL(#42,'UNSPECIFIED');
#42=APPROVAL_STATUS('not_yet_approved');
#43=APPROVAL_DATE_TIME(#44,#41);
#44=DATE_AND_TIME(#45,#46);
#45=CALENDAR_DATE(0,1,1);
#46=LOCAL_TIME(0,0,0.,#47);
#47=COORDINATED_UNIVERSAL_TIME_OFFSET(0,0,.AHEAD.);
#48=PERSON('UNSPECIFIED','savatneevvg','UNSPECIFIED',('UNSPECIFIED'),('UNSPECIFIED'),
('UNSPECIFIED'));
#49=ORGANIZATION('UNSPECIFIED','UNSPECIFIED','UNSPECIFIED');
#50=PERSON_AND_ORGANIZATION(#48,#49);
#51=PERSON_AND_ORGANIZATION_ROLE('creator');
#52=CC_DESIGN_PERSON_AND_ORGANIZATION_ASSIGNMENT(#50,#51,(#28,#1));
#53=ADVANCED_FACE('',(#143),#145,.T.);
#54=COLOUR_RGB('',0.564705882352941,0.564705882352941,0.564705882352941);
#55=FILL_AREA_STYLE_COLOUR('',#54);
#56=FILL_AREA_STYLE($,(#55));
#57=SURFACE_STYLE_FILL_AREA(#56);
#58=SURFACE_SIDE_STYLE('',(#57));
#59=SURFACE_STYLE_USAGE(.BOTH.,#58);
#60=PRESENTATION_STYLE_ASSIGNMENT((#59));
#61=STYLED_ITEM('',(#60),#53);
#62=ADVANCED_FACE('',(#150),#152,.T.);
#63=COLOUR_RGB('',0.564705882352941,0.564705882352941,0.564705882352941);
#64=FILL_AREA_STYLE_COLOUR('',#63);
#65=FILL_AREA_STYLE($,(#64));
#66=SURFACE_STYLE_FILL_AREA(#65);
#67=SURFACE_SIDE_STYLE('',(#66));
#68=SURFACE_STYLE_USAGE(.BOTH.,#67);
#69=PRESENTATION_STYLE_ASSIGNMENT((#68));
#70=STYLED_ITEM('',(#69),#62);
#71=ADVANCED_FACE('',(#157),#159,.T.);
#72=COLOUR_RGB('',0.564705882352941,0.564705882352941,0.564705882352941);
#73=FILL_AREA_STYLE_COLOUR('',#72);
#74=FILL_AREA_STYLE($,(#73));
#75=SURFACE_STYLE_FILL_AREA(#74);
#76=SURFACE_SIDE_STYLE('',(#75));
#77=SURFACE_STYLE_USAGE(.BOTH.,#76);
#78=PRESENTATION_STYLE_ASSIGNMENT((#77));
#79=STYLED_ITEM('',(#78),#71);
#80=ADVANCED_FACE('',(#164),#166,.T.);
#81=COLOUR_RGB('',0.564705882352941,0.564705882352941,0.564705882352941);
#82=FILL_AREA_STYLE_COLOUR('',#81);
#83=FILL_AREA_STYLE($,(#82));
#84=SURFACE_STYLE_FILL_AREA(#83);
#85=SURFACE_SIDE_STYLE('',(#84));
#86=SURFACE_STYLE_USAGE(.BOTH.,#85);
#87=PRESENTATION_STYLE_ASSIGNMENT((#86));
#88=STYLED_ITEM('',(#87),#80);
#89=ADVANCED_FACE('',(#171),#173,.T.);
#90=COLOUR_RGB('',0.564705882352941,0.564705882352941,0.564705882352941);
#91=FILL_AREA_STYLE_COLOUR('',#90);
#92=FILL_AREA_STYLE($,(#91));
#93=SURFACE_STYLE_FILL_AREA(#92);
#94=SURFACE_SIDE_STYLE('',(#93));
#95=SURFACE_STYLE_USAGE(.BOTH.,#94);
#96=PRESENTATION_STYLE_ASSIGNMENT((#95));
#97=STYLED_ITEM('',(#96),#89);
#98=ADVANCED_FACE('',(#178),#180,.F.);
#99=COLOUR_RGB('',0.564705882352941,0.564705882352941,0.564705882352941);
#100=FILL_AREA_STYLE_COLOUR('',#99);
#101=FILL_AREA_STYLE($,(#100));
#102=SURFACE_STYLE_FILL_AREA(#101);
#103=SURFACE_SIDE_STYLE('',(#102));
#104=SURFACE_STYLE_USAGE(.BOTH.,#103);
#105=PRESENTATION_STYLE_ASSIGNMENT((#104));
#106=STYLED_ITEM('',(#105),#98);
#107=ADVANCED_FACE('',(#185),#187,.F.);
#108=COLOUR_RGB('',0.564705882352941,0.564705882352941,0.564705882352941);
#109=FILL_AREA_STYLE_COLOUR('',#108);
#110=FILL_AREA_STYLE($,(#109));
#111=SURFACE_STYLE_FILL_AREA(#110);
#112=SURFACE_SIDE_STYLE('',(#111));
#113=SURFACE_STYLE_USAGE(.BOTH.,#112);
#114=PRESENTATION_STYLE_ASSIGNMENT((#113));
#115=STYLED_ITEM('',(#114),#107);
#116=ADVANCED_FACE('',(#192),#194,.F.);
#117=COLOUR_RGB('',0.564705882352941,0.564705882352941,0.564705882352941);
#118=FILL_AREA_STYLE_COLOUR('',#117);
#119=FILL_AREA_STYLE($,(#118));
#120=SURFACE_STYLE_FILL_AREA(#119);
#121=SURFACE_SIDE_STYLE('',(#120));
#122=SURFACE_STYLE_USAGE(.BOTH.,#121);
#123=PRESENTATION_STYLE_ASSIGNMENT((#122));
#124=STYLED_ITEM('',(#123),#116);
#125=ADVANCED_FACE('',(#199),#201,.F.);
#126=COLOUR_RGB('',0.564705882352941,0.564705882352941,0.564705882352941);
#127=FILL_AREA_STYLE_COLOUR('',#126);
#128=FILL_AREA_STYLE($,(#127));
#129=SURFACE_STYLE_FILL_AREA(#128);
#130=SURFACE_SIDE_STYLE('',(#129));
#131=SURFACE_STYLE_USAGE(.BOTH.,#130);
#132=PRESENTATION_STYLE_ASSIGNMENT((#131));
#133=STYLED_ITEM('',(#132),#125);
#134=ADVANCED_FACE('',(#206),#208,.F.);
#135=COLOUR_RGB('',0.564705882352941,0.564705882352941,0.564705882352941);
#136=FILL_AREA_STYLE_COLOUR('',#135);
#137=FILL_AREA_STYLE($,(#136));
#138=SURFACE_STYLE_FILL_AREA(#137);
#139=SURFACE_SIDE_STYLE('',(#138));
#140=SURFACE_STYLE_USAGE(.BOTH.,#139);
#141=PRESENTATION_STYLE_ASSIGNMENT((#140));
#142=STYLED_ITEM('',(#141),#134);
#143=FACE_BOUND('',#144,.T.);
#144=EDGE_LOOP('',(#213,#214,#215,#216));
#145=PLANE('',#146);
#146=AXIS2_PLACEMENT_3D('',#147,#148,#149);
#147=CARTESIAN_POINT('',(-28.3,-13.8,0.));
#148=DIRECTION('',(6.27687929116696E-17,-1.,0.));
#149=DIRECTION('',(1.,6.27687929116696E-17,0.));
#150=FACE_BOUND('',#151,.T.);
#151=EDGE_LOOP('',(#217,#218,#219,#220));
#152=PLANE('',#153);
#153=AXIS2_PLACEMENT_3D('',#154,#155,#156);
#154=CARTESIAN_POINT('',(28.3,-13.8,0.));
#155=DIRECTION('',(1.,0.,0.));
#156=DIRECTION('',(0.,1.,0.));
#157=FACE_BOUND('',#158,.T.);
#158=EDGE_LOOP('',(#221,#222,#223,#224));
#159=PLANE('',#160);
#160=AXIS2_PLACEMENT_3D('',#161,#162,#163);
#161=CARTESIAN_POINT('',(28.3,13.8,0.));
#162=DIRECTION('',(-6.27687929116696E-17,1.,0.));
#163=DIRECTION('',(-1.,-6.27687929116696E-17,0.));
#164=FACE_BOUND('',#165,.T.);
#165=EDGE_LOOP('',(#225,#226,#227,#228));
#166=PLANE('',#167);
#167=AXIS2_PLACEMENT_3D('',#168,#169,#170);
#168=CARTESIAN_POINT('',(-28.3,13.8,0.));
#169=DIRECTION('',(-1.,0.,0.));
#170=DIRECTION('',(0.,-1.,0.));
#171=FACE_BOUND('',#172,.T.);
#172=EDGE_LOOP('',(#229,#230,#231,#232));
#173=PLANE('',#174);
#174=AXIS2_PLACEMENT_3D('',#175,#176,#177);
#175=CARTESIAN_POINT('',(0.,0.,3.));
#176=DIRECTION('',(0.,0.,1.));
#177=DIRECTION('',(6.12323399573677E-17,-1.,0.));
#178=FACE_BOUND('',#179,.T.);
#179=EDGE_LOOP('',(#233,#234,#235,#236));
#180=PLANE('',#181);
#181=AXIS2_PLACEMENT_3D('',#182,#183,#184);
#182=CARTESIAN_POINT('',(0.,0.,0.));
#183=DIRECTION('',(0.,0.,1.));
#184=DIRECTION('',(6.12323399573677E-17,-1.,0.));
#185=FACE_BOUND('',#186,.T.);
#186=EDGE_LOOP('',(#237,#238,#239,#240));
#187=PLANE('',#188);
#188=AXIS2_PLACEMENT_3D('',#189,#190,#191);
#189=CARTESIAN_POINT('',(-38.3,-13.8,2.5));
#190=DIRECTION('',(-3.68951230500104E-17,0.707106781186547,0.707106781186548));
#191=DIRECTION('',(1.,4.63800741357768E-17,5.7975092669721E-18));
#192=FACE_BOUND('',#193,.T.);
#193=EDGE_LOOP('',(#241,#242,#243,#244));
#194=PLANE('',#195);
#195=AXIS2_PLACEMENT_3D('',#196,#197,#198);
#196=CARTESIAN_POINT('',(28.3,-23.8,2.5));
#197=DIRECTION('',(-0.707106781186548,0.,0.707106781186547));
#198=DIRECTION('',(0.,1.,0.));
#199=FACE_BOUND('',#200,.T.);
#200=EDGE_LOOP('',(#245,#246,#247,#248));
#201=PLANE('',#202);
#202=AXIS2_PLACEMENT_3D('',#203,#204,#205);
#203=CARTESIAN_POINT('',(38.3,13.8,2.5));
#204=DIRECTION('',(3.68951230500104E-17,-0.707106781186547,0.707106781186548));
#205=DIRECTION('',(-1.,-4.63800741357768E-17,5.7975092669721E-18));
#206=FACE_BOUND('',#207,.T.);
#207=EDGE_LOOP('',(#249,#250,#251,#252));
#208=PLANE('',#209);
#209=AXIS2_PLACEMENT_3D('',#210,#211,#212);
#210=CARTESIAN_POINT('',(-28.3,23.8,2.5));
#211=DIRECTION('',(0.707106781186548,0.,0.707106781186547));
#212=DIRECTION('',(0.,-1.,0.));
#213=ORIENTED_EDGE('',*,*,#253,.T.);
#214=ORIENTED_EDGE('',*,*,#254,.T.);
#215=ORIENTED_EDGE('',*,*,#255,.F.);
#216=ORIENTED_EDGE('',*,*,#256,.F.);
#217=ORIENTED_EDGE('',*,*,#257,.T.);
#218=ORIENTED_EDGE('',*,*,#258,.T.);
#219=ORIENTED_EDGE('',*,*,#259,.F.);
#220=ORIENTED_EDGE('',*,*,#254,.F.);
#221=ORIENTED_EDGE('',*,*,#260,.T.);
#222=ORIENTED_EDGE('',*,*,#261,.T.);
#223=ORIENTED_EDGE('',*,*,#262,.F.);
#224=ORIENTED_EDGE('',*,*,#258,.F.);
#225=ORIENTED_EDGE('',*,*,#263,.T.);
#226=ORIENTED_EDGE('',*,*,#256,.T.);
#227=ORIENTED_EDGE('',*,*,#264,.F.);
#228=ORIENTED_EDGE('',*,*,#261,.F.);
#229=ORIENTED_EDGE('',*,*,#255,.T.);
#230=ORIENTED_EDGE('',*,*,#259,.T.);
#231=ORIENTED_EDGE('',*,*,#262,.T.);
#232=ORIENTED_EDGE('',*,*,#264,.T.);
#233=ORIENTED_EDGE('',*,*,#265,.F.);
#234=ORIENTED_EDGE('',*,*,#266,.F.);
#235=ORIENTED_EDGE('',*,*,#267,.F.);
#236=ORIENTED_EDGE('',*,*,#268,.F.);
#237=ORIENTED_EDGE('',*,*,#253,.F.);
#238=ORIENTED_EDGE('',*,*,#269,.F.);
#239=ORIENTED_EDGE('',*,*,#265,.T.);
#240=ORIENTED_EDGE('',*,*,#270,.T.);
#241=ORIENTED_EDGE('',*,*,#257,.F.);
#242=ORIENTED_EDGE('',*,*,#270,.F.);
#243=ORIENTED_EDGE('',*,*,#268,.T.);
#244=ORIENTED_EDGE('',*,*,#271,.T.);
#245=ORIENTED_EDGE('',*,*,#260,.F.);
#246=ORIENTED_EDGE('',*,*,#271,.F.);
#247=ORIENTED_EDGE('',*,*,#267,.T.);
#248=ORIENTED_EDGE('',*,*,#272,.T.);
#249=ORIENTED_EDGE('',*,*,#263,.F.);
#250=ORIENTED_EDGE('',*,*,#272,.F.);
#251=ORIENTED_EDGE('',*,*,#266,.T.);
#252=ORIENTED_EDGE('',*,*,#269,.T.);
#253=EDGE_CURVE('',#273,#274,#275,.T.);
#254=EDGE_CURVE('',#274,#276,#277,.T.);
#255=EDGE_CURVE('',#278,#276,#279,.T.);
#256=EDGE_CURVE('',#273,#278,#280,.T.);
#257=EDGE_CURVE('',#274,#281,#282,.T.);
#258=EDGE_CURVE('',#281,#283,#284,.T.);
#259=EDGE_CURVE('',#276,#283,#285,.T.);
#260=EDGE_CURVE('',#281,#286,#287,.T.);
#261=EDGE_CURVE('',#286,#288,#289,.T.);
#262=EDGE_CURVE('',#283,#288,#290,.T.);
#263=EDGE_CURVE('',#286,#273,#291,.T.);
#264=EDGE_CURVE('',#288,#278,#292,.T.);
#265=EDGE_CURVE('',#293,#294,#295,.T.);
#266=EDGE_CURVE('',#296,#293,#297,.T.);
#267=EDGE_CURVE('',#298,#296,#299,.T.);
#268=EDGE_CURVE('',#294,#298,#300,.T.);
#269=EDGE_CURVE('',#293,#273,#301,.F.);
#270=EDGE_CURVE('',#294,#274,#302,.F.);
#271=EDGE_CURVE('',#298,#281,#303,.F.);
#272=EDGE_CURVE('',#296,#286,#304,.F.);
#273=VERTEX_POINT('',#305);
#274=VERTEX_POINT('',#306);
#275=LINE('',#307,#308);
#276=VERTEX_POINT('',#310);
#277=LINE('',#311,#312);
#278=VERTEX_POINT('',#314);
#279=LINE('',#315,#316);
#280=LINE('',#318,#319);
#281=VERTEX_POINT('',#321);
#282=LINE('',#322,#323);
#283=VERTEX_POINT('',#325);
#284=LINE('',#326,#327);
#285=LINE('',#329,#330);
#286=VERTEX_POINT('',#332);
#287=LINE('',#333,#334);
#288=VERTEX_POINT('',#336);
#289=LINE('',#337,#338);
#290=LINE('',#340,#341);
#291=LINE('',#343,#344);
#292=LINE('',#346,#347);
#293=VERTEX_POINT('',#349);
#294=VERTEX_POINT('',#350);
#295=LINE('',#351,#352);
#296=VERTEX_POINT('',#354);
#297=LINE('',#355,#356);
#298=VERTEX_POINT('',#358);
#299=LINE('',#359,#360);
#300=LINE('',#362,#363);
#301=LINE('',#365,#366);
#302=LINE('',#368,#369);
#303=LINE('',#371,#372);
#304=LINE('',#374,#375);
#305=CARTESIAN_POINT('',(-28.3,-13.8,2.5));
#306=CARTESIAN_POINT('',(28.3,-13.8,2.5));
#307=CARTESIAN_POINT('',(-28.3,-13.8,2.5));
#308=VECTOR('',#309,1.);
#309=DIRECTION('',(1.,6.27687929116696E-17,7.8460991139587E-18));
#310=CARTESIAN_POINT('',(28.3,-13.8,3.));
#311=CARTESIAN_POINT('',(28.3,-13.8,2.5));
#312=VECTOR('',#313,1.);
#313=DIRECTION('',(0.,0.,1.));
#314=CARTESIAN_POINT('',(-28.3,-13.8,3.));
#315=CARTESIAN_POINT('',(-28.3,-13.8,3.));
#316=VECTOR('',#317,1.);
#317=DIRECTION('',(1.,6.27687929116696E-17,0.));
#318=CARTESIAN_POINT('',(-28.3,-13.8,2.5));
#319=VECTOR('',#320,1.);
#320=DIRECTION('',(0.,0.,1.));
#321=CARTESIAN_POINT('',(28.3,13.8,2.5));
#322=CARTESIAN_POINT('',(28.3,-13.8,2.5));
#323=VECTOR('',#324,1.);
#324=DIRECTION('',(0.,1.,0.));
#325=CARTESIAN_POINT('',(28.3,13.8,3.));
#326=CARTESIAN_POINT('',(28.3,13.8,2.5));
#327=VECTOR('',#328,1.);
#328=DIRECTION('',(0.,0.,1.));
#329=CARTESIAN_POINT('',(28.3,-13.8,3.));
#330=VECTOR('',#331,1.);
#331=DIRECTION('',(0.,1.,0.));
#332=CARTESIAN_POINT('',(-28.3,13.8,2.5));
#333=CARTESIAN_POINT('',(28.3,13.8,2.5));
#334=VECTOR('',#335,1.);
#335=DIRECTION('',(-1.,-6.27687929116696E-17,7.8460991139587E-18));
#336=CARTESIAN_POINT('',(-28.3,13.8,3.));
#337=CARTESIAN_POINT('',(-28.3,13.8,2.5));
#338=VECTOR('',#339,1.);
#339=DIRECTION('',(0.,0.,1.));
#340=CARTESIAN_POINT('',(28.3,13.8,3.));
#341=VECTOR('',#342,1.);
#342=DIRECTION('',(-1.,-6.27687929116696E-17,0.));
#343=CARTESIAN_POINT('',(-28.3,13.8,2.5));
#344=VECTOR('',#345,1.);
#345=DIRECTION('',(0.,-1.,0.));
#346=CARTESIAN_POINT('',(-28.3,13.8,3.));
#347=VECTOR('',#348,1.);
#348=DIRECTION('',(0.,-1.,0.));
#349=CARTESIAN_POINT('',(-25.8,-11.3,1.48029736616688E-16));
#350=CARTESIAN_POINT('',(25.8,-11.3,2.96059473233375E-16));
#351=CARTESIAN_POINT('',(-25.8,-11.3,2.22044604925031E-16));
#352=VECTOR('',#353,1.);
#353=DIRECTION('',(1.,6.88510402868314E-17,4.30319001792696E-18));
#354=CARTESIAN_POINT('',(-25.8,11.3,2.96059473233375E-16));
#355=CARTESIAN_POINT('',(-25.8,11.3,0.));
#356=VECTOR('',#357,1.);
#357=DIRECTION('',(0.,-1.,0.));
#358=CARTESIAN_POINT('',(25.8,11.3,1.48029736616688E-16));
#359=CARTESIAN_POINT('',(25.8,11.3,2.22044604925031E-16));
#360=VECTOR('',#361,1.);
#361=DIRECTION('',(-1.,-6.88510402868314E-17,4.30319001792696E-18));
#362=CARTESIAN_POINT('',(25.8,-11.3,0.));
#363=VECTOR('',#364,1.);
#364=DIRECTION('',(0.,1.,0.));
#365=CARTESIAN_POINT('',(-28.3,-13.8,2.5));
#366=VECTOR('',#367,1.);
#367=DIRECTION('',(0.577350269189625,0.577350269189626,-0.577350269189626));
#368=CARTESIAN_POINT('',(28.3,-13.8,2.5));
#369=VECTOR('',#370,1.);
#370=DIRECTION('',(-0.577350269189625,0.577350269189626,-0.577350269189626));
#371=CARTESIAN_POINT('',(28.3,13.8,2.5));
#372=VECTOR('',#373,1.);
#373=DIRECTION('',(-0.577350269189625,-0.577350269189626,-0.577350269189626));
#374=CARTESIAN_POINT('',(-28.3,13.8,2.5));
#375=VECTOR('',#376,1.);
#376=DIRECTION('',(0.577350269189625,-0.577350269189626,-0.577350269189626));
ENDSEC;
END-ISO-10303-21;
