ISO-10303-21;
HEADER;
FILE_DESCRIPTION(('STEP AP242'),
    '1');
FILE_NAME('qidi carbon filte poc 01',
    '',
    ('UNSPECIFIED'),
    ('UNSPECIFIED'),
    'C3D Converter',
    'C3D Toolkit',
    '');
FILE_SCHEMA(('AP242_MANAGED_MODEL_BASED_3D_ENGINEERING_MIM_LF { 1 0 10303 442 1 1 4 }'));
ENDSEC;

DATA;
#1=PRODUCT_DEFINITION('','UNSPECIFIED',#15,#18);
#2=SHAPE_DEFINITION_REPRESENTATION(#13,#3);
#3=SHAPE_REPRESENTATION('NONE',(#4,#40,#109,#177),#8);
#4=AXIS2_PLACEMENT_3D('',#5,#6,#7);
#5=CARTESIAN_POINT('',(0.,0.,0.));
#6=DIRECTION('',(0.,0.,1.));
#7=DIRECTION('',(1.,0.,0.));
#8=(GEOMETRIC_REPRESENTATION_CONTEXT(3)GLOBAL_UNCERTAINTY_ASSIGNED_CONTEXT((#10))
GLOBAL_UNIT_ASSIGNED_CONTEXT((#9,#11,#12))REPRESENTATION_CONTEXT('NONE','NONE'));
#9=(LENGTH_UNIT()NAMED_UNIT(*)SI_UNIT(.MILLI.,.METRE.));
#10=UNCERTAINTY_MEASURE_WITH_UNIT(LENGTH_MEASURE(1.E-5),#9,'NONE','NONE');
#11=(NAMED_UNIT(*)PLANE_ANGLE_UNIT()SI_UNIT($,.RADIAN.));
#12=(NAMED_UNIT(*)SI_UNIT($,.STERADIAN.)SOLID_ANGLE_UNIT());
#13=PRODUCT_DEFINITION_SHAPE('NONE','NONE',#1);
#14=MECHANICAL_CONTEXT('NONE',#19,'mechanical');
#15=PRODUCT_DEFINITION_FORMATION_WITH_SPECIFIED_SOURCE('ANY','UNSPECIFIED',#16,.NOT_KNOWN.);
#16=PRODUCT('','\X2\04210431043E0440043A0430\X0\','NONE',(#14));
#17=PRODUCT_RELATED_PRODUCT_CATEGORY('assembly','',(#16));
#18=DESIGN_CONTEXT('detailed design',#19,'design');
#19=APPLICATION_CONTEXT('configuration controlled 3d designs of mechanical parts and assemblies');
#20=APPLICATION_PROTOCOL_DEFINITION('international standard','config_control_design',
1994,#19);
#21=CC_DESIGN_DATE_AND_TIME_ASSIGNMENT(#22,#26,(#1));
#22=DATE_AND_TIME(#23,#24);
#23=CALENDAR_DATE(0,1,1);
#24=LOCAL_TIME(0,0,0.,#25);
#25=COORDINATED_UNIVERSAL_TIME_OFFSET(0,0,.AHEAD.);
#26=DATE_TIME_ROLE('creation_date');
#27=CC_DESIGN_APPROVAL(#28,(#1));
#28=APPROVAL(#29,'UNSPECIFIED');
#29=APPROVAL_STATUS('not_yet_approved');
#30=APPROVAL_DATE_TIME(#31,#28);
#31=DATE_AND_TIME(#32,#33);
#32=CALENDAR_DATE(0,1,1);
#33=LOCAL_TIME(0,0,0.,#34);
#34=COORDINATED_UNIVERSAL_TIME_OFFSET(0,0,.AHEAD.);
#35=PERSON('UNSPECIFIED','savatneevvg','UNSPECIFIED',('UNSPECIFIED'),('UNSPECIFIED'),
('UNSPECIFIED'));
#36=ORGANIZATION('UNSPECIFIED','UNSPECIFIED','UNSPECIFIED');
#37=PERSON_AND_ORGANIZATION(#35,#36);
#38=PERSON_AND_ORGANIZATION_ROLE('creator');
#39=CC_DESIGN_PERSON_AND_ORGANIZATION_ASSIGNMENT(#37,#38,(#15,#1));
#40=AXIS2_PLACEMENT_3D('',#41,#42,#43);
#41=CARTESIAN_POINT('',(0.,0.,-40.));
#42=DIRECTION('',(0.,0.,1.));
#43=DIRECTION('',(1.,0.,0.));
#44=PRODUCT_DEFINITION('','UNSPECIFIED',#62,#65);
#45=SHAPE_DEFINITION_REPRESENTATION(#60,#46);
#46=SHAPE_REPRESENTATION('NONE',(#4),#8);
#47=MANIFOLD_SOLID_BREP('',#48);
#48=CLOSED_SHELL('',(#245,#254,#263,#272,#281,#290,#299,#308,#317,#326,#335,#344,
#353,#362,#371,#380,#389,#398,#407,#416,#425,#434,#443,#452,#461,#470,#479,#488,
#497,#506));
#49=COLOUR_RGB('',0.564705882352941,0.564705882352941,0.564705882352941);
#50=FILL_AREA_STYLE_COLOUR('',#49);
#51=FILL_AREA_STYLE($,(#50));
#52=SURFACE_STYLE_FILL_AREA(#51);
#53=SURFACE_SIDE_STYLE('',(#52));
#54=SURFACE_STYLE_USAGE(.BOTH.,#53);
#55=PRESENTATION_STYLE_ASSIGNMENT((#54));
#56=MECHANICAL_DESIGN_GEOMETRIC_PRESENTATION_REPRESENTATION('NONE',(#57,#125,#193,
#253,#262,#271,#280,#289,#298,#307,#316,#325,#334,#343,#352,#361,#370,#379,#388,
#397,#406,#415,#424,#433,#442,#451,#460,#469,#478,#487,#496,#505,#514,#523,#532,
#541,#550,#559,#568,#577,#586,#595,#604,#613,#622,#631,#640,#649,#658,#667,#676,
#685,#694,#703,#712),#8);
#57=STYLED_ITEM('',(#55),#47);
#58=ADVANCED_BREP_SHAPE_REPRESENTATION('NONE',(#47),#8);
#59=SHAPE_REPRESENTATION_RELATIONSHIP('','',#46,#58);
#60=PRODUCT_DEFINITION_SHAPE('NONE','NONE',#44);
#61=MECHANICAL_CONTEXT('NONE',#66,'mechanical');
#62=PRODUCT_DEFINITION_FORMATION_WITH_SPECIFIED_SOURCE('ANY','UNSPECIFIED',#63,.NOT_KNOWN.);
#63=PRODUCT('','body','NONE',(#61));
#64=PRODUCT_RELATED_PRODUCT_CATEGORY('detail','',(#63));
#65=DESIGN_CONTEXT('detailed design',#66,'design');
#66=APPLICATION_CONTEXT('configuration controlled 3d designs of mechanical parts and assemblies');
#67=APPLICATION_PROTOCOL_DEFINITION('international standard','config_control_design',
1994,#66);
#68=CC_DESIGN_DATE_AND_TIME_ASSIGNMENT(#69,#73,(#44));
#69=DATE_AND_TIME(#70,#71);
#70=CALENDAR_DATE(0,1,1);
#71=LOCAL_TIME(0,0,0.,#72);
#72=COORDINATED_UNIVERSAL_TIME_OFFSET(0,0,.AHEAD.);
#73=DATE_TIME_ROLE('creation_date');
#74=CC_DESIGN_APPROVAL(#75,(#44));
#75=APPROVAL(#76,'UNSPECIFIED');
#76=APPROVAL_STATUS('not_yet_approved');
#77=APPROVAL_DATE_TIME(#78,#75);
#78=DATE_AND_TIME(#79,#80);
#79=CALENDAR_DATE(0,1,1);
#80=LOCAL_TIME(0,0,0.,#81);
#81=COORDINATED_UNIVERSAL_TIME_OFFSET(0,0,.AHEAD.);
#82=PERSON('UNSPECIFIED','savatneevvg','UNSPECIFIED',('UNSPECIFIED'),('UNSPECIFIED'),
('UNSPECIFIED'));
#83=ORGANIZATION('UNSPECIFIED','UNSPECIFIED','UNSPECIFIED');
#84=PERSON_AND_ORGANIZATION(#82,#83);
#85=PERSON_AND_ORGANIZATION_ROLE('creator');
#86=CC_DESIGN_PERSON_AND_ORGANIZATION_ASSIGNMENT(#84,#85,(#62,#44));
#87=ITEM_DEFINED_TRANSFORMATION('','',#4,#40);
#88=(REPRESENTATION_RELATIONSHIP('','',#46,#3)REPRESENTATION_RELATIONSHIP_WITH_TRANSFORMATION(
#87)SHAPE_REPRESENTATION_RELATIONSHIP());
#89=NEXT_ASSEMBLY_USAGE_OCCURRENCE('ANY','\X2\04210431043E0440043A0430\X0\','',#1,
#44,'');
#90=CC_DESIGN_SECURITY_CLASSIFICATION(#91,(#89));
#91=SECURITY_CLASSIFICATION('','',#92);
#92=SECURITY_CLASSIFICATION_LEVEL('unclassified');
#93=CC_DESIGN_DATE_AND_TIME_ASSIGNMENT(#94,#98,(#91));
#94=DATE_AND_TIME(#95,#96);
#95=CALENDAR_DATE(0,1,1);
#96=LOCAL_TIME(0,0,0.,#97);
#97=COORDINATED_UNIVERSAL_TIME_OFFSET(0,0,.AHEAD.);
#98=DATE_TIME_ROLE('classification_date');
#99=CC_DESIGN_APPROVAL(#100,(#91));
#100=APPROVAL(#101,'UNSPECIFIED');
#101=APPROVAL_STATUS('not_yet_approved');
#102=APPROVAL_DATE_TIME(#103,#100);
#103=DATE_AND_TIME(#104,#105);
#104=CALENDAR_DATE(0,1,1);
#105=LOCAL_TIME(0,0,0.,#106);
#106=COORDINATED_UNIVERSAL_TIME_OFFSET(0,0,.AHEAD.);
#107=PRODUCT_DEFINITION_SHAPE('NONE','NONE',#89);
#108=CONTEXT_DEPENDENT_SHAPE_REPRESENTATION(#88,#107);
#109=AXIS2_PLACEMENT_3D('',#110,#111,#112);
#110=CARTESIAN_POINT('',(0.,0.,0.));
#111=DIRECTION('',(0.,0.,1.));
#112=DIRECTION('',(1.,0.,0.));
#113=PRODUCT_DEFINITION('','UNSPECIFIED',#130,#133);
#114=SHAPE_DEFINITION_REPRESENTATION(#128,#115);
#115=SHAPE_REPRESENTATION('NONE',(#4),#8);
#116=MANIFOLD_SOLID_BREP('',#117);
#117=CLOSED_SHELL('',(#515,#524,#533,#542,#551,#560,#569,#578,#587,#596,#605,#614));
#118=COLOUR_RGB('',0.564705882352941,0.564705882352941,0.564705882352941);
#119=FILL_AREA_STYLE_COLOUR('',#118);
#120=FILL_AREA_STYLE($,(#119));
#121=SURFACE_STYLE_FILL_AREA(#120);
#122=SURFACE_SIDE_STYLE('',(#121));
#123=SURFACE_STYLE_USAGE(.BOTH.,#122);
#124=PRESENTATION_STYLE_ASSIGNMENT((#123));
#125=STYLED_ITEM('',(#124),#116);
#126=ADVANCED_BREP_SHAPE_REPRESENTATION('NONE',(#116),#8);
#127=SHAPE_REPRESENTATION_RELATIONSHIP('','',#115,#126);
#128=PRODUCT_DEFINITION_SHAPE('NONE','NONE',#113);
#129=MECHANICAL_CONTEXT('NONE',#134,'mechanical');
#130=PRODUCT_DEFINITION_FORMATION_WITH_SPECIFIED_SOURCE('ANY','UNSPECIFIED',#131,
.NOT_KNOWN.);
#131=PRODUCT('','upper case','NONE',(#129));
#132=PRODUCT_RELATED_PRODUCT_CATEGORY('detail','',(#131));
#133=DESIGN_CONTEXT('detailed design',#134,'design');
#134=APPLICATION_CONTEXT('configuration controlled 3d designs of mechanical parts and assemblies');
#135=APPLICATION_PROTOCOL_DEFINITION('international standard','config_control_design',
1994,#134);
#136=CC_DESIGN_DATE_AND_TIME_ASSIGNMENT(#137,#141,(#113));
#137=DATE_AND_TIME(#138,#139);
#138=CALENDAR_DATE(0,1,1);
#139=LOCAL_TIME(0,0,0.,#140);
#140=COORDINATED_UNIVERSAL_TIME_OFFSET(0,0,.AHEAD.);
#141=DATE_TIME_ROLE('creation_date');
#142=CC_DESIGN_APPROVAL(#143,(#113));
#143=APPROVAL(#144,'UNSPECIFIED');
#144=APPROVAL_STATUS('not_yet_approved');
#145=APPROVAL_DATE_TIME(#146,#143);
#146=DATE_AND_TIME(#147,#148);
#147=CALENDAR_DATE(0,1,1);
#148=LOCAL_TIME(0,0,0.,#149);
#149=COORDINATED_UNIVERSAL_TIME_OFFSET(0,0,.AHEAD.);
#150=PERSON('UNSPECIFIED','savatneevvg','UNSPECIFIED',('UNSPECIFIED'),('UNSPECIFIED'),
('UNSPECIFIED'));
#151=ORGANIZATION('UNSPECIFIED','UNSPECIFIED','UNSPECIFIED');
#152=PERSON_AND_ORGANIZATION(#150,#151);
#153=PERSON_AND_ORGANIZATION_ROLE('creator');
#154=CC_DESIGN_PERSON_AND_ORGANIZATION_ASSIGNMENT(#152,#153,(#130,#113));
#155=ITEM_DEFINED_TRANSFORMATION('','',#4,#109);
#156=(REPRESENTATION_RELATIONSHIP('','',#115,#3)REPRESENTATION_RELATIONSHIP_WITH_TRANSFORMATION(
#155)SHAPE_REPRESENTATION_RELATIONSHIP());
#157=NEXT_ASSEMBLY_USAGE_OCCURRENCE('ANY','\X2\04210431043E0440043A0430\X0\','',
#1,#113,'');
#158=CC_DESIGN_SECURITY_CLASSIFICATION(#159,(#157));
#159=SECURITY_CLASSIFICATION('','',#160);
#160=SECURITY_CLASSIFICATION_LEVEL('unclassified');
#161=CC_DESIGN_DATE_AND_TIME_ASSIGNMENT(#162,#166,(#159));
#162=DATE_AND_TIME(#163,#164);
#163=CALENDAR_DATE(0,1,1);
#164=LOCAL_TIME(0,0,0.,#165);
#165=COORDINATED_UNIVERSAL_TIME_OFFSET(0,0,.AHEAD.);
#166=DATE_TIME_ROLE('classification_date');
#167=CC_DESIGN_APPROVAL(#168,(#159));
#168=APPROVAL(#169,'UNSPECIFIED');
#169=APPROVAL_STATUS('not_yet_approved');
#170=APPROVAL_DATE_TIME(#171,#168);
#171=DATE_AND_TIME(#172,#173);
#172=CALENDAR_DATE(0,1,1);
#173=LOCAL_TIME(0,0,0.,#174);
#174=COORDINATED_UNIVERSAL_TIME_OFFSET(0,0,.AHEAD.);
#175=PRODUCT_DEFINITION_SHAPE('NONE','NONE',#157);
#176=CONTEXT_DEPENDENT_SHAPE_REPRESENTATION(#156,#175);
#177=AXIS2_PLACEMENT_3D('',#178,#179,#180);
#178=CARTESIAN_POINT('',(0.,-0.199999999999994,-30.5));
#179=DIRECTION('',(0.,0.,1.));
#180=DIRECTION('',(1.,0.,0.));
#181=PRODUCT_DEFINITION('','UNSPECIFIED',#198,#201);
#182=SHAPE_DEFINITION_REPRESENTATION(#196,#183);
#183=SHAPE_REPRESENTATION('NONE',(#4),#8);
#184=MANIFOLD_SOLID_BREP('',#185);
#185=CLOSED_SHELL('',(#623,#632,#641,#650,#659,#668,#677,#686,#695,#704));
#186=COLOUR_RGB('',0.564705882352941,0.564705882352941,0.564705882352941);
#187=FILL_AREA_STYLE_COLOUR('',#186);
#188=FILL_AREA_STYLE($,(#187));
#189=SURFACE_STYLE_FILL_AREA(#188);
#190=SURFACE_SIDE_STYLE('',(#189));
#191=SURFACE_STYLE_USAGE(.BOTH.,#190);
#192=PRESENTATION_STYLE_ASSIGNMENT((#191));
#193=STYLED_ITEM('',(#192),#184);
#194=ADVANCED_BREP_SHAPE_REPRESENTATION('NONE',(#184),#8);
#195=SHAPE_REPRESENTATION_RELATIONSHIP('','',#183,#194);
#196=PRODUCT_DEFINITION_SHAPE('NONE','NONE',#181);
#197=MECHANICAL_CONTEXT('NONE',#202,'mechanical');
#198=PRODUCT_DEFINITION_FORMATION_WITH_SPECIFIED_SOURCE('ANY','UNSPECIFIED',#199,
.NOT_KNOWN.);
#199=PRODUCT('','inside','NONE',(#197));
#200=PRODUCT_RELATED_PRODUCT_CATEGORY('detail','',(#199));
#201=DESIGN_CONTEXT('detailed design',#202,'design');
#202=APPLICATION_CONTEXT('configuration controlled 3d designs of mechanical parts and assemblies');
#203=APPLICATION_PROTOCOL_DEFINITION('international standard','config_control_design',
1994,#202);
#204=CC_DESIGN_DATE_AND_TIME_ASSIGNMENT(#205,#209,(#181));
#205=DATE_AND_TIME(#206,#207);
#206=CALENDAR_DATE(0,1,1);
#207=LOCAL_TIME(0,0,0.,#208);
#208=COORDINATED_UNIVERSAL_TIME_OFFSET(0,0,.AHEAD.);
#209=DATE_TIME_ROLE('creation_date');
#210=CC_DESIGN_APPROVAL(#211,(#181));
#211=APPROVAL(#212,'UNSPECIFIED');
#212=APPROVAL_STATUS('not_yet_approved');
#213=APPROVAL_DATE_TIME(#214,#211);
#214=DATE_AND_TIME(#215,#216);
#215=CALENDAR_DATE(0,1,1);
#216=LOCAL_TIME(0,0,0.,#217);
#217=COORDINATED_UNIVERSAL_TIME_OFFSET(0,0,.AHEAD.);
#218=PERSON('UNSPECIFIED','savatneevvg','UNSPECIFIED',('UNSPECIFIED'),('UNSPECIFIED'),
('UNSPECIFIED'));
#219=ORGANIZATION('UNSPECIFIED','UNSPECIFIED','UNSPECIFIED');
#220=PERSON_AND_ORGANIZATION(#218,#219);
#221=PERSON_AND_ORGANIZATION_ROLE('creator');
#222=CC_DESIGN_PERSON_AND_ORGANIZATION_ASSIGNMENT(#220,#221,(#198,#181));
#223=ITEM_DEFINED_TRANSFORMATION('','',#4,#177);
#224=(REPRESENTATION_RELATIONSHIP('','',#183,#3)REPRESENTATION_RELATIONSHIP_WITH_TRANSFORMATION(
#223)SHAPE_REPRESENTATION_RELATIONSHIP());
#225=NEXT_ASSEMBLY_USAGE_OCCURRENCE('ANY','\X2\04210431043E0440043A0430\X0\','',
#1,#181,'');
#226=CC_DESIGN_SECURITY_CLASSIFICATION(#227,(#225));
#227=SECURITY_CLASSIFICATION('','',#228);
#228=SECURITY_CLASSIFICATION_LEVEL('unclassified');
#229=CC_DESIGN_DATE_AND_TIME_ASSIGNMENT(#230,#234,(#227));
#230=DATE_AND_TIME(#231,#232);
#231=CALENDAR_DATE(0,1,1);
#232=LOCAL_TIME(0,0,0.,#233);
#233=COORDINATED_UNIVERSAL_TIME_OFFSET(0,0,.AHEAD.);
#234=DATE_TIME_ROLE('classification_date');
#235=CC_DESIGN_APPROVAL(#236,(#227));
#236=APPROVAL(#237,'UNSPECIFIED');
#237=APPROVAL_STATUS('not_yet_approved');
#238=APPROVAL_DATE_TIME(#239,#236);
#239=DATE_AND_TIME(#240,#241);
#240=CALENDAR_DATE(0,1,1);
#241=LOCAL_TIME(0,0,0.,#242);
#242=COORDINATED_UNIVERSAL_TIME_OFFSET(0,0,.AHEAD.);
#243=PRODUCT_DEFINITION_SHAPE('NONE','NONE',#225);
#244=CONTEXT_DEPENDENT_SHAPE_REPRESENTATION(#224,#243);
#245=ADVANCED_FACE('',(#713),#715,.F.);
#246=COLOUR_RGB('',0.564705882352941,0.564705882352941,0.564705882352941);
#247=FILL_AREA_STYLE_COLOUR('',#246);
#248=FILL_AREA_STYLE($,(#247));
#249=SURFACE_STYLE_FILL_AREA(#248);
#250=SURFACE_SIDE_STYLE('',(#249));
#251=SURFACE_STYLE_USAGE(.BOTH.,#250);
#252=PRESENTATION_STYLE_ASSIGNMENT((#251));
#253=STYLED_ITEM('',(#252),#245);
#254=ADVANCED_FACE('',(#720),#722,.F.);
#255=COLOUR_RGB('',0.564705882352941,0.564705882352941,0.564705882352941);
#256=FILL_AREA_STYLE_COLOUR('',#255);
#257=FILL_AREA_STYLE($,(#256));
#258=SURFACE_STYLE_FILL_AREA(#257);
#259=SURFACE_SIDE_STYLE('',(#258));
#260=SURFACE_STYLE_USAGE(.BOTH.,#259);
#261=PRESENTATION_STYLE_ASSIGNMENT((#260));
#262=STYLED_ITEM('',(#261),#254);
#263=ADVANCED_FACE('',(#727),#729,.T.);
#264=COLOUR_RGB('',0.564705882352941,0.564705882352941,0.564705882352941);
#265=FILL_AREA_STYLE_COLOUR('',#264);
#266=FILL_AREA_STYLE($,(#265));
#267=SURFACE_STYLE_FILL_AREA(#266);
#268=SURFACE_SIDE_STYLE('',(#267));
#269=SURFACE_STYLE_USAGE(.BOTH.,#268);
#270=PRESENTATION_STYLE_ASSIGNMENT((#269));
#271=STYLED_ITEM('',(#270),#263);
#272=ADVANCED_FACE('',(#734),#736,.T.);
#273=COLOUR_RGB('',0.564705882352941,0.564705882352941,0.564705882352941);
#274=FILL_AREA_STYLE_COLOUR('',#273);
#275=FILL_AREA_STYLE($,(#274));
#276=SURFACE_STYLE_FILL_AREA(#275);
#277=SURFACE_SIDE_STYLE('',(#276));
#278=SURFACE_STYLE_USAGE(.BOTH.,#277);
#279=PRESENTATION_STYLE_ASSIGNMENT((#278));
#280=STYLED_ITEM('',(#279),#272);
#281=ADVANCED_FACE('',(#741),#743,.F.);
#282=COLOUR_RGB('',0.564705882352941,0.564705882352941,0.564705882352941);
#283=FILL_AREA_STYLE_COLOUR('',#282);
#284=FILL_AREA_STYLE($,(#283));
#285=SURFACE_STYLE_FILL_AREA(#284);
#286=SURFACE_SIDE_STYLE('',(#285));
#287=SURFACE_STYLE_USAGE(.BOTH.,#286);
#288=PRESENTATION_STYLE_ASSIGNMENT((#287));
#289=STYLED_ITEM('',(#288),#281);
#290=ADVANCED_FACE('',(#748),#750,.F.);
#291=COLOUR_RGB('',0.564705882352941,0.564705882352941,0.564705882352941);
#292=FILL_AREA_STYLE_COLOUR('',#291);
#293=FILL_AREA_STYLE($,(#292));
#294=SURFACE_STYLE_FILL_AREA(#293);
#295=SURFACE_SIDE_STYLE('',(#294));
#296=SURFACE_STYLE_USAGE(.BOTH.,#295);
#297=PRESENTATION_STYLE_ASSIGNMENT((#296));
#298=STYLED_ITEM('',(#297),#290);
#299=ADVANCED_FACE('',(#755),#757,.F.);
#300=COLOUR_RGB('',0.564705882352941,0.564705882352941,0.564705882352941);
#301=FILL_AREA_STYLE_COLOUR('',#300);
#302=FILL_AREA_STYLE($,(#301));
#303=SURFACE_STYLE_FILL_AREA(#302);
#304=SURFACE_SIDE_STYLE('',(#303));
#305=SURFACE_STYLE_USAGE(.BOTH.,#304);
#306=PRESENTATION_STYLE_ASSIGNMENT((#305));
#307=STYLED_ITEM('',(#306),#299);
#308=ADVANCED_FACE('',(#762),#764,.F.);
#309=COLOUR_RGB('',0.564705882352941,0.564705882352941,0.564705882352941);
#310=FILL_AREA_STYLE_COLOUR('',#309);
#311=FILL_AREA_STYLE($,(#310));
#312=SURFACE_STYLE_FILL_AREA(#311);
#313=SURFACE_SIDE_STYLE('',(#312));
#314=SURFACE_STYLE_USAGE(.BOTH.,#313);
#315=PRESENTATION_STYLE_ASSIGNMENT((#314));
#316=STYLED_ITEM('',(#315),#308);
#317=ADVANCED_FACE('',(#769),#771,.F.);
#318=COLOUR_RGB('',0.564705882352941,0.564705882352941,0.564705882352941);
#319=FILL_AREA_STYLE_COLOUR('',#318);
#320=FILL_AREA_STYLE($,(#319));
#321=SURFACE_STYLE_FILL_AREA(#320);
#322=SURFACE_SIDE_STYLE('',(#321));
#323=SURFACE_STYLE_USAGE(.BOTH.,#322);
#324=PRESENTATION_STYLE_ASSIGNMENT((#323));
#325=STYLED_ITEM('',(#324),#317);
#326=ADVANCED_FACE('',(#776),#778,.F.);
#327=COLOUR_RGB('',0.564705882352941,0.564705882352941,0.564705882352941);
#328=FILL_AREA_STYLE_COLOUR('',#327);
#329=FILL_AREA_STYLE($,(#328));
#330=SURFACE_STYLE_FILL_AREA(#329);
#331=SURFACE_SIDE_STYLE('',(#330));
#332=SURFACE_STYLE_USAGE(.BOTH.,#331);
#333=PRESENTATION_STYLE_ASSIGNMENT((#332));
#334=STYLED_ITEM('',(#333),#326);
#335=ADVANCED_FACE('',(#783),#785,.F.);
#336=COLOUR_RGB('',0.564705882352941,0.564705882352941,0.564705882352941);
#337=FILL_AREA_STYLE_COLOUR('',#336);
#338=FILL_AREA_STYLE($,(#337));
#339=SURFACE_STYLE_FILL_AREA(#338);
#340=SURFACE_SIDE_STYLE('',(#339));
#341=SURFACE_STYLE_USAGE(.BOTH.,#340);
#342=PRESENTATION_STYLE_ASSIGNMENT((#341));
#343=STYLED_ITEM('',(#342),#335);
#344=ADVANCED_FACE('',(#790),#792,.F.);
#345=COLOUR_RGB('',0.564705882352941,0.564705882352941,0.564705882352941);
#346=FILL_AREA_STYLE_COLOUR('',#345);
#347=FILL_AREA_STYLE($,(#346));
#348=SURFACE_STYLE_FILL_AREA(#347);
#349=SURFACE_SIDE_STYLE('',(#348));
#350=SURFACE_STYLE_USAGE(.BOTH.,#349);
#351=PRESENTATION_STYLE_ASSIGNMENT((#350));
#352=STYLED_ITEM('',(#351),#344);
#353=ADVANCED_FACE('',(#797),#799,.F.);
#354=COLOUR_RGB('',0.564705882352941,0.564705882352941,0.564705882352941);
#355=FILL_AREA_STYLE_COLOUR('',#354);
#356=FILL_AREA_STYLE($,(#355));
#357=SURFACE_STYLE_FILL_AREA(#356);
#358=SURFACE_SIDE_STYLE('',(#357));
#359=SURFACE_STYLE_USAGE(.BOTH.,#358);
#360=PRESENTATION_STYLE_ASSIGNMENT((#359));
#361=STYLED_ITEM('',(#360),#353);
#362=ADVANCED_FACE('',(#804),#806,.F.);
#363=COLOUR_RGB('',0.564705882352941,0.564705882352941,0.564705882352941);
#364=FILL_AREA_STYLE_COLOUR('',#363);
#365=FILL_AREA_STYLE($,(#364));
#366=SURFACE_STYLE_FILL_AREA(#365);
#367=SURFACE_SIDE_STYLE('',(#366));
#368=SURFACE_STYLE_USAGE(.BOTH.,#367);
#369=PRESENTATION_STYLE_ASSIGNMENT((#368));
#370=STYLED_ITEM('',(#369),#362);
#371=ADVANCED_FACE('',(#811),#813,.F.);
#372=COLOUR_RGB('',0.564705882352941,0.564705882352941,0.564705882352941);
#373=FILL_AREA_STYLE_COLOUR('',#372);
#374=FILL_AREA_STYLE($,(#373));
#375=SURFACE_STYLE_FILL_AREA(#374);
#376=SURFACE_SIDE_STYLE('',(#375));
#377=SURFACE_STYLE_USAGE(.BOTH.,#376);
#378=PRESENTATION_STYLE_ASSIGNMENT((#377));
#379=STYLED_ITEM('',(#378),#371);
#380=ADVANCED_FACE('',(#818),#820,.T.);
#381=COLOUR_RGB('',0.564705882352941,0.564705882352941,0.564705882352941);
#382=FILL_AREA_STYLE_COLOUR('',#381);
#383=FILL_AREA_STYLE($,(#382));
#384=SURFACE_STYLE_FILL_AREA(#383);
#385=SURFACE_SIDE_STYLE('',(#384));
#386=SURFACE_STYLE_USAGE(.BOTH.,#385);
#387=PRESENTATION_STYLE_ASSIGNMENT((#386));
#388=STYLED_ITEM('',(#387),#380);
#389=ADVANCED_FACE('',(#825,#827),#829,.F.);
#390=COLOUR_RGB('',0.564705882352941,0.564705882352941,0.564705882352941);
#391=FILL_AREA_STYLE_COLOUR('',#390);
#392=FILL_AREA_STYLE($,(#391));
#393=SURFACE_STYLE_FILL_AREA(#392);
#394=SURFACE_SIDE_STYLE('',(#393));
#395=SURFACE_STYLE_USAGE(.BOTH.,#394);
#396=PRESENTATION_STYLE_ASSIGNMENT((#395));
#397=STYLED_ITEM('',(#396),#389);
#398=ADVANCED_FACE('',(#834),#836,.T.);
#399=COLOUR_RGB('',0.564705882352941,0.564705882352941,0.564705882352941);
#400=FILL_AREA_STYLE_COLOUR('',#399);
#401=FILL_AREA_STYLE($,(#400));
#402=SURFACE_STYLE_FILL_AREA(#401);
#403=SURFACE_SIDE_STYLE('',(#402));
#404=SURFACE_STYLE_USAGE(.BOTH.,#403);
#405=PRESENTATION_STYLE_ASSIGNMENT((#404));
#406=STYLED_ITEM('',(#405),#398);
#407=ADVANCED_FACE('',(#841),#843,.T.);
#408=COLOUR_RGB('',0.564705882352941,0.564705882352941,0.564705882352941);
#409=FILL_AREA_STYLE_COLOUR('',#408);
#410=FILL_AREA_STYLE($,(#409));
#411=SURFACE_STYLE_FILL_AREA(#410);
#412=SURFACE_SIDE_STYLE('',(#411));
#413=SURFACE_STYLE_USAGE(.BOTH.,#412);
#414=PRESENTATION_STYLE_ASSIGNMENT((#413));
#415=STYLED_ITEM('',(#414),#407);
#416=ADVANCED_FACE('',(#848),#850,.F.);
#417=COLOUR_RGB('',0.564705882352941,0.564705882352941,0.564705882352941);
#418=FILL_AREA_STYLE_COLOUR('',#417);
#419=FILL_AREA_STYLE($,(#418));
#420=SURFACE_STYLE_FILL_AREA(#419);
#421=SURFACE_SIDE_STYLE('',(#420));
#422=SURFACE_STYLE_USAGE(.BOTH.,#421);
#423=PRESENTATION_STYLE_ASSIGNMENT((#422));
#424=STYLED_ITEM('',(#423),#416);
#425=ADVANCED_FACE('',(#855),#857,.F.);
#426=COLOUR_RGB('',0.564705882352941,0.564705882352941,0.564705882352941);
#427=FILL_AREA_STYLE_COLOUR('',#426);
#428=FILL_AREA_STYLE($,(#427));
#429=SURFACE_STYLE_FILL_AREA(#428);
#430=SURFACE_SIDE_STYLE('',(#429));
#431=SURFACE_STYLE_USAGE(.BOTH.,#430);
#432=PRESENTATION_STYLE_ASSIGNMENT((#431));
#433=STYLED_ITEM('',(#432),#425);
#434=ADVANCED_FACE('',(#862),#864,.F.);
#435=COLOUR_RGB('',0.564705882352941,0.564705882352941,0.564705882352941);
#436=FILL_AREA_STYLE_COLOUR('',#435);
#437=FILL_AREA_STYLE($,(#436));
#438=SURFACE_STYLE_FILL_AREA(#437);
#439=SURFACE_SIDE_STYLE('',(#438));
#440=SURFACE_STYLE_USAGE(.BOTH.,#439);
#441=PRESENTATION_STYLE_ASSIGNMENT((#440));
#442=STYLED_ITEM('',(#441),#434);
#443=ADVANCED_FACE('',(#869),#871,.F.);
#444=COLOUR_RGB('',0.564705882352941,0.564705882352941,0.564705882352941);
#445=FILL_AREA_STYLE_COLOUR('',#444);
#446=FILL_AREA_STYLE($,(#445));
#447=SURFACE_STYLE_FILL_AREA(#446);
#448=SURFACE_SIDE_STYLE('',(#447));
#449=SURFACE_STYLE_USAGE(.BOTH.,#448);
#450=PRESENTATION_STYLE_ASSIGNMENT((#449));
#451=STYLED_ITEM('',(#450),#443);
#452=ADVANCED_FACE('',(#876),#878,.T.);
#453=COLOUR_RGB('',0.564705882352941,0.564705882352941,0.564705882352941);
#454=FILL_AREA_STYLE_COLOUR('',#453);
#455=FILL_AREA_STYLE($,(#454));
#456=SURFACE_STYLE_FILL_AREA(#455);
#457=SURFACE_SIDE_STYLE('',(#456));
#458=SURFACE_STYLE_USAGE(.BOTH.,#457);
#459=PRESENTATION_STYLE_ASSIGNMENT((#458));
#460=STYLED_ITEM('',(#459),#452);
#461=ADVANCED_FACE('',(#883),#885,.T.);
#462=COLOUR_RGB('',0.564705882352941,0.564705882352941,0.564705882352941);
#463=FILL_AREA_STYLE_COLOUR('',#462);
#464=FILL_AREA_STYLE($,(#463));
#465=SURFACE_STYLE_FILL_AREA(#464);
#466=SURFACE_SIDE_STYLE('',(#465));
#467=SURFACE_STYLE_USAGE(.BOTH.,#466);
#468=PRESENTATION_STYLE_ASSIGNMENT((#467));
#469=STYLED_ITEM('',(#468),#461);
#470=ADVANCED_FACE('',(#890),#892,.T.);
#471=COLOUR_RGB('',0.564705882352941,0.564705882352941,0.564705882352941);
#472=FILL_AREA_STYLE_COLOUR('',#471);
#473=FILL_AREA_STYLE($,(#472));
#474=SURFACE_STYLE_FILL_AREA(#473);
#475=SURFACE_SIDE_STYLE('',(#474));
#476=SURFACE_STYLE_USAGE(.BOTH.,#475);
#477=PRESENTATION_STYLE_ASSIGNMENT((#476));
#478=STYLED_ITEM('',(#477),#470);
#479=ADVANCED_FACE('',(#897),#899,.T.);
#480=COLOUR_RGB('',0.564705882352941,0.564705882352941,0.564705882352941);
#481=FILL_AREA_STYLE_COLOUR('',#480);
#482=FILL_AREA_STYLE($,(#481));
#483=SURFACE_STYLE_FILL_AREA(#482);
#484=SURFACE_SIDE_STYLE('',(#483));
#485=SURFACE_STYLE_USAGE(.BOTH.,#484);
#486=PRESENTATION_STYLE_ASSIGNMENT((#485));
#487=STYLED_ITEM('',(#486),#479);
#488=ADVANCED_FACE('',(#904),#906,.F.);
#489=COLOUR_RGB('',0.564705882352941,0.564705882352941,0.564705882352941);
#490=FILL_AREA_STYLE_COLOUR('',#489);
#491=FILL_AREA_STYLE($,(#490));
#492=SURFACE_STYLE_FILL_AREA(#491);
#493=SURFACE_SIDE_STYLE('',(#492));
#494=SURFACE_STYLE_USAGE(.BOTH.,#493);
#495=PRESENTATION_STYLE_ASSIGNMENT((#494));
#496=STYLED_ITEM('',(#495),#488);
#497=ADVANCED_FACE('',(#911),#913,.F.);
#498=COLOUR_RGB('',0.564705882352941,0.564705882352941,0.564705882352941);
#499=FILL_AREA_STYLE_COLOUR('',#498);
#500=FILL_AREA_STYLE($,(#499));
#501=SURFACE_STYLE_FILL_AREA(#500);
#502=SURFACE_SIDE_STYLE('',(#501));
#503=SURFACE_STYLE_USAGE(.BOTH.,#502);
#504=PRESENTATION_STYLE_ASSIGNMENT((#503));
#505=STYLED_ITEM('',(#504),#497);
#506=ADVANCED_FACE('',(#918,#920),#922,.F.);
#507=COLOUR_RGB('',0.564705882352941,0.564705882352941,0.564705882352941);
#508=FILL_AREA_STYLE_COLOUR('',#507);
#509=FILL_AREA_STYLE($,(#508));
#510=SURFACE_STYLE_FILL_AREA(#509);
#511=SURFACE_SIDE_STYLE('',(#510));
#512=SURFACE_STYLE_USAGE(.BOTH.,#511);
#513=PRESENTATION_STYLE_ASSIGNMENT((#512));
#514=STYLED_ITEM('',(#513),#506);
#515=ADVANCED_FACE('',(#927),#929,.T.);
#516=COLOUR_RGB('',0.564705882352941,0.564705882352941,0.564705882352941);
#517=FILL_AREA_STYLE_COLOUR('',#516);
#518=FILL_AREA_STYLE($,(#517));
#519=SURFACE_STYLE_FILL_AREA(#518);
#520=SURFACE_SIDE_STYLE('',(#519));
#521=SURFACE_STYLE_USAGE(.BOTH.,#520);
#522=PRESENTATION_STYLE_ASSIGNMENT((#521));
#523=STYLED_ITEM('',(#522),#515);
#524=ADVANCED_FACE('',(#934),#936,.T.);
#525=COLOUR_RGB('',0.564705882352941,0.564705882352941,0.564705882352941);
#526=FILL_AREA_STYLE_COLOUR('',#525);
#527=FILL_AREA_STYLE($,(#526));
#528=SURFACE_STYLE_FILL_AREA(#527);
#529=SURFACE_SIDE_STYLE('',(#528));
#530=SURFACE_STYLE_USAGE(.BOTH.,#529);
#531=PRESENTATION_STYLE_ASSIGNMENT((#530));
#532=STYLED_ITEM('',(#531),#524);
#533=ADVANCED_FACE('',(#941),#943,.T.);
#534=COLOUR_RGB('',0.564705882352941,0.564705882352941,0.564705882352941);
#535=FILL_AREA_STYLE_COLOUR('',#534);
#536=FILL_AREA_STYLE($,(#535));
#537=SURFACE_STYLE_FILL_AREA(#536);
#538=SURFACE_SIDE_STYLE('',(#537));
#539=SURFACE_STYLE_USAGE(.BOTH.,#538);
#540=PRESENTATION_STYLE_ASSIGNMENT((#539));
#541=STYLED_ITEM('',(#540),#533);
#542=ADVANCED_FACE('',(#948),#950,.T.);
#543=COLOUR_RGB('',0.564705882352941,0.564705882352941,0.564705882352941);
#544=FILL_AREA_STYLE_COLOUR('',#543);
#545=FILL_AREA_STYLE($,(#544));
#546=SURFACE_STYLE_FILL_AREA(#545);
#547=SURFACE_SIDE_STYLE('',(#546));
#548=SURFACE_STYLE_USAGE(.BOTH.,#547);
#549=PRESENTATION_STYLE_ASSIGNMENT((#548));
#550=STYLED_ITEM('',(#549),#542);
#551=ADVANCED_FACE('',(#955),#957,.T.);
#552=COLOUR_RGB('',0.564705882352941,0.564705882352941,0.564705882352941);
#553=FILL_AREA_STYLE_COLOUR('',#552);
#554=FILL_AREA_STYLE($,(#553));
#555=SURFACE_STYLE_FILL_AREA(#554);
#556=SURFACE_SIDE_STYLE('',(#555));
#557=SURFACE_STYLE_USAGE(.BOTH.,#556);
#558=PRESENTATION_STYLE_ASSIGNMENT((#557));
#559=STYLED_ITEM('',(#558),#551);
#560=ADVANCED_FACE('',(#962),#964,.T.);
#561=COLOUR_RGB('',0.564705882352941,0.564705882352941,0.564705882352941);
#562=FILL_AREA_STYLE_COLOUR('',#561);
#563=FILL_AREA_STYLE($,(#562));
#564=SURFACE_STYLE_FILL_AREA(#563);
#565=SURFACE_SIDE_STYLE('',(#564));
#566=SURFACE_STYLE_USAGE(.BOTH.,#565);
#567=PRESENTATION_STYLE_ASSIGNMENT((#566));
#568=STYLED_ITEM('',(#567),#560);
#569=ADVANCED_FACE('',(#969),#971,.F.);
#570=COLOUR_RGB('',0.564705882352941,0.564705882352941,0.564705882352941);
#571=FILL_AREA_STYLE_COLOUR('',#570);
#572=FILL_AREA_STYLE($,(#571));
#573=SURFACE_STYLE_FILL_AREA(#572);
#574=SURFACE_SIDE_STYLE('',(#573));
#575=SURFACE_STYLE_USAGE(.BOTH.,#574);
#576=PRESENTATION_STYLE_ASSIGNMENT((#575));
#577=STYLED_ITEM('',(#576),#569);
#578=ADVANCED_FACE('',(#976),#978,.F.);
#579=COLOUR_RGB('',0.564705882352941,0.564705882352941,0.564705882352941);
#580=FILL_AREA_STYLE_COLOUR('',#579);
#581=FILL_AREA_STYLE($,(#580));
#582=SURFACE_STYLE_FILL_AREA(#581);
#583=SURFACE_SIDE_STYLE('',(#582));
#584=SURFACE_STYLE_USAGE(.BOTH.,#583);
#585=PRESENTATION_STYLE_ASSIGNMENT((#584));
#586=STYLED_ITEM('',(#585),#578);
#587=ADVANCED_FACE('',(#983),#985,.F.);
#588=COLOUR_RGB('',0.564705882352941,0.564705882352941,0.564705882352941);
#589=FILL_AREA_STYLE_COLOUR('',#588);
#590=FILL_AREA_STYLE($,(#589));
#591=SURFACE_STYLE_FILL_AREA(#590);
#592=SURFACE_SIDE_STYLE('',(#591));
#593=SURFACE_STYLE_USAGE(.BOTH.,#592);
#594=PRESENTATION_STYLE_ASSIGNMENT((#593));
#595=STYLED_ITEM('',(#594),#587);
#596=ADVANCED_FACE('',(#990),#992,.T.);
#597=COLOUR_RGB('',0.564705882352941,0.564705882352941,0.564705882352941);
#598=FILL_AREA_STYLE_COLOUR('',#597);
#599=FILL_AREA_STYLE($,(#598));
#600=SURFACE_STYLE_FILL_AREA(#599);
#601=SURFACE_SIDE_STYLE('',(#600));
#602=SURFACE_STYLE_USAGE(.BOTH.,#601);
#603=PRESENTATION_STYLE_ASSIGNMENT((#602));
#604=STYLED_ITEM('',(#603),#596);
#605=ADVANCED_FACE('',(#997),#999,.T.);
#606=COLOUR_RGB('',0.564705882352941,0.564705882352941,0.564705882352941);
#607=FILL_AREA_STYLE_COLOUR('',#606);
#608=FILL_AREA_STYLE($,(#607));
#609=SURFACE_STYLE_FILL_AREA(#608);
#610=SURFACE_SIDE_STYLE('',(#609));
#611=SURFACE_STYLE_USAGE(.BOTH.,#610);
#612=PRESENTATION_STYLE_ASSIGNMENT((#611));
#613=STYLED_ITEM('',(#612),#605);
#614=ADVANCED_FACE('',(#1004),#1006,.T.);
#615=COLOUR_RGB('',0.564705882352941,0.564705882352941,0.564705882352941);
#616=FILL_AREA_STYLE_COLOUR('',#615);
#617=FILL_AREA_STYLE($,(#616));
#618=SURFACE_STYLE_FILL_AREA(#617);
#619=SURFACE_SIDE_STYLE('',(#618));
#620=SURFACE_STYLE_USAGE(.BOTH.,#619);
#621=PRESENTATION_STYLE_ASSIGNMENT((#620));
#622=STYLED_ITEM('',(#621),#614);
#623=ADVANCED_FACE('',(#1011),#1013,.T.);
#624=COLOUR_RGB('',0.564705882352941,0.564705882352941,0.564705882352941);
#625=FILL_AREA_STYLE_COLOUR('',#624);
#626=FILL_AREA_STYLE($,(#625));
#627=SURFACE_STYLE_FILL_AREA(#626);
#628=SURFACE_SIDE_STYLE('',(#627));
#629=SURFACE_STYLE_USAGE(.BOTH.,#628);
#630=PRESENTATION_STYLE_ASSIGNMENT((#629));
#631=STYLED_ITEM('',(#630),#623);
#632=ADVANCED_FACE('',(#1018),#1020,.T.);
#633=COLOUR_RGB('',0.564705882352941,0.564705882352941,0.564705882352941);
#634=FILL_AREA_STYLE_COLOUR('',#633);
#635=FILL_AREA_STYLE($,(#634));
#636=SURFACE_STYLE_FILL_AREA(#635);
#637=SURFACE_SIDE_STYLE('',(#636));
#638=SURFACE_STYLE_USAGE(.BOTH.,#637);
#639=PRESENTATION_STYLE_ASSIGNMENT((#638));
#640=STYLED_ITEM('',(#639),#632);
#641=ADVANCED_FACE('',(#1025),#1027,.T.);
#642=COLOUR_RGB('',0.564705882352941,0.564705882352941,0.564705882352941);
#643=FILL_AREA_STYLE_COLOUR('',#642);
#644=FILL_AREA_STYLE($,(#643));
#645=SURFACE_STYLE_FILL_AREA(#644);
#646=SURFACE_SIDE_STYLE('',(#645));
#647=SURFACE_STYLE_USAGE(.BOTH.,#646);
#648=PRESENTATION_STYLE_ASSIGNMENT((#647));
#649=STYLED_ITEM('',(#648),#641);
#650=ADVANCED_FACE('',(#1032),#1034,.T.);
#651=COLOUR_RGB('',0.564705882352941,0.564705882352941,0.564705882352941);
#652=FILL_AREA_STYLE_COLOUR('',#651);
#653=FILL_AREA_STYLE($,(#652));
#654=SURFACE_STYLE_FILL_AREA(#653);
#655=SURFACE_SIDE_STYLE('',(#654));
#656=SURFACE_STYLE_USAGE(.BOTH.,#655);
#657=PRESENTATION_STYLE_ASSIGNMENT((#656));
#658=STYLED_ITEM('',(#657),#650);
#659=ADVANCED_FACE('',(#1039),#1041,.T.);
#660=COLOUR_RGB('',0.564705882352941,0.564705882352941,0.564705882352941);
#661=FILL_AREA_STYLE_COLOUR('',#660);
#662=FILL_AREA_STYLE($,(#661));
#663=SURFACE_STYLE_FILL_AREA(#662);
#664=SURFACE_SIDE_STYLE('',(#663));
#665=SURFACE_STYLE_USAGE(.BOTH.,#664);
#666=PRESENTATION_STYLE_ASSIGNMENT((#665));
#667=STYLED_ITEM('',(#666),#659);
#668=ADVANCED_FACE('',(#1046),#1048,.F.);
#669=COLOUR_RGB('',0.564705882352941,0.564705882352941,0.564705882352941);
#670=FILL_AREA_STYLE_COLOUR('',#669);
#671=FILL_AREA_STYLE($,(#670));
#672=SURFACE_STYLE_FILL_AREA(#671);
#673=SURFACE_SIDE_STYLE('',(#672));
#674=SURFACE_STYLE_USAGE(.BOTH.,#673);
#675=PRESENTATION_STYLE_ASSIGNMENT((#674));
#676=STYLED_ITEM('',(#675),#668);
#677=ADVANCED_FACE('',(#1053),#1055,.F.);
#678=COLOUR_RGB('',0.564705882352941,0.564705882352941,0.564705882352941);
#679=FILL_AREA_STYLE_COLOUR('',#678);
#680=FILL_AREA_STYLE($,(#679));
#681=SURFACE_STYLE_FILL_AREA(#680);
#682=SURFACE_SIDE_STYLE('',(#681));
#683=SURFACE_STYLE_USAGE(.BOTH.,#682);
#684=PRESENTATION_STYLE_ASSIGNMENT((#683));
#685=STYLED_ITEM('',(#684),#677);
#686=ADVANCED_FACE('',(#1060),#1062,.F.);
#687=COLOUR_RGB('',0.564705882352941,0.564705882352941,0.564705882352941);
#688=FILL_AREA_STYLE_COLOUR('',#687);
#689=FILL_AREA_STYLE($,(#688));
#690=SURFACE_STYLE_FILL_AREA(#689);
#691=SURFACE_SIDE_STYLE('',(#690));
#692=SURFACE_STYLE_USAGE(.BOTH.,#691);
#693=PRESENTATION_STYLE_ASSIGNMENT((#692));
#694=STYLED_ITEM('',(#693),#686);
#695=ADVANCED_FACE('',(#1067),#1069,.F.);
#696=COLOUR_RGB('',0.564705882352941,0.564705882352941,0.564705882352941);
#697=FILL_AREA_STYLE_COLOUR('',#696);
#698=FILL_AREA_STYLE($,(#697));
#699=SURFACE_STYLE_FILL_AREA(#698);
#700=SURFACE_SIDE_STYLE('',(#699));
#701=SURFACE_STYLE_USAGE(.BOTH.,#700);
#702=PRESENTATION_STYLE_ASSIGNMENT((#701));
#703=STYLED_ITEM('',(#702),#695);
#704=ADVANCED_FACE('',(#1074),#1076,.F.);
#705=COLOUR_RGB('',0.564705882352941,0.564705882352941,0.564705882352941);
#706=FILL_AREA_STYLE_COLOUR('',#705);
#707=FILL_AREA_STYLE($,(#706));
#708=SURFACE_STYLE_FILL_AREA(#707);
#709=SURFACE_SIDE_STYLE('',(#708));
#710=SURFACE_STYLE_USAGE(.BOTH.,#709);
#711=PRESENTATION_STYLE_ASSIGNMENT((#710));
#712=STYLED_ITEM('',(#711),#704);
#713=FACE_BOUND('',#714,.T.);
#714=EDGE_LOOP('',(#1081,#1082,#1083,#1084));
#715=PLANE('',#716);
#716=AXIS2_PLACEMENT_3D('',#717,#718,#719);
#717=CARTESIAN_POINT('',(30.5,14.,10.));
#718=DIRECTION('',(1.16482415698377E-16,1.,0.));
#719=DIRECTION('',(-1.,1.16482415698377E-16,0.));
#720=FACE_BOUND('',#721,.T.);
#721=EDGE_LOOP('',(#1085,#1086,#1087,#1088));
#722=PLANE('',#723);
#723=AXIS2_PLACEMENT_3D('',#724,#725,#726);
#724=CARTESIAN_POINT('',(-30.5,-14.,10.));
#725=DIRECTION('',(-1.16482415698377E-16,-1.,0.));
#726=DIRECTION('',(1.,-1.16482415698377E-16,0.));
#727=FACE_BOUND('',#728,.T.);
#728=EDGE_LOOP('',(#1089,#1090,#1091,#1092,#1093,#1094,#1095,#1096,#1097,#1098));
#729=PLANE('',#730);
#730=AXIS2_PLACEMENT_3D('',#731,#732,#733);
#731=CARTESIAN_POINT('',(-30.5,16.,10.));
#732=DIRECTION('',(-1.,2.22044604925031E-16,0.));
#733=DIRECTION('',(-2.22044604925031E-16,-1.,0.));
#734=FACE_BOUND('',#735,.T.);
#735=EDGE_LOOP('',(#1099,#1100,#1101,#1102,#1103,#1104,#1105,#1106));
#736=PLANE('',#737);
#737=AXIS2_PLACEMENT_3D('',#738,#739,#740);
#738=CARTESIAN_POINT('',(0.,0.,40.));
#739=DIRECTION('',(0.,0.,1.));
#740=DIRECTION('',(-1.,1.22464679914735E-16,0.));
#741=FACE_BOUND('',#742,.T.);
#742=EDGE_LOOP('',(#1107,#1108,#1109,#1110));
#743=PLANE('',#744);
#744=AXIS2_PLACEMENT_3D('',#745,#746,#747);
#745=CARTESIAN_POINT('',(-28.5,16.,10.));
#746=DIRECTION('',(-1.,2.22044604925031E-16,0.));
#747=DIRECTION('',(-2.22044604925031E-16,-1.,0.));
#748=FACE_BOUND('',#749,.T.);
#749=EDGE_LOOP('',(#1111,#1112,#1113,#1114));
#750=PLANE('',#751);
#751=AXIS2_PLACEMENT_3D('',#752,#753,#754);
#752=CARTESIAN_POINT('',(28.5,-16.,10.));
#753=DIRECTION('',(1.,-2.22044604925031E-16,0.));
#754=DIRECTION('',(2.22044604925031E-16,1.,0.));
#755=FACE_BOUND('',#756,.T.);
#756=EDGE_LOOP('',(#1115,#1116,#1117,#1118,#1119,#1120));
#757=PLANE('',#758);
#758=AXIS2_PLACEMENT_3D('',#759,#760,#761);
#759=CARTESIAN_POINT('',(30.5,15.,39.));
#760=DIRECTION('',(1.64731012058626E-16,0.707106781186548,-0.707106781186548));
#761=DIRECTION('',(0.,-0.707106781186548,-0.707106781186548));
#762=FACE_BOUND('',#763,.T.);
#763=EDGE_LOOP('',(#1121,#1122,#1123,#1124));
#764=PLANE('',#765);
#765=AXIS2_PLACEMENT_3D('',#766,#767,#768);
#766=CARTESIAN_POINT('',(30.5,14.,38.));
#767=DIRECTION('',(2.36473526623629E-31,1.01506105108586E-15,-1.));
#768=DIRECTION('',(-2.53765262771464E-16,-1.,-1.01506105108586E-15));
#769=FACE_BOUND('',#770,.T.);
#770=EDGE_LOOP('',(#1125,#1126,#1127,#1128));
#771=PLANE('',#772);
#772=AXIS2_PLACEMENT_3D('',#773,#774,#775);
#773=CARTESIAN_POINT('',(30.5,14.,38.));
#774=DIRECTION('',(2.36473526623629E-31,1.01506105108586E-15,-1.));
#775=DIRECTION('',(-2.53765262771464E-16,-1.,-1.01506105108586E-15));
#776=FACE_BOUND('',#777,.T.);
#777=EDGE_LOOP('',(#1129,#1130,#1131,#1132,#1133,#1134));
#778=PLANE('',#779);
#779=AXIS2_PLACEMENT_3D('',#780,#781,#782);
#780=CARTESIAN_POINT('',(30.5,-14.,38.));
#781=DIRECTION('',(-1.64731012058626E-16,-0.707106781186548,-0.707106781186547));
#782=DIRECTION('',(0.,-0.707106781186547,0.707106781186548));
#783=FACE_BOUND('',#784,.T.);
#784=EDGE_LOOP('',(#1135,#1136,#1137,#1138));
#785=PLANE('',#786);
#786=AXIS2_PLACEMENT_3D('',#787,#788,#789);
#787=CARTESIAN_POINT('',(30.5,-15.,39.));
#788=DIRECTION('',(-1.64731012058626E-16,-0.707106781186548,0.707106781186547));
#789=DIRECTION('',(0.,0.707106781186547,0.707106781186548));
#790=FACE_BOUND('',#791,.T.);
#791=EDGE_LOOP('',(#1139,#1140,#1141,#1142));
#792=PLANE('',#793);
#793=AXIS2_PLACEMENT_3D('',#794,#795,#796);
#794=CARTESIAN_POINT('',(30.5,14.,40.));
#795=DIRECTION('',(1.64731012058626E-16,0.707106781186548,0.707106781186548));
#796=DIRECTION('',(0.,0.707106781186548,-0.707106781186548));
#797=FACE_BOUND('',#798,.T.);
#798=EDGE_LOOP('',(#1143,#1144,#1145,#1146,#1147,#1148));
#799=PLANE('',#800);
#800=AXIS2_PLACEMENT_3D('',#801,#802,#803);
#801=CARTESIAN_POINT('',(29.5,-16.,10.));
#802=DIRECTION('',(1.,-2.22044604925031E-16,0.));
#803=DIRECTION('',(2.22044604925031E-16,1.,0.));
#804=FACE_BOUND('',#805,.T.);
#805=EDGE_LOOP('',(#1149,#1150,#1151,#1152));
#806=PLANE('',#807);
#807=AXIS2_PLACEMENT_3D('',#808,#809,#810);
#808=CARTESIAN_POINT('',(-36.,14.,12.));
#809=DIRECTION('',(5.23364152894592E-17,0.707106781186548,-0.707106781186547));
#810=DIRECTION('',(1.,-7.40148683083438E-17,0.));
#811=FACE_BOUND('',#812,.T.);
#812=EDGE_LOOP('',(#1153,#1154,#1155,#1156));
#813=PLANE('',#814);
#814=AXIS2_PLACEMENT_3D('',#815,#816,#817);
#815=CARTESIAN_POINT('',(36.,-14.,12.));
#816=DIRECTION('',(-5.23364152894592E-17,-0.707106781186548,-0.707106781186547));
#817=DIRECTION('',(-1.,7.40148683083438E-17,0.));
#818=FACE_BOUND('',#819,.T.);
#819=EDGE_LOOP('',(#1157,#1158,#1159,#1160));
#820=PLANE('',#821);
#821=AXIS2_PLACEMENT_3D('',#822,#823,#824);
#822=CARTESIAN_POINT('',(30.5,16.,10.));
#823=DIRECTION('',(1.16482415698377E-16,1.,0.));
#824=DIRECTION('',(-1.,1.16482415698377E-16,0.));
#825=FACE_BOUND('',#826,.T.);
#826=EDGE_LOOP('',(#1161,#1162,#1163,#1164));
#827=FACE_BOUND('',#828,.T.);
#828=EDGE_LOOP('',(#1165,#1166,#1167,#1168));
#829=PLANE('',#830);
#830=AXIS2_PLACEMENT_3D('',#831,#832,#833);
#831=CARTESIAN_POINT('',(0.,0.,10.));
#832=DIRECTION('',(0.,0.,1.));
#833=DIRECTION('',(-1.,1.22464679914735E-16,0.));
#834=FACE_BOUND('',#835,.T.);
#835=EDGE_LOOP('',(#1169,#1170,#1171,#1172));
#836=PLANE('',#837);
#837=AXIS2_PLACEMENT_3D('',#838,#839,#840);
#838=CARTESIAN_POINT('',(-30.5,-16.,10.));
#839=DIRECTION('',(-1.16482415698377E-16,-1.,0.));
#840=DIRECTION('',(1.,-1.16482415698377E-16,0.));
#841=FACE_BOUND('',#842,.T.);
#842=EDGE_LOOP('',(#1173,#1174,#1175,#1176));
#843=PLANE('',#844);
#844=AXIS2_PLACEMENT_3D('',#845,#846,#847);
#845=CARTESIAN_POINT('',(30.5,-16.,10.));
#846=DIRECTION('',(1.,-2.22044604925031E-16,0.));
#847=DIRECTION('',(2.22044604925031E-16,1.,0.));
#848=FACE_BOUND('',#849,.T.);
#849=EDGE_LOOP('',(#1177,#1178,#1179,#1180));
#850=PLANE('',#851);
#851=AXIS2_PLACEMENT_3D('',#852,#853,#854);
#852=CARTESIAN_POINT('',(-28.5,-21.5,12.));
#853=DIRECTION('',(-0.707106781186547,1.1684408994856E-16,-0.707106781186548));
#854=DIRECTION('',(1.65242496688395E-16,1.,-1.29722998952264E-32));
#855=FACE_BOUND('',#856,.T.);
#856=EDGE_LOOP('',(#1181,#1182,#1183,#1184));
#857=PLANE('',#858);
#858=AXIS2_PLACEMENT_3D('',#859,#860,#861);
#859=CARTESIAN_POINT('',(28.5,21.5,12.));
#860=DIRECTION('',(0.707106781186547,-1.1684408994856E-16,-0.707106781186548));
#861=DIRECTION('',(-1.65242496688395E-16,-1.,-1.29722998952264E-32));
#862=FACE_BOUND('',#863,.T.);
#863=EDGE_LOOP('',(#1185,#1186,#1187,#1188));
#864=PLANE('',#865);
#865=AXIS2_PLACEMENT_3D('',#866,#867,#868);
#866=CARTESIAN_POINT('',(28.,11.5,0.));
#867=DIRECTION('',(1.26882631385732E-16,1.,0.));
#868=DIRECTION('',(-1.,1.26882631385732E-16,0.));
#869=FACE_BOUND('',#870,.T.);
#870=EDGE_LOOP('',(#1189,#1190,#1191,#1192));
#871=PLANE('',#872);
#872=AXIS2_PLACEMENT_3D('',#873,#874,#875);
#873=CARTESIAN_POINT('',(-28.,-11.5,0.));
#874=DIRECTION('',(-1.26882631385732E-16,-1.,0.));
#875=DIRECTION('',(1.,-1.26882631385732E-16,0.));
#876=FACE_BOUND('',#877,.T.);
#877=EDGE_LOOP('',(#1193,#1194,#1195,#1196));
#878=PLANE('',#879);
#879=AXIS2_PLACEMENT_3D('',#880,#881,#882);
#880=CARTESIAN_POINT('',(-28.,13.5,0.));
#881=DIRECTION('',(-1.,0.,0.));
#882=DIRECTION('',(0.,-1.,0.));
#883=FACE_BOUND('',#884,.T.);
#884=EDGE_LOOP('',(#1197,#1198,#1199,#1200));
#885=PLANE('',#886);
#886=AXIS2_PLACEMENT_3D('',#887,#888,#889);
#887=CARTESIAN_POINT('',(-28.,-13.5,0.));
#888=DIRECTION('',(-1.26882631385732E-16,-1.,0.));
#889=DIRECTION('',(1.,-1.26882631385732E-16,0.));
#890=FACE_BOUND('',#891,.T.);
#891=EDGE_LOOP('',(#1201,#1202,#1203,#1204));
#892=PLANE('',#893);
#893=AXIS2_PLACEMENT_3D('',#894,#895,#896);
#894=CARTESIAN_POINT('',(28.,-13.5,0.));
#895=DIRECTION('',(1.,0.,0.));
#896=DIRECTION('',(0.,1.,0.));
#897=FACE_BOUND('',#898,.T.);
#898=EDGE_LOOP('',(#1205,#1206,#1207,#1208));
#899=PLANE('',#900);
#900=AXIS2_PLACEMENT_3D('',#901,#902,#903);
#901=CARTESIAN_POINT('',(28.,13.5,0.));
#902=DIRECTION('',(1.26882631385732E-16,1.,0.));
#903=DIRECTION('',(-1.,1.26882631385732E-16,0.));
#904=FACE_BOUND('',#905,.T.);
#905=EDGE_LOOP('',(#1209,#1210,#1211,#1212));
#906=PLANE('',#907);
#907=AXIS2_PLACEMENT_3D('',#908,#909,#910);
#908=CARTESIAN_POINT('',(-26.,13.5,0.));
#909=DIRECTION('',(-1.,0.,0.));
#910=DIRECTION('',(0.,-1.,0.));
#911=FACE_BOUND('',#912,.T.);
#912=EDGE_LOOP('',(#1213,#1214,#1215,#1216));
#913=PLANE('',#914);
#914=AXIS2_PLACEMENT_3D('',#915,#916,#917);
#915=CARTESIAN_POINT('',(26.,-13.5,0.));
#916=DIRECTION('',(1.,0.,0.));
#917=DIRECTION('',(0.,1.,0.));
#918=FACE_BOUND('',#919,.T.);
#919=EDGE_LOOP('',(#1217,#1218,#1219,#1220));
#920=FACE_BOUND('',#921,.T.);
#921=EDGE_LOOP('',(#1221,#1222,#1223,#1224));
#922=PLANE('',#923);
#923=AXIS2_PLACEMENT_3D('',#924,#925,#926);
#924=CARTESIAN_POINT('',(0.,0.,0.));
#925=DIRECTION('',(0.,0.,1.));
#926=DIRECTION('',(-1.,1.22464679914735E-16,0.));
#927=FACE_BOUND('',#928,.T.);
#928=EDGE_LOOP('',(#1225,#1226,#1227,#1228,#1229,#1230,#1231,#1232,#1233,#1234));
#929=PLANE('',#930);
#930=AXIS2_PLACEMENT_3D('',#931,#932,#933);
#931=CARTESIAN_POINT('',(-30.5,14.8,-2.));
#932=DIRECTION('',(-1.,0.,0.));
#933=DIRECTION('',(0.,-1.,0.));
#934=FACE_BOUND('',#935,.T.);
#935=EDGE_LOOP('',(#1235,#1236,#1237,#1238,#1239,#1240,#1241,#1242));
#936=PLANE('',#937);
#937=AXIS2_PLACEMENT_3D('',#938,#939,#940);
#938=CARTESIAN_POINT('',(0.,0.,0.));
#939=DIRECTION('',(0.,0.,1.));
#940=DIRECTION('',(6.12323399573677E-17,-1.,0.));
#941=FACE_BOUND('',#942,.T.);
#942=EDGE_LOOP('',(#1243,#1244,#1245,#1246));
#943=PLANE('',#944);
#944=AXIS2_PLACEMENT_3D('',#945,#946,#947);
#945=CARTESIAN_POINT('',(-29.5,-5.,0.));
#946=DIRECTION('',(1.,0.,0.));
#947=DIRECTION('',(0.,1.,0.));
#948=FACE_BOUND('',#949,.T.);
#949=EDGE_LOOP('',(#1247,#1248,#1249,#1250));
#950=PLANE('',#951);
#951=AXIS2_PLACEMENT_3D('',#952,#953,#954);
#952=CARTESIAN_POINT('',(30.,-13.8,-2.));
#953=DIRECTION('',(0.,-0.707106781186547,-0.707106781186547));
#954=DIRECTION('',(0.,-0.707106781186547,0.707106781186547));
#955=FACE_BOUND('',#956,.T.);
#956=EDGE_LOOP('',(#1251,#1252,#1253,#1254));
#957=PLANE('',#958);
#958=AXIS2_PLACEMENT_3D('',#959,#960,#961);
#959=CARTESIAN_POINT('',(30.,-14.8,-1.));
#960=DIRECTION('',(0.,-0.707106781186547,0.707106781186547));
#961=DIRECTION('',(0.,0.707106781186547,0.707106781186547));
#962=FACE_BOUND('',#963,.T.);
#963=EDGE_LOOP('',(#1255,#1256,#1257,#1258));
#964=PLANE('',#965);
#965=AXIS2_PLACEMENT_3D('',#966,#967,#968);
#966=CARTESIAN_POINT('',(0.,0.,2.));
#967=DIRECTION('',(0.,0.,1.));
#968=DIRECTION('',(6.12323399573677E-17,-1.,0.));
#969=FACE_BOUND('',#970,.T.);
#970=EDGE_LOOP('',(#1259,#1260,#1261,#1262));
#971=PLANE('',#972);
#972=AXIS2_PLACEMENT_3D('',#973,#974,#975);
#973=CARTESIAN_POINT('',(30.,14.8,-1.));
#974=DIRECTION('',(0.,-0.707106781186547,-0.707106781186547));
#975=DIRECTION('',(0.,-0.707106781186547,0.707106781186547));
#976=FACE_BOUND('',#977,.T.);
#977=EDGE_LOOP('',(#1263,#1264,#1265,#1266));
#978=PLANE('',#979);
#979=AXIS2_PLACEMENT_3D('',#980,#981,#982);
#980=CARTESIAN_POINT('',(30.,13.8,-2.));
#981=DIRECTION('',(0.,-0.707106781186547,0.707106781186547));
#982=DIRECTION('',(0.,0.707106781186547,0.707106781186547));
#983=FACE_BOUND('',#984,.T.);
#984=EDGE_LOOP('',(#1267,#1268,#1269,#1270));
#985=PLANE('',#986);
#986=AXIS2_PLACEMENT_3D('',#987,#988,#989);
#987=CARTESIAN_POINT('',(0.,0.,-2.));
#988=DIRECTION('',(0.,0.,1.));
#989=DIRECTION('',(6.12323399573677E-17,-1.,0.));
#990=FACE_BOUND('',#991,.T.);
#991=EDGE_LOOP('',(#1271,#1272,#1273,#1274,#1275,#1276));
#992=PLANE('',#993);
#993=AXIS2_PLACEMENT_3D('',#994,#995,#996);
#994=CARTESIAN_POINT('',(29.,-14.8,-2.));
#995=DIRECTION('',(1.,0.,0.));
#996=DIRECTION('',(0.,1.,0.));
#997=FACE_BOUND('',#998,.T.);
#998=EDGE_LOOP('',(#1277,#1278,#1279,#1280));
#999=CYLINDRICAL_SURFACE('',#1000,2.);
#1000=AXIS2_PLACEMENT_3D('',#1001,#1002,#1003);
#1001=CARTESIAN_POINT('',(-22.5,3.,0.));
#1002=DIRECTION('',(-1.,-1.1842378929335E-16,0.));
#1003=DIRECTION('',(-2.62953635073671E-32,2.22044604925031E-16,1.));
#1004=FACE_BOUND('',#1005,.T.);
#1005=EDGE_LOOP('',(#1281,#1282,#1283,#1284));
#1006=CYLINDRICAL_SURFACE('',#1007,2.);
#1007=AXIS2_PLACEMENT_3D('',#1008,#1009,#1010);
#1008=CARTESIAN_POINT('',(-37.5,-2.99999999999998,0.));
#1009=DIRECTION('',(1.,-1.8947806286936E-15,0.));
#1010=DIRECTION('',(0.,2.22044604925018E-16,1.));
#1011=FACE_BOUND('',#1012,.T.);
#1012=EDGE_LOOP('',(#1285,#1286,#1287,#1288));
#1013=PLANE('',#1014);
#1014=AXIS2_PLACEMENT_3D('',#1015,#1016,#1017);
#1015=CARTESIAN_POINT('',(-28.3,-13.8,0.));
#1016=DIRECTION('',(6.27687929116696E-17,-1.,0.));
#1017=DIRECTION('',(1.,6.27687929116696E-17,0.));
#1018=FACE_BOUND('',#1019,.T.);
#1019=EDGE_LOOP('',(#1289,#1290,#1291,#1292));
#1020=PLANE('',#1021);
#1021=AXIS2_PLACEMENT_3D('',#1022,#1023,#1024);
#1022=CARTESIAN_POINT('',(28.3,-13.8,0.));
#1023=DIRECTION('',(1.,0.,0.));
#1024=DIRECTION('',(0.,1.,0.));
#1025=FACE_BOUND('',#1026,.T.);
#1026=EDGE_LOOP('',(#1293,#1294,#1295,#1296));
#1027=PLANE('',#1028);
#1028=AXIS2_PLACEMENT_3D('',#1029,#1030,#1031);
#1029=CARTESIAN_POINT('',(28.3,13.8,0.));
#1030=DIRECTION('',(-6.27687929116696E-17,1.,0.));
#1031=DIRECTION('',(-1.,-6.27687929116696E-17,0.));
#1032=FACE_BOUND('',#1033,.T.);
#1033=EDGE_LOOP('',(#1297,#1298,#1299,#1300));
#1034=PLANE('',#1035);
#1035=AXIS2_PLACEMENT_3D('',#1036,#1037,#1038);
#1036=CARTESIAN_POINT('',(-28.3,13.8,0.));
#1037=DIRECTION('',(-1.,0.,0.));
#1038=DIRECTION('',(0.,-1.,0.));
#1039=FACE_BOUND('',#1040,.T.);
#1040=EDGE_LOOP('',(#1301,#1302,#1303,#1304));
#1041=PLANE('',#1042);
#1042=AXIS2_PLACEMENT_3D('',#1043,#1044,#1045);
#1043=CARTESIAN_POINT('',(0.,0.,3.));
#1044=DIRECTION('',(0.,0.,1.));
#1045=DIRECTION('',(6.12323399573677E-17,-1.,0.));
#1046=FACE_BOUND('',#1047,.T.);
#1047=EDGE_LOOP('',(#1305,#1306,#1307,#1308));
#1048=PLANE('',#1049);
#1049=AXIS2_PLACEMENT_3D('',#1050,#1051,#1052);
#1050=CARTESIAN_POINT('',(0.,0.,0.));
#1051=DIRECTION('',(0.,0.,1.));
#1052=DIRECTION('',(6.12323399573677E-17,-1.,0.));
#1053=FACE_BOUND('',#1054,.T.);
#1054=EDGE_LOOP('',(#1309,#1310,#1311,#1312));
#1055=PLANE('',#1056);
#1056=AXIS2_PLACEMENT_3D('',#1057,#1058,#1059);
#1057=CARTESIAN_POINT('',(-38.3,-13.8,2.5));
#1058=DIRECTION('',(-3.68951230500104E-17,0.707106781186547,0.707106781186548));
#1059=DIRECTION('',(1.,4.63800741357768E-17,5.7975092669721E-18));
#1060=FACE_BOUND('',#1061,.T.);
#1061=EDGE_LOOP('',(#1313,#1314,#1315,#1316));
#1062=PLANE('',#1063);
#1063=AXIS2_PLACEMENT_3D('',#1064,#1065,#1066);
#1064=CARTESIAN_POINT('',(28.3,-23.8,2.5));
#1065=DIRECTION('',(-0.707106781186548,0.,0.707106781186547));
#1066=DIRECTION('',(0.,1.,0.));
#1067=FACE_BOUND('',#1068,.T.);
#1068=EDGE_LOOP('',(#1317,#1318,#1319,#1320));
#1069=PLANE('',#1070);
#1070=AXIS2_PLACEMENT_3D('',#1071,#1072,#1073);
#1071=CARTESIAN_POINT('',(38.3,13.8,2.5));
#1072=DIRECTION('',(3.68951230500104E-17,-0.707106781186547,0.707106781186548));
#1073=DIRECTION('',(-1.,-4.63800741357768E-17,5.7975092669721E-18));
#1074=FACE_BOUND('',#1075,.T.);
#1075=EDGE_LOOP('',(#1321,#1322,#1323,#1324));
#1076=PLANE('',#1077);
#1077=AXIS2_PLACEMENT_3D('',#1078,#1079,#1080);
#1078=CARTESIAN_POINT('',(-28.3,23.8,2.5));
#1079=DIRECTION('',(0.707106781186548,0.,0.707106781186547));
#1080=DIRECTION('',(0.,-1.,0.));
#1081=ORIENTED_EDGE('',*,*,#1325,.T.);
#1082=ORIENTED_EDGE('',*,*,#1326,.F.);
#1083=ORIENTED_EDGE('',*,*,#1327,.F.);
#1084=ORIENTED_EDGE('',*,*,#1328,.T.);
#1085=ORIENTED_EDGE('',*,*,#1329,.T.);
#1086=ORIENTED_EDGE('',*,*,#1330,.F.);
#1087=ORIENTED_EDGE('',*,*,#1331,.F.);
#1088=ORIENTED_EDGE('',*,*,#1332,.T.);
#1089=ORIENTED_EDGE('',*,*,#1333,.T.);
#1090=ORIENTED_EDGE('',*,*,#1334,.F.);
#1091=ORIENTED_EDGE('',*,*,#1335,.F.);
#1092=ORIENTED_EDGE('',*,*,#1336,.T.);
#1093=ORIENTED_EDGE('',*,*,#1337,.T.);
#1094=ORIENTED_EDGE('',*,*,#1338,.F.);
#1095=ORIENTED_EDGE('',*,*,#1339,.T.);
#1096=ORIENTED_EDGE('',*,*,#1340,.T.);
#1097=ORIENTED_EDGE('',*,*,#1341,.T.);
#1098=ORIENTED_EDGE('',*,*,#1342,.T.);
#1099=ORIENTED_EDGE('',*,*,#1343,.T.);
#1100=ORIENTED_EDGE('',*,*,#1344,.T.);
#1101=ORIENTED_EDGE('',*,*,#1338,.T.);
#1102=ORIENTED_EDGE('',*,*,#1345,.T.);
#1103=ORIENTED_EDGE('',*,*,#1346,.T.);
#1104=ORIENTED_EDGE('',*,*,#1347,.T.);
#1105=ORIENTED_EDGE('',*,*,#1334,.T.);
#1106=ORIENTED_EDGE('',*,*,#1348,.T.);
#1107=ORIENTED_EDGE('',*,*,#1349,.T.);
#1108=ORIENTED_EDGE('',*,*,#1332,.F.);
#1109=ORIENTED_EDGE('',*,*,#1350,.F.);
#1110=ORIENTED_EDGE('',*,*,#1326,.T.);
#1111=ORIENTED_EDGE('',*,*,#1351,.T.);
#1112=ORIENTED_EDGE('',*,*,#1328,.F.);
#1113=ORIENTED_EDGE('',*,*,#1352,.F.);
#1114=ORIENTED_EDGE('',*,*,#1330,.T.);
#1115=ORIENTED_EDGE('',*,*,#1325,.F.);
#1116=ORIENTED_EDGE('',*,*,#1353,.F.);
#1117=ORIENTED_EDGE('',*,*,#1354,.T.);
#1118=ORIENTED_EDGE('',*,*,#1355,.T.);
#1119=ORIENTED_EDGE('',*,*,#1342,.F.);
#1120=ORIENTED_EDGE('',*,*,#1356,.F.);
#1121=ORIENTED_EDGE('',*,*,#1351,.F.);
#1122=ORIENTED_EDGE('',*,*,#1357,.F.);
#1123=ORIENTED_EDGE('',*,*,#1358,.T.);
#1124=ORIENTED_EDGE('',*,*,#1353,.T.);
#1125=ORIENTED_EDGE('',*,*,#1349,.F.);
#1126=ORIENTED_EDGE('',*,*,#1356,.T.);
#1127=ORIENTED_EDGE('',*,*,#1341,.F.);
#1128=ORIENTED_EDGE('',*,*,#1359,.F.);
#1129=ORIENTED_EDGE('',*,*,#1329,.F.);
#1130=ORIENTED_EDGE('',*,*,#1359,.T.);
#1131=ORIENTED_EDGE('',*,*,#1340,.F.);
#1132=ORIENTED_EDGE('',*,*,#1360,.F.);
#1133=ORIENTED_EDGE('',*,*,#1361,.T.);
#1134=ORIENTED_EDGE('',*,*,#1357,.T.);
#1135=ORIENTED_EDGE('',*,*,#1344,.F.);
#1136=ORIENTED_EDGE('',*,*,#1362,.T.);
#1137=ORIENTED_EDGE('',*,*,#1360,.T.);
#1138=ORIENTED_EDGE('',*,*,#1339,.F.);
#1139=ORIENTED_EDGE('',*,*,#1348,.F.);
#1140=ORIENTED_EDGE('',*,*,#1333,.F.);
#1141=ORIENTED_EDGE('',*,*,#1355,.F.);
#1142=ORIENTED_EDGE('',*,*,#1363,.T.);
#1143=ORIENTED_EDGE('',*,*,#1343,.F.);
#1144=ORIENTED_EDGE('',*,*,#1363,.F.);
#1145=ORIENTED_EDGE('',*,*,#1354,.F.);
#1146=ORIENTED_EDGE('',*,*,#1358,.F.);
#1147=ORIENTED_EDGE('',*,*,#1361,.F.);
#1148=ORIENTED_EDGE('',*,*,#1362,.F.);
#1149=ORIENTED_EDGE('',*,*,#1327,.T.);
#1150=ORIENTED_EDGE('',*,*,#1364,.T.);
#1151=ORIENTED_EDGE('',*,*,#1365,.F.);
#1152=ORIENTED_EDGE('',*,*,#1366,.F.);
#1153=ORIENTED_EDGE('',*,*,#1331,.T.);
#1154=ORIENTED_EDGE('',*,*,#1367,.T.);
#1155=ORIENTED_EDGE('',*,*,#1368,.F.);
#1156=ORIENTED_EDGE('',*,*,#1369,.F.);
#1157=ORIENTED_EDGE('',*,*,#1370,.T.);
#1158=ORIENTED_EDGE('',*,*,#1335,.T.);
#1159=ORIENTED_EDGE('',*,*,#1347,.F.);
#1160=ORIENTED_EDGE('',*,*,#1371,.F.);
#1161=ORIENTED_EDGE('',*,*,#1370,.F.);
#1162=ORIENTED_EDGE('',*,*,#1372,.F.);
#1163=ORIENTED_EDGE('',*,*,#1373,.F.);
#1164=ORIENTED_EDGE('',*,*,#1336,.F.);
#1165=ORIENTED_EDGE('',*,*,#1374,.T.);
#1166=ORIENTED_EDGE('',*,*,#1375,.T.);
#1167=ORIENTED_EDGE('',*,*,#1376,.T.);
#1168=ORIENTED_EDGE('',*,*,#1377,.T.);
#1169=ORIENTED_EDGE('',*,*,#1373,.T.);
#1170=ORIENTED_EDGE('',*,*,#1378,.T.);
#1171=ORIENTED_EDGE('',*,*,#1345,.F.);
#1172=ORIENTED_EDGE('',*,*,#1337,.F.);
#1173=ORIENTED_EDGE('',*,*,#1372,.T.);
#1174=ORIENTED_EDGE('',*,*,#1371,.T.);
#1175=ORIENTED_EDGE('',*,*,#1346,.F.);
#1176=ORIENTED_EDGE('',*,*,#1378,.F.);
#1177=ORIENTED_EDGE('',*,*,#1350,.T.);
#1178=ORIENTED_EDGE('',*,*,#1369,.T.);
#1179=ORIENTED_EDGE('',*,*,#1379,.F.);
#1180=ORIENTED_EDGE('',*,*,#1364,.F.);
#1181=ORIENTED_EDGE('',*,*,#1352,.T.);
#1182=ORIENTED_EDGE('',*,*,#1366,.T.);
#1183=ORIENTED_EDGE('',*,*,#1380,.F.);
#1184=ORIENTED_EDGE('',*,*,#1367,.F.);
#1185=ORIENTED_EDGE('',*,*,#1365,.T.);
#1186=ORIENTED_EDGE('',*,*,#1381,.F.);
#1187=ORIENTED_EDGE('',*,*,#1382,.F.);
#1188=ORIENTED_EDGE('',*,*,#1383,.T.);
#1189=ORIENTED_EDGE('',*,*,#1368,.T.);
#1190=ORIENTED_EDGE('',*,*,#1384,.F.);
#1191=ORIENTED_EDGE('',*,*,#1385,.F.);
#1192=ORIENTED_EDGE('',*,*,#1386,.T.);
#1193=ORIENTED_EDGE('',*,*,#1374,.F.);
#1194=ORIENTED_EDGE('',*,*,#1387,.F.);
#1195=ORIENTED_EDGE('',*,*,#1388,.T.);
#1196=ORIENTED_EDGE('',*,*,#1389,.T.);
#1197=ORIENTED_EDGE('',*,*,#1375,.F.);
#1198=ORIENTED_EDGE('',*,*,#1389,.F.);
#1199=ORIENTED_EDGE('',*,*,#1390,.T.);
#1200=ORIENTED_EDGE('',*,*,#1391,.T.);
#1201=ORIENTED_EDGE('',*,*,#1376,.F.);
#1202=ORIENTED_EDGE('',*,*,#1391,.F.);
#1203=ORIENTED_EDGE('',*,*,#1392,.T.);
#1204=ORIENTED_EDGE('',*,*,#1393,.T.);
#1205=ORIENTED_EDGE('',*,*,#1377,.F.);
#1206=ORIENTED_EDGE('',*,*,#1393,.F.);
#1207=ORIENTED_EDGE('',*,*,#1394,.T.);
#1208=ORIENTED_EDGE('',*,*,#1387,.T.);
#1209=ORIENTED_EDGE('',*,*,#1379,.T.);
#1210=ORIENTED_EDGE('',*,*,#1386,.F.);
#1211=ORIENTED_EDGE('',*,*,#1395,.F.);
#1212=ORIENTED_EDGE('',*,*,#1381,.T.);
#1213=ORIENTED_EDGE('',*,*,#1380,.T.);
#1214=ORIENTED_EDGE('',*,*,#1383,.F.);
#1215=ORIENTED_EDGE('',*,*,#1396,.F.);
#1216=ORIENTED_EDGE('',*,*,#1384,.T.);
#1217=ORIENTED_EDGE('',*,*,#1394,.F.);
#1218=ORIENTED_EDGE('',*,*,#1392,.F.);
#1219=ORIENTED_EDGE('',*,*,#1390,.F.);
#1220=ORIENTED_EDGE('',*,*,#1388,.F.);
#1221=ORIENTED_EDGE('',*,*,#1382,.T.);
#1222=ORIENTED_EDGE('',*,*,#1395,.T.);
#1223=ORIENTED_EDGE('',*,*,#1385,.T.);
#1224=ORIENTED_EDGE('',*,*,#1396,.T.);
#1225=ORIENTED_EDGE('',*,*,#1397,.F.);
#1226=ORIENTED_EDGE('',*,*,#1398,.F.);
#1227=ORIENTED_EDGE('',*,*,#1399,.F.);
#1228=ORIENTED_EDGE('',*,*,#1400,.T.);
#1229=ORIENTED_EDGE('',*,*,#1401,.T.);
#1230=ORIENTED_EDGE('',*,*,#1402,.T.);
#1231=ORIENTED_EDGE('',*,*,#1403,.T.);
#1232=ORIENTED_EDGE('',*,*,#1404,.T.);
#1233=ORIENTED_EDGE('',*,*,#1405,.T.);
#1234=ORIENTED_EDGE('',*,*,#1406,.T.);
#1235=ORIENTED_EDGE('',*,*,#1407,.F.);
#1236=ORIENTED_EDGE('',*,*,#1406,.F.);
#1237=ORIENTED_EDGE('',*,*,#1408,.T.);
#1238=ORIENTED_EDGE('',*,*,#1409,.T.);
#1239=ORIENTED_EDGE('',*,*,#1410,.T.);
#1240=ORIENTED_EDGE('',*,*,#1400,.F.);
#1241=ORIENTED_EDGE('',*,*,#1411,.F.);
#1242=ORIENTED_EDGE('',*,*,#1412,.F.);
#1243=ORIENTED_EDGE('',*,*,#1413,.F.);
#1244=ORIENTED_EDGE('',*,*,#1412,.T.);
#1245=ORIENTED_EDGE('',*,*,#1414,.F.);
#1246=ORIENTED_EDGE('',*,*,#1415,.F.);
#1247=ORIENTED_EDGE('',*,*,#1416,.F.);
#1248=ORIENTED_EDGE('',*,*,#1417,.F.);
#1249=ORIENTED_EDGE('',*,*,#1418,.T.);
#1250=ORIENTED_EDGE('',*,*,#1404,.F.);
#1251=ORIENTED_EDGE('',*,*,#1408,.F.);
#1252=ORIENTED_EDGE('',*,*,#1405,.F.);
#1253=ORIENTED_EDGE('',*,*,#1418,.F.);
#1254=ORIENTED_EDGE('',*,*,#1419,.F.);
#1255=ORIENTED_EDGE('',*,*,#1420,.T.);
#1256=ORIENTED_EDGE('',*,*,#1415,.T.);
#1257=ORIENTED_EDGE('',*,*,#1421,.T.);
#1258=ORIENTED_EDGE('',*,*,#1398,.T.);
#1259=ORIENTED_EDGE('',*,*,#1422,.F.);
#1260=ORIENTED_EDGE('',*,*,#1423,.T.);
#1261=ORIENTED_EDGE('',*,*,#1401,.F.);
#1262=ORIENTED_EDGE('',*,*,#1410,.F.);
#1263=ORIENTED_EDGE('',*,*,#1424,.F.);
#1264=ORIENTED_EDGE('',*,*,#1425,.F.);
#1265=ORIENTED_EDGE('',*,*,#1402,.F.);
#1266=ORIENTED_EDGE('',*,*,#1423,.F.);
#1267=ORIENTED_EDGE('',*,*,#1416,.T.);
#1268=ORIENTED_EDGE('',*,*,#1403,.F.);
#1269=ORIENTED_EDGE('',*,*,#1425,.T.);
#1270=ORIENTED_EDGE('',*,*,#1426,.F.);
#1271=ORIENTED_EDGE('',*,*,#1417,.T.);
#1272=ORIENTED_EDGE('',*,*,#1426,.T.);
#1273=ORIENTED_EDGE('',*,*,#1424,.T.);
#1274=ORIENTED_EDGE('',*,*,#1422,.T.);
#1275=ORIENTED_EDGE('',*,*,#1409,.F.);
#1276=ORIENTED_EDGE('',*,*,#1419,.T.);
#1277=ORIENTED_EDGE('',*,*,#1411,.T.);
#1278=ORIENTED_EDGE('',*,*,#1399,.T.);
#1279=ORIENTED_EDGE('',*,*,#1421,.F.);
#1280=ORIENTED_EDGE('',*,*,#1414,.T.);
#1281=ORIENTED_EDGE('',*,*,#1407,.T.);
#1282=ORIENTED_EDGE('',*,*,#1413,.T.);
#1283=ORIENTED_EDGE('',*,*,#1420,.F.);
#1284=ORIENTED_EDGE('',*,*,#1397,.T.);
#1285=ORIENTED_EDGE('',*,*,#1427,.T.);
#1286=ORIENTED_EDGE('',*,*,#1428,.T.);
#1287=ORIENTED_EDGE('',*,*,#1429,.F.);
#1288=ORIENTED_EDGE('',*,*,#1430,.F.);
#1289=ORIENTED_EDGE('',*,*,#1431,.T.);
#1290=ORIENTED_EDGE('',*,*,#1432,.T.);
#1291=ORIENTED_EDGE('',*,*,#1433,.F.);
#1292=ORIENTED_EDGE('',*,*,#1428,.F.);
#1293=ORIENTED_EDGE('',*,*,#1434,.T.);
#1294=ORIENTED_EDGE('',*,*,#1435,.T.);
#1295=ORIENTED_EDGE('',*,*,#1436,.F.);
#1296=ORIENTED_EDGE('',*,*,#1432,.F.);
#1297=ORIENTED_EDGE('',*,*,#1437,.T.);
#1298=ORIENTED_EDGE('',*,*,#1430,.T.);
#1299=ORIENTED_EDGE('',*,*,#1438,.F.);
#1300=ORIENTED_EDGE('',*,*,#1435,.F.);
#1301=ORIENTED_EDGE('',*,*,#1429,.T.);
#1302=ORIENTED_EDGE('',*,*,#1433,.T.);
#1303=ORIENTED_EDGE('',*,*,#1436,.T.);
#1304=ORIENTED_EDGE('',*,*,#1438,.T.);
#1305=ORIENTED_EDGE('',*,*,#1439,.F.);
#1306=ORIENTED_EDGE('',*,*,#1440,.F.);
#1307=ORIENTED_EDGE('',*,*,#1441,.F.);
#1308=ORIENTED_EDGE('',*,*,#1442,.F.);
#1309=ORIENTED_EDGE('',*,*,#1427,.F.);
#1310=ORIENTED_EDGE('',*,*,#1443,.F.);
#1311=ORIENTED_EDGE('',*,*,#1439,.T.);
#1312=ORIENTED_EDGE('',*,*,#1444,.T.);
#1313=ORIENTED_EDGE('',*,*,#1431,.F.);
#1314=ORIENTED_EDGE('',*,*,#1444,.F.);
#1315=ORIENTED_EDGE('',*,*,#1442,.T.);
#1316=ORIENTED_EDGE('',*,*,#1445,.T.);
#1317=ORIENTED_EDGE('',*,*,#1434,.F.);
#1318=ORIENTED_EDGE('',*,*,#1445,.F.);
#1319=ORIENTED_EDGE('',*,*,#1441,.T.);
#1320=ORIENTED_EDGE('',*,*,#1446,.T.);
#1321=ORIENTED_EDGE('',*,*,#1437,.F.);
#1322=ORIENTED_EDGE('',*,*,#1446,.F.);
#1323=ORIENTED_EDGE('',*,*,#1440,.T.);
#1324=ORIENTED_EDGE('',*,*,#1443,.T.);
#1325=EDGE_CURVE('',#1447,#1448,#1449,.T.);
#1326=EDGE_CURVE('',#1450,#1448,#1451,.T.);
#1327=EDGE_CURVE('',#1452,#1450,#1453,.T.);
#1328=EDGE_CURVE('',#1452,#1447,#1454,.T.);
#1329=EDGE_CURVE('',#1455,#1456,#1457,.T.);
#1330=EDGE_CURVE('',#1458,#1456,#1459,.T.);
#1331=EDGE_CURVE('',#1460,#1458,#1461,.T.);
#1332=EDGE_CURVE('',#1460,#1455,#1462,.T.);
#1333=EDGE_CURVE('',#1463,#1464,#1465,.F.);
#1334=EDGE_CURVE('',#1466,#1464,#1467,.T.);
#1335=EDGE_CURVE('',#1468,#1466,#1469,.T.);
#1336=EDGE_CURVE('',#1468,#1470,#1471,.T.);
#1337=EDGE_CURVE('',#1470,#1472,#1473,.T.);
#1338=EDGE_CURVE('',#1474,#1472,#1475,.T.);
#1339=EDGE_CURVE('',#1474,#1476,#1477,.F.);
#1340=EDGE_CURVE('',#1476,#1478,#1479,.F.);
#1341=EDGE_CURVE('',#1478,#1480,#1481,.F.);
#1342=EDGE_CURVE('',#1480,#1463,#1482,.F.);
#1343=EDGE_CURVE('',#1483,#1484,#1485,.F.);
#1344=EDGE_CURVE('',#1484,#1474,#1486,.F.);
#1345=EDGE_CURVE('',#1472,#1487,#1488,.T.);
#1346=EDGE_CURVE('',#1487,#1489,#1490,.T.);
#1347=EDGE_CURVE('',#1489,#1466,#1491,.T.);
#1348=EDGE_CURVE('',#1464,#1483,#1492,.F.);
#1349=EDGE_CURVE('',#1448,#1455,#1493,.T.);
#1350=EDGE_CURVE('',#1450,#1460,#1494,.T.);
#1351=EDGE_CURVE('',#1456,#1447,#1495,.T.);
#1352=EDGE_CURVE('',#1458,#1452,#1496,.T.);
#1353=EDGE_CURVE('',#1497,#1447,#1498,.T.);
#1354=EDGE_CURVE('',#1497,#1499,#1500,.T.);
#1355=EDGE_CURVE('',#1499,#1463,#1501,.T.);
#1356=EDGE_CURVE('',#1448,#1480,#1502,.T.);
#1357=EDGE_CURVE('',#1503,#1456,#1504,.T.);
#1358=EDGE_CURVE('',#1503,#1497,#1505,.T.);
#1359=EDGE_CURVE('',#1455,#1478,#1506,.T.);
#1360=EDGE_CURVE('',#1507,#1476,#1508,.T.);
#1361=EDGE_CURVE('',#1507,#1503,#1509,.T.);
#1362=EDGE_CURVE('',#1484,#1507,#1510,.T.);
#1363=EDGE_CURVE('',#1499,#1483,#1511,.T.);
#1364=EDGE_CURVE('',#1450,#1512,#1513,.T.);
#1365=EDGE_CURVE('',#1514,#1512,#1515,.F.);
#1366=EDGE_CURVE('',#1452,#1514,#1516,.T.);
#1367=EDGE_CURVE('',#1458,#1517,#1518,.T.);
#1368=EDGE_CURVE('',#1519,#1517,#1520,.F.);
#1369=EDGE_CURVE('',#1460,#1519,#1521,.T.);
#1370=EDGE_CURVE('',#1522,#1468,#1523,.T.);
#1371=EDGE_CURVE('',#1522,#1489,#1524,.T.);
#1372=EDGE_CURVE('',#1525,#1522,#1526,.T.);
#1373=EDGE_CURVE('',#1470,#1525,#1527,.T.);
#1374=EDGE_CURVE('',#1528,#1529,#1530,.F.);
#1375=EDGE_CURVE('',#1529,#1531,#1532,.F.);
#1376=EDGE_CURVE('',#1531,#1533,#1534,.F.);
#1377=EDGE_CURVE('',#1533,#1528,#1535,.F.);
#1378=EDGE_CURVE('',#1525,#1487,#1536,.T.);
#1379=EDGE_CURVE('',#1512,#1519,#1537,.F.);
#1380=EDGE_CURVE('',#1517,#1514,#1538,.F.);
#1381=EDGE_CURVE('',#1539,#1512,#1540,.T.);
#1382=EDGE_CURVE('',#1541,#1539,#1542,.T.);
#1383=EDGE_CURVE('',#1541,#1514,#1543,.T.);
#1384=EDGE_CURVE('',#1544,#1517,#1545,.T.);
#1385=EDGE_CURVE('',#1546,#1544,#1547,.T.);
#1386=EDGE_CURVE('',#1546,#1519,#1548,.T.);
#1387=EDGE_CURVE('',#1549,#1528,#1550,.T.);
#1388=EDGE_CURVE('',#1549,#1551,#1552,.T.);
#1389=EDGE_CURVE('',#1551,#1529,#1553,.T.);
#1390=EDGE_CURVE('',#1551,#1554,#1555,.T.);
#1391=EDGE_CURVE('',#1554,#1531,#1556,.T.);
#1392=EDGE_CURVE('',#1554,#1557,#1558,.T.);
#1393=EDGE_CURVE('',#1557,#1533,#1559,.T.);
#1394=EDGE_CURVE('',#1557,#1549,#1560,.T.);
#1395=EDGE_CURVE('',#1539,#1546,#1561,.T.);
#1396=EDGE_CURVE('',#1544,#1541,#1562,.T.);
#1397=EDGE_CURVE('',#1563,#1564,#1565,.F.);
#1398=EDGE_CURVE('',#1566,#1563,#1567,.T.);
#1399=EDGE_CURVE('',#1568,#1566,#1569,.F.);
#1400=EDGE_CURVE('',#1568,#1570,#1571,.T.);
#1401=EDGE_CURVE('',#1570,#1572,#1573,.T.);
#1402=EDGE_CURVE('',#1572,#1574,#1575,.T.);
#1403=EDGE_CURVE('',#1574,#1576,#1577,.T.);
#1404=EDGE_CURVE('',#1576,#1578,#1579,.T.);
#1405=EDGE_CURVE('',#1578,#1580,#1581,.T.);
#1406=EDGE_CURVE('',#1580,#1564,#1582,.T.);
#1407=EDGE_CURVE('',#1564,#1583,#1584,.T.);
#1408=EDGE_CURVE('',#1580,#1585,#1586,.T.);
#1409=EDGE_CURVE('',#1585,#1587,#1588,.T.);
#1410=EDGE_CURVE('',#1587,#1570,#1589,.F.);
#1411=EDGE_CURVE('',#1590,#1568,#1591,.T.);
#1412=EDGE_CURVE('',#1583,#1590,#1592,.T.);
#1413=EDGE_CURVE('',#1583,#1593,#1594,.F.);
#1414=EDGE_CURVE('',#1595,#1590,#1596,.F.);
#1415=EDGE_CURVE('',#1593,#1595,#1597,.T.);
#1416=EDGE_CURVE('',#1598,#1576,#1599,.F.);
#1417=EDGE_CURVE('',#1600,#1598,#1601,.T.);
#1418=EDGE_CURVE('',#1602,#1578,#1603,.T.);
#1419=EDGE_CURVE('',#1585,#1600,#1604,.T.);
#1420=EDGE_CURVE('',#1563,#1593,#1605,.T.);
#1421=EDGE_CURVE('',#1595,#1566,#1606,.T.);
#1422=EDGE_CURVE('',#1607,#1587,#1608,.F.);
#1423=EDGE_CURVE('',#1607,#1572,#1609,.T.);
#1424=EDGE_CURVE('',#1610,#1607,#1611,.F.);
#1425=EDGE_CURVE('',#1574,#1612,#1613,.T.);
#1426=EDGE_CURVE('',#1598,#1610,#1614,.T.);
#1427=EDGE_CURVE('',#1615,#1616,#1617,.T.);
#1428=EDGE_CURVE('',#1616,#1618,#1619,.T.);
#1429=EDGE_CURVE('',#1620,#1618,#1621,.T.);
#1430=EDGE_CURVE('',#1615,#1620,#1622,.T.);
#1431=EDGE_CURVE('',#1616,#1623,#1624,.T.);
#1432=EDGE_CURVE('',#1623,#1625,#1626,.T.);
#1433=EDGE_CURVE('',#1618,#1625,#1627,.T.);
#1434=EDGE_CURVE('',#1623,#1628,#1629,.T.);
#1435=EDGE_CURVE('',#1628,#1630,#1631,.T.);
#1436=EDGE_CURVE('',#1625,#1630,#1632,.T.);
#1437=EDGE_CURVE('',#1628,#1615,#1633,.T.);
#1438=EDGE_CURVE('',#1630,#1620,#1634,.T.);
#1439=EDGE_CURVE('',#1635,#1636,#1637,.T.);
#1440=EDGE_CURVE('',#1638,#1635,#1639,.T.);
#1441=EDGE_CURVE('',#1640,#1638,#1641,.T.);
#1442=EDGE_CURVE('',#1636,#1640,#1642,.T.);
#1443=EDGE_CURVE('',#1635,#1615,#1643,.F.);
#1444=EDGE_CURVE('',#1636,#1616,#1644,.F.);
#1445=EDGE_CURVE('',#1640,#1623,#1645,.F.);
#1446=EDGE_CURVE('',#1638,#1628,#1646,.F.);
#1447=VERTEX_POINT('',#1647);
#1448=VERTEX_POINT('',#1648);
#1449=LINE('',#1649,#1650);
#1450=VERTEX_POINT('',#1652);
#1451=LINE('',#1653,#1654);
#1452=VERTEX_POINT('',#1656);
#1453=LINE('',#1657,#1658);
#1454=LINE('',#1660,#1661);
#1455=VERTEX_POINT('',#1663);
#1456=VERTEX_POINT('',#1664);
#1457=LINE('',#1665,#1666);
#1458=VERTEX_POINT('',#1668);
#1459=LINE('',#1669,#1670);
#1460=VERTEX_POINT('',#1672);
#1461=LINE('',#1673,#1674);
#1462=LINE('',#1676,#1677);
#1463=VERTEX_POINT('',#1679);
#1464=VERTEX_POINT('',#1680);
#1465=LINE('',#1681,#1682);
#1466=VERTEX_POINT('',#1684);
#1467=LINE('',#1685,#1686);
#1468=VERTEX_POINT('',#1688);
#1469=LINE('',#1689,#1690);
#1470=VERTEX_POINT('',#1692);
#1471=LINE('',#1693,#1694);
#1472=VERTEX_POINT('',#1696);
#1473=LINE('',#1697,#1698);
#1474=VERTEX_POINT('',#1700);
#1475=LINE('',#1701,#1702);
#1476=VERTEX_POINT('',#1704);
#1477=LINE('',#1705,#1706);
#1478=VERTEX_POINT('',#1708);
#1479=LINE('',#1709,#1710);
#1480=VERTEX_POINT('',#1712);
#1481=LINE('',#1713,#1714);
#1482=LINE('',#1716,#1717);
#1483=VERTEX_POINT('',#1719);
#1484=VERTEX_POINT('',#1720);
#1485=LINE('',#1721,#1722);
#1486=LINE('',#1724,#1725);
#1487=VERTEX_POINT('',#1727);
#1488=LINE('',#1728,#1729);
#1489=VERTEX_POINT('',#1731);
#1490=LINE('',#1732,#1733);
#1491=LINE('',#1735,#1736);
#1492=LINE('',#1738,#1739);
#1493=LINE('',#1741,#1742);
#1494=LINE('',#1744,#1745);
#1495=LINE('',#1747,#1748);
#1496=LINE('',#1750,#1751);
#1497=VERTEX_POINT('',#1753);
#1498=LINE('',#1754,#1755);
#1499=VERTEX_POINT('',#1757);
#1500=LINE('',#1758,#1759);
#1501=LINE('',#1761,#1762);
#1502=LINE('',#1764,#1765);
#1503=VERTEX_POINT('',#1767);
#1504=LINE('',#1768,#1769);
#1505=LINE('',#1771,#1772);
#1506=LINE('',#1774,#1775);
#1507=VERTEX_POINT('',#1777);
#1508=LINE('',#1778,#1779);
#1509=LINE('',#1781,#1782);
#1510=LINE('',#1784,#1785);
#1511=LINE('',#1787,#1788);
#1512=VERTEX_POINT('',#1790);
#1513=LINE('',#1791,#1792);
#1514=VERTEX_POINT('',#1794);
#1515=LINE('',#1795,#1796);
#1516=LINE('',#1798,#1799);
#1517=VERTEX_POINT('',#1801);
#1518=LINE('',#1802,#1803);
#1519=VERTEX_POINT('',#1805);
#1520=LINE('',#1806,#1807);
#1521=LINE('',#1809,#1810);
#1522=VERTEX_POINT('',#1812);
#1523=LINE('',#1813,#1814);
#1524=LINE('',#1816,#1817);
#1525=VERTEX_POINT('',#1819);
#1526=LINE('',#1820,#1821);
#1527=LINE('',#1823,#1824);
#1528=VERTEX_POINT('',#1826);
#1529=VERTEX_POINT('',#1827);
#1530=LINE('',#1828,#1829);
#1531=VERTEX_POINT('',#1831);
#1532=LINE('',#1832,#1833);
#1533=VERTEX_POINT('',#1835);
#1534=LINE('',#1836,#1837);
#1535=LINE('',#1839,#1840);
#1536=LINE('',#1842,#1843);
#1537=LINE('',#1845,#1846);
#1538=LINE('',#1848,#1849);
#1539=VERTEX_POINT('',#1851);
#1540=LINE('',#1852,#1853);
#1541=VERTEX_POINT('',#1855);
#1542=LINE('',#1856,#1857);
#1543=LINE('',#1859,#1860);
#1544=VERTEX_POINT('',#1862);
#1545=LINE('',#1863,#1864);
#1546=VERTEX_POINT('',#1866);
#1547=LINE('',#1867,#1868);
#1548=LINE('',#1870,#1871);
#1549=VERTEX_POINT('',#1873);
#1550=LINE('',#1874,#1875);
#1551=VERTEX_POINT('',#1877);
#1552=LINE('',#1878,#1879);
#1553=LINE('',#1881,#1882);
#1554=VERTEX_POINT('',#1884);
#1555=LINE('',#1885,#1886);
#1556=LINE('',#1888,#1889);
#1557=VERTEX_POINT('',#1891);
#1558=LINE('',#1892,#1893);
#1559=LINE('',#1895,#1896);
#1560=LINE('',#1898,#1899);
#1561=LINE('',#1901,#1902);
#1562=LINE('',#1904,#1905);
#1563=VERTEX_POINT('',#1907);
#1564=VERTEX_POINT('',#1908);
#1565=CIRCLE('',#1909,2.00000000000001);
#1566=VERTEX_POINT('',#1913);
#1567=LINE('',#1914,#1915);
#1568=VERTEX_POINT('',#1917);
#1569=CIRCLE('',#1918,2.);
#1570=VERTEX_POINT('',#1922);
#1571=LINE('',#1923,#1924);
#1572=VERTEX_POINT('',#1926);
#1573=LINE('',#1927,#1928);
#1574=VERTEX_POINT('',#1930);
#1575=LINE('',#1931,#1932);
#1576=VERTEX_POINT('',#1934);
#1577=LINE('',#1935,#1936);
#1578=VERTEX_POINT('',#1938);
#1579=LINE('',#1939,#1940);
#1580=VERTEX_POINT('',#1942);
#1581=LINE('',#1943,#1944);
#1582=LINE('',#1946,#1947);
#1583=VERTEX_POINT('',#1949);
#1584=LINE('',#1950,#1951);
#1585=VERTEX_POINT('',#1953);
#1586=LINE('',#1954,#1955);
#1587=VERTEX_POINT('',#1957);
#1588=LINE('',#1958,#1959);
#1589=LINE('',#1961,#1962);
#1590=VERTEX_POINT('',#1964);
#1591=LINE('',#1965,#1966);
#1592=LINE('',#1968,#1969);
#1593=VERTEX_POINT('',#1971);
#1594=CIRCLE('',#1972,2.);
#1595=VERTEX_POINT('',#1976);
#1596=CIRCLE('',#1977,2.);
#1597=LINE('',#1981,#1982);
#1598=VERTEX_POINT('',#1984);
#1599=LINE('',#1985,#1986);
#1600=VERTEX_POINT('',#1988);
#1601=LINE('',#1989,#1990);
#1602=VERTEX_POINT('',#1992);
#1603=LINE('',#1993,#1994);
#1604=LINE('',#1996,#1997);
#1605=LINE('',#1999,#2000);
#1606=LINE('',#2002,#2003);
#1607=VERTEX_POINT('',#2005);
#1608=LINE('',#2006,#2007);
#1609=LINE('',#2009,#2010);
#1610=VERTEX_POINT('',#2012);
#1611=LINE('',#2013,#2014);
#1612=VERTEX_POINT('',#2016);
#1613=LINE('',#2017,#2018);
#1614=LINE('',#2020,#2021);
#1615=VERTEX_POINT('',#2023);
#1616=VERTEX_POINT('',#2024);
#1617=LINE('',#2025,#2026);
#1618=VERTEX_POINT('',#2028);
#1619=LINE('',#2029,#2030);
#1620=VERTEX_POINT('',#2032);
#1621=LINE('',#2033,#2034);
#1622=LINE('',#2036,#2037);
#1623=VERTEX_POINT('',#2039);
#1624=LINE('',#2040,#2041);
#1625=VERTEX_POINT('',#2043);
#1626=LINE('',#2044,#2045);
#1627=LINE('',#2047,#2048);
#1628=VERTEX_POINT('',#2050);
#1629=LINE('',#2051,#2052);
#1630=VERTEX_POINT('',#2054);
#1631=LINE('',#2055,#2056);
#1632=LINE('',#2058,#2059);
#1633=LINE('',#2061,#2062);
#1634=LINE('',#2064,#2065);
#1635=VERTEX_POINT('',#2067);
#1636=VERTEX_POINT('',#2068);
#1637=LINE('',#2069,#2070);
#1638=VERTEX_POINT('',#2072);
#1639=LINE('',#2073,#2074);
#1640=VERTEX_POINT('',#2076);
#1641=LINE('',#2077,#2078);
#1642=LINE('',#2080,#2081);
#1643=LINE('',#2083,#2084);
#1644=LINE('',#2086,#2087);
#1645=LINE('',#2089,#2090);
#1646=LINE('',#2092,#2093);
#1647=CARTESIAN_POINT('',(28.5,14.,38.));
#1648=CARTESIAN_POINT('',(-28.5,14.,38.));
#1649=CARTESIAN_POINT('',(28.5,14.,38.));
#1650=VECTOR('',#1651,1.);
#1651=DIRECTION('',(-1.,1.2465662030879E-16,-1.2465662030879E-16));
#1652=CARTESIAN_POINT('',(-28.5,14.,12.));
#1653=CARTESIAN_POINT('',(-28.5,14.,12.));
#1654=VECTOR('',#1655,1.);
#1655=DIRECTION('',(0.,0.,1.));
#1656=CARTESIAN_POINT('',(28.5,14.,12.));
#1657=CARTESIAN_POINT('',(28.5,14.,12.));
#1658=VECTOR('',#1659,1.);
#1659=DIRECTION('',(-1.,1.2465662030879E-16,0.));
#1660=CARTESIAN_POINT('',(28.5,14.,12.));
#1661=VECTOR('',#1662,1.);
#1662=DIRECTION('',(0.,0.,1.));
#1663=CARTESIAN_POINT('',(-28.5,-14.,38.));
#1664=CARTESIAN_POINT('',(28.5,-14.,38.));
#1665=CARTESIAN_POINT('',(-28.5,-14.,38.));
#1666=VECTOR('',#1667,1.);
#1667=DIRECTION('',(1.,-1.55820775385987E-16,0.));
#1668=CARTESIAN_POINT('',(28.5,-14.,12.));
#1669=CARTESIAN_POINT('',(28.5,-14.,12.));
#1670=VECTOR('',#1671,1.);
#1671=DIRECTION('',(0.,0.,1.));
#1672=CARTESIAN_POINT('',(-28.5,-14.,12.));
#1673=CARTESIAN_POINT('',(-28.5,-14.,12.));
#1674=VECTOR('',#1675,1.);
#1675=DIRECTION('',(1.,-1.2465662030879E-16,0.));
#1676=CARTESIAN_POINT('',(-28.5,-14.,12.));
#1677=VECTOR('',#1678,1.);
#1678=DIRECTION('',(0.,0.,1.));
#1679=CARTESIAN_POINT('',(-30.5,15.,39.));
#1680=CARTESIAN_POINT('',(-30.5,14.,40.));
#1681=CARTESIAN_POINT('',(-30.5,14.,40.));
#1682=VECTOR('',#1683,1.);
#1683=DIRECTION('',(0.,0.707106781186548,-0.707106781186547));
#1684=CARTESIAN_POINT('',(-30.5,16.,40.));
#1685=CARTESIAN_POINT('',(-30.5,16.,40.));
#1686=VECTOR('',#1687,1.);
#1687=DIRECTION('',(-1.77635683940026E-15,-1.,0.));
#1688=CARTESIAN_POINT('',(-30.5,16.,10.));
#1689=CARTESIAN_POINT('',(-30.5,16.,10.));
#1690=VECTOR('',#1691,1.);
#1691=DIRECTION('',(0.,0.,1.));
#1692=CARTESIAN_POINT('',(-30.5,-16.,10.));
#1693=CARTESIAN_POINT('',(-30.5,16.,10.));
#1694=VECTOR('',#1695,1.);
#1695=DIRECTION('',(-2.22044604925031E-16,-1.,0.));
#1696=CARTESIAN_POINT('',(-30.5,-16.,40.));
#1697=CARTESIAN_POINT('',(-30.5,-16.,10.));
#1698=VECTOR('',#1699,1.);
#1699=DIRECTION('',(0.,0.,1.));
#1700=CARTESIAN_POINT('',(-30.5,-14.,40.));
#1701=CARTESIAN_POINT('',(-30.5,-14.,40.));
#1702=VECTOR('',#1703,1.);
#1703=DIRECTION('',(-1.77635683940024E-15,-1.,0.));
#1704=CARTESIAN_POINT('',(-30.5,-15.,39.));
#1705=CARTESIAN_POINT('',(-30.5,-15.,39.));
#1706=VECTOR('',#1707,1.);
#1707=DIRECTION('',(0.,0.707106781186548,0.707106781186548));
#1708=CARTESIAN_POINT('',(-30.5,-14.,38.));
#1709=CARTESIAN_POINT('',(-30.5,-14.,38.));
#1710=VECTOR('',#1711,1.);
#1711=DIRECTION('',(0.,-0.707106781186548,0.707106781186548));
#1712=CARTESIAN_POINT('',(-30.5,14.,38.));
#1713=CARTESIAN_POINT('',(-30.5,14.,38.));
#1714=VECTOR('',#1715,1.);
#1715=DIRECTION('',(-2.53765262771464E-16,-1.,-1.01506105108586E-15));
#1716=CARTESIAN_POINT('',(-30.5,15.,39.));
#1717=VECTOR('',#1718,1.);
#1718=DIRECTION('',(0.,-0.707106781186547,-0.707106781186547));
#1719=CARTESIAN_POINT('',(29.5,14.,40.));
#1720=CARTESIAN_POINT('',(29.5,-14.,40.));
#1721=CARTESIAN_POINT('',(29.5,-14.,40.));
#1722=VECTOR('',#1723,1.);
#1723=DIRECTION('',(2.53765262771464E-16,1.,0.));
#1724=CARTESIAN_POINT('',(-30.5,-14.,40.));
#1725=VECTOR('',#1726,1.);
#1726=DIRECTION('',(1.,-2.368475785867E-16,0.));
#1727=CARTESIAN_POINT('',(30.5,-16.,40.));
#1728=CARTESIAN_POINT('',(-30.5,-16.,40.));
#1729=VECTOR('',#1730,1.);
#1730=DIRECTION('',(1.,-1.16482415698377E-16,0.));
#1731=CARTESIAN_POINT('',(30.5,16.,40.));
#1732=CARTESIAN_POINT('',(30.5,-16.,40.));
#1733=VECTOR('',#1734,1.);
#1734=DIRECTION('',(2.22044604925031E-16,1.,0.));
#1735=CARTESIAN_POINT('',(30.5,16.,40.));
#1736=VECTOR('',#1737,1.);
#1737=DIRECTION('',(-1.,1.16482415698377E-16,0.));
#1738=CARTESIAN_POINT('',(29.5,14.,40.));
#1739=VECTOR('',#1740,1.);
#1740=DIRECTION('',(-1.,2.368475785867E-16,0.));
#1741=CARTESIAN_POINT('',(-28.5,14.,38.));
#1742=VECTOR('',#1743,1.);
#1743=DIRECTION('',(-2.53765262771464E-16,-1.,-1.01506105108586E-15));
#1744=CARTESIAN_POINT('',(-28.5,14.,12.));
#1745=VECTOR('',#1746,1.);
#1746=DIRECTION('',(-2.53765262771464E-16,-1.,0.));
#1747=CARTESIAN_POINT('',(28.5,-14.,38.));
#1748=VECTOR('',#1749,1.);
#1749=DIRECTION('',(2.53765262771464E-16,1.,1.01506105108586E-15));
#1750=CARTESIAN_POINT('',(28.5,-14.,12.));
#1751=VECTOR('',#1752,1.);
#1752=DIRECTION('',(2.53765262771464E-16,1.,0.));
#1753=CARTESIAN_POINT('',(29.5,14.,38.));
#1754=CARTESIAN_POINT('',(29.5,14.,38.));
#1755=VECTOR('',#1756,1.);
#1756=DIRECTION('',(-1.,0.,0.));
#1757=CARTESIAN_POINT('',(29.5,15.,39.));
#1758=CARTESIAN_POINT('',(29.5,14.,38.));
#1759=VECTOR('',#1760,1.);
#1760=DIRECTION('',(0.,0.707106781186547,0.707106781186547));
#1761=CARTESIAN_POINT('',(29.5,15.,39.));
#1762=VECTOR('',#1763,1.);
#1763=DIRECTION('',(-1.,2.368475785867E-16,0.));
#1764=CARTESIAN_POINT('',(-28.5,14.,38.));
#1765=VECTOR('',#1766,1.);
#1766=DIRECTION('',(-1.,0.,0.));
#1767=CARTESIAN_POINT('',(29.5,-14.,38.));
#1768=CARTESIAN_POINT('',(29.5,-14.,38.));
#1769=VECTOR('',#1770,1.);
#1770=DIRECTION('',(-1.,1.77635683940025E-15,0.));
#1771=CARTESIAN_POINT('',(29.5,-14.,38.));
#1772=VECTOR('',#1773,1.);
#1773=DIRECTION('',(2.53765262771464E-16,1.,1.01506105108586E-15));
#1774=CARTESIAN_POINT('',(-28.5,-14.,38.));
#1775=VECTOR('',#1776,1.);
#1776=DIRECTION('',(-1.,0.,0.));
#1777=CARTESIAN_POINT('',(29.5,-15.,39.));
#1778=CARTESIAN_POINT('',(29.5,-15.,39.));
#1779=VECTOR('',#1780,1.);
#1780=DIRECTION('',(-1.,2.368475785867E-16,0.));
#1781=CARTESIAN_POINT('',(29.5,-15.,39.));
#1782=VECTOR('',#1783,1.);
#1783=DIRECTION('',(0.,0.707106781186547,-0.707106781186548));
#1784=CARTESIAN_POINT('',(29.5,-14.,40.));
#1785=VECTOR('',#1786,1.);
#1786=DIRECTION('',(-2.51214793389401E-15,-0.707106781186547,-0.707106781186548));
#1787=CARTESIAN_POINT('',(29.5,15.,39.));
#1788=VECTOR('',#1789,1.);
#1789=DIRECTION('',(0.,-0.707106781186547,0.707106781186547));
#1790=CARTESIAN_POINT('',(-26.,11.5,9.5));
#1791=CARTESIAN_POINT('',(-28.5,14.,12.));
#1792=VECTOR('',#1793,1.);
#1793=DIRECTION('',(0.577350269189626,-0.577350269189626,-0.577350269189626));
#1794=CARTESIAN_POINT('',(26.,11.5,9.5));
#1795=CARTESIAN_POINT('',(-26.,11.5,9.5));
#1796=VECTOR('',#1797,1.);
#1797=DIRECTION('',(1.,-1.36642833800019E-16,3.41607084500048E-17));
#1798=CARTESIAN_POINT('',(28.5,14.,12.));
#1799=VECTOR('',#1800,1.);
#1800=DIRECTION('',(-0.577350269189626,-0.577350269189626,-0.577350269189626));
#1801=CARTESIAN_POINT('',(26.,-11.5,9.5));
#1802=CARTESIAN_POINT('',(28.5,-14.,12.));
#1803=VECTOR('',#1804,1.);
#1804=DIRECTION('',(-0.577350269189626,0.577350269189626,-0.577350269189626));
#1805=CARTESIAN_POINT('',(-26.,-11.5,9.5));
#1806=CARTESIAN_POINT('',(26.,-11.5,9.5));
#1807=VECTOR('',#1808,1.);
#1808=DIRECTION('',(-1.,1.36642833800019E-16,3.41607084500048E-17));
#1809=CARTESIAN_POINT('',(-28.5,-14.,12.));
#1810=VECTOR('',#1811,1.);
#1811=DIRECTION('',(0.577350269189626,0.577350269189626,-0.577350269189626));
#1812=CARTESIAN_POINT('',(30.5,16.,10.));
#1813=CARTESIAN_POINT('',(30.5,16.,10.));
#1814=VECTOR('',#1815,1.);
#1815=DIRECTION('',(-1.,1.16482415698377E-16,0.));
#1816=CARTESIAN_POINT('',(30.5,16.,10.));
#1817=VECTOR('',#1818,1.);
#1818=DIRECTION('',(0.,0.,1.));
#1819=CARTESIAN_POINT('',(30.5,-16.,10.));
#1820=CARTESIAN_POINT('',(30.5,-16.,10.));
#1821=VECTOR('',#1822,1.);
#1822=DIRECTION('',(2.22044604925031E-16,1.,0.));
#1823=CARTESIAN_POINT('',(-30.5,-16.,10.));
#1824=VECTOR('',#1825,1.);
#1825=DIRECTION('',(1.,-1.16482415698377E-16,0.));
#1826=CARTESIAN_POINT('',(-28.,13.5,10.));
#1827=CARTESIAN_POINT('',(-28.,-13.5,10.));
#1828=CARTESIAN_POINT('',(-28.,-13.5,10.));
#1829=VECTOR('',#1830,1.);
#1830=DIRECTION('',(0.,1.,0.));
#1831=CARTESIAN_POINT('',(28.,-13.5,10.));
#1832=CARTESIAN_POINT('',(28.,-13.5,10.));
#1833=VECTOR('',#1834,1.);
#1834=DIRECTION('',(-1.,1.26882631385732E-16,0.));
#1835=CARTESIAN_POINT('',(28.,13.5,10.));
#1836=CARTESIAN_POINT('',(28.,13.5,10.));
#1837=VECTOR('',#1838,1.);
#1838=DIRECTION('',(0.,-1.,0.));
#1839=CARTESIAN_POINT('',(-28.,13.5,10.));
#1840=VECTOR('',#1841,1.);
#1841=DIRECTION('',(1.,-1.26882631385732E-16,0.));
#1842=CARTESIAN_POINT('',(30.5,-16.,10.));
#1843=VECTOR('',#1844,1.);
#1844=DIRECTION('',(0.,0.,1.));
#1845=CARTESIAN_POINT('',(-26.,-11.5,9.5));
#1846=VECTOR('',#1847,1.);
#1847=DIRECTION('',(0.,1.,0.));
#1848=CARTESIAN_POINT('',(26.,11.5,9.5));
#1849=VECTOR('',#1850,1.);
#1850=DIRECTION('',(0.,-1.,0.));
#1851=CARTESIAN_POINT('',(-26.,11.5,0.));
#1852=CARTESIAN_POINT('',(-26.,11.5,0.));
#1853=VECTOR('',#1854,1.);
#1854=DIRECTION('',(0.,0.,1.));
#1855=CARTESIAN_POINT('',(26.,11.5,0.));
#1856=CARTESIAN_POINT('',(26.,11.5,0.));
#1857=VECTOR('',#1858,1.);
#1858=DIRECTION('',(-1.,1.36642833800019E-16,0.));
#1859=CARTESIAN_POINT('',(26.,11.5,0.));
#1860=VECTOR('',#1861,1.);
#1861=DIRECTION('',(0.,0.,1.));
#1862=CARTESIAN_POINT('',(26.,-11.5,0.));
#1863=CARTESIAN_POINT('',(26.,-11.5,0.));
#1864=VECTOR('',#1865,1.);
#1865=DIRECTION('',(0.,0.,1.));
#1866=CARTESIAN_POINT('',(-26.,-11.5,0.));
#1867=CARTESIAN_POINT('',(-26.,-11.5,0.));
#1868=VECTOR('',#1869,1.);
#1869=DIRECTION('',(1.,-1.36642833800019E-16,0.));
#1870=CARTESIAN_POINT('',(-26.,-11.5,0.));
#1871=VECTOR('',#1872,1.);
#1872=DIRECTION('',(0.,0.,1.));
#1873=CARTESIAN_POINT('',(-28.,13.5,0.));
#1874=CARTESIAN_POINT('',(-28.,13.5,0.));
#1875=VECTOR('',#1876,1.);
#1876=DIRECTION('',(0.,0.,1.));
#1877=CARTESIAN_POINT('',(-28.,-13.5,0.));
#1878=CARTESIAN_POINT('',(-28.,13.5,0.));
#1879=VECTOR('',#1880,1.);
#1880=DIRECTION('',(0.,-1.,0.));
#1881=CARTESIAN_POINT('',(-28.,-13.5,0.));
#1882=VECTOR('',#1883,1.);
#1883=DIRECTION('',(0.,0.,1.));
#1884=CARTESIAN_POINT('',(28.,-13.5,0.));
#1885=CARTESIAN_POINT('',(-28.,-13.5,0.));
#1886=VECTOR('',#1887,1.);
#1887=DIRECTION('',(1.,-1.26882631385732E-16,0.));
#1888=CARTESIAN_POINT('',(28.,-13.5,0.));
#1889=VECTOR('',#1890,1.);
#1890=DIRECTION('',(0.,0.,1.));
#1891=CARTESIAN_POINT('',(28.,13.5,0.));
#1892=CARTESIAN_POINT('',(28.,-13.5,0.));
#1893=VECTOR('',#1894,1.);
#1894=DIRECTION('',(0.,1.,0.));
#1895=CARTESIAN_POINT('',(28.,13.5,0.));
#1896=VECTOR('',#1897,1.);
#1897=DIRECTION('',(0.,0.,1.));
#1898=CARTESIAN_POINT('',(28.,13.5,0.));
#1899=VECTOR('',#1900,1.);
#1900=DIRECTION('',(-1.,1.26882631385732E-16,0.));
#1901=CARTESIAN_POINT('',(-26.,11.5,0.));
#1902=VECTOR('',#1903,1.);
#1903=DIRECTION('',(0.,-1.,0.));
#1904=CARTESIAN_POINT('',(26.,-11.5,0.));
#1905=VECTOR('',#1906,1.);
#1906=DIRECTION('',(0.,1.,0.));
#1907=CARTESIAN_POINT('',(-30.5,-3.,2.));
#1908=CARTESIAN_POINT('',(-30.5,-5.,1.88851296588257E-16));
#1909=AXIS2_PLACEMENT_3D('',#1910,#1911,#1912);
#1910=CARTESIAN_POINT('',(-30.5,-2.99999999999998,0.));
#1911=DIRECTION('',(-1.,0.,0.));
#1912=DIRECTION('',(0.,-1.,0.));
#1913=CARTESIAN_POINT('',(-30.5,3.,2.));
#1914=CARTESIAN_POINT('',(-30.5,3.,2.));
#1915=VECTOR('',#1916,1.);
#1916=DIRECTION('',(0.,-1.,0.));
#1917=CARTESIAN_POINT('',(-30.5,5.,-3.31933083367653E-17));
#1918=AXIS2_PLACEMENT_3D('',#1919,#1920,#1921);
#1919=CARTESIAN_POINT('',(-30.5,3.,0.));
#1920=DIRECTION('',(-1.,0.,0.));
#1921=DIRECTION('',(0.,0.,1.));
#1922=CARTESIAN_POINT('',(-30.5,13.8,-1.11022302462516E-16));
#1923=CARTESIAN_POINT('',(-30.5,5.,0.));
#1924=VECTOR('',#1925,1.);
#1925=DIRECTION('',(0.,1.,0.));
#1926=CARTESIAN_POINT('',(-30.5,14.8,-1.));
#1927=CARTESIAN_POINT('',(-30.5,13.8,-1.11022302462516E-16));
#1928=VECTOR('',#1929,1.);
#1929=DIRECTION('',(0.,0.707106781186548,-0.707106781186547));
#1930=CARTESIAN_POINT('',(-30.5,13.8,-2.));
#1931=CARTESIAN_POINT('',(-30.5,14.8,-1.));
#1932=VECTOR('',#1933,1.);
#1933=DIRECTION('',(0.,-0.707106781186547,-0.707106781186547));
#1934=CARTESIAN_POINT('',(-30.5,-13.8,-2.));
#1935=CARTESIAN_POINT('',(-30.5,13.8,-2.));
#1936=VECTOR('',#1937,1.);
#1937=DIRECTION('',(0.,-1.,0.));
#1938=CARTESIAN_POINT('',(-30.5,-14.8,-1.));
#1939=CARTESIAN_POINT('',(-30.5,-13.8,-2.));
#1940=VECTOR('',#1941,1.);
#1941=DIRECTION('',(0.,-0.707106781186547,0.707106781186548));
#1942=CARTESIAN_POINT('',(-30.5,-13.8,-6.66133814775094E-16));
#1943=CARTESIAN_POINT('',(-30.5,-14.8,-1.));
#1944=VECTOR('',#1945,1.);
#1945=DIRECTION('',(0.,0.707106781186547,0.707106781186548));
#1946=CARTESIAN_POINT('',(-30.5,-13.8,0.));
#1947=VECTOR('',#1948,1.);
#1948=DIRECTION('',(0.,1.,0.));
#1949=CARTESIAN_POINT('',(-29.5,-5.,2.29672856559835E-16));
#1950=CARTESIAN_POINT('',(-30.5,-5.,2.83276944882386E-16));
#1951=VECTOR('',#1952,1.);
#1952=DIRECTION('',(1.,-1.77635683940025E-15,0.));
#1953=CARTESIAN_POINT('',(29.,-13.8,0.));
#1954=CARTESIAN_POINT('',(-30.5,-13.8,1.11022302462516E-16));
#1955=VECTOR('',#1956,1.);
#1956=DIRECTION('',(1.,-5.97094735932857E-17,-3.73184209958036E-18));
#1957=CARTESIAN_POINT('',(29.,13.8,0.));
#1958=CARTESIAN_POINT('',(29.,-13.8,0.));
#1959=VECTOR('',#1960,1.);
#1960=DIRECTION('',(0.,1.,0.));
#1961=CARTESIAN_POINT('',(-30.5,13.8,0.));
#1962=VECTOR('',#1963,1.);
#1963=DIRECTION('',(1.,-2.98547367966429E-17,5.59776314937054E-18));
#1964=CARTESIAN_POINT('',(-29.5,5.,-1.07208176645109E-16));
#1965=CARTESIAN_POINT('',(-29.5,5.,-1.60812264967664E-16));
#1966=VECTOR('',#1967,1.);
#1967=DIRECTION('',(-1.,0.,0.));
#1968=CARTESIAN_POINT('',(-29.5,-5.,0.));
#1969=VECTOR('',#1970,1.);
#1970=DIRECTION('',(0.,1.,0.));
#1971=CARTESIAN_POINT('',(-29.5,-3.,2.));
#1972=AXIS2_PLACEMENT_3D('',#1973,#1974,#1975);
#1973=CARTESIAN_POINT('',(-29.5,-2.99999999999998,0.));
#1974=DIRECTION('',(1.,0.,0.));
#1975=DIRECTION('',(0.,-7.105427357601E-15,1.));
#1976=CARTESIAN_POINT('',(-29.5,3.,2.));
#1977=AXIS2_PLACEMENT_3D('',#1978,#1979,#1980);
#1978=CARTESIAN_POINT('',(-29.5,3.,0.));
#1979=DIRECTION('',(1.,0.,0.));
#1980=DIRECTION('',(0.,1.,0.));
#1981=CARTESIAN_POINT('',(-29.5,-3.,2.));
#1982=VECTOR('',#1983,1.);
#1983=DIRECTION('',(0.,1.,0.));
#1984=CARTESIAN_POINT('',(29.,-13.8,-2.));
#1985=CARTESIAN_POINT('',(-30.5,-13.8,-2.));
#1986=VECTOR('',#1987,1.);
#1987=DIRECTION('',(1.,-5.97094735932857E-17,7.46368419916072E-18));
#1988=CARTESIAN_POINT('',(29.,-14.8,-1.));
#1989=CARTESIAN_POINT('',(29.,-14.8,-1.));
#1990=VECTOR('',#1991,1.);
#1991=DIRECTION('',(0.,0.707106781186547,-0.707106781186548));
#1992=CARTESIAN_POINT('',(29.,-14.8,-1.));
#1993=CARTESIAN_POINT('',(29.,-14.8,-1.));
#1994=VECTOR('',#1995,1.);
#1995=DIRECTION('',(-1.,2.98547367966429E-17,0.));
#1996=CARTESIAN_POINT('',(29.,-13.8,-1.11022302462516E-15));
#1997=VECTOR('',#1998,1.);
#1998=DIRECTION('',(0.,-0.707106781186547,-0.707106781186548));
#1999=CARTESIAN_POINT('',(-30.5,-3.,2.));
#2000=VECTOR('',#2001,1.);
#2001=DIRECTION('',(1.,-1.77635683940024E-15,0.));
#2002=CARTESIAN_POINT('',(-29.5,3.,2.));
#2003=VECTOR('',#2004,1.);
#2004=DIRECTION('',(-1.,0.,0.));
#2005=CARTESIAN_POINT('',(29.,14.8,-1.));
#2006=CARTESIAN_POINT('',(29.,13.8,4.44089209850063E-16));
#2007=VECTOR('',#2008,1.);
#2008=DIRECTION('',(0.,0.707106781186547,-0.707106781186548));
#2009=CARTESIAN_POINT('',(29.,14.8,-1.));
#2010=VECTOR('',#2011,1.);
#2011=DIRECTION('',(-1.,0.,0.));
#2012=CARTESIAN_POINT('',(29.,13.8,-2.));
#2013=CARTESIAN_POINT('',(29.,14.8,-1.));
#2014=VECTOR('',#2015,1.);
#2015=DIRECTION('',(0.,-0.707106781186547,-0.707106781186548));
#2016=CARTESIAN_POINT('',(29.,13.8,-2.));
#2017=CARTESIAN_POINT('',(-30.5,13.8,-2.));
#2018=VECTOR('',#2019,1.);
#2019=DIRECTION('',(1.,-2.98547367966429E-17,-7.46368419916072E-18));
#2020=CARTESIAN_POINT('',(29.,-13.8,-2.));
#2021=VECTOR('',#2022,1.);
#2022=DIRECTION('',(0.,1.,0.));
#2023=CARTESIAN_POINT('',(-28.3,-13.8,2.5));
#2024=CARTESIAN_POINT('',(28.3,-13.8,2.5));
#2025=CARTESIAN_POINT('',(-28.3,-13.8,2.5));
#2026=VECTOR('',#2027,1.);
#2027=DIRECTION('',(1.,6.27687929116696E-17,7.8460991139587E-18));
#2028=CARTESIAN_POINT('',(28.3,-13.8,3.));
#2029=CARTESIAN_POINT('',(28.3,-13.8,2.5));
#2030=VECTOR('',#2031,1.);
#2031=DIRECTION('',(0.,0.,1.));
#2032=CARTESIAN_POINT('',(-28.3,-13.8,3.));
#2033=CARTESIAN_POINT('',(-28.3,-13.8,3.));
#2034=VECTOR('',#2035,1.);
#2035=DIRECTION('',(1.,6.27687929116696E-17,0.));
#2036=CARTESIAN_POINT('',(-28.3,-13.8,2.5));
#2037=VECTOR('',#2038,1.);
#2038=DIRECTION('',(0.,0.,1.));
#2039=CARTESIAN_POINT('',(28.3,13.8,2.5));
#2040=CARTESIAN_POINT('',(28.3,-13.8,2.5));
#2041=VECTOR('',#2042,1.);
#2042=DIRECTION('',(0.,1.,0.));
#2043=CARTESIAN_POINT('',(28.3,13.8,3.));
#2044=CARTESIAN_POINT('',(28.3,13.8,2.5));
#2045=VECTOR('',#2046,1.);
#2046=DIRECTION('',(0.,0.,1.));
#2047=CARTESIAN_POINT('',(28.3,-13.8,3.));
#2048=VECTOR('',#2049,1.);
#2049=DIRECTION('',(0.,1.,0.));
#2050=CARTESIAN_POINT('',(-28.3,13.8,2.5));
#2051=CARTESIAN_POINT('',(28.3,13.8,2.5));
#2052=VECTOR('',#2053,1.);
#2053=DIRECTION('',(-1.,-6.27687929116696E-17,7.8460991139587E-18));
#2054=CARTESIAN_POINT('',(-28.3,13.8,3.));
#2055=CARTESIAN_POINT('',(-28.3,13.8,2.5));
#2056=VECTOR('',#2057,1.);
#2057=DIRECTION('',(0.,0.,1.));
#2058=CARTESIAN_POINT('',(28.3,13.8,3.));
#2059=VECTOR('',#2060,1.);
#2060=DIRECTION('',(-1.,-6.27687929116696E-17,0.));
#2061=CARTESIAN_POINT('',(-28.3,13.8,2.5));
#2062=VECTOR('',#2063,1.);
#2063=DIRECTION('',(0.,-1.,0.));
#2064=CARTESIAN_POINT('',(-28.3,13.8,3.));
#2065=VECTOR('',#2066,1.);
#2066=DIRECTION('',(0.,-1.,0.));
#2067=CARTESIAN_POINT('',(-25.8,-11.3,1.48029736616688E-16));
#2068=CARTESIAN_POINT('',(25.8,-11.3,2.96059473233375E-16));
#2069=CARTESIAN_POINT('',(-25.8,-11.3,2.22044604925031E-16));
#2070=VECTOR('',#2071,1.);
#2071=DIRECTION('',(1.,6.88510402868314E-17,4.30319001792696E-18));
#2072=CARTESIAN_POINT('',(-25.8,11.3,2.96059473233375E-16));
#2073=CARTESIAN_POINT('',(-25.8,11.3,0.));
#2074=VECTOR('',#2075,1.);
#2075=DIRECTION('',(0.,-1.,0.));
#2076=CARTESIAN_POINT('',(25.8,11.3,1.48029736616688E-16));
#2077=CARTESIAN_POINT('',(25.8,11.3,2.22044604925031E-16));
#2078=VECTOR('',#2079,1.);
#2079=DIRECTION('',(-1.,-6.88510402868314E-17,4.30319001792696E-18));
#2080=CARTESIAN_POINT('',(25.8,-11.3,0.));
#2081=VECTOR('',#2082,1.);
#2082=DIRECTION('',(0.,1.,0.));
#2083=CARTESIAN_POINT('',(-28.3,-13.8,2.5));
#2084=VECTOR('',#2085,1.);
#2085=DIRECTION('',(0.577350269189625,0.577350269189626,-0.577350269189626));
#2086=CARTESIAN_POINT('',(28.3,-13.8,2.5));
#2087=VECTOR('',#2088,1.);
#2088=DIRECTION('',(-0.577350269189625,0.577350269189626,-0.577350269189626));
#2089=CARTESIAN_POINT('',(28.3,13.8,2.5));
#2090=VECTOR('',#2091,1.);
#2091=DIRECTION('',(-0.577350269189625,-0.577350269189626,-0.577350269189626));
#2092=CARTESIAN_POINT('',(-28.3,13.8,2.5));
#2093=VECTOR('',#2094,1.);
#2094=DIRECTION('',(0.577350269189625,-0.577350269189626,-0.577350269189626));
ENDSEC;
END-ISO-10303-21;
