ISO-10303-21;
HEADER;
FILE_DESCRIPTION(('STEP AP242'),
    '1');
FILE_NAME('qidi carbon filter poc 01 - body',
    '',
    ('UNSPECIFIED'),
    ('UNSPECIFIED'),
    'C3D Converter',
    'C3D Toolkit',
    '');
FILE_SCHEMA(('AP242_MANAGED_MODEL_BASED_3D_ENGINEERING_MIM_LF { 1 0 10303 442 1 1 4 }'));
ENDSEC;

DATA;
#1=PRODUCT_DEFINITION('','UNSPECIFIED',#28,#31);
#2=SHAPE_DEFINITION_REPRESENTATION(#26,#3);
#3=SHAPE_REPRESENTATION('NONE',(#4),#8);
#4=AXIS2_PLACEMENT_3D('',#5,#6,#7);
#5=CARTESIAN_POINT('',(0.,0.,0.));
#6=DIRECTION('',(0.,0.,1.));
#7=DIRECTION('',(1.,0.,0.));
#8=(GEOMETRIC_REPRESENTATION_CONTEXT(3)GLOBAL_UNCERTAINTY_ASSIGNED_CONTEXT((#10))
GLOBAL_UNIT_ASSIGNED_CONTEXT((#9,#11,#12))REPRESENTATION_CONTEXT('NONE','NONE'));
#9=(LENGTH_UNIT()NAMED_UNIT(*)SI_UNIT(.MILLI.,.METRE.));
#10=UNCERTAINTY_MEASURE_WITH_UNIT(LENGTH_MEASURE(1.E-5),#9,'NONE','NONE');
#11=(NAMED_UNIT(*)PLANE_ANGLE_UNIT()SI_UNIT($,.RADIAN.));
#12=(NAMED_UNIT(*)SI_UNIT($,.STERADIAN.)SOLID_ANGLE_UNIT());
#13=MANIFOLD_SOLID_BREP('',#14);
#14=CLOSED_SHELL('',(#53,#62,#71,#80,#89,#98,#107,#116,#125,#134,#143,#152,#161,
#170,#179,#188,#197,#206,#215,#224,#233,#242,#251,#260,#269,#278,#287,#296,#305,
#314));
#15=COLOUR_RGB('',0.564705882352941,0.564705882352941,0.564705882352941);
#16=FILL_AREA_STYLE_COLOUR('',#15);
#17=FILL_AREA_STYLE($,(#16));
#18=SURFACE_STYLE_FILL_AREA(#17);
#19=SURFACE_SIDE_STYLE('',(#18));
#20=SURFACE_STYLE_USAGE(.BOTH.,#19);
#21=PRESENTATION_STYLE_ASSIGNMENT((#20));
#22=MECHANICAL_DESIGN_GEOMETRIC_PRESENTATION_REPRESENTATION('NONE',(#23,#61,#70,
#79,#88,#97,#106,#115,#124,#133,#142,#151,#160,#169,#178,#187,#196,#205,#214,#223,
#232,#241,#250,#259,#268,#277,#286,#295,#304,#313,#322),#8);
#23=STYLED_ITEM('',(#21),#13);
#24=ADVANCED_BREP_SHAPE_REPRESENTATION('NONE',(#13),#8);
#25=SHAPE_REPRESENTATION_RELATIONSHIP('','',#3,#24);
#26=PRODUCT_DEFINITION_SHAPE('NONE','NONE',#1);
#27=MECHANICAL_CONTEXT('NONE',#32,'mechanical');
#28=PRODUCT_DEFINITION_FORMATION_WITH_SPECIFIED_SOURCE('ANY','UNSPECIFIED',#29,.NOT_KNOWN.);
#29=PRODUCT('','body','NONE',(#27));
#30=PRODUCT_RELATED_PRODUCT_CATEGORY('detail','',(#29));
#31=DESIGN_CONTEXT('detailed design',#32,'design');
#32=APPLICATION_CONTEXT('configuration controlled 3d designs of mechanical parts and assemblies');
#33=APPLICATION_PROTOCOL_DEFINITION('international standard','config_control_design',
1994,#32);
#34=CC_DESIGN_DATE_AND_TIME_ASSIGNMENT(#35,#39,(#1));
#35=DATE_AND_TIME(#36,#37);
#36=CALENDAR_DATE(0,1,1);
#37=LOCAL_TIME(0,0,0.,#38);
#38=COORDINATED_UNIVERSAL_TIME_OFFSET(0,0,.AHEAD.);
#39=DATE_TIME_ROLE('creation_date');
#40=CC_DESIGN_APPROVAL(#41,(#1));
#41=APPROVAL(#42,'UNSPECIFIED');
#42=APPROVAL_STATUS('not_yet_approved');
#43=APPROVAL_DATE_TIME(#44,#41);
#44=DATE_AND_TIME(#45,#46);
#45=CALENDAR_DATE(0,1,1);
#46=LOCAL_TIME(0,0,0.,#47);
#47=COORDINATED_UNIVERSAL_TIME_OFFSET(0,0,.AHEAD.);
#48=PERSON('UNSPECIFIED','savatneevvg','UNSPECIFIED',('UNSPECIFIED'),('UNSPECIFIED'),
('UNSPECIFIED'));
#49=ORGANIZATION('UNSPECIFIED','UNSPECIFIED','UNSPECIFIED');
#50=PERSON_AND_ORGANIZATION(#48,#49);
#51=PERSON_AND_ORGANIZATION_ROLE('creator');
#52=CC_DESIGN_PERSON_AND_ORGANIZATION_ASSIGNMENT(#50,#51,(#28,#1));
#53=ADVANCED_FACE('',(#323),#325,.F.);
#54=COLOUR_RGB('',0.564705882352941,0.564705882352941,0.564705882352941);
#55=FILL_AREA_STYLE_COLOUR('',#54);
#56=FILL_AREA_STYLE($,(#55));
#57=SURFACE_STYLE_FILL_AREA(#56);
#58=SURFACE_SIDE_STYLE('',(#57));
#59=SURFACE_STYLE_USAGE(.BOTH.,#58);
#60=PRESENTATION_STYLE_ASSIGNMENT((#59));
#61=STYLED_ITEM('',(#60),#53);
#62=ADVANCED_FACE('',(#330),#332,.F.);
#63=COLOUR_RGB('',0.564705882352941,0.564705882352941,0.564705882352941);
#64=FILL_AREA_STYLE_COLOUR('',#63);
#65=FILL_AREA_STYLE($,(#64));
#66=SURFACE_STYLE_FILL_AREA(#65);
#67=SURFACE_SIDE_STYLE('',(#66));
#68=SURFACE_STYLE_USAGE(.BOTH.,#67);
#69=PRESENTATION_STYLE_ASSIGNMENT((#68));
#70=STYLED_ITEM('',(#69),#62);
#71=ADVANCED_FACE('',(#337),#339,.T.);
#72=COLOUR_RGB('',0.564705882352941,0.564705882352941,0.564705882352941);
#73=FILL_AREA_STYLE_COLOUR('',#72);
#74=FILL_AREA_STYLE($,(#73));
#75=SURFACE_STYLE_FILL_AREA(#74);
#76=SURFACE_SIDE_STYLE('',(#75));
#77=SURFACE_STYLE_USAGE(.BOTH.,#76);
#78=PRESENTATION_STYLE_ASSIGNMENT((#77));
#79=STYLED_ITEM('',(#78),#71);
#80=ADVANCED_FACE('',(#344),#346,.T.);
#81=COLOUR_RGB('',0.564705882352941,0.564705882352941,0.564705882352941);
#82=FILL_AREA_STYLE_COLOUR('',#81);
#83=FILL_AREA_STYLE($,(#82));
#84=SURFACE_STYLE_FILL_AREA(#83);
#85=SURFACE_SIDE_STYLE('',(#84));
#86=SURFACE_STYLE_USAGE(.BOTH.,#85);
#87=PRESENTATION_STYLE_ASSIGNMENT((#86));
#88=STYLED_ITEM('',(#87),#80);
#89=ADVANCED_FACE('',(#351),#353,.F.);
#90=COLOUR_RGB('',0.564705882352941,0.564705882352941,0.564705882352941);
#91=FILL_AREA_STYLE_COLOUR('',#90);
#92=FILL_AREA_STYLE($,(#91));
#93=SURFACE_STYLE_FILL_AREA(#92);
#94=SURFACE_SIDE_STYLE('',(#93));
#95=SURFACE_STYLE_USAGE(.BOTH.,#94);
#96=PRESENTATION_STYLE_ASSIGNMENT((#95));
#97=STYLED_ITEM('',(#96),#89);
#98=ADVANCED_FACE('',(#358),#360,.F.);
#99=COLOUR_RGB('',0.564705882352941,0.564705882352941,0.564705882352941);
#100=FILL_AREA_STYLE_COLOUR('',#99);
#101=FILL_AREA_STYLE($,(#100));
#102=SURFACE_STYLE_FILL_AREA(#101);
#103=SURFACE_SIDE_STYLE('',(#102));
#104=SURFACE_STYLE_USAGE(.BOTH.,#103);
#105=PRESENTATION_STYLE_ASSIGNMENT((#104));
#106=STYLED_ITEM('',(#105),#98);
#107=ADVANCED_FACE('',(#365),#367,.F.);
#108=COLOUR_RGB('',0.564705882352941,0.564705882352941,0.564705882352941);
#109=FILL_AREA_STYLE_COLOUR('',#108);
#110=FILL_AREA_STYLE($,(#109));
#111=SURFACE_STYLE_FILL_AREA(#110);
#112=SURFACE_SIDE_STYLE('',(#111));
#113=SURFACE_STYLE_USAGE(.BOTH.,#112);
#114=PRESENTATION_STYLE_ASSIGNMENT((#113));
#115=STYLED_ITEM('',(#114),#107);
#116=ADVANCED_FACE('',(#372),#374,.F.);
#117=COLOUR_RGB('',0.564705882352941,0.564705882352941,0.564705882352941);
#118=FILL_AREA_STYLE_COLOUR('',#117);
#119=FILL_AREA_STYLE($,(#118));
#120=SURFACE_STYLE_FILL_AREA(#119);
#121=SURFACE_SIDE_STYLE('',(#120));
#122=SURFACE_STYLE_USAGE(.BOTH.,#121);
#123=PRESENTATION_STYLE_ASSIGNMENT((#122));
#124=STYLED_ITEM('',(#123),#116);
#125=ADVANCED_FACE('',(#379),#381,.F.);
#126=COLOUR_RGB('',0.564705882352941,0.564705882352941,0.564705882352941);
#127=FILL_AREA_STYLE_COLOUR('',#126);
#128=FILL_AREA_STYLE($,(#127));
#129=SURFACE_STYLE_FILL_AREA(#128);
#130=SURFACE_SIDE_STYLE('',(#129));
#131=SURFACE_STYLE_USAGE(.BOTH.,#130);
#132=PRESENTATION_STYLE_ASSIGNMENT((#131));
#133=STYLED_ITEM('',(#132),#125);
#134=ADVANCED_FACE('',(#386),#388,.F.);
#135=COLOUR_RGB('',0.564705882352941,0.564705882352941,0.564705882352941);
#136=FILL_AREA_STYLE_COLOUR('',#135);
#137=FILL_AREA_STYLE($,(#136));
#138=SURFACE_STYLE_FILL_AREA(#137);
#139=SURFACE_SIDE_STYLE('',(#138));
#140=SURFACE_STYLE_USAGE(.BOTH.,#139);
#141=PRESENTATION_STYLE_ASSIGNMENT((#140));
#142=STYLED_ITEM('',(#141),#134);
#143=ADVANCED_FACE('',(#393),#395,.F.);
#144=COLOUR_RGB('',0.564705882352941,0.564705882352941,0.564705882352941);
#145=FILL_AREA_STYLE_COLOUR('',#144);
#146=FILL_AREA_STYLE($,(#145));
#147=SURFACE_STYLE_FILL_AREA(#146);
#148=SURFACE_SIDE_STYLE('',(#147));
#149=SURFACE_STYLE_USAGE(.BOTH.,#148);
#150=PRESENTATION_STYLE_ASSIGNMENT((#149));
#151=STYLED_ITEM('',(#150),#143);
#152=ADVANCED_FACE('',(#400),#402,.F.);
#153=COLOUR_RGB('',0.564705882352941,0.564705882352941,0.564705882352941);
#154=FILL_AREA_STYLE_COLOUR('',#153);
#155=FILL_AREA_STYLE($,(#154));
#156=SURFACE_STYLE_FILL_AREA(#155);
#157=SURFACE_SIDE_STYLE('',(#156));
#158=SURFACE_STYLE_USAGE(.BOTH.,#157);
#159=PRESENTATION_STYLE_ASSIGNMENT((#158));
#160=STYLED_ITEM('',(#159),#152);
#161=ADVANCED_FACE('',(#407),#409,.F.);
#162=COLOUR_RGB('',0.564705882352941,0.564705882352941,0.564705882352941);
#163=FILL_AREA_STYLE_COLOUR('',#162);
#164=FILL_AREA_STYLE($,(#163));
#165=SURFACE_STYLE_FILL_AREA(#164);
#166=SURFACE_SIDE_STYLE('',(#165));
#167=SURFACE_STYLE_USAGE(.BOTH.,#166);
#168=PRESENTATION_STYLE_ASSIGNMENT((#167));
#169=STYLED_ITEM('',(#168),#161);
#170=ADVANCED_FACE('',(#414),#416,.F.);
#171=COLOUR_RGB('',0.564705882352941,0.564705882352941,0.564705882352941);
#172=FILL_AREA_STYLE_COLOUR('',#171);
#173=FILL_AREA_STYLE($,(#172));
#174=SURFACE_STYLE_FILL_AREA(#173);
#175=SURFACE_SIDE_STYLE('',(#174));
#176=SURFACE_STYLE_USAGE(.BOTH.,#175);
#177=PRESENTATION_STYLE_ASSIGNMENT((#176));
#178=STYLED_ITEM('',(#177),#170);
#179=ADVANCED_FACE('',(#421),#423,.F.);
#180=COLOUR_RGB('',0.564705882352941,0.564705882352941,0.564705882352941);
#181=FILL_AREA_STYLE_COLOUR('',#180);
#182=FILL_AREA_STYLE($,(#181));
#183=SURFACE_STYLE_FILL_AREA(#182);
#184=SURFACE_SIDE_STYLE('',(#183));
#185=SURFACE_STYLE_USAGE(.BOTH.,#184);
#186=PRESENTATION_STYLE_ASSIGNMENT((#185));
#187=STYLED_ITEM('',(#186),#179);
#188=ADVANCED_FACE('',(#428),#430,.T.);
#189=COLOUR_RGB('',0.564705882352941,0.564705882352941,0.564705882352941);
#190=FILL_AREA_STYLE_COLOUR('',#189);
#191=FILL_AREA_STYLE($,(#190));
#192=SURFACE_STYLE_FILL_AREA(#191);
#193=SURFACE_SIDE_STYLE('',(#192));
#194=SURFACE_STYLE_USAGE(.BOTH.,#193);
#195=PRESENTATION_STYLE_ASSIGNMENT((#194));
#196=STYLED_ITEM('',(#195),#188);
#197=ADVANCED_FACE('',(#435,#437),#439,.F.);
#198=COLOUR_RGB('',0.564705882352941,0.564705882352941,0.564705882352941);
#199=FILL_AREA_STYLE_COLOUR('',#198);
#200=FILL_AREA_STYLE($,(#199));
#201=SURFACE_STYLE_FILL_AREA(#200);
#202=SURFACE_SIDE_STYLE('',(#201));
#203=SURFACE_STYLE_USAGE(.BOTH.,#202);
#204=PRESENTATION_STYLE_ASSIGNMENT((#203));
#205=STYLED_ITEM('',(#204),#197);
#206=ADVANCED_FACE('',(#444),#446,.T.);
#207=COLOUR_RGB('',0.564705882352941,0.564705882352941,0.564705882352941);
#208=FILL_AREA_STYLE_COLOUR('',#207);
#209=FILL_AREA_STYLE($,(#208));
#210=SURFACE_STYLE_FILL_AREA(#209);
#211=SURFACE_SIDE_STYLE('',(#210));
#212=SURFACE_STYLE_USAGE(.BOTH.,#211);
#213=PRESENTATION_STYLE_ASSIGNMENT((#212));
#214=STYLED_ITEM('',(#213),#206);
#215=ADVANCED_FACE('',(#451),#453,.T.);
#216=COLOUR_RGB('',0.564705882352941,0.564705882352941,0.564705882352941);
#217=FILL_AREA_STYLE_COLOUR('',#216);
#218=FILL_AREA_STYLE($,(#217));
#219=SURFACE_STYLE_FILL_AREA(#218);
#220=SURFACE_SIDE_STYLE('',(#219));
#221=SURFACE_STYLE_USAGE(.BOTH.,#220);
#222=PRESENTATION_STYLE_ASSIGNMENT((#221));
#223=STYLED_ITEM('',(#222),#215);
#224=ADVANCED_FACE('',(#458),#460,.F.);
#225=COLOUR_RGB('',0.564705882352941,0.564705882352941,0.564705882352941);
#226=FILL_AREA_STYLE_COLOUR('',#225);
#227=FILL_AREA_STYLE($,(#226));
#228=SURFACE_STYLE_FILL_AREA(#227);
#229=SURFACE_SIDE_STYLE('',(#228));
#230=SURFACE_STYLE_USAGE(.BOTH.,#229);
#231=PRESENTATION_STYLE_ASSIGNMENT((#230));
#232=STYLED_ITEM('',(#231),#224);
#233=ADVANCED_FACE('',(#465),#467,.F.);
#234=COLOUR_RGB('',0.564705882352941,0.564705882352941,0.564705882352941);
#235=FILL_AREA_STYLE_COLOUR('',#234);
#236=FILL_AREA_STYLE($,(#235));
#237=SURFACE_STYLE_FILL_AREA(#236);
#238=SURFACE_SIDE_STYLE('',(#237));
#239=SURFACE_STYLE_USAGE(.BOTH.,#238);
#240=PRESENTATION_STYLE_ASSIGNMENT((#239));
#241=STYLED_ITEM('',(#240),#233);
#242=ADVANCED_FACE('',(#472),#474,.F.);
#243=COLOUR_RGB('',0.564705882352941,0.564705882352941,0.564705882352941);
#244=FILL_AREA_STYLE_COLOUR('',#243);
#245=FILL_AREA_STYLE($,(#244));
#246=SURFACE_STYLE_FILL_AREA(#245);
#247=SURFACE_SIDE_STYLE('',(#246));
#248=SURFACE_STYLE_USAGE(.BOTH.,#247);
#249=PRESENTATION_STYLE_ASSIGNMENT((#248));
#250=STYLED_ITEM('',(#249),#242);
#251=ADVANCED_FACE('',(#479),#481,.F.);
#252=COLOUR_RGB('',0.564705882352941,0.564705882352941,0.564705882352941);
#253=FILL_AREA_STYLE_COLOUR('',#252);
#254=FILL_AREA_STYLE($,(#253));
#255=SURFACE_STYLE_FILL_AREA(#254);
#256=SURFACE_SIDE_STYLE('',(#255));
#257=SURFACE_STYLE_USAGE(.BOTH.,#256);
#258=PRESENTATION_STYLE_ASSIGNMENT((#257));
#259=STYLED_ITEM('',(#258),#251);
#260=ADVANCED_FACE('',(#486),#488,.T.);
#261=COLOUR_RGB('',0.564705882352941,0.564705882352941,0.564705882352941);
#262=FILL_AREA_STYLE_COLOUR('',#261);
#263=FILL_AREA_STYLE($,(#262));
#264=SURFACE_STYLE_FILL_AREA(#263);
#265=SURFACE_SIDE_STYLE('',(#264));
#266=SURFACE_STYLE_USAGE(.BOTH.,#265);
#267=PRESENTATION_STYLE_ASSIGNMENT((#266));
#268=STYLED_ITEM('',(#267),#260);
#269=ADVANCED_FACE('',(#493),#495,.T.);
#270=COLOUR_RGB('',0.564705882352941,0.564705882352941,0.564705882352941);
#271=FILL_AREA_STYLE_COLOUR('',#270);
#272=FILL_AREA_STYLE($,(#271));
#273=SURFACE_STYLE_FILL_AREA(#272);
#274=SURFACE_SIDE_STYLE('',(#273));
#275=SURFACE_STYLE_USAGE(.BOTH.,#274);
#276=PRESENTATION_STYLE_ASSIGNMENT((#275));
#277=STYLED_ITEM('',(#276),#269);
#278=ADVANCED_FACE('',(#500),#502,.T.);
#279=COLOUR_RGB('',0.564705882352941,0.564705882352941,0.564705882352941);
#280=FILL_AREA_STYLE_COLOUR('',#279);
#281=FILL_AREA_STYLE($,(#280));
#282=SURFACE_STYLE_FILL_AREA(#281);
#283=SURFACE_SIDE_STYLE('',(#282));
#284=SURFACE_STYLE_USAGE(.BOTH.,#283);
#285=PRESENTATION_STYLE_ASSIGNMENT((#284));
#286=STYLED_ITEM('',(#285),#278);
#287=ADVANCED_FACE('',(#507),#509,.T.);
#288=COLOUR_RGB('',0.564705882352941,0.564705882352941,0.564705882352941);
#289=FILL_AREA_STYLE_COLOUR('',#288);
#290=FILL_AREA_STYLE($,(#289));
#291=SURFACE_STYLE_FILL_AREA(#290);
#292=SURFACE_SIDE_STYLE('',(#291));
#293=SURFACE_STYLE_USAGE(.BOTH.,#292);
#294=PRESENTATION_STYLE_ASSIGNMENT((#293));
#295=STYLED_ITEM('',(#294),#287);
#296=ADVANCED_FACE('',(#514),#516,.F.);
#297=COLOUR_RGB('',0.564705882352941,0.564705882352941,0.564705882352941);
#298=FILL_AREA_STYLE_COLOUR('',#297);
#299=FILL_AREA_STYLE($,(#298));
#300=SURFACE_STYLE_FILL_AREA(#299);
#301=SURFACE_SIDE_STYLE('',(#300));
#302=SURFACE_STYLE_USAGE(.BOTH.,#301);
#303=PRESENTATION_STYLE_ASSIGNMENT((#302));
#304=STYLED_ITEM('',(#303),#296);
#305=ADVANCED_FACE('',(#521),#523,.F.);
#306=COLOUR_RGB('',0.564705882352941,0.564705882352941,0.564705882352941);
#307=FILL_AREA_STYLE_COLOUR('',#306);
#308=FILL_AREA_STYLE($,(#307));
#309=SURFACE_STYLE_FILL_AREA(#308);
#310=SURFACE_SIDE_STYLE('',(#309));
#311=SURFACE_STYLE_USAGE(.BOTH.,#310);
#312=PRESENTATION_STYLE_ASSIGNMENT((#311));
#313=STYLED_ITEM('',(#312),#305);
#314=ADVANCED_FACE('',(#528,#530),#532,.F.);
#315=COLOUR_RGB('',0.564705882352941,0.564705882352941,0.564705882352941);
#316=FILL_AREA_STYLE_COLOUR('',#315);
#317=FILL_AREA_STYLE($,(#316));
#318=SURFACE_STYLE_FILL_AREA(#317);
#319=SURFACE_SIDE_STYLE('',(#318));
#320=SURFACE_STYLE_USAGE(.BOTH.,#319);
#321=PRESENTATION_STYLE_ASSIGNMENT((#320));
#322=STYLED_ITEM('',(#321),#314);
#323=FACE_BOUND('',#324,.T.);
#324=EDGE_LOOP('',(#537,#538,#539,#540));
#325=PLANE('',#326);
#326=AXIS2_PLACEMENT_3D('',#327,#328,#329);
#327=CARTESIAN_POINT('',(30.5,14.,10.));
#328=DIRECTION('',(1.16482415698377E-16,1.,0.));
#329=DIRECTION('',(-1.,1.16482415698377E-16,0.));
#330=FACE_BOUND('',#331,.T.);
#331=EDGE_LOOP('',(#541,#542,#543,#544));
#332=PLANE('',#333);
#333=AXIS2_PLACEMENT_3D('',#334,#335,#336);
#334=CARTESIAN_POINT('',(-30.5,-14.,10.));
#335=DIRECTION('',(-1.16482415698377E-16,-1.,0.));
#336=DIRECTION('',(1.,-1.16482415698377E-16,0.));
#337=FACE_BOUND('',#338,.T.);
#338=EDGE_LOOP('',(#545,#546,#547,#548,#549,#550,#551,#552,#553,#554));
#339=PLANE('',#340);
#340=AXIS2_PLACEMENT_3D('',#341,#342,#343);
#341=CARTESIAN_POINT('',(-30.5,16.,10.));
#342=DIRECTION('',(-1.,2.22044604925031E-16,0.));
#343=DIRECTION('',(-2.22044604925031E-16,-1.,0.));
#344=FACE_BOUND('',#345,.T.);
#345=EDGE_LOOP('',(#555,#556,#557,#558,#559,#560,#561,#562));
#346=PLANE('',#347);
#347=AXIS2_PLACEMENT_3D('',#348,#349,#350);
#348=CARTESIAN_POINT('',(0.,0.,40.));
#349=DIRECTION('',(0.,0.,1.));
#350=DIRECTION('',(-1.,1.22464679914735E-16,0.));
#351=FACE_BOUND('',#352,.T.);
#352=EDGE_LOOP('',(#563,#564,#565,#566));
#353=PLANE('',#354);
#354=AXIS2_PLACEMENT_3D('',#355,#356,#357);
#355=CARTESIAN_POINT('',(-28.5,16.,10.));
#356=DIRECTION('',(-1.,2.22044604925031E-16,0.));
#357=DIRECTION('',(-2.22044604925031E-16,-1.,0.));
#358=FACE_BOUND('',#359,.T.);
#359=EDGE_LOOP('',(#567,#568,#569,#570));
#360=PLANE('',#361);
#361=AXIS2_PLACEMENT_3D('',#362,#363,#364);
#362=CARTESIAN_POINT('',(28.5,-16.,10.));
#363=DIRECTION('',(1.,-2.22044604925031E-16,0.));
#364=DIRECTION('',(2.22044604925031E-16,1.,0.));
#365=FACE_BOUND('',#366,.T.);
#366=EDGE_LOOP('',(#571,#572,#573,#574,#575,#576));
#367=PLANE('',#368);
#368=AXIS2_PLACEMENT_3D('',#369,#370,#371);
#369=CARTESIAN_POINT('',(30.5,15.,39.));
#370=DIRECTION('',(1.64731012058626E-16,0.707106781186548,-0.707106781186548));
#371=DIRECTION('',(0.,-0.707106781186548,-0.707106781186548));
#372=FACE_BOUND('',#373,.T.);
#373=EDGE_LOOP('',(#577,#578,#579,#580));
#374=PLANE('',#375);
#375=AXIS2_PLACEMENT_3D('',#376,#377,#378);
#376=CARTESIAN_POINT('',(30.5,14.,38.));
#377=DIRECTION('',(2.36473526623629E-31,1.01506105108586E-15,-1.));
#378=DIRECTION('',(-2.53765262771464E-16,-1.,-1.01506105108586E-15));
#379=FACE_BOUND('',#380,.T.);
#380=EDGE_LOOP('',(#581,#582,#583,#584));
#381=PLANE('',#382);
#382=AXIS2_PLACEMENT_3D('',#383,#384,#385);
#383=CARTESIAN_POINT('',(30.5,14.,38.));
#384=DIRECTION('',(2.36473526623629E-31,1.01506105108586E-15,-1.));
#385=DIRECTION('',(-2.53765262771464E-16,-1.,-1.01506105108586E-15));
#386=FACE_BOUND('',#387,.T.);
#387=EDGE_LOOP('',(#585,#586,#587,#588,#589,#590));
#388=PLANE('',#389);
#389=AXIS2_PLACEMENT_3D('',#390,#391,#392);
#390=CARTESIAN_POINT('',(30.5,-14.,38.));
#391=DIRECTION('',(-1.64731012058626E-16,-0.707106781186548,-0.707106781186547));
#392=DIRECTION('',(0.,-0.707106781186547,0.707106781186548));
#393=FACE_BOUND('',#394,.T.);
#394=EDGE_LOOP('',(#591,#592,#593,#594));
#395=PLANE('',#396);
#396=AXIS2_PLACEMENT_3D('',#397,#398,#399);
#397=CARTESIAN_POINT('',(30.5,-15.,39.));
#398=DIRECTION('',(-1.64731012058626E-16,-0.707106781186548,0.707106781186547));
#399=DIRECTION('',(0.,0.707106781186547,0.707106781186548));
#400=FACE_BOUND('',#401,.T.);
#401=EDGE_LOOP('',(#595,#596,#597,#598));
#402=PLANE('',#403);
#403=AXIS2_PLACEMENT_3D('',#404,#405,#406);
#404=CARTESIAN_POINT('',(30.5,14.,40.));
#405=DIRECTION('',(1.64731012058626E-16,0.707106781186548,0.707106781186548));
#406=DIRECTION('',(0.,0.707106781186548,-0.707106781186548));
#407=FACE_BOUND('',#408,.T.);
#408=EDGE_LOOP('',(#599,#600,#601,#602,#603,#604));
#409=PLANE('',#410);
#410=AXIS2_PLACEMENT_3D('',#411,#412,#413);
#411=CARTESIAN_POINT('',(29.5,-16.,10.));
#412=DIRECTION('',(1.,-2.22044604925031E-16,0.));
#413=DIRECTION('',(2.22044604925031E-16,1.,0.));
#414=FACE_BOUND('',#415,.T.);
#415=EDGE_LOOP('',(#605,#606,#607,#608));
#416=PLANE('',#417);
#417=AXIS2_PLACEMENT_3D('',#418,#419,#420);
#418=CARTESIAN_POINT('',(-36.,14.,12.));
#419=DIRECTION('',(5.23364152894592E-17,0.707106781186548,-0.707106781186547));
#420=DIRECTION('',(1.,-7.40148683083438E-17,0.));
#421=FACE_BOUND('',#422,.T.);
#422=EDGE_LOOP('',(#609,#610,#611,#612));
#423=PLANE('',#424);
#424=AXIS2_PLACEMENT_3D('',#425,#426,#427);
#425=CARTESIAN_POINT('',(36.,-14.,12.));
#426=DIRECTION('',(-5.23364152894592E-17,-0.707106781186548,-0.707106781186547));
#427=DIRECTION('',(-1.,7.40148683083438E-17,0.));
#428=FACE_BOUND('',#429,.T.);
#429=EDGE_LOOP('',(#613,#614,#615,#616));
#430=PLANE('',#431);
#431=AXIS2_PLACEMENT_3D('',#432,#433,#434);
#432=CARTESIAN_POINT('',(30.5,16.,10.));
#433=DIRECTION('',(1.16482415698377E-16,1.,0.));
#434=DIRECTION('',(-1.,1.16482415698377E-16,0.));
#435=FACE_BOUND('',#436,.T.);
#436=EDGE_LOOP('',(#617,#618,#619,#620));
#437=FACE_BOUND('',#438,.T.);
#438=EDGE_LOOP('',(#621,#622,#623,#624));
#439=PLANE('',#440);
#440=AXIS2_PLACEMENT_3D('',#441,#442,#443);
#441=CARTESIAN_POINT('',(0.,0.,10.));
#442=DIRECTION('',(0.,0.,1.));
#443=DIRECTION('',(-1.,1.22464679914735E-16,0.));
#444=FACE_BOUND('',#445,.T.);
#445=EDGE_LOOP('',(#625,#626,#627,#628));
#446=PLANE('',#447);
#447=AXIS2_PLACEMENT_3D('',#448,#449,#450);
#448=CARTESIAN_POINT('',(-30.5,-16.,10.));
#449=DIRECTION('',(-1.16482415698377E-16,-1.,0.));
#450=DIRECTION('',(1.,-1.16482415698377E-16,0.));
#451=FACE_BOUND('',#452,.T.);
#452=EDGE_LOOP('',(#629,#630,#631,#632));
#453=PLANE('',#454);
#454=AXIS2_PLACEMENT_3D('',#455,#456,#457);
#455=CARTESIAN_POINT('',(30.5,-16.,10.));
#456=DIRECTION('',(1.,-2.22044604925031E-16,0.));
#457=DIRECTION('',(2.22044604925031E-16,1.,0.));
#458=FACE_BOUND('',#459,.T.);
#459=EDGE_LOOP('',(#633,#634,#635,#636));
#460=PLANE('',#461);
#461=AXIS2_PLACEMENT_3D('',#462,#463,#464);
#462=CARTESIAN_POINT('',(-28.5,-21.5,12.));
#463=DIRECTION('',(-0.707106781186547,1.1684408994856E-16,-0.707106781186548));
#464=DIRECTION('',(1.65242496688395E-16,1.,-1.29722998952264E-32));
#465=FACE_BOUND('',#466,.T.);
#466=EDGE_LOOP('',(#637,#638,#639,#640));
#467=PLANE('',#468);
#468=AXIS2_PLACEMENT_3D('',#469,#470,#471);
#469=CARTESIAN_POINT('',(28.5,21.5,12.));
#470=DIRECTION('',(0.707106781186547,-1.1684408994856E-16,-0.707106781186548));
#471=DIRECTION('',(-1.65242496688395E-16,-1.,-1.29722998952264E-32));
#472=FACE_BOUND('',#473,.T.);
#473=EDGE_LOOP('',(#641,#642,#643,#644));
#474=PLANE('',#475);
#475=AXIS2_PLACEMENT_3D('',#476,#477,#478);
#476=CARTESIAN_POINT('',(28.,11.5,0.));
#477=DIRECTION('',(1.26882631385732E-16,1.,0.));
#478=DIRECTION('',(-1.,1.26882631385732E-16,0.));
#479=FACE_BOUND('',#480,.T.);
#480=EDGE_LOOP('',(#645,#646,#647,#648));
#481=PLANE('',#482);
#482=AXIS2_PLACEMENT_3D('',#483,#484,#485);
#483=CARTESIAN_POINT('',(-28.,-11.5,0.));
#484=DIRECTION('',(-1.26882631385732E-16,-1.,0.));
#485=DIRECTION('',(1.,-1.26882631385732E-16,0.));
#486=FACE_BOUND('',#487,.T.);
#487=EDGE_LOOP('',(#649,#650,#651,#652));
#488=PLANE('',#489);
#489=AXIS2_PLACEMENT_3D('',#490,#491,#492);
#490=CARTESIAN_POINT('',(-28.,13.5,0.));
#491=DIRECTION('',(-1.,0.,0.));
#492=DIRECTION('',(0.,-1.,0.));
#493=FACE_BOUND('',#494,.T.);
#494=EDGE_LOOP('',(#653,#654,#655,#656));
#495=PLANE('',#496);
#496=AXIS2_PLACEMENT_3D('',#497,#498,#499);
#497=CARTESIAN_POINT('',(-28.,-13.5,0.));
#498=DIRECTION('',(-1.26882631385732E-16,-1.,0.));
#499=DIRECTION('',(1.,-1.26882631385732E-16,0.));
#500=FACE_BOUND('',#501,.T.);
#501=EDGE_LOOP('',(#657,#658,#659,#660));
#502=PLANE('',#503);
#503=AXIS2_PLACEMENT_3D('',#504,#505,#506);
#504=CARTESIAN_POINT('',(28.,-13.5,0.));
#505=DIRECTION('',(1.,0.,0.));
#506=DIRECTION('',(0.,1.,0.));
#507=FACE_BOUND('',#508,.T.);
#508=EDGE_LOOP('',(#661,#662,#663,#664));
#509=PLANE('',#510);
#510=AXIS2_PLACEMENT_3D('',#511,#512,#513);
#511=CARTESIAN_POINT('',(28.,13.5,0.));
#512=DIRECTION('',(1.26882631385732E-16,1.,0.));
#513=DIRECTION('',(-1.,1.26882631385732E-16,0.));
#514=FACE_BOUND('',#515,.T.);
#515=EDGE_LOOP('',(#665,#666,#667,#668));
#516=PLANE('',#517);
#517=AXIS2_PLACEMENT_3D('',#518,#519,#520);
#518=CARTESIAN_POINT('',(-26.,13.5,0.));
#519=DIRECTION('',(-1.,0.,0.));
#520=DIRECTION('',(0.,-1.,0.));
#521=FACE_BOUND('',#522,.T.);
#522=EDGE_LOOP('',(#669,#670,#671,#672));
#523=PLANE('',#524);
#524=AXIS2_PLACEMENT_3D('',#525,#526,#527);
#525=CARTESIAN_POINT('',(26.,-13.5,0.));
#526=DIRECTION('',(1.,0.,0.));
#527=DIRECTION('',(0.,1.,0.));
#528=FACE_BOUND('',#529,.T.);
#529=EDGE_LOOP('',(#673,#674,#675,#676));
#530=FACE_BOUND('',#531,.T.);
#531=EDGE_LOOP('',(#677,#678,#679,#680));
#532=PLANE('',#533);
#533=AXIS2_PLACEMENT_3D('',#534,#535,#536);
#534=CARTESIAN_POINT('',(0.,0.,0.));
#535=DIRECTION('',(0.,0.,1.));
#536=DIRECTION('',(-1.,1.22464679914735E-16,0.));
#537=ORIENTED_EDGE('',*,*,#681,.T.);
#538=ORIENTED_EDGE('',*,*,#682,.F.);
#539=ORIENTED_EDGE('',*,*,#683,.F.);
#540=ORIENTED_EDGE('',*,*,#684,.T.);
#541=ORIENTED_EDGE('',*,*,#685,.T.);
#542=ORIENTED_EDGE('',*,*,#686,.F.);
#543=ORIENTED_EDGE('',*,*,#687,.F.);
#544=ORIENTED_EDGE('',*,*,#688,.T.);
#545=ORIENTED_EDGE('',*,*,#689,.T.);
#546=ORIENTED_EDGE('',*,*,#690,.F.);
#547=ORIENTED_EDGE('',*,*,#691,.F.);
#548=ORIENTED_EDGE('',*,*,#692,.T.);
#549=ORIENTED_EDGE('',*,*,#693,.T.);
#550=ORIENTED_EDGE('',*,*,#694,.F.);
#551=ORIENTED_EDGE('',*,*,#695,.T.);
#552=ORIENTED_EDGE('',*,*,#696,.T.);
#553=ORIENTED_EDGE('',*,*,#697,.T.);
#554=ORIENTED_EDGE('',*,*,#698,.T.);
#555=ORIENTED_EDGE('',*,*,#699,.T.);
#556=ORIENTED_EDGE('',*,*,#700,.T.);
#557=ORIENTED_EDGE('',*,*,#694,.T.);
#558=ORIENTED_EDGE('',*,*,#701,.T.);
#559=ORIENTED_EDGE('',*,*,#702,.T.);
#560=ORIENTED_EDGE('',*,*,#703,.T.);
#561=ORIENTED_EDGE('',*,*,#690,.T.);
#562=ORIENTED_EDGE('',*,*,#704,.T.);
#563=ORIENTED_EDGE('',*,*,#705,.T.);
#564=ORIENTED_EDGE('',*,*,#688,.F.);
#565=ORIENTED_EDGE('',*,*,#706,.F.);
#566=ORIENTED_EDGE('',*,*,#682,.T.);
#567=ORIENTED_EDGE('',*,*,#707,.T.);
#568=ORIENTED_EDGE('',*,*,#684,.F.);
#569=ORIENTED_EDGE('',*,*,#708,.F.);
#570=ORIENTED_EDGE('',*,*,#686,.T.);
#571=ORIENTED_EDGE('',*,*,#681,.F.);
#572=ORIENTED_EDGE('',*,*,#709,.F.);
#573=ORIENTED_EDGE('',*,*,#710,.T.);
#574=ORIENTED_EDGE('',*,*,#711,.T.);
#575=ORIENTED_EDGE('',*,*,#698,.F.);
#576=ORIENTED_EDGE('',*,*,#712,.F.);
#577=ORIENTED_EDGE('',*,*,#707,.F.);
#578=ORIENTED_EDGE('',*,*,#713,.F.);
#579=ORIENTED_EDGE('',*,*,#714,.T.);
#580=ORIENTED_EDGE('',*,*,#709,.T.);
#581=ORIENTED_EDGE('',*,*,#705,.F.);
#582=ORIENTED_EDGE('',*,*,#712,.T.);
#583=ORIENTED_EDGE('',*,*,#697,.F.);
#584=ORIENTED_EDGE('',*,*,#715,.F.);
#585=ORIENTED_EDGE('',*,*,#685,.F.);
#586=ORIENTED_EDGE('',*,*,#715,.T.);
#587=ORIENTED_EDGE('',*,*,#696,.F.);
#588=ORIENTED_EDGE('',*,*,#716,.F.);
#589=ORIENTED_EDGE('',*,*,#717,.T.);
#590=ORIENTED_EDGE('',*,*,#713,.T.);
#591=ORIENTED_EDGE('',*,*,#700,.F.);
#592=ORIENTED_EDGE('',*,*,#718,.T.);
#593=ORIENTED_EDGE('',*,*,#716,.T.);
#594=ORIENTED_EDGE('',*,*,#695,.F.);
#595=ORIENTED_EDGE('',*,*,#704,.F.);
#596=ORIENTED_EDGE('',*,*,#689,.F.);
#597=ORIENTED_EDGE('',*,*,#711,.F.);
#598=ORIENTED_EDGE('',*,*,#719,.T.);
#599=ORIENTED_EDGE('',*,*,#699,.F.);
#600=ORIENTED_EDGE('',*,*,#719,.F.);
#601=ORIENTED_EDGE('',*,*,#710,.F.);
#602=ORIENTED_EDGE('',*,*,#714,.F.);
#603=ORIENTED_EDGE('',*,*,#717,.F.);
#604=ORIENTED_EDGE('',*,*,#718,.F.);
#605=ORIENTED_EDGE('',*,*,#683,.T.);
#606=ORIENTED_EDGE('',*,*,#720,.T.);
#607=ORIENTED_EDGE('',*,*,#721,.F.);
#608=ORIENTED_EDGE('',*,*,#722,.F.);
#609=ORIENTED_EDGE('',*,*,#687,.T.);
#610=ORIENTED_EDGE('',*,*,#723,.T.);
#611=ORIENTED_EDGE('',*,*,#724,.F.);
#612=ORIENTED_EDGE('',*,*,#725,.F.);
#613=ORIENTED_EDGE('',*,*,#726,.T.);
#614=ORIENTED_EDGE('',*,*,#691,.T.);
#615=ORIENTED_EDGE('',*,*,#703,.F.);
#616=ORIENTED_EDGE('',*,*,#727,.F.);
#617=ORIENTED_EDGE('',*,*,#726,.F.);
#618=ORIENTED_EDGE('',*,*,#728,.F.);
#619=ORIENTED_EDGE('',*,*,#729,.F.);
#620=ORIENTED_EDGE('',*,*,#692,.F.);
#621=ORIENTED_EDGE('',*,*,#730,.T.);
#622=ORIENTED_EDGE('',*,*,#731,.T.);
#623=ORIENTED_EDGE('',*,*,#732,.T.);
#624=ORIENTED_EDGE('',*,*,#733,.T.);
#625=ORIENTED_EDGE('',*,*,#729,.T.);
#626=ORIENTED_EDGE('',*,*,#734,.T.);
#627=ORIENTED_EDGE('',*,*,#701,.F.);
#628=ORIENTED_EDGE('',*,*,#693,.F.);
#629=ORIENTED_EDGE('',*,*,#728,.T.);
#630=ORIENTED_EDGE('',*,*,#727,.T.);
#631=ORIENTED_EDGE('',*,*,#702,.F.);
#632=ORIENTED_EDGE('',*,*,#734,.F.);
#633=ORIENTED_EDGE('',*,*,#706,.T.);
#634=ORIENTED_EDGE('',*,*,#725,.T.);
#635=ORIENTED_EDGE('',*,*,#735,.F.);
#636=ORIENTED_EDGE('',*,*,#720,.F.);
#637=ORIENTED_EDGE('',*,*,#708,.T.);
#638=ORIENTED_EDGE('',*,*,#722,.T.);
#639=ORIENTED_EDGE('',*,*,#736,.F.);
#640=ORIENTED_EDGE('',*,*,#723,.F.);
#641=ORIENTED_EDGE('',*,*,#721,.T.);
#642=ORIENTED_EDGE('',*,*,#737,.F.);
#643=ORIENTED_EDGE('',*,*,#738,.F.);
#644=ORIENTED_EDGE('',*,*,#739,.T.);
#645=ORIENTED_EDGE('',*,*,#724,.T.);
#646=ORIENTED_EDGE('',*,*,#740,.F.);
#647=ORIENTED_EDGE('',*,*,#741,.F.);
#648=ORIENTED_EDGE('',*,*,#742,.T.);
#649=ORIENTED_EDGE('',*,*,#730,.F.);
#650=ORIENTED_EDGE('',*,*,#743,.F.);
#651=ORIENTED_EDGE('',*,*,#744,.T.);
#652=ORIENTED_EDGE('',*,*,#745,.T.);
#653=ORIENTED_EDGE('',*,*,#731,.F.);
#654=ORIENTED_EDGE('',*,*,#745,.F.);
#655=ORIENTED_EDGE('',*,*,#746,.T.);
#656=ORIENTED_EDGE('',*,*,#747,.T.);
#657=ORIENTED_EDGE('',*,*,#732,.F.);
#658=ORIENTED_EDGE('',*,*,#747,.F.);
#659=ORIENTED_EDGE('',*,*,#748,.T.);
#660=ORIENTED_EDGE('',*,*,#749,.T.);
#661=ORIENTED_EDGE('',*,*,#733,.F.);
#662=ORIENTED_EDGE('',*,*,#749,.F.);
#663=ORIENTED_EDGE('',*,*,#750,.T.);
#664=ORIENTED_EDGE('',*,*,#743,.T.);
#665=ORIENTED_EDGE('',*,*,#735,.T.);
#666=ORIENTED_EDGE('',*,*,#742,.F.);
#667=ORIENTED_EDGE('',*,*,#751,.F.);
#668=ORIENTED_EDGE('',*,*,#737,.T.);
#669=ORIENTED_EDGE('',*,*,#736,.T.);
#670=ORIENTED_EDGE('',*,*,#739,.F.);
#671=ORIENTED_EDGE('',*,*,#752,.F.);
#672=ORIENTED_EDGE('',*,*,#740,.T.);
#673=ORIENTED_EDGE('',*,*,#750,.F.);
#674=ORIENTED_EDGE('',*,*,#748,.F.);
#675=ORIENTED_EDGE('',*,*,#746,.F.);
#676=ORIENTED_EDGE('',*,*,#744,.F.);
#677=ORIENTED_EDGE('',*,*,#738,.T.);
#678=ORIENTED_EDGE('',*,*,#751,.T.);
#679=ORIENTED_EDGE('',*,*,#741,.T.);
#680=ORIENTED_EDGE('',*,*,#752,.T.);
#681=EDGE_CURVE('',#753,#754,#755,.T.);
#682=EDGE_CURVE('',#756,#754,#757,.T.);
#683=EDGE_CURVE('',#758,#756,#759,.T.);
#684=EDGE_CURVE('',#758,#753,#760,.T.);
#685=EDGE_CURVE('',#761,#762,#763,.T.);
#686=EDGE_CURVE('',#764,#762,#765,.T.);
#687=EDGE_CURVE('',#766,#764,#767,.T.);
#688=EDGE_CURVE('',#766,#761,#768,.T.);
#689=EDGE_CURVE('',#769,#770,#771,.F.);
#690=EDGE_CURVE('',#772,#770,#773,.T.);
#691=EDGE_CURVE('',#774,#772,#775,.T.);
#692=EDGE_CURVE('',#774,#776,#777,.T.);
#693=EDGE_CURVE('',#776,#778,#779,.T.);
#694=EDGE_CURVE('',#780,#778,#781,.T.);
#695=EDGE_CURVE('',#780,#782,#783,.F.);
#696=EDGE_CURVE('',#782,#784,#785,.F.);
#697=EDGE_CURVE('',#784,#786,#787,.F.);
#698=EDGE_CURVE('',#786,#769,#788,.F.);
#699=EDGE_CURVE('',#789,#790,#791,.F.);
#700=EDGE_CURVE('',#790,#780,#792,.F.);
#701=EDGE_CURVE('',#778,#793,#794,.T.);
#702=EDGE_CURVE('',#793,#795,#796,.T.);
#703=EDGE_CURVE('',#795,#772,#797,.T.);
#704=EDGE_CURVE('',#770,#789,#798,.F.);
#705=EDGE_CURVE('',#754,#761,#799,.T.);
#706=EDGE_CURVE('',#756,#766,#800,.T.);
#707=EDGE_CURVE('',#762,#753,#801,.T.);
#708=EDGE_CURVE('',#764,#758,#802,.T.);
#709=EDGE_CURVE('',#803,#753,#804,.T.);
#710=EDGE_CURVE('',#803,#805,#806,.T.);
#711=EDGE_CURVE('',#805,#769,#807,.T.);
#712=EDGE_CURVE('',#754,#786,#808,.T.);
#713=EDGE_CURVE('',#809,#762,#810,.T.);
#714=EDGE_CURVE('',#809,#803,#811,.T.);
#715=EDGE_CURVE('',#761,#784,#812,.T.);
#716=EDGE_CURVE('',#813,#782,#814,.T.);
#717=EDGE_CURVE('',#813,#809,#815,.T.);
#718=EDGE_CURVE('',#790,#813,#816,.T.);
#719=EDGE_CURVE('',#805,#789,#817,.T.);
#720=EDGE_CURVE('',#756,#818,#819,.T.);
#721=EDGE_CURVE('',#820,#818,#821,.F.);
#722=EDGE_CURVE('',#758,#820,#822,.T.);
#723=EDGE_CURVE('',#764,#823,#824,.T.);
#724=EDGE_CURVE('',#825,#823,#826,.F.);
#725=EDGE_CURVE('',#766,#825,#827,.T.);
#726=EDGE_CURVE('',#828,#774,#829,.T.);
#727=EDGE_CURVE('',#828,#795,#830,.T.);
#728=EDGE_CURVE('',#831,#828,#832,.T.);
#729=EDGE_CURVE('',#776,#831,#833,.T.);
#730=EDGE_CURVE('',#834,#835,#836,.F.);
#731=EDGE_CURVE('',#835,#837,#838,.F.);
#732=EDGE_CURVE('',#837,#839,#840,.F.);
#733=EDGE_CURVE('',#839,#834,#841,.F.);
#734=EDGE_CURVE('',#831,#793,#842,.T.);
#735=EDGE_CURVE('',#818,#825,#843,.F.);
#736=EDGE_CURVE('',#823,#820,#844,.F.);
#737=EDGE_CURVE('',#845,#818,#846,.T.);
#738=EDGE_CURVE('',#847,#845,#848,.T.);
#739=EDGE_CURVE('',#847,#820,#849,.T.);
#740=EDGE_CURVE('',#850,#823,#851,.T.);
#741=EDGE_CURVE('',#852,#850,#853,.T.);
#742=EDGE_CURVE('',#852,#825,#854,.T.);
#743=EDGE_CURVE('',#855,#834,#856,.T.);
#744=EDGE_CURVE('',#855,#857,#858,.T.);
#745=EDGE_CURVE('',#857,#835,#859,.T.);
#746=EDGE_CURVE('',#857,#860,#861,.T.);
#747=EDGE_CURVE('',#860,#837,#862,.T.);
#748=EDGE_CURVE('',#860,#863,#864,.T.);
#749=EDGE_CURVE('',#863,#839,#865,.T.);
#750=EDGE_CURVE('',#863,#855,#866,.T.);
#751=EDGE_CURVE('',#845,#852,#867,.T.);
#752=EDGE_CURVE('',#850,#847,#868,.T.);
#753=VERTEX_POINT('',#869);
#754=VERTEX_POINT('',#870);
#755=LINE('',#871,#872);
#756=VERTEX_POINT('',#874);
#757=LINE('',#875,#876);
#758=VERTEX_POINT('',#878);
#759=LINE('',#879,#880);
#760=LINE('',#882,#883);
#761=VERTEX_POINT('',#885);
#762=VERTEX_POINT('',#886);
#763=LINE('',#887,#888);
#764=VERTEX_POINT('',#890);
#765=LINE('',#891,#892);
#766=VERTEX_POINT('',#894);
#767=LINE('',#895,#896);
#768=LINE('',#898,#899);
#769=VERTEX_POINT('',#901);
#770=VERTEX_POINT('',#902);
#771=LINE('',#903,#904);
#772=VERTEX_POINT('',#906);
#773=LINE('',#907,#908);
#774=VERTEX_POINT('',#910);
#775=LINE('',#911,#912);
#776=VERTEX_POINT('',#914);
#777=LINE('',#915,#916);
#778=VERTEX_POINT('',#918);
#779=LINE('',#919,#920);
#780=VERTEX_POINT('',#922);
#781=LINE('',#923,#924);
#782=VERTEX_POINT('',#926);
#783=LINE('',#927,#928);
#784=VERTEX_POINT('',#930);
#785=LINE('',#931,#932);
#786=VERTEX_POINT('',#934);
#787=LINE('',#935,#936);
#788=LINE('',#938,#939);
#789=VERTEX_POINT('',#941);
#790=VERTEX_POINT('',#942);
#791=LINE('',#943,#944);
#792=LINE('',#946,#947);
#793=VERTEX_POINT('',#949);
#794=LINE('',#950,#951);
#795=VERTEX_POINT('',#953);
#796=LINE('',#954,#955);
#797=LINE('',#957,#958);
#798=LINE('',#960,#961);
#799=LINE('',#963,#964);
#800=LINE('',#966,#967);
#801=LINE('',#969,#970);
#802=LINE('',#972,#973);
#803=VERTEX_POINT('',#975);
#804=LINE('',#976,#977);
#805=VERTEX_POINT('',#979);
#806=LINE('',#980,#981);
#807=LINE('',#983,#984);
#808=LINE('',#986,#987);
#809=VERTEX_POINT('',#989);
#810=LINE('',#990,#991);
#811=LINE('',#993,#994);
#812=LINE('',#996,#997);
#813=VERTEX_POINT('',#999);
#814=LINE('',#1000,#1001);
#815=LINE('',#1003,#1004);
#816=LINE('',#1006,#1007);
#817=LINE('',#1009,#1010);
#818=VERTEX_POINT('',#1012);
#819=LINE('',#1013,#1014);
#820=VERTEX_POINT('',#1016);
#821=LINE('',#1017,#1018);
#822=LINE('',#1020,#1021);
#823=VERTEX_POINT('',#1023);
#824=LINE('',#1024,#1025);
#825=VERTEX_POINT('',#1027);
#826=LINE('',#1028,#1029);
#827=LINE('',#1031,#1032);
#828=VERTEX_POINT('',#1034);
#829=LINE('',#1035,#1036);
#830=LINE('',#1038,#1039);
#831=VERTEX_POINT('',#1041);
#832=LINE('',#1042,#1043);
#833=LINE('',#1045,#1046);
#834=VERTEX_POINT('',#1048);
#835=VERTEX_POINT('',#1049);
#836=LINE('',#1050,#1051);
#837=VERTEX_POINT('',#1053);
#838=LINE('',#1054,#1055);
#839=VERTEX_POINT('',#1057);
#840=LINE('',#1058,#1059);
#841=LINE('',#1061,#1062);
#842=LINE('',#1064,#1065);
#843=LINE('',#1067,#1068);
#844=LINE('',#1070,#1071);
#845=VERTEX_POINT('',#1073);
#846=LINE('',#1074,#1075);
#847=VERTEX_POINT('',#1077);
#848=LINE('',#1078,#1079);
#849=LINE('',#1081,#1082);
#850=VERTEX_POINT('',#1084);
#851=LINE('',#1085,#1086);
#852=VERTEX_POINT('',#1088);
#853=LINE('',#1089,#1090);
#854=LINE('',#1092,#1093);
#855=VERTEX_POINT('',#1095);
#856=LINE('',#1096,#1097);
#857=VERTEX_POINT('',#1099);
#858=LINE('',#1100,#1101);
#859=LINE('',#1103,#1104);
#860=VERTEX_POINT('',#1106);
#861=LINE('',#1107,#1108);
#862=LINE('',#1110,#1111);
#863=VERTEX_POINT('',#1113);
#864=LINE('',#1114,#1115);
#865=LINE('',#1117,#1118);
#866=LINE('',#1120,#1121);
#867=LINE('',#1123,#1124);
#868=LINE('',#1126,#1127);
#869=CARTESIAN_POINT('',(28.5,14.,38.));
#870=CARTESIAN_POINT('',(-28.5,14.,38.));
#871=CARTESIAN_POINT('',(28.5,14.,38.));
#872=VECTOR('',#873,1.);
#873=DIRECTION('',(-1.,1.2465662030879E-16,-1.2465662030879E-16));
#874=CARTESIAN_POINT('',(-28.5,14.,12.));
#875=CARTESIAN_POINT('',(-28.5,14.,12.));
#876=VECTOR('',#877,1.);
#877=DIRECTION('',(0.,0.,1.));
#878=CARTESIAN_POINT('',(28.5,14.,12.));
#879=CARTESIAN_POINT('',(28.5,14.,12.));
#880=VECTOR('',#881,1.);
#881=DIRECTION('',(-1.,1.2465662030879E-16,0.));
#882=CARTESIAN_POINT('',(28.5,14.,12.));
#883=VECTOR('',#884,1.);
#884=DIRECTION('',(0.,0.,1.));
#885=CARTESIAN_POINT('',(-28.5,-14.,38.));
#886=CARTESIAN_POINT('',(28.5,-14.,38.));
#887=CARTESIAN_POINT('',(-28.5,-14.,38.));
#888=VECTOR('',#889,1.);
#889=DIRECTION('',(1.,-1.55820775385987E-16,0.));
#890=CARTESIAN_POINT('',(28.5,-14.,12.));
#891=CARTESIAN_POINT('',(28.5,-14.,12.));
#892=VECTOR('',#893,1.);
#893=DIRECTION('',(0.,0.,1.));
#894=CARTESIAN_POINT('',(-28.5,-14.,12.));
#895=CARTESIAN_POINT('',(-28.5,-14.,12.));
#896=VECTOR('',#897,1.);
#897=DIRECTION('',(1.,-1.2465662030879E-16,0.));
#898=CARTESIAN_POINT('',(-28.5,-14.,12.));
#899=VECTOR('',#900,1.);
#900=DIRECTION('',(0.,0.,1.));
#901=CARTESIAN_POINT('',(-30.5,15.,39.));
#902=CARTESIAN_POINT('',(-30.5,14.,40.));
#903=CARTESIAN_POINT('',(-30.5,14.,40.));
#904=VECTOR('',#905,1.);
#905=DIRECTION('',(0.,0.707106781186548,-0.707106781186547));
#906=CARTESIAN_POINT('',(-30.5,16.,40.));
#907=CARTESIAN_POINT('',(-30.5,16.,40.));
#908=VECTOR('',#909,1.);
#909=DIRECTION('',(-1.77635683940026E-15,-1.,0.));
#910=CARTESIAN_POINT('',(-30.5,16.,10.));
#911=CARTESIAN_POINT('',(-30.5,16.,10.));
#912=VECTOR('',#913,1.);
#913=DIRECTION('',(0.,0.,1.));
#914=CARTESIAN_POINT('',(-30.5,-16.,10.));
#915=CARTESIAN_POINT('',(-30.5,16.,10.));
#916=VECTOR('',#917,1.);
#917=DIRECTION('',(-2.22044604925031E-16,-1.,0.));
#918=CARTESIAN_POINT('',(-30.5,-16.,40.));
#919=CARTESIAN_POINT('',(-30.5,-16.,10.));
#920=VECTOR('',#921,1.);
#921=DIRECTION('',(0.,0.,1.));
#922=CARTESIAN_POINT('',(-30.5,-14.,40.));
#923=CARTESIAN_POINT('',(-30.5,-14.,40.));
#924=VECTOR('',#925,1.);
#925=DIRECTION('',(-1.77635683940024E-15,-1.,0.));
#926=CARTESIAN_POINT('',(-30.5,-15.,39.));
#927=CARTESIAN_POINT('',(-30.5,-15.,39.));
#928=VECTOR('',#929,1.);
#929=DIRECTION('',(0.,0.707106781186548,0.707106781186548));
#930=CARTESIAN_POINT('',(-30.5,-14.,38.));
#931=CARTESIAN_POINT('',(-30.5,-14.,38.));
#932=VECTOR('',#933,1.);
#933=DIRECTION('',(0.,-0.707106781186548,0.707106781186548));
#934=CARTESIAN_POINT('',(-30.5,14.,38.));
#935=CARTESIAN_POINT('',(-30.5,14.,38.));
#936=VECTOR('',#937,1.);
#937=DIRECTION('',(-2.53765262771464E-16,-1.,-1.01506105108586E-15));
#938=CARTESIAN_POINT('',(-30.5,15.,39.));
#939=VECTOR('',#940,1.);
#940=DIRECTION('',(0.,-0.707106781186547,-0.707106781186547));
#941=CARTESIAN_POINT('',(29.5,14.,40.));
#942=CARTESIAN_POINT('',(29.5,-14.,40.));
#943=CARTESIAN_POINT('',(29.5,-14.,40.));
#944=VECTOR('',#945,1.);
#945=DIRECTION('',(2.53765262771464E-16,1.,0.));
#946=CARTESIAN_POINT('',(-30.5,-14.,40.));
#947=VECTOR('',#948,1.);
#948=DIRECTION('',(1.,-2.368475785867E-16,0.));
#949=CARTESIAN_POINT('',(30.5,-16.,40.));
#950=CARTESIAN_POINT('',(-30.5,-16.,40.));
#951=VECTOR('',#952,1.);
#952=DIRECTION('',(1.,-1.16482415698377E-16,0.));
#953=CARTESIAN_POINT('',(30.5,16.,40.));
#954=CARTESIAN_POINT('',(30.5,-16.,40.));
#955=VECTOR('',#956,1.);
#956=DIRECTION('',(2.22044604925031E-16,1.,0.));
#957=CARTESIAN_POINT('',(30.5,16.,40.));
#958=VECTOR('',#959,1.);
#959=DIRECTION('',(-1.,1.16482415698377E-16,0.));
#960=CARTESIAN_POINT('',(29.5,14.,40.));
#961=VECTOR('',#962,1.);
#962=DIRECTION('',(-1.,2.368475785867E-16,0.));
#963=CARTESIAN_POINT('',(-28.5,14.,38.));
#964=VECTOR('',#965,1.);
#965=DIRECTION('',(-2.53765262771464E-16,-1.,-1.01506105108586E-15));
#966=CARTESIAN_POINT('',(-28.5,14.,12.));
#967=VECTOR('',#968,1.);
#968=DIRECTION('',(-2.53765262771464E-16,-1.,0.));
#969=CARTESIAN_POINT('',(28.5,-14.,38.));
#970=VECTOR('',#971,1.);
#971=DIRECTION('',(2.53765262771464E-16,1.,1.01506105108586E-15));
#972=CARTESIAN_POINT('',(28.5,-14.,12.));
#973=VECTOR('',#974,1.);
#974=DIRECTION('',(2.53765262771464E-16,1.,0.));
#975=CARTESIAN_POINT('',(29.5,14.,38.));
#976=CARTESIAN_POINT('',(29.5,14.,38.));
#977=VECTOR('',#978,1.);
#978=DIRECTION('',(-1.,0.,0.));
#979=CARTESIAN_POINT('',(29.5,15.,39.));
#980=CARTESIAN_POINT('',(29.5,14.,38.));
#981=VECTOR('',#982,1.);
#982=DIRECTION('',(0.,0.707106781186547,0.707106781186547));
#983=CARTESIAN_POINT('',(29.5,15.,39.));
#984=VECTOR('',#985,1.);
#985=DIRECTION('',(-1.,2.368475785867E-16,0.));
#986=CARTESIAN_POINT('',(-28.5,14.,38.));
#987=VECTOR('',#988,1.);
#988=DIRECTION('',(-1.,0.,0.));
#989=CARTESIAN_POINT('',(29.5,-14.,38.));
#990=CARTESIAN_POINT('',(29.5,-14.,38.));
#991=VECTOR('',#992,1.);
#992=DIRECTION('',(-1.,1.77635683940025E-15,0.));
#993=CARTESIAN_POINT('',(29.5,-14.,38.));
#994=VECTOR('',#995,1.);
#995=DIRECTION('',(2.53765262771464E-16,1.,1.01506105108586E-15));
#996=CARTESIAN_POINT('',(-28.5,-14.,38.));
#997=VECTOR('',#998,1.);
#998=DIRECTION('',(-1.,0.,0.));
#999=CARTESIAN_POINT('',(29.5,-15.,39.));
#1000=CARTESIAN_POINT('',(29.5,-15.,39.));
#1001=VECTOR('',#1002,1.);
#1002=DIRECTION('',(-1.,2.368475785867E-16,0.));
#1003=CARTESIAN_POINT('',(29.5,-15.,39.));
#1004=VECTOR('',#1005,1.);
#1005=DIRECTION('',(0.,0.707106781186547,-0.707106781186548));
#1006=CARTESIAN_POINT('',(29.5,-14.,40.));
#1007=VECTOR('',#1008,1.);
#1008=DIRECTION('',(-2.51214793389401E-15,-0.707106781186547,-0.707106781186548));
#1009=CARTESIAN_POINT('',(29.5,15.,39.));
#1010=VECTOR('',#1011,1.);
#1011=DIRECTION('',(0.,-0.707106781186547,0.707106781186547));
#1012=CARTESIAN_POINT('',(-26.,11.5,9.5));
#1013=CARTESIAN_POINT('',(-28.5,14.,12.));
#1014=VECTOR('',#1015,1.);
#1015=DIRECTION('',(0.577350269189626,-0.577350269189626,-0.577350269189626));
#1016=CARTESIAN_POINT('',(26.,11.5,9.5));
#1017=CARTESIAN_POINT('',(-26.,11.5,9.5));
#1018=VECTOR('',#1019,1.);
#1019=DIRECTION('',(1.,-1.36642833800019E-16,3.41607084500048E-17));
#1020=CARTESIAN_POINT('',(28.5,14.,12.));
#1021=VECTOR('',#1022,1.);
#1022=DIRECTION('',(-0.577350269189626,-0.577350269189626,-0.577350269189626));
#1023=CARTESIAN_POINT('',(26.,-11.5,9.5));
#1024=CARTESIAN_POINT('',(28.5,-14.,12.));
#1025=VECTOR('',#1026,1.);
#1026=DIRECTION('',(-0.577350269189626,0.577350269189626,-0.577350269189626));
#1027=CARTESIAN_POINT('',(-26.,-11.5,9.5));
#1028=CARTESIAN_POINT('',(26.,-11.5,9.5));
#1029=VECTOR('',#1030,1.);
#1030=DIRECTION('',(-1.,1.36642833800019E-16,3.41607084500048E-17));
#1031=CARTESIAN_POINT('',(-28.5,-14.,12.));
#1032=VECTOR('',#1033,1.);
#1033=DIRECTION('',(0.577350269189626,0.577350269189626,-0.577350269189626));
#1034=CARTESIAN_POINT('',(30.5,16.,10.));
#1035=CARTESIAN_POINT('',(30.5,16.,10.));
#1036=VECTOR('',#1037,1.);
#1037=DIRECTION('',(-1.,1.16482415698377E-16,0.));
#1038=CARTESIAN_POINT('',(30.5,16.,10.));
#1039=VECTOR('',#1040,1.);
#1040=DIRECTION('',(0.,0.,1.));
#1041=CARTESIAN_POINT('',(30.5,-16.,10.));
#1042=CARTESIAN_POINT('',(30.5,-16.,10.));
#1043=VECTOR('',#1044,1.);
#1044=DIRECTION('',(2.22044604925031E-16,1.,0.));
#1045=CARTESIAN_POINT('',(-30.5,-16.,10.));
#1046=VECTOR('',#1047,1.);
#1047=DIRECTION('',(1.,-1.16482415698377E-16,0.));
#1048=CARTESIAN_POINT('',(-28.,13.5,10.));
#1049=CARTESIAN_POINT('',(-28.,-13.5,10.));
#1050=CARTESIAN_POINT('',(-28.,-13.5,10.));
#1051=VECTOR('',#1052,1.);
#1052=DIRECTION('',(0.,1.,0.));
#1053=CARTESIAN_POINT('',(28.,-13.5,10.));
#1054=CARTESIAN_POINT('',(28.,-13.5,10.));
#1055=VECTOR('',#1056,1.);
#1056=DIRECTION('',(-1.,1.26882631385732E-16,0.));
#1057=CARTESIAN_POINT('',(28.,13.5,10.));
#1058=CARTESIAN_POINT('',(28.,13.5,10.));
#1059=VECTOR('',#1060,1.);
#1060=DIRECTION('',(0.,-1.,0.));
#1061=CARTESIAN_POINT('',(-28.,13.5,10.));
#1062=VECTOR('',#1063,1.);
#1063=DIRECTION('',(1.,-1.26882631385732E-16,0.));
#1064=CARTESIAN_POINT('',(30.5,-16.,10.));
#1065=VECTOR('',#1066,1.);
#1066=DIRECTION('',(0.,0.,1.));
#1067=CARTESIAN_POINT('',(-26.,-11.5,9.5));
#1068=VECTOR('',#1069,1.);
#1069=DIRECTION('',(0.,1.,0.));
#1070=CARTESIAN_POINT('',(26.,11.5,9.5));
#1071=VECTOR('',#1072,1.);
#1072=DIRECTION('',(0.,-1.,0.));
#1073=CARTESIAN_POINT('',(-26.,11.5,0.));
#1074=CARTESIAN_POINT('',(-26.,11.5,0.));
#1075=VECTOR('',#1076,1.);
#1076=DIRECTION('',(0.,0.,1.));
#1077=CARTESIAN_POINT('',(26.,11.5,0.));
#1078=CARTESIAN_POINT('',(26.,11.5,0.));
#1079=VECTOR('',#1080,1.);
#1080=DIRECTION('',(-1.,1.36642833800019E-16,0.));
#1081=CARTESIAN_POINT('',(26.,11.5,0.));
#1082=VECTOR('',#1083,1.);
#1083=DIRECTION('',(0.,0.,1.));
#1084=CARTESIAN_POINT('',(26.,-11.5,0.));
#1085=CARTESIAN_POINT('',(26.,-11.5,0.));
#1086=VECTOR('',#1087,1.);
#1087=DIRECTION('',(0.,0.,1.));
#1088=CARTESIAN_POINT('',(-26.,-11.5,0.));
#1089=CARTESIAN_POINT('',(-26.,-11.5,0.));
#1090=VECTOR('',#1091,1.);
#1091=DIRECTION('',(1.,-1.36642833800019E-16,0.));
#1092=CARTESIAN_POINT('',(-26.,-11.5,0.));
#1093=VECTOR('',#1094,1.);
#1094=DIRECTION('',(0.,0.,1.));
#1095=CARTESIAN_POINT('',(-28.,13.5,0.));
#1096=CARTESIAN_POINT('',(-28.,13.5,0.));
#1097=VECTOR('',#1098,1.);
#1098=DIRECTION('',(0.,0.,1.));
#1099=CARTESIAN_POINT('',(-28.,-13.5,0.));
#1100=CARTESIAN_POINT('',(-28.,13.5,0.));
#1101=VECTOR('',#1102,1.);
#1102=DIRECTION('',(0.,-1.,0.));
#1103=CARTESIAN_POINT('',(-28.,-13.5,0.));
#1104=VECTOR('',#1105,1.);
#1105=DIRECTION('',(0.,0.,1.));
#1106=CARTESIAN_POINT('',(28.,-13.5,0.));
#1107=CARTESIAN_POINT('',(-28.,-13.5,0.));
#1108=VECTOR('',#1109,1.);
#1109=DIRECTION('',(1.,-1.26882631385732E-16,0.));
#1110=CARTESIAN_POINT('',(28.,-13.5,0.));
#1111=VECTOR('',#1112,1.);
#1112=DIRECTION('',(0.,0.,1.));
#1113=CARTESIAN_POINT('',(28.,13.5,0.));
#1114=CARTESIAN_POINT('',(28.,-13.5,0.));
#1115=VECTOR('',#1116,1.);
#1116=DIRECTION('',(0.,1.,0.));
#1117=CARTESIAN_POINT('',(28.,13.5,0.));
#1118=VECTOR('',#1119,1.);
#1119=DIRECTION('',(0.,0.,1.));
#1120=CARTESIAN_POINT('',(28.,13.5,0.));
#1121=VECTOR('',#1122,1.);
#1122=DIRECTION('',(-1.,1.26882631385732E-16,0.));
#1123=CARTESIAN_POINT('',(-26.,11.5,0.));
#1124=VECTOR('',#1125,1.);
#1125=DIRECTION('',(0.,-1.,0.));
#1126=CARTESIAN_POINT('',(26.,-11.5,0.));
#1127=VECTOR('',#1128,1.);
#1128=DIRECTION('',(0.,1.,0.));
ENDSEC;
END-ISO-10303-21;
