ISO-10303-21;
HEADER;
FILE_DESCRIPTION(('STEP AP242'),
    '1');
FILE_NAME('upper case',
    '2024-09-14T09:44:30',
    ('savatneevvg'),
    (''),
    'C3D Converter',
    'C3D Toolkit',
    '');
/**/
FILE_SCHEMA(('AP242_MANAGED_MODEL_BASED_3D_ENGINEERING_MIM_LF { 1 0 10303 442 1 1 4 }'));
ENDSEC;

DATA;
#1=PRODUCT_DEFINITION('','UNSPECIFIED',#19,#22);
#2=SHAPE_DEFINITION_REPRESENTATION(#17,#3);
#3=SHAPE_REPRESENTATION('NONE',(#4),#8);
#4=AXIS2_PLACEMENT_3D('',#5,#6,#7);
#5=CARTESIAN_POINT('',(0.,0.,0.));
#6=DIRECTION('',(0.,0.,1.));
#7=DIRECTION('',(1.,0.,0.));
#8=(GEOMETRIC_REPRESENTATION_CONTEXT(3)GLOBAL_UNCERTAINTY_ASSIGNED_CONTEXT((#10))
GLOBAL_UNIT_ASSIGNED_CONTEXT((#9,#11,#12))REPRESENTATION_CONTEXT('NONE','NONE'));
#9=(LENGTH_UNIT()NAMED_UNIT(*)SI_UNIT(.MILLI.,.METRE.));
#10=UNCERTAINTY_MEASURE_WITH_UNIT(LENGTH_MEASURE(1.E-5),#9,'NONE','NONE');
#11=(NAMED_UNIT(*)PLANE_ANGLE_UNIT()SI_UNIT($,.RADIAN.));
#12=(NAMED_UNIT(*)SI_UNIT($,.STERADIAN.)SOLID_ANGLE_UNIT());
#13=MANIFOLD_SOLID_BREP('',#14);
#14=CLOSED_SHELL('',(#44,#45,#46,#47,#48,#49,#50,#51,#52,#53,#54,#55,#56,#57,#58,
#59,#60,#61,#62));
#15=ADVANCED_BREP_SHAPE_REPRESENTATION('NONE',(#13),#8);
#16=SHAPE_REPRESENTATION_RELATIONSHIP('','',#3,#15);
#17=PRODUCT_DEFINITION_SHAPE('NONE','NONE',#1);
#18=MECHANICAL_CONTEXT('NONE',#23,'mechanical');
#19=PRODUCT_DEFINITION_FORMATION_WITH_SPECIFIED_SOURCE('ANY','UNSPECIFIED',#20,.NOT_KNOWN.);
#20=PRODUCT('-01','upper case flow','NONE',(#18));
#21=PRODUCT_RELATED_PRODUCT_CATEGORY('detail','',(#20));
#22=DESIGN_CONTEXT('detailed design',#23,'design');
#23=APPLICATION_CONTEXT('configuration controlled 3d designs of mechanical parts and assemblies');
#24=APPLICATION_PROTOCOL_DEFINITION('international standard','config_control_design',
1994,#23);
#25=CC_DESIGN_DATE_AND_TIME_ASSIGNMENT(#26,#30,(#1));
#26=DATE_AND_TIME(#27,#28);
#27=CALENDAR_DATE(0,1,1);
#28=LOCAL_TIME(0,0,0.,#29);
#29=COORDINATED_UNIVERSAL_TIME_OFFSET(0,0,.AHEAD.);
#30=DATE_TIME_ROLE('creation_date');
#31=CC_DESIGN_APPROVAL(#32,(#1));
#32=APPROVAL(#33,'UNSPECIFIED');
#33=APPROVAL_STATUS('not_yet_approved');
#34=APPROVAL_DATE_TIME(#35,#32);
#35=DATE_AND_TIME(#36,#37);
#36=CALENDAR_DATE(0,1,1);
#37=LOCAL_TIME(0,0,0.,#38);
#38=COORDINATED_UNIVERSAL_TIME_OFFSET(0,0,.AHEAD.);
#39=PERSON('UNSPECIFIED','savatneevvg','UNSPECIFIED',('UNSPECIFIED'),('UNSPECIFIED'),
('UNSPECIFIED'));
#40=ORGANIZATION('UNSPECIFIED','UNSPECIFIED','UNSPECIFIED');
#41=PERSON_AND_ORGANIZATION(#39,#40);
#42=PERSON_AND_ORGANIZATION_ROLE('creator');
#43=CC_DESIGN_PERSON_AND_ORGANIZATION_ASSIGNMENT(#41,#42,(#19,#1));
#44=ADVANCED_FACE('',(#63),#65,.T.);
#45=ADVANCED_FACE('',(#70),#72,.F.);
#46=ADVANCED_FACE('',(#77),#79,.F.);
#47=ADVANCED_FACE('',(#84),#86,.T.);
#48=ADVANCED_FACE('',(#91),#93,.T.);
#49=ADVANCED_FACE('',(#98),#100,.F.);
#50=ADVANCED_FACE('',(#105),#107,.T.);
#51=ADVANCED_FACE('',(#112),#114,.T.);
#52=ADVANCED_FACE('',(#119,#121),#123,.T.);
#53=ADVANCED_FACE('',(#128),#130,.F.);
#54=ADVANCED_FACE('',(#135),#137,.T.);
#55=ADVANCED_FACE('',(#142),#144,.T.);
#56=ADVANCED_FACE('',(#149),#151,.T.);
#57=ADVANCED_FACE('',(#156),#158,.T.);
#58=ADVANCED_FACE('',(#163),#165,.T.);
#59=ADVANCED_FACE('',(#170),#172,.T.);
#60=ADVANCED_FACE('',(#177),#179,.F.);
#61=ADVANCED_FACE('',(#184),#186,.F.);
#62=ADVANCED_FACE('',(#191),#193,.T.);
#63=FACE_BOUND('',#64,.T.);
#64=EDGE_LOOP('',(#198,#199,#200));
#65=CYLINDRICAL_SURFACE('',#66,39.);
#66=AXIS2_PLACEMENT_3D('',#67,#68,#69);
#67=CARTESIAN_POINT('',(8.33250551099156,14.8,-10.2369198963947));
#68=DIRECTION('',(-1.22464679914735E-16,1.,6.12323399573677E-17));
#69=DIRECTION('',(-0.96493603874337,-1.34243161564242E-16,0.26248512554858));
#70=FACE_BOUND('',#71,.T.);
#71=EDGE_LOOP('',(#201,#202,#203,#204));
#72=CYLINDRICAL_SURFACE('',#73,49.);
#73=AXIS2_PLACEMENT_3D('',#74,#75,#76);
#74=CARTESIAN_POINT('',(29.,34.5090794436973,-16.1818108439682));
#75=DIRECTION('',(1.,0.,0.));
#76=DIRECTION('',(0.,-0.704266927422365,0.709935275175886));
#77=FACE_BOUND('',#78,.T.);
#78=EDGE_LOOP('',(#205,#206,#207,#208));
#79=CYLINDRICAL_SURFACE('',#80,49.000000000002);
#80=AXIS2_PLACEMENT_3D('',#81,#82,#83);
#81=CARTESIAN_POINT('',(29.,-34.5090794436974,-16.1818108439682));
#82=DIRECTION('',(1.,0.,0.));
#83=DIRECTION('',(0.,0.946181588873942,0.323636216879359));
#84=FACE_BOUND('',#85,.T.);
#85=EDGE_LOOP('',(#209,#210,#211,#212));
#86=PLANE('',#87);
#87=AXIS2_PLACEMENT_3D('',#88,#89,#90);
#88=CARTESIAN_POINT('',(0.,0.,0.));
#89=DIRECTION('',(0.,0.,1.));
#90=DIRECTION('',(6.12323399573677E-17,-1.,0.));
#91=FACE_BOUND('',#92,.T.);
#92=EDGE_LOOP('',(#213,#214,#215,#216,#217,#218,#219,#220,#221,#222,#223,#224));
#93=PLANE('',#94);
#94=AXIS2_PLACEMENT_3D('',#95,#96,#97);
#95=CARTESIAN_POINT('',(0.,0.,0.));
#96=DIRECTION('',(0.,0.,1.));
#97=DIRECTION('',(6.12323399573677E-17,-1.,0.));
#98=FACE_BOUND('',#99,.T.);
#99=EDGE_LOOP('',(#225,#226,#227));
#100=CYLINDRICAL_SURFACE('',#101,38.);
#101=AXIS2_PLACEMENT_3D('',#102,#103,#104);
#102=CARTESIAN_POINT('',(8.33250551099156,16.4909205563046,-10.2369198963947));
#103=DIRECTION('',(-2.15434527543247E-16,1.,6.12323399573676E-17));
#104=DIRECTION('',(-0.96493603874337,-2.23953118057473E-16,0.262485125548581));
#105=FACE_BOUND('',#106,.T.);
#106=EDGE_LOOP('',(#228,#229,#230,#231));
#107=CYLINDRICAL_SURFACE('',#108,50.000000000002);
#108=AXIS2_PLACEMENT_3D('',#109,#110,#111);
#109=CARTESIAN_POINT('',(29.,-34.5090794436974,-16.1818108439682));
#110=DIRECTION('',(-1.,0.,0.));
#111=DIRECTION('',(0.,0.690181588873933,0.723636216879347));
#112=FACE_BOUND('',#113,.T.);
#113=EDGE_LOOP('',(#232,#233,#234,#235));
#114=CYLINDRICAL_SURFACE('',#115,50.);
#115=AXIS2_PLACEMENT_3D('',#116,#117,#118);
#116=CARTESIAN_POINT('',(29.,34.5090794436973,-16.1818108439682));
#117=DIRECTION('',(-1.,0.,0.));
#118=DIRECTION('',(0.,-0.946181588873941,0.323636216879362));
#119=FACE_BOUND('',#120,.T.);
#120=EDGE_LOOP('',(#236,#237,#238,#239,#240,#241,#242,#243,#244));
#121=FACE_BOUND('',#122,.T.);
#122=EDGE_LOOP('',(#245,#246,#247));
#123=PLANE('',#124);
#124=AXIS2_PLACEMENT_3D('',#125,#126,#127);
#125=CARTESIAN_POINT('',(29.,-14.8,-2.));
#126=DIRECTION('',(1.,0.,0.));
#127=DIRECTION('',(0.,1.,0.));
#128=FACE_BOUND('',#129,.T.);
#129=EDGE_LOOP('',(#248,#249,#250,#251));
#130=PLANE('',#131);
#131=AXIS2_PLACEMENT_3D('',#132,#133,#134);
#132=CARTESIAN_POINT('',(30.,14.8,-1.));
#133=DIRECTION('',(0.,-0.707106781186547,-0.707106781186547));
#134=DIRECTION('',(0.,-0.707106781186547,0.707106781186547));
#135=FACE_BOUND('',#136,.T.);
#136=EDGE_LOOP('',(#252,#253,#254,#255,#256,#257,#258,#259,#260,#261));
#137=PLANE('',#138);
#138=AXIS2_PLACEMENT_3D('',#139,#140,#141);
#139=CARTESIAN_POINT('',(-30.5,14.8,-2.));
#140=DIRECTION('',(-1.,0.,0.));
#141=DIRECTION('',(0.,-1.,0.));
#142=FACE_BOUND('',#143,.T.);
#143=EDGE_LOOP('',(#262,#263,#264,#265));
#144=CYLINDRICAL_SURFACE('',#145,2.);
#145=AXIS2_PLACEMENT_3D('',#146,#147,#148);
#146=CARTESIAN_POINT('',(-22.5,3.,0.));
#147=DIRECTION('',(-1.,-1.1842378929335E-16,0.));
#148=DIRECTION('',(-2.62953635073671E-32,2.22044604925031E-16,1.));
#149=FACE_BOUND('',#150,.T.);
#150=EDGE_LOOP('',(#266,#267,#268,#269));
#151=PLANE('',#152);
#152=AXIS2_PLACEMENT_3D('',#153,#154,#155);
#153=CARTESIAN_POINT('',(-29.5,-5.,0.));
#154=DIRECTION('',(1.,0.,0.));
#155=DIRECTION('',(0.,1.,0.));
#156=FACE_BOUND('',#157,.T.);
#157=EDGE_LOOP('',(#270,#271,#272,#273));
#158=CYLINDRICAL_SURFACE('',#159,2.);
#159=AXIS2_PLACEMENT_3D('',#160,#161,#162);
#160=CARTESIAN_POINT('',(-37.5,-2.99999999999998,0.));
#161=DIRECTION('',(1.,-1.8947806286936E-15,0.));
#162=DIRECTION('',(0.,2.22044604925018E-16,1.));
#163=FACE_BOUND('',#164,.T.);
#164=EDGE_LOOP('',(#274,#275,#276,#277));
#165=PLANE('',#166);
#166=AXIS2_PLACEMENT_3D('',#167,#168,#169);
#167=CARTESIAN_POINT('',(30.,-14.8,-1.));
#168=DIRECTION('',(0.,-0.707106781186547,0.707106781186547));
#169=DIRECTION('',(0.,0.707106781186547,0.707106781186547));
#170=FACE_BOUND('',#171,.T.);
#171=EDGE_LOOP('',(#278,#279,#280,#281));
#172=PLANE('',#173);
#173=AXIS2_PLACEMENT_3D('',#174,#175,#176);
#174=CARTESIAN_POINT('',(30.,-13.8,-2.));
#175=DIRECTION('',(0.,-0.707106781186547,-0.707106781186547));
#176=DIRECTION('',(0.,-0.707106781186547,0.707106781186547));
#177=FACE_BOUND('',#178,.T.);
#178=EDGE_LOOP('',(#282,#283,#284,#285));
#179=PLANE('',#180);
#180=AXIS2_PLACEMENT_3D('',#181,#182,#183);
#181=CARTESIAN_POINT('',(0.,0.,-2.));
#182=DIRECTION('',(0.,0.,1.));
#183=DIRECTION('',(6.12323399573677E-17,-1.,0.));
#184=FACE_BOUND('',#185,.T.);
#185=EDGE_LOOP('',(#286,#287,#288,#289));
#186=PLANE('',#187);
#187=AXIS2_PLACEMENT_3D('',#188,#189,#190);
#188=CARTESIAN_POINT('',(30.,13.8,-2.));
#189=DIRECTION('',(0.,-0.707106781186547,0.707106781186547));
#190=DIRECTION('',(0.,0.707106781186547,0.707106781186547));
#191=FACE_BOUND('',#192,.T.);
#192=EDGE_LOOP('',(#290,#291,#292,#293));
#193=PLANE('',#194);
#194=AXIS2_PLACEMENT_3D('',#195,#196,#197);
#195=CARTESIAN_POINT('',(0.,0.,2.));
#196=DIRECTION('',(0.,0.,1.));
#197=DIRECTION('',(6.12323399573677E-17,-1.,0.));
#198=ORIENTED_EDGE('',*,*,#294,.F.);
#199=ORIENTED_EDGE('',*,*,#295,.T.);
#200=ORIENTED_EDGE('',*,*,#296,.F.);
#201=ORIENTED_EDGE('',*,*,#297,.F.);
#202=ORIENTED_EDGE('',*,*,#298,.F.);
#203=ORIENTED_EDGE('',*,*,#299,.T.);
#204=ORIENTED_EDGE('',*,*,#300,.T.);
#205=ORIENTED_EDGE('',*,*,#301,.F.);
#206=ORIENTED_EDGE('',*,*,#302,.T.);
#207=ORIENTED_EDGE('',*,*,#303,.T.);
#208=ORIENTED_EDGE('',*,*,#298,.T.);
#209=ORIENTED_EDGE('',*,*,#304,.F.);
#210=ORIENTED_EDGE('',*,*,#300,.F.);
#211=ORIENTED_EDGE('',*,*,#305,.T.);
#212=ORIENTED_EDGE('',*,*,#302,.F.);
#213=ORIENTED_EDGE('',*,*,#295,.F.);
#214=ORIENTED_EDGE('',*,*,#306,.F.);
#215=ORIENTED_EDGE('',*,*,#307,.T.);
#216=ORIENTED_EDGE('',*,*,#308,.T.);
#217=ORIENTED_EDGE('',*,*,#309,.F.);
#218=ORIENTED_EDGE('',*,*,#310,.F.);
#219=ORIENTED_EDGE('',*,*,#311,.F.);
#220=ORIENTED_EDGE('',*,*,#312,.F.);
#221=ORIENTED_EDGE('',*,*,#313,.F.);
#222=ORIENTED_EDGE('',*,*,#314,.T.);
#223=ORIENTED_EDGE('',*,*,#315,.T.);
#224=ORIENTED_EDGE('',*,*,#316,.F.);
#225=ORIENTED_EDGE('',*,*,#304,.T.);
#226=ORIENTED_EDGE('',*,*,#301,.T.);
#227=ORIENTED_EDGE('',*,*,#297,.T.);
#228=ORIENTED_EDGE('',*,*,#294,.T.);
#229=ORIENTED_EDGE('',*,*,#317,.F.);
#230=ORIENTED_EDGE('',*,*,#318,.T.);
#231=ORIENTED_EDGE('',*,*,#306,.T.);
#232=ORIENTED_EDGE('',*,*,#296,.T.);
#233=ORIENTED_EDGE('',*,*,#316,.T.);
#234=ORIENTED_EDGE('',*,*,#319,.T.);
#235=ORIENTED_EDGE('',*,*,#317,.T.);
#236=ORIENTED_EDGE('',*,*,#320,.T.);
#237=ORIENTED_EDGE('',*,*,#321,.T.);
#238=ORIENTED_EDGE('',*,*,#322,.T.);
#239=ORIENTED_EDGE('',*,*,#323,.T.);
#240=ORIENTED_EDGE('',*,*,#307,.F.);
#241=ORIENTED_EDGE('',*,*,#318,.F.);
#242=ORIENTED_EDGE('',*,*,#319,.F.);
#243=ORIENTED_EDGE('',*,*,#315,.F.);
#244=ORIENTED_EDGE('',*,*,#324,.T.);
#245=ORIENTED_EDGE('',*,*,#305,.F.);
#246=ORIENTED_EDGE('',*,*,#299,.F.);
#247=ORIENTED_EDGE('',*,*,#303,.F.);
#248=ORIENTED_EDGE('',*,*,#323,.F.);
#249=ORIENTED_EDGE('',*,*,#325,.T.);
#250=ORIENTED_EDGE('',*,*,#326,.F.);
#251=ORIENTED_EDGE('',*,*,#308,.F.);
#252=ORIENTED_EDGE('',*,*,#327,.F.);
#253=ORIENTED_EDGE('',*,*,#328,.F.);
#254=ORIENTED_EDGE('',*,*,#329,.F.);
#255=ORIENTED_EDGE('',*,*,#309,.T.);
#256=ORIENTED_EDGE('',*,*,#326,.T.);
#257=ORIENTED_EDGE('',*,*,#330,.T.);
#258=ORIENTED_EDGE('',*,*,#331,.T.);
#259=ORIENTED_EDGE('',*,*,#332,.T.);
#260=ORIENTED_EDGE('',*,*,#333,.T.);
#261=ORIENTED_EDGE('',*,*,#313,.T.);
#262=ORIENTED_EDGE('',*,*,#310,.T.);
#263=ORIENTED_EDGE('',*,*,#329,.T.);
#264=ORIENTED_EDGE('',*,*,#334,.F.);
#265=ORIENTED_EDGE('',*,*,#335,.T.);
#266=ORIENTED_EDGE('',*,*,#336,.F.);
#267=ORIENTED_EDGE('',*,*,#311,.T.);
#268=ORIENTED_EDGE('',*,*,#335,.F.);
#269=ORIENTED_EDGE('',*,*,#337,.F.);
#270=ORIENTED_EDGE('',*,*,#312,.T.);
#271=ORIENTED_EDGE('',*,*,#336,.T.);
#272=ORIENTED_EDGE('',*,*,#338,.F.);
#273=ORIENTED_EDGE('',*,*,#327,.T.);
#274=ORIENTED_EDGE('',*,*,#314,.F.);
#275=ORIENTED_EDGE('',*,*,#333,.F.);
#276=ORIENTED_EDGE('',*,*,#339,.F.);
#277=ORIENTED_EDGE('',*,*,#324,.F.);
#278=ORIENTED_EDGE('',*,*,#340,.F.);
#279=ORIENTED_EDGE('',*,*,#320,.F.);
#280=ORIENTED_EDGE('',*,*,#339,.T.);
#281=ORIENTED_EDGE('',*,*,#332,.F.);
#282=ORIENTED_EDGE('',*,*,#340,.T.);
#283=ORIENTED_EDGE('',*,*,#331,.F.);
#284=ORIENTED_EDGE('',*,*,#341,.T.);
#285=ORIENTED_EDGE('',*,*,#321,.F.);
#286=ORIENTED_EDGE('',*,*,#322,.F.);
#287=ORIENTED_EDGE('',*,*,#341,.F.);
#288=ORIENTED_EDGE('',*,*,#330,.F.);
#289=ORIENTED_EDGE('',*,*,#325,.F.);
#290=ORIENTED_EDGE('',*,*,#338,.T.);
#291=ORIENTED_EDGE('',*,*,#337,.T.);
#292=ORIENTED_EDGE('',*,*,#334,.T.);
#293=ORIENTED_EDGE('',*,*,#328,.T.);
#294=EDGE_CURVE('',#342,#343,#344,.T.);
#295=EDGE_CURVE('',#345,#346,#347,.T.);
#296=EDGE_CURVE('',#343,#348,#349,.F.);
#297=EDGE_CURVE('',#350,#351,#352,.T.);
#298=EDGE_CURVE('',#353,#350,#354,.T.);
#299=EDGE_CURVE('',#353,#355,#356,.T.);
#300=EDGE_CURVE('',#355,#351,#357,.T.);
#301=EDGE_CURVE('',#358,#350,#359,.T.);
#302=EDGE_CURVE('',#358,#360,#361,.F.);
#303=EDGE_CURVE('',#360,#353,#362,.T.);
#304=EDGE_CURVE('',#351,#358,#363,.F.);
#305=EDGE_CURVE('',#355,#360,#364,.T.);
#306=EDGE_CURVE('',#365,#345,#366,.T.);
#307=EDGE_CURVE('',#365,#367,#368,.T.);
#308=EDGE_CURVE('',#367,#369,#370,.F.);
#309=EDGE_CURVE('',#371,#369,#372,.T.);
#310=EDGE_CURVE('',#373,#371,#374,.T.);
#311=EDGE_CURVE('',#375,#373,#376,.T.);
#312=EDGE_CURVE('',#377,#375,#378,.T.);
#313=EDGE_CURVE('',#379,#377,#380,.T.);
#314=EDGE_CURVE('',#379,#381,#382,.T.);
#315=EDGE_CURVE('',#381,#383,#384,.T.);
#316=EDGE_CURVE('',#346,#383,#385,.F.);
#317=EDGE_CURVE('',#386,#343,#387,.T.);
#318=EDGE_CURVE('',#386,#388,#389,.T.);
#319=EDGE_CURVE('',#390,#386,#391,.T.);
#320=EDGE_CURVE('',#392,#393,#394,.T.);
#321=EDGE_CURVE('',#393,#395,#396,.T.);
#322=EDGE_CURVE('',#395,#397,#398,.F.);
#323=EDGE_CURVE('',#399,#400,#401,.F.);
#324=EDGE_CURVE('',#402,#403,#404,.T.);
#325=EDGE_CURVE('',#397,#405,#406,.T.);
#326=EDGE_CURVE('',#407,#408,#409,.T.);
#327=EDGE_CURVE('',#410,#411,#412,.F.);
#328=EDGE_CURVE('',#413,#414,#415,.T.);
#329=EDGE_CURVE('',#416,#417,#418,.F.);
#330=EDGE_CURVE('',#405,#419,#420,.T.);
#331=EDGE_CURVE('',#419,#421,#422,.T.);
#332=EDGE_CURVE('',#421,#423,#424,.T.);
#333=EDGE_CURVE('',#425,#426,#427,.T.);
#334=EDGE_CURVE('',#428,#413,#429,.T.);
#335=EDGE_CURVE('',#430,#431,#432,.F.);
#336=EDGE_CURVE('',#433,#434,#435,.F.);
#337=EDGE_CURVE('',#436,#428,#437,.T.);
#338=EDGE_CURVE('',#414,#436,#438,.T.);
#339=EDGE_CURVE('',#392,#423,#439,.T.);
#340=EDGE_CURVE('',#393,#421,#440,.F.);
#341=EDGE_CURVE('',#419,#395,#441,.T.);
#342=VERTEX_POINT('',#442);
#343=VERTEX_POINT('',#443);
#344=B_SPLINE_CURVE_WITH_KNOTS('',3,
(#444,#445,#446,#447,#448,#449,#450,#451,#452,#453,#454,#455,#456,#457,#458,#459,
#460,#461,#462,#463,#464,#465,#466,#467,#468,#469,#470,#471,#472,#473,#474,#475,
#476,#477,#478,#479,#480,#481,#482,#483,#484,#485,#486,#487,#488),
.UNSPECIFIED.,.F.,.F.,
(4,1,1,1,1,1,1,1,1,1,1,1,1,1,1,1,1,1,1,1,1,1,1,1,1,1,1,1,1,1,1,1,1,1,1,1,1,1,1,1,
1,1,4),
(0.,0.0225326241987615,0.045028926368859,0.0674919488012936,0.089908698907597,0.112295947424371,
0.134645555105699,0.156981518523385,0.179318916830586,0.201677846390991,0.226512665733731,
0.253804495096299,0.293396010520453,0.332939792684163,0.372414222257607,0.399456950428208,
0.423981285617329,0.445944139810456,0.467869521827333,0.496931776254461,0.533107150429022,
0.56906298028915,0.597637275617455,0.61877291087397,0.639804331184117,0.660563746489624,
0.681150466394775,0.701489495974863,0.721754407877621,0.741740475888826,0.761518672155987,
0.78095001066749,0.800243270733862,0.819203412463654,0.837964703177165,0.862579033487839,
0.886997171835883,0.911229769097149,0.929154009811481,0.947014835328794,0.964745266682203,
0.982407447598957,1.),
.UNSPECIFIED.);
#345=VERTEX_POINT('',#489);
#346=VERTEX_POINT('',#490);
#347=LINE('',#491,#492);
#348=VERTEX_POINT('',#494);
#349=B_SPLINE_CURVE_WITH_KNOTS('',3,
(#495,#496,#497,#498,#499,#500,#501,#502,#503,#504,#505,#506,#507,#508,#509,#510,
#511,#512,#513,#514,#515,#516,#517,#518,#519,#520,#521,#522,#523,#524,#525,#526,
#527,#528,#529,#530,#531,#532,#533,#534,#535,#536,#537,#538,#539),
.UNSPECIFIED.,.F.,.F.,
(4,1,1,1,1,1,1,1,1,1,1,1,1,1,1,1,1,1,1,1,1,1,1,1,1,1,1,1,1,1,1,1,1,1,1,1,1,1,1,1,
1,1,4),
(0.,0.0225326241987645,0.04502892636886,0.0674919488012914,0.0899086989075946,0.112295947424372,
0.134645555105702,0.156981518523387,0.179318916830584,0.201677846390982,0.226512665733713,
0.253804495096272,0.293396010520427,0.33293979268416,0.372414222257654,0.399456950428305,
0.423981285617469,0.445944139810623,0.467869521827511,0.496931776254586,0.533107150428972,
0.569062980288849,0.597637275616933,0.618772910873351,0.639804331183464,0.660563746489087,
0.681150466394484,0.701489495975027,0.721754407878382,0.741740475890254,0.761518672158048,
0.78095001066999,0.800243270736599,0.819203412466256,0.837964703179321,0.862579033489018,
0.886997171836731,0.911229769099819,0.92915400981639,0.947014835335554,0.964745266689028,
0.982407447603735,1.),
.UNSPECIFIED.);
#350=VERTEX_POINT('',#540);
#351=VERTEX_POINT('',#541);
#352=B_SPLINE_CURVE_WITH_KNOTS('',3,
(#542,#543,#544,#545,#546,#547,#548,#549,#550,#551,#552,#553,#554,#555,#556,#557,
#558,#559,#560,#561,#562,#563,#564,#565,#566,#567,#568,#569,#570,#571,#572,#573,
#574,#575,#576),
.UNSPECIFIED.,.F.,.F.,
(4,1,1,1,1,1,1,1,1,1,1,1,1,1,1,1,1,1,1,1,1,1,1,1,1,1,1,1,1,1,1,1,4),
(0.,0.0327676518082334,0.0655289538829072,0.0982771583100327,0.131034938804327,0.163795136097497,
0.19660213115262,0.229452193280432,0.262371043286305,0.295326154560483,0.328284469171782,
0.361211107907137,0.394058069371581,0.426848953495465,0.459435654063082,0.491883675141317,
0.524099520739234,0.556224814242894,0.587990454447294,0.619471505862036,0.650481305183544,
0.681305561246094,0.711634188770065,0.741670625357155,0.77130262886744,0.8008212177115,
0.83000104435295,0.858951403027316,0.887520861780456,0.915936559530853,0.944087014664388,
0.972107307622866,1.),
.UNSPECIFIED.);
#353=VERTEX_POINT('',#577);
#354=LINE('',#578,#579);
#355=VERTEX_POINT('',#581);
#356=CIRCLE('',#582,49.);
#357=LINE('',#586,#587);
#358=VERTEX_POINT('',#589);
#359=B_SPLINE_CURVE_WITH_KNOTS('',3,
(#590,#591,#592,#593,#594,#595,#596,#597,#598,#599,#600,#601,#602,#603,#604,#605,
#606,#607,#608,#609,#610,#611,#612,#613,#614,#615,#616,#617,#618,#619,#620,#621,
#622,#623,#624,#625,#626,#627,#628,#629,#630,#631,#632,#633,#634,#635),
.UNSPECIFIED.,.F.,.F.,
(4,1,1,1,1,1,1,1,1,1,1,1,1,1,1,1,1,1,1,1,1,1,1,1,1,1,1,1,1,1,1,1,1,1,1,1,1,1,1,1,
1,1,1,4),
(0.,0.0237665365230956,0.0475128979340373,0.071238398682781,0.0949302610013878,0.118600809622142,
0.142242883146907,0.165872615795222,0.189497020844386,0.213133803045576,0.239373752493245,
0.268204141481419,0.310022585014353,0.351786503817805,0.393475398594263,0.422029829043007,
0.44792231309865,0.47110719517204,0.494251519588204,0.52492340880272,0.5630991482846,
0.600953862444974,0.630930655775221,0.652886268743992,0.674646200452014,0.695859981265348,
0.716719069694467,0.737058469233433,0.757232710581559,0.776767242383571,0.795824818851184,
0.814088090039,0.832034222872631,0.849197424401054,0.865895312092952,0.881972771554451,
0.897896189340298,0.91335781033314,0.928511102982097,0.943206678810351,0.957750528008734,
0.971988298244325,0.986071694117415,1.),
.UNSPECIFIED.);
#360=VERTEX_POINT('',#636);
#361=LINE('',#637,#638);
#362=CIRCLE('',#640,49.000000000002);
#363=LINE('',#644,#645);
#364=LINE('',#647,#648);
#365=VERTEX_POINT('',#650);
#366=LINE('',#651,#652);
#367=VERTEX_POINT('',#654);
#368=LINE('',#655,#656);
#369=VERTEX_POINT('',#658);
#370=LINE('',#659,#660);
#371=VERTEX_POINT('',#662);
#372=LINE('',#663,#664);
#373=VERTEX_POINT('',#666);
#374=LINE('',#667,#668);
#375=VERTEX_POINT('',#670);
#376=LINE('',#671,#672);
#377=VERTEX_POINT('',#674);
#378=LINE('',#675,#676);
#379=VERTEX_POINT('',#678);
#380=LINE('',#679,#680);
#381=VERTEX_POINT('',#682);
#382=LINE('',#683,#684);
#383=VERTEX_POINT('',#686);
#384=LINE('',#687,#688);
#385=LINE('',#690,#691);
#386=VERTEX_POINT('',#693);
#387=LINE('',#694,#695);
#388=VERTEX_POINT('',#697);
#389=CIRCLE('',#698,50.000000000002);
#390=VERTEX_POINT('',#702);
#391=CIRCLE('',#703,50.);
#392=VERTEX_POINT('',#707);
#393=VERTEX_POINT('',#708);
#394=LINE('',#709,#710);
#395=VERTEX_POINT('',#712);
#396=LINE('',#713,#714);
#397=VERTEX_POINT('',#716);
#398=LINE('',#717,#718);
#399=VERTEX_POINT('',#720);
#400=VERTEX_POINT('',#721);
#401=LINE('',#722,#723);
#402=VERTEX_POINT('',#725);
#403=VERTEX_POINT('',#726);
#404=LINE('',#727,#728);
#405=VERTEX_POINT('',#730);
#406=LINE('',#731,#732);
#407=VERTEX_POINT('',#734);
#408=VERTEX_POINT('',#735);
#409=LINE('',#736,#737);
#410=VERTEX_POINT('',#739);
#411=VERTEX_POINT('',#740);
#412=CIRCLE('',#741,2.00000000000001);
#413=VERTEX_POINT('',#745);
#414=VERTEX_POINT('',#746);
#415=LINE('',#747,#748);
#416=VERTEX_POINT('',#750);
#417=VERTEX_POINT('',#751);
#418=CIRCLE('',#752,2.);
#419=VERTEX_POINT('',#756);
#420=LINE('',#757,#758);
#421=VERTEX_POINT('',#760);
#422=LINE('',#761,#762);
#423=VERTEX_POINT('',#764);
#424=LINE('',#765,#766);
#425=VERTEX_POINT('',#768);
#426=VERTEX_POINT('',#769);
#427=LINE('',#770,#771);
#428=VERTEX_POINT('',#773);
#429=LINE('',#774,#775);
#430=VERTEX_POINT('',#777);
#431=VERTEX_POINT('',#778);
#432=CIRCLE('',#779,2.);
#433=VERTEX_POINT('',#783);
#434=VERTEX_POINT('',#784);
#435=CIRCLE('',#785,2.);
#436=VERTEX_POINT('',#789);
#437=LINE('',#790,#791);
#438=LINE('',#793,#794);
#439=LINE('',#796,#797);
#440=LINE('',#799,#800);
#441=LINE('',#802,#803);
#442=CARTESIAN_POINT('',(-29.3,12.8000000000017,1.12502599828683E-13));
#443=CARTESIAN_POINT('',(-16.2993574956719,6.75015598972095E-13,19.9999999999999));
#444=CARTESIAN_POINT('',(-29.2999999999999,12.8000000000018,-3.44613226843649E-13));
#445=CARTESIAN_POINT('',(-29.2484408035528,12.7351691965228,0.189539374004408));
#446=CARTESIAN_POINT('',(-29.1427506243839,12.6035949709076,0.566775246901805));
#447=CARTESIAN_POINT('',(-28.9765098045211,12.400456258387,1.12753246650571));
#448=CARTESIAN_POINT('',(-28.8028790993656,12.1918710909693,1.68261615822642));
#449=CARTESIAN_POINT('',(-28.6220043089396,11.9779625532116,2.23204576683171));
#450=CARTESIAN_POINT('',(-28.4340577892388,11.7588879550364,2.77574931802473));
#451=CARTESIAN_POINT('',(-28.239101395187,11.534679707049,3.31395612394104));
#452=CARTESIAN_POINT('',(-28.0371874323554,11.3053665261977,3.84687399203722));
#453=CARTESIAN_POINT('',(-27.8282630991708,11.0708671248744,4.3749230584311));
#454=CARTESIAN_POINT('',(-27.6044274184076,10.8223990559034,4.91747086895947));
#455=CARTESIAN_POINT('',(-27.3567324349902,10.5504626890039,5.49273120538631));
#456=CARTESIAN_POINT('',(-27.041197063827,10.2080014919181,6.19287388693028));
#457=CARTESIAN_POINT('',(-26.6597379319616,9.79966402604604,6.99289504746578));
#458=CARTESIAN_POINT('',(-26.2151121278491,9.33087566826921,7.8677921840569));
#459=CARTESIAN_POINT('',(-25.800769930599,8.90014406928784,8.63487695079558));
#460=CARTESIAN_POINT('',(-25.4334064524755,8.52252045499604,9.28219871000143));
#461=CARTESIAN_POINT('',(-25.1295458387934,8.2127783463157,9.79800541211575));
#462=CARTESIAN_POINT('',(-24.8409473005362,7.92074289193124,10.2720237013585));
#463=CARTESIAN_POINT('',(-24.5273847822857,7.60558286170701,10.771542699184));
#464=CARTESIAN_POINT('',(-24.1448007067822,7.22398810908521,11.360107778137));
#465=CARTESIAN_POINT('',(-23.6891372815218,6.77384031031766,12.0310781260215));
#466=CARTESIAN_POINT('',(-23.2234075077056,6.31850179169435,12.6851806644905));
#467=CARTESIAN_POINT('',(-22.818147484487,5.92589701488401,13.2312281810453));
#468=CARTESIAN_POINT('',(-22.47783358679,5.59850968411654,13.6755505735224));
#469=CARTESIAN_POINT('',(-22.1709125801367,5.30498504719282,14.0658126396289));
#470=CARTESIAN_POINT('',(-21.8626047077992,5.01185194299894,14.4477820972691));
#471=CARTESIAN_POINT('',(-21.5538033817921,4.71994296889639,14.8207286096446));
#472=CARTESIAN_POINT('',(-21.243690783083,4.42847207974613,15.1859880628661));
#473=CARTESIAN_POINT('',(-20.9329574034916,4.13808289318041,15.5430465071833));
#474=CARTESIAN_POINT('',(-20.6215436239674,3.84871264376046,15.8922771039486));
#475=CARTESIAN_POINT('',(-20.3110289539247,3.56181098962329,16.2322613179735));
#476=CARTESIAN_POINT('',(-20.0008472725247,3.27683124815526,16.5639899501001));
#477=CARTESIAN_POINT('',(-19.6918219713373,2.99450993583864,16.8869228196147));
#478=CARTESIAN_POINT('',(-19.383311310555,2.71424267587038,17.2020531059168));
#479=CARTESIAN_POINT('',(-19.0427241822393,2.4065725856742,17.5422330339326));
#480=CARTESIAN_POINT('',(-18.6682459716319,2.07049870684435,17.9067536465109));
#481=CARTESIAN_POINT('',(-18.2586310748744,1.7056666863304,18.2940520780065));
#482=CARTESIAN_POINT('',(-17.8820430380124,1.37282040810804,18.6400005025364));
#483=CARTESIAN_POINT('',(-17.5391672639409,1.07183511678458,18.9472023751207));
#484=CARTESIAN_POINT('',(-17.2309003104874,0.802825021058924,19.2175874217094));
#485=CARTESIAN_POINT('',(-16.9216500821048,0.534570984041561,19.4831510452194));
#486=CARTESIAN_POINT('',(-16.6115085388446,0.267177860821694,19.7439178880544));
#487=CARTESIAN_POINT('',(-16.4035368965295,0.0889814188653155,19.9151323786755));
#488=CARTESIAN_POINT('',(-16.2993574963288,1.02584607475364E-12,20.0000000000001));
#489=CARTESIAN_POINT('',(-29.3,12.8000000000017,1.12502599828683E-13));
#490=CARTESIAN_POINT('',(-29.3,-12.7999999999997,-6.69094409507428E-14));
#491=CARTESIAN_POINT('',(-29.2999999999999,12.8000000000018,-4.61852778244065E-14));
#492=VECTOR('',#493,1.);
#493=DIRECTION('',(0.,-1.,-3.46944695195341E-17));
#494=CARTESIAN_POINT('',(-29.3,-12.7999999999997,-6.69094409507428E-14));
#495=CARTESIAN_POINT('',(-29.2999999999999,-12.7999999999997,-1.00364161426114E-13));
#496=CARTESIAN_POINT('',(-29.2484408035528,-12.7351691965208,0.18953937400461));
#497=CARTESIAN_POINT('',(-29.1427506243839,-12.6035949709055,0.566775246901895));
#498=CARTESIAN_POINT('',(-28.9765098045211,-12.400456258385,1.12753246650563));
#499=CARTESIAN_POINT('',(-28.8028790993657,-12.1918710909673,1.68261615822619));
#500=CARTESIAN_POINT('',(-28.6220043089397,-11.9779625532097,2.23204576683138));
#501=CARTESIAN_POINT('',(-28.434057789239,-11.7588879550344,2.77574931802437));
#502=CARTESIAN_POINT('',(-28.2391013951872,-11.5346797070471,3.31395612394066));
#503=CARTESIAN_POINT('',(-28.0371874323556,-11.3053665261959,3.84687399203681));
#504=CARTESIAN_POINT('',(-27.828263099171,-11.0708671248725,4.37492305843061));
#505=CARTESIAN_POINT('',(-27.6044274184078,-10.8223990559015,4.91747086895888));
#506=CARTESIAN_POINT('',(-27.3567324349906,-10.5504626890021,5.4927312053856));
#507=CARTESIAN_POINT('',(-27.0411970638274,-10.2080014919163,6.19287388692955));
#508=CARTESIAN_POINT('',(-26.6597379319619,-9.79966402604416,6.99289504746522));
#509=CARTESIAN_POINT('',(-26.2151121278492,-9.3308756682671,7.8677921840568));
#510=CARTESIAN_POINT('',(-25.8007699305988,-8.90014406928545,8.63487695079587));
#511=CARTESIAN_POINT('',(-25.4334064524751,-8.52252045499336,9.2821987100022));
#512=CARTESIAN_POINT('',(-25.1295458387927,-8.21277834631274,9.79800541211689));
#513=CARTESIAN_POINT('',(-24.8409473005353,-7.92074289192812,10.2720237013599));
#514=CARTESIAN_POINT('',(-24.527384782285,-7.60558286170404,10.7715426991851));
#515=CARTESIAN_POINT('',(-24.1448007067824,-7.22398810908306,11.3601077781367));
#516=CARTESIAN_POINT('',(-23.6891372815235,-6.77384031031701,12.031078126019));
#517=CARTESIAN_POINT('',(-23.2234075077088,-6.31850179169513,12.685180664486));
#518=CARTESIAN_POINT('',(-22.8181474844916,-5.9258970148861,13.2312281810392));
#519=CARTESIAN_POINT('',(-22.4778335867955,-5.59850968411948,13.6755505735152));
#520=CARTESIAN_POINT('',(-22.170912580142,-5.30498504719552,14.0658126396221));
#521=CARTESIAN_POINT('',(-21.8626047078033,-5.01185194300038,14.4477820972641));
#522=CARTESIAN_POINT('',(-21.5538033817933,-4.71994296889504,14.8207286096432));
#523=CARTESIAN_POINT('',(-21.2436907830799,-4.42847207974068,15.1859880628698));
#524=CARTESIAN_POINT('',(-20.9329574034831,-4.13808289317002,15.5430465071929));
#525=CARTESIAN_POINT('',(-20.6215436239532,-3.84871264374477,15.8922771039644));
#526=CARTESIAN_POINT('',(-20.3110289539054,-3.56181098960288,16.2322613179945));
#527=CARTESIAN_POINT('',(-20.0008472725015,-3.27683124813149,16.5639899501246));
#528=CARTESIAN_POINT('',(-19.6918219713129,-2.99450993581386,16.8869228196398));
#529=CARTESIAN_POINT('',(-19.3833113105318,-2.71424267584681,17.2020531059402));
#530=CARTESIAN_POINT('',(-19.0427241822204,-2.40657258565455,17.5422330339511));
#531=CARTESIAN_POINT('',(-18.6682459716123,-2.07049870682407,17.9067536465299));
#532=CARTESIAN_POINT('',(-18.2586310748314,-1.70566668628974,18.2940520780466));
#533=CARTESIAN_POINT('',(-17.8820430379221,-1.37282040802488,18.6400005026196));
#534=CARTESIAN_POINT('',(-17.5391672637819,-1.07183511664457,18.94720237526));
#535=CARTESIAN_POINT('',(-17.2309003102738,-0.802825020862858,19.2175874219023));
#536=CARTESIAN_POINT('',(-16.9216500818245,-0.534570983823487,19.4831510454314));
#537=CARTESIAN_POINT('',(-16.6115085386381,-0.267177860540975,19.7439178883228));
#538=CARTESIAN_POINT('',(-16.4035368961063,-0.088981418715303,19.9151323788169));
#539=CARTESIAN_POINT('',(-16.2993574956774,1.4344081478157E-12,19.9999999999998));
#540=CARTESIAN_POINT('',(-16.409010998409,1.3997691894474E-12,18.6050176396502));
#541=CARTESIAN_POINT('',(-28.2626508766343,-11.7418556583094,-1.59872115546023E-14));
#542=CARTESIAN_POINT('',(-16.4090109982265,1.3997691894474E-12,18.6050176396502));
#543=CARTESIAN_POINT('',(-16.584366583834,-0.151637433574115,18.4545917371798));
#544=CARTESIAN_POINT('',(-16.9326907871638,-0.454474120870494,18.150237501247));
#545=CARTESIAN_POINT('',(-17.4478773439271,-0.907061107022299,17.6832052218302));
#546=CARTESIAN_POINT('',(-17.9556474145793,-1.35764038477421,17.2056631942469));
#547=CARTESIAN_POINT('',(-18.4558864545445,-1.80589651893381,16.7175854124143));
#548=CARTESIAN_POINT('',(-18.948726520016,-2.25175160688586,16.2186819049341));
#549=CARTESIAN_POINT('',(-19.4341364423239,-2.69500191875739,15.7087835080562));
#550=CARTESIAN_POINT('',(-19.9122252994182,-3.13559070497517,15.1875313752946));
#551=CARTESIAN_POINT('',(-20.3827096703333,-3.57311602192879,14.6549580877513));
#552=CARTESIAN_POINT('',(-20.8451657752488,-4.0070518782629,14.1112634548242));
#553=CARTESIAN_POINT('',(-21.2989334781862,-4.43664935264596,13.5569752135799));
#554=CARTESIAN_POINT('',(-21.7433114805801,-4.86111505714669,12.99275028751));
#555=CARTESIAN_POINT('',(-22.1778849764486,-5.27992427015984,12.4189640425243));
#556=CARTESIAN_POINT('',(-22.601765444224,-5.69209450604866,11.8366832150657));
#557=CARTESIAN_POINT('',(-23.0146062888163,-6.09715898867715,11.2463605540435));
#558=CARTESIAN_POINT('',(-23.4156046168422,-6.49419917041677,10.649196271631));
#559=CARTESIAN_POINT('',(-23.8051784268143,-6.88350587799264,10.044636261581));
#560=CARTESIAN_POINT('',(-24.1823899015304,-7.26402917539846,9.43420286954091));
#561=CARTESIAN_POINT('',(-24.5469480413959,-7.63535458851056,8.81855650557962));
#562=CARTESIAN_POINT('',(-24.8974017904753,-7.99586366365273,8.20055388041845));
#563=CARTESIAN_POINT('',(-25.2344562549684,-8.34613432426343,7.57948471342932));
#564=CARTESIAN_POINT('',(-25.5574116787221,-8.68530296057408,6.95716585985073));
#565=CARTESIAN_POINT('',(-25.8669766056039,-9.01398012868176,6.33280431942757));
#566=CARTESIAN_POINT('',(-26.1625268888582,-9.33136653556815,5.7083243630101));
#567=CARTESIAN_POINT('',(-26.4454160625019,-9.6387952585827,5.08146432618754));
#568=CARTESIAN_POINT('',(-26.7155399716598,-9.9360612105653,4.45288052457029));
#569=CARTESIAN_POINT('',(-26.9734763295294,-10.2237216783527,3.82159213003028));
#570=CARTESIAN_POINT('',(-27.2185183213884,-10.5009016272682,3.189806812347));
#571=CARTESIAN_POINT('',(-27.4512925104068,-10.7682189981762,2.55646318327813));
#572=CARTESIAN_POINT('',(-27.6717815729079,-11.0255776583834,1.92208320496524));
#573=CARTESIAN_POINT('',(-27.8806689625612,-11.273720947928,1.28503098414406));
#574=CARTESIAN_POINT('',(-28.0780211859832,-11.5126918652896,0.64531237193257));
#575=CARTESIAN_POINT('',(-28.20237120848,-11.6664629250043,0.215488053613827));
#576=CARTESIAN_POINT('',(-28.2626508766699,-11.7418556583094,-1.27043264797067E-10));
#577=CARTESIAN_POINT('',(29.,1.39862996068237E-12,18.6050176396502));
#578=CARTESIAN_POINT('',(29.,1.3997691894474E-12,18.6050176396502));
#579=VECTOR('',#580,1.);
#580=DIRECTION('',(-1.,0.,0.));
#581=CARTESIAN_POINT('',(29.,-11.7418556583094,-1.53950926081355E-14));
#582=AXIS2_PLACEMENT_3D('',#583,#584,#585);
#583=CARTESIAN_POINT('',(29.,34.5090794436973,-16.1818108439682));
#584=DIRECTION('',(1.,0.,0.));
#585=DIRECTION('',(0.,-0.704266927422365,0.709935275175886));
#586=CARTESIAN_POINT('',(29.,-11.7418556583094,-1.59872115546023E-14));
#587=VECTOR('',#588,1.);
#588=DIRECTION('',(-1.,1.24084848480187E-16,0.));
#589=CARTESIAN_POINT('',(-28.2626508766343,11.7418556583114,-3.5527136788005E-15));
#590=CARTESIAN_POINT('',(-28.2626508766699,11.7418556583114,-1.27018395801315E-10));
#591=CARTESIAN_POINT('',(-28.2113127716346,11.6776461194926,0.183524288267543));
#592=CARTESIAN_POINT('',(-28.1061261409565,11.547357508933,0.548909771168833));
#593=CARTESIAN_POINT('',(-27.9408807459795,11.346352820984,1.09217609807374));
#594=CARTESIAN_POINT('',(-27.7684103248134,11.140022757744,1.63025226549873));
#595=CARTESIAN_POINT('',(-27.58886192134,10.9284999579134,2.16308863398509));
#596=CARTESIAN_POINT('',(-27.4023986089597,10.7119374329091,2.69058839277404));
#597=CARTESIAN_POINT('',(-27.20910357194,10.4903981066243,3.21287262015204));
#598=CARTESIAN_POINT('',(-27.0090660617497,10.2639567420737,3.73001901173387));
#599=CARTESIAN_POINT('',(-26.8022937559374,10.0326017607341,4.24228015418064));
#600=CARTESIAN_POINT('',(-26.5810278898517,9.78773422264629,4.7683248537952));
#601=CARTESIAN_POINT('',(-26.3364564310484,9.52002312947218,5.32581521630639));
#602=CARTESIAN_POINT('',(-26.0252267842961,9.18321463623486,6.00407634479377));
#603=CARTESIAN_POINT('',(-25.6493558552173,8.78200612818942,6.77891485324186));
#604=CARTESIAN_POINT('',(-25.2116834890381,8.32185847430237,7.62611644270057));
#605=CARTESIAN_POINT('',(-24.8041903614403,7.89946010547579,8.36877833351848));
#606=CARTESIAN_POINT('',(-24.4431557994968,7.52942323148194,8.99538047368714));
#607=CARTESIAN_POINT('',(-24.1447075026057,7.22609982939469,9.49457083304914));
#608=CARTESIAN_POINT('',(-23.8613809170696,6.94026453774315,9.95325303231285));
#609=CARTESIAN_POINT('',(-23.5536898682133,6.63195771173157,10.4365223934069));
#610=CARTESIAN_POINT('',(-23.1784449160367,6.25886369554882,11.0058511807518));
#611=CARTESIAN_POINT('',(-22.7321128624909,5.8193738583696,11.6542704892501));
#612=CARTESIAN_POINT('',(-22.2768940615619,5.37582144750819,12.2853007742408));
#613=CARTESIAN_POINT('',(-21.8826467969768,4.99522064326432,12.8098373756169));
#614=CARTESIAN_POINT('',(-21.5537263280922,4.67991461433499,13.2341049471095));
#615=CARTESIAN_POINT('',(-21.2600144243811,4.40001714554741,13.6032919504127));
#616=CARTESIAN_POINT('',(-20.9675449270681,4.12291563549815,13.9617704963598));
#617=CARTESIAN_POINT('',(-20.6780760699191,3.85021204442032,14.30798917336));
#618=CARTESIAN_POINT('',(-20.3900981090065,3.58042381622327,14.6443174907084));
#619=CARTESIAN_POINT('',(-20.1051744964259,3.3149653136442,14.9694189906134));
#620=CARTESIAN_POINT('',(-19.8233353313016,3.05380500208515,15.2837809689064));
#621=CARTESIAN_POINT('',(-19.5478724942194,2.79990879941497,15.5843532798425));
#622=CARTESIAN_POINT('',(-19.2775107073894,2.55200515004866,15.8731798623901));
#623=CARTESIAN_POINT('',(-19.0140080701685,2.31161653544237,16.1489730497967));
#624=CARTESIAN_POINT('',(-18.7559875805259,2.0773991022279,16.4137324375459));
#625=CARTESIAN_POINT('',(-18.5052028725509,1.85085309755034,16.6662076055487));
#626=CARTESIAN_POINT('',(-18.2587046262554,1.62923590519899,16.9098367397281));
#627=CARTESIAN_POINT('',(-18.0166317303798,1.41261780814318,17.1448304636902));
#628=CARTESIAN_POINT('',(-17.7775242246462,1.19964978600011,17.3728926250089));
#629=CARTESIAN_POINT('',(-17.5430773426309,0.991794024261986,17.592700933341));
#630=CARTESIAN_POINT('',(-17.3118163866929,0.787695507774141,17.8059208566024));
#631=CARTESIAN_POINT('',(-17.0838355501459,0.587400819060947,18.01269454444));
#632=CARTESIAN_POINT('',(-16.8576285275076,0.389561025776556,18.2145689510736));
#633=CARTESIAN_POINT('',(-16.6332850940243,0.194234771571963,18.4116170902047));
#634=CARTESIAN_POINT('',(-16.4836408426676,0.0645351327285706,18.540997796848));
#635=CARTESIAN_POINT('',(-16.4090109982265,1.3997691894474E-12,18.6050176396502));
#636=CARTESIAN_POINT('',(29.,11.7418556583114,-2.368475785867E-15));
#637=CARTESIAN_POINT('',(29.,11.7418556583114,-1.77635683940025E-15));
#638=VECTOR('',#639,1.);
#639=DIRECTION('',(-1.,0.,-3.10212121200467E-17));
#640=AXIS2_PLACEMENT_3D('',#641,#642,#643);
#641=CARTESIAN_POINT('',(29.,-34.5090794436974,-16.1818108439682));
#642=DIRECTION('',(1.,0.,0.));
#643=DIRECTION('',(0.,0.943896634734835,0.33024103763199));
#644=CARTESIAN_POINT('',(-28.2626508766343,11.7418556582197,8.88178419700125E-15));
#645=VECTOR('',#646,1.);
#646=DIRECTION('',(3.02568331804845E-16,-1.,-3.78210414756056E-17));
#647=CARTESIAN_POINT('',(29.,-11.7418556583094,0.));
#648=VECTOR('',#649,1.);
#649=DIRECTION('',(0.,1.,0.));
#650=CARTESIAN_POINT('',(29.,12.8000000000016,2.15531296513897E-13));
#651=CARTESIAN_POINT('',(29.,12.8000000000016,2.1493917756743E-13));
#652=VECTOR('',#653,1.);
#653=DIRECTION('',(-1.,0.,0.));
#654=CARTESIAN_POINT('',(29.,13.8,2.59052039079203E-16));
#655=CARTESIAN_POINT('',(29.,12.8000000000016,0.));
#656=VECTOR('',#657,1.);
#657=DIRECTION('',(0.,1.,0.));
#658=CARTESIAN_POINT('',(-30.5,13.8,-1.11022302462516E-16));
#659=CARTESIAN_POINT('',(-30.5,13.8,0.));
#660=VECTOR('',#661,1.);
#661=DIRECTION('',(1.,-2.98547367966429E-17,5.59776314937054E-18));
#662=CARTESIAN_POINT('',(-30.5,5.,-3.31933083367653E-17));
#663=CARTESIAN_POINT('',(-30.5,5.,0.));
#664=VECTOR('',#665,1.);
#665=DIRECTION('',(0.,1.,0.));
#666=CARTESIAN_POINT('',(-29.5,5.,-1.07208176645109E-16));
#667=CARTESIAN_POINT('',(-29.5,5.,-1.60812264967664E-16));
#668=VECTOR('',#669,1.);
#669=DIRECTION('',(-1.,0.,0.));
#670=CARTESIAN_POINT('',(-29.5,-5.,2.29672856559835E-16));
#671=CARTESIAN_POINT('',(-29.5,-5.,0.));
#672=VECTOR('',#673,1.);
#673=DIRECTION('',(0.,1.,0.));
#674=CARTESIAN_POINT('',(-30.5,-5.,1.88851296588257E-16));
#675=CARTESIAN_POINT('',(-30.5,-5.,2.83276944882386E-16));
#676=VECTOR('',#677,1.);
#677=DIRECTION('',(1.,-1.77635683940025E-15,0.));
#678=CARTESIAN_POINT('',(-30.5,-13.8,-6.66133814775094E-16));
#679=CARTESIAN_POINT('',(-30.5,-13.8,0.));
#680=VECTOR('',#681,1.);
#681=DIRECTION('',(0.,1.,0.));
#682=CARTESIAN_POINT('',(29.,-13.8,0.));
#683=CARTESIAN_POINT('',(-30.5,-13.8,1.11022302462516E-16));
#684=VECTOR('',#685,1.);
#685=DIRECTION('',(1.,-5.97094735932857E-17,-3.73184209958036E-18));
#686=CARTESIAN_POINT('',(29.,-12.7999999999998,-5.32907051820075E-14));
#687=CARTESIAN_POINT('',(29.,-13.8,0.));
#688=VECTOR('',#689,1.);
#689=DIRECTION('',(0.,1.,0.));
#690=CARTESIAN_POINT('',(29.,-12.7999999999997,-5.32907051820075E-14));
#691=VECTOR('',#692,1.);
#692=DIRECTION('',(-1.,0.,0.));
#693=CARTESIAN_POINT('',(29.,6.77343665851748E-13,19.9999999999999));
#694=CARTESIAN_POINT('',(29.,7.31859017832903E-13,19.9999999999992));
#695=VECTOR('',#696,1.);
#696=DIRECTION('',(-1.,0.,0.));
#697=CARTESIAN_POINT('',(29.,12.8000000000016,2.15531296513897E-13));
#698=AXIS2_PLACEMENT_3D('',#699,#700,#701);
#699=CARTESIAN_POINT('',(29.,-34.5090794436974,-16.1818108439682));
#700=DIRECTION('',(-1.,0.,0.));
#701=DIRECTION('',(0.,0.690181588873933,0.723636216879347));
#702=CARTESIAN_POINT('',(29.,-12.7999999999998,-5.32907051820075E-14));
#703=AXIS2_PLACEMENT_3D('',#704,#705,#706);
#704=CARTESIAN_POINT('',(29.,34.5090794436973,-16.1818108439682));
#705=DIRECTION('',(-1.,0.,0.));
#706=DIRECTION('',(0.,-0.946181588873941,0.323636216879362));
#707=CARTESIAN_POINT('',(29.,-14.8,-1.));
#708=CARTESIAN_POINT('',(29.,-13.8,-2.));
#709=CARTESIAN_POINT('',(29.,-14.8,-1.));
#710=VECTOR('',#711,1.);
#711=DIRECTION('',(0.,0.707106781186547,-0.707106781186548));
#712=CARTESIAN_POINT('',(29.,13.8,-2.));
#713=CARTESIAN_POINT('',(29.,-13.8,-2.));
#714=VECTOR('',#715,1.);
#715=DIRECTION('',(0.,1.,0.));
#716=CARTESIAN_POINT('',(29.,14.8,-1.));
#717=CARTESIAN_POINT('',(29.,14.8,-1.));
#718=VECTOR('',#719,1.);
#719=DIRECTION('',(0.,-0.707106781186547,-0.707106781186548));
#720=CARTESIAN_POINT('',(29.,14.8,-1.));
#721=CARTESIAN_POINT('',(29.,13.8,2.59052039079203E-16));
#722=CARTESIAN_POINT('',(29.,13.8,4.44089209850063E-16));
#723=VECTOR('',#724,1.);
#724=DIRECTION('',(0.,0.707106781186547,-0.707106781186548));
#725=CARTESIAN_POINT('',(29.,-13.8,0.));
#726=CARTESIAN_POINT('',(29.,-14.8,-1.));
#727=CARTESIAN_POINT('',(29.,-13.8,-1.11022302462516E-15));
#728=VECTOR('',#729,1.);
#729=DIRECTION('',(0.,-0.707106781186547,-0.707106781186548));
#730=CARTESIAN_POINT('',(-30.5,14.8,-1.));
#731=CARTESIAN_POINT('',(29.,14.8,-1.));
#732=VECTOR('',#733,1.);
#733=DIRECTION('',(-1.,0.,0.));
#734=CARTESIAN_POINT('',(-30.5,13.8,-1.11022302462516E-16));
#735=CARTESIAN_POINT('',(-30.5,14.8,-1.));
#736=CARTESIAN_POINT('',(-30.5,13.8,-1.11022302462516E-16));
#737=VECTOR('',#738,1.);
#738=DIRECTION('',(0.,0.707106781186548,-0.707106781186547));
#739=CARTESIAN_POINT('',(-30.5,-3.,2.));
#740=CARTESIAN_POINT('',(-30.5,-5.,1.88851296588257E-16));
#741=AXIS2_PLACEMENT_3D('',#742,#743,#744);
#742=CARTESIAN_POINT('',(-30.5,-2.99999999999998,0.));
#743=DIRECTION('',(-1.,0.,0.));
#744=DIRECTION('',(0.,-1.,0.));
#745=CARTESIAN_POINT('',(-30.5,3.,2.));
#746=CARTESIAN_POINT('',(-30.5,-3.,2.));
#747=CARTESIAN_POINT('',(-30.5,3.,2.));
#748=VECTOR('',#749,1.);
#749=DIRECTION('',(0.,-1.,0.));
#750=CARTESIAN_POINT('',(-30.5,5.,-3.31933083367653E-17));
#751=CARTESIAN_POINT('',(-30.5,3.,2.));
#752=AXIS2_PLACEMENT_3D('',#753,#754,#755);
#753=CARTESIAN_POINT('',(-30.5,3.,0.));
#754=DIRECTION('',(-1.,0.,0.));
#755=DIRECTION('',(0.,0.,1.));
#756=CARTESIAN_POINT('',(-30.5,13.8,-2.));
#757=CARTESIAN_POINT('',(-30.5,14.8,-1.));
#758=VECTOR('',#759,1.);
#759=DIRECTION('',(0.,-0.707106781186547,-0.707106781186547));
#760=CARTESIAN_POINT('',(-30.5,-13.8,-2.));
#761=CARTESIAN_POINT('',(-30.5,13.8,-2.));
#762=VECTOR('',#763,1.);
#763=DIRECTION('',(0.,-1.,0.));
#764=CARTESIAN_POINT('',(-30.5,-14.8,-1.));
#765=CARTESIAN_POINT('',(-30.5,-13.8,-2.));
#766=VECTOR('',#767,1.);
#767=DIRECTION('',(0.,-0.707106781186547,0.707106781186548));
#768=CARTESIAN_POINT('',(-30.5,-14.8,-1.));
#769=CARTESIAN_POINT('',(-30.5,-13.8,-6.66133814775094E-16));
#770=CARTESIAN_POINT('',(-30.5,-14.8,-1.));
#771=VECTOR('',#772,1.);
#772=DIRECTION('',(0.,0.707106781186547,0.707106781186548));
#773=CARTESIAN_POINT('',(-29.5,3.,2.));
#774=CARTESIAN_POINT('',(-29.5,3.,2.));
#775=VECTOR('',#776,1.);
#776=DIRECTION('',(-1.,0.,0.));
#777=CARTESIAN_POINT('',(-29.5,3.,2.));
#778=CARTESIAN_POINT('',(-29.5,5.,-1.07208176645109E-16));
#779=AXIS2_PLACEMENT_3D('',#780,#781,#782);
#780=CARTESIAN_POINT('',(-29.5,3.,0.));
#781=DIRECTION('',(1.,0.,0.));
#782=DIRECTION('',(0.,1.,0.));
#783=CARTESIAN_POINT('',(-29.5,-5.,2.29672856559835E-16));
#784=CARTESIAN_POINT('',(-29.5,-3.,2.));
#785=AXIS2_PLACEMENT_3D('',#786,#787,#788);
#786=CARTESIAN_POINT('',(-29.5,-2.99999999999998,0.));
#787=DIRECTION('',(1.,0.,0.));
#788=DIRECTION('',(0.,-7.105427357601E-15,1.));
#789=CARTESIAN_POINT('',(-29.5,-3.,2.));
#790=CARTESIAN_POINT('',(-29.5,-3.,2.));
#791=VECTOR('',#792,1.);
#792=DIRECTION('',(0.,1.,0.));
#793=CARTESIAN_POINT('',(-30.5,-3.,2.));
#794=VECTOR('',#795,1.);
#795=DIRECTION('',(1.,-1.77635683940024E-15,0.));
#796=CARTESIAN_POINT('',(29.,-14.8,-1.));
#797=VECTOR('',#798,1.);
#798=DIRECTION('',(-1.,2.98547367966429E-17,0.));
#799=CARTESIAN_POINT('',(-30.5,-13.8,-2.));
#800=VECTOR('',#801,1.);
#801=DIRECTION('',(1.,-5.97094735932857E-17,7.46368419916072E-18));
#802=CARTESIAN_POINT('',(-30.5,13.8,-2.));
#803=VECTOR('',#804,1.);
#804=DIRECTION('',(1.,-2.98547367966429E-17,-7.46368419916072E-18));
ENDSEC;
END-ISO-10303-21;
