ISO-10303-21;
HEADER;
FILE_DESCRIPTION(('STEP AP242'),
    '1');
FILE_NAME('upper case',
    '',
    ('UNSPECIFIED'),
    ('UNSPECIFIED'),
    'C3D Converter',
    'C3D Toolkit',
    '');
FILE_SCHEMA(('AP242_MANAGED_MODEL_BASED_3D_ENGINEERING_MIM_LF { 1 0 10303 442 1 1 4 }'));
ENDSEC;

DATA;
#1=PRODUCT_DEFINITION('','UNSPECIFIED',#28,#31);
#2=SHAPE_DEFINITION_REPRESENTATION(#26,#3);
#3=SHAPE_REPRESENTATION('NONE',(#4),#8);
#4=AXIS2_PLACEMENT_3D('',#5,#6,#7);
#5=CARTESIAN_POINT('',(0.,0.,0.));
#6=DIRECTION('',(0.,0.,1.));
#7=DIRECTION('',(1.,0.,0.));
#8=(GEOMETRIC_REPRESENTATION_CONTEXT(3)GLOBAL_UNCERTAINTY_ASSIGNED_CONTEXT((#10))
GLOBAL_UNIT_ASSIGNED_CONTEXT((#9,#11,#12))REPRESENTATION_CONTEXT('NONE','NONE'));
#9=(LENGTH_UNIT()NAMED_UNIT(*)SI_UNIT(.MILLI.,.METRE.));
#10=UNCERTAINTY_MEASURE_WITH_UNIT(LENGTH_MEASURE(1.E-5),#9,'NONE','NONE');
#11=(NAMED_UNIT(*)PLANE_ANGLE_UNIT()SI_UNIT($,.RADIAN.));
#12=(NAMED_UNIT(*)SI_UNIT($,.STERADIAN.)SOLID_ANGLE_UNIT());
#13=MANIFOLD_SOLID_BREP('',#14);
#14=CLOSED_SHELL('',(#53,#62,#71,#80,#89,#98,#107,#116,#125,#134,#143,#152));
#15=COLOUR_RGB('',0.564705882352941,0.564705882352941,0.564705882352941);
#16=FILL_AREA_STYLE_COLOUR('',#15);
#17=FILL_AREA_STYLE($,(#16));
#18=SURFACE_STYLE_FILL_AREA(#17);
#19=SURFACE_SIDE_STYLE('',(#18));
#20=SURFACE_STYLE_USAGE(.BOTH.,#19);
#21=PRESENTATION_STYLE_ASSIGNMENT((#20));
#22=MECHANICAL_DESIGN_GEOMETRIC_PRESENTATION_REPRESENTATION('NONE',(#23,#61,#70,
#79,#88,#97,#106,#115,#124,#133,#142,#151,#160),#8);
#23=STYLED_ITEM('',(#21),#13);
#24=ADVANCED_BREP_SHAPE_REPRESENTATION('NONE',(#13),#8);
#25=SHAPE_REPRESENTATION_RELATIONSHIP('','',#3,#24);
#26=PRODUCT_DEFINITION_SHAPE('NONE','NONE',#1);
#27=MECHANICAL_CONTEXT('NONE',#32,'mechanical');
#28=PRODUCT_DEFINITION_FORMATION_WITH_SPECIFIED_SOURCE('ANY','UNSPECIFIED',#29,.NOT_KNOWN.);
#29=PRODUCT('','upper case','NONE',(#27));
#30=PRODUCT_RELATED_PRODUCT_CATEGORY('detail','',(#29));
#31=DESIGN_CONTEXT('detailed design',#32,'design');
#32=APPLICATION_CONTEXT('configuration controlled 3d designs of mechanical parts and assemblies');
#33=APPLICATION_PROTOCOL_DEFINITION('international standard','config_control_design',
1994,#32);
#34=CC_DESIGN_DATE_AND_TIME_ASSIGNMENT(#35,#39,(#1));
#35=DATE_AND_TIME(#36,#37);
#36=CALENDAR_DATE(0,1,1);
#37=LOCAL_TIME(0,0,0.,#38);
#38=COORDINATED_UNIVERSAL_TIME_OFFSET(0,0,.AHEAD.);
#39=DATE_TIME_ROLE('creation_date');
#40=CC_DESIGN_APPROVAL(#41,(#1));
#41=APPROVAL(#42,'UNSPECIFIED');
#42=APPROVAL_STATUS('not_yet_approved');
#43=APPROVAL_DATE_TIME(#44,#41);
#44=DATE_AND_TIME(#45,#46);
#45=CALENDAR_DATE(0,1,1);
#46=LOCAL_TIME(0,0,0.,#47);
#47=COORDINATED_UNIVERSAL_TIME_OFFSET(0,0,.AHEAD.);
#48=PERSON('UNSPECIFIED','savatneevvg','UNSPECIFIED',('UNSPECIFIED'),('UNSPECIFIED'),
('UNSPECIFIED'));
#49=ORGANIZATION('UNSPECIFIED','UNSPECIFIED','UNSPECIFIED');
#50=PERSON_AND_ORGANIZATION(#48,#49);
#51=PERSON_AND_ORGANIZATION_ROLE('creator');
#52=CC_DESIGN_PERSON_AND_ORGANIZATION_ASSIGNMENT(#50,#51,(#28,#1));
#53=ADVANCED_FACE('',(#161),#163,.T.);
#54=COLOUR_RGB('',0.564705882352941,0.564705882352941,0.564705882352941);
#55=FILL_AREA_STYLE_COLOUR('',#54);
#56=FILL_AREA_STYLE($,(#55));
#57=SURFACE_STYLE_FILL_AREA(#56);
#58=SURFACE_SIDE_STYLE('',(#57));
#59=SURFACE_STYLE_USAGE(.BOTH.,#58);
#60=PRESENTATION_STYLE_ASSIGNMENT((#59));
#61=STYLED_ITEM('',(#60),#53);
#62=ADVANCED_FACE('',(#168),#170,.T.);
#63=COLOUR_RGB('',0.564705882352941,0.564705882352941,0.564705882352941);
#64=FILL_AREA_STYLE_COLOUR('',#63);
#65=FILL_AREA_STYLE($,(#64));
#66=SURFACE_STYLE_FILL_AREA(#65);
#67=SURFACE_SIDE_STYLE('',(#66));
#68=SURFACE_STYLE_USAGE(.BOTH.,#67);
#69=PRESENTATION_STYLE_ASSIGNMENT((#68));
#70=STYLED_ITEM('',(#69),#62);
#71=ADVANCED_FACE('',(#175),#177,.T.);
#72=COLOUR_RGB('',0.564705882352941,0.564705882352941,0.564705882352941);
#73=FILL_AREA_STYLE_COLOUR('',#72);
#74=FILL_AREA_STYLE($,(#73));
#75=SURFACE_STYLE_FILL_AREA(#74);
#76=SURFACE_SIDE_STYLE('',(#75));
#77=SURFACE_STYLE_USAGE(.BOTH.,#76);
#78=PRESENTATION_STYLE_ASSIGNMENT((#77));
#79=STYLED_ITEM('',(#78),#71);
#80=ADVANCED_FACE('',(#182),#184,.T.);
#81=COLOUR_RGB('',0.564705882352941,0.564705882352941,0.564705882352941);
#82=FILL_AREA_STYLE_COLOUR('',#81);
#83=FILL_AREA_STYLE($,(#82));
#84=SURFACE_STYLE_FILL_AREA(#83);
#85=SURFACE_SIDE_STYLE('',(#84));
#86=SURFACE_STYLE_USAGE(.BOTH.,#85);
#87=PRESENTATION_STYLE_ASSIGNMENT((#86));
#88=STYLED_ITEM('',(#87),#80);
#89=ADVANCED_FACE('',(#189),#191,.T.);
#90=COLOUR_RGB('',0.564705882352941,0.564705882352941,0.564705882352941);
#91=FILL_AREA_STYLE_COLOUR('',#90);
#92=FILL_AREA_STYLE($,(#91));
#93=SURFACE_STYLE_FILL_AREA(#92);
#94=SURFACE_SIDE_STYLE('',(#93));
#95=SURFACE_STYLE_USAGE(.BOTH.,#94);
#96=PRESENTATION_STYLE_ASSIGNMENT((#95));
#97=STYLED_ITEM('',(#96),#89);
#98=ADVANCED_FACE('',(#196),#198,.T.);
#99=COLOUR_RGB('',0.564705882352941,0.564705882352941,0.564705882352941);
#100=FILL_AREA_STYLE_COLOUR('',#99);
#101=FILL_AREA_STYLE($,(#100));
#102=SURFACE_STYLE_FILL_AREA(#101);
#103=SURFACE_SIDE_STYLE('',(#102));
#104=SURFACE_STYLE_USAGE(.BOTH.,#103);
#105=PRESENTATION_STYLE_ASSIGNMENT((#104));
#106=STYLED_ITEM('',(#105),#98);
#107=ADVANCED_FACE('',(#203),#205,.F.);
#108=COLOUR_RGB('',0.564705882352941,0.564705882352941,0.564705882352941);
#109=FILL_AREA_STYLE_COLOUR('',#108);
#110=FILL_AREA_STYLE($,(#109));
#111=SURFACE_STYLE_FILL_AREA(#110);
#112=SURFACE_SIDE_STYLE('',(#111));
#113=SURFACE_STYLE_USAGE(.BOTH.,#112);
#114=PRESENTATION_STYLE_ASSIGNMENT((#113));
#115=STYLED_ITEM('',(#114),#107);
#116=ADVANCED_FACE('',(#210),#212,.F.);
#117=COLOUR_RGB('',0.564705882352941,0.564705882352941,0.564705882352941);
#118=FILL_AREA_STYLE_COLOUR('',#117);
#119=FILL_AREA_STYLE($,(#118));
#120=SURFACE_STYLE_FILL_AREA(#119);
#121=SURFACE_SIDE_STYLE('',(#120));
#122=SURFACE_STYLE_USAGE(.BOTH.,#121);
#123=PRESENTATION_STYLE_ASSIGNMENT((#122));
#124=STYLED_ITEM('',(#123),#116);
#125=ADVANCED_FACE('',(#217),#219,.F.);
#126=COLOUR_RGB('',0.564705882352941,0.564705882352941,0.564705882352941);
#127=FILL_AREA_STYLE_COLOUR('',#126);
#128=FILL_AREA_STYLE($,(#127));
#129=SURFACE_STYLE_FILL_AREA(#128);
#130=SURFACE_SIDE_STYLE('',(#129));
#131=SURFACE_STYLE_USAGE(.BOTH.,#130);
#132=PRESENTATION_STYLE_ASSIGNMENT((#131));
#133=STYLED_ITEM('',(#132),#125);
#134=ADVANCED_FACE('',(#224),#226,.T.);
#135=COLOUR_RGB('',0.564705882352941,0.564705882352941,0.564705882352941);
#136=FILL_AREA_STYLE_COLOUR('',#135);
#137=FILL_AREA_STYLE($,(#136));
#138=SURFACE_STYLE_FILL_AREA(#137);
#139=SURFACE_SIDE_STYLE('',(#138));
#140=SURFACE_STYLE_USAGE(.BOTH.,#139);
#141=PRESENTATION_STYLE_ASSIGNMENT((#140));
#142=STYLED_ITEM('',(#141),#134);
#143=ADVANCED_FACE('',(#231),#233,.T.);
#144=COLOUR_RGB('',0.564705882352941,0.564705882352941,0.564705882352941);
#145=FILL_AREA_STYLE_COLOUR('',#144);
#146=FILL_AREA_STYLE($,(#145));
#147=SURFACE_STYLE_FILL_AREA(#146);
#148=SURFACE_SIDE_STYLE('',(#147));
#149=SURFACE_STYLE_USAGE(.BOTH.,#148);
#150=PRESENTATION_STYLE_ASSIGNMENT((#149));
#151=STYLED_ITEM('',(#150),#143);
#152=ADVANCED_FACE('',(#238),#240,.T.);
#153=COLOUR_RGB('',0.564705882352941,0.564705882352941,0.564705882352941);
#154=FILL_AREA_STYLE_COLOUR('',#153);
#155=FILL_AREA_STYLE($,(#154));
#156=SURFACE_STYLE_FILL_AREA(#155);
#157=SURFACE_SIDE_STYLE('',(#156));
#158=SURFACE_STYLE_USAGE(.BOTH.,#157);
#159=PRESENTATION_STYLE_ASSIGNMENT((#158));
#160=STYLED_ITEM('',(#159),#152);
#161=FACE_BOUND('',#162,.T.);
#162=EDGE_LOOP('',(#245,#246,#247,#248,#249,#250,#251,#252,#253,#254));
#163=PLANE('',#164);
#164=AXIS2_PLACEMENT_3D('',#165,#166,#167);
#165=CARTESIAN_POINT('',(-30.5,14.8,-2.));
#166=DIRECTION('',(-1.,0.,0.));
#167=DIRECTION('',(0.,-1.,0.));
#168=FACE_BOUND('',#169,.T.);
#169=EDGE_LOOP('',(#255,#256,#257,#258,#259,#260,#261,#262));
#170=PLANE('',#171);
#171=AXIS2_PLACEMENT_3D('',#172,#173,#174);
#172=CARTESIAN_POINT('',(0.,0.,0.));
#173=DIRECTION('',(0.,0.,1.));
#174=DIRECTION('',(6.12323399573677E-17,-1.,0.));
#175=FACE_BOUND('',#176,.T.);
#176=EDGE_LOOP('',(#263,#264,#265,#266));
#177=PLANE('',#178);
#178=AXIS2_PLACEMENT_3D('',#179,#180,#181);
#179=CARTESIAN_POINT('',(-29.5,-5.,0.));
#180=DIRECTION('',(1.,0.,0.));
#181=DIRECTION('',(0.,1.,0.));
#182=FACE_BOUND('',#183,.T.);
#183=EDGE_LOOP('',(#267,#268,#269,#270));
#184=PLANE('',#185);
#185=AXIS2_PLACEMENT_3D('',#186,#187,#188);
#186=CARTESIAN_POINT('',(30.,-13.8,-2.));
#187=DIRECTION('',(0.,-0.707106781186547,-0.707106781186547));
#188=DIRECTION('',(0.,-0.707106781186547,0.707106781186547));
#189=FACE_BOUND('',#190,.T.);
#190=EDGE_LOOP('',(#271,#272,#273,#274));
#191=PLANE('',#192);
#192=AXIS2_PLACEMENT_3D('',#193,#194,#195);
#193=CARTESIAN_POINT('',(30.,-14.8,-1.));
#194=DIRECTION('',(0.,-0.707106781186547,0.707106781186547));
#195=DIRECTION('',(0.,0.707106781186547,0.707106781186547));
#196=FACE_BOUND('',#197,.T.);
#197=EDGE_LOOP('',(#275,#276,#277,#278));
#198=PLANE('',#199);
#199=AXIS2_PLACEMENT_3D('',#200,#201,#202);
#200=CARTESIAN_POINT('',(0.,0.,2.));
#201=DIRECTION('',(0.,0.,1.));
#202=DIRECTION('',(6.12323399573677E-17,-1.,0.));
#203=FACE_BOUND('',#204,.T.);
#204=EDGE_LOOP('',(#279,#280,#281,#282));
#205=PLANE('',#206);
#206=AXIS2_PLACEMENT_3D('',#207,#208,#209);
#207=CARTESIAN_POINT('',(30.,14.8,-1.));
#208=DIRECTION('',(0.,-0.707106781186547,-0.707106781186547));
#209=DIRECTION('',(0.,-0.707106781186547,0.707106781186547));
#210=FACE_BOUND('',#211,.T.);
#211=EDGE_LOOP('',(#283,#284,#285,#286));
#212=PLANE('',#213);
#213=AXIS2_PLACEMENT_3D('',#214,#215,#216);
#214=CARTESIAN_POINT('',(30.,13.8,-2.));
#215=DIRECTION('',(0.,-0.707106781186547,0.707106781186547));
#216=DIRECTION('',(0.,0.707106781186547,0.707106781186547));
#217=FACE_BOUND('',#218,.T.);
#218=EDGE_LOOP('',(#287,#288,#289,#290));
#219=PLANE('',#220);
#220=AXIS2_PLACEMENT_3D('',#221,#222,#223);
#221=CARTESIAN_POINT('',(0.,0.,-2.));
#222=DIRECTION('',(0.,0.,1.));
#223=DIRECTION('',(6.12323399573677E-17,-1.,0.));
#224=FACE_BOUND('',#225,.T.);
#225=EDGE_LOOP('',(#291,#292,#293,#294,#295,#296));
#226=PLANE('',#227);
#227=AXIS2_PLACEMENT_3D('',#228,#229,#230);
#228=CARTESIAN_POINT('',(29.,-14.8,-2.));
#229=DIRECTION('',(1.,0.,0.));
#230=DIRECTION('',(0.,1.,0.));
#231=FACE_BOUND('',#232,.T.);
#232=EDGE_LOOP('',(#297,#298,#299,#300));
#233=CYLINDRICAL_SURFACE('',#234,2.);
#234=AXIS2_PLACEMENT_3D('',#235,#236,#237);
#235=CARTESIAN_POINT('',(-22.5,3.,0.));
#236=DIRECTION('',(-1.,-1.1842378929335E-16,0.));
#237=DIRECTION('',(-2.62953635073671E-32,2.22044604925031E-16,1.));
#238=FACE_BOUND('',#239,.T.);
#239=EDGE_LOOP('',(#301,#302,#303,#304));
#240=CYLINDRICAL_SURFACE('',#241,2.);
#241=AXIS2_PLACEMENT_3D('',#242,#243,#244);
#242=CARTESIAN_POINT('',(-37.5,-2.99999999999998,0.));
#243=DIRECTION('',(1.,-1.8947806286936E-15,0.));
#244=DIRECTION('',(0.,2.22044604925018E-16,1.));
#245=ORIENTED_EDGE('',*,*,#305,.F.);
#246=ORIENTED_EDGE('',*,*,#306,.F.);
#247=ORIENTED_EDGE('',*,*,#307,.F.);
#248=ORIENTED_EDGE('',*,*,#308,.T.);
#249=ORIENTED_EDGE('',*,*,#309,.T.);
#250=ORIENTED_EDGE('',*,*,#310,.T.);
#251=ORIENTED_EDGE('',*,*,#311,.T.);
#252=ORIENTED_EDGE('',*,*,#312,.T.);
#253=ORIENTED_EDGE('',*,*,#313,.T.);
#254=ORIENTED_EDGE('',*,*,#314,.T.);
#255=ORIENTED_EDGE('',*,*,#315,.F.);
#256=ORIENTED_EDGE('',*,*,#314,.F.);
#257=ORIENTED_EDGE('',*,*,#316,.T.);
#258=ORIENTED_EDGE('',*,*,#317,.T.);
#259=ORIENTED_EDGE('',*,*,#318,.T.);
#260=ORIENTED_EDGE('',*,*,#308,.F.);
#261=ORIENTED_EDGE('',*,*,#319,.F.);
#262=ORIENTED_EDGE('',*,*,#320,.F.);
#263=ORIENTED_EDGE('',*,*,#321,.F.);
#264=ORIENTED_EDGE('',*,*,#320,.T.);
#265=ORIENTED_EDGE('',*,*,#322,.F.);
#266=ORIENTED_EDGE('',*,*,#323,.F.);
#267=ORIENTED_EDGE('',*,*,#324,.F.);
#268=ORIENTED_EDGE('',*,*,#325,.F.);
#269=ORIENTED_EDGE('',*,*,#326,.T.);
#270=ORIENTED_EDGE('',*,*,#312,.F.);
#271=ORIENTED_EDGE('',*,*,#316,.F.);
#272=ORIENTED_EDGE('',*,*,#313,.F.);
#273=ORIENTED_EDGE('',*,*,#326,.F.);
#274=ORIENTED_EDGE('',*,*,#327,.F.);
#275=ORIENTED_EDGE('',*,*,#328,.T.);
#276=ORIENTED_EDGE('',*,*,#323,.T.);
#277=ORIENTED_EDGE('',*,*,#329,.T.);
#278=ORIENTED_EDGE('',*,*,#306,.T.);
#279=ORIENTED_EDGE('',*,*,#330,.F.);
#280=ORIENTED_EDGE('',*,*,#331,.T.);
#281=ORIENTED_EDGE('',*,*,#309,.F.);
#282=ORIENTED_EDGE('',*,*,#318,.F.);
#283=ORIENTED_EDGE('',*,*,#332,.F.);
#284=ORIENTED_EDGE('',*,*,#333,.F.);
#285=ORIENTED_EDGE('',*,*,#310,.F.);
#286=ORIENTED_EDGE('',*,*,#331,.F.);
#287=ORIENTED_EDGE('',*,*,#324,.T.);
#288=ORIENTED_EDGE('',*,*,#311,.F.);
#289=ORIENTED_EDGE('',*,*,#333,.T.);
#290=ORIENTED_EDGE('',*,*,#334,.F.);
#291=ORIENTED_EDGE('',*,*,#325,.T.);
#292=ORIENTED_EDGE('',*,*,#334,.T.);
#293=ORIENTED_EDGE('',*,*,#332,.T.);
#294=ORIENTED_EDGE('',*,*,#330,.T.);
#295=ORIENTED_EDGE('',*,*,#317,.F.);
#296=ORIENTED_EDGE('',*,*,#327,.T.);
#297=ORIENTED_EDGE('',*,*,#319,.T.);
#298=ORIENTED_EDGE('',*,*,#307,.T.);
#299=ORIENTED_EDGE('',*,*,#329,.F.);
#300=ORIENTED_EDGE('',*,*,#322,.T.);
#301=ORIENTED_EDGE('',*,*,#315,.T.);
#302=ORIENTED_EDGE('',*,*,#321,.T.);
#303=ORIENTED_EDGE('',*,*,#328,.F.);
#304=ORIENTED_EDGE('',*,*,#305,.T.);
#305=EDGE_CURVE('',#335,#336,#337,.F.);
#306=EDGE_CURVE('',#338,#335,#339,.T.);
#307=EDGE_CURVE('',#340,#338,#341,.F.);
#308=EDGE_CURVE('',#340,#342,#343,.T.);
#309=EDGE_CURVE('',#342,#344,#345,.T.);
#310=EDGE_CURVE('',#344,#346,#347,.T.);
#311=EDGE_CURVE('',#346,#348,#349,.T.);
#312=EDGE_CURVE('',#348,#350,#351,.T.);
#313=EDGE_CURVE('',#350,#352,#353,.T.);
#314=EDGE_CURVE('',#352,#336,#354,.T.);
#315=EDGE_CURVE('',#336,#355,#356,.T.);
#316=EDGE_CURVE('',#352,#357,#358,.T.);
#317=EDGE_CURVE('',#357,#359,#360,.T.);
#318=EDGE_CURVE('',#359,#342,#361,.F.);
#319=EDGE_CURVE('',#362,#340,#363,.T.);
#320=EDGE_CURVE('',#355,#362,#364,.T.);
#321=EDGE_CURVE('',#355,#365,#366,.F.);
#322=EDGE_CURVE('',#367,#362,#368,.F.);
#323=EDGE_CURVE('',#365,#367,#369,.T.);
#324=EDGE_CURVE('',#370,#348,#371,.F.);
#325=EDGE_CURVE('',#372,#370,#373,.T.);
#326=EDGE_CURVE('',#374,#350,#375,.T.);
#327=EDGE_CURVE('',#357,#372,#376,.T.);
#328=EDGE_CURVE('',#335,#365,#377,.T.);
#329=EDGE_CURVE('',#367,#338,#378,.T.);
#330=EDGE_CURVE('',#379,#359,#380,.F.);
#331=EDGE_CURVE('',#379,#344,#381,.T.);
#332=EDGE_CURVE('',#382,#379,#383,.F.);
#333=EDGE_CURVE('',#346,#384,#385,.T.);
#334=EDGE_CURVE('',#370,#382,#386,.T.);
#335=VERTEX_POINT('',#387);
#336=VERTEX_POINT('',#388);
#337=CIRCLE('',#389,2.00000000000001);
#338=VERTEX_POINT('',#393);
#339=LINE('',#394,#395);
#340=VERTEX_POINT('',#397);
#341=CIRCLE('',#398,2.);
#342=VERTEX_POINT('',#402);
#343=LINE('',#403,#404);
#344=VERTEX_POINT('',#406);
#345=LINE('',#407,#408);
#346=VERTEX_POINT('',#410);
#347=LINE('',#411,#412);
#348=VERTEX_POINT('',#414);
#349=LINE('',#415,#416);
#350=VERTEX_POINT('',#418);
#351=LINE('',#419,#420);
#352=VERTEX_POINT('',#422);
#353=LINE('',#423,#424);
#354=LINE('',#426,#427);
#355=VERTEX_POINT('',#429);
#356=LINE('',#430,#431);
#357=VERTEX_POINT('',#433);
#358=LINE('',#434,#435);
#359=VERTEX_POINT('',#437);
#360=LINE('',#438,#439);
#361=LINE('',#441,#442);
#362=VERTEX_POINT('',#444);
#363=LINE('',#445,#446);
#364=LINE('',#448,#449);
#365=VERTEX_POINT('',#451);
#366=CIRCLE('',#452,2.);
#367=VERTEX_POINT('',#456);
#368=CIRCLE('',#457,2.);
#369=LINE('',#461,#462);
#370=VERTEX_POINT('',#464);
#371=LINE('',#465,#466);
#372=VERTEX_POINT('',#468);
#373=LINE('',#469,#470);
#374=VERTEX_POINT('',#472);
#375=LINE('',#473,#474);
#376=LINE('',#476,#477);
#377=LINE('',#479,#480);
#378=LINE('',#482,#483);
#379=VERTEX_POINT('',#485);
#380=LINE('',#486,#487);
#381=LINE('',#489,#490);
#382=VERTEX_POINT('',#492);
#383=LINE('',#493,#494);
#384=VERTEX_POINT('',#496);
#385=LINE('',#497,#498);
#386=LINE('',#500,#501);
#387=CARTESIAN_POINT('',(-30.5,-3.,2.));
#388=CARTESIAN_POINT('',(-30.5,-5.,1.88851296588257E-16));
#389=AXIS2_PLACEMENT_3D('',#390,#391,#392);
#390=CARTESIAN_POINT('',(-30.5,-2.99999999999998,0.));
#391=DIRECTION('',(-1.,0.,0.));
#392=DIRECTION('',(0.,-1.,0.));
#393=CARTESIAN_POINT('',(-30.5,3.,2.));
#394=CARTESIAN_POINT('',(-30.5,3.,2.));
#395=VECTOR('',#396,1.);
#396=DIRECTION('',(0.,-1.,0.));
#397=CARTESIAN_POINT('',(-30.5,5.,-3.31933083367653E-17));
#398=AXIS2_PLACEMENT_3D('',#399,#400,#401);
#399=CARTESIAN_POINT('',(-30.5,3.,0.));
#400=DIRECTION('',(-1.,0.,0.));
#401=DIRECTION('',(0.,0.,1.));
#402=CARTESIAN_POINT('',(-30.5,13.8,-1.11022302462516E-16));
#403=CARTESIAN_POINT('',(-30.5,5.,0.));
#404=VECTOR('',#405,1.);
#405=DIRECTION('',(0.,1.,0.));
#406=CARTESIAN_POINT('',(-30.5,14.8,-1.));
#407=CARTESIAN_POINT('',(-30.5,13.8,-1.11022302462516E-16));
#408=VECTOR('',#409,1.);
#409=DIRECTION('',(0.,0.707106781186548,-0.707106781186547));
#410=CARTESIAN_POINT('',(-30.5,13.8,-2.));
#411=CARTESIAN_POINT('',(-30.5,14.8,-1.));
#412=VECTOR('',#413,1.);
#413=DIRECTION('',(0.,-0.707106781186547,-0.707106781186547));
#414=CARTESIAN_POINT('',(-30.5,-13.8,-2.));
#415=CARTESIAN_POINT('',(-30.5,13.8,-2.));
#416=VECTOR('',#417,1.);
#417=DIRECTION('',(0.,-1.,0.));
#418=CARTESIAN_POINT('',(-30.5,-14.8,-1.));
#419=CARTESIAN_POINT('',(-30.5,-13.8,-2.));
#420=VECTOR('',#421,1.);
#421=DIRECTION('',(0.,-0.707106781186547,0.707106781186548));
#422=CARTESIAN_POINT('',(-30.5,-13.8,-6.66133814775094E-16));
#423=CARTESIAN_POINT('',(-30.5,-14.8,-1.));
#424=VECTOR('',#425,1.);
#425=DIRECTION('',(0.,0.707106781186547,0.707106781186548));
#426=CARTESIAN_POINT('',(-30.5,-13.8,0.));
#427=VECTOR('',#428,1.);
#428=DIRECTION('',(0.,1.,0.));
#429=CARTESIAN_POINT('',(-29.5,-5.,2.29672856559835E-16));
#430=CARTESIAN_POINT('',(-30.5,-5.,2.83276944882386E-16));
#431=VECTOR('',#432,1.);
#432=DIRECTION('',(1.,-1.77635683940025E-15,0.));
#433=CARTESIAN_POINT('',(29.,-13.8,0.));
#434=CARTESIAN_POINT('',(-30.5,-13.8,1.11022302462516E-16));
#435=VECTOR('',#436,1.);
#436=DIRECTION('',(1.,-5.97094735932857E-17,-3.73184209958036E-18));
#437=CARTESIAN_POINT('',(29.,13.8,0.));
#438=CARTESIAN_POINT('',(29.,-13.8,0.));
#439=VECTOR('',#440,1.);
#440=DIRECTION('',(0.,1.,0.));
#441=CARTESIAN_POINT('',(-30.5,13.8,0.));
#442=VECTOR('',#443,1.);
#443=DIRECTION('',(1.,-2.98547367966429E-17,5.59776314937054E-18));
#444=CARTESIAN_POINT('',(-29.5,5.,-1.07208176645109E-16));
#445=CARTESIAN_POINT('',(-29.5,5.,-1.60812264967664E-16));
#446=VECTOR('',#447,1.);
#447=DIRECTION('',(-1.,0.,0.));
#448=CARTESIAN_POINT('',(-29.5,-5.,0.));
#449=VECTOR('',#450,1.);
#450=DIRECTION('',(0.,1.,0.));
#451=CARTESIAN_POINT('',(-29.5,-3.,2.));
#452=AXIS2_PLACEMENT_3D('',#453,#454,#455);
#453=CARTESIAN_POINT('',(-29.5,-2.99999999999998,0.));
#454=DIRECTION('',(1.,0.,0.));
#455=DIRECTION('',(0.,-7.105427357601E-15,1.));
#456=CARTESIAN_POINT('',(-29.5,3.,2.));
#457=AXIS2_PLACEMENT_3D('',#458,#459,#460);
#458=CARTESIAN_POINT('',(-29.5,3.,0.));
#459=DIRECTION('',(1.,0.,0.));
#460=DIRECTION('',(0.,1.,0.));
#461=CARTESIAN_POINT('',(-29.5,-3.,2.));
#462=VECTOR('',#463,1.);
#463=DIRECTION('',(0.,1.,0.));
#464=CARTESIAN_POINT('',(29.,-13.8,-2.));
#465=CARTESIAN_POINT('',(-30.5,-13.8,-2.));
#466=VECTOR('',#467,1.);
#467=DIRECTION('',(1.,-5.97094735932857E-17,7.46368419916072E-18));
#468=CARTESIAN_POINT('',(29.,-14.8,-1.));
#469=CARTESIAN_POINT('',(29.,-14.8,-1.));
#470=VECTOR('',#471,1.);
#471=DIRECTION('',(0.,0.707106781186547,-0.707106781186548));
#472=CARTESIAN_POINT('',(29.,-14.8,-1.));
#473=CARTESIAN_POINT('',(29.,-14.8,-1.));
#474=VECTOR('',#475,1.);
#475=DIRECTION('',(-1.,2.98547367966429E-17,0.));
#476=CARTESIAN_POINT('',(29.,-13.8,-1.11022302462516E-15));
#477=VECTOR('',#478,1.);
#478=DIRECTION('',(0.,-0.707106781186547,-0.707106781186548));
#479=CARTESIAN_POINT('',(-30.5,-3.,2.));
#480=VECTOR('',#481,1.);
#481=DIRECTION('',(1.,-1.77635683940024E-15,0.));
#482=CARTESIAN_POINT('',(-29.5,3.,2.));
#483=VECTOR('',#484,1.);
#484=DIRECTION('',(-1.,0.,0.));
#485=CARTESIAN_POINT('',(29.,14.8,-1.));
#486=CARTESIAN_POINT('',(29.,13.8,4.44089209850063E-16));
#487=VECTOR('',#488,1.);
#488=DIRECTION('',(0.,0.707106781186547,-0.707106781186548));
#489=CARTESIAN_POINT('',(29.,14.8,-1.));
#490=VECTOR('',#491,1.);
#491=DIRECTION('',(-1.,0.,0.));
#492=CARTESIAN_POINT('',(29.,13.8,-2.));
#493=CARTESIAN_POINT('',(29.,14.8,-1.));
#494=VECTOR('',#495,1.);
#495=DIRECTION('',(0.,-0.707106781186547,-0.707106781186548));
#496=CARTESIAN_POINT('',(29.,13.8,-2.));
#497=CARTESIAN_POINT('',(-30.5,13.8,-2.));
#498=VECTOR('',#499,1.);
#499=DIRECTION('',(1.,-2.98547367966429E-17,-7.46368419916072E-18));
#500=CARTESIAN_POINT('',(29.,-13.8,-2.));
#501=VECTOR('',#502,1.);
#502=DIRECTION('',(0.,1.,0.));
ENDSEC;
END-ISO-10303-21;
