ISO-10303-21;
HEADER;
FILE_DESCRIPTION(('STEP AP242'),
    '1');
FILE_NAME('adxl_bed_hot',
    '',
    ('UNSPECIFIED'),
    ('UNSPECIFIED'),
    'C3D Converter',
    'C3D Toolkit',
    '');
FILE_SCHEMA(('AP242_MANAGED_MODEL_BASED_3D_ENGINEERING_MIM_LF { 1 0 10303 442 1 1 4 }'));
ENDSEC;

DATA;
#1=PRODUCT_DEFINITION('','UNSPECIFIED',#28,#31);
#2=SHAPE_DEFINITION_REPRESENTATION(#26,#3);
#3=SHAPE_REPRESENTATION('NONE',(#4),#8);
#4=AXIS2_PLACEMENT_3D('',#5,#6,#7);
#5=CARTESIAN_POINT('',(0.,0.,0.));
#6=DIRECTION('',(0.,0.,1.));
#7=DIRECTION('',(1.,0.,0.));
#8=(GEOMETRIC_REPRESENTATION_CONTEXT(3)GLOBAL_UNCERTAINTY_ASSIGNED_CONTEXT((#10))
GLOBAL_UNIT_ASSIGNED_CONTEXT((#9,#11,#12))REPRESENTATION_CONTEXT('NONE','NONE'));
#9=(LENGTH_UNIT()NAMED_UNIT(*)SI_UNIT(.MILLI.,.METRE.));
#10=UNCERTAINTY_MEASURE_WITH_UNIT(LENGTH_MEASURE(1.E-5),#9,'NONE','NONE');
#11=(NAMED_UNIT(*)PLANE_ANGLE_UNIT()SI_UNIT($,.RADIAN.));
#12=(NAMED_UNIT(*)SI_UNIT($,.STERADIAN.)SOLID_ANGLE_UNIT());
#13=MANIFOLD_SOLID_BREP('',#14);
#14=CLOSED_SHELL('',(#53,#62,#71,#80,#89,#98,#107,#116,#125,#134,#143,#152,#161,
#170,#179));
#15=COLOUR_RGB('',0.564705882352941,0.564705882352941,0.564705882352941);
#16=FILL_AREA_STYLE_COLOUR('',#15);
#17=FILL_AREA_STYLE($,(#16));
#18=SURFACE_STYLE_FILL_AREA(#17);
#19=SURFACE_SIDE_STYLE('',(#18));
#20=SURFACE_STYLE_USAGE(.BOTH.,#19);
#21=PRESENTATION_STYLE_ASSIGNMENT((#20));
#22=MECHANICAL_DESIGN_GEOMETRIC_PRESENTATION_REPRESENTATION('NONE',(#23,#61,#70,
#79,#88,#97,#106,#115,#124,#133,#142,#151,#160,#169,#178,#187),#8);
#23=STYLED_ITEM('',(#21),#13);
#24=ADVANCED_BREP_SHAPE_REPRESENTATION('NONE',(#13),#8);
#25=SHAPE_REPRESENTATION_RELATIONSHIP('','',#3,#24);
#26=PRODUCT_DEFINITION_SHAPE('NONE','NONE',#1);
#27=MECHANICAL_CONTEXT('NONE',#32,'mechanical');
#28=PRODUCT_DEFINITION_FORMATION_WITH_SPECIFIED_SOURCE('ANY','UNSPECIFIED',#29,.NOT_KNOWN.);
#29=PRODUCT('','\X2\0414043504420430043B044C\X0\','NONE',(#27));
#30=PRODUCT_RELATED_PRODUCT_CATEGORY('detail','',(#29));
#31=DESIGN_CONTEXT('detailed design',#32,'design');
#32=APPLICATION_CONTEXT('configuration controlled 3d designs of mechanical parts and assemblies');
#33=APPLICATION_PROTOCOL_DEFINITION('international standard','config_control_design',
1994,#32);
#34=CC_DESIGN_DATE_AND_TIME_ASSIGNMENT(#35,#39,(#1));
#35=DATE_AND_TIME(#36,#37);
#36=CALENDAR_DATE(0,1,1);
#37=LOCAL_TIME(0,0,0.,#38);
#38=COORDINATED_UNIVERSAL_TIME_OFFSET(0,0,.AHEAD.);
#39=DATE_TIME_ROLE('creation_date');
#40=CC_DESIGN_APPROVAL(#41,(#1));
#41=APPROVAL(#42,'UNSPECIFIED');
#42=APPROVAL_STATUS('not_yet_approved');
#43=APPROVAL_DATE_TIME(#44,#41);
#44=DATE_AND_TIME(#45,#46);
#45=CALENDAR_DATE(0,1,1);
#46=LOCAL_TIME(0,0,0.,#47);
#47=COORDINATED_UNIVERSAL_TIME_OFFSET(0,0,.AHEAD.);
#48=PERSON('UNSPECIFIED','savatneevvg','UNSPECIFIED',('UNSPECIFIED'),('UNSPECIFIED'),
('UNSPECIFIED'));
#49=ORGANIZATION('UNSPECIFIED','UNSPECIFIED','UNSPECIFIED');
#50=PERSON_AND_ORGANIZATION(#48,#49);
#51=PERSON_AND_ORGANIZATION_ROLE('creator');
#52=CC_DESIGN_PERSON_AND_ORGANIZATION_ASSIGNMENT(#50,#51,(#28,#1));
#53=ADVANCED_FACE('',(#188),#190,.F.);
#54=COLOUR_RGB('',0.564705882352941,0.564705882352941,0.564705882352941);
#55=FILL_AREA_STYLE_COLOUR('',#54);
#56=FILL_AREA_STYLE($,(#55));
#57=SURFACE_STYLE_FILL_AREA(#56);
#58=SURFACE_SIDE_STYLE('',(#57));
#59=SURFACE_STYLE_USAGE(.BOTH.,#58);
#60=PRESENTATION_STYLE_ASSIGNMENT((#59));
#61=STYLED_ITEM('',(#60),#53);
#62=ADVANCED_FACE('',(#195),#197,.F.);
#63=COLOUR_RGB('',0.564705882352941,0.564705882352941,0.564705882352941);
#64=FILL_AREA_STYLE_COLOUR('',#63);
#65=FILL_AREA_STYLE($,(#64));
#66=SURFACE_STYLE_FILL_AREA(#65);
#67=SURFACE_SIDE_STYLE('',(#66));
#68=SURFACE_STYLE_USAGE(.BOTH.,#67);
#69=PRESENTATION_STYLE_ASSIGNMENT((#68));
#70=STYLED_ITEM('',(#69),#62);
#71=ADVANCED_FACE('',(#202,#204),#206,.F.);
#72=COLOUR_RGB('',0.564705882352941,0.564705882352941,0.564705882352941);
#73=FILL_AREA_STYLE_COLOUR('',#72);
#74=FILL_AREA_STYLE($,(#73));
#75=SURFACE_STYLE_FILL_AREA(#74);
#76=SURFACE_SIDE_STYLE('',(#75));
#77=SURFACE_STYLE_USAGE(.BOTH.,#76);
#78=PRESENTATION_STYLE_ASSIGNMENT((#77));
#79=STYLED_ITEM('',(#78),#71);
#80=ADVANCED_FACE('',(#211,#213),#215,.F.);
#81=COLOUR_RGB('',0.564705882352941,0.564705882352941,0.564705882352941);
#82=FILL_AREA_STYLE_COLOUR('',#81);
#83=FILL_AREA_STYLE($,(#82));
#84=SURFACE_STYLE_FILL_AREA(#83);
#85=SURFACE_SIDE_STYLE('',(#84));
#86=SURFACE_STYLE_USAGE(.BOTH.,#85);
#87=PRESENTATION_STYLE_ASSIGNMENT((#86));
#88=STYLED_ITEM('',(#87),#80);
#89=ADVANCED_FACE('',(#220),#222,.F.);
#90=COLOUR_RGB('',0.564705882352941,0.564705882352941,0.564705882352941);
#91=FILL_AREA_STYLE_COLOUR('',#90);
#92=FILL_AREA_STYLE($,(#91));
#93=SURFACE_STYLE_FILL_AREA(#92);
#94=SURFACE_SIDE_STYLE('',(#93));
#95=SURFACE_STYLE_USAGE(.BOTH.,#94);
#96=PRESENTATION_STYLE_ASSIGNMENT((#95));
#97=STYLED_ITEM('',(#96),#89);
#98=ADVANCED_FACE('',(#227,#229),#231,.T.);
#99=COLOUR_RGB('',0.564705882352941,0.564705882352941,0.564705882352941);
#100=FILL_AREA_STYLE_COLOUR('',#99);
#101=FILL_AREA_STYLE($,(#100));
#102=SURFACE_STYLE_FILL_AREA(#101);
#103=SURFACE_SIDE_STYLE('',(#102));
#104=SURFACE_STYLE_USAGE(.BOTH.,#103);
#105=PRESENTATION_STYLE_ASSIGNMENT((#104));
#106=STYLED_ITEM('',(#105),#98);
#107=ADVANCED_FACE('',(#236),#238,.F.);
#108=COLOUR_RGB('',0.564705882352941,0.564705882352941,0.564705882352941);
#109=FILL_AREA_STYLE_COLOUR('',#108);
#110=FILL_AREA_STYLE($,(#109));
#111=SURFACE_STYLE_FILL_AREA(#110);
#112=SURFACE_SIDE_STYLE('',(#111));
#113=SURFACE_STYLE_USAGE(.BOTH.,#112);
#114=PRESENTATION_STYLE_ASSIGNMENT((#113));
#115=STYLED_ITEM('',(#114),#107);
#116=ADVANCED_FACE('',(#243,#245,#247),#249,.T.);
#117=COLOUR_RGB('',0.564705882352941,0.564705882352941,0.564705882352941);
#118=FILL_AREA_STYLE_COLOUR('',#117);
#119=FILL_AREA_STYLE($,(#118));
#120=SURFACE_STYLE_FILL_AREA(#119);
#121=SURFACE_SIDE_STYLE('',(#120));
#122=SURFACE_STYLE_USAGE(.BOTH.,#121);
#123=PRESENTATION_STYLE_ASSIGNMENT((#122));
#124=STYLED_ITEM('',(#123),#116);
#125=ADVANCED_FACE('',(#254),#256,.T.);
#126=COLOUR_RGB('',0.564705882352941,0.564705882352941,0.564705882352941);
#127=FILL_AREA_STYLE_COLOUR('',#126);
#128=FILL_AREA_STYLE($,(#127));
#129=SURFACE_STYLE_FILL_AREA(#128);
#130=SURFACE_SIDE_STYLE('',(#129));
#131=SURFACE_STYLE_USAGE(.BOTH.,#130);
#132=PRESENTATION_STYLE_ASSIGNMENT((#131));
#133=STYLED_ITEM('',(#132),#125);
#134=ADVANCED_FACE('',(#261),#263,.F.);
#135=COLOUR_RGB('',0.564705882352941,0.564705882352941,0.564705882352941);
#136=FILL_AREA_STYLE_COLOUR('',#135);
#137=FILL_AREA_STYLE($,(#136));
#138=SURFACE_STYLE_FILL_AREA(#137);
#139=SURFACE_SIDE_STYLE('',(#138));
#140=SURFACE_STYLE_USAGE(.BOTH.,#139);
#141=PRESENTATION_STYLE_ASSIGNMENT((#140));
#142=STYLED_ITEM('',(#141),#134);
#143=ADVANCED_FACE('',(#268,#270,#272),#274,.F.);
#144=COLOUR_RGB('',0.564705882352941,0.564705882352941,0.564705882352941);
#145=FILL_AREA_STYLE_COLOUR('',#144);
#146=FILL_AREA_STYLE($,(#145));
#147=SURFACE_STYLE_FILL_AREA(#146);
#148=SURFACE_SIDE_STYLE('',(#147));
#149=SURFACE_STYLE_USAGE(.BOTH.,#148);
#150=PRESENTATION_STYLE_ASSIGNMENT((#149));
#151=STYLED_ITEM('',(#150),#143);
#152=ADVANCED_FACE('',(#279),#281,.T.);
#153=COLOUR_RGB('',0.564705882352941,0.564705882352941,0.564705882352941);
#154=FILL_AREA_STYLE_COLOUR('',#153);
#155=FILL_AREA_STYLE($,(#154));
#156=SURFACE_STYLE_FILL_AREA(#155);
#157=SURFACE_SIDE_STYLE('',(#156));
#158=SURFACE_STYLE_USAGE(.BOTH.,#157);
#159=PRESENTATION_STYLE_ASSIGNMENT((#158));
#160=STYLED_ITEM('',(#159),#152);
#161=ADVANCED_FACE('',(#286),#288,.T.);
#162=COLOUR_RGB('',0.564705882352941,0.564705882352941,0.564705882352941);
#163=FILL_AREA_STYLE_COLOUR('',#162);
#164=FILL_AREA_STYLE($,(#163));
#165=SURFACE_STYLE_FILL_AREA(#164);
#166=SURFACE_SIDE_STYLE('',(#165));
#167=SURFACE_STYLE_USAGE(.BOTH.,#166);
#168=PRESENTATION_STYLE_ASSIGNMENT((#167));
#169=STYLED_ITEM('',(#168),#161);
#170=ADVANCED_FACE('',(#293),#295,.T.);
#171=COLOUR_RGB('',0.564705882352941,0.564705882352941,0.564705882352941);
#172=FILL_AREA_STYLE_COLOUR('',#171);
#173=FILL_AREA_STYLE($,(#172));
#174=SURFACE_STYLE_FILL_AREA(#173);
#175=SURFACE_SIDE_STYLE('',(#174));
#176=SURFACE_STYLE_USAGE(.BOTH.,#175);
#177=PRESENTATION_STYLE_ASSIGNMENT((#176));
#178=STYLED_ITEM('',(#177),#170);
#179=ADVANCED_FACE('',(#300),#302,.T.);
#180=COLOUR_RGB('',0.564705882352941,0.564705882352941,0.564705882352941);
#181=FILL_AREA_STYLE_COLOUR('',#180);
#182=FILL_AREA_STYLE($,(#181));
#183=SURFACE_STYLE_FILL_AREA(#182);
#184=SURFACE_SIDE_STYLE('',(#183));
#185=SURFACE_STYLE_USAGE(.BOTH.,#184);
#186=PRESENTATION_STYLE_ASSIGNMENT((#185));
#187=STYLED_ITEM('',(#186),#179);
#188=FACE_BOUND('',#189,.T.);
#189=EDGE_LOOP('',(#307,#308,#309,#310,#311,#312));
#190=PLANE('',#191);
#191=AXIS2_PLACEMENT_3D('',#192,#193,#194);
#192=CARTESIAN_POINT('',(10.5,-8.1,2.6));
#193=DIRECTION('',(1.,-5.07530525542929E-16,0.));
#194=DIRECTION('',(5.07530525542929E-16,1.,0.));
#195=FACE_BOUND('',#196,.T.);
#196=EDGE_LOOP('',(#313,#314,#315,#316,#317,#318));
#197=PLANE('',#198);
#198=AXIS2_PLACEMENT_3D('',#199,#200,#201);
#199=CARTESIAN_POINT('',(-10.5,-4.6,2.6));
#200=DIRECTION('',(-1.,5.07530525542929E-16,0.));
#201=DIRECTION('',(-5.07530525542929E-16,-1.,0.));
#202=FACE_OUTER_BOUND('',#203,.T.);
#203=EDGE_LOOP('',(#319));
#204=FACE_OUTER_BOUND('',#205,.T.);
#205=EDGE_LOOP('',(#320));
#206=CYLINDRICAL_SURFACE('',#207,1.5);
#207=AXIS2_PLACEMENT_3D('',#208,#209,#210);
#208=CARTESIAN_POINT('',(7.65,5.4,0.));
#209=DIRECTION('',(0.,0.,1.));
#210=DIRECTION('',(-1.,1.22464679914735E-16,0.));
#211=FACE_OUTER_BOUND('',#212,.T.);
#212=EDGE_LOOP('',(#321));
#213=FACE_OUTER_BOUND('',#214,.T.);
#214=EDGE_LOOP('',(#322));
#215=CYLINDRICAL_SURFACE('',#216,1.5);
#216=AXIS2_PLACEMENT_3D('',#217,#218,#219);
#217=CARTESIAN_POINT('',(-7.65,5.4,0.));
#218=DIRECTION('',(0.,0.,1.));
#219=DIRECTION('',(-1.,1.22464679914735E-16,0.));
#220=FACE_BOUND('',#221,.T.);
#221=EDGE_LOOP('',(#323,#324,#325,#326));
#222=PLANE('',#223);
#223=AXIS2_PLACEMENT_3D('',#224,#225,#226);
#224=CARTESIAN_POINT('',(10.5,-4.6,2.6));
#225=DIRECTION('',(8.45884209238214E-17,1.,0.));
#226=DIRECTION('',(-1.,8.45884209238214E-17,0.));
#227=FACE_BOUND('',#228,.T.);
#228=EDGE_LOOP('',(#327,#328,#329,#330));
#229=FACE_BOUND('',#230,.T.);
#230=EDGE_LOOP('',(#331,#332,#333,#334));
#231=PLANE('',#232);
#232=AXIS2_PLACEMENT_3D('',#233,#234,#235);
#233=CARTESIAN_POINT('',(0.,0.,7.6));
#234=DIRECTION('',(0.,0.,1.));
#235=DIRECTION('',(-1.,1.22464679914735E-16,0.));
#236=FACE_BOUND('',#237,.T.);
#237=EDGE_LOOP('',(#335,#336,#337,#338));
#238=PLANE('',#239);
#239=AXIS2_PLACEMENT_3D('',#240,#241,#242);
#240=CARTESIAN_POINT('',(10.5,8.1,5.6));
#241=DIRECTION('',(1.69176841847643E-16,1.,0.));
#242=DIRECTION('',(-1.,1.69176841847643E-16,0.));
#243=FACE_BOUND('',#244,.T.);
#244=EDGE_LOOP('',(#339,#340,#341,#342));
#245=FACE_BOUND('',#246,.T.);
#246=EDGE_LOOP('',(#343));
#247=FACE_BOUND('',#248,.T.);
#248=EDGE_LOOP('',(#344));
#249=PLANE('',#250);
#250=AXIS2_PLACEMENT_3D('',#251,#252,#253);
#251=CARTESIAN_POINT('',(0.,0.,5.6));
#252=DIRECTION('',(0.,0.,1.));
#253=DIRECTION('',(-1.,1.22464679914735E-16,0.));
#254=FACE_BOUND('',#255,.T.);
#255=EDGE_LOOP('',(#345,#346,#347,#348));
#256=PLANE('',#257);
#257=AXIS2_PLACEMENT_3D('',#258,#259,#260);
#258=CARTESIAN_POINT('',(0.,0.,2.6));
#259=DIRECTION('',(0.,0.,1.));
#260=DIRECTION('',(-1.,1.22464679914735E-16,0.));
#261=FACE_BOUND('',#262,.T.);
#262=EDGE_LOOP('',(#349,#350,#351,#352));
#263=PLANE('',#264);
#264=AXIS2_PLACEMENT_3D('',#265,#266,#267);
#265=CARTESIAN_POINT('',(-10.5,-8.1,2.6));
#266=DIRECTION('',(-1.69176841847643E-16,-1.,0.));
#267=DIRECTION('',(1.,-1.69176841847643E-16,0.));
#268=FACE_BOUND('',#269,.T.);
#269=EDGE_LOOP('',(#353,#354,#355,#356));
#270=FACE_BOUND('',#271,.T.);
#271=EDGE_LOOP('',(#357));
#272=FACE_BOUND('',#273,.T.);
#273=EDGE_LOOP('',(#358));
#274=PLANE('',#275);
#275=AXIS2_PLACEMENT_3D('',#276,#277,#278);
#276=CARTESIAN_POINT('',(0.,0.,0.));
#277=DIRECTION('',(0.,0.,1.));
#278=DIRECTION('',(-1.,1.22464679914735E-16,0.));
#279=FACE_BOUND('',#280,.T.);
#280=EDGE_LOOP('',(#359,#360,#361,#362));
#281=PLANE('',#282);
#282=AXIS2_PLACEMENT_3D('',#283,#284,#285);
#283=CARTESIAN_POINT('',(-25.,25.,0.));
#284=DIRECTION('',(-1.,7.105427357601E-17,0.));
#285=DIRECTION('',(-7.105427357601E-17,-1.,0.));
#286=FACE_BOUND('',#287,.T.);
#287=EDGE_LOOP('',(#363,#364,#365,#366));
#288=PLANE('',#289);
#289=AXIS2_PLACEMENT_3D('',#290,#291,#292);
#290=CARTESIAN_POINT('',(-25.,-25.,0.));
#291=DIRECTION('',(-1.4210854715202E-16,-1.,0.));
#292=DIRECTION('',(1.,-1.4210854715202E-16,0.));
#293=FACE_BOUND('',#294,.T.);
#294=EDGE_LOOP('',(#367,#368,#369,#370));
#295=PLANE('',#296);
#296=AXIS2_PLACEMENT_3D('',#297,#298,#299);
#297=CARTESIAN_POINT('',(25.,-25.,0.));
#298=DIRECTION('',(1.,-1.4210854715202E-16,0.));
#299=DIRECTION('',(1.4210854715202E-16,1.,0.));
#300=FACE_BOUND('',#301,.T.);
#301=EDGE_LOOP('',(#371,#372,#373,#374));
#302=PLANE('',#303);
#303=AXIS2_PLACEMENT_3D('',#304,#305,#306);
#304=CARTESIAN_POINT('',(25.,25.,0.));
#305=DIRECTION('',(1.4210854715202E-16,1.,0.));
#306=DIRECTION('',(-1.,1.4210854715202E-16,0.));
#307=ORIENTED_EDGE('',*,*,#375,.F.);
#308=ORIENTED_EDGE('',*,*,#376,.F.);
#309=ORIENTED_EDGE('',*,*,#377,.F.);
#310=ORIENTED_EDGE('',*,*,#378,.F.);
#311=ORIENTED_EDGE('',*,*,#379,.F.);
#312=ORIENTED_EDGE('',*,*,#380,.T.);
#313=ORIENTED_EDGE('',*,*,#381,.F.);
#314=ORIENTED_EDGE('',*,*,#382,.F.);
#315=ORIENTED_EDGE('',*,*,#383,.T.);
#316=ORIENTED_EDGE('',*,*,#384,.F.);
#317=ORIENTED_EDGE('',*,*,#385,.T.);
#318=ORIENTED_EDGE('',*,*,#386,.F.);
#319=ORIENTED_EDGE('',*,*,#387,.T.);
#320=ORIENTED_EDGE('',*,*,#388,.F.);
#321=ORIENTED_EDGE('',*,*,#389,.T.);
#322=ORIENTED_EDGE('',*,*,#390,.F.);
#323=ORIENTED_EDGE('',*,*,#391,.T.);
#324=ORIENTED_EDGE('',*,*,#383,.F.);
#325=ORIENTED_EDGE('',*,*,#392,.F.);
#326=ORIENTED_EDGE('',*,*,#378,.T.);
#327=ORIENTED_EDGE('',*,*,#393,.T.);
#328=ORIENTED_EDGE('',*,*,#394,.T.);
#329=ORIENTED_EDGE('',*,*,#395,.T.);
#330=ORIENTED_EDGE('',*,*,#396,.T.);
#331=ORIENTED_EDGE('',*,*,#397,.T.);
#332=ORIENTED_EDGE('',*,*,#375,.T.);
#333=ORIENTED_EDGE('',*,*,#398,.T.);
#334=ORIENTED_EDGE('',*,*,#386,.T.);
#335=ORIENTED_EDGE('',*,*,#397,.F.);
#336=ORIENTED_EDGE('',*,*,#385,.F.);
#337=ORIENTED_EDGE('',*,*,#399,.F.);
#338=ORIENTED_EDGE('',*,*,#376,.T.);
#339=ORIENTED_EDGE('',*,*,#391,.F.);
#340=ORIENTED_EDGE('',*,*,#377,.T.);
#341=ORIENTED_EDGE('',*,*,#399,.T.);
#342=ORIENTED_EDGE('',*,*,#384,.T.);
#343=ORIENTED_EDGE('',*,*,#389,.F.);
#344=ORIENTED_EDGE('',*,*,#387,.F.);
#345=ORIENTED_EDGE('',*,*,#382,.T.);
#346=ORIENTED_EDGE('',*,*,#400,.T.);
#347=ORIENTED_EDGE('',*,*,#379,.T.);
#348=ORIENTED_EDGE('',*,*,#392,.T.);
#349=ORIENTED_EDGE('',*,*,#398,.F.);
#350=ORIENTED_EDGE('',*,*,#380,.F.);
#351=ORIENTED_EDGE('',*,*,#400,.F.);
#352=ORIENTED_EDGE('',*,*,#381,.T.);
#353=ORIENTED_EDGE('',*,*,#401,.F.);
#354=ORIENTED_EDGE('',*,*,#402,.F.);
#355=ORIENTED_EDGE('',*,*,#403,.F.);
#356=ORIENTED_EDGE('',*,*,#404,.F.);
#357=ORIENTED_EDGE('',*,*,#388,.T.);
#358=ORIENTED_EDGE('',*,*,#390,.T.);
#359=ORIENTED_EDGE('',*,*,#404,.T.);
#360=ORIENTED_EDGE('',*,*,#405,.T.);
#361=ORIENTED_EDGE('',*,*,#393,.F.);
#362=ORIENTED_EDGE('',*,*,#406,.F.);
#363=ORIENTED_EDGE('',*,*,#403,.T.);
#364=ORIENTED_EDGE('',*,*,#407,.T.);
#365=ORIENTED_EDGE('',*,*,#394,.F.);
#366=ORIENTED_EDGE('',*,*,#405,.F.);
#367=ORIENTED_EDGE('',*,*,#402,.T.);
#368=ORIENTED_EDGE('',*,*,#408,.T.);
#369=ORIENTED_EDGE('',*,*,#395,.F.);
#370=ORIENTED_EDGE('',*,*,#407,.F.);
#371=ORIENTED_EDGE('',*,*,#401,.T.);
#372=ORIENTED_EDGE('',*,*,#406,.T.);
#373=ORIENTED_EDGE('',*,*,#396,.F.);
#374=ORIENTED_EDGE('',*,*,#408,.F.);
#375=EDGE_CURVE('',#409,#410,#411,.F.);
#376=EDGE_CURVE('',#412,#409,#413,.T.);
#377=EDGE_CURVE('',#414,#412,#415,.T.);
#378=EDGE_CURVE('',#416,#414,#417,.T.);
#379=EDGE_CURVE('',#418,#416,#419,.T.);
#380=EDGE_CURVE('',#418,#410,#420,.T.);
#381=EDGE_CURVE('',#421,#422,#423,.T.);
#382=EDGE_CURVE('',#424,#421,#425,.T.);
#383=EDGE_CURVE('',#424,#426,#427,.T.);
#384=EDGE_CURVE('',#428,#426,#429,.T.);
#385=EDGE_CURVE('',#428,#430,#431,.T.);
#386=EDGE_CURVE('',#422,#430,#432,.F.);
#387=EDGE_CURVE('',#433,#433,#434,.T.);
#388=EDGE_CURVE('',#435,#435,#436,.T.);
#389=EDGE_CURVE('',#437,#437,#438,.T.);
#390=EDGE_CURVE('',#439,#439,#440,.T.);
#391=EDGE_CURVE('',#414,#426,#441,.F.);
#392=EDGE_CURVE('',#416,#424,#442,.T.);
#393=EDGE_CURVE('',#443,#444,#445,.T.);
#394=EDGE_CURVE('',#444,#446,#447,.T.);
#395=EDGE_CURVE('',#446,#448,#449,.T.);
#396=EDGE_CURVE('',#448,#443,#450,.T.);
#397=EDGE_CURVE('',#430,#409,#451,.F.);
#398=EDGE_CURVE('',#410,#422,#452,.F.);
#399=EDGE_CURVE('',#412,#428,#453,.T.);
#400=EDGE_CURVE('',#421,#418,#454,.T.);
#401=EDGE_CURVE('',#455,#456,#457,.T.);
#402=EDGE_CURVE('',#458,#455,#459,.T.);
#403=EDGE_CURVE('',#460,#458,#461,.T.);
#404=EDGE_CURVE('',#456,#460,#462,.T.);
#405=EDGE_CURVE('',#460,#444,#463,.T.);
#406=EDGE_CURVE('',#456,#443,#464,.T.);
#407=EDGE_CURVE('',#458,#446,#465,.T.);
#408=EDGE_CURVE('',#455,#448,#466,.T.);
#409=VERTEX_POINT('',#467);
#410=VERTEX_POINT('',#468);
#411=LINE('',#469,#470);
#412=VERTEX_POINT('',#472);
#413=LINE('',#473,#474);
#414=VERTEX_POINT('',#476);
#415=LINE('',#477,#478);
#416=VERTEX_POINT('',#480);
#417=LINE('',#481,#482);
#418=VERTEX_POINT('',#484);
#419=LINE('',#485,#486);
#420=LINE('',#488,#489);
#421=VERTEX_POINT('',#491);
#422=VERTEX_POINT('',#492);
#423=LINE('',#493,#494);
#424=VERTEX_POINT('',#496);
#425=LINE('',#497,#498);
#426=VERTEX_POINT('',#500);
#427=LINE('',#501,#502);
#428=VERTEX_POINT('',#504);
#429=LINE('',#505,#506);
#430=VERTEX_POINT('',#508);
#431=LINE('',#509,#510);
#432=LINE('',#512,#513);
#433=VERTEX_POINT('',#515);
#434=CIRCLE('',#516,1.5);
#435=VERTEX_POINT('',#520);
#436=CIRCLE('',#521,1.5);
#437=VERTEX_POINT('',#525);
#438=CIRCLE('',#526,1.5);
#439=VERTEX_POINT('',#530);
#440=CIRCLE('',#531,1.5);
#441=LINE('',#535,#536);
#442=LINE('',#538,#539);
#443=VERTEX_POINT('',#541);
#444=VERTEX_POINT('',#542);
#445=LINE('',#543,#544);
#446=VERTEX_POINT('',#546);
#447=LINE('',#547,#548);
#448=VERTEX_POINT('',#550);
#449=LINE('',#551,#552);
#450=LINE('',#554,#555);
#451=LINE('',#557,#558);
#452=LINE('',#560,#561);
#453=LINE('',#563,#564);
#454=LINE('',#566,#567);
#455=VERTEX_POINT('',#569);
#456=VERTEX_POINT('',#570);
#457=LINE('',#571,#572);
#458=VERTEX_POINT('',#574);
#459=LINE('',#575,#576);
#460=VERTEX_POINT('',#578);
#461=LINE('',#579,#580);
#462=LINE('',#582,#583);
#463=LINE('',#585,#586);
#464=LINE('',#588,#589);
#465=LINE('',#591,#592);
#466=LINE('',#594,#595);
#467=CARTESIAN_POINT('',(10.5,8.1,7.6));
#468=CARTESIAN_POINT('',(10.5,-8.1,7.6));
#469=CARTESIAN_POINT('',(10.5,-8.1,7.6));
#470=VECTOR('',#471,1.);
#471=DIRECTION('',(4.38606627012407E-16,1.,0.));
#472=CARTESIAN_POINT('',(10.5,8.1,5.6));
#473=CARTESIAN_POINT('',(10.5,8.1,5.6));
#474=VECTOR('',#475,1.);
#475=DIRECTION('',(0.,0.,1.));
#476=CARTESIAN_POINT('',(10.5,-4.6,5.6));
#477=CARTESIAN_POINT('',(10.5,-4.6,5.6));
#478=VECTOR('',#479,1.);
#479=DIRECTION('',(4.19611851826831E-16,1.,0.));
#480=CARTESIAN_POINT('',(10.5,-4.6,2.6));
#481=CARTESIAN_POINT('',(10.5,-4.6,2.6));
#482=VECTOR('',#483,1.);
#483=DIRECTION('',(0.,0.,1.));
#484=CARTESIAN_POINT('',(10.5,-8.1,2.6));
#485=CARTESIAN_POINT('',(10.5,-8.1,2.6));
#486=VECTOR('',#487,1.);
#487=DIRECTION('',(5.07530525542929E-16,1.,0.));
#488=CARTESIAN_POINT('',(10.5,-8.1,2.6));
#489=VECTOR('',#490,1.);
#490=DIRECTION('',(0.,0.,1.));
#491=CARTESIAN_POINT('',(-10.5,-8.1,2.6));
#492=CARTESIAN_POINT('',(-10.5,-8.1,7.6));
#493=CARTESIAN_POINT('',(-10.5,-8.1,2.6));
#494=VECTOR('',#495,1.);
#495=DIRECTION('',(0.,0.,1.));
#496=CARTESIAN_POINT('',(-10.5,-4.6,2.6));
#497=CARTESIAN_POINT('',(-10.5,-4.6,2.6));
#498=VECTOR('',#499,1.);
#499=DIRECTION('',(-5.07530525542929E-16,-1.,0.));
#500=CARTESIAN_POINT('',(-10.5,-4.6,5.6));
#501=CARTESIAN_POINT('',(-10.5,-4.6,2.6));
#502=VECTOR('',#503,1.);
#503=DIRECTION('',(0.,0.,1.));
#504=CARTESIAN_POINT('',(-10.5,8.1,5.6));
#505=CARTESIAN_POINT('',(-10.5,8.1,5.6));
#506=VECTOR('',#507,1.);
#507=DIRECTION('',(-2.79741234551221E-16,-1.,0.));
#508=CARTESIAN_POINT('',(-10.5,8.1,7.6));
#509=CARTESIAN_POINT('',(-10.5,8.1,5.6));
#510=VECTOR('',#511,1.);
#511=DIRECTION('',(0.,0.,1.));
#512=CARTESIAN_POINT('',(-10.5,8.1,7.6));
#513=VECTOR('',#514,1.);
#514=DIRECTION('',(-4.38606627012408E-16,-1.,0.));
#515=CARTESIAN_POINT('',(6.15,5.4,5.6));
#516=AXIS2_PLACEMENT_3D('',#517,#518,#519);
#517=CARTESIAN_POINT('',(7.65,5.4,5.6));
#518=DIRECTION('',(0.,0.,1.));
#519=DIRECTION('',(-1.,1.22464679914735E-16,0.));
#520=CARTESIAN_POINT('',(6.15,5.4,0.));
#521=AXIS2_PLACEMENT_3D('',#522,#523,#524);
#522=CARTESIAN_POINT('',(7.65,5.4,0.));
#523=DIRECTION('',(0.,0.,1.));
#524=DIRECTION('',(-1.,1.22464679914735E-16,0.));
#525=CARTESIAN_POINT('',(-9.15,5.4,5.6));
#526=AXIS2_PLACEMENT_3D('',#527,#528,#529);
#527=CARTESIAN_POINT('',(-7.65,5.4,5.6));
#528=DIRECTION('',(0.,0.,1.));
#529=DIRECTION('',(-1.,1.22464679914735E-16,0.));
#530=CARTESIAN_POINT('',(-9.15,5.4,0.));
#531=AXIS2_PLACEMENT_3D('',#532,#533,#534);
#532=CARTESIAN_POINT('',(-7.65,5.4,0.));
#533=DIRECTION('',(0.,0.,1.));
#534=DIRECTION('',(-1.,1.22464679914735E-16,0.));
#535=CARTESIAN_POINT('',(-10.5,-4.6,5.6));
#536=VECTOR('',#537,1.);
#537=DIRECTION('',(1.,-8.45884209238214E-17,0.));
#538=CARTESIAN_POINT('',(10.5,-4.6,2.6));
#539=VECTOR('',#540,1.);
#540=DIRECTION('',(-1.,8.45884209238214E-17,0.));
#541=CARTESIAN_POINT('',(-25.,25.,7.6));
#542=CARTESIAN_POINT('',(-25.,-25.,7.6));
#543=CARTESIAN_POINT('',(-25.,25.,7.6));
#544=VECTOR('',#545,1.);
#545=DIRECTION('',(-7.105427357601E-17,-1.,0.));
#546=CARTESIAN_POINT('',(25.,-25.,7.6));
#547=CARTESIAN_POINT('',(-25.,-25.,7.6));
#548=VECTOR('',#549,1.);
#549=DIRECTION('',(1.,-1.4210854715202E-16,0.));
#550=CARTESIAN_POINT('',(25.,25.,7.6));
#551=CARTESIAN_POINT('',(25.,-25.,7.6));
#552=VECTOR('',#553,1.);
#553=DIRECTION('',(1.4210854715202E-16,1.,0.));
#554=CARTESIAN_POINT('',(25.,25.,7.6));
#555=VECTOR('',#556,1.);
#556=DIRECTION('',(-1.,1.4210854715202E-16,0.));
#557=CARTESIAN_POINT('',(10.5,8.1,7.6));
#558=VECTOR('',#559,1.);
#559=DIRECTION('',(-1.,1.69176841847643E-16,0.));
#560=CARTESIAN_POINT('',(-10.5,-8.1,7.6));
#561=VECTOR('',#562,1.);
#562=DIRECTION('',(1.,-1.69176841847643E-16,0.));
#563=CARTESIAN_POINT('',(10.5,8.1,5.6));
#564=VECTOR('',#565,1.);
#565=DIRECTION('',(-1.,1.69176841847643E-16,0.));
#566=CARTESIAN_POINT('',(-10.5,-8.1,2.6));
#567=VECTOR('',#568,1.);
#568=DIRECTION('',(1.,-1.69176841847643E-16,0.));
#569=CARTESIAN_POINT('',(25.,25.,0.));
#570=CARTESIAN_POINT('',(-25.,25.,0.));
#571=CARTESIAN_POINT('',(25.,25.,0.));
#572=VECTOR('',#573,1.);
#573=DIRECTION('',(-1.,1.4210854715202E-16,0.));
#574=CARTESIAN_POINT('',(25.,-25.,0.));
#575=CARTESIAN_POINT('',(25.,-25.,0.));
#576=VECTOR('',#577,1.);
#577=DIRECTION('',(1.4210854715202E-16,1.,0.));
#578=CARTESIAN_POINT('',(-25.,-25.,0.));
#579=CARTESIAN_POINT('',(-25.,-25.,0.));
#580=VECTOR('',#581,1.);
#581=DIRECTION('',(1.,-1.4210854715202E-16,0.));
#582=CARTESIAN_POINT('',(-25.,25.,0.));
#583=VECTOR('',#584,1.);
#584=DIRECTION('',(-7.105427357601E-17,-1.,0.));
#585=CARTESIAN_POINT('',(-25.,-25.,0.));
#586=VECTOR('',#587,1.);
#587=DIRECTION('',(0.,0.,1.));
#588=CARTESIAN_POINT('',(-25.,25.,0.));
#589=VECTOR('',#590,1.);
#590=DIRECTION('',(0.,0.,1.));
#591=CARTESIAN_POINT('',(25.,-25.,0.));
#592=VECTOR('',#593,1.);
#593=DIRECTION('',(0.,0.,1.));
#594=CARTESIAN_POINT('',(25.,25.,0.));
#595=VECTOR('',#596,1.);
#596=DIRECTION('',(0.,0.,1.));
ENDSEC;
END-ISO-10303-21;
